<?xml version="1.0" encoding="utf-8"?>
<!-- Generator: Adobe Illustrator 22.1.0, SVG Export Plug-In . SVG Version: 6.00 Build 0)  -->
<svg version="1.1" id="Capa_1" xmlns="http://www.w3.org/2000/svg" xmlns:xlink="http://www.w3.org/1999/xlink" x="0px" y="0px"
	 viewBox="0 0 480 480" style="enable-background:new 0 0 480 480;" xml:space="preserve">
<g>
	<g>
		<path d="M477.4,258.3c-13.1-55.9-69.1-90.6-125-77.5C349.6,125.5,303.7,94,248.3,94c-57.4,0-103.8,34.6-103.8,92
			c0,0.5,0,1.1,0,1.6c-5.3-1.1-10.6-1.6-16-1.6c-36.1,0.1-67.8,24.3-77.2,59.2C21.1,254.5,0.5,282.4,0.5,314c0,39.8,32.3,72,72,72
			h304c3,0,5.8-0.1,8.7-0.3c5-0.4,9.9-1.2,14.7-2.4C455.8,370.2,490.5,314.3,477.4,258.3z"/>
	</g>
</g>
</svg>
