<?xml version="1.0" encoding="utf-8"?>
<!-- Generator: Adobe Illustrator 22.1.0, SVG Export Plug-In . SVG Version: 6.00 Build 0)  -->
<svg version="1.1" id="Capa_1" xmlns="http://www.w3.org/2000/svg" xmlns:xlink="http://www.w3.org/1999/xlink" x="0px" y="0px"
	 viewBox="0 0 480 480" style="enable-background:new 0 0 480 480;" xml:space="preserve">
<g>
	<g>
		<path d="M126.6,216.5h-18.4c-5.1,0-9.2,4.1-9.2,9.2s4.1,9.2,9.2,9.2h18.4c5.1,0,9.2-4.1,9.2-9.2S131.6,216.5,126.6,216.5z"/>
	</g>
</g>
<g>
	<g>
		<path d="M371.8,216.5h-18.4c-5.1,0-9.2,4.1-9.2,9.2c0,5.1,4.1,9.2,9.2,9.2h18.4c5.1,0,9.2-4.1,9.2-9.2S376.9,216.5,371.8,216.5z"
			/>
	</g>
</g>
<g>
	<g>
		<path d="M240,329.9c-5.1,0-9.2,4.1-9.2,9.2v18.4c0,5.1,4.1,9.2,9.2,9.2c5.1,0,9.2-4.1,9.2-9.2v-18.4
			C249.2,334,245.1,329.9,240,329.9z"/>
	</g>
</g>
<g>
	<g>
		<path d="M240,84.7c-5.1,0-9.2,4.1-9.2,9.2v18.4c0,5.1,4.1,9.2,9.2,9.2c5.1,0,9.2-4.1,9.2-9.2V93.9C249.2,88.8,245.1,84.7,240,84.7
			z"/>
	</g>
</g>
<g>
	<g>
		<path d="M313.8,335.2l-9.2-15.9c-2.5-4.4-8.2-5.9-12.6-3.4s-5.9,8.2-3.4,12.6l9.2,15.9c2.5,4.4,8.2,5.9,12.6,3.4
			C314.9,345.3,316.4,339.6,313.8,335.2z"/>
	</g>
</g>
<g>
	<g>
		<path d="M191.2,122.9L182,107c-2.5-4.4-8.2-5.9-12.6-3.4c-4.4,2.5-5.9,8.2-3.4,12.6l9.3,15.9c2.5,4.4,8.2,5.9,12.6,3.4
			C192.3,132.9,193.8,127.3,191.2,122.9z"/>
	</g>
</g>
<g>
	<g>
		<path d="M358.7,283.6l-15.9-9.2c-4.4-2.5-10-1-12.6,3.4c-2.5,4.4-1,10,3.4,12.6l15.9,9.2c4.4,2.5,10,1,12.6-3.4
			C364.6,291.8,363.1,286.2,358.7,283.6z"/>
	</g>
</g>
<g>
	<g>
		<path d="M146.4,161l-15.9-9.2c-4.4-2.5-10-1-12.6,3.4c-2.5,4.4-1,10,3.4,12.6l15.9,9.2c4.4,2.5,10,1,12.6-3.4
			C152.3,169.2,150.8,163.6,146.4,161z"/>
	</g>
</g>
<g>
	<g>
		<path d="M362.1,155.2c-2.5-4.4-8.2-5.9-12.6-3.4l-15.9,9.2c-4.4,2.5-5.9,8.2-3.4,12.6c2.5,4.4,8.2,5.9,12.6,3.4l15.9-9.2
			C363.1,165.2,364.6,159.6,362.1,155.2z"/>
	</g>
</g>
<g>
	<g>
		<path d="M149.7,277.8c-2.5-4.4-8.2-5.9-12.6-3.4l-15.9,9.2c-4.4,2.5-5.9,8.2-3.4,12.6c2.5,4.4,8.2,5.9,12.6,3.4l15.9-9.2
			C150.8,287.8,152.3,282.2,149.7,277.8z"/>
	</g>
</g>
<g>
	<g>
		<path d="M310.5,103.6c-4.4-2.5-10-1-12.6,3.4l-9.2,15.9c-2.5,4.4-1,10,3.4,12.6c4.4,2.5,10,1,12.6-3.4l9.2-15.9
			C316.4,111.8,314.9,106.1,310.5,103.6z"/>
	</g>
</g>
<g>
	<g>
		<path d="M187.9,316c-4.4-2.5-10-1-12.6,3.4l-9.2,15.9c-2.5,4.4-1,10,3.4,12.6c4.4,2.5,10,1,12.6-3.4l9.2-15.9
			C193.8,324.1,192.3,318.5,187.9,316z"/>
	</g>
</g>
<g>
	<g>
		<path d="M240,139.9c-47.3,0-85.8,38.5-85.8,85.8s38.5,85.8,85.8,85.8s85.8-38.5,85.8-85.8S287.3,139.9,240,139.9z"/>
	</g>
</g>
<path d="M314.5,395.3"/>
</svg>
