<?xml version="1.0" encoding="utf-8"?>
<!-- Generator: Adobe Illustrator 22.1.0, SVG Export Plug-In . SVG Version: 6.00 Build 0)  -->
<svg version="1.1" id="Capa_1" xmlns="http://www.w3.org/2000/svg" xmlns:xlink="http://www.w3.org/1999/xlink" x="0px" y="0px"
	 viewBox="0 0 480 480" style="enable-background:new 0 0 480 480;" xml:space="preserve">
<g>
	<g>
		<path d="M477.4,184.3c-13.1-55.9-69.1-90.6-125-77.5C349.6,51.5,303.7,20,248.3,20c-57.4,0-103.8,34.6-103.8,92c0,0.5,0,1.1,0,1.6
			c-5.3-1.1-10.6-1.6-16-1.6c-36.1,0.1-67.8,24.3-77.2,59.2C21.1,180.5,0.5,208.4,0.5,240c0,39.8,32.3,72,72,72h304
			c3,0,5.8-0.1,8.7-0.3c5-0.4,9.9-1.2,14.7-2.4C455.8,296.2,490.5,240.3,477.4,184.3z"/>
	</g>
</g>
<g>
	<g>
		<path d="M249.7,386.6c-0.5-0.8-1.3-1.5-2-2c-3.3-2.1-7.6-1.2-9.7,2c-3.5,6.2-21.1,38.2-21.1,50.5c0,14.9,12.1,27,27,27
			c14.9,0,27-12.1,27-27C270.7,424.8,253.1,392.8,249.7,386.6z M243.7,450.6c-7.4,0-13.5-6.1-13.5-13.5c3-11.6,7.5-22.7,13.5-33
			c6,10.3,10.5,21.4,13.5,33C257.2,444.5,251.1,450.6,243.7,450.6z"/>
	</g>
</g>
<path d="M270.8,383.1"/>
<g>
	<g>
		<path d="M185.5,326.6c-0.5-0.8-1.3-1.5-2-2c-3.3-2.1-7.6-1.2-9.7,2c-3.5,6.2-21.1,38.2-21.1,50.5c0,14.9,12.1,27,27,27
			s27-12.1,27-27C206.6,364.8,189,332.9,185.5,326.6z M179.6,390.6c-7.4,0-13.5-6.1-13.5-13.5c3-11.6,7.5-22.7,13.5-33
			c6,10.3,10.5,21.4,13.5,33C193.1,384.6,186.9,390.6,179.6,390.6z"/>
	</g>
</g>
<g>
	<g>
		<path d="M306,326.8c-0.5-0.8-1.3-1.5-2-2c-3.3-2.1-7.6-1.2-9.7,2c-3.5,6.2-21.1,38.2-21.1,50.5c0,14.9,12.1,27,27,27
			s27-12.1,27-27C327.1,365,309.5,333,306,326.8z M300.1,390.8c-7.4,0-13.5-6.1-13.5-13.5c3-11.6,7.5-22.7,13.5-33
			c6,10.3,10.5,21.4,13.5,33C313.6,384.7,307.4,390.8,300.1,390.8z"/>
	</g>
</g>
</svg>
