<?xml version="1.0" encoding="utf-8"?>
<!-- Generator: Adobe Illustrator 22.1.0, SVG Export Plug-In . SVG Version: 6.00 Build 0)  -->
<svg version="1.1" id="Capa_1" xmlns="http://www.w3.org/2000/svg" xmlns:xlink="http://www.w3.org/1999/xlink" x="0px" y="0px"
	 viewBox="0 0 480 480" style="enable-background:new 0 0 480 480;" xml:space="preserve">
<g>
	<g>
		<path d="M477.4,271.3c-12.5-53.4-66-86.5-119.4-74c-2.7-52.8-46.5-82.9-99.4-82.9c-54.8,0-99.1,33-99.1,87.8c0,0.5,0,1.1,0,1.5
			c-5.1-1.1-10.1-1.5-15.3-1.5c-34.5,0.1-64.7,23.2-73.7,56.5C41.7,267.7,22,294.3,22,324.5c0,38,30.8,68.7,68.7,68.7H381
			c2.9,0,5.5-0.1,8.3-0.3c4.8-0.4,9.5-1.1,14-2.3C456.7,378.1,489.9,324.8,477.4,271.3z"/>
	</g>
</g>
<path d="M210.7,99.1c-12.7,0-23-10.3-23-23c0-0.8-0.6-1.4-1.4-1.4c-0.8,0-1.4,0.6-1.4,1.4c0,12.7-10.3,23-23,23
	c-0.8,0-1.4,0.6-1.4,1.4c0,0.8,0.6,1.4,1.4,1.4c12.7,0,23,10.3,23,23c0,0.8,0.6,1.4,1.4,1.4c0.8,0,1.4-0.6,1.4-1.4
	c0-12.7,10.3-23,23-23c0.8,0,1.4-0.6,1.4-1.4C212.1,99.8,211.5,99.1,210.7,99.1z"/>
<path d="M183.6,100.6c3.7-3.2,6.3-7.6,7.4-12.5c-2.1-3.5-3.3-7.6-3.3-11.9c0-0.8-0.6-1.4-1.4-1.4c-0.8,0-1.4,0.6-1.4,1.4
	c0,8.2-4.3,15.4-10.7,19.4c-0.9,0.6-1.8,1-2.7,1.5c0,0-0.1,0-0.1,0c-0.9,0.4-1.9,0.8-2.9,1.1c-0.1,0-0.1,0-0.2,0.1
	c-0.4,0.1-0.8,0.2-1.3,0.3c-0.1,0-0.2,0-0.3,0.1c-0.5,0.1-1,0.2-1.5,0.3c-0.1,0-0.2,0-0.3,0c-0.4,0.1-0.8,0.1-1.2,0.1
	c-0.1,0-0.3,0-0.4,0c-0.5,0-1,0.1-1.4,0.1c0,0,0,0-0.1,0c-0.8,0-1.4,0.6-1.4,1.4l0,0l0,0c0,0.8,0.6,1.4,1.4,1.4c0,0,0,0,0.1,0
	c0.5,0,1,0,1.4,0.1c0.1,0,0.3,0,0.4,0c0.4,0,0.8,0.1,1.2,0.1c0.1,0,0.2,0,0.3,0c0.5,0.1,1,0.2,1.5,0.3c0.1,0,0.2,0,0.3,0.1
	c0.4,0.1,0.8,0.2,1.3,0.3c0.1,0,0.1,0,0.2,0.1c1,0.3,1.9,0.7,2.9,1.1c0,0,0.1,0,0.1,0c0.9,0.4,1.9,0.9,2.7,1.5
	c6.4,4.1,10.7,11.3,10.7,19.4c0,0.8,0.6,1.4,1.4,1.4c0.8,0,1.4-0.6,1.4-1.4c0-4.4,1.2-8.5,3.3-11.9
	C190,108.2,187.3,103.8,183.6,100.6z"/>
<g>
	<circle cx="227.2" cy="150.3" r="9.8"/>
	<circle cx="50.4" cy="263.6" r="9.8"/>
</g>
<path d="M142.1,178.7c-29.2-9.7-50.3-37.2-50.3-69.6c0-16.2,5.2-31.6,15-44.4c1.3-1.7,1.3-4-0.1-5.7c-1.3-1.7-3.6-2.2-5.5-1.3
	c-15,6.8-27.6,17.7-36.7,31.5c-9.3,14.2-14.2,30.6-14.2,47.6c0,48,39,87,87,87c17,0,33.5-4.9,47.6-14.2c13.8-9,24.7-21.7,31.5-36.7
	c0.9-1.9,0.3-4.2-1.3-5.5c-1.7-1.3-4-1.3-5.7-0.1c-12.9,9.8-28.2,15-44.4,15c-4.5,0-8.9-0.4-13.1-1.2"/>
<g>
	<circle cx="186.2" cy="156.1" r="5.8"/>
	<circle cx="34.8" cy="225.7" r="5.8"/>
	<circle cx="223.4" cy="66.5" r="5.8"/>
</g>
</svg>
