<?xml version="1.0" encoding="utf-8"?>
<!-- Generator: Adobe Illustrator 23.0.1, SVG Export Plug-In . SVG Version: 6.00 Build 0)  -->
<svg version="1.1" id="Livello_1" xmlns="http://www.w3.org/2000/svg" xmlns:xlink="http://www.w3.org/1999/xlink" x="0px" y="0px"
	 viewBox="0 0 450 799.5" style="enable-background:new 0 0 450 799.5;" xml:space="preserve">
<style type="text/css">
	.st0{fill:#91BCDB;}
	.st1{fill:url(#SVGID_1_);}
	.st2{fill:#C9CDC5;}
	.st3{fill:#BCBFB8;}
	.st4{fill:#FFFFFF;}
	.st5{fill:#F0EFF0;}
	.st6{fill:#464028;}
	.st7{fill:#595B2F;}
	.st8{fill:#F1F9FD;}
	.st9{fill:#B36535;}
	.st10{fill:#A45130;}
	.st11{fill:#5AB160;}
	.st12{fill:#74B96C;}
	.st13{fill:#559850;}
	.st14{opacity:0.1;}
	.st15{fill:#1B3F51;}
	.st16{fill:#EDCC80;}
	.st17{fill:#9B6640;}
	.st18{fill:#56331C;}
	.st19{fill:#F9E5BD;}
	.st20{fill:#6C482A;}
	.st21{fill:#AA724A;}
	.st22{fill:#8A5937;}
	.st23{fill:#331E10;}
	.st24{fill:#361C0F;}
	.st25{fill:#F6E0A3;}
</style>
<rect class="st0" width="450" height="799.5"/>
<g>
	<linearGradient id="SVGID_1_" gradientUnits="userSpaceOnUse" x1="161.2" y1="919.3" x2="161.2" y2="-23">
		<stop  offset="0" style="stop-color:#8CCEE2"/>
		<stop  offset="1" style="stop-color:#5E92BC"/>
	</linearGradient>
	<rect x="-303.9" y="-23" class="st1" width="930.2" height="942.3"/>
</g>
<g>
	<g>
		<polygon class="st2" points="-303.9,677.7 -171.7,677.7 -198.1,345.7 -303.9,563.2 		"/>
	</g>
	<g>
		<polygon class="st3" points="-197.8,345 -198.1,345.7 -171.7,677.7 -50.1,677.7 		"/>
	</g>
	<g>
		<polygon class="st4" points="-249.3,451 -223.7,427.1 -216.3,456 -198.1,435.2 -188.4,468.4 -197.8,345 		"/>
	</g>
	<g>
		<polygon class="st5" points="-152.5,447 -166,438.1 -167.4,459 -183.7,441.7 -188.4,468.4 -197.8,345 		"/>
	</g>
</g>
<g>
	<g>
		<polygon class="st2" points="-206.3,677.7 -66.4,677.7 -93.3,469.4 		"/>
	</g>
	<g>
		<polygon class="st3" points="-92.7,468.4 -93.3,469.4 -66.4,677.7 6.8,677.7 		"/>
	</g>
	<g>
		<polygon class="st4" points="-122.1,522.5 -106.3,511.4 -102.2,539.9 -93.3,525.7 -83.5,545.1 -93.3,469.4 		"/>
	</g>
	<g>
		<polygon class="st5" points="-66.4,523.6 -76.2,516.2 -83.5,545.1 -93.3,469.4 -92.7,468.4 		"/>
	</g>
</g>
<g>
	<g>
		<polygon class="st3" points="268.5,678.4 352.4,678.4 374.8,445.8 		"/>
	</g>
	<g>
		<polygon class="st2" points="376,443 374.8,445.8 352.4,678.4 489.6,678.4 		"/>
	</g>
	<g>
		<polygon class="st5" points="344.3,512.6 361.8,497.8 368.5,510.9 374.8,445.8 		"/>
	</g>
	<g>
		<polygon class="st4" points="376,443 405.1,503.2 383.1,487.5 368.5,510.9 374.8,445.8 		"/>
	</g>
</g>
<g>
	<g>
		<polygon class="st3" points="367,678.4 490.8,678.4 528.8,307.5 		"/>
	</g>
	<g>
		<polygon class="st2" points="627.3,511.3 530.8,302.9 528.8,307.5 490.8,678.4 627.3,678.4 		"/>
	</g>
	<g>
		<polygon class="st5" points="496,382.7 512.5,365.2 520.7,386.7 528.8,307.5 		"/>
	</g>
	<g>
		<polygon class="st4" points="530.8,302.9 571.1,390 553,366.8 548.8,386.7 534,361.2 520.7,386.7 528.8,307.5 		"/>
	</g>
</g>
<g>
	<g>
		<polygon class="st2" points="259,511.4 258.1,513.1 222.9,677.7 332.3,677.7 		"/>
	</g>
	<g>
		<polygon class="st3" points="177.6,677.7 222.9,677.7 258.1,513.1 		"/>
	</g>
	<g>
		<polygon class="st5" points="241.9,546.3 258.1,513.1 250.8,547.5 249.1,539.9 		"/>
	</g>
	<g>
		<polygon class="st4" points="259,511.4 273.1,543.4 264.4,536 263.7,546.1 257.6,535.6 250.8,547.5 258.1,513.1 		"/>
	</g>
</g>
<g>
	<g>
		<path class="st2" d="M-83.5,677.7c0,0,69.8-87.4,116.5-72.1c46.7,15.3,84.5,72.1,84.5,72.1H-83.5z"/>
	</g>
	<g>
		<path class="st3" d="M32.9,613.1c36.2,11.9,84.5,64.6,84.5,64.6s-37.8-56.7-84.5-72c-46.6-15.3-116.4,72-116.4,72
			S-5.3,600.6,32.9,613.1z"/>
	</g>
</g>
<g>
	<rect x="-303.9" y="678.4" class="st6" width="930.2" height="193.9"/>
</g>
<g>
	<path class="st4" d="M626.3,812.1v107.2h-930.2V734.7c52,0.4,104,4.8,155.3,13.4l234.3,39L256,817.2
		C379.1,838.9,504.9,837,626.3,812.1z"/>
</g>
<g>
	<path class="st7" d="M627.3,641.6l-1,183.6h-930.2V640.6c52,0.4,104,4.8,155.3,13.4l234.3,39l176,3.5
		C384.8,718.2,505.9,666.5,627.3,641.6z"/>
</g>
<g>
	<path class="st8" d="M626.3,860.7c-72.7,21.1-167.7,14.7-242.6,4S234.5,837.1,158.9,833c-54.2-2.9-108.6,0.8-162.8,4.6
		c-100.7,7-199.3-46.5-300-39.5v121.3h930.2V860.7z"/>
</g>
<g>
	<g>
		<path class="st2" d="M258.1,677.7c0,0-46.4-49.2-107.6-45.9C95.8,634.7,6.7,677.7,6.7,677.7H258.1z"/>
	</g>
	<g>
		<path class="st3" d="M150.6,640.4c44.9-2.4,107.6,37.4,107.6,37.4s-46.4-49.2-107.6-45.9C95.9,634.8,6.8,677.8,6.8,677.8
			S111.5,642.5,150.6,640.4z"/>
	</g>
</g>
<g>
	<g>
		<g>
			<g>
				<g>
					<rect x="490.9" y="670.7" class="st9" width="3.6" height="14.7"/>
				</g>
				<g>
					<rect x="490.9" y="670.7" class="st10" width="1.8" height="14.7"/>
				</g>
			</g>
			<g>
				<g>
					<g>
						<polygon class="st11" points="478.6,676.2 492.7,649.8 506.8,676.2 						"/>
					</g>
					<g>
						<polygon class="st12" points="492.7,676.2 492.7,649.8 506.8,676.2 						"/>
					</g>
					<g>
						<polygon class="st11" points="501.3,665.8 492.7,665.8 492.7,649.8 						"/>
					</g>
					<g>
						<polygon class="st13" points="492.7,649.8 492.7,665.8 484.1,665.8 						"/>
					</g>
				</g>
				<g>
					<g>
						<polygon class="st11" points="481.6,665 492.7,644.2 503.8,665 						"/>
					</g>
					<g>
						<polygon class="st12" points="492.7,665 492.7,644.2 503.8,665 						"/>
					</g>
					<g>
						<polygon class="st11" points="499.4,656.8 492.7,656.8 492.7,644.2 						"/>
					</g>
					<g>
						<polygon class="st13" points="492.7,644.2 492.7,656.8 486,656.8 						"/>
					</g>
				</g>
				<g>
					<g>
						<polygon class="st11" points="501.7,655.9 483.7,655.9 487.1,649.6 492.7,639.1 498.3,649.6 						"/>
					</g>
					<g>
						<polygon class="st12" points="492.7,655.9 492.7,639.1 501.7,655.9 						"/>
					</g>
				</g>
			</g>
		</g>
		<g class="st14">
			<polygon class="st15" points="490.9,685.5 482.6,688.1 494.5,685.5 			"/>
		</g>
	</g>
	<g>
		<g>
			<g>
				<g>
					<rect x="519.1" y="661.1" class="st9" width="6.9" height="28.7"/>
				</g>
				<g>
					<rect x="519.1" y="661.1" class="st10" width="3.5" height="28.7"/>
				</g>
			</g>
			<g>
				<g>
					<g>
						<polygon class="st11" points="495.1,671.8 522.6,620.3 550.1,671.8 						"/>
					</g>
					<g>
						<polygon class="st12" points="522.6,671.8 522.6,620.3 550.1,671.8 						"/>
					</g>
					<g>
						<polygon class="st11" points="539.3,651.6 522.6,651.6 522.6,620.3 						"/>
					</g>
					<g>
						<polygon class="st13" points="522.6,620.3 522.6,651.6 505.9,651.6 						"/>
					</g>
				</g>
				<g>
					<g>
						<polygon class="st11" points="501,649.9 522.6,609.4 544.1,649.9 						"/>
					</g>
					<g>
						<polygon class="st12" points="522.6,649.9 522.6,609.4 544.1,649.9 						"/>
					</g>
					<g>
						<polygon class="st11" points="535.7,634 522.6,634 522.6,609.4 						"/>
					</g>
					<g>
						<polygon class="st13" points="522.6,609.4 522.6,634 509.5,634 						"/>
					</g>
				</g>
				<g>
					<g>
						<polygon class="st11" points="540.1,632.2 505.1,632.2 511.6,620 522.6,599.4 533.5,620 						"/>
					</g>
					<g>
						<polygon class="st12" points="522.6,632.2 522.6,599.4 540.1,632.2 						"/>
					</g>
				</g>
			</g>
		</g>
		<g class="st14">
			<polygon class="st15" points="519.1,689.8 502.9,694.9 526,689.8 			"/>
		</g>
	</g>
	<g>
		<g>
			<g>
				<g>
					<rect x="555.6" y="674.5" class="st9" width="2.5" height="10.3"/>
				</g>
				<g>
					<rect x="555.6" y="674.5" class="st10" width="1.2" height="10.3"/>
				</g>
			</g>
			<g>
				<g>
					<g>
						<polygon class="st11" points="546.9,678.3 556.8,659.8 566.7,678.3 						"/>
					</g>
					<g>
						<polygon class="st12" points="556.8,678.3 556.8,659.8 566.7,678.3 						"/>
					</g>
					<g>
						<polygon class="st11" points="562.8,671.1 556.8,671.1 556.8,659.8 						"/>
					</g>
					<g>
						<polygon class="st13" points="556.8,659.8 556.8,671.1 550.8,671.1 						"/>
					</g>
				</g>
				<g>
					<g>
						<polygon class="st11" points="549.1,670.5 556.8,655.9 564.5,670.5 						"/>
					</g>
					<g>
						<polygon class="st12" points="556.8,670.5 556.8,655.9 564.5,670.5 						"/>
					</g>
					<g>
						<polygon class="st11" points="561.5,664.8 556.8,664.8 556.8,655.9 						"/>
					</g>
					<g>
						<polygon class="st13" points="556.8,655.9 556.8,664.8 552.1,664.8 						"/>
					</g>
				</g>
				<g>
					<g>
						<polygon class="st11" points="563.1,664.1 550.5,664.1 552.9,659.7 556.8,652.3 560.7,659.7 						"/>
					</g>
					<g>
						<polygon class="st12" points="556.8,664.1 556.8,652.3 563.1,664.1 						"/>
					</g>
				</g>
			</g>
		</g>
		<g class="st14">
			<polygon class="st15" points="555.6,684.8 549.7,686.6 558,684.8 			"/>
		</g>
	</g>
	<g>
		<g>
			<g>
				<g>
					<rect x="580" y="662.9" class="st9" width="5" height="20.6"/>
				</g>
				<g>
					<rect x="580" y="662.9" class="st10" width="2.5" height="20.6"/>
				</g>
			</g>
			<g>
				<g>
					<g>
						<polygon class="st11" points="562.8,670.6 582.5,633.6 602.3,670.6 						"/>
					</g>
					<g>
						<polygon class="st12" points="582.5,670.6 582.5,633.6 602.3,670.6 						"/>
					</g>
					<g>
						<polygon class="st11" points="594.5,656.1 582.5,656.1 582.5,633.6 						"/>
					</g>
					<g>
						<polygon class="st13" points="582.5,633.6 582.5,656.1 570.5,656.1 						"/>
					</g>
				</g>
				<g>
					<g>
						<polygon class="st11" points="567,654.8 582.5,625.8 598,654.8 						"/>
					</g>
					<g>
						<polygon class="st12" points="582.5,654.8 582.5,625.8 598,654.8 						"/>
					</g>
					<g>
						<polygon class="st11" points="591.9,643.4 582.5,643.4 582.5,625.8 						"/>
					</g>
					<g>
						<polygon class="st13" points="582.5,625.8 582.5,643.4 573.1,643.4 						"/>
					</g>
				</g>
				<g>
					<g>
						<polygon class="st11" points="595.1,642.2 570,642.2 574.6,633.4 582.5,618.6 590.4,633.4 						"/>
					</g>
					<g>
						<polygon class="st12" points="582.5,642.2 582.5,618.6 595.1,642.2 						"/>
					</g>
				</g>
			</g>
		</g>
		<g class="st14">
			<polygon class="st15" points="580,683.5 568.4,687.2 585,683.5 			"/>
		</g>
	</g>
	<g>
		<g>
			<g>
				<g>
					<rect x="341.3" y="670.7" class="st9" width="3.6" height="14.7"/>
				</g>
				<g>
					<rect x="341.3" y="670.7" class="st10" width="1.8" height="14.7"/>
				</g>
			</g>
			<g>
				<g>
					<g>
						<polygon class="st11" points="329,676.2 343.1,649.8 357.2,676.2 						"/>
					</g>
					<g>
						<polygon class="st12" points="343.1,676.2 343.1,649.8 357.2,676.2 						"/>
					</g>
					<g>
						<polygon class="st11" points="351.7,665.8 343.1,665.8 343.1,649.8 						"/>
					</g>
					<g>
						<polygon class="st13" points="343.1,649.8 343.1,665.8 334.5,665.8 						"/>
					</g>
				</g>
				<g>
					<g>
						<polygon class="st11" points="332,665 343.1,644.2 354.2,665 						"/>
					</g>
					<g>
						<polygon class="st12" points="343.1,665 343.1,644.2 354.2,665 						"/>
					</g>
					<g>
						<polygon class="st11" points="349.8,656.8 343.1,656.8 343.1,644.2 						"/>
					</g>
					<g>
						<polygon class="st13" points="343.1,644.2 343.1,656.8 336.4,656.8 						"/>
					</g>
				</g>
				<g>
					<g>
						<polygon class="st11" points="352.1,655.9 334.1,655.9 337.5,649.6 343.1,639.1 348.7,649.6 						"/>
					</g>
					<g>
						<polygon class="st12" points="343.1,655.9 343.1,639.1 352.1,655.9 						"/>
					</g>
				</g>
			</g>
		</g>
		<g class="st14">
			<polygon class="st15" points="341.3,685.5 333,688.1 344.9,685.5 			"/>
		</g>
	</g>
	<g>
		<g>
			<g>
				<g>
					<rect x="369.5" y="661.1" class="st9" width="6.9" height="28.7"/>
				</g>
				<g>
					<rect x="369.5" y="661.1" class="st10" width="3.5" height="28.7"/>
				</g>
			</g>
			<g>
				<g>
					<g>
						<polygon class="st11" points="345.5,671.8 373,620.3 400.5,671.8 						"/>
					</g>
					<g>
						<polygon class="st12" points="373,671.8 373,620.3 400.5,671.8 						"/>
					</g>
					<g>
						<polygon class="st11" points="389.7,651.6 373,651.6 373,620.3 						"/>
					</g>
					<g>
						<polygon class="st13" points="373,620.3 373,651.6 356.3,651.6 						"/>
					</g>
				</g>
				<g>
					<g>
						<polygon class="st11" points="351.4,649.9 373,609.4 394.5,649.9 						"/>
					</g>
					<g>
						<polygon class="st12" points="373,649.9 373,609.4 394.5,649.9 						"/>
					</g>
					<g>
						<polygon class="st11" points="386.1,634 373,634 373,609.4 						"/>
					</g>
					<g>
						<polygon class="st13" points="373,609.4 373,634 359.9,634 						"/>
					</g>
				</g>
				<g>
					<g>
						<polygon class="st11" points="390.5,632.2 355.5,632.2 362,620 373,599.4 383.9,620 						"/>
					</g>
					<g>
						<polygon class="st12" points="373,632.2 373,599.4 390.5,632.2 						"/>
					</g>
				</g>
			</g>
		</g>
		<g class="st14">
			<polygon class="st15" points="369.5,689.8 353.3,694.9 376.4,689.8 			"/>
		</g>
	</g>
	<g>
		<g>
			<g>
				<g>
					<rect x="405.9" y="674.5" class="st9" width="2.5" height="10.3"/>
				</g>
				<g>
					<rect x="405.9" y="674.5" class="st10" width="1.2" height="10.3"/>
				</g>
			</g>
			<g>
				<g>
					<g>
						<polygon class="st11" points="397.3,678.3 407.2,659.8 417.1,678.3 						"/>
					</g>
					<g>
						<polygon class="st12" points="407.2,678.3 407.2,659.8 417.1,678.3 						"/>
					</g>
					<g>
						<polygon class="st11" points="413.2,671.1 407.2,671.1 407.2,659.8 						"/>
					</g>
					<g>
						<polygon class="st13" points="407.2,659.8 407.2,671.1 401.2,671.1 						"/>
					</g>
				</g>
				<g>
					<g>
						<polygon class="st11" points="399.4,670.5 407.2,655.9 414.9,670.5 						"/>
					</g>
					<g>
						<polygon class="st12" points="407.2,670.5 407.2,655.9 414.9,670.5 						"/>
					</g>
					<g>
						<polygon class="st11" points="411.9,664.8 407.2,664.8 407.2,655.9 						"/>
					</g>
					<g>
						<polygon class="st13" points="407.2,655.9 407.2,664.8 402.5,664.8 						"/>
					</g>
				</g>
				<g>
					<g>
						<polygon class="st11" points="413.5,664.1 400.9,664.1 403.2,659.7 407.2,652.3 411.1,659.7 						"/>
					</g>
					<g>
						<polygon class="st12" points="407.2,664.1 407.2,652.3 413.5,664.1 						"/>
					</g>
				</g>
			</g>
		</g>
		<g class="st14">
			<polygon class="st15" points="405.9,684.8 400.1,686.6 408.4,684.8 			"/>
		</g>
	</g>
	<g>
		<g>
			<g>
				<g>
					<rect x="430.4" y="662.9" class="st9" width="5" height="20.6"/>
				</g>
				<g>
					<rect x="430.4" y="662.9" class="st10" width="2.5" height="20.6"/>
				</g>
			</g>
			<g>
				<g>
					<g>
						<polygon class="st11" points="413.2,670.6 432.9,633.6 452.7,670.6 						"/>
					</g>
					<g>
						<polygon class="st12" points="432.9,670.6 432.9,633.6 452.7,670.6 						"/>
					</g>
					<g>
						<polygon class="st11" points="444.9,656.1 432.9,656.1 432.9,633.6 						"/>
					</g>
					<g>
						<polygon class="st13" points="432.9,633.6 432.9,656.1 420.9,656.1 						"/>
					</g>
				</g>
				<g>
					<g>
						<polygon class="st11" points="417.4,654.8 432.9,625.8 448.4,654.8 						"/>
					</g>
					<g>
						<polygon class="st12" points="432.9,654.8 432.9,625.8 448.4,654.8 						"/>
					</g>
					<g>
						<polygon class="st11" points="442.3,643.4 432.9,643.4 432.9,625.8 						"/>
					</g>
					<g>
						<polygon class="st13" points="432.9,625.8 432.9,643.4 423.5,643.4 						"/>
					</g>
				</g>
				<g>
					<g>
						<polygon class="st11" points="445.5,642.2 420.3,642.2 425,633.4 432.9,618.6 440.8,633.4 						"/>
					</g>
					<g>
						<polygon class="st12" points="432.9,642.2 432.9,618.6 445.5,642.2 						"/>
					</g>
				</g>
			</g>
		</g>
		<g class="st14">
			<polygon class="st15" points="430.4,683.5 418.8,687.2 435.4,683.5 			"/>
		</g>
	</g>
</g>
<g>
	<g>
		<g>
			<g>
				<g>
					<rect x="-126.9" y="670.1" class="st9" width="3.6" height="14.8"/>
				</g>
				<g>
					<rect x="-126.9" y="670.1" class="st10" width="1.8" height="14.8"/>
				</g>
			</g>
			<g>
				<g>
					<g>
						<polygon class="st11" points="-139.3,675.6 -125.1,649 -111,675.6 						"/>
					</g>
					<g>
						<polygon class="st12" points="-125.1,675.6 -125.1,649 -111,675.6 						"/>
					</g>
					<g>
						<polygon class="st11" points="-116.6,665.2 -125.1,665.2 -125.1,649 						"/>
					</g>
					<g>
						<polygon class="st13" points="-125.1,649 -125.1,665.2 -133.7,665.2 						"/>
					</g>
				</g>
				<g>
					<g>
						<polygon class="st11" points="-136.2,664.3 -125.1,643.5 -114.1,664.3 						"/>
					</g>
					<g>
						<polygon class="st12" points="-125.1,664.3 -125.1,643.5 -114.1,664.3 						"/>
					</g>
					<g>
						<polygon class="st11" points="-118.4,656.1 -125.1,656.1 -125.1,643.5 						"/>
					</g>
					<g>
						<polygon class="st13" points="-125.1,643.5 -125.1,656.1 -131.9,656.1 						"/>
					</g>
				</g>
				<g>
					<g>
						<polygon class="st11" points="-116.2,655.2 -134.1,655.2 -130.8,648.9 -125.1,638.3 -119.5,648.9 						"/>
					</g>
					<g>
						<polygon class="st12" points="-125.1,655.2 -125.1,638.3 -116.2,655.2 						"/>
					</g>
				</g>
			</g>
		</g>
		<g class="st14">
			<polygon class="st15" points="-126.9,684.8 -135.3,687.4 -123.4,684.8 			"/>
		</g>
	</g>
	<g>
		<g>
			<g>
				<g>
					<rect x="-98.7" y="660.4" class="st9" width="6.9" height="28.8"/>
				</g>
				<g>
					<rect x="-98.7" y="660.4" class="st10" width="3.5" height="28.8"/>
				</g>
			</g>
			<g>
				<g>
					<g>
						<polygon class="st11" points="-122.8,671.1 -95.3,619.4 -67.8,671.1 						"/>
					</g>
					<g>
						<polygon class="st12" points="-95.3,671.1 -95.3,619.4 -67.8,671.1 						"/>
					</g>
					<g>
						<polygon class="st11" points="-78.6,650.8 -95.3,650.8 -95.3,619.4 						"/>
					</g>
					<g>
						<polygon class="st13" points="-95.3,619.4 -95.3,650.8 -112,650.8 						"/>
					</g>
				</g>
				<g>
					<g>
						<polygon class="st11" points="-116.8,649.1 -95.3,608.6 -73.7,649.1 						"/>
					</g>
					<g>
						<polygon class="st12" points="-95.3,649.1 -95.3,608.6 -73.7,649.1 						"/>
					</g>
					<g>
						<polygon class="st11" points="-82.2,633.2 -95.3,633.2 -95.3,608.6 						"/>
					</g>
					<g>
						<polygon class="st13" points="-95.3,608.6 -95.3,633.2 -108.4,633.2 						"/>
					</g>
				</g>
				<g>
					<g>
						<polygon class="st11" points="-77.8,631.5 -112.8,631.5 -106.3,619.2 -95.3,598.6 -84.3,619.2 						"/>
					</g>
					<g>
						<polygon class="st12" points="-95.3,631.5 -95.3,598.6 -77.8,631.5 						"/>
					</g>
				</g>
			</g>
		</g>
		<g class="st14">
			<polygon class="st15" points="-98.7,689.2 -115,694.3 -91.8,689.2 			"/>
		</g>
	</g>
	<g>
		<g>
			<g>
				<g>
					<rect x="-62.3" y="673.8" class="st9" width="2.5" height="10.3"/>
				</g>
				<g>
					<rect x="-62.3" y="673.8" class="st10" width="1.2" height="10.3"/>
				</g>
			</g>
			<g>
				<g>
					<g>
						<polygon class="st11" points="-70.9,677.7 -61.1,659.1 -51.2,677.7 						"/>
					</g>
					<g>
						<polygon class="st12" points="-61.1,677.7 -61.1,659.1 -51.2,677.7 						"/>
					</g>
					<g>
						<polygon class="st11" points="-55.1,670.4 -61.1,670.4 -61.1,659.1 						"/>
					</g>
					<g>
						<polygon class="st13" points="-61.1,659.1 -61.1,670.4 -67,670.4 						"/>
					</g>
				</g>
				<g>
					<g>
						<polygon class="st11" points="-68.8,669.8 -61.1,655.2 -53.3,669.8 						"/>
					</g>
					<g>
						<polygon class="st12" points="-61.1,669.8 -61.1,655.2 -53.3,669.8 						"/>
					</g>
					<g>
						<polygon class="st11" points="-56.3,664.1 -61.1,664.1 -61.1,655.2 						"/>
					</g>
					<g>
						<polygon class="st13" points="-61.1,655.2 -61.1,664.1 -65.8,664.1 						"/>
					</g>
				</g>
				<g>
					<g>
						<polygon class="st11" points="-54.8,663.4 -67.3,663.4 -65,659 -61.1,651.6 -57.1,659 						"/>
					</g>
					<g>
						<polygon class="st12" points="-61.1,663.4 -61.1,651.6 -54.8,663.4 						"/>
					</g>
				</g>
			</g>
		</g>
		<g class="st14">
			<polygon class="st15" points="-62.3,684.2 -68.1,686 -59.8,684.2 			"/>
		</g>
	</g>
	<g>
		<g>
			<g>
				<g>
					<rect x="-37.8" y="662.2" class="st9" width="5" height="20.7"/>
				</g>
				<g>
					<rect x="-37.8" y="662.2" class="st10" width="2.5" height="20.7"/>
				</g>
			</g>
			<g>
				<g>
					<g>
						<polygon class="st11" points="-55.1,669.9 -35.3,632.8 -15.6,669.9 						"/>
					</g>
					<g>
						<polygon class="st12" points="-35.3,669.9 -35.3,632.8 -15.6,669.9 						"/>
					</g>
					<g>
						<polygon class="st11" points="-23.3,655.3 -35.3,655.3 -35.3,632.8 						"/>
					</g>
					<g>
						<polygon class="st13" points="-35.3,632.8 -35.3,655.3 -47.3,655.3 						"/>
					</g>
				</g>
				<g>
					<g>
						<polygon class="st11" points="-50.8,654.1 -35.3,625 -19.8,654.1 						"/>
					</g>
					<g>
						<polygon class="st12" points="-35.3,654.1 -35.3,625 -19.8,654.1 						"/>
					</g>
					<g>
						<polygon class="st11" points="-25.9,642.7 -35.3,642.7 -35.3,625 						"/>
					</g>
					<g>
						<polygon class="st13" points="-35.3,625 -35.3,642.7 -44.7,642.7 						"/>
					</g>
				</g>
				<g>
					<g>
						<polygon class="st11" points="-22.8,641.4 -47.9,641.4 -43.2,632.6 -35.3,617.8 -27.4,632.6 						"/>
					</g>
					<g>
						<polygon class="st12" points="-35.3,641.4 -35.3,617.8 -22.8,641.4 						"/>
					</g>
				</g>
			</g>
		</g>
		<g class="st14">
			<polygon class="st15" points="-37.8,682.9 -49.5,686.5 -32.8,682.9 			"/>
		</g>
	</g>
	<g>
		<g>
			<g>
				<g>
					<rect x="-276.5" y="670.1" class="st9" width="3.6" height="14.8"/>
				</g>
				<g>
					<rect x="-276.5" y="670.1" class="st10" width="1.8" height="14.8"/>
				</g>
			</g>
			<g>
				<g>
					<g>
						<polygon class="st11" points="-288.9,675.6 -274.8,649 -260.6,675.6 						"/>
					</g>
					<g>
						<polygon class="st12" points="-274.8,675.6 -274.8,649 -260.6,675.6 						"/>
					</g>
					<g>
						<polygon class="st11" points="-266.2,665.2 -274.8,665.2 -274.8,649 						"/>
					</g>
					<g>
						<polygon class="st13" points="-274.8,649 -274.8,665.2 -283.3,665.2 						"/>
					</g>
				</g>
				<g>
					<g>
						<polygon class="st11" points="-285.8,664.3 -274.8,643.5 -263.7,664.3 						"/>
					</g>
					<g>
						<polygon class="st12" points="-274.8,664.3 -274.8,643.5 -263.7,664.3 						"/>
					</g>
					<g>
						<polygon class="st11" points="-268,656.1 -274.8,656.1 -274.8,643.5 						"/>
					</g>
					<g>
						<polygon class="st13" points="-274.8,643.5 -274.8,656.1 -281.5,656.1 						"/>
					</g>
				</g>
				<g>
					<g>
						<polygon class="st11" points="-265.8,655.2 -283.7,655.2 -280.4,648.9 -274.8,638.3 -269.1,648.9 						"/>
					</g>
					<g>
						<polygon class="st12" points="-274.8,655.2 -274.8,638.3 -265.8,655.2 						"/>
					</g>
				</g>
			</g>
		</g>
		<g class="st14">
			<polygon class="st15" points="-276.5,684.8 -284.9,687.4 -273,684.8 			"/>
		</g>
	</g>
	<g>
		<g>
			<g>
				<g>
					<rect x="-248.3" y="660.4" class="st9" width="6.9" height="28.8"/>
				</g>
				<g>
					<rect x="-248.3" y="660.4" class="st10" width="3.5" height="28.8"/>
				</g>
			</g>
			<g>
				<g>
					<g>
						<polygon class="st11" points="-272.4,671.1 -244.9,619.4 -217.4,671.1 						"/>
					</g>
					<g>
						<polygon class="st12" points="-244.9,671.1 -244.9,619.4 -217.4,671.1 						"/>
					</g>
					<g>
						<polygon class="st11" points="-228.2,650.8 -244.9,650.8 -244.9,619.4 						"/>
					</g>
					<g>
						<polygon class="st13" points="-244.9,619.4 -244.9,650.8 -261.6,650.8 						"/>
					</g>
				</g>
				<g>
					<g>
						<polygon class="st11" points="-266.4,649.1 -244.9,608.6 -223.3,649.1 						"/>
					</g>
					<g>
						<polygon class="st12" points="-244.9,649.1 -244.9,608.6 -223.3,649.1 						"/>
					</g>
					<g>
						<polygon class="st11" points="-231.8,633.2 -244.9,633.2 -244.9,608.6 						"/>
					</g>
					<g>
						<polygon class="st13" points="-244.9,608.6 -244.9,633.2 -258,633.2 						"/>
					</g>
				</g>
				<g>
					<g>
						<polygon class="st11" points="-227.4,631.5 -262.4,631.5 -255.9,619.2 -244.9,598.6 -233.9,619.2 						"/>
					</g>
					<g>
						<polygon class="st12" points="-244.9,631.5 -244.9,598.6 -227.4,631.5 						"/>
					</g>
				</g>
			</g>
		</g>
		<g class="st14">
			<polygon class="st15" points="-248.3,689.2 -264.6,694.3 -241.4,689.2 			"/>
		</g>
	</g>
	<g>
		<g>
			<g>
				<g>
					<rect x="-211.9" y="673.8" class="st9" width="2.5" height="10.3"/>
				</g>
				<g>
					<rect x="-211.9" y="673.8" class="st10" width="1.2" height="10.3"/>
				</g>
			</g>
			<g>
				<g>
					<g>
						<polygon class="st11" points="-220.5,677.7 -210.7,659.1 -200.8,677.7 						"/>
					</g>
					<g>
						<polygon class="st12" points="-210.7,677.7 -210.7,659.1 -200.8,677.7 						"/>
					</g>
					<g>
						<polygon class="st11" points="-204.7,670.4 -210.7,670.4 -210.7,659.1 						"/>
					</g>
					<g>
						<polygon class="st13" points="-210.7,659.1 -210.7,670.4 -216.7,670.4 						"/>
					</g>
				</g>
				<g>
					<g>
						<polygon class="st11" points="-218.4,669.8 -210.7,655.2 -202.9,669.8 						"/>
					</g>
					<g>
						<polygon class="st12" points="-210.7,669.8 -210.7,655.2 -202.9,669.8 						"/>
					</g>
					<g>
						<polygon class="st11" points="-206,664.1 -210.7,664.1 -210.7,655.2 						"/>
					</g>
					<g>
						<polygon class="st13" points="-210.7,655.2 -210.7,664.1 -215.4,664.1 						"/>
					</g>
				</g>
				<g>
					<g>
						<polygon class="st11" points="-204.4,663.4 -216.9,663.4 -214.6,659 -210.7,651.6 -206.7,659 						"/>
					</g>
					<g>
						<polygon class="st12" points="-210.7,663.4 -210.7,651.6 -204.4,663.4 						"/>
					</g>
				</g>
			</g>
		</g>
		<g class="st14">
			<polygon class="st15" points="-211.9,684.2 -217.7,686 -209.4,684.2 			"/>
		</g>
	</g>
	<g>
		<g>
			<g>
				<g>
					<rect x="-187.4" y="662.2" class="st9" width="5" height="20.7"/>
				</g>
				<g>
					<rect x="-187.4" y="662.2" class="st10" width="2.5" height="20.7"/>
				</g>
			</g>
			<g>
				<g>
					<g>
						<polygon class="st11" points="-204.7,669.9 -184.9,632.8 -165.2,669.9 						"/>
					</g>
					<g>
						<polygon class="st12" points="-184.9,669.9 -184.9,632.8 -165.2,669.9 						"/>
					</g>
					<g>
						<polygon class="st11" points="-172.9,655.3 -184.9,655.3 -184.9,632.8 						"/>
					</g>
					<g>
						<polygon class="st13" points="-184.9,632.8 -184.9,655.3 -196.9,655.3 						"/>
					</g>
				</g>
				<g>
					<g>
						<polygon class="st11" points="-200.4,654.1 -184.9,625 -169.5,654.1 						"/>
					</g>
					<g>
						<polygon class="st12" points="-184.9,654.1 -184.9,625 -169.5,654.1 						"/>
					</g>
					<g>
						<polygon class="st11" points="-175.5,642.7 -184.9,642.7 -184.9,625 						"/>
					</g>
					<g>
						<polygon class="st13" points="-184.9,625 -184.9,642.7 -194.3,642.7 						"/>
					</g>
				</g>
				<g>
					<g>
						<polygon class="st11" points="-172.4,641.4 -197.5,641.4 -192.8,632.6 -184.9,617.8 -177.1,632.6 						"/>
					</g>
					<g>
						<polygon class="st12" points="-184.9,641.4 -184.9,617.8 -172.4,641.4 						"/>
					</g>
				</g>
			</g>
		</g>
		<g class="st14">
			<polygon class="st15" points="-187.4,682.9 -199.1,686.5 -182.5,682.9 			"/>
		</g>
	</g>
</g>
<g>
	<g>
		<g>
			<g>
				<g>
					<rect x="169.1" y="666.4" class="st9" width="2.9" height="12"/>
				</g>
				<g>
					<rect x="169.1" y="666.4" class="st10" width="1.4" height="12"/>
				</g>
			</g>
			<g>
				<g>
					<g>
						<polygon class="st11" points="159.1,670.9 170.5,649.3 182,670.9 						"/>
					</g>
					<g>
						<polygon class="st12" points="170.5,670.9 170.5,649.3 182,670.9 						"/>
					</g>
					<g>
						<polygon class="st11" points="177.5,662.4 170.5,662.4 170.5,649.3 						"/>
					</g>
					<g>
						<polygon class="st13" points="170.5,649.3 170.5,662.4 163.6,662.4 						"/>
					</g>
				</g>
				<g>
					<g>
						<polygon class="st11" points="161.5,661.7 170.5,644.7 179.6,661.7 						"/>
					</g>
					<g>
						<polygon class="st12" points="170.5,661.7 170.5,644.7 179.6,661.7 						"/>
					</g>
					<g>
						<polygon class="st11" points="176,655 170.5,655 170.5,644.7 						"/>
					</g>
					<g>
						<polygon class="st13" points="170.5,644.7 170.5,655 165.1,655 						"/>
					</g>
				</g>
				<g>
					<g>
						<polygon class="st11" points="177.9,654.3 163.2,654.3 166,649.2 170.5,640.5 175.1,649.2 						"/>
					</g>
					<g>
						<polygon class="st12" points="170.5,654.3 170.5,640.5 177.9,654.3 						"/>
					</g>
				</g>
			</g>
		</g>
		<g class="st14">
			<polygon class="st15" points="169.1,678.4 162.3,680.5 172,678.4 			"/>
		</g>
	</g>
	<g>
		<g>
			<g>
				<g>
					<rect x="192" y="658.5" class="st9" width="5.6" height="23.4"/>
				</g>
				<g>
					<rect x="192" y="658.5" class="st10" width="2.8" height="23.4"/>
				</g>
			</g>
			<g>
				<g>
					<g>
						<polygon class="st11" points="172.5,667.3 194.9,625.2 217.2,667.3 						"/>
					</g>
					<g>
						<polygon class="st12" points="194.9,667.3 194.9,625.2 217.2,667.3 						"/>
					</g>
					<g>
						<polygon class="st11" points="208.5,650.7 194.9,650.7 194.9,625.2 						"/>
					</g>
					<g>
						<polygon class="st13" points="194.9,625.2 194.9,650.7 181.3,650.7 						"/>
					</g>
				</g>
				<g>
					<g>
						<polygon class="st11" points="177.3,649.3 194.9,616.3 212.4,649.3 						"/>
					</g>
					<g>
						<polygon class="st12" points="194.9,649.3 194.9,616.3 212.4,649.3 						"/>
					</g>
					<g>
						<polygon class="st11" points="205.5,636.4 194.9,636.4 194.9,616.3 						"/>
					</g>
					<g>
						<polygon class="st13" points="194.9,616.3 194.9,636.4 184.2,636.4 						"/>
					</g>
				</g>
				<g>
					<g>
						<polygon class="st11" points="209.1,635 180.6,635 185.9,625 194.9,608.2 203.8,625 						"/>
					</g>
					<g>
						<polygon class="st12" points="194.9,635 194.9,608.2 209.1,635 						"/>
					</g>
				</g>
			</g>
		</g>
		<g class="st14">
			<polygon class="st15" points="192,681.9 178.8,686.1 197.7,681.9 			"/>
		</g>
	</g>
	<g>
		<g>
			<g>
				<g>
					<rect x="221.7" y="669.5" class="st9" width="2" height="8.4"/>
				</g>
				<g>
					<rect x="221.7" y="669.5" class="st10" width="1" height="8.4"/>
				</g>
			</g>
			<g>
				<g>
					<g>
						<polygon class="st11" points="214.7,672.6 222.7,657.5 230.8,672.6 						"/>
					</g>
					<g>
						<polygon class="st12" points="222.7,672.6 222.7,657.5 230.8,672.6 						"/>
					</g>
					<g>
						<polygon class="st11" points="227.6,666.7 222.7,666.7 222.7,657.5 						"/>
					</g>
					<g>
						<polygon class="st13" points="222.7,657.5 222.7,666.7 217.8,666.7 						"/>
					</g>
				</g>
				<g>
					<g>
						<polygon class="st11" points="216.4,666.2 222.7,654.3 229,666.2 						"/>
					</g>
					<g>
						<polygon class="st12" points="222.7,666.2 222.7,654.3 229,666.2 						"/>
					</g>
					<g>
						<polygon class="st11" points="226.6,661.5 222.7,661.5 222.7,654.3 						"/>
					</g>
					<g>
						<polygon class="st13" points="222.7,654.3 222.7,661.5 218.9,661.5 						"/>
					</g>
				</g>
				<g>
					<g>
						<polygon class="st11" points="227.8,661 217.6,661 219.5,657.4 222.7,651.4 225.9,657.4 						"/>
					</g>
					<g>
						<polygon class="st12" points="222.7,661 222.7,651.4 227.8,661 						"/>
					</g>
				</g>
			</g>
		</g>
		<g class="st14">
			<polygon class="st15" points="221.7,677.9 217,679.4 223.7,677.9 			"/>
		</g>
	</g>
	<g>
		<g>
			<g>
				<g>
					<rect x="241.6" y="660" class="st9" width="4" height="16.8"/>
				</g>
				<g>
					<rect x="241.6" y="660" class="st10" width="2" height="16.8"/>
				</g>
			</g>
			<g>
				<g>
					<g>
						<polygon class="st11" points="227.6,666.3 243.7,636 259.7,666.3 						"/>
					</g>
					<g>
						<polygon class="st12" points="243.7,666.3 243.7,636 259.7,666.3 						"/>
					</g>
					<g>
						<polygon class="st11" points="253.4,654.4 243.7,654.4 243.7,636 						"/>
					</g>
					<g>
						<polygon class="st13" points="243.7,636 243.7,654.4 233.9,654.4 						"/>
					</g>
				</g>
				<g>
					<g>
						<polygon class="st11" points="231.1,653.4 243.7,629.7 256.3,653.4 						"/>
					</g>
					<g>
						<polygon class="st12" points="243.7,653.4 243.7,629.7 256.3,653.4 						"/>
					</g>
					<g>
						<polygon class="st11" points="251.3,644.1 243.7,644.1 243.7,629.7 						"/>
					</g>
					<g>
						<polygon class="st13" points="243.7,629.7 243.7,644.1 236,644.1 						"/>
					</g>
				</g>
				<g>
					<g>
						<polygon class="st11" points="253.9,643.1 233.4,643.1 237.2,635.9 243.7,623.8 250.1,635.9 						"/>
					</g>
					<g>
						<polygon class="st12" points="243.7,643.1 243.7,623.8 253.9,643.1 						"/>
					</g>
				</g>
			</g>
		</g>
		<g class="st14">
			<polygon class="st15" points="241.6,676.8 232.2,679.8 245.7,676.8 			"/>
		</g>
	</g>
	<g>
		<g>
			<g>
				<g>
					<rect x="47.3" y="666.4" class="st9" width="2.9" height="12"/>
				</g>
				<g>
					<rect x="47.3" y="666.4" class="st10" width="1.4" height="12"/>
				</g>
			</g>
			<g>
				<g>
					<g>
						<polygon class="st11" points="37.3,670.9 48.8,649.3 60.2,670.9 						"/>
					</g>
					<g>
						<polygon class="st12" points="48.8,670.9 48.8,649.3 60.2,670.9 						"/>
					</g>
					<g>
						<polygon class="st11" points="55.7,662.4 48.8,662.4 48.8,649.3 						"/>
					</g>
					<g>
						<polygon class="st13" points="48.8,649.3 48.8,662.4 41.8,662.4 						"/>
					</g>
				</g>
				<g>
					<g>
						<polygon class="st11" points="39.7,661.7 48.8,644.7 57.8,661.7 						"/>
					</g>
					<g>
						<polygon class="st12" points="48.8,661.7 48.8,644.7 57.8,661.7 						"/>
					</g>
					<g>
						<polygon class="st11" points="54.2,655 48.8,655 48.8,644.7 						"/>
					</g>
					<g>
						<polygon class="st13" points="48.8,644.7 48.8,655 43.3,655 						"/>
					</g>
				</g>
				<g>
					<g>
						<polygon class="st11" points="56.1,654.3 41.4,654.3 44.2,649.2 48.8,640.5 53.3,649.2 						"/>
					</g>
					<g>
						<polygon class="st12" points="48.8,654.3 48.8,640.5 56.1,654.3 						"/>
					</g>
				</g>
			</g>
		</g>
		<g class="st14">
			<polygon class="st15" points="47.3,678.4 40.5,680.5 50.2,678.4 			"/>
		</g>
	</g>
	<g>
		<g>
			<g>
				<g>
					<rect x="70.2" y="658.5" class="st9" width="5.6" height="23.4"/>
				</g>
				<g>
					<rect x="70.2" y="658.5" class="st10" width="2.8" height="23.4"/>
				</g>
			</g>
			<g>
				<g>
					<g>
						<polygon class="st11" points="50.7,667.3 73.1,625.2 95.4,667.3 						"/>
					</g>
					<g>
						<polygon class="st12" points="73.1,667.3 73.1,625.2 95.4,667.3 						"/>
					</g>
					<g>
						<polygon class="st11" points="86.7,650.7 73.1,650.7 73.1,625.2 						"/>
					</g>
					<g>
						<polygon class="st13" points="73.1,625.2 73.1,650.7 59.5,650.7 						"/>
					</g>
				</g>
				<g>
					<g>
						<polygon class="st11" points="55.5,649.3 73.1,616.3 90.6,649.3 						"/>
					</g>
					<g>
						<polygon class="st12" points="73.1,649.3 73.1,616.3 90.6,649.3 						"/>
					</g>
					<g>
						<polygon class="st11" points="83.7,636.4 73.1,636.4 73.1,616.3 						"/>
					</g>
					<g>
						<polygon class="st13" points="73.1,616.3 73.1,636.4 62.4,636.4 						"/>
					</g>
				</g>
				<g>
					<g>
						<polygon class="st11" points="87.3,635 58.8,635 64.1,625 73.1,608.2 82,625 						"/>
					</g>
					<g>
						<polygon class="st12" points="73.1,635 73.1,608.2 87.3,635 						"/>
					</g>
				</g>
			</g>
		</g>
		<g class="st14">
			<polygon class="st15" points="70.2,681.9 57,686.1 75.9,681.9 			"/>
		</g>
	</g>
	<g>
		<g>
			<g>
				<g>
					<rect x="99.9" y="669.5" class="st9" width="2" height="8.4"/>
				</g>
				<g>
					<rect x="99.9" y="669.5" class="st10" width="1" height="8.4"/>
				</g>
			</g>
			<g>
				<g>
					<g>
						<polygon class="st11" points="92.9,672.6 100.9,657.5 109,672.6 						"/>
					</g>
					<g>
						<polygon class="st12" points="100.9,672.6 100.9,657.5 109,672.6 						"/>
					</g>
					<g>
						<polygon class="st11" points="105.8,666.7 100.9,666.7 100.9,657.5 						"/>
					</g>
					<g>
						<polygon class="st13" points="100.9,657.5 100.9,666.7 96,666.7 						"/>
					</g>
				</g>
				<g>
					<g>
						<polygon class="st11" points="94.6,666.2 100.9,654.3 107.2,666.2 						"/>
					</g>
					<g>
						<polygon class="st12" points="100.9,666.2 100.9,654.3 107.2,666.2 						"/>
					</g>
					<g>
						<polygon class="st11" points="104.8,661.5 100.9,661.5 100.9,654.3 						"/>
					</g>
					<g>
						<polygon class="st13" points="100.9,654.3 100.9,661.5 97.1,661.5 						"/>
					</g>
				</g>
				<g>
					<g>
						<polygon class="st11" points="106,661 95.8,661 97.7,657.4 100.9,651.4 104.1,657.4 						"/>
					</g>
					<g>
						<polygon class="st12" points="100.9,661 100.9,651.4 106,661 						"/>
					</g>
				</g>
			</g>
		</g>
		<g class="st14">
			<polygon class="st15" points="99.9,677.9 95.2,679.4 101.9,677.9 			"/>
		</g>
	</g>
	<g>
		<g>
			<g>
				<g>
					<rect x="119.8" y="660" class="st9" width="4" height="16.8"/>
				</g>
				<g>
					<rect x="119.8" y="660" class="st10" width="2" height="16.8"/>
				</g>
			</g>
			<g>
				<g>
					<g>
						<polygon class="st11" points="105.8,666.3 121.9,636 137.9,666.3 						"/>
					</g>
					<g>
						<polygon class="st12" points="121.9,666.3 121.9,636 137.9,666.3 						"/>
					</g>
					<g>
						<polygon class="st11" points="131.6,654.4 121.9,654.4 121.9,636 						"/>
					</g>
					<g>
						<polygon class="st13" points="121.9,636 121.9,654.4 112.1,654.4 						"/>
					</g>
				</g>
				<g>
					<g>
						<polygon class="st11" points="109.3,653.4 121.9,629.7 134.5,653.4 						"/>
					</g>
					<g>
						<polygon class="st12" points="121.9,653.4 121.9,629.7 134.5,653.4 						"/>
					</g>
					<g>
						<polygon class="st11" points="129.5,644.1 121.9,644.1 121.9,629.7 						"/>
					</g>
					<g>
						<polygon class="st13" points="121.9,629.7 121.9,644.1 114.2,644.1 						"/>
					</g>
				</g>
				<g>
					<g>
						<polygon class="st11" points="132.1,643.1 111.6,643.1 115.5,635.9 121.9,623.8 128.3,635.9 						"/>
					</g>
					<g>
						<polygon class="st12" points="121.9,643.1 121.9,623.8 132.1,643.1 						"/>
					</g>
				</g>
			</g>
		</g>
		<g class="st14">
			<polygon class="st15" points="119.8,676.8 110.4,679.8 123.9,676.8 			"/>
		</g>
	</g>
</g>
<g>
	<g>
		<g>
			<g>
				<rect x="-285.5" y="591.1" class="st9" width="8.9" height="36.8"/>
			</g>
			<g>
				<rect x="-285.5" y="591.1" class="st10" width="4.4" height="36.8"/>
			</g>
		</g>
		<g>
			<g>
				<g>
					<polygon class="st11" points="-316.2,604.9 -281.1,538.8 -245.9,604.9 					"/>
				</g>
				<g>
					<polygon class="st12" points="-281.1,604.9 -281.1,538.8 -245.9,604.9 					"/>
				</g>
				<g>
					<polygon class="st11" points="-259.7,578.9 -281.1,578.9 -281.1,538.8 					"/>
				</g>
				<g>
					<polygon class="st13" points="-281.1,538.8 -281.1,578.9 -302.4,578.9 					"/>
				</g>
			</g>
			<g>
				<g>
					<polygon class="st11" points="-308.6,576.7 -281.1,524.9 -253.5,576.7 					"/>
				</g>
				<g>
					<polygon class="st12" points="-281.1,576.7 -281.1,524.9 -253.5,576.7 					"/>
				</g>
				<g>
					<polygon class="st11" points="-264.3,556.4 -281.1,556.4 -281.1,524.9 					"/>
				</g>
				<g>
					<polygon class="st13" points="-281.1,524.9 -281.1,556.4 -297.8,556.4 					"/>
				</g>
			</g>
			<g>
				<g>
					<polygon class="st11" points="-258.7,554.1 -303.5,554.1 -295.1,538.5 -281.1,512.1 -267,538.5 					"/>
				</g>
				<g>
					<polygon class="st12" points="-281.1,554.1 -281.1,512.1 -258.7,554.1 					"/>
				</g>
			</g>
		</g>
	</g>
	<g class="st14">
		<polygon class="st15" points="-285.5,628 -306.2,634.5 -276.7,628 		"/>
	</g>
</g>
<g>
	<g>
		<g>
			<g>
				<rect x="-151.6" y="710.2" class="st9" width="15.3" height="63.6"/>
			</g>
			<g>
				<rect x="-151.6" y="710.2" class="st10" width="7.6" height="63.6"/>
			</g>
		</g>
		<g>
			<g>
				<g>
					<polygon class="st11" points="-204.7,733.9 -144,619.7 -83.2,733.9 					"/>
				</g>
				<g>
					<polygon class="st12" points="-144,733.9 -144,619.7 -83.2,733.9 					"/>
				</g>
				<g>
					<polygon class="st11" points="-107.1,689.1 -144,689.1 -144,619.7 					"/>
				</g>
				<g>
					<polygon class="st13" points="-144,619.7 -144,689.1 -180.9,689.1 					"/>
				</g>
			</g>
			<g>
				<g>
					<polygon class="st11" points="-191.6,685.3 -144,595.7 -96.3,685.3 					"/>
				</g>
				<g>
					<polygon class="st12" points="-144,685.3 -144,595.7 -96.3,685.3 					"/>
				</g>
				<g>
					<polygon class="st11" points="-115,650.1 -144,650.1 -144,595.7 					"/>
				</g>
				<g>
					<polygon class="st13" points="-144,595.7 -144,650.1 -172.9,650.1 					"/>
				</g>
			</g>
			<g>
				<g>
					<polygon class="st11" points="-105.3,646.3 -182.6,646.3 -168.2,619.2 -144,573.6 -119.7,619.2 					"/>
				</g>
				<g>
					<polygon class="st12" points="-144,646.3 -144,573.6 -105.3,646.3 					"/>
				</g>
			</g>
		</g>
	</g>
	<g class="st14">
		<polygon class="st15" points="-151.6,773.8 -187.4,785 -136.3,773.8 		"/>
	</g>
</g>
<g>
	<g>
		<g>
			<g>
				<rect x="491" y="767.1" class="st9" width="5.7" height="23.8"/>
			</g>
			<g>
				<rect x="491" y="767.1" class="st10" width="2.9" height="23.8"/>
			</g>
		</g>
		<g>
			<g>
				<g>
					<polygon class="st11" points="471,776 493.8,733.2 516.6,776 					"/>
				</g>
				<g>
					<polygon class="st12" points="493.8,776 493.8,733.2 516.6,776 					"/>
				</g>
				<g>
					<polygon class="st11" points="507.7,759.2 493.8,759.2 493.8,733.2 					"/>
				</g>
				<g>
					<polygon class="st13" points="493.8,733.2 493.8,759.2 480,759.2 					"/>
				</g>
			</g>
			<g>
				<g>
					<polygon class="st11" points="475.9,757.8 493.8,724.3 511.7,757.8 					"/>
				</g>
				<g>
					<polygon class="st12" points="493.8,757.8 493.8,724.3 511.7,757.8 					"/>
				</g>
				<g>
					<polygon class="st11" points="504.7,744.6 493.8,744.6 493.8,724.3 					"/>
				</g>
				<g>
					<polygon class="st13" points="493.8,724.3 493.8,744.6 483,744.6 					"/>
				</g>
			</g>
			<g>
				<g>
					<polygon class="st11" points="508.4,743.2 479.3,743.2 484.7,733 493.8,716 502.9,733 					"/>
				</g>
				<g>
					<polygon class="st12" points="493.8,743.2 493.8,716 508.4,743.2 					"/>
				</g>
			</g>
		</g>
	</g>
	<g class="st14">
		<polygon class="st15" points="491,790.9 477.5,795.2 496.7,790.9 		"/>
	</g>
</g>
<g>
	<g>
		<g>
			<g>
				<rect x="-64.7" y="718.9" class="st9" width="7.3" height="30.3"/>
			</g>
			<g>
				<rect x="-64.7" y="718.9" class="st10" width="3.6" height="30.3"/>
			</g>
		</g>
		<g>
			<g>
				<g>
					<polygon class="st11" points="-90,730.2 -61.1,675.8 -32.1,730.2 					"/>
				</g>
				<g>
					<polygon class="st12" points="-61.1,730.2 -61.1,675.8 -32.1,730.2 					"/>
				</g>
				<g>
					<polygon class="st11" points="-43.5,708.8 -61.1,708.8 -61.1,675.8 					"/>
				</g>
				<g>
					<polygon class="st13" points="-61.1,675.8 -61.1,708.8 -78.6,708.8 					"/>
				</g>
			</g>
			<g>
				<g>
					<polygon class="st11" points="-83.7,707 -61.1,664.3 -38.4,707 					"/>
				</g>
				<g>
					<polygon class="st12" points="-61.1,707 -61.1,664.3 -38.4,707 					"/>
				</g>
				<g>
					<polygon class="st11" points="-47.3,690.3 -61.1,690.3 -61.1,664.3 					"/>
				</g>
				<g>
					<polygon class="st13" points="-61.1,664.3 -61.1,690.3 -74.8,690.3 					"/>
				</g>
			</g>
			<g>
				<g>
					<polygon class="st11" points="-42.6,688.4 -79.5,688.4 -72.6,675.5 -61.1,653.8 -49.5,675.5 					"/>
				</g>
				<g>
					<polygon class="st12" points="-61.1,688.4 -61.1,653.8 -42.6,688.4 					"/>
				</g>
			</g>
		</g>
	</g>
	<g class="st14">
		<polygon class="st15" points="-64.7,749.2 -81.8,754.5 -57.4,749.2 		"/>
	</g>
</g>
<g>
	<g>
		<g>
			<g>
				<rect x="547.5" y="740.3" class="st9" width="11.5" height="47.6"/>
			</g>
			<g>
				<rect x="547.5" y="740.3" class="st10" width="5.7" height="47.6"/>
			</g>
		</g>
		<g>
			<g>
				<g>
					<polygon class="st11" points="507.6,758.1 553.3,672.5 598.9,758.1 					"/>
				</g>
				<g>
					<polygon class="st12" points="553.3,758.1 553.3,672.5 598.9,758.1 					"/>
				</g>
				<g>
					<polygon class="st11" points="581,724.5 553.3,724.5 553.3,672.5 					"/>
				</g>
				<g>
					<polygon class="st13" points="553.3,672.5 553.3,724.5 525.5,724.5 					"/>
				</g>
			</g>
			<g>
				<g>
					<polygon class="st11" points="517.5,721.7 553.3,654.6 589,721.7 					"/>
				</g>
				<g>
					<polygon class="st12" points="553.3,721.7 553.3,654.6 589,721.7 					"/>
				</g>
				<g>
					<polygon class="st11" points="575,695.3 553.3,695.3 553.3,654.6 					"/>
				</g>
				<g>
					<polygon class="st13" points="553.3,654.6 553.3,695.3 531.5,695.3 					"/>
				</g>
			</g>
			<g>
				<g>
					<polygon class="st11" points="582.3,692.4 524.2,692.4 535,672.1 553.3,638 571.5,672.1 					"/>
				</g>
				<g>
					<polygon class="st12" points="553.3,692.4 553.3,638 582.3,692.4 					"/>
				</g>
			</g>
		</g>
	</g>
	<g class="st14">
		<polygon class="st15" points="547.5,787.9 520.6,796.4 559,787.9 		"/>
	</g>
</g>
<g>
	<path class="st4" d="M53.5,584c-0.5,0-0.9,0.1-1.3,0.2c-1.2-2.1-3.5-3.5-6.1-3.5c-0.8,0-1.6,0.1-2.3,0.4c-1.2-2.5-3.6-4.4-6.4-5.1
		l0,0c0.1-0.6,0.2-1.2,0.2-1.8c0-4.2-3.4-7.7-7.7-7.7c-2.7,0-5.1,1.4-6.5,3.5c-0.8-0.4-1.7-0.6-2.7-0.6c-3,0-5.5,2.1-6.1,4.8l0,0
		c-3.7,0.5-6.6,3.7-6.6,7.6c0,0.1,0,0.1,0,0.2c-1.2,1.3-2,3-2,4.9h3.9h5.8h4.2h1.6H26h5.1h8.1h5.4h4.8H53h4.5
		C57,585.3,55.4,584,53.5,584z"/>
</g>
<g>
	<path class="st4" d="M-35.3,358c-3.7-3.8-8.4-6.6-13.6-8.2c-4-10-13.1-17.4-24-18.9c-1.4-0.2-2.7-0.3-4.1-0.3
		c-7.2,0-13.7,2.5-18.9,6.6c-1.3-7.4-7.8-13.1-15.7-13.1c-0.1,0-0.1,0-0.2,0c-1.5-13.2-12.7-23.4-26.3-23.4c-6.3,0-12,2.2-16.5,5.8
		c-6.3-10.3-17.7-17.1-30.7-17.1c-19.9,0-36,16.1-36,36c0,4.7,0.9,9.1,2.5,13.2c-2.8,2.9-4.5,6.8-4.5,11.1c0,1.1,0.1,2.2,0.3,3.2
		c-8.2,2.4-15.1,7.9-19.3,15.2c-2-0.6-4.1-1-6.2-1c-8.9,0-16.4,5.7-19.1,13.7h21.3h17h22.6h25.5h37.9h23.8h19.7h8.8h19.8h17.1h28.4
		C-25.8,372-29.4,363.9-35.3,358z"/>
</g>
<g>
	<g>
		<g>
			<g>
				<rect x="382.4" y="689.4" class="st9" width="8.5" height="35.1"/>
			</g>
			<g>
				<rect x="382.4" y="689.4" class="st10" width="4.2" height="35.1"/>
			</g>
		</g>
		<g>
			<g>
				<g>
					<polygon class="st11" points="352.9,702.5 386.7,639.4 420.3,702.5 					"/>
				</g>
				<g>
					<polygon class="st12" points="386.7,702.5 386.7,639.4 420.3,702.5 					"/>
				</g>
				<g>
					<polygon class="st11" points="407.1,677.7 386.7,677.7 386.7,639.4 					"/>
				</g>
				<g>
					<polygon class="st13" points="386.7,639.4 386.7,677.7 366.2,677.7 					"/>
				</g>
			</g>
			<g>
				<g>
					<polygon class="st11" points="360.3,675.7 386.7,626.1 413,675.7 					"/>
				</g>
				<g>
					<polygon class="st12" points="386.7,675.7 386.7,626.1 413,675.7 					"/>
				</g>
				<g>
					<polygon class="st11" points="402.7,656.2 386.7,656.2 386.7,626.1 					"/>
				</g>
				<g>
					<polygon class="st13" points="386.7,626.1 386.7,656.2 370.6,656.2 					"/>
				</g>
			</g>
			<g>
				<g>
					<polygon class="st11" points="408.1,654 365.2,654 373.2,639.1 386.7,613.9 400.1,639.1 					"/>
				</g>
				<g>
					<polygon class="st12" points="386.7,654 386.7,613.9 408.1,654 					"/>
				</g>
			</g>
		</g>
	</g>
	<g class="st14">
		<polygon class="st15" points="382.4,724.5 362.5,730.8 390.9,724.5 		"/>
	</g>
</g>
<g>
	<g>
		<g>
			<g>
				<rect x="28.2" y="688" class="st9" width="7.3" height="30.3"/>
			</g>
			<g>
				<rect x="28.2" y="688" class="st10" width="3.6" height="30.3"/>
			</g>
		</g>
		<g>
			<g>
				<g>
					<polygon class="st11" points="2.9,699.2 31.8,644.8 60.8,699.2 					"/>
				</g>
				<g>
					<polygon class="st12" points="31.8,699.2 31.8,644.8 60.8,699.2 					"/>
				</g>
				<g>
					<polygon class="st11" points="49.4,677.8 31.8,677.8 31.8,644.8 					"/>
				</g>
				<g>
					<polygon class="st13" points="31.8,644.8 31.8,677.8 14.3,677.8 					"/>
				</g>
			</g>
			<g>
				<g>
					<polygon class="st11" points="9.2,676.1 31.8,633.3 54.5,676.1 					"/>
				</g>
				<g>
					<polygon class="st12" points="31.8,676.1 31.8,633.3 54.5,676.1 					"/>
				</g>
				<g>
					<polygon class="st11" points="45.6,659.3 31.8,659.3 31.8,633.3 					"/>
				</g>
				<g>
					<polygon class="st13" points="31.8,633.3 31.8,659.3 18.1,659.3 					"/>
				</g>
			</g>
			<g>
				<g>
					<polygon class="st11" points="50.3,657.5 13.4,657.5 20.3,644.6 31.8,622.8 43.4,644.6 					"/>
				</g>
				<g>
					<polygon class="st12" points="31.8,657.5 31.8,622.8 50.3,657.5 					"/>
				</g>
			</g>
		</g>
	</g>
	<g class="st14">
		<polygon class="st15" points="28.2,718.2 11.1,723.6 35.5,718.2 		"/>
	</g>
</g>
<g>
	<g>
		<g>
			<g>
				<rect x="63.6" y="685" class="st9" width="13.3" height="55.1"/>
			</g>
			<g>
				<rect x="63.6" y="685" class="st10" width="6.6" height="55.1"/>
			</g>
		</g>
		<g>
			<g>
				<g>
					<polygon class="st11" points="17.5,705.5 70.2,606.5 122.8,705.5 					"/>
				</g>
				<g>
					<polygon class="st12" points="70.2,705.5 70.2,606.5 122.8,705.5 					"/>
				</g>
				<g>
					<polygon class="st11" points="102.1,666.7 70.2,666.7 70.2,606.5 					"/>
				</g>
				<g>
					<polygon class="st13" points="70.2,606.5 70.2,666.7 38.2,666.7 					"/>
				</g>
			</g>
			<g>
				<g>
					<polygon class="st11" points="28.9,663.4 70.2,585.7 111.5,663.4 					"/>
				</g>
				<g>
					<polygon class="st12" points="70.2,663.4 70.2,585.7 111.5,663.4 					"/>
				</g>
				<g>
					<polygon class="st11" points="95.3,632.9 70.2,632.9 70.2,585.7 					"/>
				</g>
				<g>
					<polygon class="st13" points="70.2,585.7 70.2,632.9 45.1,632.9 					"/>
				</g>
			</g>
			<g>
				<g>
					<polygon class="st11" points="103.7,629.6 36.7,629.6 49.2,606.1 70.2,566.6 91.2,606.1 					"/>
				</g>
				<g>
					<polygon class="st12" points="70.2,629.6 70.2,566.6 103.7,629.6 					"/>
				</g>
			</g>
		</g>
	</g>
	<g class="st14">
		<polygon class="st15" points="63.6,740.1 32.5,749.8 76.8,740.1 		"/>
	</g>
</g>
<g>
	<path class="st4" d="M369.5,578.6c-0.5,0-0.9,0.1-1.3,0.2c-1.2-2.1-3.5-3.5-6.1-3.5c-0.8,0-1.6,0.1-2.3,0.4
		c-1.2-2.5-3.6-4.4-6.4-5.1l0,0c0.1-0.6,0.2-1.2,0.2-1.8c0-4.2-3.4-7.7-7.7-7.7c-2.7,0-5.1,1.4-6.5,3.5c-0.8-0.4-1.7-0.6-2.7-0.6
		c-3,0-5.5,2.1-6.1,4.8l0,0c-3.7,0.5-6.6,3.7-6.6,7.6c0,0.1,0,0.1,0,0.2c-1.2,1.3-2,3-2,4.9h3.9h5.8h4.2h1.6h4.5h5.1h8.1h5.4h4.8
		h3.6h4.5C373,579.9,371.4,578.6,369.5,578.6z"/>
</g>
<g>
	<path class="st4" d="M325.1,573.8c-0.5,0-0.9,0.1-1.3,0.2c-1.2-2.1-3.5-3.5-6.1-3.5c-0.8,0-1.6,0.1-2.3,0.4
		c-1.2-2.5-3.6-4.4-6.4-5.1l0,0c0.1-0.6,0.2-1.2,0.2-1.8c0-4.2-3.4-7.7-7.7-7.7c-2.7,0-5.1,1.4-6.5,3.5c-0.8-0.4-1.7-0.6-2.7-0.6
		c-3,0-5.5,2.1-6.1,4.8l0,0c-3.7,0.5-6.6,3.7-6.6,7.6c0,0.1,0,0.1,0,0.2c-1.2,1.3-2,3-2,4.9h3.9h5.8h4.2h1.6h4.5h5.1h8.1h5.4h4.8
		h3.6h4.5C328.6,575.1,327,573.8,325.1,573.8z"/>
</g>
<g>
	<g>
		<g id="XMLID_1_">
			<g>
				<path class="st16" d="M342.3,672.5L342.3,672.5c-0.6,0.5-1.3,1.1-1.9,1.9c-3.4-0.1-4-5.4-4-8l0.2,0
					C340.7,668.6,342.3,672.5,342.3,672.5z"/>
				<path class="st17" d="M341.5,667.6c1.1,1.3,1.9,3.8,2.1,4.2c-0.4,0.2-0.8,0.4-1.2,0.6l0,0c0,0-1.6-3.9-5.7-6.1l-0.2,0
					c0-0.7,0.1-1.2,0.1-1.4C336.8,664.3,340.3,666.2,341.5,667.6z"/>
				<path class="st16" d="M351.3,667.1c5.6,3.2,3.7,8.8,3.4,9.4c-0.8-1.5-2.2-2.6-3.5-3.4l0-0.1c-1-1.4-0.5-4.9-0.1-5.9L351.3,667.1
					z"/>
				<path class="st18" d="M331.4,681.1c-0.7-0.3-1.6-0.5-2-0.2c-0.4,0.3-0.4,1.7,0.2,2.3c0.1,0.1,0.2,0.2,0.4,0.2
					c1,0.4,2.2-0.8,2.4-1.4C332.4,681.8,332,681.4,331.4,681.1z"/>
				<path class="st19" d="M339.6,673.6c0.6-0.8,1.3-1.5,1.9-1.9c0.4-0.3,0.8-0.5,1.2-0.6c1.5-0.6,3.2-0.4,4.9,0.2
					c0,0,0.6,0.2,1.4,0.5c-3.3-0.3-7.4,5.1-10.5,8c-3.4,3.1-6.2,2.2-6.2,2.2c0-0.3-0.4-0.7-0.9-1c3.6-0.1,5.5-3.7,8-7.2
					C339.5,673.8,339.6,673.7,339.6,673.6z"/>
				<path class="st16" d="M374.4,693c0,0.9,0,1.9-0.1,3c-0.4,3.3-2.6,5.8-3.1,6.4c0-0.2,0-0.3,0-0.5l0.2,0
					C371.5,696.6,374.1,693.4,374.4,693z"/>
				<path class="st20" d="M368.2,737.1l0.2,0c-0.2,1-0.3,1.6-0.3,1.6s-2.9,0.5-2.8-0.4c0-0.2,0.1-0.7,0.2-1.4
					C365.9,737.1,367.4,737.7,368.2,737.1z"/>
				<path class="st20" d="M359.4,736.7c-0.1,0.7-0.2,1.2-0.2,1.3c-0.2,0.4-2.4,0.2-2.4,0.2s0.1-0.7,0.1-1.7l0,0
					C357,736.4,358.7,737.2,359.4,736.7z"/>
				<path class="st20" d="M347.4,737.7L347.4,737.7c0,0.7-0.1,1.1-0.2,1.1c-0.5,0.4-1.7,0.1-1.7,0.1c-0.1-0.1-0.2-0.5-0.3-1.2l0,0
					C345.2,737.7,346.8,738.5,347.4,737.7z"/>
				<path class="st17" d="M373.5,689.7c0.4,0.1,0.8,1.3,0.9,3.2c-0.3,0.4-2.9,3.7-3.1,8.9l-0.2,0c-0.1-1.9-0.5-3.6-1.5-4.8
					c-0.2-0.3-0.5-0.6-0.8-0.8c0.1-0.7,1.7-2.4,2.5-3.2C373.2,691.1,373,689.6,373.5,689.7z"/>
				<path class="st21" d="M339.7,717.4c-2.2-1-3.6-2.5-4.4-4.1h0c-1.8-3.5-0.9-7.7,0.2-9.8c2.4-4.6,4.6-11.6,4.9-12.5c0,0,0,0,0,0
					c-1.1-0.2-2.3-0.5-3.5-1c-4.3-1.7-6.8-4.7-7.3-6.7c0.1,0.1,0.2,0.2,0.4,0.2c1,0.4,2.2-0.8,2.4-1.4c0,0,2.8,0.8,6.2-2.2
					c3.1-2.9,7.2-8.3,10.5-8c0.6,0.3,1.4,0.7,2.2,1.2c1.3,0.8,2.6,1.9,3.5,3.4c0.4,0.7,0.7,1.5,0.8,2.3c0.1,0.4,0.1,0.8,0.1,1.2
					c-0.2,6.1-6.2,13.1-5,15.5c1.6,2.9,13.4-2.5,18.2,0.8c0.3,0.2,0.6,0.5,0.8,0.8c1,1.2,1.4,2.9,1.5,4.8c0,0.2,0,0.3,0,0.5
					c0.1,5.5-2.2,12.3-1.6,14.3c0.8,2.8,2.6,2.9,2.1,5.4c-0.4,2-2.4,11.3-3.2,15.1l-0.2,0c-0.8,0.6-2.3,0-2.8-0.2
					c0.2-1.9,0.6-5.3,0.7-8.8c0.2-4.9,0.5-6.8-0.4-7.4c-0.6-0.4-3.1-0.8-5.3-2.5c-0.4-0.3-0.7-0.6-1-0.9c-1.7,0.4-3.2,0.7-4.7,0.9
					c-1.9,0.3-3.7,0.5-5.3,0.6c-0.7,4.2-1.6,15.4-2.1,18.9l-0.1,0c-0.6,0.8-2.2,0-2.2,0l0,0c-0.6-3.3-1.1-12.7-1.4-19.2h0
					C342.2,718.3,340.8,717.9,339.7,717.4z"/>
				<path class="st17" d="M360.8,722c0.4,1.4-0.8,11.1-1.4,14.7c-0.7,0.6-2.5-0.2-2.5-0.2l0,0c0.2-3,0.6-9.2,0.1-11
					c-1.2-4.5-2.2-7.2-2.2-7.2l0-0.1c1.5-0.2,3-0.6,4.7-0.9c0.3,0.3,0.7,0.7,1,0.9C360.3,718.8,360.4,720.5,360.8,722z"/>
				<path class="st17" d="M356.6,670.9c1.3,3.1-0.7,7-1,7.8c-0.1-0.8-0.4-1.6-0.8-2.3c0.2-0.6,2.2-6.1-3.4-9.4l-0.1,0
					c0.1-0.2,0.1-0.3,0.2-0.3C352.1,666.4,355.2,667.6,356.6,670.9z"/>
				<path class="st17" d="M339.7,717.4c0,1.8,0.3,15.2,0.3,19.3c-0.8,0.7-2.6,0.1-2.6,0.1l-0.1,0c-0.7-4.7-2.1-23.4-2.1-23.4l0,0h0
					C336.1,714.9,337.5,716.4,339.7,717.4z"/>
				<path class="st20" d="M340,736.7c0,0.7,0,1.1-0.1,1.2c0,0-2.1,0.8-2.4-0.2c0-0.2-0.1-0.5-0.2-0.9l0.1,0
					C337.4,736.8,339.2,737.3,340,736.7z"/>
			</g>
			<g>
				<g>
					<path class="st22" d="M365.3,736.9c0.3-2.8,0.5-5.6,0.6-8.4c0-1.4,0.1-2.8,0.1-4.2c0-0.7,0-1.4,0-2.1c0-0.3-0.1-0.7-0.2-0.9
						c-0.1-0.2-0.2-0.3-0.6-0.5c-1.3-0.5-2.7-0.9-3.9-1.7c-0.6-0.4-1.2-0.8-1.7-1.3c-0.6-0.5-1-1.1-1.4-1.7c-0.7-1.2-1.3-2.6-1.5-4
						c-0.2-1.4,0-2.9,0.6-4.3l0.3,0.2c-0.6,1.2-0.7,2.7-0.4,4c0.2,1.3,0.8,2.6,1.5,3.8c0.4,0.6,0.8,1.1,1.3,1.5
						c0.5,0.5,1,0.9,1.6,1.2c1.2,0.7,2.5,1.1,3.8,1.6c0.2,0.1,0.4,0.1,0.6,0.3c0.2,0.2,0.3,0.4,0.4,0.6c0.2,0.4,0.2,0.8,0.2,1.2
						c0,0.7,0,1.4,0,2.1l-0.2,4.2c-0.1,2.8-0.4,5.6-0.9,8.4L365.3,736.9z"/>
				</g>
				<g>
					<path class="st22" d="M350.8,690.8c-0.8,0.3-1.7,0.5-2.6,0.7c-0.9,0.2-1.8,0.2-2.6,0.3c-1.8,0.1-3.6-0.1-5.3-0.6l0.1-0.4
						c0.9,0.1,1.7,0.2,2.6,0.2c0.9,0,1.7,0.1,2.6,0c1.7,0,3.4-0.3,5.1-0.6L350.8,690.8z"/>
				</g>
				<g>
					<path class="st22" d="M349.6,718.6c1.7-0.2,3.4-0.5,5.1-0.8l2.5-0.5c0.8-0.1,1.7-0.3,2.6-0.4l0.1,0.4c-1.7,0.5-3.4,0.9-5.1,1.2
						c-1.7,0.3-3.5,0.5-5.2,0.4L349.6,718.6z"/>
				</g>
				<g>
					<path class="st22" d="M340.6,690.9L340.6,690.9L340.6,690.9L340.6,690.9L340.6,690.9L340.6,690.9c-0.6,2-1.2,3.9-1.9,5.7
						c-0.7,1.9-1.4,3.7-2.2,5.5c-0.2,0.5-0.4,0.9-0.7,1.3c-0.2,0.4-0.4,0.9-0.6,1.3c-0.3,0.9-0.5,1.8-0.6,2.8
						c-0.2,1.9,0,3.9,0.9,5.5l-0.3-0.2h0h0.2l0.1,0.2c0.7,1.5,2,2.7,3.4,3.6c1.5,0.9,3.1,1.4,4.8,1.7l-0.1,0.4
						c-1.7-0.2-3.5-0.7-5.1-1.5c-1.6-0.9-2.9-2.2-3.8-3.8l0.3,0.2h0H335l-0.1-0.2c-0.9-1.8-1.2-3.9-1-5.9c0.1-1,0.3-2,0.7-3
						c0.2-0.5,0.4-1,0.6-1.4c0.2-0.4,0.4-0.9,0.7-1.3c1.7-3.5,3-7.2,4.3-10.9l0,0.1l0,0l0,0l0,0l0-0.1L340.6,690.9z"/>
				</g>
				<g>
					<path class="st22" d="M347.3,737.7c0.2-2.3,0.4-4.7,0.6-7c0.2-2.3,0.4-4.7,0.7-7c0.1-1.2,0.3-2.3,0.4-3.5
						c0.1-0.6,0.2-1.2,0.3-1.8l0.2-0.9c0.1-0.3,0.2-0.5,0.2-0.8c0.2-1.1,0.1-2.3-0.1-3.4c-0.2-1.1-0.4-2.3-0.8-3.4l0.4-0.1
						c0.8,2.2,1.4,4.6,1.2,7.1c0,0.3-0.1,0.6-0.2,0.9l-0.2,0.8c-0.1,0.5-0.2,1.1-0.3,1.7c-0.2,1.2-0.3,2.3-0.4,3.5l-0.7,7
						c-0.3,2.3-0.5,4.7-0.9,7L347.3,737.7z"/>
				</g>
				<g>
					<path class="st22" d="M343.7,712c0.2,2.1,0.3,4.3,0.4,6.4l0.4,6.4l0.4,6.4c0.1,2.1,0.2,4.3,0.5,6.4l-0.4,0.1
						c-0.4-2.1-0.6-4.3-0.8-6.4c-0.2-2.1-0.3-4.3-0.5-6.4c-0.1-2.1-0.2-4.3-0.3-6.4c-0.1-2.1-0.1-4.3-0.1-6.4L343.7,712z"/>
				</g>
			</g>
		</g>
	</g>
	<g>
		<path class="st23" d="M344.3,682.4c-0.2,0.3-0.5,0.4-0.8,0.5c-0.2,0-0.3,0.1-0.5,0c-0.2,0-0.4-0.1-0.5-0.3c-0.1-0.1,0-0.2,0.1-0.3
			c0,0,0.1,0,0.1,0l0.1,0c0.1,0,0.2,0,0.3,0c0.1,0,0.2,0,0.3-0.1c0.2,0,0.5-0.1,0.8-0.1l0,0c0.1,0,0.2,0.1,0.2,0.2
			C344.4,682.4,344.3,682.4,344.3,682.4z"/>
	</g>
	<g>
		<path class="st23" d="M343.9,683.5c-0.2,0.3-0.6,0.4-0.9,0.4c-0.3,0-0.7-0.2-0.9-0.5c-0.1-0.1,0-0.2,0.1-0.3c0,0,0.1,0,0.1,0l0,0
			c0.3,0,0.5,0.1,0.7,0c0.2,0,0.5,0,0.7,0l0.1,0c0.1,0,0.2,0.1,0.2,0.2C344,683.4,343.9,683.5,343.9,683.5z"/>
	</g>
	<g>
		<path class="st24" d="M335,686.2c0.5,0.5,1,0.9,1.5,0.9c0.2,0,0.5-0.2,0.7-0.3c0.2-0.2,0.4-0.4,0.5-0.7l0,0c0-0.1,0.2-0.1,0.3-0.1
			c0.1,0,0.1,0.1,0.1,0.2c0,0.4-0.2,0.8-0.4,1.1c-0.1,0.2-0.3,0.3-0.5,0.4c-0.2,0.1-0.4,0.2-0.6,0.2c-0.5,0-0.9-0.2-1.2-0.5
			c-0.3-0.3-0.5-0.6-0.7-1c0-0.1,0-0.2,0.1-0.3C334.9,686.1,335,686.1,335,686.2L335,686.2z"/>
	</g>
	<g>
		<path class="st23" d="M339.8,681.1c-0.1,0.6-0.2,1.3-0.2,1.9c0.1,0.6,0.4,0.9,1,1c0.6,0.1,1-0.1,1.3-0.6c0.3-0.5,0.4-1.2,0.5-1.8
			l0,0c0-0.1,0.1-0.2,0.2-0.2c0.1,0,0.2,0.1,0.2,0.2c0.1,0.7,0,1.4-0.3,2.1c-0.2,0.3-0.4,0.7-0.8,0.9c-0.4,0.2-0.8,0.2-1.2,0.2
			c-0.4,0-0.8-0.2-1.1-0.5c-0.3-0.3-0.4-0.7-0.4-1.1c0-0.8,0.2-1.4,0.5-2.1c0-0.1,0.2-0.1,0.3-0.1
			C339.8,680.9,339.8,681,339.8,681.1L339.8,681.1z"/>
	</g>
	<path class="st19" d="M356.7,696.9c-0.4,0-0.8,0-1.2,0.1c-0.3,0.1-0.3,0.5-0.1,0.6c0.1,0.1,0.3,0.1,0.5,0.1c0.3,0,0.6-0.1,0.9-0.2
		C357.2,697.4,357.1,696.9,356.7,696.9z"/>
	<path class="st19" d="M360.1,696.4c-0.3,0.1-0.7,0-1,0.2c-0.3,0.1-0.3,0.5-0.1,0.7c0.3,0.2,0.9,0.1,1.3,0
		C360.9,697.1,360.7,696.3,360.1,696.4z"/>
	<path class="st19" d="M364.1,696.3c-0.1-0.2-0.2-0.4-0.5-0.5c-0.2,0-0.4,0-0.6,0.1c-0.1,0.1-0.2,0.2-0.3,0.4
		c-0.1,0.2,0.1,0.5,0.3,0.5c0.2,0,0.4,0,0.6,0C364,696.8,364.2,696.5,364.1,696.3z"/>
	<path class="st19" d="M367.3,696.8c-0.1-0.2-0.3-0.3-0.5-0.2c0,0,0,0,0,0c0,0-0.1-0.1-0.1-0.1c0,0,0,0,0,0c0,0-0.1,0-0.1,0
		c0,0,0,0,0,0c-0.1,0-0.1,0-0.2,0c0,0,0,0,0,0c0,0,0,0,0,0c0,0,0,0,0,0c-0.1,0-0.1,0.1-0.2,0.1c-0.1,0.3,0,0.5,0.2,0.7
		c0,0.1,0.1,0.1,0.2,0.1c0.2,0.1,0.5,0.1,0.6,0C367.3,697.4,367.4,697.1,367.3,696.8z"/>
	<path class="st19" d="M365.4,697.8c-0.1-0.2-0.4-0.3-0.6-0.3c-0.2,0.1-0.3,0.1-0.4,0.3c-0.1,0.1-0.2,0.3-0.2,0.4
		c0,0.2,0.1,0.4,0.3,0.5c0.2,0.1,0.6,0.1,0.7-0.1c0.1-0.1,0.2-0.1,0.2-0.2C365.5,698.2,365.5,697.9,365.4,697.8z"/>
	<path class="st19" d="M368.4,699.4c-0.1,0-0.1-0.1-0.2-0.1c0,0-0.1,0-0.2,0c-0.1-0.1-0.4-0.1-0.5,0c-0.1,0.1-0.1,0.2-0.1,0.4
		c0,0.1,0.1,0.3,0.2,0.4c0.2,0.2,0.5,0.3,0.8,0.2c0.2-0.1,0.3-0.2,0.3-0.3C368.7,699.7,368.6,699.5,368.4,699.4z"/>
	<path class="st19" d="M361.7,698.2c0,0-0.1,0-0.1,0c0,0-0.1,0-0.1,0c-0.1,0-0.2,0-0.3,0.1c-0.1,0-0.1,0-0.2,0.1c0,0-0.1,0-0.1,0.1
		c-0.3,0.1-0.3,0.5,0,0.7c0,0,0.1,0,0.1,0c0.1,0,0.1,0,0.2,0.1c0.1,0,0.1,0.1,0.2,0.1c0.2,0,0.4,0,0.5,0c0.2-0.1,0.4-0.3,0.4-0.5
		C362.2,698.5,362,698.2,361.7,698.2z"/>
	<path class="st19" d="M365.5,700.6c0-0.2-0.2-0.3-0.3-0.3c-0.2-0.1-0.5,0-0.6,0.2c-0.1,0.2,0,0.4,0.2,0.6c0.2,0.1,0.5,0.1,0.6-0.2
		C365.5,700.9,365.5,700.8,365.5,700.6z"/>
	<path class="st19" d="M369.4,698.1c0-0.1-0.1-0.2-0.2-0.2c0,0-0.1-0.1-0.1-0.1c-0.1-0.1-0.4-0.1-0.5,0c-0.1,0.1-0.1,0.4,0,0.5
		c0.1,0.1,0.2,0.2,0.3,0.2C369.2,698.7,369.6,698.4,369.4,698.1z"/>
	<path class="st19" d="M352.9,697c-0.1,0-0.3,0-0.4,0c-0.1,0-0.2,0-0.2,0c0,0-0.1,0-0.1,0c0,0-0.1,0-0.1,0.1c0,0,0,0-0.1,0
		c0,0,0,0,0,0c0,0-0.1,0.1-0.1,0.1c-0.1,0.1-0.1,0.2,0,0.3c0,0,0,0,0,0c0,0,0,0,0,0c0,0,0,0,0,0c0,0,0,0,0,0c0,0,0,0,0,0
		c0,0,0,0,0,0c0,0,0,0,0,0c0,0,0,0,0,0c0,0,0,0,0,0c0.1,0,0.1,0.1,0.2,0.1c0.1,0,0.2,0,0.2,0c0.1,0,0.3,0,0.4,0
		C353.3,697.8,353.3,697.1,352.9,697z"/>
	<path class="st19" d="M355.4,698.7c-0.2,0-0.4,0.1-0.5,0.2c-0.1,0.1-0.1,0.2-0.1,0.4c0,0.2,0.2,0.3,0.4,0.2c0,0,0,0,0,0
		c0,0,0.1,0,0.1,0c0.1,0,0.1,0,0.2,0C355.9,699.3,355.8,698.7,355.4,698.7z"/>
	<g>
		<path class="st19" d="M359.3,712C359.3,712,359.3,712,359.3,712C359.3,712,359.3,712,359.3,712z"/>
		<path class="st19" d="M359.3,712C359.3,712,359.3,712,359.3,712C359.3,712,359.3,712,359.3,712C359.3,712,359.3,712,359.3,712
			C359.3,712,359.3,712,359.3,712c0-0.1-0.1-0.2-0.1-0.3c0,0,0-0.1-0.1-0.1c0,0,0-0.1,0-0.1c0,0,0,0,0,0c-0.1-0.2-0.2-0.3-0.5-0.3
			c-0.3,0-0.5,0.2-0.5,0.5c0,0.3-0.1,0.6,0.2,0.9c0.2,0.2,0.4,0.2,0.6,0.1c0,0,0,0,0,0c0,0,0,0,0,0c0,0,0.1,0,0.1,0
			C359.2,712.5,359.4,712.2,359.3,712z"/>
	</g>
	<path class="st19" d="M360.2,714.4c0-0.1-0.1-0.1-0.1-0.2c0,0,0,0,0,0c0,0,0,0,0-0.1c-0.1-0.2-0.3-0.2-0.5-0.1
		c-0.2,0.1-0.2,0.3-0.1,0.5c0,0.1,0.1,0.1,0.1,0.2c0,0.1,0,0.1,0,0.2c0,0.1,0.1,0.2,0.3,0.3c0.1,0,0.2,0,0.2,0
		c0.2,0,0.4-0.2,0.4-0.4C360.4,714.7,360.3,714.5,360.2,714.4z"/>
	<path class="st19" d="M362.1,716.7c-0.1,0-0.1-0.1-0.2-0.1c-0.1,0-0.1,0-0.2,0c0,0,0,0,0,0c-0.1,0-0.1,0-0.2,0.1
		c-0.1,0.1-0.2,0.2-0.1,0.4c0,0.1,0.1,0.2,0.2,0.2c0.1,0.1,0.1,0.2,0.2,0.3c0.1,0.1,0.3,0.1,0.4,0c0.1-0.1,0.2-0.2,0.2-0.3
		C362.4,717,362.3,716.8,362.1,716.7z"/>
	<g>
		<path class="st19" d="M361.3,715.4C361.3,715.4,361.3,715.4,361.3,715.4C361.3,715.4,361.3,715.4,361.3,715.4z"/>
		<path class="st19" d="M361.3,715.4C361.3,715.4,361.3,715.4,361.3,715.4C361.3,715.4,361.3,715.4,361.3,715.4z"/>
		<path class="st19" d="M361.9,714.8C361.9,714.8,361.8,714.8,361.9,714.8c-0.1-0.1-0.2-0.2-0.2-0.3c-0.1-0.1-0.2-0.2-0.4-0.1
			c-0.2,0-0.3,0.2-0.2,0.4c0.1,0.2,0.1,0.4,0.1,0.5c0,0,0,0,0,0c0,0,0,0,0,0c0,0,0,0,0,0c0,0,0,0.1,0,0.1c0,0.1,0.1,0.1,0.2,0.2
			c0.2,0.1,0.4,0.1,0.5-0.1C362.1,715.4,362,715,361.9,714.8z"/>
		<path class="st19" d="M361.2,715.3C361.2,715.4,361.2,715.4,361.2,715.3C361.2,715.4,361.2,715.4,361.2,715.3
			C361.2,715.3,361.2,715.3,361.2,715.3z"/>
	</g>
	<path class="st19" d="M360.3,712.2c-0.4,0-0.4,0.7,0,0.7S360.8,712.2,360.3,712.2z"/>
	<path class="st19" d="M364,716.5c0-0.1,0-0.1-0.1-0.2c-0.1-0.1-0.2-0.2-0.3-0.2c0,0-0.1,0-0.1,0c-0.4-0.1-0.7,0.3-0.5,0.6
		c0,0.1,0.1,0.1,0.1,0.2c0.2,0.2,0.4,0.3,0.7,0.2C364,717,364.1,716.7,364,716.5z"/>
	<path class="st19" d="M364.8,718.6c-0.2-0.1-0.4,0.2-0.3,0.4c0.1,0.1,0.1,0.2,0.3,0.2c0.2,0,0.3,0,0.4-0.2
		C365.3,718.8,365,718.5,364.8,718.6z"/>
	<path class="st19" d="M344.9,717.1c-0.1,0-0.1,0-0.2,0c0,0,0,0,0-0.1c0-0.1-0.1-0.1-0.1,0c0,0,0,0.1,0,0.1c0,0-0.1,0.1-0.1,0.1
		c0,0,0,0,0,0.1c0,0,0,0,0,0c0,0.1,0,0.2,0,0.2c0.1,0.1,0.3,0.2,0.4,0.1c0,0,0.1,0,0.1-0.1C345.1,717.5,345.1,717.2,344.9,717.1z"/>
	<g>
		<path class="st19" d="M344.5,720.1C344.5,720.1,344.5,720.1,344.5,720.1C344.5,720.1,344.5,720.1,344.5,720.1z"/>
		<path class="st19" d="M344.5,720.1C344.5,720.1,344.5,720.1,344.5,720.1C344.5,720.1,344.5,720.1,344.5,720.1z"/>
		<path class="st19" d="M345.3,720c0-0.2-0.2-0.4-0.4-0.4c0,0,0,0,0,0c-0.1,0-0.1,0-0.2,0c-0.1,0-0.2,0.2-0.2,0.3c0,0,0,0.1,0,0.1
			c0,0,0,0,0,0c0,0,0,0,0,0c0,0,0,0,0,0c0,0,0,0,0,0c0,0,0,0,0,0c0,0,0,0,0,0c0,0.4,0.5,0.6,0.7,0.3
			C345.3,720.3,345.3,720.2,345.3,720z"/>
		<path class="st19" d="M344.5,720.1C344.5,720.1,344.5,720.1,344.5,720.1C344.5,720.1,344.5,720.1,344.5,720.1
			C344.5,720.1,344.5,720.1,344.5,720.1z"/>
	</g>
	<path class="st19" d="M344.8,718.7c-0.3,0-0.3,0.4,0,0.4S345,718.7,344.8,718.7z"/>
	<path class="st19" d="M345.7,722.1c0-0.1-0.1-0.1-0.1-0.2c0,0,0,0,0,0c-0.1-0.1-0.1-0.1,0,0c0,0,0,0,0,0c-0.1-0.2-0.3-0.2-0.4-0.2
		c-0.2,0.1-0.3,0.3-0.3,0.5c0,0,0,0.1,0,0.1c0,0.1,0,0.1,0,0.2c0,0.1,0.1,0.1,0.1,0.2c0,0,0,0,0,0c0,0,0,0.1,0.1,0.1
		c0.1,0.2,0.4,0.1,0.5,0C345.7,722.5,345.8,722.3,345.7,722.1z"/>
	<path class="st19" d="M346.3,721.1c-0.1-0.2-0.5-0.2-0.6,0c0,0.1-0.1,0.1-0.1,0.2c0,0,0,0.2,0,0c0,0,0,0,0,0c0,0.1,0,0.2,0.1,0.3
		c0.1,0.1,0.3,0.1,0.4,0.1c0.1,0,0.1-0.1,0.1-0.1C346.4,721.4,346.4,721.3,346.3,721.1z"/>
	<path class="st19" d="M346.2,718.3c0-0.1,0-0.2-0.1-0.2c-0.1-0.2-0.4-0.2-0.6,0c-0.1,0.1-0.1,0.2-0.1,0.4c0,0.1,0,0.2,0,0.3
		c0.1,0.2,0.2,0.3,0.4,0.2c0.1,0,0.2-0.2,0.2-0.3c0,0,0-0.1,0-0.1C346.2,718.4,346.2,718.4,346.2,718.3z"/>
	<path class="st22" d="M341.5,694.6C341.5,694.6,341.4,694.6,341.5,694.6c-0.1,0.2-0.2,0.2-0.4,0.3c-0.2,0.1-0.4,0.2-0.6,0.3
		c-0.1,0.1-0.1,0.3,0.1,0.3c0.3,0,0.6,0,0.8-0.3C341.5,695.1,341.5,694.8,341.5,694.6z"/>
	<path class="st22" d="M340.6,696.7c-0.1-0.1-0.3,0-0.4,0.1c0,0-0.1,0.1-0.1,0.1c0,0-0.1,0-0.1,0.1c0,0-0.1,0.1-0.1,0
		c-0.2,0.1-0.4,0.2-0.5,0.5c0,0.1,0,0.3,0.2,0.3c0.5,0.2,0.9-0.3,1-0.7C340.8,696.9,340.7,696.7,340.6,696.7z"/>
	<path class="st22" d="M339.5,698.8c-0.2,0.1-0.4,0.2-0.6,0.3c-0.2,0.2-0.3,0.4-0.4,0.6c-0.1,0.2,0.1,0.4,0.3,0.3
		c0.3-0.2,0.7-0.5,1-0.6C340.1,699.2,339.8,698.7,339.5,698.8z"/>
	<path class="st22" d="M352.8,717.5c-0.2-0.1-0.4-0.3-0.6-0.3c-0.1,0-0.1,0.1-0.1,0.1c0.2,0.1,0.4,0.3,0.5,0.4
		c0.1,0.1,0.3,0.3,0.5,0.3c0,0,0.1,0,0.1-0.1C353.2,717.7,352.9,717.6,352.8,717.5z"/>
	<path class="st22" d="M354.8,717.5c-0.3-0.1-0.6-0.3-0.9-0.5c-0.2-0.1-0.4,0.1-0.3,0.3c0.3,0.4,0.6,0.7,1,0.9
		c0.2,0.1,0.3-0.1,0.4-0.2C355.1,717.7,355,717.5,354.8,717.5z"/>
	<path class="st22" d="M356.5,717.1c-0.1-0.1-0.1-0.1-0.2-0.2c-0.1-0.1-0.3-0.1-0.4-0.2c-0.3-0.1-0.5-0.2-0.8-0.2
		c-0.1,0-0.2,0.2-0.1,0.2c0.2,0.1,0.4,0.3,0.7,0.4c0.1,0.1,0.2,0.1,0.4,0.2c0.1,0.1,0.2,0,0.4,0
		C356.5,717.4,356.5,717.2,356.5,717.1z"/>
	<path class="st22" d="M366.9,735.6C366.9,735.5,366.8,735.5,366.9,735.6c0,0-0.2-0.1-0.2-0.1c-0.1,0-0.1,0-0.2-0.1
		c-0.1,0-0.2,0-0.2,0c-0.1,0.1-0.1,0.2,0,0.3c0.1,0.1,0.2,0.2,0.3,0.2c0.1,0,0.2,0,0.3-0.1C367,735.8,367,735.6,366.9,735.6z"/>
	<path class="st22" d="M367.4,734.1C367.3,734.1,367.3,734.1,367.4,734.1c-0.1,0-0.1-0.1-0.2-0.1c-0.1,0-0.2,0-0.3,0
		c-0.1,0-0.1,0-0.2,0c-0.1-0.1-0.2-0.1-0.3-0.1c-0.1,0-0.2,0.2-0.2,0.3c0.1,0.2,0.2,0.4,0.5,0.5c0.1,0,0.3,0,0.4,0
		c0.1-0.1,0.2-0.2,0.2-0.3C367.5,734.2,367.4,734.2,367.4,734.1z"/>
	<path class="st22" d="M367.5,732.6C367.5,732.5,367.5,732.5,367.5,732.6c-0.1,0-0.1-0.1-0.1-0.1c-0.1,0-0.2-0.1-0.3-0.1
		c-0.1,0-0.2,0-0.4-0.1c-0.1-0.1-0.2,0.1-0.2,0.2c0.1,0.1,0.2,0.2,0.3,0.3c0.1,0.1,0.2,0.1,0.3,0.1c0.1,0,0.2,0,0.3-0.1
		C367.6,732.8,367.6,732.6,367.5,732.6z"/>
	<path class="st22" d="M338,734.2c-0.2,0-0.4,0.2-0.4,0.3c0,0.1,0,0.2,0.1,0.1c0.1-0.1,0.2,0,0.3,0c0.1,0,0.3-0.1,0.3-0.2
		C338.3,734.2,338.1,734.2,338,734.2z"/>
	<path class="st22" d="M337.4,732.6c-0.2,0-0.3,0.1-0.5,0.1c-0.1,0-0.1,0.1,0,0.2c0.2,0.1,0.3,0.1,0.5,0.1c0.2,0,0.4,0,0.4-0.2
		C337.8,732.6,337.5,732.6,337.4,732.6z"/>
	<path class="st22" d="M337.7,731.3c-0.3-0.2-0.7-0.2-1-0.1c-0.1,0-0.1,0.2,0,0.3c0.3,0.1,0.6,0.3,1,0.1
		C337.8,731.5,337.8,731.4,337.7,731.3z"/>
	<path class="st22" d="M358.2,734.5c-0.2-0.1-0.5,0-0.7,0c-0.3,0-0.3,0.5,0,0.5c0.2,0,0.5,0.1,0.7,0
		C358.4,734.8,358.4,734.5,358.2,734.5z"/>
	<path class="st22" d="M358.4,733.2c-0.3-0.2-0.7-0.1-1,0.2c-0.1,0.1,0,0.2,0.1,0.2c0.1,0,0.2,0,0.4,0c0.1,0,0.2,0.1,0.4,0.1
		C358.5,733.6,358.6,733.3,358.4,733.2z"/>
	<path class="st22" d="M358.6,731.4c-0.3-0.2-0.6-0.2-0.9-0.2c-0.4,0-0.4,0.6,0,0.6c0.3,0,0.6,0,0.9-0.2
		C358.6,731.6,358.6,731.5,358.6,731.4z"/>
	<path class="st22" d="M335.2,683c-0.1-0.1-0.2-0.1-0.4-0.1c0,0,0,0,0,0c-0.1,0-0.2,0.1-0.2,0.2c0,0,0,0,0,0.1c0,0,0,0.1,0,0.1
		c0-0.1,0,0,0,0.1c0.1,0.2,0.3,0.3,0.5,0.2C335.3,683.5,335.3,683.2,335.2,683z"/>
	<path class="st22" d="M336.3,682.5c-0.3,0-0.3,0.4,0,0.4C336.6,682.9,336.6,682.5,336.3,682.5z"/>
	<path class="st22" d="M337.5,683.4c-0.1-0.1-0.2-0.1-0.2,0c0,0,0,0,0,0c0,0-0.1,0-0.1,0.1c0,0,0,0,0,0c0,0.1,0,0.2,0,0.2
		c0.1,0.1,0.2,0.1,0.3,0C337.5,683.6,337.5,683.5,337.5,683.4z"/>
	<path class="st22" d="M337.9,682c-0.2,0-0.3,0.1-0.3,0.3c0,0.2,0.1,0.3,0.3,0.3s0.3-0.1,0.3-0.3C338.2,682.1,338.1,682,337.9,682z"
		/>
	<path class="st22" d="M339,684.4c-0.4,0-0.4,0.5,0,0.5C339.4,685,339.4,684.4,339,684.4z"/>
	<path class="st22" d="M341.4,685.1c-0.3,0-0.3,0.4,0,0.4C341.7,685.5,341.7,685.1,341.4,685.1z"/>
	<path class="st22" d="M343.3,684.6c-0.4,0-0.4,0.5,0,0.5S343.6,684.6,343.3,684.6z"/>
	<path class="st22" d="M345.5,683.2c-0.1-0.1-0.3-0.1-0.4,0c-0.1,0.1-0.1,0.3,0,0.4c0,0,0.1,0.1,0.1,0.2c0,0,0,0,0,0c0,0,0,0,0,0
		c0,0,0.1,0.1,0.1,0.1c0.1,0.1,0.2,0.1,0.2,0c0,0,0.1-0.1,0.1-0.1c0,0,0,0,0,0c0,0,0-0.1,0-0.1C345.7,683.5,345.6,683.4,345.5,683.2
		z"/>
	<path class="st22" d="M344.7,684.8c-0.3,0-0.3,0.4,0,0.4C345,685.2,345,684.8,344.7,684.8z"/>
	<path class="st22" d="M336.5,680.4c-0.3,0-0.3,0.5,0,0.5C336.8,680.9,336.8,680.4,336.5,680.4z"/>
	<path class="st22" d="M335.3,681.2c-0.2,0-0.2,0.3,0,0.3C335.5,681.5,335.5,681.2,335.3,681.2z"/>
	<path class="st22" d="M333.7,680.8c-0.2,0-0.2,0.2,0,0.2S333.9,680.8,333.7,680.8z"/>
	<path class="st22" d="M334.7,680.2c-0.2,0-0.3,0.2-0.2,0.4l0,0c0.1,0.1,0.2,0.1,0.3,0l0,0C335,680.4,334.9,680.2,334.7,680.2z"/>
	<path class="st19" d="M355.2,669.6c-0.3,0-0.3,0.5,0,0.5C355.5,670,355.5,669.6,355.2,669.6z"/>
	<path class="st19" d="M355.6,670.4c-0.2,0-0.4,0.2-0.4,0.4c0,0.2,0.2,0.4,0.4,0.4c0.2,0,0.4-0.2,0.4-0.4
		C355.9,670.5,355.8,670.4,355.6,670.4z"/>
	<path class="st19" d="M355.9,671.8c-0.4,0-0.4,0.6,0,0.6S356.2,671.8,355.9,671.8z"/>
	<path class="st19" d="M337.4,665.6C337.4,665.6,337.3,665.5,337.4,665.6c-0.1-0.1-0.1-0.1-0.2,0c0.1-0.1,0,0,0,0c0,0,0,0.1,0,0.1
		c0,0.1,0.1,0.1,0.1,0.1c0.1,0,0.1-0.1,0.1-0.1C337.4,665.6,337.4,665.6,337.4,665.6z"/>
	<path class="st19" d="M337.9,665.8c-0.2,0-0.2,0.4,0,0.4C338.1,666.2,338.1,665.8,337.9,665.8z"/>
	<path class="st19" d="M338.7,666.2c-0.2,0-0.2,0.3,0,0.3S338.9,666.2,338.7,666.2z"/>
	<path class="st25" d="M342.9,678.1c-0.1,0-0.1,0-0.2,0c-0.1-0.1-0.3-0.1-0.5-0.1c-0.4,0-0.6,0.3-0.8,0.6c-0.2,0.4,0,0.7,0.4,0.9
		c0.2,0.1,0.4,0.2,0.6,0.2c0.3,0,0.6-0.2,0.8-0.4C343.4,678.8,343.3,678.2,342.9,678.1z"/>
</g>
</svg>
