<?xml version="1.0" encoding="utf-8"?>
<!-- Generator: Adobe Illustrator 23.0.1, SVG Export Plug-In . SVG Version: 6.00 Build 0)  -->
<svg version="1.1" id="Livello_1" xmlns="http://www.w3.org/2000/svg" xmlns:xlink="http://www.w3.org/1999/xlink" x="0px" y="0px"
	 viewBox="0 0 450 799.5" style="enable-background:new 0 0 450 799.5;" xml:space="preserve">
<style type="text/css">
	.st0{fill:url(#BACKGROUND_1_);}
	.st1{opacity:0.23;fill:#FFFFFF;}
	.st2{fill:#00796C;}
	.st3{fill:#00897B;}
	.st4{fill-rule:evenodd;clip-rule:evenodd;fill:#065C4D;}
	.st5{fill-rule:evenodd;clip-rule:evenodd;fill:#036356;}
	.st6{fill-rule:evenodd;clip-rule:evenodd;fill:#00796C;}
	.st7{fill:#68B56A;}
	.st8{fill:#679F51;}
	.st9{fill:#578C4B;}
	.st10{fill:#ADCF80;}
	.st11{fill:#9CC666;}
	.st12{fill:#45A054;}
	.st13{fill:#B7D053;}
	.st14{fill:#7BB354;}
	.st15{fill:#3A9652;}
	.st16{fill:#5BAF5D;}
	.st17{fill:#519B52;}
	.st18{fill:#74B96F;}
	.st19{fill:#0097A8;}
	.st20{fill:#B36535;}
	.st21{fill:#A45130;}
	.st22{fill:#5AB160;}
	.st23{fill:#74B96C;}
	.st24{fill:#559850;}
	.st25{opacity:0.1;}
	.st26{fill:#1B3F51;}
	.st27{fill:#B77754;}
	.st28{fill:#995C39;}
	.st29{fill:#DCC193;}
	.st30{fill:#E19971;}
	.st31{fill:#CDAF7D;}
	.st32{fill:#534740;}
	.st33{fill:#AB9284;}
</style>
<linearGradient id="BACKGROUND_1_" gradientUnits="userSpaceOnUse" x1="227.5" y1="811.75" x2="227.5" y2="-0.35">
	<stop  offset="0" style="stop-color:#F4DD9A"/>
	<stop  offset="0.9986" style="stop-color:#EBA29F"/>
</linearGradient>
<rect id="BACKGROUND" x="-22.5" y="-0.4" class="st0" width="500" height="812.1"/>
<g id="OBJECTS">
	<g>
		<path class="st1" d="M487.2,708.6V486.1c-6.2,3.7-12.3,7.7-19.4,8.9c-4.8,0.8-9.8,0.2-14.4,1.4c-13.4,3.5-19.7,19.6-32.1,25.7
			c-8.8,4.3-20.1,3.3-27.4,9.8c-6.4,5.7-7.7,15.6-13.8,21.7c-6.5,6.6-17.1,7.2-26.1,5.2c-9.1-2-17.6-6.1-26.7-7.6
			c-11.7-1.9-24.1,0.6-34.1,7.1c-3.9,2.5-34.4,28-64.9,57.2c2.5,2.3-43.7-37.6-47-39.8c-10-6.4-22.4-9-34.1-7.1
			c-9.1,1.5-17.6,5.6-26.7,7.6c-9,2-19.6,1.3-26.1-5.2c-6.1-6.1-7.4-16-13.8-21.7c-7.3-6.5-18.6-5.5-27.4-9.8
			c-12.5-6.1-18.7-22.3-32.1-25.7c-4.7-1.2-9.7-0.6-14.4-1.4c-7.1-1.2-13.2-5.2-19.4-8.9v205H487.2z"/>
		<path class="st1" d="M465.3,532.2c-5.2,0.8-10.5,0.2-15.6,1.4c-14.5,3.5-21.2,19.6-34.7,25.7c-9.5,4.3-21.7,3.3-29.6,9.8
			c-6.9,5.7-8.3,15.6-14.8,21.7c-7.1,6.6-18.4,7.2-28.1,5.2c-9.8-2-18.9-6.1-28.8-7.6c-12.6-1.9-26,0.6-36.7,7.1
			c-4.2,2.5-37.1,28-70,57.2c2.7,2.3-47.1-37.6-50.7-39.8c-10.8-6.4-24.1-9-36.7-7.1c-9.8,1.5-19,5.6-28.8,7.6
			c-9.8,2-21.1,1.3-28.1-5.2c-6.5-6.1-7.9-16-14.9-21.7c-7.9-6.5-20.1-5.5-29.6-9.8c-12.3-5.6-19-19.5-31.1-24.6v193.5h499V523.3
			C479.5,527.1,472.9,531.1,465.3,532.2z"/>
	</g>
	<g>
		<polygon class="st2" points="401.3,660.1 429,658.9 299.7,599.8 237.7,577.8 210.7,557.3 171.9,534.6 114.7,566.4 73.7,586.1 
			-12.8,623.2 -12.5,660.1 17.7,660.1 		"/>
		<polygon class="st3" points="247.2,660.1 182.4,630.5 120.4,608.5 93.4,588 54.5,565.3 -2.6,597.1 -12.5,601.9 -12.5,660.1 		"/>
		<polygon class="st3" points="487.2,660.1 487.2,605.1 467.2,596.4 410,564.6 371.2,587.3 344.2,607.8 282.2,629.8 215.9,660.1 		
			"/>
	</g>
	<g>
		<path class="st4" d="M73.1,644.3c0.4,0.1,0.7,0.4,0.8,0.7c0,0.4-0.3,0.4-0.7,0.5c-0.4,0.1-0.7,0.2-0.8,0.5
			c8.6-1.2,17.2-2.6,25.7-3.4c20.5-1.9,41.2-3.1,61.7-2.5c11.8,0.3,23.5,1.3,35.3,2.2c-0.5-0.4-0.5-0.8,0.1-1.2
			c0.2-0.1,0.4-0.2,0.6-0.3c0.5-0.3,0.6-0.6,0.2-0.9c-0.3-0.3-0.7-0.5-1-0.7c-0.5-0.3-1-0.6-1.4-0.8c-0.3-0.2-0.3-0.4,0-0.5
			c0.1-0.1,0.3-0.1,0.4-0.2c0.3-0.2,0.7-0.3,1-0.5c0.3-0.2,0.3-0.4,0.1-0.7c-0.2-0.2-0.5-0.4-0.8-0.6c-0.5-0.3-1-0.7-1.5-1
			c-0.5-0.4-0.5-0.5,0.1-0.9c0.7-0.5,1.3-1,1.9-1.6c0.7-0.6,1.1-1.3,1.1-2.2c0-0.3-0.1-0.5-0.5-0.6c-0.6-0.1-1.1-0.2-1.7-0.3
			c-1.2-0.2-1.9-1.2-1.5-1.9c0.3-0.5,0.8-0.9,1.4-1.2c0.9-0.4,1.5-1,1.9-1.7c0.2-0.4,0.2-0.8,0-1.2c-0.1,0-0.2,0-0.3,0
			c-1.1,0.3-1.6,0-1.5-0.9c0-0.2,0.1-0.5,0.1-0.7c0-0.1-0.1-0.3-0.2-0.4c-0.1,0.1-0.3,0.1-0.4,0.2c-0.7,0.4-1.5,0.6-2.3,0.4
			c-0.9-0.2-1.2-1.1-0.6-1.6c0.4-0.4,0.7-0.7,1-1.1c0.4-0.6,0.6-1.2,0.6-1.9c-0.1-0.6-0.4-0.7-1-0.4c-0.3,0.2-0.7,0.4-1,0.5
			c-0.5,0.2-0.9,0-0.9-0.4c0-0.2,0.2-0.5,0.4-0.7c0.6-0.4,0.7-0.9,0.5-1.4c-0.3-0.7-0.5-1.4,0.1-2.2c0.1-0.1,0-0.4-0.2-0.5
			c-0.1-0.1-0.4-0.1-0.6-0.1c-0.2,0-0.5,0.1-0.7,0.1c-0.4,0.1-0.7,0-0.8-0.3c-0.1-0.3-0.1-0.7-0.2-1c-0.3-0.8-0.8-1.5-1.8-1.9
			c-0.3-0.1-0.6-0.1-0.8,0.2c-0.2,0.3-0.3,0.6-0.4,1c-0.4,0.9-0.9,1.9-2.4,2.1c-0.7,0.1-0.8,0.3-0.7,0.8c0.1,0.4,0.1,0.7,0.2,1.1
			c0.1,0.5,0,0.8-0.5,1.1c-0.2,0.1-0.3,0.2-0.4,0.4c-0.3,0.5-0.5,1-0.7,1.6c-0.2,0.4-0.3,0.8-0.7,1c-0.7,0.4-1.4,0.7-2.2,1
			c-0.4,0.1-0.5,0.3-0.5,0.6c0.1,0.9,0.7,1.6,1.4,2.3c0.6,0.5,0.5,0.6-0.2,1c-0.1,0-0.2,0.1-0.3,0.1c-0.6,0.2-1.3,0.4-1.9,0.6
			c-0.3,0.1-0.6,0.2-0.6,0.5c0,0.4,0.1,0.8,0.2,1.2c0.3,0.5,0.7,0.9,1,1.4c0.2,0.3,0.5,0.7,0.3,1.1c-0.4,0.9-1.2,1.6-1.9,2.3
			c-0.1,0.1-0.4,0.1-0.4,0.1c-0.8-0.6-1.7-1.2-2.1-2.1c-0.4-1-0.8-2-0.9-3.1c0-0.5-0.2-0.9-0.3-1.4c0-0.1-0.3-0.2-0.5-0.3
			c-0.1,0.1-0.3,0.2-0.4,0.4c-0.2,0.6-0.4,1.2-0.6,1.8c-0.2,0.8-0.5,1.5-0.8,2.2c-0.1,0.1-0.3,0.3-0.4,0.3c-0.2,0-0.5-0.2-0.6-0.3
			c-0.2-0.4-0.3-0.8-0.5-1.2c-0.1-0.3-0.1-0.7-0.7-0.8c-0.2,0.6-0.3,1.2-0.5,1.7c-0.1,0.3-0.2,0.6-0.4,0.8c-0.3,0.4-0.7,0.4-1.1,0.1
			c-0.3-0.2-0.5-0.5-0.8-0.7c-0.4-0.5-0.8-1-1.3-1.5c-0.5-0.4-1.1-0.6-1.6,0c0,0.1-0.1,0.1-0.2,0.2c-0.4,0.4-1,0.3-1.2-0.1
			c-0.2-0.5-0.4-1-0.6-1.5c-0.3-0.8-0.4-1.6-0.8-2.4c-0.5-0.8-0.6-1.7-0.8-2.5c-0.1-0.6-0.3-1.3-0.5-1.9c-0.1-0.3-0.4-0.5-0.6-0.8
			c-0.1,0-0.1,0-0.2,0c-0.1,0.4-0.1,0.7-0.2,1.1c-0.1,0.7-0.2,1.3-0.4,2c-0.2,0.9-0.4,1.7-0.6,2.6c-0.2,0.8-0.5,1.7-0.6,2.5
			c-0.2,0.9-0.3,1.8-0.4,2.7c-0.1,0.5-0.2,1-0.8,1.3c-0.4,0.2-0.8,0.2-1-0.1c-0.2-0.3-0.3-0.5-0.4-0.8c-0.3-1.1-0.5-2.2-0.8-3.2
			c-0.1-0.3-0.1-0.7-0.6-1c0,0.2-0.1,0.3-0.1,0.4c-0.1,1-0.2,2.1-0.3,3.1c-0.1,0.6-0.3,1.2-0.4,1.8c-0.1,0.4-0.4,0.7-0.5,1
			c-0.2,0.8-0.3,1.6-0.6,2.3c-0.2,0.5-0.5,0.9-1.2,1.2c0-0.2-0.1-0.3-0.1-0.4c-0.1-0.7-0.5-1.3-1.3-1.6c-0.3-0.1-0.4-0.2-0.2-0.5
			c0.5-1,0.2-2.1-0.8-2.7c-0.6-0.4-1.1-0.3-1.4,0.2c-0.2,0.3-0.3,0.7-0.5,1c-0.2,0.5-0.3,0.9-0.6,1.4c-0.1,0.2-0.5,0.4-0.8,0.5
			c-0.4,0.1-0.7-0.1-0.9-0.4c-0.2-0.3-0.4-0.6-0.5-1c-0.2-0.7-0.3-1.3-0.5-2c-0.1-0.3-0.3-0.5-0.5-0.8c-0.5,0.2-0.7,0.5-0.7,0.8
			c-0.1,0.4,0,0.8-0.1,1.2c-0.1,0.8-0.2,1.5-0.5,2.3c-0.2,0.6-0.7,1.1-1.4,1.3c-0.4,0.1-0.7,0-1-0.1c-0.3-0.2-0.3-0.4-0.2-0.7
			c0.4-1,0.5-2,0.4-3c-0.1-0.4-0.2-0.8-0.7-1.1c-0.3-0.2-0.3-0.4-0.2-0.6c0.1-0.2,0.3-0.5,0.4-0.7c0.1-0.4,0.3-0.8,0.4-1.2
			c0.1-0.3-0.1-0.5-0.4-0.5c-0.5-0.1-0.6-0.4-0.6-0.7c0-0.5,0-1,0-1.5c0-0.5-0.7-1-1.4-1c-0.5,0-0.9,0.3-1,0.9c0,0,0,0,0,0.1
			c-0.1,1.1-0.4,2.2-0.8,3.2c-0.2,0.5-0.4,0.9-0.7,1.4c-0.2,0.3-0.5,0.3-0.8,0.1c-0.1-0.1-0.2-0.2-0.2-0.3c-0.2-0.5-0.4-1.1-0.5-1.7
			c-0.1-0.7-0.4-1.3-0.9-1.8c-0.6-0.6-0.9-1.3-0.9-2.1c0-0.5,0-1-0.1-1.5c-0.1-0.4-0.1-0.8-0.6-1.1c0,0.1-0.1,0.1-0.1,0.2
			c-0.3,1.3-0.7,2.6-1,3.9c-0.2,0.9-0.5,1.8-0.7,2.7c-0.2,0.8-0.3,1.5-0.4,2.3c-0.1,0.6-0.2,1.2-0.6,1.7c-0.2,0.2-0.4,0.4-0.8,0.3
			c-0.2-0.1-0.5-0.3-0.6-0.5c-0.2-0.7-0.3-1.4-0.5-2.1c-0.1-0.5-0.4-1-0.6-1.5c-0.1-0.2-0.4-0.3-0.6-0.4c-0.1,0.2-0.3,0.4-0.3,0.6
			c-0.1,0.9,0,1.7-0.1,2.6c-0.1,0.6-0.2,1.3-0.3,1.9c0,0.1-0.2,0.3-0.3,0.3c-0.2,0-0.4-0.1-0.5-0.2c-0.2-0.3-0.4-0.7-0.6-1
			c-0.2-0.4-0.3-0.8-0.9-1c0,0.1-0.1,0.2-0.1,0.3c-0.2,1.7-0.5,3.3-0.7,5c-0.2,1.4-0.5,2.7-1.1,4c-0.2,0.5-0.7,1-1.3,1.3
			c-0.2,0.1-0.4,0.1-0.6,0.1c0-0.1-0.1-0.3-0.1-0.4c0.1-0.2,0.2-0.4,0.4-0.6c0.3-0.6,0.7-1.2,1-1.8c0.2-0.5,0-0.9-0.6-1.2
			c-0.3-0.1-0.5-0.3-0.8-0.4c-1-0.7-1.7-1.5-2.3-2.5c-0.2-0.3-0.5-0.5-0.9-0.5c-0.4,0-0.8,0.1-0.9,0.5c-0.2,0.5-0.3,1-0.4,1.5
			c-0.2,0.7-0.3,1.4-0.5,2c-0.1,0.5-0.7,0.8-1.1,0.8c-0.7,0-1,0.2-0.7,0.7c0.1,0.3,0.3,0.5,0.5,0.8c0.2,0.3,0.2,0.6-0.2,0.7
			c-0.3,0.2-0.6,0.1-0.9,0c-0.9-0.5-1.3-1.2-1.6-2c-0.3-0.7-0.5-1.5-0.8-2.2c-0.1-0.4-0.4-0.7-0.5-1.1c0,0-0.1,0-0.1,0
			c-0.1,0.1-0.2,0.2-0.3,0.3c-0.1,0.5-0.2,1.1-0.3,1.6c-0.1,0.5-0.3,0.9-0.5,1.3c-0.2,0.4-0.4,0.8-0.5,1.2c-0.4,1.1-0.6,2.2-1.1,3.2
			c-0.3,0.8-1.1,1.3-2.3,1.4c-0.5,0-0.9-0.3-0.8-0.7c0-0.2,0.1-0.4,0.3-0.5c0.7-0.8,0.5-1.7-0.2-2.4c-1-0.9-1.6-1.8-1.9-2.9
			c-0.1-0.3-0.3-0.4-0.6-0.4c-0.3,0-0.5,0-0.8,0.1c-0.4,0.2-0.9,0.4-1.3,0.5c-0.4,0.1-0.5,0.1-0.6-0.2c-0.4-1-0.7-2-1.1-2.9
			c-0.4-1.1-0.9-2.1-0.8-3.2c0-0.3,0-0.7-0.1-1c-0.1-0.2-0.2-0.5-0.3-0.7c-0.2-0.3-0.6-0.3-0.7,0c-0.2,0.4-0.4,0.8-0.4,1.1
			c-0.3,1.2-0.5,2.3-0.7,3.5c-0.1,0.6-0.7,0.9-1.5,0.7c-0.8-0.1-1-0.6-0.6-1.1c0.1-0.1,0.2-0.2,0.3-0.3c0.6-0.5,0.7-1,0.2-1.6
			c-0.1-0.2-0.2-0.3-0.3-0.5c-0.5-0.7-1.1-1.4-1.1-2.3c0-0.7-0.3-1.3-0.7-1.8c-0.4-0.6-0.7-1.3-0.2-2c0.1-0.1,0.1-0.3,0.1-0.4
			c-0.2-0.5-0.3-1-0.6-1.4c-0.4-0.8-0.9-1.6-0.9-2.5c0-0.1,0-0.2,0-0.2c-0.1-0.1-0.2-0.3-0.4-0.3c-0.1,0-0.3,0.1-0.4,0.2
			c-0.1,0.1-0.2,0.3-0.1,0.5c0.3,1.2-0.2,2.3-0.6,3.4c-0.3,0.8-0.6,1.7-0.5,2.6c0,0.1,0,0.3-0.1,0.4c0,0.1-0.2,0.2-0.3,0.2
			c-0.1,0-0.3-0.1-0.3-0.2c-0.2-0.3-0.4-0.6-0.6-1c-0.1,0.1-0.3,0.2-0.3,0.3c-0.1,0.3-0.2,0.6-0.3,0.9c-0.2,1.2-0.2,2.4-0.7,3.5
			c0,0.1,0,0.2-0.1,0.3c-0.1,0.5-0.3,1-0.4,1.5c-0.3,0.9-0.6,1.8-0.8,2.7c-0.2,0.9-0.3,1.9-0.6,2.8c-0.2,0.9-0.5,1.8-1.2,2.6
			c-0.1,0.1,0,0.3,0,0.5c0.1,0.3,0.3,0.6,0.3,1c0,0.7-0.2,1-1.1,1.3c-0.3,0.1-0.6,0.3-0.9,0.5C72.2,643.9,72.4,644.2,73.1,644.3z"/>
		<path class="st4" d="M41.2,647.9c11.3,0.7,22.7-0.7,34-2.4c0,0,0,0,0.1,0c0.5-0.3,0.6-0.6,0.2-0.9c-0.3-0.3-0.7-0.5-1-0.7
			c-0.5-0.3-1-0.6-1.4-0.8c-0.3-0.2-0.3-0.4,0-0.5c0.1-0.1,0.3-0.1,0.4-0.2c0.3-0.2,0.7-0.3,1-0.5c0.3-0.2,0.3-0.4,0.1-0.7
			c-0.2-0.2-0.5-0.4-0.8-0.6c-0.5-0.3-1-0.7-1.5-1c-0.5-0.4-0.5-0.5,0.1-0.9c0.7-0.5,1.3-1,1.9-1.6c0.7-0.6,1.1-1.3,1.1-2.2
			c0-0.3-0.1-0.5-0.5-0.6c-0.6-0.1-1.1-0.2-1.7-0.3c-1.2-0.2-1.9-1.2-1.5-1.9c0.3-0.5,0.8-0.9,1.4-1.2c0.9-0.4,1.5-1,1.9-1.7
			c0.2-0.4,0.2-0.8,0-1.2c-0.1,0-0.2,0-0.3,0c-1.1,0.3-1.6,0-1.5-0.9c0-0.2,0.1-0.5,0.1-0.7c0-0.1-0.1-0.3-0.2-0.4
			c-0.1,0.1-0.3,0.1-0.4,0.2c-0.7,0.4-1.5,0.6-2.3,0.4c-0.9-0.2-1.2-1.1-0.6-1.6c0.4-0.4,0.7-0.7,1-1.1c0.4-0.6,0.6-1.2,0.6-1.9
			c-0.1-0.6-0.4-0.7-1-0.4c-0.3,0.2-0.7,0.4-1,0.5c-0.5,0.2-0.9,0-0.9-0.4c0-0.2,0.2-0.5,0.4-0.7c0.6-0.4,0.7-0.9,0.5-1.4
			c-0.3-0.7-0.5-1.4,0.1-2.2c0.1-0.1,0-0.4-0.2-0.5c-0.1-0.1-0.4-0.1-0.6-0.1c-0.2,0-0.5,0.1-0.7,0.1c-0.4,0.1-0.7,0-0.8-0.3
			c-0.1-0.3-0.1-0.7-0.2-1c-0.3-0.8-0.8-1.5-1.8-1.9c-0.3-0.1-0.6-0.1-0.8,0.2c-0.2,0.3-0.3,0.6-0.4,1c-0.4,0.9-0.9,1.9-2.4,2.1
			c-0.7,0.1-0.8,0.3-0.7,0.8c0.1,0.4,0.1,0.7,0.2,1.1c0.1,0.5,0,0.8-0.5,1.1c-0.2,0.1-0.3,0.2-0.4,0.4c-0.3,0.5-0.5,1-0.7,1.6
			c-0.2,0.4-0.3,0.8-0.7,1c-0.7,0.4-1.4,0.7-2.2,1c-0.4,0.1-0.5,0.3-0.5,0.6c0.1,0.9,0.7,1.6,1.4,2.3c0.6,0.5,0.5,0.6-0.2,1
			c-0.1,0-0.2,0.1-0.3,0.1c-0.6,0.2-1.3,0.4-1.9,0.6c-0.3,0.1-0.6,0.2-0.6,0.5c0,0.4,0.1,0.8,0.2,1.2c0.3,0.5,0.7,0.9,1,1.4
			c0.2,0.3,0.5,0.7,0.3,1.1c-0.4,0.9-1.2,1.6-1.9,2.3c-0.1,0.1-0.4,0.1-0.4,0.1c-0.8-0.6-1.7-1.2-2.1-2.1c-0.4-1-0.8-2-0.9-3.1
			c0-0.5-0.2-0.9-0.3-1.4c0-0.1-0.3-0.2-0.5-0.3c-0.1,0.1-0.3,0.2-0.4,0.4c-0.2,0.6-0.4,1.2-0.6,1.8c-0.2,0.8-0.5,1.5-0.8,2.2
			c-0.1,0.1-0.3,0.3-0.4,0.3c-0.2,0-0.5-0.2-0.6-0.3c-0.2-0.4-0.3-0.8-0.5-1.2c-0.1-0.3-0.1-0.7-0.7-0.8c-0.2,0.6-0.3,1.2-0.5,1.7
			c-0.1,0.3-0.2,0.6-0.4,0.8c-0.3,0.4-0.7,0.4-1.1,0.1c-0.3-0.2-0.5-0.5-0.8-0.7c-0.4-0.5-0.8-1-1.3-1.5c-0.5-0.4-1.1-0.6-1.6,0
			c0,0.1-0.1,0.1-0.2,0.2c-0.4,0.4-1,0.3-1.2-0.1c-0.2-0.5-0.4-1-0.6-1.5c-0.3-0.8-0.4-1.6-0.8-2.4c-0.5-0.8-0.6-1.7-0.8-2.5
			c-0.1-0.6-0.3-1.3-0.5-1.9c-0.1-0.3-0.4-0.5-0.6-0.8c-0.1,0-0.1,0-0.2,0c-0.1,0.4-0.1,0.7-0.2,1.1c-0.1,0.7-0.2,1.3-0.4,2
			c-0.2,0.9-0.4,1.7-0.6,2.6c-0.2,0.8-0.5,1.7-0.6,2.5c-0.2,0.9-0.3,1.8-0.4,2.7c-0.1,0.5-0.2,1-0.8,1.3c-0.4,0.2-0.8,0.2-1-0.1
			c-0.2-0.3-0.3-0.5-0.4-0.8c-0.3-1.1-0.5-2.2-0.8-3.2c-0.1-0.3-0.1-0.7-0.6-1c0,0.2-0.1,0.3-0.1,0.4c-0.1,1-0.2,2.1-0.3,3.1
			c-0.1,0.6-0.3,1.2-0.4,1.8c-0.1,0.4-0.4,0.7-0.5,1c-0.2,0.8-0.3,1.6-0.6,2.3c-0.2,0.5-0.5,0.9-1.2,1.2c0-0.2-0.1-0.3-0.1-0.4
			c-0.1-0.7-0.5-1.3-1.3-1.6c-0.3-0.1-0.4-0.2-0.2-0.5c0.5-1,0.2-2.1-0.8-2.7c-0.6-0.4-1.1-0.3-1.4,0.2c-0.2,0.3-0.3,0.7-0.5,1
			c-0.2,0.5-0.3,0.9-0.6,1.4c-0.1,0.2-0.5,0.4-0.8,0.5c-0.4,0.1-0.7-0.1-0.9-0.4c-0.2-0.3-0.4-0.6-0.5-1c-0.2-0.7-0.3-1.3-0.5-2
			c-0.1-0.3-0.3-0.5-0.5-0.8c-0.5,0.2-0.7,0.5-0.7,0.8c-0.1,0.4,0,0.8-0.1,1.2c-0.1,0.8-0.2,1.5-0.5,2.3c-0.2,0.6-0.7,1.1-1.4,1.3
			c-0.4,0.1-0.7,0-1-0.1c-0.3-0.2-0.3-0.4-0.2-0.7c0.4-1,0.5-2,0.4-3c-0.1-0.4-0.2-0.8-0.7-1.1c-0.3-0.2-0.3-0.4-0.2-0.6
			c0.1-0.2,0.3-0.5,0.4-0.7c0.1-0.4,0.3-0.8,0.4-1.2c0.1-0.3-0.1-0.5-0.4-0.5c-0.5-0.1-0.6-0.4-0.6-0.7c0-0.5,0-1,0-1.5
			c0-0.5-0.7-1-1.4-1c-0.5,0-0.9,0.3-1,0.9c0,0,0,0,0,0.1c-0.1,1.1-0.4,2.2-0.8,3.2c-0.2,0.5-0.4,0.9-0.7,1.4
			c-0.2,0.3-0.5,0.3-0.8,0.1c-0.1-0.1-0.2-0.2-0.2-0.3c-0.2-0.5-0.4-1.1-0.5-1.7c-0.1-0.7-0.4-1.3-0.9-1.8c-0.6-0.6-0.9-1.3-0.9-2.1
			c0-0.5,0-1-0.1-1.5c-0.1-0.4-0.1-0.8-0.6-1.1c0,0.1-0.1,0.1-0.1,0.2c-0.3,1.3-0.7,2.6-1,3.9c-0.2,0.9-0.5,1.8-0.7,2.7
			c-0.2,0.8-0.3,1.5-0.4,2.3c-0.1,0.6-0.2,1.2-0.6,1.7c-0.2,0.2-0.4,0.4-0.8,0.3c-0.2-0.1-0.5-0.3-0.6-0.5c-0.2-0.7-0.3-1.4-0.5-2.1
			c-0.1-0.5-0.4-1-0.6-1.5c-0.1-0.2-0.4-0.3-0.6-0.4c-0.1,0.2-0.3,0.4-0.3,0.6c-0.1,0.9,0,1.7-0.1,2.6c-0.1,0.6-0.2,1.3-0.3,1.9
			c0,0.1-0.2,0.3-0.3,0.3c-0.2,0-0.4-0.1-0.5-0.2c-0.2-0.3-0.4-0.7-0.6-1c-0.2-0.4-0.3-0.8-0.9-1c0,0.1-0.1,0.2-0.1,0.3
			c-0.2,1.7-0.5,3.3-0.7,5c-0.2,1.4-0.5,2.7-1.1,4c-0.2,0.5-0.7,1-1.3,1.3C-6.7,644-7,644-7.2,644c0-0.1-0.1-0.3-0.1-0.4
			c0.1-0.2,0.2-0.4,0.4-0.6c0.3-0.6,0.7-1.2,1-1.8c0.2-0.5,0-0.9-0.6-1.2c-0.3-0.1-0.5-0.3-0.8-0.4c-1-0.7-1.7-1.5-2.3-2.5
			c-0.2-0.3-0.5-0.5-0.9-0.5c-0.4,0-0.8,0.1-0.9,0.5c-0.2,0.5-0.3,1-0.4,1.5c-0.2,0.7-0.3,1.4-0.5,2c0,0.1-0.1,0.1-0.1,0.2v9h46.9
			C36.4,648.5,38.7,647.8,41.2,647.9z"/>
		<path class="st4" d="M150.9,639.4c0.4,0,0.7,0.2,0.8,0.4c0,0.1,0,0.1-0.1,0.1c2.8,0,5.6,0.1,8.3,0.1c8,0.2,15.9,0.7,23.8,1.3
			c14.7,0,28.7,0,28.8,0.1h12c0.1,0,0.2,0,0.3,0c0.1,0,0.2,0,0.3,0h3c0.2-0.1,3.7-0.1,4.6,0c0.2,0,0.5,0,0.7,0h40.5
			c-0.1-0.1-0.2-0.2-0.3-0.3c-0.2-0.2-0.3-0.4-0.9-0.5c-0.2,0-0.3-0.1-0.1-0.2c0.1-0.1,0.3-0.1,0.4-0.2c2.6-0.9,2.3-1,0.8-2.4
			c-0.6-0.6-1.8-2.1-2.5-2.5c-1.5-0.9-5.3-1.7-7.3-2.1c-1.3-0.3-2.8-0.1-3.8-1.3c-1.3,1-2.6-0.4-4-0.6c-2.1-0.2-4.8,1.5-6.4-0.6
			c-0.4-0.5-0.8-1.1-0.9-1.6c0-0.2-0.2-0.5-0.3-0.7c0-0.1-0.3-0.1-0.5-0.2c-0.1,0.1-0.3,0.1-0.4,0.2c-0.2,0.3-0.4,0.6-0.6,1
			c-0.2,0.4-0.5,0.8-0.8,1.2c-0.1,0.1-0.3,0.2-0.4,0.2c-0.2,0-0.5-0.1-0.6-0.2c-0.2-0.2-0.3-0.4-0.5-0.6c-0.1-0.2-0.1-0.3-0.7-0.4
			c-0.2,0.3-0.3,0.6-0.5,0.9c-0.1,0.1-0.2,0.3-0.4,0.4c-0.3,0.2-0.7,0.2-1.1,0.1c-0.3-0.1-0.5-0.3-0.8-0.4c-0.4-0.3-0.8-0.5-1.3-0.8
			c-0.5-0.2-1.1-0.3-1.6,0c0,0-0.1,0.1-0.2,0.1c-0.4,0.2-1,0.2-1.2-0.1c-0.2-0.3-0.4-0.5-0.6-0.8c-0.3-0.4-0.4-0.9-0.8-1.3
			c-0.5-0.4-0.6-0.9-0.8-1.3c-0.1-0.3-0.3-0.7-0.5-1c-0.1-0.2-0.4-0.3-0.6-0.4c-0.1,0-0.1,0-0.2,0c-0.1,0.2-0.1,0.4-0.2,0.6
			c-0.1,0.4-0.2,0.7-0.4,1.1c-0.2,0.5-0.4,0.9-0.6,1.4c-0.2,0.4-0.5,0.9-0.6,1.3c-0.2,0.5-0.3,1-0.4,1.5c-0.1,0.3-0.2,0.5-0.8,0.7
			c-0.4,0.1-0.8,0.1-1-0.1c-0.2-0.1-0.3-0.3-0.4-0.4c-0.3-0.6-0.5-1.1-0.8-1.7c-0.1-0.2-0.1-0.4-0.6-0.5c0,0.1-0.1,0.1-0.1,0.2
			c-0.1,0.5-0.2,1.1-0.3,1.6c-0.1,0.3-0.3,0.6-0.4,1c-0.1,0.2-0.4,0.4-0.5,0.5c-0.2,0.4-0.3,0.8-0.6,1.2c-0.2,0.3-0.5,0.5-1.2,0.6
			c0-0.1-0.1-0.1-0.1-0.2c-0.1-0.4-0.5-0.7-1.3-0.9c-0.3-0.1-0.4-0.1-0.2-0.2c0.5-0.5,0.2-1.1-0.8-1.4c-0.6-0.2-1.1-0.2-1.4,0.1
			c-0.2,0.2-0.3,0.3-0.5,0.5c-0.2,0.2-0.3,0.5-0.6,0.7c-0.1,0.1-0.5,0.2-0.8,0.3c-0.4,0.1-0.7-0.1-0.9-0.2c-0.2-0.2-0.4-0.3-0.5-0.5
			c-0.2-0.4-0.3-0.7-0.5-1.1c-0.1-0.1-0.3-0.3-0.5-0.4c-0.5,0.1-0.7,0.3-0.7,0.4c-0.1,0.2,0,0.4-0.1,0.6c-0.1,0.4-0.2,0.8-0.5,1.2
			c-0.2,0.3-0.7,0.6-1.4,0.7c-0.4,0.1-0.7,0-1-0.1c-0.3-0.1-0.3-0.2-0.2-0.4c0.4-0.5,0.5-1.1,0.4-1.6c-0.1-0.2-0.2-0.4-0.7-0.6
			c-0.3-0.1-0.3-0.2-0.2-0.3c0.1-0.1,0.3-0.2,0.4-0.4c0.1-0.2,0.3-0.4,0.4-0.6c0.1-0.1-0.1-0.2-0.4-0.3c-0.5-0.1-0.6-0.2-0.6-0.4
			c0-0.3,0-0.5,0-0.8c0-0.3-0.7-0.5-1.4-0.5c-0.5,0-0.9,0.2-1,0.5c0,0,0,0,0,0c-0.1,0.6-0.4,1.2-0.8,1.7c-0.2,0.2-0.4,0.5-0.7,0.7
			c-0.2,0.2-0.5,0.2-0.8,0c-0.1,0-0.2-0.1-0.2-0.2c-0.2-0.3-0.4-0.6-0.5-0.9c-0.1-0.4-0.4-0.7-0.9-1c-0.6-0.3-0.9-0.7-0.9-1.1
			c0-0.3,0-0.5-0.1-0.8c-0.1-0.2-0.1-0.4-0.6-0.6c0,0-0.1,0.1-0.1,0.1c-0.3,0.7-0.7,1.4-1,2c-0.2,0.5-0.5,0.9-0.7,1.4
			c-0.2,0.4-0.3,0.8-0.4,1.2c-0.1,0.3-0.2,0.6-0.6,0.9c-0.2,0.1-0.4,0.2-0.8,0.2c-0.2,0-0.5-0.2-0.6-0.3c-0.2-0.4-0.3-0.8-0.5-1.1
			c-0.1-0.3-0.4-0.5-0.6-0.8c-0.1-0.1-0.4-0.1-0.6-0.2c-0.1,0.1-0.3,0.2-0.3,0.3c-0.1,0.5,0,0.9-0.1,1.4c-0.1,0.3-0.2,0.7-0.3,1
			c0,0.1-0.2,0.2-0.3,0.1c-0.2,0-0.4-0.1-0.5-0.1c-0.2-0.2-0.4-0.4-0.6-0.5c-0.2-0.2-0.3-0.4-0.9-0.6c0,0.1-0.1,0.1-0.1,0.1
			c-0.2,0.9-0.5,1.8-0.7,2.6c-0.2,0.7-0.5,1.4-1.1,2.1c-0.2,0.3-0.7,0.5-1.3,0.7c-0.2,0-0.4,0-0.6,0c0-0.1-0.1-0.2-0.1-0.2
			c0.1-0.1,0.2-0.2,0.4-0.3c0.3-0.3,0.7-0.6,1-0.9c0.2-0.3,0-0.5-0.6-0.6c-0.3-0.1-0.5-0.1-0.8-0.2c-1-0.4-1.7-0.8-2.3-1.3
			c-0.2-0.2-0.5-0.3-0.9-0.3c-0.4,0-0.8,0.1-0.9,0.2c-0.2,0.3-0.3,0.5-0.4,0.8c-0.2,0.4-0.3,0.7-0.5,1.1c-0.1,0.2-0.7,0.4-1.1,0.4
			c-0.7,0-1,0.1-0.7,0.4c0.1,0.1,0.3,0.3,0.5,0.4c0.2,0.2,0.2,0.3-0.2,0.4c-0.3,0.1-0.6,0.1-0.9,0c-0.9-0.3-1.3-0.6-1.6-1
			c-0.3-0.4-0.5-0.8-0.8-1.2c-0.1-0.2-0.4-0.4-0.5-0.6c0,0-0.1,0-0.1,0c-0.1,0.1-0.2,0.1-0.3,0.2c-0.1,0.3-0.2,0.6-0.3,0.8
			c-0.1,0.2-0.3,0.5-0.5,0.7c-0.2,0.2-0.4,0.4-0.5,0.6c-0.4,0.6-0.6,1.1-1.1,1.7c-0.3,0.4-1.1,0.7-2.3,0.7c-0.5,0-0.9-0.1-0.8-0.4
			c0-0.1,0.1-0.2,0.3-0.3c0.7-0.4,0.5-0.9-0.2-1.3c-1-0.5-1.6-1-1.9-1.5c-0.1-0.1-0.3-0.2-0.6-0.2c-0.3,0-0.5,0-0.8,0.1
			c-0.4,0.1-0.9,0.2-1.3,0.3c-0.4,0.1-0.5,0-0.6-0.1c-0.4-0.5-0.7-1-1.1-1.6c-0.4-0.6-0.9-1.1-0.8-1.7c0-0.2,0-0.4-0.1-0.5
			c-0.1-0.1-0.2-0.2-0.3-0.4c-0.2-0.2-0.6-0.1-0.7,0c-0.2,0.2-0.4,0.4-0.4,0.6c-0.3,0.6-0.5,1.2-0.7,1.8c-0.1,0.3-0.7,0.5-1.5,0.4
			c-0.8-0.1-1-0.3-0.6-0.6c0.1,0,0.2-0.1,0.3-0.1c0.6-0.3,0.7-0.5,0.2-0.8c-0.1-0.1-0.2-0.2-0.3-0.3c-0.5-0.4-1.1-0.8-1.1-1.2
			c0-0.4-0.3-0.7-0.7-1c-0.4-0.3-0.7-0.7-0.2-1c0.1-0.1,0.1-0.1,0.1-0.2c-0.2-0.2-0.3-0.5-0.6-0.7c-0.4-0.4-0.9-0.8-0.9-1.3
			c0,0,0-0.1,0-0.1c-0.1-0.1-0.2-0.1-0.4-0.1c-0.1,0-0.3,0.1-0.4,0.1c-0.1,0.1-0.2,0.2-0.1,0.3c0.3,0.6-0.2,1.2-0.6,1.8
			c-0.3,0.4-0.6,0.9-0.5,1.4c0,0.1,0,0.2-0.1,0.2c0,0-0.2,0.1-0.3,0.1c-0.1,0-0.3,0-0.3-0.1c-0.2-0.2-0.4-0.3-0.6-0.5
			c-0.1,0.1-0.3,0.1-0.3,0.1c-0.1,0.2-0.2,0.3-0.3,0.5c-0.2,0.6-0.2,1.3-0.7,1.9c0,0,0,0.1-0.1,0.1c-0.1,0.3-0.3,0.5-0.4,0.8
			c-0.3,0.5-0.6,0.9-0.8,1.4c-0.2,0.5-0.3,1-0.6,1.5c-0.2,0.5-0.5,1-1.2,1.4c-0.1,0.1,0,0.2,0,0.3c0.1,0.2,0.3,0.3,0.3,0.5
			c0,0.4-0.2,0.6-1.1,0.7c-0.3,0.1-0.6,0.1-0.9,0.2C150,639.1,150.1,639.3,150.9,639.4z"/>
		<path class="st5" d="M159.9,640c21.3,0.6,42.6,3.2,63.9,4.2c2.2,0.1,4.3,0.2,6.5,0.2c1.1-1.5,1.9-3,2.1-4.1
			c0.5-3.3-1.6-3.1-4.3-3.5c-2.6-0.5-5.6-1.6-8.3-1.3c-4.2,0.4-7.4,2.3-11.9,2c-4.6-0.3-8.7-2-13.3-2c-6.1-0.1-11.9,0.8-18,0.1
			c-5.2-0.6-8.6-1.9-13.9-0.7c-3.9,0.9-6.2,1.9-10.1,1.7c-1.9-0.1-3.8-0.1-5.8-0.2c-2.5-0.1-4.9-0.8-7.3-1c-3.3-0.3-6.2,1.1-9.5,1.3
			c-3.5,0.2-6.9-0.7-10.2-1.4c-1.5-0.4-3-0.7-4.6-0.8c-1.5-0.1-2.8,0.1-4.2-0.5c-1.6-0.6-3-3.3-4.7-3.3c-0.7,0-2.8,2.2-3.2,2.8
			c-1.7,2-2.1,5.4-1.9,8.6C120.7,640.6,140.3,639.5,159.9,640z"/>
		<path class="st5" d="M31.4,648.3v1.4h2.2v-1.6c1.3,0.1,2.5,0.2,3.7,0.2c1.2-0.4,2.5-0.5,3.9-0.5c0.1,0,0.2,0,0.4,0
			c0.1-0.1,0.2-0.3,0.3-0.4c0.2-0.4-0.1-1-0.1-1.3c0.2-0.3,0.6-0.7,0.5-0.9c-0.3-0.8-0.7-1.5-1-2.2c-0.2-0.3-0.6-0.8-0.6-1
			c0.5-1.1-0.2-1.9-0.7-2.7c-0.4-0.7-1.1-1.3-0.5-2.3c0.1-0.1-0.1-0.3-0.2-0.5c-0.3-0.5-0.8-1-1-1.5c-0.2-0.4-1-0.9-0.2-1.5
			c0.1-0.1,0-0.9-0.2-1.2c-0.7-0.7-1-1.4-0.8-2.4c0.3-1.4-0.4-2.3-1.6-2.9c-0.1,0-0.1-0.1-0.1-0.2c0.8-0.9,0.2-1.5-0.2-2.3
			c-0.5-0.8-1.8-1.1-1.4-2.5c0.1-0.4-0.4-1-0.8-1.4c-0.2-0.2-0.7,0-1.1,0c0,0.7-1,1.1-0.5,1.9c0.1,0.1-0.1,0.3-0.2,0.5
			c-0.5,0.6-1.2,1.2-1.6,1.9c-0.4,0.6-0.7,1.4,0.1,2c-0.5,0.4-1,0.7-1.4,1.1c-0.2,0.3-0.4,0.7-0.4,1.1c0.2,1.2,0.3,2.4-0.8,3.3
			c-0.2,0.2-0.3,0.9-0.2,1c0.9,0.8,0.1,1.2-0.3,1.8c-0.4,0.6-1.1,1.4-1,1.8c0.5,1.1-0.1,1.6-0.6,2.3c-0.2,0.2-0.5,0.5-0.5,0.7
			c-0.2,1.5-0.5,3-1.5,4.3c-0.2,0.2-0.3,0.6-0.3,0.9c0.1,0.3,0.3,0.6,0.6,1c-0.6,0.8-0.5,1.5,0.6,2c0.3,0.1,0.7,0,1,0
			C27,648.3,29.1,648.3,31.4,648.3z"/>
		<path class="st5" d="M41.2,647.9c5.6,0.3,11.3,0.2,16.9-0.3c0,0,0-0.1-0.1-0.1c-0.2-0.3-0.6-0.8-0.6-1c0.5-1.1-0.2-1.9-0.7-2.7
			c-0.4-0.7-1.1-1.3-0.5-2.3c0.1-0.1-0.1-0.3-0.2-0.5c-0.3-0.5-0.8-1-1-1.5c-0.2-0.4-1-0.9-0.2-1.5c0.1-0.1,0-0.9-0.2-1.2
			c-0.7-0.7-1-1.4-0.8-2.4c0.3-1.4-0.4-2.3-1.6-2.9c-0.1,0-0.1-0.1-0.1-0.2c0.8-0.9,0.2-1.5-0.2-2.3c-0.5-0.8-1.8-1.1-1.4-2.5
			c0.1-0.4-0.4-1-0.8-1.4c-0.2-0.2-0.7,0-1.1,0c0,0.7-1,1.1-0.5,1.9c0.1,0.1-0.1,0.3-0.2,0.5c-0.5,0.6-1.2,1.2-1.6,1.9
			c-0.4,0.6-0.7,1.4,0.1,2c-0.5,0.4-1,0.7-1.4,1.1c-0.2,0.3-0.4,0.7-0.4,1.1c0.2,1.2,0.3,2.4-0.8,3.3c-0.2,0.2-0.3,0.9-0.2,1
			c0.9,0.8,0.1,1.2-0.3,1.8c-0.4,0.6-1.1,1.4-1,1.8c0.5,1.1-0.1,1.6-0.6,2.3c-0.2,0.2-0.5,0.5-0.5,0.7c-0.1,1.2-0.4,2.4-0.9,3.4
			C40.7,647.9,40.9,647.9,41.2,647.9z"/>
		<path class="st5" d="M69.6,646.4c-0.1-0.6-0.5-1.2-0.8-1.7c-0.4-0.7-1.1-1.3-0.5-2.3c0.1-0.1-0.1-0.3-0.2-0.5
			c-0.3-0.5-0.8-1-1-1.5c-0.2-0.4-1-0.9-0.2-1.5c0.1-0.1,0-0.9-0.2-1.2c-0.7-0.7-1-1.4-0.8-2.4c0.3-1.4-0.4-2.3-1.6-2.9
			c-0.1,0-0.1-0.1-0.1-0.2c0.8-0.9,0.2-1.5-0.2-2.3c-0.5-0.8-1.8-1.1-1.4-2.5c0.1-0.4-0.4-1-0.8-1.4c-0.2-0.2-0.7,0-1.1,0
			c0,0.7-1,1.1-0.5,1.9c0.1,0.1-0.1,0.3-0.2,0.5c-0.5,0.6-1.2,1.2-1.6,1.9c-0.4,0.6-0.7,1.4,0.1,2c-0.5,0.4-1,0.7-1.4,1.1
			c-0.2,0.3-0.4,0.7-0.4,1.1c0.2,1.2,0.3,2.4-0.8,3.3c-0.2,0.2-0.3,0.9-0.2,1c0.9,0.8,0.1,1.2-0.3,1.8c-0.4,0.6-1.1,1.4-1,1.8
			c0.5,1.1-0.1,1.6-0.6,2.3c-0.2,0.2-0.5,0.5-0.5,0.7c-0.1,0.9-0.2,1.8-0.6,2.6C58.3,647.7,63.9,647.1,69.6,646.4z"/>
		<path class="st5" d="M66.4,646.3c-0.1,0.2-0.2,0.3-0.3,0.5c6.2-0.8,12.5-1.7,18.7-2.6c-0.2-0.3-0.3-0.7-0.5-1
			c-0.2-0.3-0.6-0.8-0.6-1c0.5-1.1-0.2-1.9-0.7-2.7c-0.4-0.7-1.1-1.3-0.5-2.3c0.1-0.1-0.1-0.3-0.2-0.5c-0.3-0.5-0.8-1-1-1.5
			c-0.2-0.4-1-0.9-0.2-1.5c0.1-0.1,0-0.9-0.2-1.2c-0.7-0.7-1-1.4-0.8-2.4c0.3-1.4-0.4-2.3-1.6-2.9c-0.1,0-0.1-0.1-0.1-0.2
			c0.8-0.9,0.2-1.5-0.2-2.3c-0.5-0.8-1.8-1.1-1.4-2.5c0.1-0.4-0.4-1-0.8-1.4c-0.2-0.2-0.7,0-1.1,0c0,0.7-1,1.1-0.5,1.9
			c0.1,0.1-0.1,0.3-0.2,0.5c-0.5,0.6-1.2,1.2-1.6,1.9c-0.4,0.6-0.7,1.4,0.1,2c-0.5,0.4-1,0.7-1.4,1.1c-0.2,0.3-0.4,0.7-0.4,1.1
			c0.2,1.2,0.3,2.4-0.8,3.3c-0.2,0.2-0.3,0.9-0.2,1c0.9,0.8,0.1,1.2-0.3,1.8c-0.4,0.6-1.1,1.4-1,1.8c0.5,1.1-0.1,1.6-0.6,2.3
			c-0.2,0.2-0.5,0.5-0.5,0.7c-0.2,1.5-0.5,3-1.5,4.3c-0.2,0.2-0.3,0.6-0.3,0.9C65.9,645.7,66.2,645.9,66.4,646.3z"/>
		<path class="st5" d="M81.5,642.5c-0.6,0.8-0.5,1.5,0.6,2c0,0,0.1,0,0.1,0c5.3-0.8,10.7-1.5,16-2c0.6-0.1,1.2-0.1,1.8-0.2
			c0.2-0.3,0.5-0.7,0.4-0.8c-0.3-0.8-0.7-1.5-1-2.2c-0.2-0.3-0.6-0.8-0.6-1c0.5-1.1-0.2-1.9-0.7-2.7c-0.4-0.7-1.1-1.3-0.5-2.3
			c0.1-0.1-0.1-0.3-0.2-0.5c-0.3-0.5-0.8-1-1-1.5c-0.2-0.4-1-0.9-0.2-1.5c0.1-0.1,0-0.9-0.2-1.2c-0.7-0.7-1-1.4-0.8-2.4
			c0.3-1.4-0.4-2.3-1.6-2.9c-0.1,0-0.1-0.1-0.1-0.2c0.8-0.9,0.2-1.5-0.2-2.3c-0.5-0.8-1.8-1.1-1.4-2.5c0.1-0.4-0.4-1-0.8-1.4
			c-0.2-0.2-0.7,0-1.1,0c0,0.7-1,1.1-0.5,1.9c0.1,0.1-0.1,0.3-0.2,0.5c-0.5,0.6-1.2,1.2-1.6,1.9c-0.4,0.6-0.7,1.4,0.1,2
			c-0.5,0.4-1,0.7-1.4,1.1c-0.2,0.3-0.4,0.7-0.4,1.1c0.2,1.2,0.3,2.4-0.8,3.3c-0.2,0.2-0.3,0.9-0.2,1c0.9,0.8,0.1,1.2-0.3,1.8
			c-0.4,0.6-1.1,1.4-1,1.8c0.5,1.1-0.1,1.6-0.6,2.3c-0.2,0.2-0.5,0.5-0.5,0.7c-0.2,1.5-0.5,3-1.5,4.3c-0.2,0.2-0.3,0.6-0.3,0.9
			C80.9,641.9,81.2,642.1,81.5,642.5z"/>
		<path class="st5" d="M98.1,642.6c3.7-0.3,7.5-0.7,11.3-0.9c-0.2-0.3-0.3-0.6-0.5-0.9c-0.4-0.7-1.1-1.3-0.5-2.3
			c0.1-0.1-0.1-0.3-0.2-0.5c-0.3-0.5-0.8-1-1-1.5c-0.2-0.4-1-0.9-0.2-1.5c0.1-0.1,0-0.9-0.2-1.2c-0.7-0.7-1-1.4-0.8-2.4
			c0.3-1.4-0.4-2.3-1.6-2.9c-0.1,0-0.1-0.1-0.1-0.2c0.8-0.9,0.2-1.5-0.2-2.3c-0.5-0.8-1.8-1.1-1.4-2.5c0.1-0.4-0.4-1-0.8-1.4
			c-0.2-0.2-0.7,0-1.1,0c0,0.7-1,1.1-0.5,1.9c0.1,0.1-0.1,0.3-0.2,0.5c-0.5,0.6-1.2,1.2-1.6,1.9c-0.4,0.6-0.7,1.4,0.1,2
			c-0.5,0.4-1,0.7-1.4,1.1c-0.2,0.3-0.4,0.7-0.4,1.1c0.2,1.2,0.3,2.4-0.8,3.3c-0.2,0.2-0.3,0.9-0.2,1c0.9,0.8,0.1,1.2-0.3,1.8
			c-0.4,0.6-1.1,1.4-1,1.8c0.5,1.1-0.1,1.6-0.6,2.3c-0.2,0.2-0.5,0.5-0.5,0.7c-0.1,0.6-0.1,1.1-0.3,1.6
			C94.8,642.9,96.5,642.7,98.1,642.6z"/>
		<path class="st5" d="M106.9,641.8c3.6-0.3,7.3-0.6,10.9-0.8c0.1-0.2,0-0.9-0.3-1.1c-0.7-0.7-1-1.4-0.8-2.4
			c0.3-1.4-0.4-2.3-1.6-2.9c-0.1,0-0.1-0.1-0.1-0.2c0.8-0.9,0.2-1.5-0.2-2.3c-0.5-0.8-1.8-1.1-1.4-2.5c0.1-0.4-0.4-1-0.8-1.4
			c-0.2-0.2-0.7,0-1.1,0c0,0.7-1,1.1-0.5,1.9c0.1,0.1-0.1,0.3-0.2,0.5c-0.5,0.6-1.2,1.2-1.6,1.9c-0.4,0.6-0.7,1.4,0.1,2
			c-0.5,0.4-1,0.7-1.4,1.1c-0.2,0.3-0.4,0.7-0.4,1.1c0.2,1.2,0.3,2.4-0.8,3.3c-0.2,0.2-0.3,0.9-0.2,1
			C106.9,641.3,107,641.6,106.9,641.8z"/>
		<path class="st5" d="M117.4,641c3-0.2,6.1-0.4,9.1-0.5c0-0.1,0-0.2,0-0.2c0.3-1.4-0.4-2.3-1.6-2.9c-0.1,0-0.1-0.1-0.1-0.2
			c0.8-0.9,0.2-1.5-0.2-2.3c-0.5-0.8-1.8-1.1-1.4-2.5c0.1-0.4-0.4-1-0.8-1.4c-0.2-0.2-0.7,0-1.1,0c0,0.7-1,1.1-0.5,1.9
			c0.1,0.1-0.1,0.3-0.2,0.5c-0.5,0.6-1.2,1.2-1.6,1.9c-0.4,0.6-0.7,1.4,0.1,2c-0.5,0.4-1,0.7-1.4,1.1c-0.2,0.3-0.4,0.7-0.4,1.1
			C117.4,640,117.5,640.5,117.4,641z"/>
		<path class="st5" d="M137.2,640.1c0-0.1-0.1-0.1-0.1-0.2c-0.7-0.7-1-1.4-0.8-2.4c0.3-1.4-0.4-2.3-1.6-2.9c-0.1,0-0.1-0.1-0.1-0.2
			c0.8-0.9,0.2-1.5-0.2-2.3c-0.5-0.8-1.8-1.1-1.4-2.5c0.1-0.4-0.4-1-0.8-1.4c-0.2-0.2-0.7,0-1.1,0c0,0.7-1,1.1-0.5,1.9
			c0.1,0.1-0.1,0.3-0.2,0.5c-0.5,0.6-1.2,1.2-1.6,1.9c-0.4,0.6-0.7,1.4,0.1,2c-0.5,0.4-1,0.7-1.4,1.1c-0.2,0.3-0.4,0.7-0.4,1.1
			c0.2,1.2,0.3,2.4-0.8,3.3c-0.1,0.1-0.2,0.3-0.2,0.6C129.7,640.3,133.5,640.2,137.2,640.1z"/>
		<path class="st5" d="M144.8,639.9c3.6,0,7.3,0,10.9,0c0,0,0-0.1-0.1-0.1c-0.7-0.7-1-1.4-0.8-2.4c0.3-1.4-0.4-2.3-1.6-2.9
			c-0.1,0-0.1-0.1-0.1-0.2c0.8-0.9,0.2-1.5-0.2-2.3c-0.5-0.8-1.8-1.1-1.4-2.5c0.1-0.4-0.4-1-0.8-1.4c-0.2-0.2-0.7,0-1.1,0
			c0,0.7-1,1.1-0.5,1.9c0.1,0.1-0.1,0.3-0.2,0.5c-0.5,0.6-1.2,1.2-1.6,1.9c-0.4,0.6-0.7,1.4,0.1,2c-0.5,0.4-1,0.7-1.4,1.1
			c-0.2,0.3-0.4,0.7-0.4,1.1C145.8,637.9,145.9,639,144.8,639.9z"/>
		<path class="st5" d="M150.8,639.9c0-0.1,0-0.2,0-0.4c0.3-1.4-0.4-2.3-1.6-2.9c-0.1,0-0.1-0.1-0.1-0.2c0.8-0.9,0.2-1.5-0.2-2.3
			c-0.5-0.8-1.8-1.1-1.4-2.5c0.1-0.4-0.4-1-0.8-1.4c-0.2-0.2-0.7,0-1.1,0c0,0.7-1,1.1-0.5,1.9c0.1,0.1-0.1,0.3-0.2,0.5
			c-0.5,0.6-1.2,1.2-1.6,1.9c-0.4,0.6-0.7,1.4,0.1,2c-0.5,0.4-1,0.7-1.4,1.1c-0.2,0.3-0.4,0.7-0.4,1.1c0.1,0.4,0.1,0.9,0.1,1.3
			C144.7,639.9,147.7,639.9,150.8,639.9z"/>
		<path class="st5" d="M145.9,639.9C145.9,639.9,145.9,639.9,145.9,639.9c-0.7-0.7-1-1.4-0.8-2.4c0.3-1.4-0.4-2.3-1.6-2.9
			c-0.1,0-0.1-0.1-0.1-0.2c0.8-0.9,0.2-1.5-0.2-2.3c-0.5-0.8-1.8-1.1-1.4-2.5c0.1-0.4-0.4-1-0.8-1.4c-0.2-0.2-0.7,0-1.1,0
			c0,0.7-1,1.1-0.5,1.9c0.1,0.1-0.1,0.3-0.2,0.5c-0.5,0.6-1.2,1.2-1.6,1.9c-0.4,0.6-0.7,1.4,0.1,2c-0.5,0.4-1,0.7-1.4,1.1
			c-0.2,0.3-0.4,0.7-0.4,1.1c0.2,1.2,0.3,2.4-0.8,3.3c0,0-0.1,0.1-0.1,0.2C138.6,640,142.2,640,145.9,639.9z"/>
		<path class="st5" d="M131.9,640.3c3-0.1,6.1-0.2,9.1-0.3c0-0.1,0-0.3,0-0.4c0.3-1.4-0.4-2.3-1.6-2.9c-0.1,0-0.1-0.1-0.1-0.2
			c0.8-0.9,0.2-1.5-0.2-2.3c-0.5-0.8-1.8-1.1-1.4-2.5c0.1-0.4-0.4-1-0.8-1.4c-0.2-0.2-0.7,0-1.1,0c0,0.7-1,1.1-0.5,1.9
			c0.1,0.1-0.1,0.3-0.2,0.5c-0.5,0.6-1.2,1.2-1.6,1.9c-0.4,0.6-0.7,1.4,0.1,2c-0.5,0.4-1,0.7-1.4,1.1c-0.2,0.3-0.4,0.7-0.4,1.1
			C131.9,639.2,131.9,639.8,131.9,640.3z"/>
		<path class="st5" d="M123.8,640.2c-0.2,0.2-0.5,0.3-0.7,0.5c2.2-0.1,4.4-0.2,6.6-0.3c0,0-0.1-0.1-0.1-0.2c0.8-0.9,0.2-1.5-0.2-2.3
			c-0.5-0.8-1.8-1.1-1.4-2.5c0.1-0.4-0.4-1-0.8-1.4c-0.2-0.2-0.7,0-1.1,0c0,0.7-1,1.1-0.5,1.9c0.1,0.1-0.1,0.3-0.2,0.5
			c-0.5,0.6-1.2,1.2-1.6,1.9C123.3,638.8,123,639.6,123.8,640.2z"/>
		<path class="st5" d="M121.6,640.8c-0.2-0.8-0.8-1.4-1.6-1.8c-0.1,0-0.1-0.1-0.1-0.2c0.8-0.9,0.2-1.5-0.2-2.3
			c-0.5-0.8-1.8-1.1-1.4-2.5c0.1-0.4-0.4-1-0.8-1.4c-0.2-0.2-0.7,0-1.1,0c0,0.7-1,1.1-0.5,1.9c0.1,0.1-0.1,0.3-0.2,0.5
			c-0.5,0.6-1.2,1.2-1.6,1.9c-0.4,0.6-0.7,1.4,0.1,2c-0.5,0.4-1,0.7-1.4,1.1c-0.2,0.3-0.4,0.7-0.4,1.1c0,0.1,0,0.3,0.1,0.4
			C115.4,641.2,118.5,641,121.6,640.8z"/>
		<path class="st5" d="M103,642.1c3.6-0.3,7.2-0.6,10.9-0.9c0.1-0.1,0.1-0.1,0.2-0.2c0.1-0.1,0-0.9-0.2-1.2c-0.7-0.7-1-1.4-0.8-2.4
			c0.3-1.4-0.4-2.3-1.6-2.9c-0.1,0-0.1-0.1-0.1-0.2c0.8-0.9,0.2-1.5-0.2-2.3c-0.5-0.8-1.8-1.1-1.4-2.5c0.1-0.4-0.4-1-0.8-1.4
			c-0.2-0.2-0.7,0-1.1,0c0,0.7-1,1.1-0.5,1.9c0.1,0.1-0.1,0.3-0.2,0.5c-0.5,0.6-1.2,1.2-1.6,1.9c-0.4,0.6-0.7,1.4,0.1,2
			c-0.5,0.4-1,0.7-1.4,1.1c-0.2,0.3-0.4,0.7-0.4,1.1c0.2,1.2,0.3,2.4-0.8,3.3c-0.2,0.2-0.3,0.9-0.2,1
			C103.3,641.5,103.3,641.8,103,642.1z"/>
		<path class="st5" d="M129.8,640.3c0.2-1.3-0.5-2.1-1.6-2.7c-0.1,0-0.1-0.1-0.1-0.2c0.8-0.9,0.2-1.5-0.2-2.3
			c-0.5-0.8-1.8-1.1-1.4-2.5c0.1-0.4-0.4-1-0.8-1.4c-0.2-0.2-0.7,0-1.1,0c0,0.7-1,1.1-0.5,1.9c0.1,0.1-0.1,0.3-0.2,0.5
			c-0.5,0.6-1.2,1.2-1.6,1.9c-0.4,0.6-0.7,1.4,0.1,2c-0.5,0.4-1,0.7-1.4,1.1c-0.2,0.3-0.4,0.7-0.4,1.1c0.1,0.4,0.1,0.8,0.1,1.1
			C123.6,640.6,126.7,640.5,129.8,640.3z"/>
		<path class="st5" d="M149,639.9c3.6,0,7.3,0,10.9,0.1c0-0.1-0.1-0.1-0.1-0.1c-0.7-0.7-1-1.4-0.8-2.4c0.3-1.4-0.4-2.3-1.6-2.9
			c-0.1,0-0.1-0.1-0.1-0.2c0.8-0.9,0.2-1.5-0.2-2.3c-0.5-0.8-1.8-1.1-1.4-2.5c0.1-0.4-0.4-1-0.8-1.4c-0.2-0.2-0.7,0-1.1,0
			c0,0.7-1,1.1-0.5,1.9c0.1,0.1-0.1,0.3-0.2,0.5c-0.5,0.6-1.2,1.2-1.6,1.9c-0.4,0.6-0.7,1.4,0.1,2c-0.5,0.4-1,0.7-1.4,1.1
			c-0.2,0.3-0.4,0.7-0.4,1.1C149.9,637.9,150,639,149,639.9z"/>
		<path class="st5" d="M171.4,640.6c0-0.3-0.1-0.5-0.3-0.7c-0.7-0.7-1-1.4-0.8-2.4c0.3-1.4-0.4-2.3-1.6-2.9c-0.1,0-0.1-0.1-0.1-0.2
			c0.8-0.9,0.2-1.5-0.2-2.3c-0.5-0.8-1.8-1.1-1.4-2.5c0.1-0.4-0.4-1-0.8-1.4c-0.2-0.2-0.7,0-1.1,0c0,0.7-1,1.1-0.5,1.9
			c0.1,0.1-0.1,0.3-0.2,0.5c-0.5,0.6-1.2,1.2-1.6,1.9c-0.4,0.6-0.7,1.4,0.1,2c-0.5,0.4-1,0.7-1.4,1.1c-0.2,0.3-0.4,0.7-0.4,1.1
			c0.2,1.2,0.3,2.4-0.8,3.3c0,0,0,0.1-0.1,0.1C163.9,640.2,167.6,640.4,171.4,640.6z"/>
		<path class="st5" d="M172.4,640.6c3.2,0.2,6.3,0.4,9.5,0.6c-0.3-0.5-0.4-1.1-0.2-1.7c0.3-1.4-0.4-2.3-1.6-2.9
			c-0.1,0-0.1-0.1-0.1-0.2c0.8-0.9,0.2-1.5-0.2-2.3c-0.5-0.8-1.8-1.1-1.4-2.5c0.1-0.4-0.4-1-0.8-1.4c-0.2-0.2-0.7,0-1.1,0
			c0,0.7-1,1.1-0.5,1.9c0.1,0.1-0.1,0.3-0.2,0.5c-0.5,0.6-1.2,1.2-1.6,1.9c-0.4,0.6-0.7,1.4,0.1,2c-0.5,0.4-1,0.7-1.4,1.1
			c-0.2,0.3-0.4,0.7-0.4,1.1C172.5,639.4,172.6,640,172.4,640.6z"/>
		<path class="st5" d="M183,641.3c3.6,0.3,7.2,0.6,10.9,0.8c-0.3-0.3-0.5-0.7,0.1-1.1c0.1-0.1,0-0.9-0.2-1.2c-0.7-0.7-1-1.4-0.8-2.4
			c0.3-1.4-0.4-2.3-1.6-2.9c-0.1,0-0.1-0.1-0.1-0.2c0.8-0.9,0.2-1.5-0.2-2.3c-0.5-0.8-1.8-1.1-1.4-2.5c0.1-0.4-0.4-1-0.8-1.4
			c-0.2-0.2-0.7,0-1.1,0c0,0.7-1,1.1-0.5,1.9c0.1,0.1-0.1,0.3-0.2,0.5c-0.5,0.6-1.2,1.2-1.6,1.9c-0.4,0.6-0.7,1.4,0.1,2
			c-0.5,0.4-1,0.7-1.4,1.1c-0.2,0.3-0.4,0.7-0.4,1.1c0.2,1.2,0.3,2.4-0.8,3.3c-0.2,0.2-0.3,0.9-0.2,1
			C182.9,641.1,182.9,641.2,183,641.3z"/>
		<path class="st5" d="M194.9,642.3c3.4,0.3,6.9,0.6,10.3,0.8c0-0.1-0.1-0.1-0.1-0.2c-0.7-0.7-1-1.4-0.8-2.4
			c0.3-1.4-0.4-2.3-1.6-2.9c-0.1,0-0.1-0.1-0.1-0.2c0.8-0.9,0.2-1.5-0.2-2.3c-0.5-0.8-1.8-1.1-1.4-2.5c0.1-0.4-0.4-1-0.8-1.4
			c-0.2-0.2-0.7,0-1.1,0c0,0.7-1,1.1-0.5,1.9c0.1,0.1-0.1,0.3-0.2,0.5c-0.5,0.6-1.2,1.2-1.6,1.9c-0.4,0.6-0.7,1.4,0.1,2
			c-0.5,0.4-1,0.7-1.4,1.1c-0.2,0.3-0.4,0.7-0.4,1.1C195.2,640.6,195.3,641.5,194.9,642.3z"/>
		<path class="st5" d="M204.8,643.1c4.3,0.3,8.6,0.6,12.9,0.9c-0.3-0.4-0.7-0.9-0.9-1.3c-0.2-0.4-1-0.9-0.2-1.5
			c0.1-0.1,0-0.9-0.2-1.2c-0.7-0.7-1-1.4-0.8-2.4c0.3-1.4-0.4-2.3-1.6-2.9c-0.1,0-0.1-0.1-0.1-0.2c0.8-0.9,0.2-1.5-0.2-2.3
			c-0.5-0.8-1.8-1.1-1.4-2.5c0.1-0.4-0.4-1-0.8-1.4c-0.2-0.2-0.7,0-1.1,0c0,0.7-1,1.1-0.5,1.9c0.1,0.1-0.1,0.3-0.2,0.5
			c-0.5,0.6-1.2,1.2-1.6,1.9c-0.4,0.6-0.7,1.4,0.1,2c-0.5,0.4-1,0.7-1.4,1.1c-0.2,0.3-0.4,0.7-0.4,1.1c0.2,1.2,0.3,2.4-0.8,3.3
			c-0.2,0.2-0.3,0.9-0.2,1c0.9,0.8,0.1,1.2-0.3,1.8C205,642.8,204.9,642.9,204.8,643.1z"/>
		<path class="st5" d="M217,643.9c2.2,0.1,4.5,0.3,6.7,0.4c1.4,0.1,2.9,0.1,4.3,0.1c-0.3-0.4-0.8-0.8-0.1-1.3c0.1-0.1,0-0.9-0.2-1.2
			c-0.7-0.7-1-1.4-0.8-2.4c0.3-1.4-0.4-2.3-1.6-2.9c-0.1,0-0.1-0.1-0.1-0.2c0.8-0.9,0.2-1.5-0.2-2.3c-0.5-0.8-1.8-1.1-1.4-2.5
			c0.1-0.4-0.4-1-0.8-1.4c-0.2-0.2-0.7,0-1.1,0c0,0.7-1,1.1-0.5,1.9c0.1,0.1-0.1,0.3-0.2,0.5c-0.5,0.6-1.2,1.2-1.6,1.9
			c-0.4,0.6-0.7,1.4,0.1,2c-0.5,0.4-1,0.7-1.4,1.1c-0.2,0.3-0.4,0.7-0.4,1.1c0.2,1.2,0.3,2.4-0.8,3.3c-0.2,0.2-0.3,0.9-0.2,1
			C217.1,643.3,217.2,643.6,217,643.9z"/>
		<path class="st5" d="M240.7,644.5c0-0.1-0.1-0.3-0.2-0.4c-0.3-0.5-0.8-1-1-1.5c-0.2-0.4-1-0.9-0.2-1.5c0.1-0.1,0-0.9-0.2-1.2
			c-0.7-0.7-1-1.4-0.8-2.4c0.3-1.4-0.4-2.3-1.6-2.9c-0.1,0-0.1-0.1-0.1-0.2c0.8-0.9,0.2-1.5-0.2-2.3c-0.5-0.8-1.8-1.1-1.4-2.5
			c0.1-0.4-0.4-1-0.8-1.4c-0.2-0.2-0.7,0-1.1,0c0,0.7-1,1.1-0.5,1.9c0.1,0.1-0.1,0.3-0.2,0.5c-0.5,0.6-1.2,1.2-1.6,1.9
			c-0.4,0.6-0.7,1.4,0.1,2c-0.5,0.4-1,0.7-1.4,1.1c-0.2,0.3-0.4,0.7-0.4,1.1c0.2,1.2,0.3,2.4-0.8,3.3c-0.2,0.2-0.3,0.9-0.2,1
			c0.9,0.8,0.1,1.2-0.3,1.8c-0.4,0.5-1,1.2-1,1.6C231.4,644.5,236.1,644.5,240.7,644.5z"/>
		<path class="st5" d="M239.3,644.5c3.8,0,7.7,0,11.5,0c-0.3-0.4-1-0.8-0.1-1.5c0.1-0.1,0-0.9-0.2-1.2c-0.7-0.7-1-1.4-0.8-2.4
			c0.3-1.4-0.4-2.3-1.6-2.9c-0.1,0-0.1-0.1-0.1-0.2c0.8-0.9,0.2-1.5-0.2-2.3c-0.5-0.8-1.8-1.1-1.4-2.5c0.1-0.4-0.4-1-0.8-1.4
			c-0.2-0.2-0.7,0-1.1,0c0,0.7-1,1.1-0.5,1.9c0.1,0.1-0.1,0.3-0.2,0.5c-0.5,0.6-1.2,1.2-1.6,1.9c-0.4,0.6-0.7,1.4,0.1,2
			c-0.5,0.4-1,0.7-1.4,1.1c-0.2,0.3-0.4,0.7-0.4,1.1c0.2,1.2,0.3,2.4-0.8,3.3c-0.2,0.2-0.3,0.9-0.2,1
			C240.1,643.6,239.7,644,239.3,644.5z"/>
		<path class="st5" d="M252.1,644.6c3.2,0.1,6.4,0.2,9.6,0.5c-0.3-0.5-0.4-1.1-0.3-1.8c0.3-1.4-0.4-2.3-1.6-2.9
			c-0.1,0-0.1-0.1-0.1-0.2c0.8-0.9,0.2-1.5-0.2-2.3c-0.5-0.8-1.8-1.1-1.4-2.5c0.1-0.4-0.4-1-0.8-1.4c-0.2-0.2-0.7,0-1.1,0
			c0,0.7-1,1.1-0.5,1.9c0.1,0.1-0.1,0.3-0.2,0.5c-0.5,0.6-1.2,1.2-1.6,1.9c-0.4,0.6-0.7,1.4,0.1,2c-0.5,0.4-1,0.7-1.4,1.1
			c-0.2,0.3-0.4,0.7-0.4,1.1C252.2,643.1,252.3,643.9,252.1,644.6z"/>
		<path class="st5" d="M8.9,649.8h19.5c0,0,0,0,0-0.1c-0.3-0.8-0.7-1.5-1-2.2c-0.2-0.3-0.6-0.8-0.6-1c0.5-1.1-0.2-1.9-0.7-2.7
			c-0.4-0.7-1.1-1.3-0.5-2.3c0.1-0.1-0.1-0.3-0.2-0.5c-0.3-0.5-0.8-1-1-1.5c-0.2-0.4-1-0.9-0.2-1.5c0.1-0.1,0-0.9-0.2-1.2
			c-0.7-0.7-1-1.4-0.8-2.4c0.3-1.4-0.4-2.3-1.6-2.9c-0.1,0-0.1-0.1-0.1-0.2c0.8-0.9,0.2-1.5-0.2-2.3c-0.5-0.8-1.8-1.1-1.4-2.5
			c0.1-0.4-0.4-1-0.8-1.4c-0.2-0.2-0.7,0-1.1,0c0,0.7-1,1.1-0.5,1.9c0.1,0.1-0.1,0.3-0.2,0.5c-0.5,0.6-1.2,1.2-1.6,1.9
			c-0.4,0.6-0.7,1.4,0.1,2c-0.5,0.4-1,0.7-1.4,1.1c-0.2,0.3-0.4,0.7-0.4,1.1c0.2,1.2,0.3,2.4-0.8,3.3c-0.2,0.2-0.3,0.9-0.2,1
			c0.9,0.8,0.1,1.2-0.3,1.8c-0.4,0.6-1.1,1.4-1,1.8c0.5,1.1-0.1,1.6-0.6,2.3c-0.2,0.2-0.5,0.5-0.5,0.7c-0.2,1.5-0.5,3-1.5,4.3
			C9,649,8.8,649.4,8.9,649.8C8.9,649.7,8.9,649.7,8.9,649.8z"/>
		<path class="st4" d="M177.6,641c1.4,0.1,2.7,0.2,4.1,0.3c-0.1-0.2-0.2-0.4-0.3-0.6c-0.4-0.6-0.7-1.3-0.2-2
			c0.1-0.1,0.1-0.3,0.1-0.4c-0.2-0.5-0.3-1-0.6-1.4c-0.4-0.8-0.9-1.6-0.9-2.5c0-0.1,0-0.2,0-0.2c-0.1-0.1-0.2-0.3-0.4-0.3
			c-0.1,0-0.3,0.1-0.4,0.2c-0.1,0.1-0.2,0.3-0.1,0.5c0.3,1.2-0.2,2.3-0.6,3.4c-0.3,0.8-0.6,1.7-0.5,2.6
			C177.7,640.8,177.6,640.9,177.6,641z"/>
		<path class="st4" d="M223.8,644.3c3,0.1,6.1,0.2,9.1,0.2c0-0.2,0-0.3,0-0.5c-0.1-0.4-0.2-0.8-0.7-1.1c-0.3-0.2-0.3-0.4-0.2-0.6
			c0.1-0.2,0.3-0.5,0.4-0.7c0.1-0.4,0.3-0.8,0.4-1.2c0.1-0.3-0.1-0.5-0.4-0.5c-0.5-0.1-0.6-0.4-0.6-0.7c0-0.5,0-1,0-1.5
			c0-0.5-0.7-1-1.4-1c-0.5,0-0.9,0.3-1,0.9c0,0,0,0,0,0.1c-0.1,1.1-0.4,2.2-0.8,3.2c-0.2,0.5-0.4,0.9-0.7,1.4
			c-0.2,0.3-0.5,0.3-0.8,0.1c-0.1-0.1-0.2-0.2-0.2-0.3c-0.2-0.5-0.4-1.1-0.5-1.7c-0.1-0.7-0.4-1.3-0.9-1.8c-0.6-0.6-0.9-1.3-0.9-2.1
			c0-0.5,0-1-0.1-1.5c-0.1-0.4-0.1-0.8-0.6-1.1c0,0.1-0.1,0.1-0.1,0.2c-0.3,1.3-0.7,2.6-1,3.9c-0.2,0.9-0.5,1.8-0.7,2.7
			c-0.2,0.8-0.3,1.5-0.4,2.3c-0.1,0.5-0.2,1-0.4,1.4C221.9,644.2,222.8,644.2,223.8,644.3z"/>
		<path class="st4" d="M293.1,644.1c-0.6-0.1-1.1-0.2-1.7-0.3c-1.2-0.2-1.9-1.2-1.5-1.9c0.3-0.5,0.8-0.9,1.4-1.2
			c0.9-0.4,1.5-1,1.9-1.7c0.2-0.4,0.2-0.8,0-1.2c-0.1,0-0.2,0-0.3,0c-1.1,0.3-1.6,0-1.5-0.9c0-0.2,0.1-0.5,0.1-0.7
			c0-0.1-0.1-0.3-0.2-0.4c-0.1,0.1-0.3,0.1-0.4,0.2c-0.7,0.4-1.5,0.6-2.3,0.4c-0.9-0.2-1.2-1.1-0.6-1.6c0.4-0.4,0.7-0.7,1-1.1
			c0.4-0.6,0.6-1.2,0.6-1.9c-0.1-0.6-0.4-0.7-1-0.4c-0.3,0.2-0.7,0.4-1,0.5c-0.5,0.2-0.9,0-0.9-0.4c0-0.2,0.2-0.5,0.4-0.7
			c0.6-0.4,0.7-0.9,0.5-1.4c-0.3-0.7-0.5-1.4,0.1-2.2c0.1-0.1,0-0.4-0.2-0.5c-0.1-0.1-0.4-0.1-0.6-0.1c-0.2,0-0.5,0.1-0.7,0.1
			c-0.4,0.1-0.7,0-0.8-0.3c-0.1-0.3-0.1-0.7-0.2-1c-0.3-0.8-0.8-1.5-1.8-1.9c-0.3-0.1-0.6-0.1-0.8,0.2c-0.7,1.2-0.9,1.9-2,2.7
			c-1.2,0.9-1.3,0-1.5,1.7c-0.2,1.7,0.5,3-1.4,4.2c-1.6,1-3.7,0.4-5.3,1c-1.8,0.7-1.8,2.6-2.6,4.2c-0.5-0.3-1.1-0.7-1.7-0.8
			c-0.5,1.1-1.2,0.7-2,1.1c0.1-0.1-2.2,1-1.4,1.2c-0.9-0.2-1.5,0.4-1.5,1.3c-1.6-0.7-0.7,2.8-3.1,0.6c-0.5-0.4-1.1-0.6-1.6,0
			c0,0.1-0.1,0.1-0.2,0.2c-0.4,0.4-1,0.3-1.2-0.1c-0.2-0.5-0.4-1-0.6-1.5c-0.3-0.8-0.4-1.6-0.8-2.4c-0.5-0.8-0.6-1.7-0.8-2.5
			c-0.1-0.6-0.3-1.3-0.5-1.9c-0.1-0.3-0.4-0.5-0.6-0.8c-0.1,0-0.1,0-0.2,0c-0.1,0.4-0.1,0.7-0.2,1.1c-0.1,0.7-0.2,1.3-0.4,2
			c-0.2,0.9-0.4,1.7-0.6,2.6c-0.2,0.8-0.5,1.7-0.6,2.5c-0.2,0.9-0.3,1.8-0.4,2.7c-0.1,0.5-0.2,1-0.8,1.3c-0.4,0.2-0.8,0.2-1-0.1
			c-0.2-0.3-0.3-0.5-0.4-0.8c-0.3-1.1-0.5-2.2-0.8-3.2c-0.1-0.3-0.1-0.7-0.6-1c0,0.2-0.1,0.3-0.1,0.4c-0.1,1-0.2,2.1-0.3,3.1
			c-0.1,0.6-0.3,1.2-0.4,1.8c-0.1,0.2-0.2,0.3-0.3,0.5c10.8,0,21.7,0.5,32.2,3.4c4.1-0.1,8.1,0,12.1,0.3c0.5-0.4,1.1-0.8,1.5-1.3
			c0.7-0.6,1.1-1.3,1.1-2.2C293.6,644.4,293.5,644.2,293.1,644.1z"/>
		<path class="st4" d="M219.4,644c-0.2-0.6-0.3-1.3-0.5-1.9c-0.1-0.5-0.4-1-0.6-1.5c-0.1-0.2-0.4-0.3-0.6-0.4
			c-0.1,0.2-0.3,0.4-0.3,0.6c-0.1,0.9,0,1.7-0.1,2.6c0,0.2-0.1,0.4-0.1,0.6C218,644,218.7,644,219.4,644z"/>
		<path class="st6" d="M284.3,644.2c0,0-0.1,0-0.1,0v3.6c10.9,0.3,21.7,2.2,32.4,3.5c12.9,1.6,25.8,3,38.6,4.8
			c12.5,1.7,25,3.8,37.2,6.8c3.3-3.9,5.8-9.3,4.8-13.3c-1.3-5.1-2.6-3-5.5-5.2c-3.4-2.6-2.6-4-7-3.9c-1.7,0-3.9,1.9-5,1.8
			c-1.8-0.1-3.4-0.9-5-2c-2.5-1.9-4.6-4.6-6.1-6.7c0.5-0.4,1.3-1.4,1.1-2.1c-0.2-0.7-0.3-1.5,0.4-2.1c0.1-0.1,0-0.4-0.1-0.5
			c-0.1-0.1-0.4-0.2-0.6-0.2c-0.2,0-0.5,0-0.7,0c-0.4,0-0.7-0.1-0.7-0.4c0-0.3,0-0.7-0.1-1c-0.1-0.8-0.6-1.6-1.6-2.1
			c-0.3-0.2-0.6-0.2-0.8,0c-0.2,0.3-0.4,0.6-0.6,0.9c-0.6,0.9-1.1,1.7-2.7,1.8c-0.7,0-0.8,0.2-0.8,0.7c0,0.4,0,0.7,0.1,1.1
			c0.1,0.5-0.1,0.8-0.7,1c-0.2,0.1-0.4,0.2-0.5,0.3c-0.3,0.5-0.6,1-0.9,1.5c-0.2,0.4-0.4,0.7-0.9,0.9c-0.7,0.3-1.5,0.5-2.3,0.7
			c-0.5,0.1-0.5,0.2-0.5,0.6c0,0.9,0.5,1.7,1.1,2.5c0.5,0.6,0.5,0.7-0.3,1c-0.1,0-0.2,0.1-0.3,0.1c-0.7,0.1-1.3,0.2-2,0.3
			c-0.3,0-0.6,0.1-0.6,0.4c0,0.4-0.1,0.8,0.1,1.2c0.2,0.5,0.5,1,0.8,1.5c0.2,0.4,0.4,0.7,0.1,1.1c-0.5,0.8-1.4,1.4-2.2,2
			c-0.1,0.1-0.4,0-0.4,0c-0.8-0.7-1.5-1.4-1.8-2.3c-0.3-1-0.5-2.1-0.4-3.2c0-0.5,0-0.9-0.1-1.4c0-0.1-0.3-0.3-0.4-0.4
			c-0.1,0.1-0.3,0.2-0.4,0.3c-0.3,0.6-0.5,1.2-0.8,1.7c-0.3,0.7-0.7,1.4-1.1,2.1c-0.1,0.1-0.3,0.3-0.5,0.3c-0.2,0-0.5-0.2-0.5-0.4
			c-0.2-0.4-0.2-0.8-0.3-1.2c-0.1-0.3-0.1-0.7-0.6-0.9c-0.3,0.6-0.5,1.1-0.8,1.6c-0.1,0.3-0.3,0.5-0.5,0.7c-0.3,0.3-0.7,0.3-1.1,0
			c-0.3-0.3-0.5-0.6-0.7-0.8c-0.4-0.5-0.7-1.1-1.1-1.6c-0.4-0.5-1-0.7-1.6-0.2c-0.1,0-0.1,0.1-0.2,0.1c-0.5,0.3-1,0.2-1.1-0.3
			c-0.2-0.5-0.2-1-0.3-1.6c-0.2-0.8-0.1-1.7-0.5-2.5c-0.3-0.9-0.4-1.7-0.4-2.6c0-0.7-0.1-1.3-0.2-2c-0.1-0.3-0.3-0.6-0.4-0.9
			c-0.1,0-0.1,0-0.2,0c-0.1,0.3-0.2,0.7-0.3,1c-0.2,0.6-0.4,1.3-0.6,1.9c-0.3,0.8-0.6,1.6-1,2.4c-0.3,0.8-0.7,1.6-1,2.4
			c-0.3,0.9-0.6,1.8-0.8,2.7c-0.1,0.5-0.4,1-1,1.2c-0.4,0.2-0.8,0.1-1-0.3c-0.2-0.3-0.3-0.6-0.3-0.9c-0.1-1.1-0.2-2.2-0.4-3.3
			c-0.1-0.3,0-0.7-0.5-1.1c-0.1,0.1-0.1,0.2-0.2,0.3c-0.2,1-0.4,2-0.7,3c-0.2,0.6-0.4,1.2-0.7,1.7c-0.2,0.3-0.5,0.6-0.6,1
			c-0.3,0.7-0.5,1.5-0.9,2.2c-0.2,0.5-0.6,0.9-1.4,1c0-0.2,0-0.3,0-0.4c0-0.7-0.3-1.3-1.1-1.8c-0.3-0.2-0.3-0.3-0.2-0.5
			c0.6-0.9,0.5-2-0.4-2.8c-0.5-0.4-1.1-0.5-1.5,0c-0.3,0.3-0.4,0.6-0.6,0.9c-0.2,0.4-0.4,0.9-0.7,1.3c-0.2,0.2-0.5,0.4-0.9,0.4
			c-0.4,0-0.7-0.2-0.8-0.5c-0.2-0.3-0.3-0.7-0.4-1c-0.1-0.7-0.1-1.4-0.3-2.1c0-0.3-0.2-0.6-0.4-0.8c-0.5,0.2-0.8,0.4-0.8,0.7
			c-0.1,0.4-0.1,0.8-0.3,1.2c-0.2,0.7-0.4,1.5-0.8,2.2c-0.3,0.5-0.8,1-1.6,1.1c-0.4,0.1-0.7-0.1-1-0.3c-0.2-0.2-0.3-0.4-0.2-0.7
			c0.5-0.9,0.8-1.9,0.8-2.9c0-0.4-0.1-0.9-0.5-1.2c-0.3-0.2-0.3-0.4-0.1-0.7c0.1-0.2,0.3-0.4,0.4-0.6c0.2-0.4,0.4-0.7,0.5-1.1
			c0.1-0.2-0.1-0.5-0.4-0.6c-0.5-0.2-0.6-0.5-0.5-0.8c0.1-0.5,0.2-1,0.2-1.5c0-0.5-0.6-1.1-1.3-1.2c-0.5-0.1-0.9,0.2-1.1,0.8
			c0,0,0,0,0,0.1c-0.2,1.1-0.7,2.1-1.3,3.1c-0.3,0.4-0.5,0.9-0.9,1.3c-0.2,0.3-0.6,0.3-0.8-0.1c-0.1-0.1-0.2-0.2-0.2-0.3
			c-0.1-0.6-0.3-1.1-0.3-1.7c0-0.7-0.2-1.3-0.7-1.9c-0.5-0.7-0.7-1.4-0.6-2.2c0.1-0.5,0.2-1,0.1-1.5c0-0.4,0-0.8-0.5-1.2
			c-0.1,0.1-0.1,0.1-0.1,0.1c-0.5,1.2-1,2.5-1.5,3.7c-0.4,0.9-0.7,1.7-1.1,2.6c-0.3,0.7-0.5,1.5-0.7,2.2c-0.2,0.6-0.3,1.1-0.8,1.6
			c-0.2,0.2-0.5,0.4-0.8,0.2c-0.2-0.1-0.5-0.4-0.5-0.6c-0.1-0.7-0.1-1.4-0.2-2.2c-0.1-0.5-0.2-1-0.4-1.6c-0.1-0.2-0.3-0.3-0.5-0.5
			c-0.1,0.2-0.4,0.3-0.4,0.5c-0.2,0.8-0.3,1.7-0.4,2.5c-0.1,0.6-0.4,1.2-0.6,1.9c0,0.1-0.3,0.3-0.3,0.2c-0.2-0.1-0.4-0.2-0.5-0.3
			c-0.2-0.3-0.3-0.7-0.4-1.1c-0.2-0.4-0.2-0.8-0.7-1.2c-0.1,0.1-0.1,0.2-0.1,0.2c-0.5,1.6-0.9,3.2-1.4,4.8c-0.4,1.3-0.9,2.6-1.6,3.8
			c-0.3,0.5-0.8,0.9-1.5,1.2c-0.2,0.1-0.4,0-0.6,0c0-0.2-0.1-0.3,0-0.4c0.1-0.2,0.3-0.4,0.4-0.6c0.4-0.5,0.9-1.1,1.2-1.6
			c0.3-0.5,0.1-0.9-0.4-1.3c-0.2-0.2-0.5-0.3-0.7-0.5c-0.9-0.8-1.5-1.8-1.9-2.8c-0.1-0.3-0.4-0.6-0.8-0.6c-0.4-0.1-0.8,0-1,0.3
			c-0.3,0.5-0.4,1-0.6,1.5c-0.3,0.6-0.5,1.3-0.8,2c-0.2,0.4-0.8,0.7-1.2,0.6c-0.4-0.1-0.7,0-0.8,0.2v0.6c0.1,0.2,0.2,0.5,0.4,0.7
			C284.7,643.9,284.6,644.1,284.3,644.2z"/>
		<path class="st5" d="M328.8,652.8c8.8,1.1,17.6,2.1,26.4,3.3c10,1.4,20,3,29.8,5.1c4.9,1.1,9.7,2.6,14.7,3.7
			c3.6,0.8,7,2.5,10.6,3.1c3.2,0.6,8.6,3.8,10.9,2.7c3.5-1.7,5.7-8.9,8.2-11.8c1.5-1.8-4.1-9.3-7.5-9.5c-2.9-0.1-5.7-0.9-8.4-1.3
			c-5-0.7-4.9,0.1-4.2-4.3c-0.4,0.1-3,0.5-2.9-0.3c0.1-0.2,0.2-0.5,0.5-0.6c0.7-0.3,0.8-0.7,0.7-1.3c-0.2-0.7-0.3-1.5,0.4-2.1
			c0.1-0.1,0-0.4-0.1-0.5c-0.1-0.1-0.4-0.2-0.6-0.2c-0.2,0-0.5,0-0.7,0c-0.4,0-0.7-0.1-0.7-0.5c0-0.3,0-0.7,0-1
			c-0.1-0.8-0.5-1.6-1.5-2.2c-0.3-0.2-0.6-0.2-0.8,0c-0.2,0.3-0.4,0.6-0.6,0.9c-0.6,0.9-1.2,1.7-2.7,1.7c-0.7,0-0.8,0.2-0.9,0.7
			c0,0.4,0,0.7,0,1.1c0,0.5-0.1,0.8-0.7,1c-0.2,0.1-0.4,0.2-0.5,0.3c-0.3,0.5-0.7,0.9-1,1.4c-0.2,0.3-0.4,0.7-0.9,0.9
			c-0.7,0.2-1.5,0.5-2.3,0.6c-0.5,0.1-0.5,0.2-0.6,0.5c-0.1,0.9,0.4,1.7,1,2.5c0.5,0.6,0.4,0.7-0.3,1c-0.1,0-0.2,0.1-0.3,0.1
			c-0.7,0.1-1.3,0.2-2,0.2c-0.3,0-0.6,0.1-0.6,0.4c0,0.4-0.1,0.8,0,1.2c0.2,0.5,0.5,1,0.8,1.5c0.2,0.4,0.4,0.7,0.1,1.1
			c-0.5,0.8-1.4,1.4-2.3,2c-0.1,0.1-0.4,0-0.4,0c-0.7-0.7-1.5-1.5-1.7-2.4c-0.2-1.1-0.5-2.1-0.3-3.2c0.1-0.5,0-0.9-0.1-1.4
			c0-0.1-0.3-0.3-0.4-0.4c-0.1,0.1-0.3,0.2-0.4,0.3c-0.3,0.6-0.6,1.1-0.9,1.7c-0.4,0.7-0.8,1.4-1.2,2.1c-0.1,0.1-0.4,0.3-0.5,0.3
			c-0.2-0.1-0.4-0.2-0.5-0.4c-0.2-0.4-0.2-0.8-0.3-1.2c-0.1-0.3,0-0.7-0.6-0.9c-0.3,0.6-0.5,1.1-0.8,1.6c-0.1,0.3-0.3,0.5-0.5,0.7
			c-0.4,0.3-0.7,0.3-1.1-0.1c-0.3-0.3-0.5-0.6-0.6-0.9c-0.4-0.6-0.6-1.1-1-1.7c-0.4-0.5-1-0.8-1.6-0.3c-0.1,0-0.1,0.1-0.2,0.1
			c-0.5,0.3-1,0.1-1.1-0.3c-0.1-0.5-0.2-1.1-0.3-1.6c-0.1-0.8-0.1-1.7-0.4-2.5c-0.3-0.9-0.3-1.7-0.3-2.6c0-0.7-0.1-1.3-0.2-2
			c0-0.3-0.3-0.6-0.4-0.9c-0.1,0-0.1,0-0.2,0c-0.1,0.3-0.3,0.7-0.4,1c-0.2,0.6-0.5,1.3-0.7,1.9c-0.3,0.8-0.7,1.6-1.1,2.4
			c-0.3,0.8-0.7,1.5-1,2.3c-0.3,0.9-0.6,1.7-0.9,2.6c-0.2,0.5-0.4,0.9-1,1.2c-0.4,0.1-0.8,0-1-0.3c-0.1-0.3-0.2-0.6-0.3-0.9
			c-0.1-1.1-0.1-2.2-0.3-3.3c0-0.3,0-0.7-0.4-1.1c-0.1,0.1-0.1,0.2-0.2,0.3c-0.3,1-0.5,2-0.8,3c-0.2,0.6-0.5,1.2-0.7,1.7
			c-0.2,0.3-0.5,0.6-0.7,0.9c-0.3,0.7-0.6,1.5-0.9,2.2c-0.2,0.4-0.6,0.8-1.4,1c0-0.2,0-0.3,0-0.4c0-0.7-0.3-1.3-1-1.8
			c-0.3-0.2-0.3-0.3-0.1-0.5c0.7-0.9,0.5-2-0.3-2.8c-0.5-0.5-1-0.5-1.5-0.1c-0.3,0.3-0.4,0.6-0.6,0.9c-0.3,0.4-0.5,0.9-0.8,1.3
			c-0.2,0.2-0.6,0.4-0.9,0.4c-0.4,0-0.7-0.3-0.8-0.5c-0.2-0.3-0.3-0.7-0.3-1.1c-0.1-0.7-0.1-1.4-0.2-2.1c0-0.3-0.2-0.6-0.3-0.9
			c-0.5,0.1-0.8,0.4-0.9,0.7c-0.1,0.4-0.2,0.8-0.3,1.2c-0.2,0.7-0.5,1.5-0.8,2.1c-0.3,0.5-0.8,0.9-1.6,1.1c-0.4,0.1-0.7-0.1-1-0.3
			c-0.2-0.2-0.3-0.4-0.1-0.7c0.5-0.9,0.9-1.9,0.9-2.9c0-0.4-0.1-0.9-0.5-1.2c-0.3-0.2-0.3-0.4-0.1-0.7c0.1-0.2,0.3-0.4,0.5-0.6
			c0.2-0.4,0.4-0.7,0.6-1.1c0.1-0.2-0.1-0.5-0.3-0.6c-0.5-0.2-0.5-0.5-0.5-0.8c0.1-0.5,0.2-1,0.2-1.5c0-0.5-0.6-1.1-1.2-1.2
			c-0.5-0.1-0.9,0.2-1.1,0.7c0,0,0,0,0,0.1c-0.3,1.1-0.8,2.1-1.4,3.1c-0.3,0.4-0.6,0.8-0.9,1.2c-0.2,0.3-0.6,0.2-0.8-0.1
			c-0.1-0.1-0.2-0.2-0.2-0.3c-0.1-0.6-0.2-1.2-0.2-1.7c0-0.7-0.2-1.3-0.6-2c-0.5-0.7-0.7-1.4-0.5-2.2c0.1-0.5,0.2-1,0.2-1.5
			c0-0.4,0-0.8-0.4-1.2c-0.1,0.1-0.1,0.1-0.1,0.1c-0.5,1.2-1.1,2.4-1.6,3.6c-0.4,0.8-0.8,1.7-1.1,2.5c-0.3,0.7-0.6,1.5-0.8,2.2
			c-0.2,0.6-0.4,1.1-0.9,1.5c-0.2,0.2-0.5,0.4-0.8,0.2c-0.2-0.1-0.4-0.4-0.5-0.6c-0.1-0.7-0.1-1.4-0.2-2.2c-0.1-0.5-0.2-1.1-0.4-1.6
			c-0.1-0.2-0.3-0.3-0.5-0.5c-0.1,0.2-0.4,0.3-0.4,0.5c-0.2,0.8-0.3,1.7-0.5,2.5c-0.2,0.6-0.4,1.2-0.7,1.8c0,0.1-0.3,0.2-0.3,0.2
			c-0.2-0.1-0.4-0.2-0.4-0.3c-0.2-0.4-0.2-0.7-0.4-1.1c-0.1-0.4-0.2-0.9-0.7-1.2c-0.1,0.1-0.1,0.2-0.1,0.2c-0.5,1.6-1,3.2-1.6,4.8
			c-0.4,1.3-1,2.6-1.7,3.7C330,652.2,329.5,652.6,328.8,652.8z"/>
		<path class="st5" d="M316.6,651.4c3.9,0.5,7.7,0.9,11.6,1.4c0-0.1,0-0.3,0-0.4c0.1-0.2,0.3-0.4,0.5-0.6c0.4-0.5,0.9-1,1.3-1.6
			c0.3-0.5,0.1-0.9-0.4-1.3c-0.2-0.2-0.5-0.4-0.7-0.6c-0.9-0.8-1.5-1.8-1.8-2.8c-0.1-0.3-0.4-0.6-0.8-0.7c-0.4-0.1-0.8,0-1,0.3
			c-0.3,0.5-0.5,0.9-0.7,1.4c-0.3,0.6-0.6,1.3-0.9,1.9c-0.2,0.4-0.8,0.6-1.3,0.5c-0.7-0.1-1,0.1-0.9,0.6c0.1,0.3,0.2,0.6,0.4,0.9
			c0.1,0.3,0.1,0.6-0.3,0.7c-0.3,0.1-0.6,0-0.9-0.2c-0.8-0.6-1-1.4-1.2-2.2c-0.2-0.8-0.3-1.6-0.4-2.3c-0.1-0.4-0.2-0.8-0.3-1.1
			c0,0-0.1,0-0.1,0c-0.1,0.1-0.3,0.2-0.3,0.3c-0.2,0.5-0.3,1-0.6,1.5c-0.2,0.4-0.4,0.8-0.7,1.2c-0.2,0.4-0.5,0.7-0.7,1.1
			c-0.3,0.6-0.6,1.1-0.9,1.7C315.8,651.3,316.2,651.3,316.6,651.4z"/>
		<path class="st5" d="M289.6,648.1c7.7,0.5,15.3,1.7,22.9,2.7c0-0.4-0.2-0.7-0.4-1.1c-0.8-1-1.3-2.1-1.4-3.2c0-0.3-0.2-0.4-0.6-0.5
			c-0.3,0-0.5,0-0.8,0c-0.5,0.1-0.9,0.2-1.4,0.3c-0.4,0.1-0.5,0-0.6-0.3c-0.2-1-0.4-2.1-0.6-3.1c-0.3-1.1-0.5-2.2-0.3-3.3
			c0.1-0.3,0.1-0.7,0.1-1c0-0.2-0.1-0.5-0.2-0.7c-0.2-0.3-0.5-0.4-0.7-0.1c-0.2,0.3-0.5,0.7-0.6,1c-0.5,1.1-0.9,2.2-1.3,3.3
			c-0.2,0.6-0.9,0.7-1.6,0.5c-0.8-0.3-0.9-0.7-0.4-1.1c0.1-0.1,0.2-0.2,0.3-0.2c0.7-0.4,0.8-0.9,0.5-1.5c-0.1-0.2-0.2-0.4-0.3-0.5
			c-0.4-0.8-0.8-1.6-0.7-2.4c0.1-0.7-0.1-1.3-0.4-1.9c-0.3-0.7-0.5-1.4,0.1-2c0.1-0.1,0.1-0.3,0.1-0.4c-0.1-0.5-0.1-1-0.3-1.5
			c-0.3-0.9-0.7-1.7-0.4-2.6c0-0.1,0-0.2,0-0.2c-0.1-0.1-0.2-0.3-0.4-0.3c-0.1,0-0.3,0.1-0.4,0.1c-0.1,0.1-0.2,0.3-0.2,0.5
			c0.1,1.2-0.6,2.2-1.2,3.2c-0.5,0.8-0.9,1.6-0.9,2.5c0,0.1-0.1,0.3-0.2,0.4c-0.1,0.1-0.2,0.2-0.3,0.2c-0.1,0-0.3-0.1-0.3-0.2
			c-0.2-0.3-0.3-0.7-0.5-1.1c-0.1,0.1-0.3,0.1-0.3,0.2c-0.2,0.3-0.3,0.6-0.4,0.9c-0.4,1.1-0.6,2.3-1.3,3.4c-0.1,0.1-0.1,0.2-0.1,0.3
			c-0.2,0.5-0.4,0.9-0.7,1.4c-0.4,0.8-0.9,1.6-1.3,2.5c-0.4,0.9-0.6,1.8-1,2.7c-0.4,0.9-0.8,1.7-1.6,2.4c-0.1,0.1-0.1,0.3-0.1,0.5
			C289.5,647.8,289.6,647.9,289.6,648.1z"/>
		<path class="st4" d="M316.6,651.4c1.5,0.2,3,0.4,4.6,0.6c-0.1-0.1-0.2-0.2-0.3-0.2c-0.9-0.8-1.5-1.8-1.8-2.8
			c-0.1-0.3-0.4-0.6-0.8-0.7c-0.4-0.1-0.8,0-1,0.3c-0.3,0.5-0.5,0.9-0.7,1.4c-0.2,0.5-0.4,0.9-0.6,1.4
			C316.1,651.3,316.4,651.3,316.6,651.4z"/>
		<path class="st4" d="M282.5,647.8c5.6,0,11.3,0.6,16.9,1.3c-0.2-1-0.3-1.9-0.6-2.9c-0.3-1.1-0.5-2.2-0.3-3.3
			c0.1-0.3,0.1-0.7,0.1-1c0-0.2-0.1-0.5-0.2-0.7c-0.2-0.3-0.5-0.4-0.7-0.1c-0.2,0.3-0.5,0.7-0.6,1c-0.5,1.1-0.9,2.2-1.3,3.3
			c-0.2,0.6-0.9,0.7-1.6,0.5c-0.8-0.3-0.9-0.7-0.4-1.1c0.1-0.1,0.2-0.2,0.3-0.2c0.7-0.4,0.8-0.9,0.5-1.5c-0.1-0.2-0.2-0.4-0.3-0.5
			c-0.4-0.8-0.8-1.6-0.7-2.4c0.1-0.7-0.1-1.3-0.4-1.9c-0.3-0.7-0.5-1.4,0.1-2c0.1-0.1,0.1-0.3,0.1-0.4c-0.1-0.5-0.1-1-0.3-1.5
			c-0.3-0.9-0.7-1.7-0.4-2.6c0-0.1,0-0.2,0-0.2c-0.1-0.1-0.2-0.3-0.4-0.3c-0.6-0.2-2,5.5-2.8,6.3c-1.9,2.1-5.6,1.1-7.4,3.5
			c-1.7,2.3,0,3.8,0.3,6.1C282.5,647.4,282.5,647.6,282.5,647.8z"/>
		<path class="st4" d="M355.2,656.2c11.9,1.7,25.1,2.7,36.5,6.7c9.1,3.1,20.1,3.8,28.2,9.4c3.2-4.2,6.4-8.8,9.4-13.1
			c-0.7-0.5-1.8-2.1-2.5-2.3c-1.3-0.3-4,1-5.6,1c-1.9,0-4.9,0.5-6.7,0.4c-2.1-0.2-3.2-1.6-5.1-2.1c-2.8-0.7-8.6,1.4-7-4.1
			c-0.8,0.2-2,0.4-2.8,0c-0.8-0.4-1-1.2-0.3-1.7c0.4-0.3,0.8-0.6,1.2-1c0.5-0.5,0.8-1.1,0.9-1.8c0-0.6-0.3-0.7-0.9-0.6
			c-0.4,0.1-0.7,0.2-1.1,0.3c-0.5,0.1-0.9-0.1-0.8-0.5c0.1-0.2,0.2-0.5,0.5-0.6c0.7-0.3,0.8-0.7,0.7-1.3c-0.2-0.7-0.3-1.5,0.4-2.1
			c0.1-0.1,0-0.4-0.1-0.5c-0.1-0.1-0.4-0.2-0.6-0.2c-0.2,0-0.5,0-0.7,0c-0.4,0-0.7-0.1-0.7-0.5c0-0.3,0-0.7,0-1
			c-0.1-0.8-0.5-1.6-1.5-2.2c-0.3-0.2-0.6-0.2-0.8,0c-0.2,0.3-0.4,0.6-0.6,0.9c-0.6,0.9-1.2,1.7-2.7,1.7c-0.7,0-0.8,0.2-0.9,0.7
			c0,0.4,0,0.7,0,1.1c0,0.5-0.1,0.8-0.7,1c-0.2,0.1-0.4,0.2-0.5,0.3c-0.3,0.5-0.7,0.9-1,1.4c-0.2,0.3-0.4,0.7-0.9,0.9
			c-0.7,0.2-1.5,0.5-2.3,0.6c-0.5,0.1-0.5,0.2-0.6,0.5c-0.1,0.9,0.4,1.7,1,2.5c0.5,0.6,0.4,0.7-0.3,1c-0.1,0-0.2,0.1-0.3,0.1
			c-0.7,0.1-1.3,0.2-2,0.2c-0.3,0-0.6,0.1-0.6,0.4c0,0.4-0.1,0.8,0,1.2c0.2,0.5,0.5,1,0.8,1.5c0.2,0.4,0.4,0.7,0.1,1.1
			c-0.5,0.8-1.4,1.4-2.3,2c-0.1,0.1-0.4,0-0.4,0c-0.7-0.7-1.5-1.5-1.7-2.4c-0.2-1.1-0.5-2.1-0.3-3.2c0.1-0.5,0-0.9-0.1-1.4
			c0-0.1-0.3-0.3-0.4-0.4c-0.1,0.1-0.3,0.2-0.4,0.3c-0.3,0.6-0.6,1.1-0.9,1.7c-0.4,0.7-0.8,1.4-1.2,2.1c-0.1,0.1-0.4,0.3-0.5,0.3
			c-0.2-0.1-0.4-0.2-0.5-0.4c-0.2-0.4-0.2-0.8-0.3-1.2c-0.1-0.3,0-0.7-0.6-0.9c-0.3,0.6-0.5,1.1-0.8,1.6c-0.1,0.3-0.3,0.5-0.5,0.7
			c-0.4,0.3-0.7,0.3-1.1-0.1c-0.3-0.3-0.5-0.6-0.6-0.9c-0.4-0.6-0.6-1.1-1-1.7c-0.4-0.5-1-0.8-1.6-0.3c-0.1,0-0.1,0.1-0.2,0.1
			c-0.5,0.3-1,0.1-1.1-0.3c-0.1-0.5-0.2-1.1-0.3-1.6c-0.1-0.8-0.1-1.7-0.4-2.5c-0.3-0.9-0.3-1.7-0.3-2.6c0-0.7-0.1-1.3-0.2-2
			c0-0.3-0.3-0.6-0.4-0.9c-0.1,0-0.1,0-0.2,0c-0.1,0.3-0.3,0.7-0.4,1c-0.2,0.6-0.5,1.3-0.7,1.9c-0.3,0.8-0.7,1.6-1.1,2.4
			c-0.3,0.8-0.7,1.5-1,2.3c-0.3,0.9-0.6,1.7-0.9,2.6c-0.2,0.5-0.4,0.9-1,1.2c-0.4,0.1-0.8,0-1-0.3c-0.1-0.3-0.2-0.6-0.3-0.9
			c-0.1-1.1-0.1-2.2-0.3-3.3c0-0.3,0-0.7-0.4-1.1c-0.1,0.1-0.1,0.2-0.2,0.3c-0.3,1-0.5,2-0.8,3c-0.2,0.6-0.5,1.2-0.7,1.7
			c-0.2,0.3-0.5,0.6-0.7,0.9c-0.3,0.7-0.6,1.5-0.9,2.2c-0.1,0.2-0.3,0.4-0.5,0.6C355.1,656.1,355.2,656.2,355.2,656.2z"/>
		<path class="st4" d="M354.2,656c0-0.7-0.3-1.3-1-1.7c-0.3-0.2-0.3-0.3-0.1-0.5c0.7-0.9,0.5-2-0.3-2.8c-0.5-0.5-1-0.5-1.5-0.1
			c-0.3,0.3-0.4,0.6-0.6,0.9c-0.3,0.4-0.5,0.9-0.8,1.3c-0.2,0.2-0.6,0.4-0.9,0.4c-0.4,0-0.7-0.3-0.8-0.5c-0.2-0.3-0.3-0.7-0.3-1.1
			c-0.1-0.7-0.1-1.4-0.2-2.1c0-0.3-0.2-0.6-0.3-0.9c-0.5,0.1-0.8,0.4-0.9,0.7c-0.1,0.4-0.2,0.8-0.3,1.2c-0.2,0.7-0.5,1.5-0.8,2.1
			c-0.3,0.5-0.8,0.9-1.6,1.1c-0.4,0.1-0.7-0.1-1-0.3c-0.2-0.2-0.3-0.4-0.1-0.7c0.5-0.9,0.9-1.9,0.9-2.9c0-0.4-0.1-0.9-0.5-1.2
			c-0.3-0.2-0.3-0.4-0.1-0.7c0.1-0.2,0.3-0.4,0.5-0.6c0.2-0.4,0.4-0.7,0.6-1.1c0.1-0.2-0.1-0.5-0.3-0.6c-0.5-0.2-0.5-0.5-0.5-0.8
			c0.1-0.5,0.2-1,0.2-1.5c0-0.5-0.6-1.1-1.2-1.2c-0.5-0.1-0.9,0.2-1.1,0.7c0,0,0,0,0,0.1c-0.3,1.1-0.8,2.1-1.4,3.1
			c-0.3,0.4-0.6,0.8-0.9,1.2c-0.2,0.3-0.6,0.2-0.8-0.1c-0.1-0.1-0.2-0.2-0.2-0.3c-0.1-0.6-0.2-1.2-0.2-1.7c0-0.7-0.2-1.3-0.6-2
			c-0.5-0.7-0.7-1.4-0.5-2.2c0.1-0.5,0.2-1,0.2-1.5c0-0.4,0-0.8-0.4-1.2c-0.1,0.1-0.1,0.1-0.1,0.1c-0.5,1.2-1.1,2.4-1.6,3.6
			c-0.4,0.8-0.8,1.7-1.1,2.5c-0.3,0.7-0.6,1.5-0.8,2.2c-0.2,0.6-0.4,1.1-0.9,1.5c-0.2,0.2-0.5,0.4-0.8,0.2c-0.2-0.1-0.4-0.4-0.5-0.6
			c-0.1-0.7-0.1-1.4-0.2-2.2c-0.1-0.5-0.2-1.1-0.4-1.6c-0.1-0.2-0.3-0.3-0.5-0.5c-0.1,0.2-0.4,0.3-0.4,0.5c-0.2,0.8-0.3,1.7-0.5,2.5
			c-0.2,0.6-0.4,1.2-0.7,1.8c0,0.1-0.3,0.2-0.3,0.2c-0.2-0.1-0.4-0.2-0.4-0.3c-0.2-0.4-0.2-0.7-0.4-1.1c-0.1-0.4-0.2-0.9-0.7-1.2
			c-0.1,0.1-0.1,0.2-0.1,0.2c-0.5,1.6-1,3.2-1.6,4.8c-0.1,0.3-0.2,0.6-0.3,1C333.9,653.4,344,654.6,354.2,656z"/>
		<path class="st7" d="M214.4,643.7c3.1,0.2,6.3,0.4,9.4,0.5c3.4,0.2,6.9,0.2,10.4,0.2C227.3,644.1,220.7,643.9,214.4,643.7z"/>
	</g>
	<g>
		<g>
			<g>
				<path class="st8" d="M77.4,665.3c1.9-6.8,3.4-13.3,4.2-17.8c0,0-2.4,7.5-5.8,17.8H77.4z"/>
			</g>
			<g>
				<path class="st8" d="M81.6,665.3c1.4-5.4,2.6-10.4,3.2-14.1c0,0-1.8,5.8-4.6,14.1H81.6z"/>
			</g>
			<g>
				<path class="st8" d="M78.7,665.3c1.4-5.4,2.5-10.1,3.1-13.8c0,0-1.9,5.5-4.6,13.8H78.7z"/>
			</g>
			<path class="st9" d="M70.6,665.3c2.3-4.6,4.8-9.5,7.5-14.6c-4.8,2.9-9.3,8-13.5,14.6H70.6z"/>
			<path class="st8" d="M64.5,661.2c2.8-5.7,5.9-11.8,9.3-18.3c-3.2,1.9-6.3,4.9-9.3,8.7V661.2z"/>
			<path class="st10" d="M75.4,665.3c2.6-10.3,4-17,4-17c-2.2,6-4.2,11.7-6.1,17H75.4z"/>
			<path class="st10" d="M69,665.3c2.9-11.3,4.4-18.9,4.4-18.9c-2.4,6.7-4.7,13-6.8,18.9H69z"/>
			<path class="st10" d="M64.5,653.3v0.4c0.3-0.6,0.7-1.1,1-1.7C65.1,652.5,64.8,652.9,64.5,653.3z"/>
			<path class="st11" d="M77.2,665.3c0.1-6.1-0.2-12.2-1.2-18.1c-1.2,5.6-2.9,11.6-4.5,18.1H77.2z"/>
			<path class="st11" d="M64.5,658.1v7.3h0.2c0.8-5.1,1.4-10.5,2-16.1C65.9,652.2,65.2,655.2,64.5,658.1z"/>
			<g>
				<path class="st12" d="M72.8,665.3c0.9-3.8,1.7-7.2,2.1-9.9c0,0-1.2,3.9-3.2,9.9H72.8z"/>
			</g>
			<g>
				<path class="st11" d="M83.4,665.3c2-9.3,3.5-16.9,3.5-18.8c0,0-2.2,8-5.2,18.8H83.4z"/>
			</g>
			<g>
				<path class="st11" d="M71,641.5c0,0-2.8,10.5-6.5,23.6v0.2h2C69,653.8,71.1,643.9,71,641.5z"/>
			</g>
			<g>
				<path class="st13" d="M71.4,665.3c0.2-1.2,0.3-2.2,0.4-3.1c0,0-0.4,1.2-1,3.1H71.4z"/>
			</g>
			<g>
				<path class="st14" d="M64.5,665.3h1.4c0-4-0.4-7.7-1.1-10.8c0,0-0.1,1.1-0.3,2.9V665.3z"/>
			</g>
			<g>
				<path class="st14" d="M71.4,665.3c1.6-4.6,2.7-7.6,2.7-7.6c-1.1,1.9-2.5,4.5-4,7.6H71.4z"/>
			</g>
			<path class="st11" d="M80.4,665.3c0.5-3.7,0.9-7.5,1.3-11.4c-0.9,4-2.3,7.7-3.6,11.4H80.4z"/>
			<g>
				<path class="st15" d="M67.7,665.3c1.4-5.2,2.5-10,3-13.5c0,0-1.8,5.5-4.4,13.5H67.7z"/>
			</g>
			<polygon class="st15" points="83.4,665.3 86.9,658.1 85.9,665.3 			"/>
			<polygon class="st11" points="85.3,665.3 84.9,659.9 83.9,665.3 			"/>
		</g>
	</g>
	<g>
		<path class="st7" d="M486.5,674.6v22.7H-13.1v-50.6c11.5-0.9,27.1-2.1,45.6-3.2c37.5-2.2,87.2-4.2,139.9-3.8
			c48.2,0.4,99.1,2.8,145.5,8.9C422.4,662.4,468.1,670.7,486.5,674.6z"/>
		<path class="st16" d="M446.5,676.6v9.7H-13.1v-39.6c11.5-0.9,27.1-2.1,45.6-3.2c37.5-2.2,87.2-4.2,139.9-3.8
			c35.7,2.8,71.8,6.5,105.5,10.9C382.4,664.4,428.1,672.7,446.5,676.6z"/>
		<path class="st17" d="M446.5,696.6v9.7H-13.1v-50.6c11.5-0.9,27.1-2.1,45.6-3.2c70.7,1.5,164.7,7.4,245.5,18.1
			C382.4,684.4,428.1,692.7,446.5,696.6z"/>
		<path class="st18" d="M487.2,613.2v167.9h-500V633.2C-12.8,633.2,378.2,739.8,487.2,613.2z"/>
		<path class="st7" d="M487.2,634.2v185.9h-500V654.2C-12.8,654.2,378.2,760.8,487.2,634.2z"/>
		<path class="st16" d="M487.2,609.2c0,0-38.6,168.9-500,134.5v77.4h500V609.2z"/>
		<path class="st17" d="M-12.8,752.7c0,0,328,89.7,500-25.5v93.9h-500V752.7z"/>
	</g>
	<g>
		<g>
			<g>
				<path class="st8" d="M58.3,821.1c10.2-37.4,18.9-72.8,22.9-97.6c0,0-13.2,41.3-31.9,97.6H58.3z"/>
			</g>
			<g>
				<path class="st8" d="M81,821.1c7.8-29.7,14.2-57,17.5-77.2c0,0-10.1,31.6-25.1,77.2H81z"/>
			</g>
			<g>
				<path class="st8" d="M65.1,821.1c7.8-29.7,13.8-55.5,17.1-75.8c0,0-10.3,30.2-25.3,75.8H65.1z"/>
			</g>
			<path class="st9" d="M21.1,821.1c12.8-25.4,26.4-52,41.2-80c-26.1,15.8-51,44-74.4,80H21.1z"/>
			<path class="st8" d="M-12.8,798.5c15.6-31.5,32.5-64.7,51.3-100.2C20.8,708.9,3.7,725.3-12.8,746V798.5z"/>
			<path class="st10" d="M47,821.1c14.1-56.5,21.8-93.5,21.8-93.5c-12,33.1-23.1,64.1-33.8,93.5H47z"/>
			<path class="st10" d="M12.2,821.1C27.9,759,36.5,717.5,36.5,717.5c-13.3,37-25.7,71.3-37.4,103.6H12.2z"/>
			<path class="st10" d="M-12.8,755.1v2.2c1.8-3,3.7-6.1,5.6-9.1C-9.1,750.5-11,752.8-12.8,755.1z"/>
			<path class="st11" d="M56.9,821.1c0.8-33.6-1.2-67-6.9-99.3c-6.4,30.9-16.1,63.5-24.7,99.3H56.9z"/>
			<path class="st11" d="M-12.8,781v40.1h0.8c4.2-28.2,7.9-57.7,11-88.6C-4.9,749-8.8,765.2-12.8,781z"/>
			<g>
				<path class="st12" d="M32.7,821.1c5.1-20.7,9.2-39.5,11.7-54.4c0,0-6.9,21.4-17.6,54.4H32.7z"/>
			</g>
			<g>
				<path class="st11" d="M91.3,821.1c11.2-51.1,19.3-92.6,19-103.5c0,0-11.9,44.2-28.5,103.5H91.3z"/>
			</g>
			<g>
				<path class="st11" d="M23,690.2c0,0-15.6,57.7-35.8,129.6v1.2h10.7C12.1,757.9,23.4,703.1,23,690.2z"/>
			</g>
			<g>
				<path class="st13" d="M25.2,821.1c1-6.5,1.7-12.3,2.1-17.2c0,0-2,6.3-5.4,17.2H25.2z"/>
			</g>
			<g>
				<path class="st14" d="M-12.8,821.1H-5c-0.3-21.7-2.1-42-6.2-59.5c0,0-0.6,5.8-1.7,15.9V821.1z"/>
			</g>
			<g>
				<path class="st14" d="M25.2,821.1c8.8-25.1,14.6-41.5,14.6-41.5C33.5,789.9,26,804.2,18,821.1H25.2z"/>
			</g>
			<path class="st11" d="M74.7,821.1c2.7-20.2,5.2-41.1,7.4-62.7c-5.2,21.9-12.6,42.5-19.6,62.7H74.7z"/>
			<g>
				<path class="st15" d="M4.7,821.1c7.4-28.6,13.5-54.7,16.7-74.3c0,0-9.7,30.3-24.2,74.3H4.7z"/>
			</g>
			<polygon class="st15" points="91.3,821.1 110.3,781.1 104.9,821.1 			"/>
			<polygon class="st11" points="101.6,821.1 99.3,791.4 93.8,821.1 			"/>
		</g>
		<g>
			<g>
				<path class="st8" d="M416.1,821.1c-10.2-37.4-18.9-72.8-22.9-97.6c0,0,13.2,41.3,31.9,97.6H416.1z"/>
			</g>
			<g>
				<path class="st8" d="M393.3,821.1c-7.8-29.7-14.2-57-17.5-77.2c0,0,10.1,31.6,25.1,77.2H393.3z"/>
			</g>
			<g>
				<path class="st8" d="M409.2,821.1c-7.8-29.7-13.8-55.5-17.1-75.8c0,0,10.3,30.2,25.3,75.8H409.2z"/>
			</g>
			<path class="st9" d="M453.3,821.1c-12.8-25.4-26.4-52-41.2-80c26.1,15.8,51,44,74.4,80H453.3z"/>
			<path class="st8" d="M487.2,798.5c-15.6-31.5-32.5-64.7-51.3-100.2c17.7,10.7,34.8,27.1,51.3,47.8V798.5z"/>
			<path class="st10" d="M427.4,821.1c-14.1-56.5-21.8-93.5-21.8-93.5c12,33.1,23.1,64.1,33.8,93.5H427.4z"/>
			<path class="st10" d="M462.2,821.1c-15.7-62.1-24.3-103.6-24.3-103.6c13.3,37,25.7,71.3,37.4,103.6H462.2z"/>
			<path class="st10" d="M487.2,755.1v2.2c-1.8-3-3.7-6.1-5.6-9.1C483.5,750.5,485.3,752.8,487.2,755.1z"/>
			<path class="st11" d="M417.5,821.1c-0.8-33.6,1.2-67,6.9-99.3c6.4,30.9,16.1,63.5,24.7,99.3H417.5z"/>
			<path class="st11" d="M487.2,781v40.1h-0.8c-4.2-28.2-7.9-57.7-11-88.6C479.2,749,483.2,765.2,487.2,781z"/>
			<g>
				<path class="st12" d="M441.7,821.1c-5.1-20.7-9.2-39.5-11.7-54.4c0,0,6.9,21.4,17.6,54.4H441.7z"/>
			</g>
			<g>
				<path class="st11" d="M383.1,821.1c-11.2-51.1-19.3-92.6-19-103.5c0,0,11.9,44.2,28.5,103.5H383.1z"/>
			</g>
			<g>
				<path class="st11" d="M451.4,690.2c0,0,15.6,57.7,35.8,129.6v1.2h-10.7C462.3,757.9,451,703.1,451.4,690.2z"/>
			</g>
			<g>
				<path class="st13" d="M449.2,821.1c-1-6.5-1.7-12.3-2.1-17.2c0,0,2,6.3,5.4,17.2H449.2z"/>
			</g>
			<g>
				<path class="st14" d="M487.2,821.1h-7.8c0.3-21.7,2.1-42,6.2-59.5c0,0,0.6,5.8,1.7,15.9V821.1z"/>
			</g>
			<g>
				<path class="st14" d="M449.2,821.1c-8.8-25.1-14.6-41.5-14.6-41.5c6.3,10.3,13.7,24.6,21.8,41.5H449.2z"/>
			</g>
			<path class="st11" d="M399.7,821.1c-2.7-20.2-5.2-41.1-7.4-62.7c5.2,21.9,12.6,42.5,19.6,62.7H399.7z"/>
			<g>
				<path class="st15" d="M469.7,821.1c-7.4-28.6-13.5-54.7-16.7-74.3c0,0,9.7,30.3,24.2,74.3H469.7z"/>
			</g>
			<polygon class="st15" points="383.1,821.1 364.1,781.1 369.5,821.1 			"/>
			<polygon class="st11" points="372.8,821.1 375,791.4 380.5,821.1 			"/>
		</g>
	</g>
	<g>
		<g>
			<g>
				<path class="st19" d="M437.9,477.7c-4.3-0.1-8.6,0.3-12.8,1c-0.9,0.2-1.8,0.3-2.4,0.9c-0.6,0.5-0.8,1.3-1.1,2.1
					c-0.6,2.1-0.5,5.1-1,7.2c-2.3-1.5-4.8-2.8-7.3-3.8c-0.9-0.3-1.9-0.7-2.7-0.2c-0.5,0.3-0.8,0.8-1.1,1.3c-1.3,2.5-2.1,5.4-2.2,8.2
					c0.6-2.9,3.5-4.4,6.4-4.8c2.9-0.4,5.9,0.4,8.6,1.5c0.5-5.2,4.9-10.2,10-11.5C434.7,479.1,436,479.5,437.9,477.7z"/>
			</g>
			<g>
				<path class="st19" d="M384,532.1c-1.8-1.2-3.7-2.2-5.6-3.1c-0.4-0.2-0.8-0.3-1.3-0.3c-0.4,0.1-0.7,0.3-1,0.6
					c-0.8,0.7-1.6,2-2.4,2.8c-0.6-1.3-1.2-2.5-2-3.6c-0.3-0.4-0.6-0.8-1.1-0.8c-0.3,0-0.6,0.1-0.8,0.2c-1.3,0.7-2.4,1.7-3.2,2.8
					c1-1,2.7-0.9,4-0.3c1.3,0.6,2.3,1.8,3.2,3c1.6-2,4.8-2.9,7.3-2.1C382.3,531.8,382.7,532.4,384,532.1z"/>
			</g>
			<g>
				<path class="st19" d="M116.4,522.9c-2.1-1.8-4.3-3.4-6.7-4.8c-0.5-0.3-1-0.6-1.6-0.5c-0.5,0-1,0.3-1.4,0.6
					c-1.2,0.8-2.4,2.3-3.5,3.1c-0.5-1.7-1.2-3.3-2-4.9c-0.3-0.5-0.7-1.1-1.3-1.2c-0.4-0.1-0.7,0.1-1.1,0.2c-1.7,0.7-3.3,1.7-4.5,3.1
					c1.5-1.2,3.5-0.7,5.1,0.3c1.6,1,2.7,2.7,3.6,4.3c2.4-2.3,6.6-2.9,9.7-1.5C114.3,522.3,114.8,523,116.4,522.9z"/>
			</g>
			<g>
				<path class="st19" d="M37.1,482.8c2.2-1.9,4.6-3.7,7.1-5.2c0.5-0.3,1.1-0.6,1.7-0.6c0.5,0,1,0.3,1.5,0.6
					c1.3,0.8,2.5,2.4,3.7,3.3c0.5-1.8,1.3-3.6,2.1-5.2c0.3-0.6,0.7-1.2,1.3-1.3c0.4-0.1,0.8,0.1,1.1,0.2c1.8,0.7,3.5,1.8,4.8,3.3
					c-1.6-1.2-3.8-0.8-5.5,0.3c-1.7,1.1-2.9,2.9-3.8,4.6c-2.6-2.5-7.1-3.1-10.3-1.6C39.3,482.2,38.8,483,37.1,482.8z"/>
			</g>
		</g>
	</g>
</g>
<g>
	<g>
		<g>
			<g>
				<g>
					
						<rect x="112.1" y="653.3" transform="matrix(2.788433e-02 -0.9996 0.9996 2.788433e-02 -541.4481 751.64)" class="st20" width="7.3" height="1.8"/>
				</g>
				<g>
					
						<rect x="111.6" y="653.7" transform="matrix(2.788433e-02 -0.9996 0.9996 2.788433e-02 -541.8674 751.184)" class="st21" width="7.3" height="0.9"/>
				</g>
			</g>
			<g>
				<g>
					<g>
						<polygon class="st22" points="108.7,653.1 116.1,640.1 122.7,653.5 						"/>
					</g>
					<g>
						<polygon class="st23" points="115.8,653.3 116.1,640.1 122.7,653.5 						"/>
					</g>
					<g>
						<polygon class="st22" points="120.1,648.2 115.9,648.1 116.1,640.1 						"/>
					</g>
					<g>
						<polygon class="st24" points="116.1,640.1 115.9,648.1 111.7,648 						"/>
					</g>
				</g>
				<g>
					<g>
						<polygon class="st22" points="110.4,647.5 116.2,637.4 121.3,647.8 						"/>
					</g>
					<g>
						<polygon class="st23" points="115.9,647.7 116.2,637.4 121.3,647.8 						"/>
					</g>
					<g>
						<polygon class="st22" points="119.3,643.7 116,643.6 116.2,637.4 						"/>
					</g>
					<g>
						<polygon class="st24" points="116.2,637.4 116,643.6 112.7,643.5 						"/>
					</g>
				</g>
				<g>
					<g>
						<polygon class="st22" points="120.4,643.3 111.6,643.1 113.3,640 116.3,634.9 118.9,640.2 						"/>
					</g>
					<g>
						<polygon class="st23" points="116,643.2 116.3,634.9 120.4,643.3 						"/>
					</g>
				</g>
			</g>
		</g>
		<g class="st25">
			<polygon class="st26" points="114.7,657.8 110.6,658.9 116.5,657.8 			"/>
		</g>
	</g>
	<g>
		<g>
			<g>
				<g>
					
						<rect x="123.4" y="651.6" transform="matrix(2.788433e-02 -0.9996 0.9996 2.788433e-02 -526.1711 765.5062)" class="st20" width="14.2" height="3.4"/>
				</g>
				<g>
					
						<rect x="122.5" y="652.4" transform="matrix(2.788433e-02 -0.9996 0.9996 2.788433e-02 -526.9632 764.6448)" class="st21" width="14.2" height="1.7"/>
				</g>
			</g>
			<g>
				<g>
					<g>
						<polygon class="st22" points="116.9,651.1 131.2,625.9 144.1,651.8 						"/>
					</g>
					<g>
						<polygon class="st23" points="130.5,651.5 131.2,625.9 144.1,651.8 						"/>
					</g>
					<g>
						<polygon class="st22" points="139,641.7 130.8,641.4 131.2,625.9 						"/>
					</g>
					<g>
						<polygon class="st24" points="131.2,625.9 130.8,641.4 122.6,641.2 						"/>
					</g>
				</g>
				<g>
					<g>
						<polygon class="st22" points="120.2,640.3 131.4,620.6 141.5,640.9 						"/>
					</g>
					<g>
						<polygon class="st23" points="130.8,640.6 131.4,620.6 141.5,640.9 						"/>
					</g>
					<g>
						<polygon class="st22" points="137.5,632.9 131,632.8 131.4,620.6 						"/>
					</g>
					<g>
						<polygon class="st24" points="131.4,620.6 131,632.8 124.6,632.6 						"/>
					</g>
				</g>
				<g>
					<g>
						<polygon class="st22" points="139.7,632.2 122.4,631.7 125.8,625.7 131.5,615.7 136.7,626 						"/>
					</g>
					<g>
						<polygon class="st23" points="131.1,631.9 131.5,615.7 139.7,632.2 						"/>
					</g>
				</g>
			</g>
		</g>
		<g class="st25">
			<polygon class="st26" points="128.6,660.3 120.5,662.6 132,660.4 			"/>
		</g>
	</g>
	<g>
		<g>
			<g>
				<g>
					
						<rect x="144.8" y="655.2" transform="matrix(2.788433e-02 -0.9996 0.9996 2.788433e-02 -512.3378 784.7682)" class="st20" width="5.1" height="1.2"/>
				</g>
				<g>
					
						<rect x="144.5" y="655.5" transform="matrix(2.788433e-02 -0.9996 0.9996 2.788433e-02 -512.6406 784.4389)" class="st21" width="5.1" height="0.6"/>
				</g>
			</g>
			<g>
				<g>
					<g>
						<polygon class="st22" points="142.5,655 147.6,646 152.2,655.3 						"/>
					</g>
					<g>
						<polygon class="st23" points="147.3,655.2 147.6,646 152.2,655.3 						"/>
					</g>
					<g>
						<polygon class="st22" points="150.4,651.7 147.4,651.6 147.6,646 						"/>
					</g>
					<g>
						<polygon class="st24" points="147.6,646 147.4,651.6 144.5,651.5 						"/>
					</g>
				</g>
				<g>
					<g>
						<polygon class="st22" points="143.6,651.2 147.6,644.1 151.3,651.4 						"/>
					</g>
					<g>
						<polygon class="st23" points="147.4,651.3 147.6,644.1 151.3,651.4 						"/>
					</g>
					<g>
						<polygon class="st22" points="149.9,648.5 147.5,648.5 147.6,644.1 						"/>
					</g>
					<g>
						<polygon class="st24" points="147.6,644.1 147.5,648.5 145.2,648.4 						"/>
					</g>
				</g>
				<g>
					<g>
						<polygon class="st22" points="150.6,648.2 144.4,648 145.6,645.9 147.7,642.3 149.5,646 						"/>
					</g>
					<g>
						<polygon class="st23" points="147.5,648.1 147.7,642.3 150.6,648.2 						"/>
					</g>
				</g>
			</g>
		</g>
		<g class="st25">
			<polygon class="st26" points="146.6,658.4 143.7,659.2 147.9,658.4 			"/>
		</g>
	</g>
	<g>
		<g>
			<g>
				<g>
					
						<rect x="155" y="651.8" transform="matrix(2.788433e-02 -0.9996 0.9996 2.788433e-02 -497.0965 794.8329)" class="st20" width="10.2" height="2.5"/>
				</g>
				<g>
					
						<rect x="154.4" y="652.4" transform="matrix(2.788433e-02 -0.9996 0.9996 2.788433e-02 -497.679 794.1996)" class="st21" width="10.2" height="1.2"/>
				</g>
			</g>
			<g>
				<g>
					<g>
						<polygon class="st22" points="150.4,651.4 160.7,633.4 169.9,652 						"/>
					</g>
					<g>
						<polygon class="st23" points="160.1,651.7 160.7,633.4 169.9,652 						"/>
					</g>
					<g>
						<polygon class="st22" points="166.3,644.6 160.3,644.5 160.7,633.4 						"/>
					</g>
					<g>
						<polygon class="st24" points="160.7,633.4 160.3,644.5 154.4,644.3 						"/>
					</g>
				</g>
				<g>
					<g>
						<polygon class="st22" points="152.7,643.7 160.8,629.5 168,644.1 						"/>
					</g>
					<g>
						<polygon class="st23" points="160.4,643.9 160.8,629.5 168,644.1 						"/>
					</g>
					<g>
						<polygon class="st22" points="165.2,638.4 160.5,638.3 160.8,629.5 						"/>
					</g>
					<g>
						<polygon class="st24" points="160.8,629.5 160.5,638.3 155.9,638.1 						"/>
					</g>
				</g>
				<g>
					<g>
						<polygon class="st22" points="166.7,637.8 154.3,637.4 156.8,633.2 160.9,626 164.6,633.4 						"/>
					</g>
					<g>
						<polygon class="st23" points="160.5,637.6 160.9,626 166.7,637.8 						"/>
					</g>
				</g>
			</g>
		</g>
		<g class="st25">
			<polygon class="st26" points="158.7,658.1 152.9,659.7 161.2,658.1 			"/>
		</g>
	</g>
</g>
<g>
	<g>
		<g>
			<g>
				
					<rect x="21" y="672.1" transform="matrix(2.788433e-02 -0.9996 0.9996 2.788433e-02 -646.6139 682.6163)" class="st20" width="13.3" height="3.2"/>
			</g>
			<g>
				
					<rect x="20.2" y="672.9" transform="matrix(2.788433e-02 -0.9996 0.9996 2.788433e-02 -647.3771 681.7864)" class="st21" width="13.3" height="1.6"/>
			</g>
		</g>
		<g>
			<g>
				<g>
					<polygon class="st22" points="14.9,671.7 28.3,648.2 40.4,672.4 					"/>
				</g>
				<g>
					<polygon class="st23" points="27.6,672.1 28.3,648.2 40.4,672.4 					"/>
				</g>
				<g>
					<polygon class="st22" points="35.6,662.9 27.9,662.7 28.3,648.2 					"/>
				</g>
				<g>
					<polygon class="st24" points="28.3,648.2 27.9,662.7 20.2,662.5 					"/>
				</g>
			</g>
			<g>
				<g>
					<polygon class="st22" points="18,661.6 28.4,643.2 37.9,662.2 					"/>
				</g>
				<g>
					<polygon class="st23" points="27.9,661.9 28.4,643.2 37.9,662.2 					"/>
				</g>
				<g>
					<polygon class="st22" points="34.2,654.7 28.1,654.5 28.4,643.2 					"/>
				</g>
				<g>
					<polygon class="st24" points="28.4,643.2 28.1,654.5 22.1,654.4 					"/>
				</g>
			</g>
			<g>
				<g>
					<polygon class="st22" points="36.2,654 20.1,653.5 23.3,647.9 28.5,638.6 33.4,648.2 					"/>
				</g>
				<g>
					<polygon class="st23" points="28.1,653.7 28.5,638.6 36.2,654 					"/>
				</g>
			</g>
		</g>
	</g>
	<g class="st25">
		<polygon class="st26" points="25.9,680.3 18.2,682.4 29,680.4 		"/>
	</g>
</g>
<g>
	<g>
		<g>
			<g>
				
					<rect x="41.6" y="669" transform="matrix(2.788433e-02 -0.9996 0.9996 2.788433e-02 -618.8118 707.8508)" class="st20" width="25.9" height="6.2"/>
			</g>
			<g>
				
					<rect x="40.1" y="670.5" transform="matrix(2.788433e-02 -0.9996 0.9996 2.788433e-02 -620.2534 706.2833)" class="st21" width="25.9" height="3.1"/>
			</g>
		</g>
		<g>
			<g>
				<g>
					<polygon class="st22" points="29.9,668.1 55.9,622.3 79.3,669.4 					"/>
				</g>
				<g>
					<polygon class="st23" points="54.6,668.8 55.9,622.3 79.3,669.4 					"/>
				</g>
				<g>
					<polygon class="st22" points="70.1,650.9 55.1,650.5 55.9,622.3 					"/>
				</g>
				<g>
					<polygon class="st24" points="55.9,622.3 55.1,650.5 40.1,650.1 					"/>
				</g>
			</g>
			<g>
				<g>
					<polygon class="st22" points="35.8,648.5 56.1,612.6 74.5,649.5 					"/>
				</g>
				<g>
					<polygon class="st23" points="55.1,649 56.1,612.6 74.5,649.5 					"/>
				</g>
				<g>
					<polygon class="st22" points="67.3,635 55.5,634.7 56.1,612.6 					"/>
				</g>
				<g>
					<polygon class="st24" points="56.1,612.6 55.5,634.7 43.8,634.4 					"/>
				</g>
			</g>
			<g>
				<g>
					<polygon class="st22" points="71.3,633.6 39.9,632.8 46,621.9 56.4,603.6 65.8,622.4 					"/>
				</g>
				<g>
					<polygon class="st23" points="55.6,633.2 56.4,603.6 71.3,633.6 					"/>
				</g>
			</g>
		</g>
	</g>
	<g class="st25">
		<polygon class="st26" points="51.1,684.9 36.3,689.1 57.3,685.1 		"/>
	</g>
</g>
<g>
	<g>
		<g>
			<g>
				
					<rect x="395.2" y="663.2" transform="matrix(2.788433e-02 -0.9996 0.9996 2.788433e-02 -268.8701 1056.3859)" class="st20" width="27.1" height="6.5"/>
			</g>
			<g>
				
					<rect x="393.5" y="664.7" transform="matrix(2.788433e-02 -0.9996 0.9996 2.788433e-02 -270.4133 1054.7079)" class="st21" width="27.1" height="3.3"/>
			</g>
		</g>
		<g>
			<g>
				<g>
					<polygon class="st22" points="382.9,662.2 410.1,614.5 434.6,663.7 					"/>
				</g>
				<g>
					<polygon class="st23" points="408.8,663 410.1,614.5 434.6,663.7 					"/>
				</g>
				<g>
					<polygon class="st22" points="425,644.3 409.3,643.9 410.1,614.5 					"/>
				</g>
				<g>
					<polygon class="st24" points="410.1,614.5 409.3,643.9 393.6,643.4 					"/>
				</g>
			</g>
			<g>
				<g>
					<polygon class="st22" points="389.1,641.7 410.4,604.3 429.5,642.9 					"/>
				</g>
				<g>
					<polygon class="st23" points="409.4,642.3 410.4,604.3 429.5,642.9 					"/>
				</g>
				<g>
					<polygon class="st22" points="422.1,627.7 409.8,627.4 410.4,604.3 					"/>
				</g>
				<g>
					<polygon class="st24" points="410.4,604.3 409.8,627.4 397.5,627.1 					"/>
				</g>
			</g>
			<g>
				<g>
					<polygon class="st22" points="426.2,626.2 393.4,625.2 399.8,613.9 410.7,594.8 420.4,614.5 					"/>
				</g>
				<g>
					<polygon class="st23" points="409.8,625.7 410.7,594.8 426.2,626.2 					"/>
				</g>
			</g>
		</g>
	</g>
	<g class="st25">
		<polygon class="st26" points="405.1,679.9 389.6,684.2 411.5,680 		"/>
	</g>
</g>
<g>
	<g>
		<path class="st27" d="M369.7,661.1c0.6-1.6,0.2-3.5-0.5-5c1.1,0.1,2.1,0.6,2.8,1.4c0.7,0.8,1,1.9,0.9,3c0.5-0.7,0.7-1.6,0.6-2.5
			c0.6,0.9,0.9,2.1,0.8,3.3c-0.2,1.1-0.7,2.2-1.6,2.9c-1.2,1-2.8,1.4-4.4,1.5c-0.6,0.1-1.7,0.1-2.1-0.5c-0.4-0.6,0.3-1.1,0.8-1.3
			C368.2,663.3,369.2,662.5,369.7,661.1z"/>
		<path class="st28" d="M360.1,678.6c0.4,0.9,1.1,1.5,1.7,2.2s1.2,1.5,1.4,2.4c0.1,0.8-0.2,1.6-0.5,2.3c-0.7,1.8-1.3,3.5-2,5.3
			l1.7-0.1c1.6-2.1,3-4.3,4-6.8c0.2-0.5,0.4-1,0.3-1.5c-0.1-0.4-0.3-0.7-0.5-1c-0.6-1-0.9-2.2-0.7-3.4
			C363.7,677.7,361.9,678,360.1,678.6z"/>
		<path class="st27" d="M342.9,662.4c1.6,2.6,2,5.9,1.2,8.8c-1,3.5,0,7.3,1.1,10.7c1.1,3.4,2.5,6.9,2.4,10.5c0.5,0,1-0.1,1.5-0.2
			c0.1-3.4-0.3-7-0.8-10.4c-0.1-0.6,0.3-1.2,1-1.3c1.1-0.2,2.2-0.3,3.3-0.4c0.6,0,1.1,0.4,1.2,0.9c0.7,3.6,1.1,7.3,1,10.9
			c0.5-0.1,1.3-0.2,1.9-0.3c0.1-1.4,0.7-7.1,0.6-11.9c2.3,0.1,4.7-0.3,7-1c1.1-0.3,2.3,0,3.1,0.9c0.2,0.2,0.5,0.5,0.7,0.7
			c0.7,0.7,1.5,1.4,1.6,2.4c0,0.6-0.2,1.2-0.5,1.8c-0.9,1.9-1.7,3.9-2.4,5.9c0.8,0,1.4,0,2.2-0.3c0.3-0.9,0.6-1.4,0.9-2
			c1.3-2.7,2.2-5.3,3.4-8.1c0.3-0.8,0.7-1.6,0.5-2.4c-0.3-1.1-1.4-1.8-2.1-2.7c-2.2-3.1,1.3-8.1-2.7-10.6c-0.5-0.3-1.1-0.5-1.7-0.7
			c-3.9-0.9-7.9,0.6-11.2,2.7c-1.2,0.8-2.6,1.6-4,0.9c-0.7-0.4-1.2-1.1-1.4-1.8c-0.4-1.6,0.3-3.1,0.9-4.6
			C348.7,662,345.8,662.8,342.9,662.4z"/>
		<path class="st29" d="M352.5,680.1c0.4,0,0.8,0.2,1,0.5c-0.1-0.3-0.2-0.5-0.3-0.7c-0.4-0.8-0.8-1.6-1.2-2.3
			c-0.9-1.7-1.8-3.4-2.7-5.1c-0.3-0.5-0.6-1-1.2-1c-0.5,0-0.8,0.6-1,1.1c-0.5,1.5-0.5,3-0.4,4.6c0.1,1.2,0.3,2.5,0.9,3.6
			c0.1,0.3,0.3,0.6,0.5,0.8c0-0.5,0.4-1,1-1C350.3,680.3,351.4,680.2,352.5,680.1z"/>
		<path class="st28" d="M350.8,666.3c-0.1-0.2-0.2-0.4-0.2-0.7c-0.4-1.6,0.3-3.1,0.9-4.6c-2.7,1-5.7,1.8-8.6,1.4
			c0.5,0.8,0.9,1.6,1.1,2.5C346,666,348.5,666.5,350.8,666.3z"/>
		<path class="st30" d="M359.5,666c-0.1,0.1-0.3,0.2-0.2,0.4c0,0.1,0.1,0.2,0.2,0.2c0.1,0,0.2,0,0.3,0c0.4,0,0.8,0,1.2-0.1
			c0.4-0.1,0.8-0.2,1.1-0.5c0.1-0.1,0.2-0.1,0.2-0.2c0.1-0.2-0.2-0.4-0.4-0.4C361,665.2,360.2,665.5,359.5,666z"/>
		<path class="st30" d="M357.9,667.8c-0.1,0.1-0.2,0.2-0.2,0.3c0,0.1,0.1,0.2,0.2,0.2c0.1,0,0.2,0,0.3,0c0.3,0,0.6,0,1-0.1
			c0.3-0.1,0.6-0.2,0.9-0.4c0.1-0.1,0.1-0.1,0.1-0.2c0-0.2-0.2-0.3-0.3-0.4C359.1,667.2,358.4,667.4,357.9,667.8z"/>
	</g>
	<g>
		<g>
			<path class="st27" d="M357.6,645.7c2.1,0.1,4.2-0.5,6.3-0.9c0.3-0.1,0.6-0.1,0.8,0.1c0.1,0.1,0.2,0.3,0.2,0.5
				c0.4,2.3-0.7,4.8-2.6,6.1c-1.9,1.3-4.6,1.3-6.6,0.1c-1.5-0.9-2.6-2.4-3.4-3.9c-0.3-0.5-0.5-1.2-0.1-1.7c0.5-0.6,1.4-0.5,2.1-0.5
				C355.5,645.5,356.6,645.7,357.6,645.7z"/>
			<path class="st29" d="M364.9,645.2c-0.3,0.3-0.5,0.8-0.8,1.1c-0.5,0.4-1,0.7-1.6,0.9c-2,0.9-4.3,1.2-6.5,1
				c-0.5-0.1-1-0.1-1.4-0.1c-0.5,0-1,0.2-1.3,0.5c-0.1,0.1-0.2,0.2-0.2,0.3c0.7,1.1,1.6,2.1,2.7,2.8c2,1.2,4.7,1.2,6.6-0.1
				c1.9-1.3,3-3.8,2.6-6.1C365,645.3,365,645.3,364.9,645.2z"/>
			<path class="st31" d="M364.9,645.2c-0.3,0.3-0.5,0.8-0.8,1.1c-0.5,0.4-1,0.7-1.6,0.9c-2,0.9-4.3,1.2-6.5,1
				c-0.5-0.1-1-0.1-1.4-0.1c-0.5,0-1,0.2-1.3,0.5c0,0,0,0,0,0c0,0.2,0.1,0.5,0.1,0.7c0,0,0,0,0,0c0.7,0.9,1.5,1.8,2.4,2.3
				c0.5,0.3,1.1,0.5,1.6,0.7c-0.1-0.1-0.2-0.3-0.2-0.4c-0.2-0.7,0-1.5,0.5-2c0.7-0.6,1.8-0.6,2.7-0.7c1.3-0.1,2.6-0.4,3.7-1.1
				c0.3-0.3,0.6-0.6,0.9-0.9c0.1-0.5,0.1-1.1,0-1.6C365,645.3,365,645.3,364.9,645.2z"/>
		</g>
		<g>
			<path class="st27" d="M330.6,651c-1.9,0.9-4.1,1.1-6.2,1.5c-0.3,0.1-0.6,0.1-0.7,0.4c-0.1,0.2,0,0.4,0,0.5
				c0.5,2.3,2.4,4.2,4.7,4.6c2.3,0.5,4.8-0.5,6.2-2.4c1-1.4,1.5-3.2,1.7-4.9c0.1-0.6,0-1.3-0.6-1.6c-0.7-0.4-1.5,0.1-2.1,0.3
				C332.6,650,331.6,650.6,330.6,651z"/>
			<path class="st29" d="M323.7,653.2c0.4,0.2,0.8,0.6,1.1,0.7c0.6,0.2,1.2,0.3,1.8,0.3c2.2,0.1,4.5-0.5,6.4-1.5
				c0.4-0.2,0.8-0.5,1.3-0.6c0.5-0.2,1-0.2,1.4,0c0.1,0,0.2,0.1,0.3,0.2c-0.3,1.3-0.7,2.6-1.5,3.6c-1.4,1.9-3.9,2.8-6.2,2.4
				c-2.3-0.5-4.2-2.4-4.7-4.6C323.7,653.4,323.7,653.3,323.7,653.2z"/>
			<path class="st31" d="M323.7,653.2c0.4,0.2,0.8,0.6,1.1,0.7c0.6,0.2,1.2,0.3,1.8,0.3c2.2,0.1,4.5-0.5,6.4-1.5
				c0.4-0.2,0.8-0.5,1.3-0.6c0.5-0.2,1-0.2,1.4,0c0,0,0,0,0,0c0.1,0.2,0.1,0.4,0.2,0.7c0,0,0,0,0,0c-0.3,1.1-0.7,2.2-1.4,3.1
				c-0.4,0.5-0.8,0.9-1.3,1.3c0-0.2,0-0.3,0-0.5c-0.1-0.7-0.6-1.4-1.3-1.7c-0.9-0.3-1.9,0.1-2.8,0.4c-1.2,0.4-2.6,0.7-3.8,0.3
				c-0.4-0.1-0.8-0.3-1.2-0.5c-0.3-0.5-0.5-1-0.6-1.5C323.7,653.4,323.7,653.3,323.7,653.2z"/>
		</g>
		<path class="st32" d="M350.1,644.2c1.1-0.2,2.1-0.5,3-1.2c0.9-0.6,1.5-1.7,1.4-2.7c-0.1-0.8-0.5-1.6-1-2.2c-0.5-0.7-1-1.3-1.2-2.1
			c-0.2-0.8-0.1-1.8,0.6-2.2c0.3-0.2,0.6,0,0.8,0.4c0.1,0.3,0.1,0.7,0.1,1c0,0.7,0.3,1.4,0.9,1.9c0.5,0.5,1.3,0.8,2,0.7
			c1.3-0.2,2.2-1.5,2.3-2.8c0.3-1.8-0.5-3.7-1.9-4.8c-0.8-0.6-1.8-1-2.5-1.8c-0.7-0.7-1-1.7-1-2.6c0-0.5,0.3-1.1,0.8-1.1
			c0.3,0,0.6,0.3,0.7,0.5c0.1,0.3,0.2,0.6,0.2,0.9c0.2,0.9,0.9,1.7,1.7,2.1c0.3,0.1,0.7,0.2,1,0.2s0.7-0.3,0.8-0.6
			c0.1-0.4,0-0.8-0.3-1.1s-0.5-0.5-0.8-0.8c-0.2-0.2-0.5-0.6-0.3-0.9c0.2-0.2,0.5-0.2,0.7-0.2c0.9,0.2,1.7,0.7,2.2,1.4
			c0.5,0.8,0.7,1.7,0.4,2.6c-0.2,0.6-0.5,1.2-0.5,1.9c-0.1,0.9,0.4,1.7,0.6,2.6c0.2,1.4-0.5,2.7-1.4,3.9c-0.8,1.1-1.8,2.2-2.2,3.6
			c-0.1,0.3-0.1,0.7,0.1,1c0.2,0.1,0.4,0.2,0.6,0.2c0.9,0.1,1.9-0.2,2.6-0.9c0.7-0.6,1.1-1.5,1.2-2.5c0-0.3,0-0.6,0.1-0.9
			s0.4-0.6,0.7-0.5c0.3,0.1,0.5,0.5,0.5,0.8c0.2,1.6-0.3,3.2-1.4,4.4c-1,1.2-2.6,1.9-4.2,1.9c-1,0-2.1-0.2-3,0.1
			c-0.5,0.2-0.9,0.5-1.4,0.8c-0.4,0.3-0.9,0.6-1.4,0.8c-0.5,0.2-1.1,0.1-1.5-0.2C349.9,645.4,349.8,644.6,350.1,644.2z"/>
		<path class="st32" d="M337,646.7c-1.1,0.2-2.2,0.3-3.2,0c-1-0.3-2-1-2.3-2c-0.3-0.8-0.1-1.6,0.1-2.4c0.2-0.8,0.4-1.6,0.3-2.4
			c-0.1-0.8-0.6-1.7-1.4-1.8c-0.3-0.1-0.5,0.3-0.6,0.6c0,0.3,0.1,0.7,0.2,1c0.2,0.7,0.2,1.5-0.1,2.1c-0.3,0.7-0.9,1.2-1.6,1.4
			c-1.3,0.3-2.6-0.6-3.2-1.7c-0.9-1.5-0.9-3.6,0-5.1c0.5-0.9,1.3-1.6,1.7-2.6c0.4-0.9,0.3-1.9-0.1-2.8c-0.2-0.4-0.7-0.9-1.1-0.7
			c-0.3,0.1-0.4,0.5-0.5,0.8c0,0.3,0.1,0.6,0.1,0.9c0.1,0.9-0.2,1.9-0.8,2.6c-0.2,0.3-0.6,0.5-0.9,0.6c-0.3,0.1-0.7,0-1-0.3
			c-0.3-0.3-0.3-0.7-0.2-1.1c0.1-0.4,0.3-0.7,0.4-1.1c0.1-0.3,0.2-0.8-0.1-0.9c-0.2-0.1-0.5,0-0.7,0.1c-0.8,0.5-1.3,1.3-1.5,2.2
			c-0.2,0.9,0,1.8,0.6,2.6c0.4,0.5,0.9,0.9,1.2,1.5c0.4,0.8,0.2,1.7,0.4,2.6c0.3,1.4,1.5,2.4,2.7,3.1s2.5,1.4,3.4,2.5
			c0.2,0.3,0.4,0.6,0.3,0.9c-0.1,0.2-0.3,0.3-0.5,0.4c-0.8,0.4-1.8,0.5-2.7,0.2c-0.9-0.3-1.6-1-2-1.8c-0.1-0.3-0.2-0.6-0.4-0.8
			c-0.2-0.2-0.6-0.4-0.8-0.2c-0.3,0.2-0.3,0.6-0.2,1c0.4,1.5,1.5,2.9,2.9,3.6c1.4,0.7,3.1,0.8,4.6,0.2c0.9-0.4,1.8-1,2.8-1.1
			c0.5,0,1.1,0.1,1.6,0.3c0.5,0.1,1.1,0.3,1.6,0.2c0.5,0,1.1-0.3,1.3-0.8C337.7,647.8,337.5,646.9,337,646.7z"/>
		<path class="st27" d="M335.5,658.4c0.8,2,2.3,3.6,4.2,4.5c0.8,0.4,1.6,0.7,2.4,0.9c3,0.8,6.4,0.5,9.2-1.1c1.1-0.6,2-1.4,2.9-2.3
			c0.1-0.1,0.2-0.2,0.3-0.4c1.2-1.6,1.8-3.7,1.8-5.7c0-0.9-0.1-1.7-0.2-2.6c-0.3-2.4-1.2-4.7-2.8-6.5c-1.5-1.7-3.7-2.8-6-3.1
			s-4.6,0.1-6.7,1.1c-2,0.9-3.8,2.4-4.9,4.3C333.8,650.9,334.1,655,335.5,658.4L335.5,658.4z"/>
		<path class="st29" d="M352.3,649.3c-2,0.9-3.7,3.5-3.8,5.7c0,1-0.1,4.9,0.1,5.7c-0.7,0.8-2.6,1.2-3,0.3c-0.8-1.8-1.7-3.7-3-5.2
			c-1.3-1.6-3-2.8-5-3.2c-1.2-0.2-2.5,0-3.4,0.8c0.1,1.7,0.4,3.5,1.1,5.1l0,0c0.8,2,2.3,3.6,4.2,4.5c0.8,0.4,1.6,0.7,2.4,0.9
			c3,0.8,6.4,0.5,9.2-1.1c1.1-0.6,2-1.4,2.9-2.3c0.1-0.1,0.2-0.2,0.3-0.4c1.2-1.6,1.8-3.7,1.8-5.7c0-0.9-0.1-1.7-0.2-2.6
			c-0.1-1.1-0.4-2.1-0.8-3.1C354.2,648.7,353.2,648.8,352.3,649.3z"/>
		<g>
			<g>
				<g>
					<path class="st30" d="M343,653.3c0.4,0.7,0.8,1.5,1.2,2.2c0.1,0.1,0.3,0,0.2-0.1c-0.4-0.7-0.8-1.4-1.2-2.2
						C343.1,653.1,342.9,653.2,343,653.3L343,653.3z"/>
				</g>
				<g>
					<path class="st30" d="M344.6,652.7c0.1,0.6,0.3,1.3,0.5,1.9c0,0.2,0.3,0.1,0.3,0c-0.2-0.6-0.3-1.3-0.5-1.9
						C344.8,652.5,344.6,652.6,344.6,652.7L344.6,652.7z"/>
				</g>
				<g>
					<path class="st30" d="M346,652.5c0.1,0.6,0.2,1.3,0.3,1.9c0,0.2,0.3,0.1,0.3,0c-0.1-0.6-0.2-1.3-0.3-1.9
						C346.2,652.3,346,652.3,346,652.5L346,652.5z"/>
				</g>
				<g>
					<path class="st30" d="M347.6,652.2c0.1,0.8,0.1,1.6,0.1,2.5c0,0.2,0.3,0.2,0.3,0c0-0.8,0-1.7-0.1-2.5
						C347.8,651.9,347.5,652,347.6,652.2L347.6,652.2z"/>
				</g>
				<g>
					<path class="st30" d="M346.4,649.6c0.1,0.7,0.1,1.3,0.1,2c0,0.2,0.3,0.2,0.3,0c0-0.7-0.1-1.4-0.1-2
						C346.7,649.4,346.4,649.4,346.4,649.6L346.4,649.6z"/>
				</g>
				<g>
					<path class="st30" d="M344.9,650.2c0.1,0.6,0.2,1.1,0.2,1.7c0,0.2,0.3,0.2,0.3,0c0-0.6-0.1-1.2-0.2-1.7
						C345.1,650,344.9,650.1,344.9,650.2L344.9,650.2z"/>
				</g>
				<g>
					<path class="st30" d="M343.2,650.7c0.1,0.5,0.2,1,0.3,1.5c0,0.2,0.3,0.1,0.3,0c-0.1-0.5-0.2-1-0.3-1.5
						C343.4,650.5,343.2,650.6,343.2,650.7L343.2,650.7z"/>
				</g>
				<g>
					<path class="st30" d="M341.1,651.9c0.4,0.5,0.9,0.9,1.3,1.4c0.1,0.1,0.3-0.1,0.2-0.2c-0.5-0.5-0.9-0.9-1.3-1.4
						C341.2,651.6,341,651.8,341.1,651.9L341.1,651.9z"/>
				</g>
				<g>
					<path class="st30" d="M348.8,649.8c-0.2,0.7-0.3,1.3-0.3,2c0,0.2,0.3,0.2,0.3,0c0-0.7,0.1-1.3,0.3-2
						C349.1,649.7,348.8,649.6,348.8,649.8L348.8,649.8z"/>
				</g>
				<g>
					<path class="st30" d="M347.6,648.3c-0.1,0.5-0.1,1.1-0.1,1.6c0,0.2,0.2,0.2,0.3,0c0-0.5,0.1-1.1,0.1-1.6
						C347.8,648.2,347.6,648.2,347.6,648.3L347.6,648.3z"/>
				</g>
				<g>
					<path class="st30" d="M341.3,649.6c0.3,0.4,0.6,0.9,0.8,1.3c0.1,0.1,0.3,0,0.2-0.1c-0.3-0.4-0.5-0.9-0.8-1.3
						C341.4,649.3,341.2,649.5,341.3,649.6L341.3,649.6z"/>
				</g>
				<g>
					<path class="st30" d="M343.5,648.5c0.1,0.4,0.3,0.8,0.4,1.3c0.1,0.2,0.3,0.1,0.3,0c-0.1-0.4-0.3-0.8-0.4-1.3
						C343.7,648.3,343.4,648.4,343.5,648.5L343.5,648.5z"/>
				</g>
				<g>
					<path class="st30" d="M345.2,648.1c0.1,0.4,0.2,0.9,0.3,1.3c0,0.2,0.3,0.1,0.3,0c-0.1-0.4-0.2-0.9-0.3-1.3
						C345.4,647.9,345.2,648,345.2,648.1L345.2,648.1z"/>
				</g>
				<g>
					<path class="st30" d="M349.7,649.5c0.4-0.5,0.9-1,1.4-1.4c0.1-0.1,0-0.3-0.2-0.2c-0.5,0.4-1,0.9-1.5,1.4
						C349.4,649.5,349.6,649.7,349.7,649.5L349.7,649.5z"/>
				</g>
				<g>
					<path class="st30" d="M340.1,651.3c-0.5-0.5-1.1-0.8-1.6-1.2c-0.1-0.1-0.3,0.1-0.1,0.2c0.6,0.3,1.1,0.6,1.6,1.1
						C340,651.6,340.2,651.4,340.1,651.3L340.1,651.3z"/>
				</g>
				<g>
					<path class="st30" d="M340.4,650.1c-0.1-0.3-0.3-0.5-0.5-0.7c-0.2-0.3-0.4-0.5-0.6-0.8c-0.1-0.1-0.3,0-0.2,0.2
						c0.2,0.2,0.4,0.4,0.6,0.7c0.2,0.2,0.4,0.4,0.5,0.7C340.2,650.3,340.5,650.2,340.4,650.1L340.4,650.1z"/>
				</g>
				<g>
					<path class="st30" d="M342.3,648.6c-0.2-0.4-0.5-0.8-0.7-1.2c-0.1-0.2-0.3,0-0.2,0.1c0.2,0.4,0.5,0.8,0.7,1.2
						C342.2,648.8,342.4,648.7,342.3,648.6L342.3,648.6z"/>
				</g>
				<g>
					<path class="st30" d="M344.6,647.9c-0.1-0.4-0.2-0.8-0.2-1.3c0-0.2-0.3-0.1-0.3,0c0.1,0.4,0.2,0.8,0.2,1.3
						C344.4,648.1,344.6,648.1,344.6,647.9L344.6,647.9z"/>
				</g>
				<g>
					<path class="st30" d="M346.8,647.6c0-0.6,0.1-1.2,0.2-1.8c0-0.2-0.2-0.2-0.2-0.1c-0.1,0.6-0.2,1.2-0.2,1.8
						C346.5,647.8,346.8,647.8,346.8,647.6L346.8,647.6z"/>
				</g>
				<g>
					<path class="st30" d="M349.1,647.9c0.3-0.5,0.4-1.1,0.7-1.5c0.1-0.1-0.1-0.3-0.2-0.1c-0.4,0.4-0.5,1-0.7,1.5
						C348.8,647.9,349,648,349.1,647.9L349.1,647.9z"/>
				</g>
			</g>
		</g>
		<path class="st31" d="M352.3,649.3c-0.3,0.2-0.7,0.4-1,0.6c0.3-0.1,0.5-0.2,0.7-0.2c0.4-0.1,0.9-0.1,1.3,0.2
			c0.5,0.3,0.7,0.9,0.9,1.5c0.6,2.2,0.5,4.6-0.2,6.9c-0.5,1.6-1.3,3.1-2.4,4.4c0.9-0.6,1.8-1.3,2.5-2.1c0.1-0.1,0.2-0.2,0.3-0.4
			c1.2-1.6,1.8-3.7,1.8-5.7c0-0.9-0.1-1.7-0.2-2.6c-0.1-1.1-0.4-2.1-0.8-3.1C354.2,648.7,353.2,648.8,352.3,649.3z"/>
		<path class="st31" d="M340.9,656.7c0.1,0.1,0.3,0.2,0.5,0.2c1.5,0.3,2.8,1.4,3.4,2.8c0.1-0.1,0.1-0.2,0.1-0.3
			c-0.6-1.3-1.4-2.6-2.3-3.8c-1.3-1.6-3-2.8-5-3.2c-0.9-0.1-1.8-0.1-2.6,0.3c0.3,0,0.7-0.2,1-0.2c0.6,0,1.2,0,1.7,0.2
			c0.8,0.3,1.5,0.8,1.7,1.5c0.1,0.3,0.1,0.6,0.3,0.8c0.2,0.2,0.4,0.2,0.5,0.4C340.7,655.8,340.5,656.4,340.9,656.7z"/>
		<path class="st32" d="M349.2,658.7c-0.2-0.2-0.4-0.3-0.7-0.4c-0.6-0.2-1.2-0.3-1.8-0.3c-2.3,0.3-2.8,1.5-2.3,2.3
			c0.3,0.4,0.7,0.7,1.1,1c0.6,0.4,1.3,0.7,1.9,0.5c0.7-0.2,1.2-0.9,1.5-1.6c0.1-0.2,0.3-0.5,0.3-0.7
			C349.4,659.2,349.3,658.9,349.2,658.7z"/>
		<g>
			<path class="st32" d="M352.2,654.4c-0.1,0.8-0.9,1.4-1.7,1.3c-0.8-0.1-1.4-0.9-1.3-1.7c0.1-0.8,0.9-1.4,1.7-1.3
				C351.7,652.8,352.3,653.6,352.2,654.4z"/>
			<path class="st33" d="M351,653.7c0,0.3-0.3,0.6-0.7,0.5c-0.3,0-0.6-0.3-0.5-0.7c0-0.3,0.3-0.6,0.7-0.5
				C350.8,653.1,351,653.4,351,653.7z"/>
		</g>
		<g>
			<path class="st32" d="M341.5,656.5c-0.1,0.8-0.9,1.4-1.7,1.3c-0.8-0.1-1.4-0.9-1.3-1.7c0.1-0.8,0.9-1.4,1.7-1.3
				S341.6,655.7,341.5,656.5z"/>
			<path class="st33" d="M340.3,655.8c0,0.3-0.3,0.6-0.7,0.5c-0.3,0-0.6-0.3-0.5-0.7c0-0.3,0.3-0.6,0.7-0.5
				C340.1,655.2,340.3,655.5,340.3,655.8z"/>
		</g>
	</g>
</g>
</svg>
