<?xml version="1.0" encoding="utf-8"?>
<!-- Generator: Adobe Illustrator 23.0.1, SVG Export Plug-In . SVG Version: 6.00 Build 0)  -->
<svg version="1.1" id="Livello_1" xmlns="http://www.w3.org/2000/svg" xmlns:xlink="http://www.w3.org/1999/xlink" x="0px" y="0px"
	 viewBox="0 0 450 799.5" style="enable-background:new 0 0 450 799.5;" xml:space="preserve">
<style type="text/css">
	.st0{fill:#91BCDB;}
	.st1{fill:url(#SVGID_1_);}
	.st2{fill:#C9CDC5;}
	.st3{fill:#BCBFB8;}
	.st4{fill:#FFFFFF;}
	.st5{fill:#F0EFF0;}
	.st6{fill:#7D7D7C;}
	.st7{fill:#9F9F9D;}
	.st8{fill:#5E5F5F;}
	.st9{fill:#858C8C;}
	.st10{fill:#E2E2E2;}
	.st11{fill:#F1F9FD;}
	.st12{fill:#B36535;}
	.st13{fill:#A45130;}
	.st14{fill:#5AB160;}
	.st15{fill:#74B96C;}
	.st16{fill:#559850;}
	.st17{opacity:0.1;}
	.st18{fill:#1B3F51;}
	.st19{fill:#F7EE7A;}
	.st20{fill:#DD4339;}
	.st21{fill:#4E7FBD;}
	.st22{fill:#C2A48D;}
	.st23{fill:#E8D7C5;}
	.st24{fill:#F7E6D5;}
	.st25{fill:#A62F2C;}
	.st26{fill:#632F22;}
	.st27{fill:#C73531;}
	.st28{fill:#135C3F;}
	.st29{fill:#F8F7F3;}
	.st30{fill:#134B32;}
	.st31{fill:#DF5635;}
	.st32{fill:#EA9671;}
	.st33{fill:#763522;}
	.st34{fill:#4F2B14;}
</style>
<rect class="st0" width="450" height="799.5"/>
<g>
	<linearGradient id="SVGID_1_" gradientUnits="userSpaceOnUse" x1="161.2" y1="919.3" x2="161.2" y2="-23">
		<stop  offset="0" style="stop-color:#72838D"/>
		<stop  offset="1" style="stop-color:#3C3C3C"/>
	</linearGradient>
	<rect x="-303.9" y="-23" class="st1" width="930.2" height="942.3"/>
</g>
<g>
	<g>
		<polygon class="st2" points="-303.9,677.7 -171.7,677.7 -198.1,345.7 -303.9,563.2 		"/>
	</g>
	<g>
		<polygon class="st3" points="-197.8,345 -198.1,345.7 -171.7,677.7 -50.1,677.7 		"/>
	</g>
	<g>
		<polygon class="st4" points="-249.3,451 -223.7,427.1 -216.3,456 -198.1,435.2 -188.4,468.4 -197.8,345 		"/>
	</g>
	<g>
		<polygon class="st5" points="-152.5,447 -166,438.1 -167.4,459 -183.7,441.7 -188.4,468.4 -197.8,345 		"/>
	</g>
</g>
<g>
	<g>
		<polygon class="st2" points="-206.3,677.7 -66.4,677.7 -93.3,469.4 		"/>
	</g>
	<g>
		<polygon class="st3" points="-92.7,468.4 -93.3,469.4 -66.4,677.7 6.8,677.7 		"/>
	</g>
	<g>
		<polygon class="st4" points="-122.1,522.5 -106.3,511.4 -102.2,539.9 -93.3,525.7 -83.5,545.1 -93.3,469.4 		"/>
	</g>
	<g>
		<polygon class="st5" points="-66.4,523.6 -76.2,516.2 -83.5,545.1 -93.3,469.4 -92.7,468.4 		"/>
	</g>
</g>
<g>
	<g>
		<polygon class="st6" points="268.5,678.4 352.4,678.4 374.8,445.8 		"/>
	</g>
	<g>
		<polygon class="st7" points="376,443 374.8,445.8 352.4,678.4 489.6,678.4 		"/>
	</g>
	<g>
		<polygon class="st5" points="344.3,512.6 361.8,497.8 368.5,510.9 374.8,445.8 		"/>
	</g>
	<g>
		<polygon class="st4" points="376,443 405.1,503.2 383.1,487.5 368.5,510.9 374.8,445.8 		"/>
	</g>
</g>
<g>
	<g>
		<polygon class="st8" points="367,678.4 490.8,678.4 528.8,307.5 		"/>
	</g>
	<g>
		<polygon class="st2" points="627.3,511.3 530.8,302.9 528.8,307.5 490.8,678.4 627.3,678.4 		"/>
	</g>
	<g>
		<polygon class="st5" points="496,382.7 512.5,365.2 520.7,386.7 528.8,307.5 		"/>
	</g>
	<g>
		<polygon class="st4" points="530.8,302.9 571.1,390 553,366.8 548.8,386.7 534,361.2 520.7,386.7 528.8,307.5 		"/>
	</g>
</g>
<g>
	<g>
		<polygon class="st7" points="259,511.4 258.1,513.1 222.9,677.7 332.3,677.7 		"/>
	</g>
	<g>
		<polygon class="st6" points="177.6,677.7 222.9,677.7 258.1,513.1 		"/>
	</g>
	<g>
		<polygon class="st5" points="241.9,546.3 258.1,513.1 250.8,547.5 249.1,539.9 		"/>
	</g>
	<g>
		<polygon class="st4" points="259,511.4 273.1,543.4 264.4,536 263.7,546.1 257.6,535.6 250.8,547.5 258.1,513.1 		"/>
	</g>
</g>
<g>
	<g>
		<path class="st9" d="M-83.5,677.7c0,0,69.8-87.4,116.5-72.1c46.7,15.3,84.5,72.1,84.5,72.1H-83.5z"/>
	</g>
	<g>
		<path class="st9" d="M32.9,613.1c36.2,11.9,84.5,64.6,84.5,64.6s-37.8-56.7-84.5-72c-46.6-15.3-116.4,72-116.4,72
			S-5.3,600.6,32.9,613.1z"/>
	</g>
</g>
<g>
	<rect x="-303.9" y="678.4" class="st4" width="930.2" height="193.9"/>
</g>
<g>
	<path class="st4" d="M626.3,812.1v107.2h-930.2V734.7c52,0.4,104,4.8,155.3,13.4l234.3,39L256,817.2
		C379.1,838.9,504.9,837,626.3,812.1z"/>
</g>
<g>
	<path class="st10" d="M627.3,641.6l-1,183.6h-930.2V640.6c52,0.4,104,4.8,155.3,13.4l234.3,39l176,3.5
		C384.8,718.2,505.9,666.5,627.3,641.6z"/>
</g>
<g>
	<path class="st11" d="M626.3,860.7c-72.7,21.1-167.7,14.7-242.6,4S234.5,837.1,158.9,833c-54.2-2.9-108.6,0.8-162.8,4.6
		c-100.7,7-199.3-46.5-300-39.5v121.3h930.2V860.7z"/>
</g>
<g>
	<g>
		<path class="st9" d="M258.1,677.7c0,0-46.4-49.2-107.6-45.9C95.8,634.7,6.7,677.7,6.7,677.7H258.1z"/>
	</g>
	<g>
		<path class="st9" d="M150.6,640.4c44.9-2.4,107.6,37.4,107.6,37.4s-46.4-49.2-107.6-45.9C95.9,634.8,6.8,677.8,6.8,677.8
			S111.5,642.5,150.6,640.4z"/>
	</g>
</g>
<g>
	<g>
		<g>
			<g>
				<g>
					<rect x="490.9" y="670.7" class="st12" width="3.6" height="14.7"/>
				</g>
				<g>
					<rect x="490.9" y="670.7" class="st13" width="1.8" height="14.7"/>
				</g>
			</g>
			<g>
				<g>
					<g>
						<polygon class="st14" points="478.6,676.2 492.7,649.8 506.8,676.2 						"/>
					</g>
					<g>
						<polygon class="st15" points="492.7,676.2 492.7,649.8 506.8,676.2 						"/>
					</g>
					<g>
						<polygon class="st14" points="501.3,665.8 492.7,665.8 492.7,649.8 						"/>
					</g>
					<g>
						<polygon class="st16" points="492.7,649.8 492.7,665.8 484.1,665.8 						"/>
					</g>
				</g>
				<g>
					<g>
						<polygon class="st14" points="481.6,665 492.7,644.2 503.8,665 						"/>
					</g>
					<g>
						<polygon class="st15" points="492.7,665 492.7,644.2 503.8,665 						"/>
					</g>
					<g>
						<polygon class="st14" points="499.4,656.8 492.7,656.8 492.7,644.2 						"/>
					</g>
					<g>
						<polygon class="st16" points="492.7,644.2 492.7,656.8 486,656.8 						"/>
					</g>
				</g>
				<g>
					<g>
						<polygon class="st14" points="501.7,655.9 483.7,655.9 487.1,649.6 492.7,639.1 498.3,649.6 						"/>
					</g>
					<g>
						<polygon class="st15" points="492.7,655.9 492.7,639.1 501.7,655.9 						"/>
					</g>
				</g>
			</g>
		</g>
		<g class="st17">
			<polygon class="st18" points="490.9,685.5 482.6,688.1 494.5,685.5 			"/>
		</g>
	</g>
	<g>
		<g>
			<g>
				<g>
					<rect x="519.1" y="661.1" class="st12" width="6.9" height="28.7"/>
				</g>
				<g>
					<rect x="519.1" y="661.1" class="st13" width="3.5" height="28.7"/>
				</g>
			</g>
			<g>
				<g>
					<g>
						<polygon class="st14" points="495.1,671.8 522.6,620.3 550.1,671.8 						"/>
					</g>
					<g>
						<polygon class="st15" points="522.6,671.8 522.6,620.3 550.1,671.8 						"/>
					</g>
					<g>
						<polygon class="st14" points="539.3,651.6 522.6,651.6 522.6,620.3 						"/>
					</g>
					<g>
						<polygon class="st16" points="522.6,620.3 522.6,651.6 505.9,651.6 						"/>
					</g>
				</g>
				<g>
					<g>
						<polygon class="st14" points="501,649.9 522.6,609.4 544.1,649.9 						"/>
					</g>
					<g>
						<polygon class="st15" points="522.6,649.9 522.6,609.4 544.1,649.9 						"/>
					</g>
					<g>
						<polygon class="st14" points="535.7,634 522.6,634 522.6,609.4 						"/>
					</g>
					<g>
						<polygon class="st16" points="522.6,609.4 522.6,634 509.5,634 						"/>
					</g>
				</g>
				<g>
					<g>
						<polygon class="st14" points="540.1,632.2 505.1,632.2 511.6,620 522.6,599.4 533.5,620 						"/>
					</g>
					<g>
						<polygon class="st15" points="522.6,632.2 522.6,599.4 540.1,632.2 						"/>
					</g>
				</g>
			</g>
		</g>
		<g class="st17">
			<polygon class="st18" points="519.1,689.8 502.9,694.9 526,689.8 			"/>
		</g>
	</g>
	<g>
		<g>
			<g>
				<g>
					<rect x="555.6" y="674.5" class="st12" width="2.5" height="10.3"/>
				</g>
				<g>
					<rect x="555.6" y="674.5" class="st13" width="1.2" height="10.3"/>
				</g>
			</g>
			<g>
				<g>
					<g>
						<polygon class="st14" points="546.9,678.3 556.8,659.8 566.7,678.3 						"/>
					</g>
					<g>
						<polygon class="st15" points="556.8,678.3 556.8,659.8 566.7,678.3 						"/>
					</g>
					<g>
						<polygon class="st14" points="562.8,671.1 556.8,671.1 556.8,659.8 						"/>
					</g>
					<g>
						<polygon class="st16" points="556.8,659.8 556.8,671.1 550.8,671.1 						"/>
					</g>
				</g>
				<g>
					<g>
						<polygon class="st14" points="549.1,670.5 556.8,655.9 564.5,670.5 						"/>
					</g>
					<g>
						<polygon class="st15" points="556.8,670.5 556.8,655.9 564.5,670.5 						"/>
					</g>
					<g>
						<polygon class="st14" points="561.5,664.8 556.8,664.8 556.8,655.9 						"/>
					</g>
					<g>
						<polygon class="st16" points="556.8,655.9 556.8,664.8 552.1,664.8 						"/>
					</g>
				</g>
				<g>
					<g>
						<polygon class="st14" points="563.1,664.1 550.5,664.1 552.9,659.7 556.8,652.3 560.7,659.7 						"/>
					</g>
					<g>
						<polygon class="st15" points="556.8,664.1 556.8,652.3 563.1,664.1 						"/>
					</g>
				</g>
			</g>
		</g>
		<g class="st17">
			<polygon class="st18" points="555.6,684.8 549.7,686.6 558,684.8 			"/>
		</g>
	</g>
	<g>
		<g>
			<g>
				<g>
					<rect x="580" y="662.9" class="st12" width="5" height="20.6"/>
				</g>
				<g>
					<rect x="580" y="662.9" class="st13" width="2.5" height="20.6"/>
				</g>
			</g>
			<g>
				<g>
					<g>
						<polygon class="st14" points="562.8,670.6 582.5,633.6 602.3,670.6 						"/>
					</g>
					<g>
						<polygon class="st15" points="582.5,670.6 582.5,633.6 602.3,670.6 						"/>
					</g>
					<g>
						<polygon class="st14" points="594.5,656.1 582.5,656.1 582.5,633.6 						"/>
					</g>
					<g>
						<polygon class="st16" points="582.5,633.6 582.5,656.1 570.5,656.1 						"/>
					</g>
				</g>
				<g>
					<g>
						<polygon class="st14" points="567,654.8 582.5,625.8 598,654.8 						"/>
					</g>
					<g>
						<polygon class="st15" points="582.5,654.8 582.5,625.8 598,654.8 						"/>
					</g>
					<g>
						<polygon class="st14" points="591.9,643.4 582.5,643.4 582.5,625.8 						"/>
					</g>
					<g>
						<polygon class="st16" points="582.5,625.8 582.5,643.4 573.1,643.4 						"/>
					</g>
				</g>
				<g>
					<g>
						<polygon class="st14" points="595.1,642.2 570,642.2 574.6,633.4 582.5,618.6 590.4,633.4 						"/>
					</g>
					<g>
						<polygon class="st15" points="582.5,642.2 582.5,618.6 595.1,642.2 						"/>
					</g>
				</g>
			</g>
		</g>
		<g class="st17">
			<polygon class="st18" points="580,683.5 568.4,687.2 585,683.5 			"/>
		</g>
	</g>
	<g>
		<g>
			<g>
				<g>
					<rect x="341.3" y="670.7" class="st12" width="3.6" height="14.7"/>
				</g>
				<g>
					<rect x="341.3" y="670.7" class="st13" width="1.8" height="14.7"/>
				</g>
			</g>
			<g>
				<g>
					<g>
						<polygon class="st14" points="329,676.2 343.1,649.8 357.2,676.2 						"/>
					</g>
					<g>
						<polygon class="st15" points="343.1,676.2 343.1,649.8 357.2,676.2 						"/>
					</g>
					<g>
						<polygon class="st14" points="351.7,665.8 343.1,665.8 343.1,649.8 						"/>
					</g>
					<g>
						<polygon class="st16" points="343.1,649.8 343.1,665.8 334.5,665.8 						"/>
					</g>
				</g>
				<g>
					<g>
						<polygon class="st14" points="332,665 343.1,644.2 354.2,665 						"/>
					</g>
					<g>
						<polygon class="st15" points="343.1,665 343.1,644.2 354.2,665 						"/>
					</g>
					<g>
						<polygon class="st14" points="349.8,656.8 343.1,656.8 343.1,644.2 						"/>
					</g>
					<g>
						<polygon class="st16" points="343.1,644.2 343.1,656.8 336.4,656.8 						"/>
					</g>
				</g>
				<g>
					<g>
						<polygon class="st14" points="352.1,655.9 334.1,655.9 337.5,649.6 343.1,639.1 348.7,649.6 						"/>
					</g>
					<g>
						<polygon class="st15" points="343.1,655.9 343.1,639.1 352.1,655.9 						"/>
					</g>
				</g>
			</g>
		</g>
		<g class="st17">
			<polygon class="st18" points="341.3,685.5 333,688.1 344.9,685.5 			"/>
		</g>
	</g>
	<g>
		<g>
			<g>
				<g>
					<rect x="369.5" y="661.1" class="st12" width="6.9" height="28.7"/>
				</g>
				<g>
					<rect x="369.5" y="661.1" class="st13" width="3.5" height="28.7"/>
				</g>
			</g>
			<g>
				<g>
					<g>
						<polygon class="st14" points="345.5,671.8 373,620.3 400.5,671.8 						"/>
					</g>
					<g>
						<polygon class="st15" points="373,671.8 373,620.3 400.5,671.8 						"/>
					</g>
					<g>
						<polygon class="st14" points="389.7,651.6 373,651.6 373,620.3 						"/>
					</g>
					<g>
						<polygon class="st16" points="373,620.3 373,651.6 356.3,651.6 						"/>
					</g>
				</g>
				<g>
					<g>
						<polygon class="st14" points="351.4,649.9 373,609.4 394.5,649.9 						"/>
					</g>
					<g>
						<polygon class="st15" points="373,649.9 373,609.4 394.5,649.9 						"/>
					</g>
					<g>
						<polygon class="st14" points="386.1,634 373,634 373,609.4 						"/>
					</g>
					<g>
						<polygon class="st16" points="373,609.4 373,634 359.9,634 						"/>
					</g>
				</g>
				<g>
					<g>
						<polygon class="st14" points="390.5,632.2 355.5,632.2 362,620 373,599.4 383.9,620 						"/>
					</g>
					<g>
						<polygon class="st15" points="373,632.2 373,599.4 390.5,632.2 						"/>
					</g>
				</g>
			</g>
		</g>
		<g class="st17">
			<polygon class="st18" points="369.5,689.8 353.3,694.9 376.4,689.8 			"/>
		</g>
	</g>
	<g>
		<g>
			<g>
				<g>
					<rect x="405.9" y="674.5" class="st12" width="2.5" height="10.3"/>
				</g>
				<g>
					<rect x="405.9" y="674.5" class="st13" width="1.2" height="10.3"/>
				</g>
			</g>
			<g>
				<g>
					<g>
						<polygon class="st14" points="397.3,678.3 407.2,659.8 417.1,678.3 						"/>
					</g>
					<g>
						<polygon class="st15" points="407.2,678.3 407.2,659.8 417.1,678.3 						"/>
					</g>
					<g>
						<polygon class="st14" points="413.2,671.1 407.2,671.1 407.2,659.8 						"/>
					</g>
					<g>
						<polygon class="st16" points="407.2,659.8 407.2,671.1 401.2,671.1 						"/>
					</g>
				</g>
				<g>
					<g>
						<polygon class="st14" points="399.4,670.5 407.2,655.9 414.9,670.5 						"/>
					</g>
					<g>
						<polygon class="st15" points="407.2,670.5 407.2,655.9 414.9,670.5 						"/>
					</g>
					<g>
						<polygon class="st14" points="411.9,664.8 407.2,664.8 407.2,655.9 						"/>
					</g>
					<g>
						<polygon class="st16" points="407.2,655.9 407.2,664.8 402.5,664.8 						"/>
					</g>
				</g>
				<g>
					<g>
						<polygon class="st14" points="413.5,664.1 400.9,664.1 403.2,659.7 407.2,652.3 411.1,659.7 						"/>
					</g>
					<g>
						<polygon class="st15" points="407.2,664.1 407.2,652.3 413.5,664.1 						"/>
					</g>
				</g>
			</g>
		</g>
		<g class="st17">
			<polygon class="st18" points="405.9,684.8 400.1,686.6 408.4,684.8 			"/>
		</g>
	</g>
	<g>
		<g>
			<g>
				<g>
					<rect x="430.4" y="662.9" class="st12" width="5" height="20.6"/>
				</g>
				<g>
					<rect x="430.4" y="662.9" class="st13" width="2.5" height="20.6"/>
				</g>
			</g>
			<g>
				<g>
					<g>
						<polygon class="st14" points="413.2,670.6 432.9,633.6 452.7,670.6 						"/>
					</g>
					<g>
						<polygon class="st15" points="432.9,670.6 432.9,633.6 452.7,670.6 						"/>
					</g>
					<g>
						<polygon class="st14" points="444.9,656.1 432.9,656.1 432.9,633.6 						"/>
					</g>
					<g>
						<polygon class="st16" points="432.9,633.6 432.9,656.1 420.9,656.1 						"/>
					</g>
				</g>
				<g>
					<g>
						<polygon class="st14" points="417.4,654.8 432.9,625.8 448.4,654.8 						"/>
					</g>
					<g>
						<polygon class="st15" points="432.9,654.8 432.9,625.8 448.4,654.8 						"/>
					</g>
					<g>
						<polygon class="st14" points="442.3,643.4 432.9,643.4 432.9,625.8 						"/>
					</g>
					<g>
						<polygon class="st16" points="432.9,625.8 432.9,643.4 423.5,643.4 						"/>
					</g>
				</g>
				<g>
					<g>
						<polygon class="st14" points="445.5,642.2 420.3,642.2 425,633.4 432.9,618.6 440.8,633.4 						"/>
					</g>
					<g>
						<polygon class="st15" points="432.9,642.2 432.9,618.6 445.5,642.2 						"/>
					</g>
				</g>
			</g>
		</g>
		<g class="st17">
			<polygon class="st18" points="430.4,683.5 418.8,687.2 435.4,683.5 			"/>
		</g>
	</g>
</g>
<g>
	<g>
		<g>
			<g>
				<g>
					<rect x="-126.9" y="670.1" class="st12" width="3.6" height="14.8"/>
				</g>
				<g>
					<rect x="-126.9" y="670.1" class="st13" width="1.8" height="14.8"/>
				</g>
			</g>
			<g>
				<g>
					<g>
						<polygon class="st14" points="-139.3,675.6 -125.1,649 -111,675.6 						"/>
					</g>
					<g>
						<polygon class="st15" points="-125.1,675.6 -125.1,649 -111,675.6 						"/>
					</g>
					<g>
						<polygon class="st14" points="-116.6,665.2 -125.1,665.2 -125.1,649 						"/>
					</g>
					<g>
						<polygon class="st16" points="-125.1,649 -125.1,665.2 -133.7,665.2 						"/>
					</g>
				</g>
				<g>
					<g>
						<polygon class="st14" points="-136.2,664.3 -125.1,643.5 -114.1,664.3 						"/>
					</g>
					<g>
						<polygon class="st15" points="-125.1,664.3 -125.1,643.5 -114.1,664.3 						"/>
					</g>
					<g>
						<polygon class="st14" points="-118.4,656.1 -125.1,656.1 -125.1,643.5 						"/>
					</g>
					<g>
						<polygon class="st16" points="-125.1,643.5 -125.1,656.1 -131.9,656.1 						"/>
					</g>
				</g>
				<g>
					<g>
						<polygon class="st14" points="-116.2,655.2 -134.1,655.2 -130.8,648.9 -125.1,638.3 -119.5,648.9 						"/>
					</g>
					<g>
						<polygon class="st15" points="-125.1,655.2 -125.1,638.3 -116.2,655.2 						"/>
					</g>
				</g>
			</g>
		</g>
		<g class="st17">
			<polygon class="st18" points="-126.9,684.8 -135.3,687.4 -123.4,684.8 			"/>
		</g>
	</g>
	<g>
		<g>
			<g>
				<g>
					<rect x="-98.7" y="660.4" class="st12" width="6.9" height="28.8"/>
				</g>
				<g>
					<rect x="-98.7" y="660.4" class="st13" width="3.5" height="28.8"/>
				</g>
			</g>
			<g>
				<g>
					<g>
						<polygon class="st14" points="-122.8,671.1 -95.3,619.4 -67.8,671.1 						"/>
					</g>
					<g>
						<polygon class="st15" points="-95.3,671.1 -95.3,619.4 -67.8,671.1 						"/>
					</g>
					<g>
						<polygon class="st14" points="-78.6,650.8 -95.3,650.8 -95.3,619.4 						"/>
					</g>
					<g>
						<polygon class="st16" points="-95.3,619.4 -95.3,650.8 -112,650.8 						"/>
					</g>
				</g>
				<g>
					<g>
						<polygon class="st14" points="-116.8,649.1 -95.3,608.6 -73.7,649.1 						"/>
					</g>
					<g>
						<polygon class="st15" points="-95.3,649.1 -95.3,608.6 -73.7,649.1 						"/>
					</g>
					<g>
						<polygon class="st14" points="-82.2,633.2 -95.3,633.2 -95.3,608.6 						"/>
					</g>
					<g>
						<polygon class="st16" points="-95.3,608.6 -95.3,633.2 -108.4,633.2 						"/>
					</g>
				</g>
				<g>
					<g>
						<polygon class="st14" points="-77.8,631.5 -112.8,631.5 -106.3,619.2 -95.3,598.6 -84.3,619.2 						"/>
					</g>
					<g>
						<polygon class="st15" points="-95.3,631.5 -95.3,598.6 -77.8,631.5 						"/>
					</g>
				</g>
			</g>
		</g>
		<g class="st17">
			<polygon class="st18" points="-98.7,689.2 -115,694.3 -91.8,689.2 			"/>
		</g>
	</g>
	<g>
		<g>
			<g>
				<g>
					<rect x="-62.3" y="673.8" class="st12" width="2.5" height="10.3"/>
				</g>
				<g>
					<rect x="-62.3" y="673.8" class="st13" width="1.2" height="10.3"/>
				</g>
			</g>
			<g>
				<g>
					<g>
						<polygon class="st14" points="-70.9,677.7 -61.1,659.1 -51.2,677.7 						"/>
					</g>
					<g>
						<polygon class="st15" points="-61.1,677.7 -61.1,659.1 -51.2,677.7 						"/>
					</g>
					<g>
						<polygon class="st14" points="-55.1,670.4 -61.1,670.4 -61.1,659.1 						"/>
					</g>
					<g>
						<polygon class="st16" points="-61.1,659.1 -61.1,670.4 -67,670.4 						"/>
					</g>
				</g>
				<g>
					<g>
						<polygon class="st14" points="-68.8,669.8 -61.1,655.2 -53.3,669.8 						"/>
					</g>
					<g>
						<polygon class="st15" points="-61.1,669.8 -61.1,655.2 -53.3,669.8 						"/>
					</g>
					<g>
						<polygon class="st14" points="-56.3,664.1 -61.1,664.1 -61.1,655.2 						"/>
					</g>
					<g>
						<polygon class="st16" points="-61.1,655.2 -61.1,664.1 -65.8,664.1 						"/>
					</g>
				</g>
				<g>
					<g>
						<polygon class="st14" points="-54.8,663.4 -67.3,663.4 -65,659 -61.1,651.6 -57.1,659 						"/>
					</g>
					<g>
						<polygon class="st15" points="-61.1,663.4 -61.1,651.6 -54.8,663.4 						"/>
					</g>
				</g>
			</g>
		</g>
		<g class="st17">
			<polygon class="st18" points="-62.3,684.2 -68.1,686 -59.8,684.2 			"/>
		</g>
	</g>
	<g>
		<g>
			<g>
				<g>
					<rect x="-37.8" y="662.2" class="st12" width="5" height="20.7"/>
				</g>
				<g>
					<rect x="-37.8" y="662.2" class="st13" width="2.5" height="20.7"/>
				</g>
			</g>
			<g>
				<g>
					<g>
						<polygon class="st14" points="-55.1,669.9 -35.3,632.8 -15.6,669.9 						"/>
					</g>
					<g>
						<polygon class="st15" points="-35.3,669.9 -35.3,632.8 -15.6,669.9 						"/>
					</g>
					<g>
						<polygon class="st14" points="-23.3,655.3 -35.3,655.3 -35.3,632.8 						"/>
					</g>
					<g>
						<polygon class="st16" points="-35.3,632.8 -35.3,655.3 -47.3,655.3 						"/>
					</g>
				</g>
				<g>
					<g>
						<polygon class="st14" points="-50.8,654.1 -35.3,625 -19.8,654.1 						"/>
					</g>
					<g>
						<polygon class="st15" points="-35.3,654.1 -35.3,625 -19.8,654.1 						"/>
					</g>
					<g>
						<polygon class="st14" points="-25.9,642.7 -35.3,642.7 -35.3,625 						"/>
					</g>
					<g>
						<polygon class="st16" points="-35.3,625 -35.3,642.7 -44.7,642.7 						"/>
					</g>
				</g>
				<g>
					<g>
						<polygon class="st14" points="-22.8,641.4 -47.9,641.4 -43.2,632.6 -35.3,617.8 -27.4,632.6 						"/>
					</g>
					<g>
						<polygon class="st15" points="-35.3,641.4 -35.3,617.8 -22.8,641.4 						"/>
					</g>
				</g>
			</g>
		</g>
		<g class="st17">
			<polygon class="st18" points="-37.8,682.9 -49.5,686.5 -32.8,682.9 			"/>
		</g>
	</g>
	<g>
		<g>
			<g>
				<g>
					<rect x="-276.5" y="670.1" class="st12" width="3.6" height="14.8"/>
				</g>
				<g>
					<rect x="-276.5" y="670.1" class="st13" width="1.8" height="14.8"/>
				</g>
			</g>
			<g>
				<g>
					<g>
						<polygon class="st14" points="-288.9,675.6 -274.8,649 -260.6,675.6 						"/>
					</g>
					<g>
						<polygon class="st15" points="-274.8,675.6 -274.8,649 -260.6,675.6 						"/>
					</g>
					<g>
						<polygon class="st14" points="-266.2,665.2 -274.8,665.2 -274.8,649 						"/>
					</g>
					<g>
						<polygon class="st16" points="-274.8,649 -274.8,665.2 -283.3,665.2 						"/>
					</g>
				</g>
				<g>
					<g>
						<polygon class="st14" points="-285.8,664.3 -274.8,643.5 -263.7,664.3 						"/>
					</g>
					<g>
						<polygon class="st15" points="-274.8,664.3 -274.8,643.5 -263.7,664.3 						"/>
					</g>
					<g>
						<polygon class="st14" points="-268,656.1 -274.8,656.1 -274.8,643.5 						"/>
					</g>
					<g>
						<polygon class="st16" points="-274.8,643.5 -274.8,656.1 -281.5,656.1 						"/>
					</g>
				</g>
				<g>
					<g>
						<polygon class="st14" points="-265.8,655.2 -283.7,655.2 -280.4,648.9 -274.8,638.3 -269.1,648.9 						"/>
					</g>
					<g>
						<polygon class="st15" points="-274.8,655.2 -274.8,638.3 -265.8,655.2 						"/>
					</g>
				</g>
			</g>
		</g>
		<g class="st17">
			<polygon class="st18" points="-276.5,684.8 -284.9,687.4 -273,684.8 			"/>
		</g>
	</g>
	<g>
		<g>
			<g>
				<g>
					<rect x="-248.3" y="660.4" class="st12" width="6.9" height="28.8"/>
				</g>
				<g>
					<rect x="-248.3" y="660.4" class="st13" width="3.5" height="28.8"/>
				</g>
			</g>
			<g>
				<g>
					<g>
						<polygon class="st14" points="-272.4,671.1 -244.9,619.4 -217.4,671.1 						"/>
					</g>
					<g>
						<polygon class="st15" points="-244.9,671.1 -244.9,619.4 -217.4,671.1 						"/>
					</g>
					<g>
						<polygon class="st14" points="-228.2,650.8 -244.9,650.8 -244.9,619.4 						"/>
					</g>
					<g>
						<polygon class="st16" points="-244.9,619.4 -244.9,650.8 -261.6,650.8 						"/>
					</g>
				</g>
				<g>
					<g>
						<polygon class="st14" points="-266.4,649.1 -244.9,608.6 -223.3,649.1 						"/>
					</g>
					<g>
						<polygon class="st15" points="-244.9,649.1 -244.9,608.6 -223.3,649.1 						"/>
					</g>
					<g>
						<polygon class="st14" points="-231.8,633.2 -244.9,633.2 -244.9,608.6 						"/>
					</g>
					<g>
						<polygon class="st16" points="-244.9,608.6 -244.9,633.2 -258,633.2 						"/>
					</g>
				</g>
				<g>
					<g>
						<polygon class="st14" points="-227.4,631.5 -262.4,631.5 -255.9,619.2 -244.9,598.6 -233.9,619.2 						"/>
					</g>
					<g>
						<polygon class="st15" points="-244.9,631.5 -244.9,598.6 -227.4,631.5 						"/>
					</g>
				</g>
			</g>
		</g>
		<g class="st17">
			<polygon class="st18" points="-248.3,689.2 -264.6,694.3 -241.4,689.2 			"/>
		</g>
	</g>
	<g>
		<g>
			<g>
				<g>
					<rect x="-211.9" y="673.8" class="st12" width="2.5" height="10.3"/>
				</g>
				<g>
					<rect x="-211.9" y="673.8" class="st13" width="1.2" height="10.3"/>
				</g>
			</g>
			<g>
				<g>
					<g>
						<polygon class="st14" points="-220.5,677.7 -210.7,659.1 -200.8,677.7 						"/>
					</g>
					<g>
						<polygon class="st15" points="-210.7,677.7 -210.7,659.1 -200.8,677.7 						"/>
					</g>
					<g>
						<polygon class="st14" points="-204.7,670.4 -210.7,670.4 -210.7,659.1 						"/>
					</g>
					<g>
						<polygon class="st16" points="-210.7,659.1 -210.7,670.4 -216.7,670.4 						"/>
					</g>
				</g>
				<g>
					<g>
						<polygon class="st14" points="-218.4,669.8 -210.7,655.2 -202.9,669.8 						"/>
					</g>
					<g>
						<polygon class="st15" points="-210.7,669.8 -210.7,655.2 -202.9,669.8 						"/>
					</g>
					<g>
						<polygon class="st14" points="-206,664.1 -210.7,664.1 -210.7,655.2 						"/>
					</g>
					<g>
						<polygon class="st16" points="-210.7,655.2 -210.7,664.1 -215.4,664.1 						"/>
					</g>
				</g>
				<g>
					<g>
						<polygon class="st14" points="-204.4,663.4 -216.9,663.4 -214.6,659 -210.7,651.6 -206.7,659 						"/>
					</g>
					<g>
						<polygon class="st15" points="-210.7,663.4 -210.7,651.6 -204.4,663.4 						"/>
					</g>
				</g>
			</g>
		</g>
		<g class="st17">
			<polygon class="st18" points="-211.9,684.2 -217.7,686 -209.4,684.2 			"/>
		</g>
	</g>
	<g>
		<g>
			<g>
				<g>
					<rect x="-187.4" y="662.2" class="st12" width="5" height="20.7"/>
				</g>
				<g>
					<rect x="-187.4" y="662.2" class="st13" width="2.5" height="20.7"/>
				</g>
			</g>
			<g>
				<g>
					<g>
						<polygon class="st14" points="-204.7,669.9 -184.9,632.8 -165.2,669.9 						"/>
					</g>
					<g>
						<polygon class="st15" points="-184.9,669.9 -184.9,632.8 -165.2,669.9 						"/>
					</g>
					<g>
						<polygon class="st14" points="-172.9,655.3 -184.9,655.3 -184.9,632.8 						"/>
					</g>
					<g>
						<polygon class="st16" points="-184.9,632.8 -184.9,655.3 -196.9,655.3 						"/>
					</g>
				</g>
				<g>
					<g>
						<polygon class="st14" points="-200.4,654.1 -184.9,625 -169.5,654.1 						"/>
					</g>
					<g>
						<polygon class="st15" points="-184.9,654.1 -184.9,625 -169.5,654.1 						"/>
					</g>
					<g>
						<polygon class="st14" points="-175.5,642.7 -184.9,642.7 -184.9,625 						"/>
					</g>
					<g>
						<polygon class="st16" points="-184.9,625 -184.9,642.7 -194.3,642.7 						"/>
					</g>
				</g>
				<g>
					<g>
						<polygon class="st14" points="-172.4,641.4 -197.5,641.4 -192.8,632.6 -184.9,617.8 -177.1,632.6 						"/>
					</g>
					<g>
						<polygon class="st15" points="-184.9,641.4 -184.9,617.8 -172.4,641.4 						"/>
					</g>
				</g>
			</g>
		</g>
		<g class="st17">
			<polygon class="st18" points="-187.4,682.9 -199.1,686.5 -182.5,682.9 			"/>
		</g>
	</g>
</g>
<g>
	<g>
		<g>
			<g>
				<g>
					<rect x="169.1" y="666.4" class="st12" width="2.9" height="12"/>
				</g>
				<g>
					<rect x="169.1" y="666.4" class="st13" width="1.4" height="12"/>
				</g>
			</g>
			<g>
				<g>
					<g>
						<polygon class="st14" points="159.1,670.9 170.5,649.3 182,670.9 						"/>
					</g>
					<g>
						<polygon class="st15" points="170.5,670.9 170.5,649.3 182,670.9 						"/>
					</g>
					<g>
						<polygon class="st14" points="177.5,662.4 170.5,662.4 170.5,649.3 						"/>
					</g>
					<g>
						<polygon class="st16" points="170.5,649.3 170.5,662.4 163.6,662.4 						"/>
					</g>
				</g>
				<g>
					<g>
						<polygon class="st14" points="161.5,661.7 170.5,644.7 179.6,661.7 						"/>
					</g>
					<g>
						<polygon class="st15" points="170.5,661.7 170.5,644.7 179.6,661.7 						"/>
					</g>
					<g>
						<polygon class="st14" points="176,655 170.5,655 170.5,644.7 						"/>
					</g>
					<g>
						<polygon class="st16" points="170.5,644.7 170.5,655 165.1,655 						"/>
					</g>
				</g>
				<g>
					<g>
						<polygon class="st14" points="177.9,654.3 163.2,654.3 166,649.2 170.5,640.5 175.1,649.2 						"/>
					</g>
					<g>
						<polygon class="st15" points="170.5,654.3 170.5,640.5 177.9,654.3 						"/>
					</g>
				</g>
			</g>
		</g>
		<g class="st17">
			<polygon class="st18" points="169.1,678.4 162.3,680.5 172,678.4 			"/>
		</g>
	</g>
	<g>
		<g>
			<g>
				<g>
					<rect x="192" y="658.5" class="st12" width="5.6" height="23.4"/>
				</g>
				<g>
					<rect x="192" y="658.5" class="st13" width="2.8" height="23.4"/>
				</g>
			</g>
			<g>
				<g>
					<g>
						<polygon class="st14" points="172.5,667.3 194.9,625.2 217.2,667.3 						"/>
					</g>
					<g>
						<polygon class="st15" points="194.9,667.3 194.9,625.2 217.2,667.3 						"/>
					</g>
					<g>
						<polygon class="st14" points="208.5,650.7 194.9,650.7 194.9,625.2 						"/>
					</g>
					<g>
						<polygon class="st16" points="194.9,625.2 194.9,650.7 181.3,650.7 						"/>
					</g>
				</g>
				<g>
					<g>
						<polygon class="st14" points="177.3,649.3 194.9,616.3 212.4,649.3 						"/>
					</g>
					<g>
						<polygon class="st15" points="194.9,649.3 194.9,616.3 212.4,649.3 						"/>
					</g>
					<g>
						<polygon class="st14" points="205.5,636.4 194.9,636.4 194.9,616.3 						"/>
					</g>
					<g>
						<polygon class="st16" points="194.9,616.3 194.9,636.4 184.2,636.4 						"/>
					</g>
				</g>
				<g>
					<g>
						<polygon class="st14" points="209.1,635 180.6,635 185.9,625 194.9,608.2 203.8,625 						"/>
					</g>
					<g>
						<polygon class="st15" points="194.9,635 194.9,608.2 209.1,635 						"/>
					</g>
				</g>
			</g>
		</g>
		<g class="st17">
			<polygon class="st18" points="192,681.9 178.8,686.1 197.7,681.9 			"/>
		</g>
	</g>
	<g>
		<g>
			<g>
				<g>
					<rect x="221.7" y="669.5" class="st12" width="2" height="8.4"/>
				</g>
				<g>
					<rect x="221.7" y="669.5" class="st13" width="1" height="8.4"/>
				</g>
			</g>
			<g>
				<g>
					<g>
						<polygon class="st14" points="214.7,672.6 222.7,657.5 230.8,672.6 						"/>
					</g>
					<g>
						<polygon class="st15" points="222.7,672.6 222.7,657.5 230.8,672.6 						"/>
					</g>
					<g>
						<polygon class="st14" points="227.6,666.7 222.7,666.7 222.7,657.5 						"/>
					</g>
					<g>
						<polygon class="st16" points="222.7,657.5 222.7,666.7 217.8,666.7 						"/>
					</g>
				</g>
				<g>
					<g>
						<polygon class="st14" points="216.4,666.2 222.7,654.3 229,666.2 						"/>
					</g>
					<g>
						<polygon class="st15" points="222.7,666.2 222.7,654.3 229,666.2 						"/>
					</g>
					<g>
						<polygon class="st14" points="226.6,661.5 222.7,661.5 222.7,654.3 						"/>
					</g>
					<g>
						<polygon class="st16" points="222.7,654.3 222.7,661.5 218.9,661.5 						"/>
					</g>
				</g>
				<g>
					<g>
						<polygon class="st14" points="227.8,661 217.6,661 219.5,657.4 222.7,651.4 225.9,657.4 						"/>
					</g>
					<g>
						<polygon class="st15" points="222.7,661 222.7,651.4 227.8,661 						"/>
					</g>
				</g>
			</g>
		</g>
		<g class="st17">
			<polygon class="st18" points="221.7,677.9 217,679.4 223.7,677.9 			"/>
		</g>
	</g>
	<g>
		<g>
			<g>
				<g>
					<rect x="241.6" y="660" class="st12" width="4" height="16.8"/>
				</g>
				<g>
					<rect x="241.6" y="660" class="st13" width="2" height="16.8"/>
				</g>
			</g>
			<g>
				<g>
					<g>
						<polygon class="st14" points="227.6,666.3 243.7,636 259.7,666.3 						"/>
					</g>
					<g>
						<polygon class="st15" points="243.7,666.3 243.7,636 259.7,666.3 						"/>
					</g>
					<g>
						<polygon class="st14" points="253.4,654.4 243.7,654.4 243.7,636 						"/>
					</g>
					<g>
						<polygon class="st16" points="243.7,636 243.7,654.4 233.9,654.4 						"/>
					</g>
				</g>
				<g>
					<g>
						<polygon class="st14" points="231.1,653.4 243.7,629.7 256.3,653.4 						"/>
					</g>
					<g>
						<polygon class="st15" points="243.7,653.4 243.7,629.7 256.3,653.4 						"/>
					</g>
					<g>
						<polygon class="st14" points="251.3,644.1 243.7,644.1 243.7,629.7 						"/>
					</g>
					<g>
						<polygon class="st16" points="243.7,629.7 243.7,644.1 236,644.1 						"/>
					</g>
				</g>
				<g>
					<g>
						<polygon class="st14" points="253.9,643.1 233.4,643.1 237.2,635.9 243.7,623.8 250.1,635.9 						"/>
					</g>
					<g>
						<polygon class="st15" points="243.7,643.1 243.7,623.8 253.9,643.1 						"/>
					</g>
				</g>
			</g>
		</g>
		<g class="st17">
			<polygon class="st18" points="241.6,676.8 232.2,679.8 245.7,676.8 			"/>
		</g>
	</g>
	<g>
		<g>
			<g>
				<g>
					<rect x="47.3" y="666.4" class="st12" width="2.9" height="12"/>
				</g>
				<g>
					<rect x="47.3" y="666.4" class="st13" width="1.4" height="12"/>
				</g>
			</g>
			<g>
				<g>
					<g>
						<polygon class="st14" points="37.3,670.9 48.8,649.3 60.2,670.9 						"/>
					</g>
					<g>
						<polygon class="st15" points="48.8,670.9 48.8,649.3 60.2,670.9 						"/>
					</g>
					<g>
						<polygon class="st14" points="55.7,662.4 48.8,662.4 48.8,649.3 						"/>
					</g>
					<g>
						<polygon class="st16" points="48.8,649.3 48.8,662.4 41.8,662.4 						"/>
					</g>
				</g>
				<g>
					<g>
						<polygon class="st14" points="39.7,661.7 48.8,644.7 57.8,661.7 						"/>
					</g>
					<g>
						<polygon class="st15" points="48.8,661.7 48.8,644.7 57.8,661.7 						"/>
					</g>
					<g>
						<polygon class="st14" points="54.2,655 48.8,655 48.8,644.7 						"/>
					</g>
					<g>
						<polygon class="st16" points="48.8,644.7 48.8,655 43.3,655 						"/>
					</g>
				</g>
				<g>
					<g>
						<polygon class="st14" points="56.1,654.3 41.4,654.3 44.2,649.2 48.8,640.5 53.3,649.2 						"/>
					</g>
					<g>
						<polygon class="st15" points="48.8,654.3 48.8,640.5 56.1,654.3 						"/>
					</g>
				</g>
			</g>
		</g>
		<g class="st17">
			<polygon class="st18" points="47.3,678.4 40.5,680.5 50.2,678.4 			"/>
		</g>
	</g>
	<g>
		<g>
			<g>
				<g>
					<rect x="70.2" y="658.5" class="st12" width="5.6" height="23.4"/>
				</g>
				<g>
					<rect x="70.2" y="658.5" class="st13" width="2.8" height="23.4"/>
				</g>
			</g>
			<g>
				<g>
					<g>
						<polygon class="st14" points="50.7,667.3 73.1,625.2 95.4,667.3 						"/>
					</g>
					<g>
						<polygon class="st15" points="73.1,667.3 73.1,625.2 95.4,667.3 						"/>
					</g>
					<g>
						<polygon class="st14" points="86.7,650.7 73.1,650.7 73.1,625.2 						"/>
					</g>
					<g>
						<polygon class="st16" points="73.1,625.2 73.1,650.7 59.5,650.7 						"/>
					</g>
				</g>
				<g>
					<g>
						<polygon class="st14" points="55.5,649.3 73.1,616.3 90.6,649.3 						"/>
					</g>
					<g>
						<polygon class="st15" points="73.1,649.3 73.1,616.3 90.6,649.3 						"/>
					</g>
					<g>
						<polygon class="st14" points="83.7,636.4 73.1,636.4 73.1,616.3 						"/>
					</g>
					<g>
						<polygon class="st16" points="73.1,616.3 73.1,636.4 62.4,636.4 						"/>
					</g>
				</g>
				<g>
					<g>
						<polygon class="st14" points="87.3,635 58.8,635 64.1,625 73.1,608.2 82,625 						"/>
					</g>
					<g>
						<polygon class="st15" points="73.1,635 73.1,608.2 87.3,635 						"/>
					</g>
				</g>
			</g>
		</g>
		<g class="st17">
			<polygon class="st18" points="70.2,681.9 57,686.1 75.9,681.9 			"/>
		</g>
	</g>
	<g>
		<g>
			<g>
				<g>
					<rect x="99.9" y="669.5" class="st12" width="2" height="8.4"/>
				</g>
				<g>
					<rect x="99.9" y="669.5" class="st13" width="1" height="8.4"/>
				</g>
			</g>
			<g>
				<g>
					<g>
						<polygon class="st14" points="92.9,672.6 100.9,657.5 109,672.6 						"/>
					</g>
					<g>
						<polygon class="st15" points="100.9,672.6 100.9,657.5 109,672.6 						"/>
					</g>
					<g>
						<polygon class="st14" points="105.8,666.7 100.9,666.7 100.9,657.5 						"/>
					</g>
					<g>
						<polygon class="st16" points="100.9,657.5 100.9,666.7 96,666.7 						"/>
					</g>
				</g>
				<g>
					<g>
						<polygon class="st14" points="94.6,666.2 100.9,654.3 107.2,666.2 						"/>
					</g>
					<g>
						<polygon class="st15" points="100.9,666.2 100.9,654.3 107.2,666.2 						"/>
					</g>
					<g>
						<polygon class="st14" points="104.8,661.5 100.9,661.5 100.9,654.3 						"/>
					</g>
					<g>
						<polygon class="st16" points="100.9,654.3 100.9,661.5 97.1,661.5 						"/>
					</g>
				</g>
				<g>
					<g>
						<polygon class="st14" points="106,661 95.8,661 97.7,657.4 100.9,651.4 104.1,657.4 						"/>
					</g>
					<g>
						<polygon class="st15" points="100.9,661 100.9,651.4 106,661 						"/>
					</g>
				</g>
			</g>
		</g>
		<g class="st17">
			<polygon class="st18" points="99.9,677.9 95.2,679.4 101.9,677.9 			"/>
		</g>
	</g>
	<g>
		<g>
			<g>
				<g>
					<rect x="119.8" y="660" class="st12" width="4" height="16.8"/>
				</g>
				<g>
					<rect x="119.8" y="660" class="st13" width="2" height="16.8"/>
				</g>
			</g>
			<g>
				<g>
					<g>
						<polygon class="st14" points="105.8,666.3 121.9,636 137.9,666.3 						"/>
					</g>
					<g>
						<polygon class="st15" points="121.9,666.3 121.9,636 137.9,666.3 						"/>
					</g>
					<g>
						<polygon class="st14" points="131.6,654.4 121.9,654.4 121.9,636 						"/>
					</g>
					<g>
						<polygon class="st16" points="121.9,636 121.9,654.4 112.1,654.4 						"/>
					</g>
				</g>
				<g>
					<g>
						<polygon class="st14" points="109.3,653.4 121.9,629.7 134.5,653.4 						"/>
					</g>
					<g>
						<polygon class="st15" points="121.9,653.4 121.9,629.7 134.5,653.4 						"/>
					</g>
					<g>
						<polygon class="st14" points="129.5,644.1 121.9,644.1 121.9,629.7 						"/>
					</g>
					<g>
						<polygon class="st16" points="121.9,629.7 121.9,644.1 114.2,644.1 						"/>
					</g>
				</g>
				<g>
					<g>
						<polygon class="st14" points="132.1,643.1 111.6,643.1 115.5,635.9 121.9,623.8 128.3,635.9 						"/>
					</g>
					<g>
						<polygon class="st15" points="121.9,643.1 121.9,623.8 132.1,643.1 						"/>
					</g>
				</g>
			</g>
		</g>
		<g class="st17">
			<polygon class="st18" points="119.8,676.8 110.4,679.8 123.9,676.8 			"/>
		</g>
	</g>
</g>
<g>
	<g>
		<g>
			<g>
				<rect x="-285.5" y="591.1" class="st12" width="8.9" height="36.8"/>
			</g>
			<g>
				<rect x="-285.5" y="591.1" class="st13" width="4.4" height="36.8"/>
			</g>
		</g>
		<g>
			<g>
				<g>
					<polygon class="st14" points="-316.2,604.9 -281.1,538.8 -245.9,604.9 					"/>
				</g>
				<g>
					<polygon class="st15" points="-281.1,604.9 -281.1,538.8 -245.9,604.9 					"/>
				</g>
				<g>
					<polygon class="st14" points="-259.7,578.9 -281.1,578.9 -281.1,538.8 					"/>
				</g>
				<g>
					<polygon class="st16" points="-281.1,538.8 -281.1,578.9 -302.4,578.9 					"/>
				</g>
			</g>
			<g>
				<g>
					<polygon class="st14" points="-308.6,576.7 -281.1,524.9 -253.5,576.7 					"/>
				</g>
				<g>
					<polygon class="st15" points="-281.1,576.7 -281.1,524.9 -253.5,576.7 					"/>
				</g>
				<g>
					<polygon class="st14" points="-264.3,556.4 -281.1,556.4 -281.1,524.9 					"/>
				</g>
				<g>
					<polygon class="st16" points="-281.1,524.9 -281.1,556.4 -297.8,556.4 					"/>
				</g>
			</g>
			<g>
				<g>
					<polygon class="st14" points="-258.7,554.1 -303.5,554.1 -295.1,538.5 -281.1,512.1 -267,538.5 					"/>
				</g>
				<g>
					<polygon class="st15" points="-281.1,554.1 -281.1,512.1 -258.7,554.1 					"/>
				</g>
			</g>
		</g>
	</g>
	<g class="st17">
		<polygon class="st18" points="-285.5,628 -306.2,634.5 -276.7,628 		"/>
	</g>
</g>
<g>
	<g>
		<g>
			<g>
				<rect x="-151.6" y="710.2" class="st12" width="15.3" height="63.6"/>
			</g>
			<g>
				<rect x="-151.6" y="710.2" class="st13" width="7.6" height="63.6"/>
			</g>
		</g>
		<g>
			<g>
				<g>
					<polygon class="st14" points="-204.7,733.9 -144,619.7 -83.2,733.9 					"/>
				</g>
				<g>
					<polygon class="st15" points="-144,733.9 -144,619.7 -83.2,733.9 					"/>
				</g>
				<g>
					<polygon class="st14" points="-107.1,689.1 -144,689.1 -144,619.7 					"/>
				</g>
				<g>
					<polygon class="st16" points="-144,619.7 -144,689.1 -180.9,689.1 					"/>
				</g>
			</g>
			<g>
				<g>
					<polygon class="st14" points="-191.6,685.3 -144,595.7 -96.3,685.3 					"/>
				</g>
				<g>
					<polygon class="st15" points="-144,685.3 -144,595.7 -96.3,685.3 					"/>
				</g>
				<g>
					<polygon class="st14" points="-115,650.1 -144,650.1 -144,595.7 					"/>
				</g>
				<g>
					<polygon class="st16" points="-144,595.7 -144,650.1 -172.9,650.1 					"/>
				</g>
			</g>
			<g>
				<g>
					<polygon class="st14" points="-105.3,646.3 -182.6,646.3 -168.2,619.2 -144,573.6 -119.7,619.2 					"/>
				</g>
				<g>
					<polygon class="st15" points="-144,646.3 -144,573.6 -105.3,646.3 					"/>
				</g>
			</g>
		</g>
	</g>
	<g class="st17">
		<polygon class="st18" points="-151.6,773.8 -187.4,785 -136.3,773.8 		"/>
	</g>
</g>
<g>
	<g>
		<g>
			<g>
				<rect x="491" y="767.1" class="st12" width="5.7" height="23.8"/>
			</g>
			<g>
				<rect x="491" y="767.1" class="st13" width="2.9" height="23.8"/>
			</g>
		</g>
		<g>
			<g>
				<g>
					<polygon class="st14" points="471,776 493.8,733.2 516.6,776 					"/>
				</g>
				<g>
					<polygon class="st15" points="493.8,776 493.8,733.2 516.6,776 					"/>
				</g>
				<g>
					<polygon class="st14" points="507.7,759.2 493.8,759.2 493.8,733.2 					"/>
				</g>
				<g>
					<polygon class="st16" points="493.8,733.2 493.8,759.2 480,759.2 					"/>
				</g>
			</g>
			<g>
				<g>
					<polygon class="st14" points="475.9,757.8 493.8,724.3 511.7,757.8 					"/>
				</g>
				<g>
					<polygon class="st15" points="493.8,757.8 493.8,724.3 511.7,757.8 					"/>
				</g>
				<g>
					<polygon class="st14" points="504.7,744.6 493.8,744.6 493.8,724.3 					"/>
				</g>
				<g>
					<polygon class="st16" points="493.8,724.3 493.8,744.6 483,744.6 					"/>
				</g>
			</g>
			<g>
				<g>
					<polygon class="st14" points="508.4,743.2 479.3,743.2 484.7,733 493.8,716 502.9,733 					"/>
				</g>
				<g>
					<polygon class="st15" points="493.8,743.2 493.8,716 508.4,743.2 					"/>
				</g>
			</g>
		</g>
	</g>
	<g class="st17">
		<polygon class="st18" points="491,790.9 477.5,795.2 496.7,790.9 		"/>
	</g>
</g>
<g>
	<g>
		<g>
			<g>
				<rect x="-64.7" y="718.9" class="st12" width="7.3" height="30.3"/>
			</g>
			<g>
				<rect x="-64.7" y="718.9" class="st13" width="3.6" height="30.3"/>
			</g>
		</g>
		<g>
			<g>
				<g>
					<polygon class="st14" points="-90,730.2 -61.1,675.8 -32.1,730.2 					"/>
				</g>
				<g>
					<polygon class="st15" points="-61.1,730.2 -61.1,675.8 -32.1,730.2 					"/>
				</g>
				<g>
					<polygon class="st14" points="-43.5,708.8 -61.1,708.8 -61.1,675.8 					"/>
				</g>
				<g>
					<polygon class="st16" points="-61.1,675.8 -61.1,708.8 -78.6,708.8 					"/>
				</g>
			</g>
			<g>
				<g>
					<polygon class="st14" points="-83.7,707 -61.1,664.3 -38.4,707 					"/>
				</g>
				<g>
					<polygon class="st15" points="-61.1,707 -61.1,664.3 -38.4,707 					"/>
				</g>
				<g>
					<polygon class="st14" points="-47.3,690.3 -61.1,690.3 -61.1,664.3 					"/>
				</g>
				<g>
					<polygon class="st16" points="-61.1,664.3 -61.1,690.3 -74.8,690.3 					"/>
				</g>
			</g>
			<g>
				<g>
					<polygon class="st14" points="-42.6,688.4 -79.5,688.4 -72.6,675.5 -61.1,653.8 -49.5,675.5 					"/>
				</g>
				<g>
					<polygon class="st15" points="-61.1,688.4 -61.1,653.8 -42.6,688.4 					"/>
				</g>
			</g>
		</g>
	</g>
	<g class="st17">
		<polygon class="st18" points="-64.7,749.2 -81.8,754.5 -57.4,749.2 		"/>
	</g>
</g>
<g>
	<g>
		<g>
			<g>
				<rect x="547.5" y="740.3" class="st12" width="11.5" height="47.6"/>
			</g>
			<g>
				<rect x="547.5" y="740.3" class="st13" width="5.7" height="47.6"/>
			</g>
		</g>
		<g>
			<g>
				<g>
					<polygon class="st14" points="507.6,758.1 553.3,672.5 598.9,758.1 					"/>
				</g>
				<g>
					<polygon class="st15" points="553.3,758.1 553.3,672.5 598.9,758.1 					"/>
				</g>
				<g>
					<polygon class="st14" points="581,724.5 553.3,724.5 553.3,672.5 					"/>
				</g>
				<g>
					<polygon class="st16" points="553.3,672.5 553.3,724.5 525.5,724.5 					"/>
				</g>
			</g>
			<g>
				<g>
					<polygon class="st14" points="517.5,721.7 553.3,654.6 589,721.7 					"/>
				</g>
				<g>
					<polygon class="st15" points="553.3,721.7 553.3,654.6 589,721.7 					"/>
				</g>
				<g>
					<polygon class="st14" points="575,695.3 553.3,695.3 553.3,654.6 					"/>
				</g>
				<g>
					<polygon class="st16" points="553.3,654.6 553.3,695.3 531.5,695.3 					"/>
				</g>
			</g>
			<g>
				<g>
					<polygon class="st14" points="582.3,692.4 524.2,692.4 535,672.1 553.3,638 571.5,672.1 					"/>
				</g>
				<g>
					<polygon class="st15" points="553.3,692.4 553.3,638 582.3,692.4 					"/>
				</g>
			</g>
		</g>
	</g>
	<g class="st17">
		<polygon class="st18" points="547.5,787.9 520.6,796.4 559,787.9 		"/>
	</g>
</g>
<g>
	<path class="st4" d="M47.1,587.8c-0.5,0-0.9,0.1-1.3,0.2c-1.2-2.1-3.5-3.5-6.1-3.5c-0.8,0-1.6,0.1-2.3,0.4
		c-1.2-2.5-3.6-4.4-6.4-5.1l0,0c0.1-0.6,0.2-1.2,0.2-1.8c0-4.2-3.4-7.7-7.7-7.7c-2.7,0-5.1,1.4-6.5,3.5c-0.8-0.4-1.7-0.6-2.7-0.6
		c-3,0-5.5,2.1-6.1,4.8l0,0c-3.7,0.5-6.6,3.7-6.6,7.6c0,0.1,0,0.1,0,0.2c-1.2,1.3-2,3-2,4.9h3.9h5.8h4.2h1.6h4.5h5.1h8.1h5.4H43h3.6
		h4.5C50.6,589.1,49,587.8,47.1,587.8z"/>
</g>
<g>
	<path class="st4" d="M-35.3,358c-3.7-3.8-8.4-6.6-13.6-8.2c-4-10-13.1-17.4-24-18.9c-1.4-0.2-2.7-0.3-4.1-0.3
		c-7.2,0-13.7,2.5-18.9,6.6c-1.3-7.4-7.8-13.1-15.7-13.1c-0.1,0-0.1,0-0.2,0c-1.5-13.2-12.7-23.4-26.3-23.4c-6.3,0-12,2.2-16.5,5.8
		c-6.3-10.3-17.7-17.1-30.7-17.1c-19.9,0-36,16.1-36,36c0,4.7,0.9,9.1,2.5,13.2c-2.8,2.9-4.5,6.8-4.5,11.1c0,1.1,0.1,2.2,0.3,3.2
		c-8.2,2.4-15.1,7.9-19.3,15.2c-2-0.6-4.1-1-6.2-1c-8.9,0-16.4,5.7-19.1,13.7h21.3h17h22.6h25.5h37.9h23.8h19.7h8.8h19.8h17.1h28.4
		C-25.8,372-29.4,363.9-35.3,358z"/>
</g>
<g>
	<g>
		<g>
			<g>
				<g>
					<rect x="52.5" y="670.8" class="st12" width="12.7" height="52.9"/>
				</g>
				<g>
					<rect x="52.5" y="670.8" class="st13" width="6.4" height="52.9"/>
				</g>
			</g>
			<g>
				<g>
					<g>
						<polygon class="st14" points="8.3,690.6 58.9,595.5 109.4,690.6 						"/>
					</g>
					<g>
						<polygon class="st15" points="58.9,690.6 58.9,595.5 109.4,690.6 						"/>
					</g>
					<g>
						<polygon class="st14" points="89.6,653.3 58.9,653.3 58.9,595.5 						"/>
					</g>
					<g>
						<polygon class="st16" points="58.9,595.5 58.9,653.3 28.2,653.3 						"/>
					</g>
				</g>
				<g>
					<g>
						<polygon class="st14" points="19.2,650.1 58.9,575.6 98.5,650.1 						"/>
					</g>
					<g>
						<polygon class="st15" points="58.9,650.1 58.9,575.6 98.5,650.1 						"/>
					</g>
					<g>
						<polygon class="st14" points="82.9,620.8 58.9,620.8 58.9,575.6 						"/>
					</g>
					<g>
						<polygon class="st16" points="58.9,575.6 58.9,620.8 34.8,620.8 						"/>
					</g>
				</g>
				<g>
					<g>
						<polygon class="st14" points="91,617.6 26.7,617.6 38.7,595.1 58.9,557.1 79,595.1 						"/>
					</g>
					<g>
						<polygon class="st15" points="58.9,617.6 58.9,557.1 91,617.6 						"/>
					</g>
					<g>
						<polygon class="st19" points="58.9,547.3 61.5,552.7 67.5,553.6 63.2,557.8 64.2,563.7 58.9,560.9 53.5,563.7 54.5,557.8 
							50.2,553.6 56.2,552.7 						"/>
					</g>
				</g>
			</g>
		</g>
		<g class="st17">
			<polygon class="st18" points="52.5,723.7 22.7,733.1 65.2,723.7 			"/>
		</g>
	</g>
	<g>
		<path class="st4" d="M72.3,581.3c-7.5,11.6-16.1,23-28,30.3c-3.6,2.2-7.4,4-11.4,5.3c-0.4,0.1,0,0.2,0.2,0.1
			c13.5-4.6,24-14.1,32.4-25.4c2.6-3.4,5-6.9,7.3-10.5C72.8,581.1,72.4,581.1,72.3,581.3L72.3,581.3z"/>
	</g>
	<g>
		<path class="st4" d="M84.8,624.8c-12.6,12-29.4,20.3-46.6,23.1c-4.8,0.8-9.6,1.1-14.4,0.8c-0.2,0-0.6,0.2-0.2,0.3
			c17.5,0.9,35.3-5.2,49.9-14.8c4.2-2.8,8.1-5.9,11.8-9.3C85.4,624.7,84.9,624.7,84.8,624.8L84.8,624.8z"/>
	</g>
	<g>
		<path class="st4" d="M93.2,661.8c-8.2,8.7-20.1,13.7-31.2,17.5c-11.6,4-23.7,6.8-35.9,8.4c-4.4,0.6-8.9,1.2-13.3,1
			c-0.2,0-0.6,0.3-0.2,0.3c3.9,0.1,7.8-0.3,11.7-0.8c5.7-0.7,11.3-1.7,16.9-2.9c12.7-2.8,25.5-6.5,37.1-12.5
			c5.6-2.9,11.1-6.3,15.4-11C93.8,661.7,93.3,661.7,93.2,661.8L93.2,661.8z"/>
	</g>
	<g>
		<rect x="33.7" y="617.3" class="st4" width="50.4" height="0.3"/>
	</g>
	<g>
		<rect x="22.8" y="649.9" class="st4" width="70.8" height="0.3"/>
	</g>
	<g>
		<rect x="11.9" y="690.1" class="st4" width="92.9" height="0.3"/>
	</g>
	<g>
		<g>
			<circle class="st20" cx="33.7" cy="617.4" r="2.6"/>
		</g>
		<g>
			<circle class="st19" cx="43.8" cy="617.4" r="2.6"/>
		</g>
		<g>
			<circle class="st19" cx="67.5" cy="602.4" r="2.6"/>
		</g>
		<g>
			<circle class="st21" cx="53.8" cy="617.4" r="2.6"/>
		</g>
		<g>
			<circle class="st20" cx="74" cy="617.4" r="2.6"/>
		</g>
		<g>
			
				<ellipse transform="matrix(0.1597 -0.9872 0.9872 0.1597 -534.0736 547.2681)" class="st20" cx="54.4" cy="587.3" rx="2.6" ry="2.6"/>
		</g>
		<g>
			<circle class="st4" cx="63.9" cy="617.6" r="2.6"/>
		</g>
		<g>
			<circle class="st4" cx="43.8" cy="601" r="2.6"/>
		</g>
		<g>
			<circle class="st21" cx="84" cy="617.4" r="2.6"/>
		</g>
		<g>
			<circle class="st21" cx="79.7" cy="608.5" r="2.6"/>
		</g>
	</g>
	<g>
		<g>
			<circle class="st20" cx="33.7" cy="650.1" r="2.6"/>
		</g>
		<g>
			<circle class="st19" cx="23.6" cy="650.1" r="2.6"/>
		</g>
		<g>
			<circle class="st19" cx="50.2" cy="639.6" r="2.6"/>
		</g>
		<g>
			<circle class="st19" cx="43.8" cy="650.1" r="2.6"/>
		</g>
		<g>
			<circle class="st19" cx="70.1" cy="629.4" r="2.6"/>
		</g>
		<g>
			<circle class="st21" cx="53.8" cy="650.1" r="2.6"/>
		</g>
		<g>
			<circle class="st20" cx="74" cy="650.1" r="2.6"/>
		</g>
		<g>
			<circle class="st20" cx="41.2" cy="633.8" r="2.6"/>
		</g>
		<g>
			<circle class="st4" cx="63.9" cy="650.1" r="2.6"/>
		</g>
		<g>
			<circle class="st21" cx="84" cy="650.1" r="2.6"/>
		</g>
		<g>
			<circle class="st21" cx="79.7" cy="639.6" r="2.6"/>
		</g>
		<g>
			<circle class="st20" cx="93.6" cy="650.1" r="2.6"/>
		</g>
	</g>
	<g>
		<g>
			<circle class="st20" cx="33.7" cy="690.2" r="2.6"/>
		</g>
		<g>
			<circle class="st20" cx="67.6" cy="663.6" r="2.6"/>
		</g>
		<g>
			<circle class="st19" cx="23.6" cy="690.2" r="2.6"/>
		</g>
		<g>
			
				<ellipse transform="matrix(0.9999 -1.020244e-02 1.020244e-02 0.9999 -7.0411 0.1655)" class="st21" cx="12.7" cy="690.2" rx="2.6" ry="2.6"/>
		</g>
		<g>
			<circle class="st21" cx="91" cy="676.4" r="2.6"/>
		</g>
		<g>
			<circle class="st19" cx="43.8" cy="690.2" r="2.6"/>
		</g>
		<g>
			<circle class="st19" cx="48.9" cy="675.2" r="2.6"/>
		</g>
		<g>
			<circle class="st21" cx="53.8" cy="690.2" r="2.6"/>
		</g>
		<g>
			<circle class="st4" cx="63.9" cy="690.2" r="2.6"/>
		</g>
		<g>
			<circle class="st4" cx="79.7" cy="679.5" r="2.6"/>
		</g>
		<g>
			<circle class="st4" cx="36.3" cy="664.5" r="2.6"/>
		</g>
		<g>
			<circle class="st20" cx="74" cy="690.2" r="2.6"/>
		</g>
		<g>
			<circle class="st20" cx="26.1" cy="678.5" r="2.6"/>
		</g>
		<g>
			<circle class="st21" cx="84" cy="690.2" r="2.6"/>
		</g>
		<g>
			<circle class="st4" cx="93.6" cy="690.2" r="2.6"/>
		</g>
		<g>
			<circle class="st20" cx="104.2" cy="690.2" r="2.6"/>
		</g>
	</g>
</g>
<g>
	<g>
		<g>
			<g>
				<g>
					<rect x="349.8" y="683.3" class="st12" width="7.2" height="30.1"/>
				</g>
				<g>
					<rect x="349.8" y="683.3" class="st13" width="3.6" height="30.1"/>
				</g>
			</g>
			<g>
				<g>
					<g>
						<polygon class="st14" points="324.7,694.6 353.4,640.5 382.2,694.6 						"/>
					</g>
					<g>
						<polygon class="st15" points="353.4,694.6 353.4,640.5 382.2,694.6 						"/>
					</g>
					<g>
						<polygon class="st14" points="370.9,673.3 353.4,673.3 353.4,640.5 						"/>
					</g>
					<g>
						<polygon class="st16" points="353.4,640.5 353.4,673.3 336,673.3 						"/>
					</g>
				</g>
				<g>
					<g>
						<polygon class="st14" points="330.9,671.5 353.4,629.1 376,671.5 						"/>
					</g>
					<g>
						<polygon class="st15" points="353.4,671.5 353.4,629.1 376,671.5 						"/>
					</g>
					<g>
						<polygon class="st14" points="367.1,654.9 353.4,654.9 353.4,629.1 						"/>
					</g>
					<g>
						<polygon class="st16" points="353.4,629.1 353.4,654.9 339.7,654.9 						"/>
					</g>
				</g>
				<g>
					<g>
						<polygon class="st14" points="371.7,653.1 335.1,653.1 342,640.2 353.4,618.7 364.9,640.2 						"/>
					</g>
					<g>
						<polygon class="st15" points="353.4,653.1 353.4,618.7 371.7,653.1 						"/>
					</g>
					<g>
						<polygon class="st19" points="353.4,613.1 355,616.1 358.3,616.6 355.9,619 356.5,622.4 353.4,620.8 350.4,622.4 351,619 
							348.5,616.6 351.9,616.1 						"/>
					</g>
				</g>
			</g>
		</g>
		<g class="st17">
			<polygon class="st18" points="349.8,713.4 332.9,718.7 357.1,713.4 			"/>
		</g>
	</g>
	<g>
		<path class="st4" d="M361.1,632.4c-4.3,6.6-9.1,13.1-15.9,17.2c-2,1.3-4.2,2.3-6.5,3c-0.2,0.1,0,0.1,0.1,0.1
			c7.7-2.6,13.6-8,18.4-14.4c1.5-1.9,2.8-3.9,4.1-6C361.4,632.3,361.1,632.3,361.1,632.4L361.1,632.4z"/>
	</g>
	<g>
		<path class="st4" d="M368.2,657.2c-7.2,6.9-16.7,11.6-26.5,13.1c-2.7,0.4-5.4,0.6-8.2,0.5c-0.1,0-0.3,0.1-0.1,0.1
			c10,0.5,20.1-3,28.4-8.4c2.4-1.6,4.6-3.3,6.7-5.3C368.6,657.1,368.3,657.1,368.2,657.2L368.2,657.2z"/>
	</g>
	<g>
		<path class="st4" d="M373,678.2c-4.6,5-11.4,7.8-17.7,9.9c-6.6,2.3-13.5,3.8-20.4,4.8c-2.5,0.3-5.1,0.7-7.6,0.6
			c-0.1,0-0.3,0.2-0.1,0.2c2.2,0.1,4.4-0.2,6.6-0.4c3.2-0.4,6.4-1,9.6-1.7c7.2-1.6,14.5-3.7,21.1-7.1c3.2-1.6,6.3-3.6,8.8-6.2
			C373.3,678.1,373,678.1,373,678.2L373,678.2z"/>
	</g>
	<g>
		<rect x="339.1" y="652.9" class="st4" width="28.7" height="0.2"/>
	</g>
	<g>
		<rect x="332.9" y="671.5" class="st4" width="40.3" height="0.2"/>
	</g>
	<g>
		<rect x="326.7" y="694.3" class="st4" width="52.8" height="0.2"/>
	</g>
	<g>
		<g>
			<circle class="st20" cx="339.1" cy="653" r="1.5"/>
		</g>
		<g>
			<circle class="st19" cx="344.8" cy="653" r="1.5"/>
		</g>
		<g>
			<circle class="st19" cx="358.3" cy="644.4" r="1.5"/>
		</g>
		<g>
			<circle class="st21" cx="350.6" cy="653" r="1.5"/>
		</g>
		<g>
			<circle class="st20" cx="362" cy="653" r="1.5"/>
		</g>
		<g>
			<ellipse class="st20" cx="350.9" cy="635.8" rx="1.5" ry="1.5"/>
		</g>
		<g>
			<circle class="st4" cx="356.3" cy="653.1" r="1.5"/>
		</g>
		<g>
			<circle class="st4" cx="344.8" cy="643.6" r="1.5"/>
		</g>
		<g>
			<circle class="st21" cx="367.8" cy="653" r="1.5"/>
		</g>
		<g>
			<circle class="st21" cx="365.3" cy="647.9" r="1.5"/>
		</g>
	</g>
	<g>
		<g>
			<circle class="st20" cx="339.1" cy="671.5" r="1.5"/>
		</g>
		<g>
			<circle class="st19" cx="333.3" cy="671.5" r="1.5"/>
		</g>
		<g>
			<circle class="st19" cx="348.5" cy="665.6" r="1.5"/>
		</g>
		<g>
			<circle class="st19" cx="344.8" cy="671.5" r="1.5"/>
		</g>
		<g>
			<circle class="st19" cx="359.8" cy="659.8" r="1.5"/>
		</g>
		<g>
			<circle class="st21" cx="350.6" cy="671.5" r="1.5"/>
		</g>
		<g>
			<circle class="st20" cx="362" cy="671.5" r="1.5"/>
		</g>
		<g>
			<circle class="st20" cx="343.4" cy="662.2" r="1.5"/>
		</g>
		<g>
			<circle class="st4" cx="356.3" cy="671.5" r="1.5"/>
		</g>
		<g>
			<circle class="st21" cx="367.8" cy="671.5" r="1.5"/>
		</g>
		<g>
			<circle class="st21" cx="365.3" cy="665.6" r="1.5"/>
		</g>
		<g>
			<circle class="st20" cx="373.2" cy="671.5" r="1.5"/>
		</g>
	</g>
	<g>
		<g>
			<circle class="st20" cx="339.1" cy="694.4" r="1.5"/>
		</g>
		<g>
			<circle class="st20" cx="358.4" cy="679.2" r="1.5"/>
		</g>
		<g>
			<circle class="st19" cx="333.3" cy="694.4" r="1.5"/>
		</g>
		<g>
			<circle class="st21" cx="327.2" cy="694.4" r="1.5"/>
		</g>
		<g>
			<circle class="st21" cx="371.7" cy="686.5" r="1.5"/>
		</g>
		<g>
			<circle class="st19" cx="344.8" cy="694.4" r="1.5"/>
		</g>
		<g>
			<circle class="st19" cx="347.8" cy="685.8" r="1.5"/>
		</g>
		<g>
			<circle class="st21" cx="350.6" cy="694.4" r="1.5"/>
		</g>
		<g>
			<circle class="st4" cx="356.3" cy="694.4" r="1.5"/>
		</g>
		<g>
			<circle class="st4" cx="365.3" cy="688.2" r="1.5"/>
		</g>
		<g>
			<circle class="st4" cx="340.6" cy="679.8" r="1.5"/>
		</g>
		<g>
			<circle class="st20" cx="362" cy="694.4" r="1.5"/>
		</g>
		<g>
			<circle class="st20" cx="334.8" cy="687.7" r="1.5"/>
		</g>
		<g>
			<circle class="st21" cx="367.8" cy="694.4" r="1.5"/>
		</g>
		<g>
			<circle class="st4" cx="373.2" cy="694.4" r="1.5"/>
		</g>
		<g>
			<circle class="st20" cx="379.2" cy="694.4" r="1.5"/>
		</g>
	</g>
</g>
<g>
	<path class="st22" d="M358.5,718.9c-20.3-0.5-40.7,0.5-60.8,2.9C317.9,726.2,338.9,725.9,358.5,718.9z"/>
	<g>
		<path class="st23" d="M322,722c3.2,1.2,6.7,1.3,10.1,0.8c2.4-0.4,4.8-1.1,6.8-2.5c3.6-2.6,5.4-7.9,5.5-12.2
			c0.1-7.5-3.4-13.8-10.8-16.2c-7.3-2.3-16.2,0.8-19.9,7.5c-4.6,8.2-0.6,19.1,8.1,22.4C321.8,721.9,321.9,722,322,722z"/>
		<path class="st24" d="M319.2,717.2c1.6,1.1,3.7,1.5,5.6,1.2c1.5-0.3,2.9-1,3.7-2.3c0.6-1,0.8-2.1,0.9-3.3c0.3-2.8,0.1-5.7-0.9-8.3
			s-2.8-5-5.3-6.2c-7.1-3.5-8.9,6.8-8.1,11.6C315.5,712.7,316.8,715.6,319.2,717.2z"/>
		<path class="st25" d="M341.3,709.4c0,1.2-0.1,2.4-0.3,3.6c-1.9,0.5-4.4,0.1-6.4,0.1c0.1-1.2,0.2-2.3,0.2-3.5
			c0-1.6-0.1-3.2-0.4-4.7c-0.2-1.4-0.5-2.7-0.9-4c-0.3-1.1-0.6-2.1-1-3.1c2-0.5,3.9-1.1,5.7-2.2c0.6,1.2,1.1,2.3,1.5,3.6
			s0.8,2.6,1.1,4C341.2,705.2,341.3,707.3,341.3,709.4z"/>
		<path class="st26" d="M315.9,699.1c-0.3-0.9-1-1.6-1.6-2.3c-0.7-0.7-1.4-1.4-2.1-2c-0.8-0.6-1.5-1.2-2.4-1.7
			c-0.7-0.4-1.8-1.2-2.6-1.1c-0.6,0.1-0.8,0.7-0.5,1.1c0.3,0.4,0.7,0.5,1.1,0.7s0.8,0.4,1.2,0.6c0.8,0.4,1.5,0.9,2.3,1.5
			c0.7,0.6,1.4,1.2,2.1,1.8c0.6,0.6,1.1,1.3,1.8,1.8C315.6,699.9,316,699.5,315.9,699.1z"/>
		<path class="st25" d="M309.4,691.5c-0.1,0.8-0.2,1.7-0.7,2.4s-1.3,1.2-2.1,1c-0.4-0.1-0.7-0.3-1-0.5c-1.1-0.5-2.4,0-3.5,0.4
			s-2.4,0.9-3.5,0.3c-1.4-0.7-1.7-2.6-0.9-3.9c0.8-1.3,2.4-1.9,3.9-1.9c-0.2-0.7-0.3-1.4-0.2-2.1c0.1-0.7,0.5-1.4,1.2-1.6
			c0.8-0.2,1.5,0.4,2,1s0.8,1.4,1.3,2c0.6,0.5,1.3,0.8,2.1,1.1C308.6,690.2,309.5,690.8,309.4,691.5z"/>
		<path class="st27" d="M300.7,694.6c0.9-0.3,1.7-0.5,2.6-0.8c0.7-0.2,1.5-0.5,1.5-1.2c0-0.4-0.3-0.8-0.6-1.1
			c-1.6-1.4-4.2-1.3-5.7,0.2c-0.4,0.4-0.7,0.8-0.8,1.3c-0.1,0.5,0,1.1,0.4,1.4C298.8,695.1,299.9,694.9,300.7,694.6z"/>
		<path class="st27" d="M308.8,692.5c0.1-0.5,0.3-1.4-0.4-1.5c-1.7-0.3-1.8,4.5-0.2,2.7C308.5,693.4,308.6,692.9,308.8,692.5z"/>
		<path class="st26" d="M340.9,698.1c0.3-0.9,1-1.6,1.6-2.3c0.7-0.7,1.4-1.4,2.1-2c0.8-0.6,1.5-1.2,2.4-1.7c0.7-0.4,1.8-1.2,2.6-1.1
			c0.6,0.1,0.8,0.7,0.5,1.1c-0.3,0.4-0.7,0.5-1.1,0.7s-0.8,0.4-1.2,0.6c-0.8,0.4-1.5,0.9-2.3,1.5c-0.7,0.6-1.4,1.2-2.1,1.8
			c-0.6,0.6-1.1,1.3-1.8,1.8C341.3,698.9,340.8,698.5,340.9,698.1z"/>
		<path class="st25" d="M347.5,690.6c0.1,0.8,0.2,1.7,0.7,2.4s1.3,1.2,2.1,1c0.4-0.1,0.7-0.3,1-0.5c1.1-0.5,2.4,0,3.5,0.4
			s2.4,0.9,3.5,0.3c1.4-0.7,1.7-2.6,0.9-3.9c-0.8-1.3-2.4-1.9-3.9-1.9c0.2-0.7,0.3-1.4,0.2-2.1c-0.1-0.7-0.5-1.4-1.2-1.6
			c-0.8-0.2-1.5,0.4-2,1s-0.8,1.4-1.3,2c-0.6,0.5-1.3,0.8-2.1,1.1C348.3,689.3,347.4,689.8,347.5,690.6z"/>
		<path class="st27" d="M356.1,693.7c-0.9-0.3-1.7-0.5-2.6-0.8c-0.7-0.2-1.5-0.5-1.5-1.2c0-0.4,0.3-0.8,0.6-1.1
			c1.6-1.4,4.2-1.3,5.7,0.2c0.4,0.4,0.7,0.8,0.8,1.3c0.1,0.5,0,1.1-0.4,1.4C358,694.1,357,693.9,356.1,693.7z"/>
		<path class="st27" d="M348.1,691.6c-0.1-0.5-0.3-1.4,0.4-1.5c1.7-0.3,1.8,4.5,0.2,2.7C348.3,692.5,348.2,692,348.1,691.6z"/>
		<path class="st27" d="M340.8,696.3c-1.2,0.6-2.5,1.2-3.8,1.6c-1.9,0.7-3.8,1.1-5.8,1.3c-2.1,0.3-4.2,0.3-6.2,0.1
			c-1.9-0.2-3.7-0.6-5.5-1.2c-1.4-0.4-2.7-1-4-1.7c0.5-2,1.3-4.3,2.2-6.1c1.2,0.3,2.4,0.6,3.6,0.8c1.6,0.3,3.2,0.5,4.9,0.6
			c1.5,0.1,3.1,0.1,4.6,0c1.7-0.1,3.4-0.3,5-0.6c0.9-0.2,1.8-0.4,2.7-0.6C339.3,692.3,339.9,694.5,340.8,696.3z"/>
		<path class="st28" d="M326,691.8c-0.4,2.6-0.7,5.1-1,7.6c-1.9-0.2-3.7-0.6-5.5-1.2c0.5-2.4,1.1-4.7,1.7-7
			C322.8,691.5,324.4,691.7,326,691.8z"/>
		<path class="st28" d="M337,698c-1.9,0.7-3.8,1.1-5.8,1.3c-0.2-2.5-0.4-5-0.6-7.5c1.7-0.1,3.4-0.3,5-0.6
			C336.1,693.4,336.6,695.7,337,698z"/>
		<path class="st24" d="M338.7,689c0.1-0.5,0.2-1.1,0.3-1.7c0.4-5.4-5.1-9.9-10.1-9.9c-4,0-8.2,1.3-10.4,4.8
			c-1.9,2.9-1.8,6.3,0.2,9.1c1.8,2.6,5.7,3.6,8.8,3.6c2.7,0.1,5.6-0.7,7.9-2C337.2,691.9,338.2,690.8,338.7,689z"/>
		<path class="st29" d="M335.3,688.3c1-1.9,0.9-4.4-0.4-6.2c-1.1-1.6-3-2.6-4.9-2.9c-1.9-0.3-3.9,0-5.8,0.7
			c-1.8,0.6-3.5,1.6-4.5,3.2c-1.3,2.3-0.5,5.5,1.5,7.3s4.9,2.3,7.6,1.9C331.5,691.9,334.1,690.6,335.3,688.3z"/>
		<path class="st30" d="M340.8,703.2c-2,0.9-4.1,1.5-6.3,1.8c-0.2-1.4-0.5-2.7-0.9-4c2-0.6,4.1-1.2,6.1-1.8
			C340.1,700.5,340.5,701.8,340.8,703.2z"/>
		<path class="st25" d="M335.2,712.8c-0.1-0.2-0.3-0.3-0.4-0.1c-0.3,0.3-0.3,0.7-0.4,1.1c-0.1,0.4-0.2,0.9-0.1,1.3
			c0.1,0.3,0.4,0.3,0.5,0.1c0.2-0.3,0.3-0.8,0.3-1.2C335.2,713.6,335.4,713.2,335.2,712.8z"/>
		<path class="st25" d="M336.7,712.9c-0.1-0.1-0.3-0.2-0.4,0c-0.3,0.3-0.3,0.8-0.4,1.3c-0.1,0.4-0.3,0.9,0,1.3
			c0.1,0.1,0.2,0.1,0.3,0c0.4-0.2,0.3-0.7,0.4-1.1C336.7,713.8,336.9,713.3,336.7,712.9z"/>
		<path class="st25" d="M338.1,713c-0.1-0.3-0.5-0.3-0.5,0c-0.2,0.7,0,1.5-0.2,2.2c-0.1,0.4,0.5,0.6,0.6,0.2
			c0.1-0.4,0.1-0.8,0.1-1.1C338.2,713.8,338.3,713.4,338.1,713z"/>
		<path class="st25" d="M339.7,714.3c0-0.5,0-1-0.2-1.4c-0.1-0.2-0.3-0.1-0.4,0.1c-0.2,0.4-0.1,0.9-0.1,1.4c0,0.4-0.1,0.9,0.1,1.2
			c0.1,0.1,0.3,0.1,0.4,0C339.8,715.2,339.7,714.7,339.7,714.3z"/>
		<path class="st25" d="M340.9,712.7c-0.1-0.1-0.2-0.1-0.3,0c-0.2,0.3-0.2,0.7-0.2,1.1c-0.1,0.6-0.1,1.1-0.2,1.7
			c0,0.3,0.5,0.4,0.5,0.1c0.1-0.5,0.2-1,0.2-1.5C341,713.5,341.1,713.1,340.9,712.7z"/>
		<path class="st30" d="M341.3,709.4c0,1.2-0.1,2.4-0.3,3.6c-1.9,0.5-4.4,0.1-6.4,0.1c0.1-1.2,0.2-2.3,0.2-3.5
			C337,709.8,339.2,709.7,341.3,709.4z"/>
		<path class="st31" d="M325.3,689c-4.4,0.3-8.5-1.1-12.2-3.5c4,0.1,8,0,12-0.3C325.7,686.3,325.7,687.8,325.3,689z"/>
		<path class="st32" d="M323.5,687c0.2,0,0.4,0,0.6-0.2c0.2-0.1,0.3-0.3,0.3-0.6c-0.1-0.3-0.4-0.4-0.7-0.4c-1.5-0.2-3.1-0.2-4.6,0
			c-0.2,0-0.3,0-0.4,0.1s-0.2,0.3-0.1,0.4c0.1,0.1,0.2,0.1,0.3,0.1C320.4,687.1,322,687.2,323.5,687z"/>
		<path class="st26" d="M340.8,680.9c-8.5,0.1-16.9-0.5-25.3-1.7C324.1,677.2,332.6,677.8,340.8,680.9z"/>
		<path class="st26" d="M337.8,666.1c-0.7,2.9-1.4,5.9-2.1,8.9c-0.4,1.6-0.8,3.2-1.1,4.8c-4.2,0.9-8.3,0.1-12.5-0.9
			c-0.3-1.5-0.5-3.1-0.8-4.6c-0.4-2.8-0.6-5.6-0.7-8.4C326.3,665.7,332.1,665.5,337.8,666.1z"/>
		<path class="st28" d="M335.7,675c-0.4,1.6-0.8,3.2-1.1,4.8c-4.2,0.9-8.3,0.1-12.5-0.9c-0.3-1.5-0.5-3.1-0.8-4.6
			C326,675.5,330.9,675.7,335.7,675z"/>
		<path class="st33" d="M334.8,674c-1.5,0.5-3.1,0.8-4.7,0.7c0.2-2.6,0.5-5.2,0.7-7.8c1.3,0.2,3.1,0.5,4.4,0.4
			C335.3,669.5,335.2,671.9,334.8,674z"/>
		<path class="st30" d="M333.7,679.5c0.1-1,0.5-2.2,0.6-3.2c-1.4,0.3-2.9,0.3-4.4,0c0,1-0.2,2.2-0.2,3.3
			C331,679.6,332.5,679.8,333.7,679.5z"/>
		<path class="st34" d="M326.2,684.9c0.1-1.3-0.2-3.2-1.5-3.6c-1.5-0.4-2.6,1-3.3,2.2c-0.2,0.3,0.2,0.5,0.4,0.3
			c0.7-0.8,1.4-2,2.6-1.9c1.3,0.1,1.2,2,1.2,3C325.6,685.4,326.2,685.3,326.2,684.9z"/>
		<path class="st34" d="M333.9,683.6c-0.6-1.1-1.8-2.7-3.2-2.3c-1.4,0.5-1.7,2.2-1.7,3.6c0,0.3,0.5,0.4,0.5,0.1
			c0.2-1.1,0.1-2.5,1.2-3s2,1.1,2.6,1.9C333.7,684.3,334.1,684,333.9,683.6z"/>
		<path class="st34" d="M322.2,690.6c-0.2,0-0.4,0.2-0.4,0.5v0.2c0,0.2,0.2,0.5,0.4,0.5c0.2,0,0.4-0.2,0.4-0.5v-0.2
			C322.6,690.8,322.4,690.6,322.2,690.6z"/>
		<path class="st34" d="M324.9,691.4c-0.2,0-0.4,0.2-0.4,0.5v0.2c0,0.2,0.2,0.5,0.4,0.5c0.2,0,0.4-0.2,0.4-0.5v-0.2
			C325.3,691.6,325.1,691.4,324.9,691.4z"/>
		<path class="st34" d="M328,691.4c-0.2,0-0.4,0.2-0.4,0.5v0.2c0,0.2,0.2,0.5,0.4,0.5c0.2,0,0.4-0.2,0.4-0.5v-0.2
			C328.4,691.6,328.2,691.4,328,691.4z"/>
		<path class="st34" d="M331.1,690.8c-0.2,0-0.4,0.2-0.4,0.5v0.2c0,0.2,0.2,0.5,0.4,0.5c0.2,0,0.4-0.2,0.4-0.5v-0.2
			C331.5,691.1,331.3,690.8,331.1,690.8z"/>
	</g>
</g>
</svg>
