<?xml version="1.0" encoding="utf-8"?>
<!-- Generator: Adobe Illustrator 22.1.0, SVG Export Plug-In . SVG Version: 6.00 Build 0)  -->
<svg version="1.1" id="Capa_1" xmlns="http://www.w3.org/2000/svg" xmlns:xlink="http://www.w3.org/1999/xlink" x="0px" y="0px"
	 viewBox="0 0 480 480" style="enable-background:new 0 0 480 480;" xml:space="preserve">
<g>
	<g>
		<path d="M477.1,176.3c-13.1-55.9-69.1-90.6-125-77.5C349.3,43.5,303.4,12,248,12c-57.4,0-103.8,34.6-103.8,92c0,0.5,0,1.1,0,1.6
			c-5.3-1.1-10.6-1.6-16-1.6c-36.1,0.1-67.8,24.3-77.2,59.2C20.8,172.5,0.2,200.4,0.2,232c0,39.8,32.3,72,72,72h304
			c3,0,5.8-0.1,8.7-0.3c5-0.4,9.9-1.2,14.7-2.4C455.5,288.2,490.2,232.3,477.1,176.3z M383.5,287.8c-2.4,0.2-4.8,0.3-7.3,0.3h-304
			c-26,0-48.6-17.9-54.5-43.2c-7-30.1,11.7-60.2,41.8-67.3c3.1-0.7,5.4-3.1,6-6.2c6.1-29.8,32.3-51.2,62.7-51.3
			c7.5,0,14.9,1.3,21.9,3.9c1.3,0.5,2.6,0.6,4,0.5c4.4-0.6,7.4-4.6,6.8-9c-0.5-3.8-0.7-7.6-0.7-11.4c0-48.6,37.2-77,85.8-77
			s90.2,28.4,90.2,77c0,1.7-0.1,3.4-0.2,5.2c0,1,0.1,2.1,0.5,3.1c1.5,4.2,6.1,6.3,10.2,4.8c9.5-3.4,19.4-5.1,29.5-5
			c45.9-0.1,84.2,35.1,87.9,80.9C468,241.4,431.9,283.8,383.5,287.8z"/>
	</g>
</g>
</svg>
