<?xml version="1.0" encoding="utf-8"?>
<!-- Generator: Adobe Illustrator 22.1.0, SVG Export Plug-In . SVG Version: 6.00 Build 0)  -->
<svg version="1.1" xmlns="http://www.w3.org/2000/svg" xmlns:xlink="http://www.w3.org/1999/xlink" x="0px" y="0px"
	 viewBox="0 0 450 800" style="enable-background:new 0 0 450 800;" xml:space="preserve">
<style type="text/css">
	.st0{opacity:0.16;fill:url(#SVGID_1_);enable-background:new    ;}
	.st1{display:none;}
	.st2{display:inline;fill:url(#SVGID_2_);}
	.st3{fill:url(#SVGID_3_);}
	.st4{fill:#616161;}
	.st5{fill:#878B8E;}
	.st6{fill:#696B6D;}
	.st7{fill:#4C4C4D;}
	.st8{fill:#2D1818;}
	.st9{fill:#464747;}
	.st10{fill:#4D5256;}
	.st11{fill:#FFFFFF;}
</style>
<g id="Livello_1">
	<g id="Livello_2_3_">
		<linearGradient id="SVGID_1_" gradientUnits="userSpaceOnUse" x1="0" y1="400" x2="450" y2="400">
			<stop  offset="0" style="stop-color:#4B4B4B"/>
			<stop  offset="0.9987" style="stop-color:#8C9DA6"/>
		</linearGradient>
		<rect y="0" class="st0" width="450" height="800"/>
	</g>
	<g id="Livello_1_1_">
		<g id="Livello_7" class="st1">
			
				<linearGradient id="SVGID_2_" gradientUnits="userSpaceOnUse" x1="225" y1="542.8109" x2="225" y2="1283.8109" gradientTransform="matrix(1 0 0 -1 0 1283.8109)">
				<stop  offset="0" style="stop-color:#70C9D7;stop-opacity:0.9"/>
				<stop  offset="1" style="stop-color:#54A6CA"/>
			</linearGradient>
			<polygon class="st2" points="0,741 450,739 450,0 0,0 			"/>
		</g>
		<linearGradient id="SVGID_3_" gradientUnits="userSpaceOnUse" x1="225" y1="-1.153425e-05" x2="225" y2="800">
			<stop  offset="0" style="stop-color:#4B4B4B"/>
			<stop  offset="0.9987" style="stop-color:#8C9DA6"/>
		</linearGradient>
		<rect y="0" class="st3" width="450" height="800"/>
	</g>
	<g id="Livello_2_1_">
	</g>
	<g id="Livello_5">
		<polygon class="st4" points="0,741 0,684 74,609 265,741 		"/>
	</g>
	<g id="Livello_6">
		<polygon class="st5" points="73,609 250,740 299,740 		"/>
	</g>
	<g id="Livello_3">
		<polygon class="st4" points="450,753 450,628.5 404,570 220,753 		"/>
	</g>
	<g id="Livello_4">
		<polygon class="st6" points="404,572 234,740 185,740 		"/>
	</g>
	<g id="Livello_2_2_">
		<rect y="740" class="st7" width="450" height="60"/>
	</g>
	<rect x="403" y="709" class="st8" width="11.3" height="34.8"/>
	<path class="st8" d="M385.4,714.9c0,0,18.8-5.9,24.1-5.9s20.4,5.9,22.4,5.9s-22.4-49.3-22.4-49.3L385.4,714.9z"/>
	<rect x="43.7" y="720" class="st9" width="6.7" height="20.5"/>
	<path class="st9" d="M33.3,723.5c0,0,11-3.5,14.1-3.5s12,3.5,13.2,3.5s-13.2-29-13.2-29L33.3,723.5z"/>
	<rect x="132" y="709" class="st9" width="11.3" height="34.8"/>
	<path class="st9" d="M114.4,714.9c0,0,18.8-5.9,24.1-5.9s20.4,5.9,22.4,5.9s-22.4-49.3-22.4-49.3L114.4,714.9z"/>
	<rect x="249.9" y="722.2" class="st10" width="5.6" height="17.4"/>
	<path class="st10" d="M241.1,725.1c0,0,9.4-2.9,12-2.9s10.2,2.9,11.2,2.9s-11.2-24.6-11.2-24.6L241.1,725.1z"/>
	<rect x="54.8" y="710" class="st8" width="13.8" height="42.5"/>
	<path class="st8" d="M33.3,717.1c0,0,22.9-7.2,29.3-7.2s24.9,7.2,27.3,7.2c2.5,0-27.3-60.1-27.3-60.1L33.3,717.1z"/>
	<path class="st11" d="M216.8,643.6c-0.4-3.8-3.7-6.7-7.6-6.7c-2.8,0-5.3,1.5-6.6,3.8c0,0,0,0-0.1,0c-2.8,0-5.2,2-5.6,4.7h-0.1
		c-1.9,0-3.4,1.5-3.4,3.4s1.5,3.4,3.4,3.4c0.2,0,0.5,0,0.7-0.1h4.7c0.1,0,0.2,0,0.3,0s0.2,0,0.3,0h12.7l0,0h0.1
		c2.4,0,4.3-1.9,4.3-4.3C220,645.8,218.6,644.1,216.8,643.6z"/>
	<path class="st11" d="M255.3,638c-0.5-4-3.8-7-7.9-7c-2.9,0-5.5,1.6-6.9,4h-0.1c-2.9,0-5.4,2.1-5.9,4.9h-0.1c-2,0-3.6,1.6-3.6,3.6
		s1.6,3.6,3.6,3.6c0.3,0,0.5,0,0.8-0.1h4.9c0.1,0,0.2,0,0.3,0s0.2,0,0.3,0H254l0,0h0.1c2.5,0,4.5-2,4.5-4.5
		C258.6,640.3,257.2,638.5,255.3,638z"/>
	<g id="Livello_4_1_" class="st1">
	</g>
	<g id="Livello_3_1_" class="st1">
	</g>
</g>
<g id="Livello_2">
</g>
</svg>
