<?xml version="1.0" encoding="utf-8"?>
<!-- Generator: Adobe Illustrator 22.1.0, SVG Export Plug-In . SVG Version: 6.00 Build 0)  -->
<svg version="1.1" xmlns="http://www.w3.org/2000/svg" xmlns:xlink="http://www.w3.org/1999/xlink" x="0px" y="0px"
	 viewBox="0 0 1080 1248" style="enable-background:new 0 0 1080 1248;" xml:space="preserve">
<style type="text/css">
	.st0{fill:#91AA9D;}
	.st1{fill:#00FFFF;}
	.st2{fill:#ECBA16;}
	.st3{fill:#4C4C4D;}
	.st4{fill:#848585;}
	.st5{fill:#D1DBBD;}
	.st6{fill:#616161;}
	.st7{fill:#727374;}
	.st8{display:none;}
	.st9{fill:#FFFFFF;}
	.st10{font-family:'Helvetica';}
	.st11{font-size:50px;}
	.st12{font-family:'Helvetica-Light';}
	.st13{font-size:30px;}
	.st14{font-family:'Helvetica-Bold';}
	.st15{font-size:170px;}
</style>
<g id="Livello_5">
	<rect class="st0" width="1080" height="1248"/>
</g>
<g id="Livello_15">
	<rect x="195" y="395" class="st1" width="7" height="27"/>
	<rect x="117" y="324" class="st1" width="7" height="27"/>
	<rect x="211" y="316" class="st1" width="7" height="27"/>
	<rect x="235" y="360" class="st1" width="7" height="27"/>
	<rect x="292" y="361" class="st1" width="7" height="27"/>
	<rect x="312" y="416" class="st1" width="7" height="27"/>
	<rect x="246" y="455" class="st1" width="7" height="27"/>
	<rect x="303" y="501" class="st1" width="7" height="27"/>
	<rect x="397" y="509" class="st1" width="7" height="27"/>
	<rect x="383" y="388" class="st1" width="7" height="27"/>
	<rect x="369" y="454" class="st1" width="7" height="27"/>
	<rect x="348" y="376" class="st1" width="7" height="27"/>
	<rect x="383" y="334" class="st1" width="7" height="27"/>
	<rect x="409" y="297" class="st1" width="7" height="27"/>
	<rect x="431" y="251" class="st1" width="7" height="27"/>
	<rect x="436" y="326" class="st1" width="7" height="27"/>
	<rect x="430" y="393" class="st1" width="7" height="27"/>
	<rect x="440" y="457" class="st1" width="7" height="27"/>
	<rect x="340" y="331" class="st1" width="7" height="27"/>
	<rect x="303" y="284" class="st1" width="7" height="27"/>
	<rect x="272" y="247" class="st1" width="7" height="27"/>
	<rect x="224" y="227" class="st1" width="7" height="27"/>
	<rect x="188" y="218" class="st1" width="7" height="27"/>
	<rect x="176" y="278" class="st1" width="7" height="27"/>
	<rect x="153" y="243" class="st1" width="7" height="27"/>
	<rect x="159" y="346" class="st1" width="7" height="27"/>
	<rect x="153" y="395" class="st1" width="7" height="27"/>
	<rect x="170" y="420" class="st1" width="7" height="27"/>
	<rect x="115" y="426" class="st1" width="7" height="27"/>
	<rect x="155" y="473" class="st1" width="7" height="27"/>
	<rect x="221" y="483" class="st1" width="7" height="27"/>
	<rect x="235" y="419" class="st1" width="7" height="27"/>
	<rect x="253" y="306" class="st1" width="7" height="27"/>
	<rect x="362" y="279" class="st1" width="7" height="27"/>
	<rect x="698" y="445" class="st1" width="7" height="27"/>
	<rect x="620" y="374" class="st1" width="7" height="27"/>
	<rect x="714" y="366" class="st1" width="7" height="27"/>
	<rect x="738" y="410" class="st1" width="7" height="27"/>
	<rect x="795" y="411" class="st1" width="7" height="27"/>
	<rect x="815" y="466" class="st1" width="7" height="27"/>
	<rect x="749" y="505" class="st1" width="7" height="27"/>
	<rect x="806" y="551" class="st1" width="7" height="27"/>
	<rect x="900" y="559" class="st1" width="7" height="27"/>
	<rect x="886" y="438" class="st1" width="7" height="27"/>
	<rect x="872" y="504" class="st1" width="7" height="27"/>
	<rect x="851" y="426" class="st1" width="7" height="27"/>
	<rect x="886" y="384" class="st1" width="7" height="27"/>
	<rect x="912" y="347" class="st1" width="7" height="27"/>
	<rect x="934" y="301" class="st1" width="7" height="27"/>
	<rect x="939" y="376" class="st1" width="7" height="27"/>
	<rect x="933" y="443" class="st1" width="7" height="27"/>
	<rect x="943" y="507" class="st1" width="7" height="27"/>
	<rect x="843" y="381" class="st1" width="7" height="27"/>
	<rect x="806" y="334" class="st1" width="7" height="27"/>
	<rect x="775" y="297" class="st1" width="7" height="27"/>
	<rect x="727" y="277" class="st1" width="7" height="27"/>
	<rect x="691" y="268" class="st1" width="7" height="27"/>
	<rect x="679" y="328" class="st1" width="7" height="27"/>
	<rect x="656" y="293" class="st1" width="7" height="27"/>
	<rect x="662" y="396" class="st1" width="7" height="27"/>
	<rect x="656" y="445" class="st1" width="7" height="27"/>
	<rect x="673" y="470" class="st1" width="7" height="27"/>
	<rect x="618" y="476" class="st1" width="7" height="27"/>
	<rect x="658" y="523" class="st1" width="7" height="27"/>
	<rect x="724" y="533" class="st1" width="7" height="27"/>
	<rect x="738" y="469" class="st1" width="7" height="27"/>
	<rect x="756" y="356" class="st1" width="7" height="27"/>
	<rect x="865" y="329" class="st1" width="7" height="27"/>
</g>
<g id="Livello_16">
	<path class="st2" d="M709,317.2h-18l16.7-26.3h-21L667,330.3h15.5L667,367.1L709,317.2z"/>
	<path class="st2" d="M821.3,351.9h-26l24.1-37.9h-30.3l-28.4,56.9H783L760.7,424L821.3,351.9z"/>
	<path class="st2" d="M215,232.2h-18l16.7-26.3h-21L173,245.3h15.5L173,282.1L215,232.2z"/>
	<path class="st2" d="M337.3,271.9h-26l24.1-37.9h-30.3l-28.4,56.9H299L276.7,344L337.3,271.9z"/>
</g>
<g id="clouds_1_">
	<path class="st3" d="M369.9,135.7c-4.5-39.4-38-70-78.6-70c-29.3,0-54.8,15.9-68.5,39.5c-0.3,0-0.5,0-0.8,0
		c-29.2,0-53.5,21-58.5,48.8c-0.3,0-0.6,0-0.9,0c-19.6,0-35.5,15.9-35.5,35.5c0,19.6,15.9,35.5,35.5,35.5c2.6,0,5.1-0.3,7.6-0.8
		h48.4c1.1,0.1,2.3,0.1,3.4,0.1s2.3,0,3.4-0.1h131.8v0c0.3,0,0.5,0,0.8,0c24.8,0,44.9-20.1,44.9-44.9
		C403,158.3,389,140.9,369.9,135.7z"/>
	<path class="st4" d="M429.3,177.1c-4-35.2-33.9-62.6-70.2-62.6c-26.1,0-48.9,14.2-61.2,35.3c-0.2,0-0.5,0-0.7,0
		c-26.1,0-47.8,18.8-52.2,43.6c-0.3,0-0.5,0-0.8,0c-17.5,0-31.7,14.2-31.7,31.7c0,17.5,14.2,31.7,31.7,31.7c2.3,0,4.6-0.3,6.7-0.7
		h43.2c1,0.1,2,0.1,3,0.1s2,0,3-0.1H418v0c0.2,0,0.5,0,0.7,0c22.2,0,40.1-18,40.1-40.1C458.8,197.4,446.3,181.8,429.3,177.1z"/>
	<path class="st3" d="M860.9,215.7c-4.5-39.4-38-70-78.6-70c-29.3,0-54.8,15.9-68.5,39.5c-0.3,0-0.5,0-0.8,0
		c-29.2,0-53.5,21-58.5,48.8c-0.3,0-0.6,0-0.9,0c-19.6,0-35.5,15.9-35.5,35.5c0,19.6,15.9,35.5,35.5,35.5c2.6,0,5.1-0.3,7.6-0.8
		h48.4c1.1,0.1,2.3,0.1,3.4,0.1s2.3,0,3.4-0.1h131.8v0c0.3,0,0.5,0,0.8,0c24.8,0,44.9-20.1,44.9-44.9
		C894,238.3,880,220.9,860.9,215.7z"/>
	<path class="st4" d="M920.3,257.1c-4-35.2-33.9-62.6-70.2-62.6c-26.1,0-48.9,14.2-61.2,35.3c-0.2,0-0.5,0-0.7,0
		c-26.1,0-47.8,18.8-52.2,43.6c-0.3,0-0.5,0-0.8,0c-17.5,0-31.7,14.2-31.7,31.7c0,17.5,14.2,31.7,31.7,31.7c2.3,0,4.6-0.3,6.7-0.7
		h43.2c1,0.1,2,0.1,3,0.1s2,0,3-0.1H909v0c0.2,0,0.5,0,0.7,0c22.2,0,40.1-18,40.1-40.1C949.8,277.4,937.3,261.8,920.3,257.1z"/>
</g>
<g id="clouds">
	<g>
		<path class="st5" d="M1079.5,403.5c-12.4-2.2-21.8,30.2-23.8,45.2c-40.3-9.6-39.7-9.7-49.7-6.7c-4.6,1.4-16.3,25.4-47,24
			c-4.2-0.2,4.1,0.9,0,0c-24.3-5.3-8.3,30.9-33,28s-50,0-68,12c-34-3-60-11-73-14c-12.3-2.8-52.4,15.3-72,13c-17-2-47.3,24.9-58,24
			c-29.6-2.5-56.6,26.5-86,22c-14.5-2.2-40.8-13-55-17c-28.3-7.9-43.7,9.9-73,12c-40.1,2.8-68.4-34.9-108-28
			c-10.4,1.8-53.2,16.9-63,13c-5.5-2.2-19.5-8-24-12c-19.5-17.3-28-12-58-22c-9-20-30.4-17.5-47.7-20.8S108.8,470.6,99,456
			c-9.9-14.8-12.2-38.4-28.1-46.4c-6.3-3.2-13.9-2.5-20.9-1.6c-18,2.3-32.5-6.8-50.5-4.5l1,844h1080L1079.5,403.5z"/>
	</g>
</g>
<g id="fourth">
	<path class="st3" d="M1080,703c0,0-892,85-1080,220v325h1080V703z"/>
</g>
<g id="third">
	<path class="st6" d="M1080,864c0,0-118,43-307,43c-31.1,0-72.9-5.2-121.1-13.9C407.6,849,0,715,0,715v533h1080V864z"/>
</g>
<g id="grass1">
	<path class="st6" d="M696.5,904c0,0,0-16.2-12.8-23c0,0,18.7,5.1,22.1,23H696.5z"/>
	<path class="st6" d="M696.5,904c0,0-10.2-12.8-21.3-12.8c0,0,14.5,5.1,18.7,12.8H696.5z"/>
	<path class="st6" d="M705.4,903.6c0,0,0-14.5-6.8-21.3c0,0,16.2,11.1,12.8,21.3H705.4z"/>
</g>
<g id="Livello_12">
	<path class="st6" d="M742,910c0,0-6-21-13-27c0,0,15,15,16,27c0,0,1-25-5-32c0,0,13,24,11,32c0,0-4-12,4-21c0,0-4,15-1,21
		c0,0,2-9,10-13c0,0-10,7-8,13H742z"/>
</g>
<g id="Second">
	<path class="st7" d="M1080,1248V923c0,0-45,23-165,23c-202,0-464-96-598-96S0,923,0,923v325H1080z"/>
</g>
<g id="First">
	<path class="st4" d="M0,1248v-100c0,0,329,5,541-75s539-75,539-75v250H0z"/>
</g>
<g id="Livello_7">
	<rect x="925" y="960" class="st4" width="25" height="77"/>
	<path class="st4" d="M886,973c0,0,41.5-13,53.2-13c11.7,0,45.1,13,49.6,13c4.5,0-49.6-109-49.6-109L886,973z"/>
	<rect x="844.3" y="977.9" class="st4" width="14.3" height="44.1"/>
	<path class="st4" d="M822,985.4c0,0,23.7-7.4,30.5-7.4s25.8,7.4,28.4,7.4c2.6,0-28.4-62.4-28.4-62.4L822,985.4z"/>
</g>
<g id="Livello_8">
	<rect x="123.1" y="844.4" class="st7" width="12.9" height="39.6"/>
	<path class="st7" d="M103,851.1c0,0,21.3-6.7,27.4-6.7c6,0,23.2,6.7,25.5,6.7S130.4,795,130.4,795L103,851.1z"/>
	<rect x="174.5" y="850.5" class="st7" width="8" height="24.7"/>
	<path class="st7" d="M162,854.7c0,0,13.3-4.2,17-4.2c3.8,0,14.4,4.2,15.9,4.2S179,819.8,179,819.8L162,854.7z"/>
	<rect x="70.2" y="876.5" class="st7" width="10.5" height="32.5"/>
	<path class="st7" d="M53.8,882c0,0,17.5-5.5,22.4-5.5s19,5.5,20.9,5.5c1.9,0-20.9-46-20.9-46L53.8,882z"/>
</g>
<g id="Livello_9">
	<rect x="260.5" y="779.5" class="st6" width="8" height="24.7"/>
	<path class="st6" d="M248,783.7c0,0,13.3-4.2,17-4.2c3.8,0,14.4,4.2,15.9,4.2c1.4,0-15.9-34.9-15.9-34.9L248,783.7z"/>
	<rect x="228.4" y="768.4" class="st6" width="10.3" height="31.6"/>
	<path class="st6" d="M212.4,773.7c0,0,17-5.3,21.8-5.3s18.5,5.3,20.3,5.3c1.8,0-20.3-44.7-20.3-44.7L212.4,773.7z"/>
</g>
<g id="Livello_10">
	<rect x="903.9" y="703.5" class="st3" width="13.2" height="40.5"/>
	<path class="st3" d="M883.4,710.3c0,0,21.8-6.8,28-6.8c6.2,0,23.7,6.8,26.1,6.8S911.4,653,911.4,653L883.4,710.3z"/>
	<rect x="870.7" y="710.4" class="st3" width="7.5" height="23.2"/>
	<path class="st3" d="M859,714.3c0,0,12.5-3.9,16-3.9s13.6,3.9,14.9,3.9c1.4,0-14.9-32.8-14.9-32.8L859,714.3z"/>
	<rect x="947" y="704.4" class="st3" width="5.1" height="15.7"/>
	<path class="st3" d="M939,707.1c0,0,8.5-2.7,10.8-2.7s9.2,2.7,10.1,2.7s-10.1-22.2-10.1-22.2L939,707.1z"/>
</g>
<g id="Livello_13" class="st8">
	<text transform="matrix(1 0 0 1 122.751 241.0566)" class="st9 st10 st11">ARCO</text>
	<text transform="matrix(1 0 0 1 122.751 280.0566)" class="st9 st12 st13">Lunedì, 18 Aprile</text>
	<text transform="matrix(1 0 0 1 122.958 356.0684)" class="st9 st10 st13">Soleggiato</text>
	<text transform="matrix(1 0 0 1 122.9214 1108.4561)" class="st9 st14 st15">35°</text>
</g>
</svg>
