<?xml version="1.0" encoding="utf-8"?>
<!-- Generator: Adobe Illustrator 22.1.0, SVG Export Plug-In . SVG Version: 6.00 Build 0)  -->
<svg version="1.1" id="Livello_1" xmlns="http://www.w3.org/2000/svg" xmlns:xlink="http://www.w3.org/1999/xlink" x="0px" y="0px"
	 viewBox="0 0 450 585.3" style="enable-background:new 0 0 450 585.3;" xml:space="preserve">
<style type="text/css">
	.st0{clip-path:url(#SVGID_2_);}
	.st1{clip-path:url(#SVGID_4_);fill:url(#SVGID_5_);}
	.st2{clip-path:url(#SVGID_7_);}
	.st3{clip-path:url(#SVGID_9_);fill:url(#SVGID_10_);}
	.st4{clip-path:url(#SVGID_12_);}
	.st5{clip-path:url(#SVGID_14_);fill:url(#SVGID_15_);}
	.st6{clip-path:url(#SVGID_17_);}
	.st7{clip-path:url(#SVGID_19_);fill:url(#SVGID_20_);}
	.st8{clip-path:url(#SVGID_22_);}
	.st9{clip-path:url(#SVGID_24_);fill:url(#SVGID_25_);}
	.st10{clip-path:url(#SVGID_27_);}
	.st11{clip-path:url(#SVGID_29_);fill:url(#SVGID_30_);}
	.st12{clip-path:url(#SVGID_32_);}
	.st13{clip-path:url(#SVGID_34_);fill:url(#SVGID_35_);}
	.st14{clip-path:url(#SVGID_37_);}
	.st15{clip-path:url(#SVGID_42_);}
	.st16{clip-path:url(#SVGID_43_);}
	.st17{clip-path:url(#SVGID_44_);}
	.st18{clip-path:url(#SVGID_45_);fill:#FFFFFF;}
	.st19{clip-path:url(#SVGID_45_);fill:#FFA600;}
	.st20{clip-path:url(#SVGID_45_);fill:#FFDB2D;}
	.st21{clip-path:url(#SVGID_45_);fill:#FFCA00;}
	.st22{fill:#FFFFFF;}
	.st23{fill:#459AD3;}
	.st24{font-family:'Mohave-Bold';}
	.st25{font-size:40px;}
</style>
<g id="Livello_3_1_">
</g>
<g>
	<g>
		<g>
			<defs>
				<rect id="SVGID_1_" x="69.1" y="135.4" width="311.8" height="311.8"/>
			</defs>
			<clipPath id="SVGID_2_">
				<use xlink:href="#SVGID_1_"  style="overflow:visible;"/>
			</clipPath>
			<g class="st0">
				<g>
					<defs>
						<path id="SVGID_3_" d="M167.9,447.2H296v-82.8l-38.6-44.8C227.6,362.1,197.8,404.7,167.9,447.2"/>
					</defs>
					<clipPath id="SVGID_4_">
						<use xlink:href="#SVGID_3_"  style="overflow:visible;"/>
					</clipPath>
					
						<linearGradient id="SVGID_5_" gradientUnits="userSpaceOnUse" x1="69.0005" y1="-228.5978" x2="70.0004" y2="-228.5978" gradientTransform="matrix(128.1174 0 0 128.1174 -8672.2666 29670.7559)">
						<stop  offset="0" style="stop-color:#4473B2"/>
						<stop  offset="1" style="stop-color:#6FBFE9"/>
					</linearGradient>
					<rect x="167.9" y="319.6" class="st1" width="128.1" height="127.6"/>
				</g>
				<g>
					<defs>
						<rect id="SVGID_6_" x="69.1" y="135.4" width="311.8" height="311.8"/>
					</defs>
					<clipPath id="SVGID_7_">
						<use xlink:href="#SVGID_6_"  style="overflow:visible;"/>
					</clipPath>
					<g class="st2">
						<g>
							<defs>
								<polygon id="SVGID_8_" points="257.5,319.6 296,364.4 316.7,287.1 								"/>
							</defs>
							<clipPath id="SVGID_9_">
								<use xlink:href="#SVGID_8_"  style="overflow:visible;"/>
							</clipPath>
							
								<linearGradient id="SVGID_10_" gradientUnits="userSpaceOnUse" x1="69.0018" y1="-231.8925" x2="70.0021" y2="-231.8925" gradientTransform="matrix(59.1847 0 0 59.1847 -3826.3523 14050.2393)">
								<stop  offset="0" style="stop-color:#ECEC78"/>
								<stop  offset="1" style="stop-color:#A0C264"/>
							</linearGradient>
							<rect x="257.5" y="287.1" class="st3" width="59.2" height="77.3"/>
						</g>
						<g>
							<defs>
								<rect id="SVGID_11_" x="69.1" y="135.4" width="311.8" height="311.8"/>
							</defs>
							<clipPath id="SVGID_12_">
								<use xlink:href="#SVGID_11_"  style="overflow:visible;"/>
							</clipPath>
							<g class="st4">
								<g>
									<defs>
										<polygon id="SVGID_13_" points="296,364.4 296,447.2 380.9,447.2 380.9,443.3 316.7,287.1 										"/>
									</defs>
									<clipPath id="SVGID_14_">
										<use xlink:href="#SVGID_13_"  style="overflow:visible;"/>
									</clipPath>
									
										<linearGradient id="SVGID_15_" gradientUnits="userSpaceOnUse" x1="69.0006" y1="-230.04" x2="70.001" y2="-230.04" gradientTransform="matrix(84.8593 0 0 84.8593 -5559.3398 19888.1797)">
										<stop  offset="0" style="stop-color:#ECEC78"/>
										<stop  offset="1" style="stop-color:#93C264"/>
									</linearGradient>
									<rect x="296" y="287.1" class="st5" width="84.9" height="160.1"/>
								</g>
								<g>
									<defs>
										<rect id="SVGID_16_" x="69.1" y="135.4" width="311.8" height="311.8"/>
									</defs>
									<clipPath id="SVGID_17_">
										<use xlink:href="#SVGID_16_"  style="overflow:visible;"/>
									</clipPath>
									<g class="st6">
										<g>
											<defs>
												<polygon id="SVGID_18_" points="380.9,443.3 380.9,304.7 316.7,287.1 												"/>
											</defs>
											<clipPath id="SVGID_19_">
												<use xlink:href="#SVGID_18_"  style="overflow:visible;"/>
											</clipPath>
											
												<linearGradient id="SVGID_20_" gradientUnits="userSpaceOnUse" x1="70.8741" y1="-224.8262" x2="71.8745" y2="-224.8262" gradientTransform="matrix(-83.7061 -144.9832 144.9832 -83.7061 38919.2695 -8106.0078)">
												<stop  offset="0" style="stop-color:#303E85"/>
												<stop  offset="1" style="stop-color:#4473B2"/>
											</linearGradient>
											<polygon class="st7" points="332.7,471.2 249,326.2 364.8,259.3 448.6,404.3 											"/>
										</g>
										<g>
											<defs>
												<rect id="SVGID_21_" x="69.1" y="135.4" width="311.8" height="311.8"/>
											</defs>
											<clipPath id="SVGID_22_">
												<use xlink:href="#SVGID_21_"  style="overflow:visible;"/>
											</clipPath>
											<g class="st8">
												<g>
													<defs>
														<polygon id="SVGID_23_" points="69.1,351.5 69.1,447.2 167.9,447.2 257.5,319.6 														"/>
													</defs>
													<clipPath id="SVGID_24_">
														<use xlink:href="#SVGID_23_"  style="overflow:visible;"/>
													</clipPath>
													
														<linearGradient id="SVGID_25_" gradientUnits="userSpaceOnUse" x1="71.372" y1="-224.3989" x2="72.372" y2="-224.3989" gradientTransform="matrix(-66.1427 -114.5626 114.5626 -66.1427 30620.5137 -6232.5474)">
														<stop  offset="0" style="stop-color:#303E85"/>
														<stop  offset="1" style="stop-color:#4473B2"/>
													</linearGradient>
													<polygon class="st9" points="116.2,528.8 13.8,351.5 210.4,238 312.7,415.3 													"/>
												</g>
												<g>
													<defs>
														<rect id="SVGID_26_" x="69.1" y="135.4" width="311.8" height="311.8"/>
													</defs>
													<clipPath id="SVGID_27_">
														<use xlink:href="#SVGID_26_"  style="overflow:visible;"/>
													</clipPath>
													<g class="st10">
														<g>
															<defs>
																<polygon id="SVGID_28_" points="69.1,340.2 69.1,351.5 257.5,319.6 163.3,284.9 																"/>
															</defs>
															<clipPath id="SVGID_29_">
																<use xlink:href="#SVGID_28_"  style="overflow:visible;"/>
															</clipPath>
															
																<linearGradient id="SVGID_30_" gradientUnits="userSpaceOnUse" x1="74.4365" y1="-225.7677" x2="75.4371" y2="-225.7677" gradientTransform="matrix(0 -66.6572 66.6572 0 15212.3408 5313.2393)">
																<stop  offset="0" style="stop-color:#4473B2"/>
																<stop  offset="1" style="stop-color:#6FBFE9"/>
															</linearGradient>
															<rect x="69.1" y="284.9" class="st11" width="188.4" height="66.7"/>
														</g>
														<g>
															<defs>
																<rect id="SVGID_31_" x="69.1" y="135.4" width="311.8" height="311.8"/>
															</defs>
															<clipPath id="SVGID_32_">
																<use xlink:href="#SVGID_31_"  style="overflow:visible;"/>
															</clipPath>
															<g class="st12">
																<g>
																	<defs>
																		<polygon id="SVGID_33_" points="69.1,325.8 69.1,340.2 126.9,306.2 105,284.9 																		"/>
																	</defs>
																	<clipPath id="SVGID_34_">
																		<use xlink:href="#SVGID_33_"  style="overflow:visible;"/>
																	</clipPath>
																	
																		<linearGradient id="SVGID_35_" gradientUnits="userSpaceOnUse" x1="58.5227" y1="-231.9992" x2="59.5227" y2="-231.9992" gradientTransform="matrix(14.9743 25.9363 -25.9363 14.9743 -6805.7866 2250.9993)">
																		<stop  offset="0" style="stop-color:#ECEC78"/>
																		<stop  offset="1" style="stop-color:#A0C264"/>
																	</linearGradient>
																	<polygon class="st13" points="112.4,259.8 150.8,326.3 83.5,365.2 45.1,298.7 																	"/>
																</g>
																<g>
																	<defs>
																		<rect id="SVGID_36_" x="69.1" y="135.4" width="311.8" height="311.8"/>
																	</defs>
																	<clipPath id="SVGID_37_">
																		<use xlink:href="#SVGID_36_"  style="overflow:visible;"/>
																	</clipPath>
																	<g class="st14">
																		<g>
																			<defs>
																				<rect id="SVGID_38_" x="69.1" y="135.4" width="311.8" height="311.8"/>
																			</defs>
																			<defs>
																				<rect id="SVGID_39_" x="69.1" y="135.4" width="311.8" height="311.8"/>
																			</defs>
																			<defs>
																				<rect id="SVGID_40_" x="69.1" y="135.4" width="311.8" height="311.8"/>
																			</defs>
																			<defs>
																				<rect id="SVGID_41_" x="69.1" y="135.4" width="311.8" height="311.8"/>
																			</defs>
																			<clipPath id="SVGID_42_">
																				<use xlink:href="#SVGID_38_"  style="overflow:visible;"/>
																			</clipPath>
																			<clipPath id="SVGID_43_" class="st15">
																				<use xlink:href="#SVGID_39_"  style="overflow:visible;"/>
																			</clipPath>
																			<clipPath id="SVGID_44_" class="st16">
																				<use xlink:href="#SVGID_40_"  style="overflow:visible;"/>
																			</clipPath>
																			<clipPath id="SVGID_45_" class="st17">
																				<use xlink:href="#SVGID_41_"  style="overflow:visible;"/>
																			</clipPath>
																			<path class="st18" d="M69.1,447.2h311.8V135.4H69.1V447.2z M224.6,445.2c-83.4,0-151.1-67.6-151.1-151.1
																				S141.1,143,224.6,143c83.4,0,151.1,67.6,151.1,151.1S308,445.2,224.6,445.2"/>
																			<path class="st19" d="M286.5,235.2l-12.9-11.4L286,212c0.5-0.4,0.6-1.1,0.5-1.7c-0.2-0.6-0.6-1.1-1.2-1.3
																				l-16.6-4.8l6.1-16c0.2-0.6,0.1-1.3-0.3-1.7c-0.4-0.5-1-0.7-1.7-0.6l-17,2.7l-1.4-17.1c-0.1-0.6-0.4-1.2-1-1.5
																				s-1.2-0.2-1.8,0.1l-14.2,9.8l-8.6-14.9c-0.3-0.5-0.9-0.9-1.5-0.9s-1.2,0.3-1.5,0.9l-9.9,17.1l-17.1-9.9
																				c-0.5-0.3-1.2-0.3-1.8,0c-0.5,0.3-0.9,0.9-0.9,1.5v17.2l-17.2-1.4c-0.6-0.1-1.2,0.2-1.6,0.8
																				c-0.4,0.5-0.4,1.2-0.1,1.8l7.4,15.5l-16.2,6.1c-0.6,0.2-1,0.7-1.1,1.4c-0.1,0.6,0.1,1.3,0.6,1.7l13.4,10.9
																				l-12,12.4c-0.4,0.5-0.6,1.1-0.4,1.7c0.2,0.6,0.7,1.1,1.3,1.2l16.8,4.1l-5.5,16.3c-0.2,0.6-0.1,1.3,0.4,1.7
																				c0.4,0.5,1.1,0.7,1.7,0.6l16.9-3.4l2.1,17c0.1,0.6,0.5,1.2,1.1,1.4c0.6,0.2,1.3,0.2,1.8-0.2l13.8-10.3l9.2,14
																				c0.3,0.5,0.9,0.8,1.5,0.8c0,0,0,0,0.1,0c0.6,0,1.2-0.4,1.5-0.9l8-14.7l14.6,9.2c0.5,0.3,1.2,0.4,1.8,0.1
																				s0.9-0.9,0.9-1.5l0.7-17.2l17.1,2.1c0.6,0.1,1.3-0.2,1.6-0.7c0.4-0.5,0.5-1.2,0.2-1.8l-6.8-15.8l16.4-5.4
																				c0.6-0.2,1.1-0.7,1.2-1.3C287.2,236.3,287,235.7,286.5,235.2"/>
																			<path class="st20" d="M226.7,187.6c20.2,0,36.6,16.4,36.6,36.5c0,20.2-16.4,36.5-36.6,36.5s-36.6-16.4-36.6-36.5
																				C190.1,204,206.5,187.6,226.7,187.6"/>
																			<path class="st21" d="M226.7,187.6c-0.9,0-1.8,0-2.7,0.1c18.9,1.4,33.8,17.2,33.8,36.4c0,19.3-14.9,35-33.8,36.4
																				c0.9,0.1,1.8,0.1,2.7,0.1c20.2,0,36.6-16.4,36.6-36.5S246.9,187.6,226.7,187.6"/>
																		</g>
																	</g>
																</g>
																<rect x="154.2" y="159.9" class="st22" width="164" height="122.4"/>
																<rect x="220.5" y="275.7" class="st22" width="15.6" height="15.6"/>
																<text transform="matrix(1 0 0 1 182.1465 200.1209)" class="st23 st24 st25">METEO</text>
																<text transform="matrix(1 0 0 1 157.2465 248.1209)" class="st23 st24 st25"> TRENTINO</text>
																<rect x="378.8" y="298.4" class="st22" width="12" height="153.8"/>
																<rect x="62.3" y="441.5" class="st22" width="117.6" height="17"/>
															</g>
														</g>
													</g>
												</g>
											</g>
										</g>
									</g>
								</g>
							</g>
						</g>
					</g>
				</g>
			</g>
		</g>
	</g>
</g>
</svg>
