<?xml version="1.0" encoding="utf-8"?>
<!-- Generator: Adobe Illustrator 22.1.0, SVG Export Plug-In . SVG Version: 6.00 Build 0)  -->
<svg version="1.1" xmlns="http://www.w3.org/2000/svg" xmlns:xlink="http://www.w3.org/1999/xlink" x="0px" y="0px"
	 viewBox="0 0 1080 1248" style="enable-background:new 0 0 1080 1248;" xml:space="preserve">
<style type="text/css">
	.st0{fill:#9BC9E0;}
	.st1{fill:#00FFFF;}
	.st2{fill:#4C4C4D;}
	.st3{fill:#848585;}
	.st4{fill:#C1DDEB;}
	.st5{fill:#FDFFD7;}
	.st6{fill:#73B1DD;}
	.st7{fill:#36A5EF;}
	.st8{fill:#266AAC;}
	.st9{fill:#003C65;}
	.st10{display:none;}
	.st11{display:inline;fill:#FFFFFF;}
	.st12{font-family:'Helvetica';}
	.st13{font-size:50px;}
	.st14{font-family:'Helvetica-Light';}
	.st15{font-size:30px;}
	.st16{font-family:'Helvetica-Bold';}
	.st17{font-size:170px;}
</style>
<g id="Livello_5">
	<rect class="st0" width="1080" height="1248"/>
</g>
<g id="Livello_15">
	<rect x="196" y="395" class="st1" width="7" height="27"/>
	<rect x="118" y="324" class="st1" width="7" height="27"/>
	<rect x="212" y="316" class="st1" width="7" height="27"/>
	<rect x="236" y="360" class="st1" width="7" height="27"/>
	<rect x="293" y="361" class="st1" width="7" height="27"/>
	<rect x="313" y="416" class="st1" width="7" height="27"/>
	<rect x="247" y="455" class="st1" width="7" height="27"/>
	<rect x="304" y="501" class="st1" width="7" height="27"/>
	<rect x="398" y="509" class="st1" width="7" height="27"/>
	<rect x="384" y="388" class="st1" width="7" height="27"/>
	<rect x="370" y="454" class="st1" width="7" height="27"/>
	<rect x="349" y="376" class="st1" width="7" height="27"/>
	<rect x="384" y="334" class="st1" width="7" height="27"/>
	<rect x="410" y="297" class="st1" width="7" height="27"/>
	<rect x="432" y="251" class="st1" width="7" height="27"/>
	<rect x="437" y="326" class="st1" width="7" height="27"/>
	<rect x="431" y="393" class="st1" width="7" height="27"/>
	<rect x="441" y="457" class="st1" width="7" height="27"/>
	<rect x="341" y="331" class="st1" width="7" height="27"/>
	<rect x="304" y="284" class="st1" width="7" height="27"/>
	<rect x="273" y="247" class="st1" width="7" height="27"/>
	<rect x="225" y="227" class="st1" width="7" height="27"/>
	<rect x="189" y="218" class="st1" width="7" height="27"/>
	<rect x="177" y="278" class="st1" width="7" height="27"/>
	<rect x="154" y="243" class="st1" width="7" height="27"/>
	<rect x="160" y="346" class="st1" width="7" height="27"/>
	<rect x="154" y="395" class="st1" width="7" height="27"/>
	<rect x="171" y="420" class="st1" width="7" height="27"/>
	<rect x="116" y="426" class="st1" width="7" height="27"/>
	<rect x="156" y="473" class="st1" width="7" height="27"/>
	<rect x="222" y="483" class="st1" width="7" height="27"/>
	<rect x="236" y="419" class="st1" width="7" height="27"/>
	<rect x="254" y="306" class="st1" width="7" height="27"/>
	<rect x="363" y="279" class="st1" width="7" height="27"/>
	<rect x="699" y="445" class="st1" width="7" height="27"/>
	<rect x="621" y="374" class="st1" width="7" height="27"/>
	<rect x="715" y="366" class="st1" width="7" height="27"/>
	<rect x="739" y="410" class="st1" width="7" height="27"/>
	<rect x="796" y="411" class="st1" width="7" height="27"/>
	<rect x="816" y="466" class="st1" width="7" height="27"/>
	<rect x="750" y="505" class="st1" width="7" height="27"/>
	<rect x="887" y="438" class="st1" width="7" height="27"/>
	<rect x="873" y="504" class="st1" width="7" height="27"/>
	<rect x="852" y="426" class="st1" width="7" height="27"/>
	<rect x="887" y="384" class="st1" width="7" height="27"/>
	<rect x="913" y="347" class="st1" width="7" height="27"/>
	<rect x="935" y="301" class="st1" width="7" height="27"/>
	<rect x="940" y="376" class="st1" width="7" height="27"/>
	<rect x="934" y="443" class="st1" width="7" height="27"/>
	<rect x="944" y="507" class="st1" width="7" height="27"/>
	<rect x="844" y="381" class="st1" width="7" height="27"/>
	<rect x="807" y="334" class="st1" width="7" height="27"/>
	<rect x="776" y="297" class="st1" width="7" height="27"/>
	<rect x="728" y="277" class="st1" width="7" height="27"/>
	<rect x="692" y="268" class="st1" width="7" height="27"/>
	<rect x="680" y="328" class="st1" width="7" height="27"/>
	<rect x="657" y="293" class="st1" width="7" height="27"/>
	<rect x="663" y="396" class="st1" width="7" height="27"/>
	<rect x="657" y="445" class="st1" width="7" height="27"/>
	<rect x="674" y="470" class="st1" width="7" height="27"/>
	<rect x="619" y="476" class="st1" width="7" height="27"/>
	<rect x="659" y="523" class="st1" width="7" height="27"/>
	<rect x="725" y="533" class="st1" width="7" height="27"/>
	<rect x="739" y="469" class="st1" width="7" height="27"/>
	<rect x="757" y="356" class="st1" width="7" height="27"/>
	<rect x="866" y="329" class="st1" width="7" height="27"/>
	<path class="st2" d="M370.9,135.7c-4.5-39.4-38-70-78.6-70c-29.3,0-54.8,15.9-68.5,39.5c-0.3,0-0.5,0-0.8,0
		c-29.2,0-53.5,21-58.5,48.8c-0.3,0-0.6,0-0.9,0c-19.6,0-35.5,15.9-35.5,35.5c0,19.6,15.9,35.5,35.5,35.5c2.6,0,5.1-0.3,7.6-0.8
		h48.4c1.1,0.1,2.3,0.1,3.4,0.1s2.3,0,3.4-0.1h131.8v0c0.3,0,0.5,0,0.8,0c24.8,0,44.9-20.1,44.9-44.9
		C404,158.3,390,140.9,370.9,135.7z"/>
	<path class="st3" d="M430.3,177.1c-4-35.2-33.9-62.6-70.2-62.6c-26.1,0-48.9,14.2-61.2,35.3c-0.2,0-0.5,0-0.7,0
		c-26.1,0-47.8,18.8-52.2,43.6c-0.3,0-0.5,0-0.8,0c-17.5,0-31.7,14.2-31.7,31.7c0,17.5,14.2,31.7,31.7,31.7c2.3,0,4.6-0.3,6.7-0.7
		h43.2c1,0.1,2,0.1,3,0.1s2,0,3-0.1H419v0c0.2,0,0.5,0,0.7,0c22.2,0,40.1-18,40.1-40.1C459.8,197.4,447.3,181.8,430.3,177.1z"/>
	<path class="st2" d="M861.9,215.7c-4.5-39.4-38-70-78.6-70c-29.3,0-54.8,15.9-68.5,39.5c-0.3,0-0.5,0-0.8,0
		c-29.2,0-53.5,21-58.5,48.8c-0.3,0-0.6,0-0.9,0c-19.6,0-35.5,15.9-35.5,35.5c0,19.6,15.9,35.5,35.5,35.5c2.6,0,5.1-0.3,7.6-0.8
		h48.4c1.1,0.1,2.3,0.1,3.4,0.1s2.3,0,3.4-0.1h131.8v0c0.3,0,0.5,0,0.8,0c24.8,0,44.9-20.1,44.9-44.9
		C895,238.3,881,220.9,861.9,215.7z"/>
	<path class="st3" d="M921.3,257.1c-4-35.2-33.9-62.6-70.2-62.6c-26.1,0-48.9,14.2-61.2,35.3c-0.2,0-0.5,0-0.7,0
		c-26.1,0-47.8,18.8-52.2,43.6c-0.3,0-0.5,0-0.8,0c-17.5,0-31.7,14.2-31.7,31.7c0,17.5,14.2,31.7,31.7,31.7c2.3,0,4.6-0.3,6.7-0.7
		h43.2c1,0.1,2,0.1,3,0.1s2,0,3-0.1H910v0c0.2,0,0.5,0,0.7,0c22.2,0,40.1-18,40.1-40.1C950.8,277.4,938.3,261.8,921.3,257.1z"/>
</g>
<g id="clouds">
	<g>
		<path class="st4" d="M1079.5,403.5c-12.4-2.2-21.8,30.2-23.8,45.2c-40.3-9.6-39.7-9.7-49.7-6.7c-4.6,1.4-16.3,25.4-47,24
			c-4.2-0.2,4.1,0.9,0,0c-24.3-5.3-8.3,30.9-33,28s-50,0-68,12c-34-3-60-11-73-14c-12.3-2.8-52.4,15.3-72,13c-17-2-47.3,24.9-58,24
			c-29.6-2.5-56.6,26.5-86,22c-14.5-2.2-40.8-13-55-17c-28.3-7.9-43.7,9.9-73,12c-40.1,2.8-68.4-34.9-108-28
			c-10.4,1.8-53.2,16.9-63,13c-5.5-2.2-19.5-8-24-12c-19.5-17.3-28-12-58-22c-9-20-30.4-17.5-47.7-20.8S108.8,470.6,99,456
			c-9.9-14.8-12.2-38.4-28.1-46.4c-6.3-3.2-13.9-2.5-20.9-1.6c-18,2.3-32.5-6.8-50.5-4.5l1,844h1080L1079.5,403.5z"/>
	</g>
</g>
<g id="Livello_14">
	<polygon class="st5" points="501.8,291.8 498.9,290.8 496.4,292.6 496.5,289.5 494,287.8 496.9,286.9 497.8,284 499.5,286.5 
		502.6,286.4 500.8,288.9 	"/>
	<polygon class="st5" points="478.3,478.3 475.4,477.3 473,479.1 473,476.1 470.5,474.3 473.5,473.4 474.4,470.5 476.1,473 
		479.2,473 477.4,475.4 	"/>
	<polygon class="st5" points="625.3,376.3 622.4,375.3 620,377.1 620,374.1 617.5,372.3 620.5,371.4 621.4,368.5 623.1,371 
		626.2,371 624.4,373.4 	"/>
	<polygon class="st5" points="331.3,376.3 328.4,375.3 326,377.1 326,374.1 323.5,372.3 326.5,371.4 327.4,368.5 329.1,371 
		332.2,371 330.4,373.4 	"/>
	<polygon class="st5" points="759.3,454.3 756.4,453.3 754,455.1 754,452.1 751.5,450.3 754.5,449.4 755.4,446.5 757.1,449 
		760.2,449 758.4,451.4 	"/>
	<polygon class="st5" points="801.8,309.8 798.9,308.8 796.4,310.6 796.5,307.5 794,305.8 796.9,304.9 797.8,302 799.5,304.5 
		802.6,304.4 800.8,306.9 	"/>
	<polygon class="st5" points="941.8,363.8 938.9,362.8 936.4,364.6 936.5,361.5 934,359.8 936.9,358.9 937.8,356 939.5,358.5 
		942.6,358.4 940.8,360.9 	"/>
	<polygon class="st5" points="939.8,232.8 936.9,231.8 934.4,233.6 934.5,230.5 932,228.8 934.9,227.9 935.8,225 937.5,227.5 
		940.6,227.4 938.8,229.9 	"/>
	<polygon class="st5" points="939.8,102.8 936.9,101.8 934.4,103.6 934.5,100.5 932,98.8 934.9,97.9 935.8,95 937.5,97.5 
		940.6,97.4 938.8,99.9 	"/>
	<polygon class="st5" points="806.8,147.8 803.9,146.8 801.4,148.6 801.5,145.5 799,143.8 801.9,142.9 802.8,140 804.5,142.5 
		807.6,142.4 805.8,144.9 	"/>
	<polygon class="st5" points="668.8,250.8 665.9,249.8 663.4,251.6 663.5,248.5 661,246.8 663.9,245.9 664.8,243 666.5,245.5 
		669.6,245.4 667.8,247.9 	"/>
	<polygon class="st5" points="629.8,144.8 626.9,143.8 624.4,145.6 624.5,142.5 622,140.8 624.9,139.9 625.8,137 627.5,139.5 
		630.6,139.4 628.8,141.9 	"/>
	<polygon class="st5" points="658.8,46.8 655.9,45.8 653.4,47.6 653.5,44.5 651,42.8 653.9,41.9 654.8,39 656.5,41.5 659.6,41.4 
		657.8,43.9 	"/>
	<polygon class="st5" points="462.8,58.8 459.9,57.8 457.4,59.6 457.5,56.5 455,54.8 457.9,53.9 458.8,51 460.5,53.5 463.6,53.4 
		461.8,55.9 	"/>
	<polygon class="st5" points="475.8,162.8 472.9,161.8 470.4,163.6 470.5,160.5 468,158.8 470.9,157.9 471.8,155 473.5,157.5 
		476.6,157.4 474.8,159.9 	"/>
	<polygon class="st5" points="318.8,175.8 315.9,174.8 313.4,176.6 313.5,173.5 311,171.8 313.9,170.9 314.8,168 316.5,170.5 
		319.6,170.4 317.8,172.9 	"/>
	<polygon class="st5" points="317.8,273.8 314.9,272.8 312.4,274.6 312.5,271.5 310,269.8 312.9,268.9 313.8,266 315.5,268.5 
		318.6,268.4 316.8,270.9 	"/>
	<polygon class="st5" points="179.8,319.8 176.9,318.8 174.4,320.6 174.5,317.5 172,315.8 174.9,314.9 175.8,312 177.5,314.5 
		180.6,314.4 178.8,316.9 	"/>
	<polygon class="st5" points="182.8,416.8 179.9,415.8 177.4,417.6 177.5,414.5 175,412.8 177.9,411.9 178.8,409 180.5,411.5 
		183.6,411.4 181.8,413.9 	"/>
	<polygon class="st5" points="310.8,462.8 307.9,461.8 305.4,463.6 305.5,460.5 303,458.8 305.9,457.9 306.8,455 308.5,457.5 
		311.6,457.4 309.8,459.9 	"/>
	<polygon class="st5" points="89.8,290.8 86.9,289.8 84.4,291.6 84.5,288.5 82,286.8 84.9,285.9 85.8,283 87.5,285.5 90.6,285.4 
		88.8,287.9 	"/>
	<polygon class="st5" points="117.8,121.8 114.9,120.8 112.4,122.6 112.5,119.5 110,117.8 112.9,116.9 113.8,114 115.5,116.5 
		118.6,116.4 116.8,118.9 	"/>
	<polygon class="st5" points="162.8,197.8 159.9,196.8 157.4,198.6 157.5,195.5 155,193.8 157.9,192.9 158.8,190 160.5,192.5 
		163.6,192.4 161.8,194.9 	"/>
	<polygon class="st5" points="256.8,100.8 253.9,99.8 251.4,101.6 251.5,98.5 249,96.8 251.9,95.9 252.8,93 254.5,95.5 257.6,95.4 
		255.8,97.9 	"/>
</g>
<g id="fourth">
	<path class="st6" d="M1080,703c0,0-892,85-1080,220v325h1080V703z"/>
</g>
<g id="third">
	<path class="st7" d="M1080,864c0,0-118,43-307,43c-31.1,0-72.9-5.2-121.1-13.9C407.6,849,0,715,0,715v533h1080V864z"/>
</g>
<g id="grass1">
	<path class="st7" d="M696.5,904c0,0,0-16.2-12.8-23c0,0,18.7,5.1,22.1,23H696.5z"/>
	<path class="st7" d="M696.5,904c0,0-10.2-12.8-21.3-12.8c0,0,14.5,5.1,18.7,12.8H696.5z"/>
	<path class="st7" d="M705.4,903.6c0,0,0-14.5-6.8-21.3c0,0,16.2,11.1,12.8,21.3H705.4z"/>
</g>
<g id="Livello_12">
	<path class="st7" d="M742,910c0,0-6-21-13-27c0,0,15,15,16,27c0,0,1-25-5-32c0,0,13,24,11,32c0,0-4-12,4-21c0,0-4,15-1,21
		c0,0,2-9,10-13c0,0-10,7-8,13H742z"/>
</g>
<g id="Second">
	<path class="st8" d="M1080,1248V923c0,0-45,23-165,23c-202,0-464-96-598-96S0,923,0,923v325H1080z"/>
</g>
<g id="First">
	<path class="st9" d="M0,1248v-100c0,0,329,5,541-75s539-75,539-75v250H0z"/>
</g>
<g id="Livello_7">
	<rect x="925" y="960" class="st9" width="25" height="77"/>
	<path class="st9" d="M886,973c0,0,41.5-13,53.2-13c11.7,0,45.1,13,49.6,13c4.5,0-49.6-109-49.6-109L886,973z"/>
	<rect x="844.3" y="977.9" class="st9" width="14.3" height="44.1"/>
	<path class="st9" d="M822,985.4c0,0,23.7-7.4,30.5-7.4s25.8,7.4,28.4,7.4c2.6,0-28.4-62.4-28.4-62.4L822,985.4z"/>
</g>
<g id="Livello_8">
	<rect x="123.1" y="844.4" class="st8" width="12.9" height="39.6"/>
	<path class="st8" d="M103,851.1c0,0,21.3-6.7,27.4-6.7c6,0,23.2,6.7,25.5,6.7S130.4,795,130.4,795L103,851.1z"/>
	<rect x="174.5" y="850.5" class="st8" width="8" height="24.7"/>
	<path class="st8" d="M162,854.7c0,0,13.3-4.2,17-4.2c3.8,0,14.4,4.2,15.9,4.2S179,819.8,179,819.8L162,854.7z"/>
	<rect x="70.2" y="876.5" class="st8" width="10.5" height="32.5"/>
	<path class="st8" d="M53.8,882c0,0,17.5-5.5,22.4-5.5s19,5.5,20.9,5.5c1.9,0-20.9-46-20.9-46L53.8,882z"/>
</g>
<g id="Livello_9">
	<rect x="260.5" y="779.5" class="st7" width="8" height="24.7"/>
	<path class="st7" d="M248,783.7c0,0,13.3-4.2,17-4.2c3.8,0,14.4,4.2,15.9,4.2c1.4,0-15.9-34.9-15.9-34.9L248,783.7z"/>
	<rect x="228.4" y="768.4" class="st7" width="10.3" height="31.6"/>
	<path class="st7" d="M212.4,773.7c0,0,17-5.3,21.8-5.3s18.5,5.3,20.3,5.3c1.8,0-20.3-44.7-20.3-44.7L212.4,773.7z"/>
</g>
<g id="Livello_10">
	<rect x="903.9" y="703.5" class="st6" width="13.2" height="40.5"/>
	<path class="st6" d="M883.4,710.3c0,0,21.8-6.8,28-6.8c6.2,0,23.7,6.8,26.1,6.8S911.4,653,911.4,653L883.4,710.3z"/>
	<rect x="870.7" y="710.4" class="st6" width="7.5" height="23.2"/>
	<path class="st6" d="M859,714.3c0,0,12.5-3.9,16-3.9s13.6,3.9,14.9,3.9c1.4,0-14.9-32.8-14.9-32.8L859,714.3z"/>
	<rect x="947" y="704.4" class="st6" width="5.1" height="15.7"/>
	<path class="st6" d="M939,707.1c0,0,8.5-2.7,10.8-2.7s9.2,2.7,10.1,2.7s-10.1-22.2-10.1-22.2L939,707.1z"/>
</g>
<g id="Livello_13" class="st10">
	<text transform="matrix(1 0 0 1 122.751 241.0566)" class="st11 st12 st13">ARCO</text>
	<text transform="matrix(1 0 0 1 122.751 280.0566)" class="st11 st14 st15">Lunedì, 18 Aprile</text>
	<text transform="matrix(1 0 0 1 122.958 356.0684)" class="st11 st12 st15">Soleggiato</text>
	<text transform="matrix(1 0 0 1 122.9214 1108.4561)" class="st11 st16 st17">35°</text>
</g>
</svg>
