<?xml version="1.0" encoding="utf-8"?>
<!-- Generator: Adobe Illustrator 22.1.0, SVG Export Plug-In . SVG Version: 6.00 Build 0)  -->
<svg version="1.1" id="Capa_1" xmlns="http://www.w3.org/2000/svg" xmlns:xlink="http://www.w3.org/1999/xlink" x="0px" y="0px"
	 viewBox="0 0 480 480" style="enable-background:new 0 0 480 480;" xml:space="preserve">
<g>
	<g>
		<path d="M466.5,211.1c-11.4-48.5-59.9-78.6-108.4-67.2c-2.4-48-42.2-75.3-90.3-75.3c-49.8,0-90,30-90,79.8c0,0.4,0,1,0,1.4
			c-4.6-1-9.2-1.4-13.9-1.4c-31.3,0.1-58.8,21.1-67,51.3c-26.2,8.1-44.1,32.3-44.1,59.7c0,34.5,28,62.4,62.4,62.4H379
			c2.6,0,5-0.1,7.5-0.3c4.3-0.3,8.6-1,12.7-2.1C447.8,308.1,477.9,259.6,466.5,211.1z"/>
	</g>
</g>
<g>
	<g>
		<path d="M264.5,150.8c-6.2-26.4-32.6-42.7-58.9-36.5c-1.3-26.1-22.9-40.9-49.1-40.9c-27.1,0-48.9,16.3-48.9,43.4
			c0,0.2,0,0.5,0,0.8c-2.5-0.5-5-0.8-7.6-0.8c-17,0.1-32,11.5-36.4,27.9c-14.2,4.4-24,17.6-24,32.5c0,18.8,15.2,33.9,33.9,33.9H217
			c1.4,0,2.7-0.1,4.1-0.2c2.3-0.2,4.7-0.5,6.9-1.1C254.4,203.6,270.7,177.2,264.5,150.8z"/>
	</g>
</g>
</svg>
