<?xml version="1.0" encoding="utf-8"?>
<!-- Generator: Adobe Illustrator 22.1.0, SVG Export Plug-In . SVG Version: 6.00 Build 0)  -->
<svg version="1.1" id="Capa_1" xmlns="http://www.w3.org/2000/svg" xmlns:xlink="http://www.w3.org/1999/xlink" x="0px" y="0px"
	 viewBox="0 0 480 480" style="enable-background:new 0 0 480 480;" xml:space="preserve">
<g>
	<g>
		<path d="M477.4,169.3c-13.1-55.9-69.1-90.6-125-77.5C349.6,36.5,303.7,5,248.3,5c-57.4,0-103.8,34.6-103.8,92c0,0.5,0,1.1,0,1.6
			c-5.3-1.1-10.6-1.6-16-1.6c-36.1,0.1-67.8,24.3-77.2,59.2C21.1,165.5,0.5,193.4,0.5,225c0,39.8,32.3,72,72,72h304
			c3,0,5.8-0.1,8.7-0.3c5-0.4,9.9-1.2,14.7-2.4C455.8,281.2,490.5,225.3,477.4,169.3z M383.8,280.8c-2.4,0.2-4.8,0.3-7.3,0.3h-304
			c-26,0-48.6-17.9-54.5-43.2c-7-30.1,11.7-60.2,41.8-67.3c3.1-0.7,5.4-3.1,6-6.2c6.1-29.8,32.3-51.2,62.7-51.3
			c7.5,0,14.9,1.3,21.9,3.9c1.3,0.5,2.6,0.6,4,0.5c4.4-0.6,7.4-4.6,6.8-9c-0.5-3.8-0.7-7.6-0.7-11.4c0-48.6,37.2-77,85.8-77
			s90.2,28.4,90.2,77c0,1.7-0.1,3.4-0.2,5.2c0,1,0.1,2.1,0.5,3.1c1.5,4.2,6.1,6.3,10.2,4.8c9.5-3.4,19.4-5.1,29.5-5
			c45.9-0.1,84.2,35.1,87.9,80.9C468.3,234.4,432.2,276.8,383.8,280.8z"/>
	</g>
</g>
<g>
	<path d="M383.3,421.9l-14.1-8.2l11.9-7.1c1.9-0.9,2.5-3.5,1.4-5.4c-1.1-1.9-3.5-2.4-5.3-1.3l-15.9,9.3l-25.3-14.7l25.3-14.6
		l15.9,9.3c0.5,0.4,1.1,0.6,1.8,0.6c1.3,0,2.6-0.6,3.5-1.9c1.1-1.9,0.5-4.5-1.4-5.4l-11.9-7.1l14.1-8.2c1.8-1.1,2.5-3.4,1.4-5.4
		c-1-1.9-3.5-2.5-5.4-1.4l-14.2,8.3l-0.2-14.2c0-2.2-1.7-4-3.9-4c-2.2,0-3.9,1.9-3.9,4l0.1,18.8L332,387.8v-29.6l15.9-9
		c1.9-1,2.7-3.5,1.6-5.4c-1.1-1.9-3.4-2.5-5.3-1.4l-12.1,6.8V333c0-2.2-1.8-4-4-4c-2.2,0-3.9,1.8-3.9,4v16.3l-12.5-7
		c-1.9-1.1-4.2-0.5-5.3,1.4c-1.1,1.9-0.4,4.3,1.5,5.4l16.3,9.2v29.3l-25.7-14.8l0.1-18.4c0.2-2.1-1.6-4-3.8-4h-0.1
		c-2.1,0-3.9,1.8-3.9,4l-0.1,13.8l-13.9-8c-1.9-1.1-4.3-0.5-5.3,1.4c-1.1,2-0.5,4.3,1.4,5.4l14,8.1l-12.2,7.3
		c-1.9,0.9-2.5,3.5-1.4,5.4c0.8,1.2,1.8,1.9,3.3,1.9c0.8,0,1.4-0.2,2.1-0.6l16-9.4l25.7,14.7l-25.7,14.9l-16-9.5
		c-1.9-1.1-4.4-0.6-5.4,1.3c-1.1,2-0.5,4.3,1.3,5.4l12.2,7.2l-14,8.2c-1.9,1.1-2.6,3.5-1.4,5.4c0.8,1.3,1.8,2,3.3,2
		c0.4,0,1.1-0.2,2-0.6l13.9-8l0.1,13.8c0,2.2,1.8,3.9,3.9,3.9h0.1c2.2,0,3.9-1.8,3.8-4l-0.1-18.3l25.7-14.7v29.1l-16.3,9.2
		c-1.9,1.1-2.6,3.5-1.5,5.4c0.8,1.3,1.8,2,3.3,2c0.7,0,1.4-0.1,1.9-0.4l12.5-7.1v16.6c0,2.2,1.7,3.9,3.9,3.9c2.2,0,4-1.7,4-3.9
		v-16.3l12.1,6.8c0.6,0.3,1.2,0.4,1.8,0.4c1.6,0,2.7-0.6,3.5-2c1.1-1.9,0.4-4.3-1.6-5.4l-15.9-8.9v-29.6l25.2,14.6l-0.1,18.6
		c0,2.2,1.7,4,3.9,4s3.9-1.7,3.9-3.9l0.2-14.3l14.2,8.3c0.5,0.3,1.3,0.4,2.1,0.4c1.5,0,2.6-0.6,3.3-1.9
		C385.8,425.4,385.1,422.9,383.3,421.9z"/>
</g>
<g>
	<g>
		<path d="M219.8,311.9c-0.6-1-1.5-1.8-2.4-2.4c-3.9-2.5-9-1.4-11.5,2.4c-4.2,7.4-25,45.3-25,59.9c0,17.7,14.3,32,32,32
			s32-14.3,32-32C244.8,357.2,224.1,319.3,219.8,311.9z M212.8,387.8c-8.8,0-16-7.2-16-16c3.5-13.7,8.9-26.9,16-39.1
			c7.1,12.2,12.5,25.4,16,39.1C228.8,380.6,221.6,387.8,212.8,387.8z"/>
	</g>
</g>
<g>
	<g>
		<path d="M139.7,369.9c-0.6-1-1.5-1.8-2.4-2.4c-3.9-2.5-9-1.4-11.5,2.4c-4.2,7.4-25,45.3-25,59.9c0,17.7,14.2,26.5,31.9,26.5
			s32.1-8.8,32.1-26.5C164.7,415.2,143.9,377.3,139.7,369.9z M132.7,445.8c-8.8,0-16-7.2-16-16c3.5-13.7,8.9-26.9,16-39.1
			c7.1,12.2,12.5,25.4,16,39.1C148.7,438.6,141.4,445.8,132.7,445.8z"/>
	</g>
</g>
</svg>
