<?xml version="1.0" encoding="utf-8"?>
<!-- Generator: Adobe Illustrator 22.1.0, SVG Export Plug-In . SVG Version: 6.00 Build 0)  -->
<svg version="1.1" id="Livello_1" xmlns="http://www.w3.org/2000/svg" xmlns:xlink="http://www.w3.org/1999/xlink" x="0px" y="0px"
	 viewBox="0 0 311.8 311.8" style="enable-background:new 0 0 311.8 311.8;" xml:space="preserve">
<style type="text/css">
	.st0{fill:none;stroke:#0F0F0F;stroke-width:2;}
	.st1{fill:url(#SVGID_1_);}
	.st2{fill:url(#SVGID_2_);}
	.st3{fill:url(#SVGID_3_);}
	.st4{fill:url(#SVGID_4_);}
	.st5{fill:url(#SVGID_5_);}
	.st6{fill:url(#SVGID_6_);}
	.st7{fill:url(#SVGID_7_);}
	.st8{fill:#FFFFFF;}
	.st9{fill:#FFA600;}
	.st10{fill:#FFDB2D;}
	.st11{fill:#FFCA00;}
</style>
<path class="st0" d="M123.2,257.1"/>
<linearGradient id="SVGID_1_" gradientUnits="userSpaceOnUse" x1="118.7806" y1="215.738" x2="201.8007" y2="215.738">
	<stop  offset="0" style="stop-color:#4473B2"/>
	<stop  offset="1" style="stop-color:#6FBFE9"/>
</linearGradient>
<path class="st1" d="M201.8,257.1v-53.7l-25-29c-19.3,27.6-38.7,55.1-58,82.7H201.8z"/>
<linearGradient id="SVGID_2_" gradientUnits="userSpaceOnUse" x1="176.8141" y1="178.3797" x2="215.1658" y2="178.3797">
	<stop  offset="0" style="stop-color:#ECEC78"/>
	<stop  offset="1" style="stop-color:#A0C264"/>
</linearGradient>
<polygon class="st2" points="176.8,174.4 215.2,153.3 201.8,203.4 "/>
<linearGradient id="SVGID_3_" gradientUnits="userSpaceOnUse" x1="201.8007" y1="205.2083" x2="256.7896" y2="205.2083">
	<stop  offset="0" style="stop-color:#ECEC78"/>
	<stop  offset="1" style="stop-color:#93C264"/>
</linearGradient>
<polygon class="st3" points="215.2,153.3 256.8,254.6 256.8,257.1 201.8,257.1 201.8,203.4 "/>
<linearGradient id="SVGID_4_" gradientUnits="userSpaceOnUse" x1="276.2392" y1="243.3463" x2="221.9977" y2="149.3972">
	<stop  offset="0" style="stop-color:#303E85"/>
	<stop  offset="1" style="stop-color:#4473B2"/>
</linearGradient>
<polygon class="st4" points="215.2,153.3 256.8,164.7 256.8,254.6 "/>
<linearGradient id="SVGID_5_" gradientUnits="userSpaceOnUse" x1="134.4259" y1="248.0422" x2="91.5654" y2="173.8057">
	<stop  offset="0" style="stop-color:#303E85"/>
	<stop  offset="1" style="stop-color:#4473B2"/>
</linearGradient>
<polygon class="st5" points="176.8,174.4 54.7,195.1 54.7,257.1 118.8,257.1 "/>
<linearGradient id="SVGID_6_" gradientUnits="userSpaceOnUse" x1="115.775" y1="195.0691" x2="115.775" y2="151.8752">
	<stop  offset="0" style="stop-color:#4473B2"/>
	<stop  offset="1" style="stop-color:#6FBFE9"/>
</linearGradient>
<polygon class="st6" points="176.8,174.4 115.8,151.9 54.7,187.7 54.7,195.1 "/>
<linearGradient id="SVGID_7_" gradientUnits="userSpaceOnUse" x1="63.8393" y1="160.0522" x2="73.5427" y2="176.8589">
	<stop  offset="0" style="stop-color:#ECEC78"/>
	<stop  offset="1" style="stop-color:#A0C264"/>
</linearGradient>
<polygon class="st7" points="92.2,165.7 78,151.9 54.7,178.4 54.7,187.7 "/>
<path class="st8" d="M54.7,55v202.1h202.1V55H54.7z M155.5,255.8c-54.1,0-97.9-43.8-97.9-97.9S101.4,60,155.5,60
	s97.9,43.8,97.9,97.9S209.6,255.8,155.5,255.8z"/>
<path class="st9" d="M195.6,119.7l-8.4-7.4l8.1-7.7c0.3-0.3,0.4-0.7,0.3-1.1c-0.1-0.4-0.4-0.7-0.8-0.8l-10.7-3.1l4-10.4
	c0.1-0.4,0.1-0.8-0.2-1.1c-0.3-0.3-0.7-0.5-1.1-0.4l-11,1.8l-0.9-11.1c0-0.4-0.3-0.8-0.7-0.9c-0.4-0.2-0.8-0.1-1.1,0.1l-9.2,6.3
	l-5.6-9.6c-0.2-0.4-0.6-0.6-1-0.6c-0.4,0-0.8,0.2-1,0.6l-6.4,11.1l-11.1-6.4c-0.4-0.2-0.8-0.2-1.2,0c-0.4,0.2-0.6,0.6-0.6,1l0,11.1
	L125.8,90c-0.4,0-0.8,0.2-1,0.5c-0.2,0.3-0.3,0.8-0.1,1.1l4.8,10.1l-10.5,3.9c-0.4,0.1-0.7,0.5-0.7,0.9c-0.1,0.4,0.1,0.8,0.4,1.1
	l8.7,7.1l-7.8,8c-0.3,0.3-0.4,0.7-0.3,1.1c0.1,0.4,0.4,0.7,0.8,0.8l10.9,2.7l-3.6,10.5c-0.1,0.4,0,0.8,0.2,1.1
	c0.3,0.3,0.7,0.4,1.1,0.4l11-2.2l1.3,11c0,0.4,0.3,0.8,0.7,0.9c0.4,0.2,0.8,0.1,1.1-0.1l9-6.7l6,9.1c0.2,0.3,0.6,0.5,1,0.5
	c0,0,0,0,0,0c0.4,0,0.8-0.2,1-0.6l5.2-9.5l9.4,6c0.3,0.2,0.8,0.2,1.1,0c0.4-0.2,0.6-0.6,0.6-1l0.5-11.1l11.1,1.4
	c0.4,0,0.8-0.1,1.1-0.4c0.2-0.3,0.3-0.8,0.1-1.1l-4.4-10.2l10.6-3.5c0.4-0.1,0.7-0.5,0.8-0.9C196,120.4,195.9,120,195.6,119.7z"/>
<ellipse class="st10" cx="156.9" cy="112.6" rx="23.7" ry="23.7"/>
<path class="st11" d="M156.9,88.9c-0.6,0-1.2,0-1.8,0.1c12.3,0.9,21.9,11.1,21.9,23.6c0,12.5-9.7,22.7-21.9,23.6
	c0.6,0,1.2,0.1,1.8,0.1c13.1,0,23.7-10.6,23.7-23.7C180.6,99.5,170,88.9,156.9,88.9z"/>
</svg>
