<svg xmlns="http://www.w3.org/2000/svg" viewBox="0 0 1081 1248"><defs><style>.cls-1{fill:#798e97;}.cls-2{fill:#8d9ea7;}.cls-3{fill:#4c4c4d;}.cls-4{fill:#616161;}.cls-5{fill:#727374;}.cls-6{fill:#848686;}</style></defs><title>weather_background_daycloud</title><g id="Livello_5" data-name="Livello 5"><rect class="cls-1" x="0.5" width="1080" height="1248"/></g><g id="clouds"><path class="cls-2" d="M1079.5,403.5c-12.37-2.15-21.83,30.19-23.81,45.22C1015.4,439.07,1016,439,1006,442c-4.6,1.38-16.32,25.44-47,24-4.22-.2,4.12.9,0,0-24.31-5.29-8.29,30.91-33,28s-50,0-68,12c-34-3-60-11-73-14-12.33-2.84-52.44,15.3-72,13-17-2-47.28,24.89-58,24-29.61-2.45-56.63,26.53-86,22-14.55-2.25-40.82-13-55-17-28.28-7.92-43.7,9.92-73,12-40.08,2.84-68.42-34.93-108-28-10.39,1.82-53.22,16.93-63,13-5.55-2.23-19.52-8-24-12-19.51-17.29-28-12-58-22-9-20-30.39-17.5-47.7-20.79S108.84,470.61,99,456s-12.18-38.39-28.08-46.36C64.59,406.48,57,407.1,50,408c-18,2.31-32.53-6.81-50.5-4.5l1,844h1080Z" transform="translate(0.5)"/></g><g id="fourth"><path class="cls-3" d="M1080,703S188,788,0,923v325H1080Z" transform="translate(0.5)"/></g><g id="third"><path class="cls-4" d="M1080,864s-118,43-307,43c-31.11,0-72.91-5.2-121-13.89C407.59,849,0,715,0,715v533H1080Z" transform="translate(0.5)"/></g><g id="grass1"><path class="cls-4" d="M696.49,904s0-16.19-12.78-23c0,0,18.74,5.11,22.15,23Z" transform="translate(0.5)"/><path class="cls-4" d="M696.49,904s-10.23-12.78-21.3-12.78c0,0,14.48,5.11,18.74,12.78Z" transform="translate(0.5)"/><path class="cls-4" d="M705.43,903.57s0-14.48-6.81-21.29c0,0,16.18,11.07,12.77,21.29Z" transform="translate(0.5)"/></g><g id="Livello_12" data-name="Livello 12"><path class="cls-4" d="M742,910s-6-21-13-27c0,0,15,15,16,27,0,0,1-25-5-32,0,0,13,24,11,32,0,0-4-12,4-21,0,0-4,15-1,21,0,0,2-9,10-13,0,0-10,7-8,13Z" transform="translate(0.5)"/></g><g id="Second"><path class="cls-5" d="M1080,1248V923s-45,23-165,23c-202,0-464-96-598-96S0,923,0,923v325Z" transform="translate(0.5)"/></g><g id="First"><path class="cls-6" d="M0,1248V1148s329,5,541-75,539-75,539-75v250Z" transform="translate(0.5)"/></g><g id="Livello_7" data-name="Livello 7"><rect class="cls-6" x="925.5" y="960" width="25" height="77"/><path class="cls-6" d="M886,973s41.45-13,53.17-13,45.06,13,49.56,13-49.56-109-49.56-109Z" transform="translate(0.5)"/><rect class="cls-6" x="844.84" y="977.94" width="14.32" height="44.11"/><path class="cls-6" d="M822,985.39s23.75-7.45,30.46-7.45,25.81,7.45,28.39,7.45S852.46,923,852.46,923Z" transform="translate(0.5)"/></g><g id="Livello_8" data-name="Livello 8"><rect class="cls-5" x="123.57" y="844.39" width="12.86" height="39.62"/><path class="cls-5" d="M103,851.08s21.33-6.69,27.36-6.69,23.18,6.69,25.5,6.69S130.36,795,130.36,795Z" transform="translate(0.5)"/><rect class="cls-5" x="175" y="850.54" width="8.01" height="24.67"/><path class="cls-5" d="M162,854.71s13.28-4.17,17-4.17,14.44,4.17,15.88,4.17S179,819.79,179,819.79Z" transform="translate(0.5)"/><rect class="cls-5" x="70.73" y="876.51" width="10.55" height="32.49"/><path class="cls-5" d="M53.77,882s17.49-5.48,22.43-5.48,19,5.48,20.92,5.48S76.2,836,76.2,836Z" transform="translate(0.5)"/></g><g id="Livello_9" data-name="Livello 9"><rect class="cls-4" x="261" y="779.54" width="8.01" height="24.67"/><path class="cls-4" d="M248,783.71s13.28-4.17,17-4.17,14.44,4.17,15.88,4.17S265,748.79,265,748.79Z" transform="translate(0.5)"/><rect class="cls-4" x="228.87" y="768.4" width="10.26" height="31.6"/><path class="cls-4" d="M212.36,773.73s17-5.33,21.82-5.33,18.5,5.33,20.35,5.33S234.18,729,234.18,729Z" transform="translate(0.5)"/></g><g id="Livello_10" data-name="Livello 10"><rect class="cls-3" x="904.42" y="703.5" width="13.15" height="40.5"/><path class="cls-3" d="M883.41,710.34s21.81-6.84,28-6.84,23.7,6.84,26.07,6.84S911.38,653,911.38,653Z" transform="translate(0.5)"/><rect class="cls-3" x="871.24" y="710.36" width="7.52" height="23.17"/><path class="cls-3" d="M859,714.27s12.48-3.91,16-3.91,13.56,3.91,14.92,3.91S875,681.47,875,681.47Z" transform="translate(0.5)"/><rect class="cls-3" x="947.45" y="704.44" width="5.1" height="15.7"/><path class="cls-3" d="M939,707.09s8.45-2.65,10.84-2.65,9.19,2.65,10.11,2.65-10.11-22.23-10.11-22.23Z" transform="translate(0.5)"/></g></svg>