<?xml version="1.0" encoding="utf-8"?>
<!-- Generator: Adobe Illustrator 22.1.0, SVG Export Plug-In . SVG Version: 6.00 Build 0)  -->
<svg version="1.1" id="Livello_1" xmlns="http://www.w3.org/2000/svg" xmlns:xlink="http://www.w3.org/1999/xlink" x="0px" y="0px"
	 viewBox="0 0 311.8 311.8" style="enable-background:new 0 0 311.8 311.8;" xml:space="preserve">
<style type="text/css">
	.st0{fill:none;stroke:#0F0F0F;stroke-width:2;}
	.st1{fill:url(#SVGID_1_);}
	.st2{fill:url(#SVGID_2_);}
	.st3{fill:url(#SVGID_3_);}
	.st4{fill:url(#SVGID_4_);}
	.st5{fill:url(#SVGID_5_);}
	.st6{fill:url(#SVGID_6_);}
	.st7{fill:url(#SVGID_7_);}
	.st8{fill:#424242;}
</style>
<path class="st0" d="M116,279.7"/>
<linearGradient id="SVGID_1_" gradientUnits="userSpaceOnUse" x1="110.5912" y1="229.0435" x2="212.3159" y2="229.0435">
	<stop  offset="0" style="stop-color:#4473B2"/>
	<stop  offset="1" style="stop-color:#6FBFE9"/>
</linearGradient>
<path class="st1" d="M212.3,279.7v-65.7l-30.6-35.6c-23.7,33.8-47.4,67.5-71.1,101.3H212.3z"/>
<linearGradient id="SVGID_2_" gradientUnits="userSpaceOnUse" x1="181.6997" y1="183.2682" x2="228.6922" y2="183.2682">
	<stop  offset="0" style="stop-color:#ECEC78"/>
	<stop  offset="1" style="stop-color:#A0C264"/>
</linearGradient>
<polygon class="st2" points="181.7,178.4 228.7,152.6 212.3,213.9 "/>
<linearGradient id="SVGID_3_" gradientUnits="userSpaceOnUse" x1="212.3159" y1="216.1415" x2="279.6939" y2="216.1415">
	<stop  offset="0" style="stop-color:#ECEC78"/>
	<stop  offset="1" style="stop-color:#93C264"/>
</linearGradient>
<polygon class="st3" points="228.7,152.6 279.7,276.6 279.7,279.7 212.3,279.7 212.3,213.9 "/>
<linearGradient id="SVGID_4_" gradientUnits="userSpaceOnUse" x1="303.5256" y1="262.8721" x2="237.0633" y2="147.756">
	<stop  offset="0" style="stop-color:#303E85"/>
	<stop  offset="1" style="stop-color:#4473B2"/>
</linearGradient>
<polygon class="st4" points="228.7,152.6 279.7,166.6 279.7,276.6 "/>
<linearGradient id="SVGID_5_" gradientUnits="userSpaceOnUse" x1="129.7614" y1="268.626" x2="77.2443" y2="177.6637">
	<stop  offset="0" style="stop-color:#303E85"/>
	<stop  offset="1" style="stop-color:#4473B2"/>
</linearGradient>
<polygon class="st5" points="181.7,178.4 32.1,203.7 32.1,279.7 110.6,279.7 "/>
<linearGradient id="SVGID_6_" gradientUnits="userSpaceOnUse" x1="106.9084" y1="203.7179" x2="106.9084" y2="150.7923">
	<stop  offset="0" style="stop-color:#4473B2"/>
	<stop  offset="1" style="stop-color:#6FBFE9"/>
</linearGradient>
<polygon class="st6" points="181.7,178.4 106.9,150.8 32.1,194.7 32.1,203.7 "/>
<linearGradient id="SVGID_7_" gradientUnits="userSpaceOnUse" x1="43.2714" y1="160.8116" x2="55.161" y2="181.4049">
	<stop  offset="0" style="stop-color:#ECEC78"/>
	<stop  offset="1" style="stop-color:#A0C264"/>
</linearGradient>
<polygon class="st7" points="78,167.8 60.6,150.8 32.1,183.3 32.1,194.7 "/>
<g>
	<path class="st8" d="M127.7,97.2h-3.2l-4.4-16.8v16.8h-3.6V66.7h3.9l5.7,23.1l5.8-23.1h3.4v30.5h-3.6V80.6L127.7,97.2z"/>
	<path class="st8" d="M150.7,66.7v3.6h-8.1v10.3h7.1v3.6h-7.1v9.4h8.1v3.6H139V66.7H150.7z"/>
	<path class="st8" d="M161.6,97.2H158V70.3h-4.9v-3.6h13.2v3.6h-4.8V97.2z"/>
	<path class="st8" d="M181.3,66.7v3.6h-8.1v10.3h7.1v3.6h-7.1v9.4h8.1v3.6h-11.7V66.7H181.3z"/>
	<path class="st8" d="M199.1,91.3c0,3.5-3.5,6.2-7.5,6.2c-3.9,0-7.5-2.6-7.5-6.2V72.9c0-3.5,3.6-6.2,7.5-6.2c4,0,7.5,2.6,7.5,6.2
		V91.3z M195.5,91.3V72.9c0-1.5-1.8-2.6-3.9-2.6c-2.1,0-3.9,1.1-3.9,2.6v18.4c0,1.5,1.9,2.6,3.9,2.6
		C193.7,93.9,195.5,92.8,195.5,91.3z"/>
</g>
<g>
	<path class="st8" d="M102.9,138h-3.6v-26.9h-4.9v-3.6h13.2v3.6h-4.8V138z"/>
	<path class="st8" d="M114.9,138h-3.6v-30.5h6.5c3.6,0,6.5,2.9,6.5,6.5v4.6c0,1.7-0.8,3.4-1.9,4.6c1.4,1.2,2.2,3.1,2.2,4.9v10H121
		v-10c0-1.6-1.4-3-3-3h-3.1V138z M114.9,111.1v10.3h3c1.5,0,2.7-1.3,2.7-2.9V114c0-1.6-1.3-2.9-2.9-2.9H114.9z"/>
	<path class="st8" d="M139.8,107.5v3.6h-8.1v10.3h7.1v3.6h-7.1v9.4h8.1v3.6H128v-30.5H139.8z"/>
	<path class="st8" d="M146.3,138h-3.6v-30.5h3.9l6.6,19.5v-19.5h3.6V138h-3.3l-7.1-20.1V138z"/>
	<path class="st8" d="M168.5,138h-3.6v-26.9h-4.9v-3.6h13.2v3.6h-4.8V138z"/>
	<path class="st8" d="M180.2,138h-3.6v-30.5h3.6V138z"/>
	<path class="st8" d="M187.6,138h-3.6v-30.5h3.9l6.6,19.5v-19.5h3.6V138h-3.3l-7.1-20.1V138z"/>
	<path class="st8" d="M216.7,132.1c0,3.5-3.5,6.2-7.5,6.2c-3.9,0-7.5-2.6-7.5-6.2v-18.4c0-3.5,3.6-6.2,7.5-6.2c4,0,7.5,2.6,7.5,6.2
		V132.1z M213.2,132.1v-18.4c0-1.5-1.8-2.6-3.9-2.6c-2.1,0-3.9,1.1-3.9,2.6v18.4c0,1.5,1.9,2.7,3.9,2.7
		C211.3,134.7,213.2,133.6,213.2,132.1z"/>
</g>
</svg>
