<?xml version="1.0" encoding="utf-8"?>
<!-- Generator: Adobe Illustrator 22.1.0, SVG Export Plug-In . SVG Version: 6.00 Build 0)  -->
<svg version="1.1" id="Livello_1" xmlns="http://www.w3.org/2000/svg" xmlns:xlink="http://www.w3.org/1999/xlink" x="0px" y="0px"
	 viewBox="0 0 311.8 311.8" style="enable-background:new 0 0 311.8 311.8;" xml:space="preserve">
<style type="text/css">
	.st0{fill:none;stroke:#0F0F0F;stroke-width:2;}
	.st1{fill:url(#SVGID_1_);}
	.st2{fill:url(#SVGID_2_);}
	.st3{fill:url(#SVGID_3_);}
	.st4{fill:url(#SVGID_4_);}
	.st5{fill:url(#SVGID_5_);}
	.st6{fill:url(#SVGID_6_);}
	.st7{fill:url(#SVGID_7_);}
	.st8{fill:#08ADFF;}
	.st9{fill:#17D0FF;}
	.st10{fill:#00A221;}
	.st11{fill:#0084D0;}
	.st12{fill:#2E59FF;}
	.st13{fill:#2E4EFF;}
	.st14{fill:#0099B9;}
	.st15{fill:#007314;}
	.st16{fill:#0080B9;}
	.st17{fill:#008B24;}
	.st18{fill:#0085B9;}
	.st19{fill:#00D014;}
	.st20{fill:#FFFFFF;}
</style>
<path class="st0" d="M121.6,262.5"/>
<linearGradient id="SVGID_1_" gradientUnits="userSpaceOnUse" x1="116.882" y1="218.8901" x2="204.4847" y2="218.8901">
	<stop  offset="0" style="stop-color:#4473B2"/>
	<stop  offset="1" style="stop-color:#6FBFE9"/>
</linearGradient>
<path class="st1" d="M204.5,262.5v-56.6l-26.4-30.6c-20.4,29.1-40.8,58.2-61.2,87.2H204.5z"/>
<linearGradient id="SVGID_2_" gradientUnits="userSpaceOnUse" x1="178.1188" y1="179.4696" x2="218.5875" y2="179.4696">
	<stop  offset="0" style="stop-color:#ECEC78"/>
	<stop  offset="1" style="stop-color:#A0C264"/>
</linearGradient>
<polygon class="st2" points="178.1,175.3 218.6,153 204.5,205.9 "/>
<linearGradient id="SVGID_3_" gradientUnits="userSpaceOnUse" x1="204.4847" y1="207.7792" x2="262.5089" y2="207.7792">
	<stop  offset="0" style="stop-color:#ECEC78"/>
	<stop  offset="1" style="stop-color:#93C264"/>
</linearGradient>
<polygon class="st3" points="218.6,153 262.5,259.9 262.5,262.5 204.5,262.5 204.5,205.9 "/>
<linearGradient id="SVGID_4_" gradientUnits="userSpaceOnUse" x1="283.0321" y1="248.0224" x2="225.7965" y2="148.8873">
	<stop  offset="0" style="stop-color:#303E85"/>
	<stop  offset="1" style="stop-color:#4473B2"/>
</linearGradient>
<polygon class="st4" points="218.6,153 262.5,165.1 262.5,259.9 "/>
<linearGradient id="SVGID_5_" gradientUnits="userSpaceOnUse" x1="133.3908" y1="252.9775" x2="88.1645" y2="174.6431">
	<stop  offset="0" style="stop-color:#303E85"/>
	<stop  offset="1" style="stop-color:#4473B2"/>
</linearGradient>
<polygon class="st5" points="178.1,175.3 49.3,197.1 49.3,262.5 116.9,262.5 "/>
<linearGradient id="SVGID_6_" gradientUnits="userSpaceOnUse" x1="113.7105" y1="197.0803" x2="113.7105" y2="151.5022">
	<stop  offset="0" style="stop-color:#4473B2"/>
	<stop  offset="1" style="stop-color:#6FBFE9"/>
</linearGradient>
<polygon class="st6" points="178.1,175.3 113.7,151.5 49.3,189.3 49.3,197.1 "/>
<linearGradient id="SVGID_7_" gradientUnits="userSpaceOnUse" x1="58.9079" y1="160.1305" x2="69.1469" y2="177.8649">
	<stop  offset="0" style="stop-color:#ECEC78"/>
	<stop  offset="1" style="stop-color:#A0C264"/>
</linearGradient>
<polygon class="st7" points="88.8,166.1 73.9,151.5 49.3,179.5 49.3,189.3 "/>
<g>
	<path class="st8" d="M131.6,105.3h-2.8L125,90.9v14.4H122V79.1h3.3l4.9,19.9l5-19.9h3v26.3h-3.1V91L131.6,105.3z"/>
	<path class="st9" d="M151.4,79.1v3.1h-7V91h6.1v3.1h-6.1v8.1h7v3.1h-10.1V79.1H151.4z"/>
	<path class="st10" d="M160.8,105.3h-3.1V82.2h-4.2v-3.1h11.4v3.1h-4.1V105.3z"/>
	<path class="st11" d="M177.8,79.1v3.1h-7V91h6.1v3.1h-6.1v8.1h7v3.1h-10.1V79.1H177.8z"/>
	<path class="st12" d="M193.1,100.2c0,3-3,5.3-6.5,5.3c-3.4,0-6.5-2.3-6.5-5.3V84.4c0-3,3.1-5.3,6.5-5.3c3.4,0,6.5,2.3,6.5,5.3
		V100.2z M190,100.2V84.4c0-1.3-1.6-2.3-3.4-2.3c-1.8,0-3.4,1-3.4,2.3v15.8c0,1.3,1.6,2.3,3.4,2.3C188.4,102.5,190,101.6,190,100.2z
		"/>
</g>
<g>
	<path class="st13" d="M110.2,140.5h-3.1v-23.2H103v-3.1h11.4v3.1h-4.1V140.5z"/>
	<path class="st14" d="M120.6,140.5h-3.1v-26.3h5.6c3.1,0,5.6,2.5,5.6,5.6v3.9c0,1.4-0.7,2.9-1.7,3.9c1.2,1.1,1.9,2.7,1.9,4.2v8.6
		h-3.1v-8.6c0-1.4-1.2-2.6-2.6-2.6h-2.6V140.5z M120.6,117.3v8.9h2.6c1.3,0,2.3-1.2,2.3-2.5v-3.9c0-1.4-1.1-2.5-2.5-2.5H120.6z"/>
	<path class="st15" d="M142,114.3v3.1h-7v8.9h6.1v3.1H135v8.1h7v3.1h-10.1v-26.3H142z"/>
	<path class="st16" d="M147.6,140.5h-3.1v-26.3h3.3l5.7,16.8v-16.8h3.1v26.3h-2.9l-6.1-17.3V140.5z"/>
	<path class="st17" d="M166.8,140.5h-3.1v-23.2h-4.2v-3.1h11.4v3.1h-4.1V140.5z"/>
	<path class="st17" d="M176.8,140.5h-3.1v-26.3h3.1V140.5z"/>
	<path class="st18" d="M183.2,140.5h-3.1v-26.3h3.3l5.7,16.8v-16.8h3.1v26.3h-2.9l-6.1-17.3V140.5z"/>
	<path class="st19" d="M208.3,135.4c0,3-3,5.3-6.5,5.3c-3.4,0-6.5-2.3-6.5-5.3v-15.8c0-3,3.1-5.3,6.5-5.3c3.4,0,6.5,2.3,6.5,5.3
		V135.4z M205.2,135.4v-15.8c0-1.3-1.6-2.3-3.4-2.3c-1.8,0-3.4,1-3.4,2.3v15.8c0,1.3,1.6,2.3,3.4,2.3
		C203.6,137.7,205.2,136.7,205.2,135.4z"/>
</g>
<path class="st20" d="M49.3,49.3v213.2h216.3V49.3H49.3z M157.1,261.1c-57.9,0-104.8-46.2-104.8-103.3S99.3,54.5,157.1,54.5
	s104.8,46.2,104.8,103.3S215,261.1,157.1,261.1z"/>
</svg>
