<?xml version="1.0" encoding="utf-8"?>
<!-- Generator: Adobe Illustrator 23.0.1, SVG Export Plug-In . SVG Version: 6.00 Build 0)  -->
<svg version="1.1" id="Livello_1" xmlns="http://www.w3.org/2000/svg" xmlns:xlink="http://www.w3.org/1999/xlink" x="0px" y="0px"
	 viewBox="0 0 450 800" style="enable-background:new 0 0 450 800;" xml:space="preserve">
<style type="text/css">
	.st0{fill:#B46100;}
	.st1{fill:#A64D00;}
	.st2{fill:#54B861;}
	.st3{fill:#6AD372;}
	.st4{fill:#54984D;}
	.st5{fill:#FFFF79;}
	.st6{opacity:0.1;}
	.st7{fill:#1A3E51;}
	.st8{fill:#FFFFFF;}
	.st9{fill:#FF3E2C;}
	.st10{fill:#2C88F7;}
	.st11{fill:#73CFEB;}
	.st12{fill:#CACEC6;}
	.st13{fill:#BBBFB8;}
	.st14{fill:#EFEFF0;}
	.st15{fill:#F1FAFE;}
	.st16{opacity:0.69;}
</style>
<g>
	<g>
		<g>
			<g>
				<g>
					<rect x="401.5" y="865.4" class="st0" width="6.7" height="28.1"/>
				</g>
				<g>
					<rect x="401.5" y="865.4" class="st1" width="3.4" height="28.1"/>
				</g>
			</g>
			<g>
				<g>
					<g>
						<polygon class="st2" points="378.1,876 404.9,825.4 431.8,876 						"/>
					</g>
					<g>
						<polygon class="st3" points="404.9,876 404.9,825.4 431.8,876 						"/>
					</g>
					<g>
						<polygon class="st2" points="421.2,856.2 404.9,856.2 404.9,825.4 						"/>
					</g>
					<g>
						<polygon class="st4" points="404.9,825.4 404.9,856.2 388.5,856.2 						"/>
					</g>
				</g>
				<g>
					<g>
						<polygon class="st2" points="383.8,854.5 404.9,814.8 426,854.5 						"/>
					</g>
					<g>
						<polygon class="st3" points="404.9,854.5 404.9,814.8 426,854.5 						"/>
					</g>
					<g>
						<polygon class="st2" points="417.7,838.8 404.9,838.8 404.9,814.8 						"/>
					</g>
					<g>
						<polygon class="st4" points="404.9,814.8 404.9,838.8 392.1,838.8 						"/>
					</g>
				</g>
				<g>
					<g>
						<polygon class="st2" points="422,837.1 387.8,837.1 394.1,825.2 404.9,805 415.6,825.2 						"/>
					</g>
					<g>
						<polygon class="st3" points="404.9,837.1 404.9,805 422,837.1 						"/>
					</g>
					<g>
						<polygon class="st5" points="404.9,799.8 406.3,802.6 409.5,803.1 407.2,805.4 407.7,808.5 404.9,807 402,808.5 402.6,805.4 
							400.3,803.1 403.5,802.6 						"/>
					</g>
				</g>
			</g>
		</g>
		<g class="st6">
			<polygon class="st7" points="401.5,893.6 385.7,898.6 408.3,893.6 			"/>
		</g>
	</g>
	<g>
		<path class="st8" d="M412,817.8c-4,6.2-8.5,12.2-14.9,16.1c-1.9,1.1-3.9,2.1-6,2.8c-0.2,0.1,0,0.1,0.1,0.1
			c7.2-2.4,12.8-7.6,17.2-13.5c1.4-1.8,2.6-3.7,3.9-5.6C412.3,817.7,412.1,817.8,412,817.8L412,817.8z"/>
	</g>
	<g>
		<path class="st8" d="M418.7,841c-6.7,6.4-15.6,10.8-24.8,12.3c-2.5,0.4-5.1,0.6-7.6,0.4c-0.1,0-0.3,0.2-0.1,0.2
			c9.3,0.5,18.8-2.8,26.5-7.9c2.2-1.5,4.3-3.1,6.3-5C419,841,418.8,841,418.7,841L418.7,841z"/>
	</g>
	<g>
		<path class="st8" d="M423.2,860.7c-4.3,4.6-10.7,7.2-16.6,9.3c-6.2,2.1-12.6,3.6-19.1,4.5c-2.4,0.3-4.7,0.7-7.1,0.6
			c-0.1,0-0.3,0.2-0.1,0.2c2,0.1,4.1-0.2,6.2-0.4c3-0.4,6-0.9,9-1.5c6.7-1.5,13.6-3.5,19.7-6.7c3-1.5,5.9-3.3,8.2-5.9
			C423.5,860.6,423.2,860.6,423.2,860.7L423.2,860.7z"/>
	</g>
	<g>
		<rect x="391.5" y="837" class="st8" width="26.8" height="0.2"/>
	</g>
	<g>
		<rect x="385.7" y="854.4" class="st8" width="37.7" height="0.2"/>
	</g>
	<g>
		<rect x="379.9" y="875.7" class="st8" width="49.4" height="0.2"/>
	</g>
	<g>
		<g>
			<circle class="st9" cx="391.5" cy="837.1" r="1.4"/>
		</g>
		<g>
			<circle class="st5" cx="396.8" cy="837.1" r="1.4"/>
		</g>
		<g>
			<circle class="st5" cx="409.5" cy="829.1" r="1.4"/>
		</g>
		<g>
			<circle class="st10" cx="402.2" cy="837.1" r="1.4"/>
		</g>
		<g>
			<circle class="st9" cx="412.9" cy="837.1" r="1.4"/>
		</g>
		<g>
			<ellipse class="st9" cx="402.5" cy="821.1" rx="1.4" ry="1.4"/>
		</g>
		<g>
			<circle class="st8" cx="407.5" cy="837.1" r="1.4"/>
		</g>
		<g>
			<circle class="st8" cx="396.8" cy="828.3" r="1.4"/>
		</g>
		<g>
			<circle class="st10" cx="418.3" cy="837.1" r="1.4"/>
		</g>
		<g>
			<circle class="st10" cx="416" cy="832.3" r="1.4"/>
		</g>
	</g>
	<g>
		<g>
			<circle class="st9" cx="391.5" cy="854.5" r="1.4"/>
		</g>
		<g>
			<circle class="st5" cx="386.1" cy="854.5" r="1.4"/>
		</g>
		<g>
			<circle class="st5" cx="400.3" cy="848.8" r="1.4"/>
		</g>
		<g>
			<circle class="st5" cx="396.8" cy="854.5" r="1.4"/>
		</g>
		<g>
			<circle class="st5" cx="410.9" cy="843.4" r="1.4"/>
		</g>
		<g>
			<circle class="st10" cx="402.2" cy="854.5" r="1.4"/>
		</g>
		<g>
			<circle class="st9" cx="412.9" cy="854.5" r="1.4"/>
		</g>
		<g>
			<circle class="st9" cx="395.5" cy="845.8" r="1.4"/>
		</g>
		<g>
			<circle class="st8" cx="407.5" cy="854.5" r="1.4"/>
		</g>
		<g>
			<circle class="st10" cx="418.3" cy="854.5" r="1.4"/>
		</g>
		<g>
			<circle class="st10" cx="416" cy="848.8" r="1.4"/>
		</g>
		<g>
			<circle class="st9" cx="423.4" cy="854.5" r="1.4"/>
		</g>
	</g>
	<g>
		<g>
			<circle class="st9" cx="391.5" cy="875.8" r="1.4"/>
		</g>
		<g>
			<circle class="st9" cx="409.6" cy="861.6" r="1.4"/>
		</g>
		<g>
			<circle class="st5" cx="386.1" cy="875.8" r="1.4"/>
		</g>
		<g>
			<circle class="st10" cx="380.3" cy="875.8" r="1.4"/>
		</g>
		<g>
			<circle class="st10" cx="422" cy="868.4" r="1.4"/>
		</g>
		<g>
			<circle class="st5" cx="396.8" cy="875.8" r="1.4"/>
		</g>
		<g>
			<circle class="st5" cx="399.6" cy="867.8" r="1.4"/>
		</g>
		<g>
			<circle class="st10" cx="402.2" cy="875.8" r="1.4"/>
		</g>
		<g>
			<circle class="st8" cx="407.5" cy="875.8" r="1.4"/>
		</g>
		<g>
			<circle class="st8" cx="416" cy="870.1" r="1.4"/>
		</g>
		<g>
			<circle class="st8" cx="392.8" cy="862.1" r="1.4"/>
		</g>
		<g>
			<circle class="st9" cx="412.9" cy="875.8" r="1.4"/>
		</g>
		<g>
			<circle class="st9" cx="387.5" cy="869.6" r="1.4"/>
		</g>
		<g>
			<circle class="st10" cx="418.3" cy="875.8" r="1.4"/>
		</g>
		<g>
			<circle class="st8" cx="423.4" cy="875.8" r="1.4"/>
		</g>
		<g>
			<circle class="st9" cx="429" cy="875.8" r="1.4"/>
		</g>
	</g>
</g>
<g>
	<g>
		<g>
			<g>
				<g>
					<rect x="135.1" y="869.4" class="st0" width="6.2" height="25.7"/>
				</g>
				<g>
					<rect x="135.1" y="869.4" class="st1" width="3.1" height="25.7"/>
				</g>
			</g>
			<g>
				<g>
					<g>
						<polygon class="st2" points="113.6,879 138.2,832.8 162.8,879 						"/>
					</g>
					<g>
						<polygon class="st3" points="138.2,879 138.2,832.8 162.8,879 						"/>
					</g>
					<g>
						<polygon class="st2" points="153.1,860.9 138.2,860.9 138.2,832.8 						"/>
					</g>
					<g>
						<polygon class="st4" points="138.2,832.8 138.2,860.9 123.3,860.9 						"/>
					</g>
				</g>
				<g>
					<g>
						<polygon class="st2" points="119,859.3 138.2,823.1 157.4,859.3 						"/>
					</g>
					<g>
						<polygon class="st3" points="138.2,859.3 138.2,823.1 157.4,859.3 						"/>
					</g>
					<g>
						<polygon class="st2" points="149.9,845.1 138.2,845.1 138.2,823.1 						"/>
					</g>
					<g>
						<polygon class="st4" points="138.2,823.1 138.2,845.1 126.6,845.1 						"/>
					</g>
				</g>
				<g>
					<g>
						<polygon class="st2" points="153.9,843.6 122.6,843.6 128.4,832.6 138.2,814.1 148,832.6 						"/>
					</g>
					<g>
						<polygon class="st3" points="138.2,843.6 138.2,814.1 153.9,843.6 						"/>
					</g>
					<g>
						<polygon class="st5" points="138.2,809.4 139.5,812 142.4,812.4 140.3,814.5 140.8,817.3 138.2,815.9 135.7,817.3 
							136.2,814.5 134,812.4 137,812 						"/>
					</g>
				</g>
			</g>
		</g>
		<g class="st6">
			<polygon class="st7" points="135.1,895.1 120.6,899.6 141.4,895.1 			"/>
		</g>
	</g>
	<g>
		<path class="st8" d="M144.8,825.8c-3.7,5.6-7.8,11.1-13.6,14.7c-1.7,1.1-3.6,2-5.5,2.6c-0.2,0.1,0,0.1,0.1,0.1
			c6.6-2.3,11.6-6.9,15.8-12.4c1.2-1.6,2.4-3.3,3.6-5.1C145,825.8,144.8,825.8,144.8,825.8L144.8,825.8z"/>
	</g>
	<g>
		<path class="st8" d="M150.9,847.1c-6.1,5.9-14.3,9.8-22.7,11.2c-2.3,0.4-4.6,0.5-7,0.4c-0.1,0-0.2,0.1-0.1,0.2
			c8.5,0.4,17.1-2.5,24.2-7.2c2-1.3,4-2.8,5.7-4.6C151.1,847,150.9,847,150.9,847.1L150.9,847.1z"/>
	</g>
	<g>
		<path class="st8" d="M154.9,865c-4,4.2-9.8,6.7-15.1,8.5c-5.6,2-11.5,3.3-17.4,4.1c-2.1,0.3-4.3,0.6-6.5,0.5
			c-0.1,0-0.2,0.2-0.1,0.2c1.9,0.1,3.8-0.2,5.7-0.4c2.8-0.3,5.5-0.8,8.2-1.5c6.2-1.4,12.4-3.2,18-6.1c2.8-1.4,5.4-3.1,7.5-5.4
			C155.2,864.9,155,864.9,154.9,865L154.9,865z"/>
	</g>
	<g>
		<rect x="126" y="843.4" class="st8" width="24.5" height="0.2"/>
	</g>
	<g>
		<rect x="120.7" y="859.2" class="st8" width="34.5" height="0.2"/>
	</g>
	<g>
		<rect x="115.4" y="878.7" class="st8" width="45.1" height="0.2"/>
	</g>
	<g>
		<g>
			<circle class="st9" cx="126" cy="843.5" r="1.2"/>
		</g>
		<g>
			<circle class="st5" cx="130.9" cy="843.5" r="1.2"/>
		</g>
		<g>
			<circle class="st5" cx="142.4" cy="836.2" r="1.2"/>
		</g>
		<g>
			<circle class="st10" cx="135.7" cy="843.5" r="1.2"/>
		</g>
		<g>
			<circle class="st9" cx="145.6" cy="843.5" r="1.2"/>
		</g>
		<g>
			<ellipse class="st9" cx="136.1" cy="828.8" rx="1.2" ry="1.2"/>
		</g>
		<g>
			<circle class="st8" cx="140.7" cy="843.6" r="1.2"/>
		</g>
		<g>
			<circle class="st8" cx="130.9" cy="835.4" r="1.2"/>
		</g>
		<g>
			<circle class="st10" cx="150.5" cy="843.5" r="1.2"/>
		</g>
		<g>
			<circle class="st10" cx="148.3" cy="839.1" r="1.2"/>
		</g>
	</g>
	<g>
		<g>
			<circle class="st9" cx="126" cy="859.3" r="1.2"/>
		</g>
		<g>
			<circle class="st5" cx="121" cy="859.3" r="1.2"/>
		</g>
		<g>
			<circle class="st5" cx="134" cy="854.2" r="1.2"/>
		</g>
		<g>
			<circle class="st5" cx="130.9" cy="859.3" r="1.2"/>
		</g>
		<g>
			<circle class="st5" cx="143.7" cy="849.2" r="1.2"/>
		</g>
		<g>
			<circle class="st10" cx="135.7" cy="859.3" r="1.2"/>
		</g>
		<g>
			<circle class="st9" cx="145.6" cy="859.3" r="1.2"/>
		</g>
		<g>
			<circle class="st9" cx="129.7" cy="851.4" r="1.2"/>
		</g>
		<g>
			<circle class="st8" cx="140.7" cy="859.3" r="1.2"/>
		</g>
		<g>
			<circle class="st10" cx="150.5" cy="859.3" r="1.2"/>
		</g>
		<g>
			<circle class="st10" cx="148.3" cy="854.2" r="1.2"/>
		</g>
		<g>
			<circle class="st9" cx="155.1" cy="859.3" r="1.2"/>
		</g>
	</g>
	<g>
		<g>
			<circle class="st9" cx="126" cy="878.8" r="1.2"/>
		</g>
		<g>
			<circle class="st9" cx="142.5" cy="865.9" r="1.2"/>
		</g>
		<g>
			<circle class="st5" cx="121" cy="878.8" r="1.2"/>
		</g>
		<g>
			<circle class="st10" cx="115.8" cy="878.8" r="1.2"/>
		</g>
		<g>
			<circle class="st10" cx="153.9" cy="872.1" r="1.2"/>
		</g>
		<g>
			<circle class="st5" cx="130.9" cy="878.8" r="1.2"/>
		</g>
		<g>
			<circle class="st5" cx="133.4" cy="871.5" r="1.2"/>
		</g>
		<g>
			<circle class="st10" cx="135.7" cy="878.8" r="1.2"/>
		</g>
		<g>
			<circle class="st8" cx="140.7" cy="878.8" r="1.2"/>
		</g>
		<g>
			<circle class="st8" cx="148.3" cy="873.5" r="1.2"/>
		</g>
		<g>
			<circle class="st8" cx="127.2" cy="866.3" r="1.2"/>
		</g>
		<g>
			<circle class="st9" cx="145.6" cy="878.8" r="1.2"/>
		</g>
		<g>
			<circle class="st9" cx="122.3" cy="873.1" r="1.2"/>
		</g>
		<g>
			<circle class="st10" cx="150.5" cy="878.8" r="1.2"/>
		</g>
		<g>
			<circle class="st8" cx="155.1" cy="878.8" r="1.2"/>
		</g>
		<g>
			<circle class="st9" cx="160.3" cy="878.8" r="1.2"/>
		</g>
	</g>
</g>
<g>
	<rect x="-296.9" class="st11" width="930.2" height="963.6"/>
</g>
<g>
	<g>
		<polygon class="st12" points="-296.9,722 -164.6,722 -191.1,390 -296.9,607.5 		"/>
	</g>
	<g>
		<polygon class="st13" points="-190.7,389.3 -191.1,390 -164.6,722 -43,722 		"/>
	</g>
	<g>
		<polygon class="st8" points="-242.3,495.2 -216.6,471.3 -209.3,500.3 -191.1,479.5 -181.3,512.6 -190.7,389.3 		"/>
	</g>
	<g>
		<polygon class="st14" points="-145.5,491.2 -158.9,482.4 -160.4,503.3 -176.7,486 -181.3,512.6 -190.7,389.3 		"/>
	</g>
</g>
<g>
	<g>
		<polygon class="st12" points="-199.2,722 -59.4,722 -86.2,513.7 		"/>
	</g>
	<g>
		<polygon class="st13" points="-85.7,512.6 -86.2,513.7 -59.4,722 13.8,722 		"/>
	</g>
	<g>
		<polygon class="st8" points="-115,566.7 -99.2,555.6 -95.2,584.2 -86.2,569.9 -76.5,589.3 -86.2,513.7 		"/>
	</g>
	<g>
		<polygon class="st14" points="-59.4,567.9 -69.2,560.5 -76.5,589.3 -86.2,513.7 -85.7,512.6 		"/>
	</g>
</g>
<g>
	<g>
		<polygon class="st13" points="275.6,722.7 359.5,722.7 381.8,490 		"/>
	</g>
	<g>
		<polygon class="st12" points="383.1,487.3 381.8,490 359.5,722.7 496.6,722.7 		"/>
	</g>
	<g>
		<polygon class="st14" points="351.3,556.9 368.8,542 375.6,555.1 381.8,490 		"/>
	</g>
	<g>
		<polygon class="st8" points="383.1,487.3 412.1,547.5 390.2,531.7 375.6,555.1 381.8,490 		"/>
	</g>
</g>
<g>
	<g>
		<polygon class="st13" points="374,722.7 497.8,722.7 535.9,351.7 		"/>
	</g>
	<g>
		<polygon class="st12" points="634.3,555.5 537.9,347.1 535.9,351.7 497.8,722.7 634.3,722.7 		"/>
	</g>
	<g>
		<polygon class="st14" points="503,427 519.5,409.5 527.7,431 535.9,351.7 		"/>
	</g>
	<g>
		<polygon class="st8" points="537.9,347.1 578.2,434.3 560,411 555.9,431 541,405.5 527.7,431 535.9,351.7 		"/>
	</g>
</g>
<g>
	<g>
		<polygon class="st12" points="266,555.6 265.2,557.4 229.9,722 339.4,722 		"/>
	</g>
	<g>
		<polygon class="st13" points="184.6,722 229.9,722 265.2,557.4 		"/>
	</g>
	<g>
		<polygon class="st14" points="248.9,590.6 265.2,557.4 257.8,591.7 256.1,584.2 		"/>
	</g>
	<g>
		<polygon class="st8" points="266,555.6 280.1,587.7 271.4,580.3 270.7,590.3 264.6,579.9 257.8,591.7 265.2,557.4 		"/>
	</g>
</g>
<g>
	<g>
		<path class="st12" d="M-76.5,722c0,0,69.8-87.4,116.5-72.1c46.7,15.3,84.5,72.1,84.5,72.1L-76.5,722z"/>
	</g>
	<g>
		<path class="st13" d="M40,657.4c36.2,11.9,84.5,64.6,84.5,64.6S86.6,665.2,40,649.9C-6.7,634.6-76.5,722-76.5,722
			S1.8,644.9,40,657.4z"/>
	</g>
</g>
<g>
	<rect x="-296.9" y="722.7" class="st8" width="930.2" height="193.9"/>
</g>
<g>
	<path class="st8" d="M633.3,856.3v107.2h-930.2V779c52,0.4,104,4.8,155.3,13.4l234.3,39l170.3,30.1
		C386.2,883.2,512,881.2,633.3,856.3z"/>
</g>
<g>
	<path class="st8" d="M634.3,685.8l-1,183.6h-930.2V684.8c52,0.4,104,4.8,155.3,13.4l234.3,39l176,3.5
		C391.9,762.4,513,710.7,634.3,685.8z"/>
</g>
<g>
	<path class="st15" d="M633.3,904.9c-72.7,21.1-167.7,14.7-242.6,4c-74.9-10.7-149.1-27.6-224.7-31.7c-54.2-2.9-108.6,0.8-162.8,4.6
		c-100.7,7-199.3-46.5-300-39.5v121.3h930.2V904.9z"/>
</g>
<g>
	<g>
		<path class="st12" d="M265.2,722c0,0-46.4-49.2-107.6-45.9C103,679.1,13.8,722,13.8,722H265.2z"/>
	</g>
	<g>
		<path class="st13" d="M157.6,684.6c44.9-2.4,107.6,37.4,107.6,37.4s-46.4-49.2-107.6-45.9C103,679.1,13.8,722,13.8,722
			S118.5,686.7,157.6,684.6z"/>
	</g>
</g>
<g>
	<g>
		<g>
			<g>
				<g>
					<rect x="498" y="715" class="st0" width="3.6" height="14.7"/>
				</g>
				<g>
					<rect x="498" y="715" class="st1" width="1.8" height="14.7"/>
				</g>
			</g>
			<g>
				<g>
					<g>
						<polygon class="st2" points="485.6,720.5 499.8,694 513.9,720.5 						"/>
					</g>
					<g>
						<polygon class="st3" points="499.8,720.5 499.8,694 513.9,720.5 						"/>
					</g>
					<g>
						<polygon class="st2" points="508.3,710.1 499.8,710.1 499.8,694 						"/>
					</g>
					<g>
						<polygon class="st4" points="499.8,694 499.8,710.1 491.2,710.1 						"/>
					</g>
				</g>
				<g>
					<g>
						<polygon class="st2" points="488.7,709.2 499.8,688.5 510.8,709.2 						"/>
					</g>
					<g>
						<polygon class="st3" points="499.8,709.2 499.8,688.5 510.8,709.2 						"/>
					</g>
					<g>
						<polygon class="st2" points="506.5,701.1 499.8,701.1 499.8,688.5 						"/>
					</g>
					<g>
						<polygon class="st4" points="499.8,688.5 499.8,701.1 493,701.1 						"/>
					</g>
				</g>
				<g>
					<g>
						<polygon class="st2" points="508.7,700.2 490.8,700.2 494.1,693.9 499.8,683.3 505.4,693.9 						"/>
					</g>
					<g>
						<polygon class="st3" points="499.8,700.2 499.8,683.3 508.7,700.2 						"/>
					</g>
				</g>
			</g>
		</g>
		<g class="st6">
			<polygon class="st7" points="498,729.7 489.6,732.3 501.5,729.7 			"/>
		</g>
	</g>
	<g>
		<g>
			<g>
				<g>
					<rect x="526.2" y="705.4" class="st0" width="6.9" height="28.7"/>
				</g>
				<g>
					<rect x="526.2" y="705.4" class="st1" width="3.5" height="28.7"/>
				</g>
			</g>
			<g>
				<g>
					<g>
						<polygon class="st2" points="502.1,716.1 529.6,664.5 557.1,716.1 						"/>
					</g>
					<g>
						<polygon class="st3" points="529.6,716.1 529.6,664.5 557.1,716.1 						"/>
					</g>
					<g>
						<polygon class="st2" points="546.3,695.8 529.6,695.8 529.6,664.5 						"/>
					</g>
					<g>
						<polygon class="st4" points="529.6,664.5 529.6,695.8 512.9,695.8 						"/>
					</g>
				</g>
				<g>
					<g>
						<polygon class="st2" points="508.1,694.1 529.6,653.7 551.2,694.1 						"/>
					</g>
					<g>
						<polygon class="st3" points="529.6,694.1 529.6,653.7 551.2,694.1 						"/>
					</g>
					<g>
						<polygon class="st2" points="542.7,678.2 529.6,678.2 529.6,653.7 						"/>
					</g>
					<g>
						<polygon class="st4" points="529.6,653.7 529.6,678.2 516.5,678.2 						"/>
					</g>
				</g>
				<g>
					<g>
						<polygon class="st2" points="547.1,676.5 512.1,676.5 518.6,664.3 529.6,643.7 540.6,664.3 						"/>
					</g>
					<g>
						<polygon class="st3" points="529.6,676.5 529.6,643.7 547.1,676.5 						"/>
					</g>
				</g>
			</g>
		</g>
		<g class="st6">
			<polygon class="st7" points="526.2,734.1 509.9,739.1 533.1,734.1 			"/>
		</g>
	</g>
	<g>
		<g>
			<g>
				<g>
					<rect x="562.6" y="718.8" class="st0" width="2.5" height="10.3"/>
				</g>
				<g>
					<rect x="562.6" y="718.8" class="st1" width="1.2" height="10.3"/>
				</g>
			</g>
			<g>
				<g>
					<g>
						<polygon class="st2" points="554,722.6 563.8,704.1 573.7,722.6 						"/>
					</g>
					<g>
						<polygon class="st3" points="563.8,722.6 563.8,704.1 573.7,722.6 						"/>
					</g>
					<g>
						<polygon class="st2" points="569.8,715.3 563.8,715.3 563.8,704.1 						"/>
					</g>
					<g>
						<polygon class="st4" points="563.8,704.1 563.8,715.3 557.8,715.3 						"/>
					</g>
				</g>
				<g>
					<g>
						<polygon class="st2" points="556.1,714.7 563.8,700.2 571.6,714.7 						"/>
					</g>
					<g>
						<polygon class="st3" points="563.8,714.7 563.8,700.2 571.6,714.7 						"/>
					</g>
					<g>
						<polygon class="st2" points="568.6,709 563.8,709 563.8,700.2 						"/>
					</g>
					<g>
						<polygon class="st4" points="563.8,700.2 563.8,709 559.1,709 						"/>
					</g>
				</g>
				<g>
					<g>
						<polygon class="st2" points="570.1,708.4 557.6,708.4 559.9,704 563.8,696.6 567.8,704 						"/>
					</g>
					<g>
						<polygon class="st3" points="563.8,708.4 563.8,696.6 570.1,708.4 						"/>
					</g>
				</g>
			</g>
		</g>
		<g class="st6">
			<polygon class="st7" points="562.6,729.1 556.8,730.9 565.1,729.1 			"/>
		</g>
	</g>
	<g>
		<g>
			<g>
				<g>
					<rect x="587.1" y="707.1" class="st0" width="5" height="20.6"/>
				</g>
				<g>
					<rect x="587.1" y="707.1" class="st1" width="2.5" height="20.6"/>
				</g>
			</g>
			<g>
				<g>
					<g>
						<polygon class="st2" points="569.8,714.8 589.6,677.8 609.3,714.8 						"/>
					</g>
					<g>
						<polygon class="st3" points="589.6,714.8 589.6,677.8 609.3,714.8 						"/>
					</g>
					<g>
						<polygon class="st2" points="601.6,700.3 589.6,700.3 589.6,677.8 						"/>
					</g>
					<g>
						<polygon class="st4" points="589.6,677.8 589.6,700.3 577.6,700.3 						"/>
					</g>
				</g>
				<g>
					<g>
						<polygon class="st2" points="574.1,699.1 589.6,670 605.1,699.1 						"/>
					</g>
					<g>
						<polygon class="st3" points="589.6,699.1 589.6,670 605.1,699.1 						"/>
					</g>
					<g>
						<polygon class="st2" points="599,687.7 589.6,687.7 589.6,670 						"/>
					</g>
					<g>
						<polygon class="st4" points="589.6,670 589.6,687.7 580.2,687.7 						"/>
					</g>
				</g>
				<g>
					<g>
						<polygon class="st2" points="602.1,686.4 577,686.4 581.7,677.6 589.6,662.8 597.5,677.6 						"/>
					</g>
					<g>
						<polygon class="st3" points="589.6,686.4 589.6,662.8 602.1,686.4 						"/>
					</g>
				</g>
			</g>
		</g>
		<g class="st6">
			<polygon class="st7" points="587.1,727.8 575.4,731.4 592.1,727.8 			"/>
		</g>
	</g>
	<g>
		<g>
			<g>
				<g>
					<rect x="348.4" y="715" class="st0" width="3.6" height="14.7"/>
				</g>
				<g>
					<rect x="348.4" y="715" class="st1" width="1.8" height="14.7"/>
				</g>
			</g>
			<g>
				<g>
					<g>
						<polygon class="st2" points="336,720.5 350.1,694 364.3,720.5 						"/>
					</g>
					<g>
						<polygon class="st3" points="350.1,720.5 350.1,694 364.3,720.5 						"/>
					</g>
					<g>
						<polygon class="st2" points="358.7,710.1 350.1,710.1 350.1,694 						"/>
					</g>
					<g>
						<polygon class="st4" points="350.1,694 350.1,710.1 341.6,710.1 						"/>
					</g>
				</g>
				<g>
					<g>
						<polygon class="st2" points="339.1,709.2 350.1,688.5 361.2,709.2 						"/>
					</g>
					<g>
						<polygon class="st3" points="350.1,709.2 350.1,688.5 361.2,709.2 						"/>
					</g>
					<g>
						<polygon class="st2" points="356.9,701.1 350.1,701.1 350.1,688.5 						"/>
					</g>
					<g>
						<polygon class="st4" points="350.1,688.5 350.1,701.1 343.4,701.1 						"/>
					</g>
				</g>
				<g>
					<g>
						<polygon class="st2" points="359.1,700.2 341.2,700.2 344.5,693.9 350.1,683.3 355.8,693.9 						"/>
					</g>
					<g>
						<polygon class="st3" points="350.1,700.2 350.1,683.3 359.1,700.2 						"/>
					</g>
				</g>
			</g>
		</g>
		<g class="st6">
			<polygon class="st7" points="348.4,729.7 340,732.3 351.9,729.7 			"/>
		</g>
	</g>
	<g>
		<g>
			<g>
				<g>
					<rect x="376.6" y="705.4" class="st0" width="6.9" height="28.7"/>
				</g>
				<g>
					<rect x="376.6" y="705.4" class="st1" width="3.5" height="28.7"/>
				</g>
			</g>
			<g>
				<g>
					<g>
						<polygon class="st2" points="352.5,716.1 380,664.5 407.5,716.1 						"/>
					</g>
					<g>
						<polygon class="st3" points="380,716.1 380,664.5 407.5,716.1 						"/>
					</g>
					<g>
						<polygon class="st2" points="396.7,695.8 380,695.8 380,664.5 						"/>
					</g>
					<g>
						<polygon class="st4" points="380,664.5 380,695.8 363.3,695.8 						"/>
					</g>
				</g>
				<g>
					<g>
						<polygon class="st2" points="358.5,694.1 380,653.7 401.6,694.1 						"/>
					</g>
					<g>
						<polygon class="st3" points="380,694.1 380,653.7 401.6,694.1 						"/>
					</g>
					<g>
						<polygon class="st2" points="393.1,678.2 380,678.2 380,653.7 						"/>
					</g>
					<g>
						<polygon class="st4" points="380,653.7 380,678.2 366.9,678.2 						"/>
					</g>
				</g>
				<g>
					<g>
						<polygon class="st2" points="397.5,676.5 362.5,676.5 369,664.3 380,643.7 391,664.3 						"/>
					</g>
					<g>
						<polygon class="st3" points="380,676.5 380,643.7 397.5,676.5 						"/>
					</g>
				</g>
			</g>
		</g>
		<g class="st6">
			<polygon class="st7" points="376.6,734.1 360.3,739.1 383.5,734.1 			"/>
		</g>
	</g>
	<g>
		<g>
			<g>
				<g>
					<rect x="413" y="718.8" class="st0" width="2.5" height="10.3"/>
				</g>
				<g>
					<rect x="413" y="718.8" class="st1" width="1.2" height="10.3"/>
				</g>
			</g>
			<g>
				<g>
					<g>
						<polygon class="st2" points="404.4,722.6 414.2,704.1 424.1,722.6 						"/>
					</g>
					<g>
						<polygon class="st3" points="414.2,722.6 414.2,704.1 424.1,722.6 						"/>
					</g>
					<g>
						<polygon class="st2" points="420.2,715.3 414.2,715.3 414.2,704.1 						"/>
					</g>
					<g>
						<polygon class="st4" points="414.2,704.1 414.2,715.3 408.2,715.3 						"/>
					</g>
				</g>
				<g>
					<g>
						<polygon class="st2" points="406.5,714.7 414.2,700.2 422,714.7 						"/>
					</g>
					<g>
						<polygon class="st3" points="414.2,714.7 414.2,700.2 422,714.7 						"/>
					</g>
					<g>
						<polygon class="st2" points="418.9,709 414.2,709 414.2,700.2 						"/>
					</g>
					<g>
						<polygon class="st4" points="414.2,700.2 414.2,709 409.5,709 						"/>
					</g>
				</g>
				<g>
					<g>
						<polygon class="st2" points="420.5,708.4 408,708.4 410.3,704 414.2,696.6 418.2,704 						"/>
					</g>
					<g>
						<polygon class="st3" points="414.2,708.4 414.2,696.6 420.5,708.4 						"/>
					</g>
				</g>
			</g>
		</g>
		<g class="st6">
			<polygon class="st7" points="413,729.1 407.2,730.9 415.5,729.1 			"/>
		</g>
	</g>
	<g>
		<g>
			<g>
				<g>
					<rect x="437.5" y="707.1" class="st0" width="5" height="20.6"/>
				</g>
				<g>
					<rect x="437.5" y="707.1" class="st1" width="2.5" height="20.6"/>
				</g>
			</g>
			<g>
				<g>
					<g>
						<polygon class="st2" points="420.2,714.8 440,677.8 459.7,714.8 						"/>
					</g>
					<g>
						<polygon class="st3" points="440,714.8 440,677.8 459.7,714.8 						"/>
					</g>
					<g>
						<polygon class="st2" points="452,700.3 440,700.3 440,677.8 						"/>
					</g>
					<g>
						<polygon class="st4" points="440,677.8 440,700.3 428,700.3 						"/>
					</g>
				</g>
				<g>
					<g>
						<polygon class="st2" points="424.5,699.1 440,670 455.4,699.1 						"/>
					</g>
					<g>
						<polygon class="st3" points="440,699.1 440,670 455.4,699.1 						"/>
					</g>
					<g>
						<polygon class="st2" points="449.4,687.7 440,687.7 440,670 						"/>
					</g>
					<g>
						<polygon class="st4" points="440,670 440,687.7 430.6,687.7 						"/>
					</g>
				</g>
				<g>
					<g>
						<polygon class="st2" points="452.5,686.4 427.4,686.4 432.1,677.6 440,662.8 447.8,677.6 						"/>
					</g>
					<g>
						<polygon class="st3" points="440,686.4 440,662.8 452.5,686.4 						"/>
					</g>
				</g>
			</g>
		</g>
		<g class="st6">
			<polygon class="st7" points="437.5,727.8 425.8,731.4 442.4,727.8 			"/>
		</g>
	</g>
</g>
<g>
	<g>
		<g>
			<g>
				<g>
					<rect x="-119.9" y="714.3" class="st0" width="3.6" height="14.8"/>
				</g>
				<g>
					<rect x="-119.9" y="714.3" class="st1" width="1.8" height="14.8"/>
				</g>
			</g>
			<g>
				<g>
					<g>
						<polygon class="st2" points="-132.2,719.8 -118.1,693.3 -104,719.8 						"/>
					</g>
					<g>
						<polygon class="st3" points="-118.1,719.8 -118.1,693.3 -104,719.8 						"/>
					</g>
					<g>
						<polygon class="st2" points="-109.5,709.4 -118.1,709.4 -118.1,693.3 						"/>
					</g>
					<g>
						<polygon class="st4" points="-118.1,693.3 -118.1,709.4 -126.7,709.4 						"/>
					</g>
				</g>
				<g>
					<g>
						<polygon class="st2" points="-129.2,708.5 -118.1,687.7 -107,708.5 						"/>
					</g>
					<g>
						<polygon class="st3" points="-118.1,708.5 -118.1,687.7 -107,708.5 						"/>
					</g>
					<g>
						<polygon class="st2" points="-111.4,700.4 -118.1,700.4 -118.1,687.7 						"/>
					</g>
					<g>
						<polygon class="st4" points="-118.1,687.7 -118.1,700.4 -124.8,700.4 						"/>
					</g>
				</g>
				<g>
					<g>
						<polygon class="st2" points="-109.1,699.5 -127.1,699.5 -123.7,693.2 -118.1,682.6 -112.5,693.2 						"/>
					</g>
					<g>
						<polygon class="st3" points="-118.1,699.5 -118.1,682.6 -109.1,699.5 						"/>
					</g>
				</g>
			</g>
		</g>
		<g class="st6">
			<polygon class="st7" points="-119.9,729.1 -128.2,731.7 -116.3,729.1 			"/>
		</g>
	</g>
	<g>
		<g>
			<g>
				<g>
					<rect x="-91.7" y="704.6" class="st0" width="6.9" height="28.8"/>
				</g>
				<g>
					<rect x="-91.7" y="704.6" class="st1" width="3.5" height="28.8"/>
				</g>
			</g>
			<g>
				<g>
					<g>
						<polygon class="st2" points="-115.7,715.4 -88.2,663.7 -60.7,715.4 						"/>
					</g>
					<g>
						<polygon class="st3" points="-88.2,715.4 -88.2,663.7 -60.7,715.4 						"/>
					</g>
					<g>
						<polygon class="st2" points="-71.5,695.1 -88.2,695.1 -88.2,663.7 						"/>
					</g>
					<g>
						<polygon class="st4" points="-88.2,663.7 -88.2,695.1 -104.9,695.1 						"/>
					</g>
				</g>
				<g>
					<g>
						<polygon class="st2" points="-109.8,693.4 -88.2,652.8 -66.7,693.4 						"/>
					</g>
					<g>
						<polygon class="st3" points="-88.2,693.4 -88.2,652.8 -66.7,693.4 						"/>
					</g>
					<g>
						<polygon class="st2" points="-75.1,677.5 -88.2,677.5 -88.2,652.8 						"/>
					</g>
					<g>
						<polygon class="st4" points="-88.2,652.8 -88.2,677.5 -101.3,677.5 						"/>
					</g>
				</g>
				<g>
					<g>
						<polygon class="st2" points="-70.7,675.7 -105.7,675.7 -99.2,663.5 -88.2,642.8 -77.3,663.5 						"/>
					</g>
					<g>
						<polygon class="st3" points="-88.2,675.7 -88.2,642.8 -70.7,675.7 						"/>
					</g>
				</g>
			</g>
		</g>
		<g class="st6">
			<polygon class="st7" points="-91.7,733.4 -107.9,738.5 -84.8,733.4 			"/>
		</g>
	</g>
	<g>
		<g>
			<g>
				<g>
					<rect x="-55.2" y="718.1" class="st0" width="2.5" height="10.3"/>
				</g>
				<g>
					<rect x="-55.2" y="718.1" class="st1" width="1.2" height="10.3"/>
				</g>
			</g>
			<g>
				<g>
					<g>
						<polygon class="st2" points="-63.9,721.9 -54,703.4 -44.1,721.9 						"/>
					</g>
					<g>
						<polygon class="st3" points="-54,721.9 -54,703.4 -44.1,721.9 						"/>
					</g>
					<g>
						<polygon class="st2" points="-48,714.7 -54,714.7 -54,703.4 						"/>
					</g>
					<g>
						<polygon class="st4" points="-54,703.4 -54,714.7 -60,714.7 						"/>
					</g>
				</g>
				<g>
					<g>
						<polygon class="st2" points="-61.7,714 -54,699.5 -46.3,714 						"/>
					</g>
					<g>
						<polygon class="st3" points="-54,714 -54,699.5 -46.3,714 						"/>
					</g>
					<g>
						<polygon class="st2" points="-49.3,708.3 -54,708.3 -54,699.5 						"/>
					</g>
					<g>
						<polygon class="st4" points="-54,699.5 -54,708.3 -58.7,708.3 						"/>
					</g>
				</g>
				<g>
					<g>
						<polygon class="st2" points="-47.7,707.7 -60.3,707.7 -57.9,703.3 -54,695.9 -50.1,703.3 						"/>
					</g>
					<g>
						<polygon class="st3" points="-54,707.7 -54,695.9 -47.7,707.7 						"/>
					</g>
				</g>
			</g>
		</g>
		<g class="st6">
			<polygon class="st7" points="-55.2,728.4 -61.1,730.3 -52.8,728.4 			"/>
		</g>
	</g>
	<g>
		<g>
			<g>
				<g>
					<rect x="-30.8" y="706.4" class="st0" width="5" height="20.7"/>
				</g>
				<g>
					<rect x="-30.8" y="706.4" class="st1" width="2.5" height="20.7"/>
				</g>
			</g>
			<g>
				<g>
					<g>
						<polygon class="st2" points="-48,714.2 -28.3,677 -8.5,714.2 						"/>
					</g>
					<g>
						<polygon class="st3" points="-28.3,714.2 -28.3,677 -8.5,714.2 						"/>
					</g>
					<g>
						<polygon class="st2" points="-16.3,699.6 -28.3,699.6 -28.3,677 						"/>
					</g>
					<g>
						<polygon class="st4" points="-28.3,677 -28.3,699.6 -40.3,699.6 						"/>
					</g>
				</g>
				<g>
					<g>
						<polygon class="st2" points="-43.8,698.4 -28.3,669.2 -12.8,698.4 						"/>
					</g>
					<g>
						<polygon class="st3" points="-28.3,698.4 -28.3,669.2 -12.8,698.4 						"/>
					</g>
					<g>
						<polygon class="st2" points="-18.9,686.9 -28.3,686.9 -28.3,669.2 						"/>
					</g>
					<g>
						<polygon class="st4" points="-28.3,669.2 -28.3,686.9 -37.7,686.9 						"/>
					</g>
				</g>
				<g>
					<g>
						<polygon class="st2" points="-15.7,685.7 -40.8,685.7 -36.2,676.9 -28.3,662 -20.4,676.9 						"/>
					</g>
					<g>
						<polygon class="st3" points="-28.3,685.7 -28.3,662 -15.7,685.7 						"/>
					</g>
				</g>
			</g>
		</g>
		<g class="st6">
			<polygon class="st7" points="-30.8,727.1 -42.4,730.8 -25.8,727.1 			"/>
		</g>
	</g>
	<g>
		<g>
			<g>
				<g>
					<rect x="-269.5" y="714.3" class="st0" width="3.6" height="14.8"/>
				</g>
				<g>
					<rect x="-269.5" y="714.3" class="st1" width="1.8" height="14.8"/>
				</g>
			</g>
			<g>
				<g>
					<g>
						<polygon class="st2" points="-281.8,719.8 -267.7,693.3 -253.6,719.8 						"/>
					</g>
					<g>
						<polygon class="st3" points="-267.7,719.8 -267.7,693.3 -253.6,719.8 						"/>
					</g>
					<g>
						<polygon class="st2" points="-259.1,709.4 -267.7,709.4 -267.7,693.3 						"/>
					</g>
					<g>
						<polygon class="st4" points="-267.7,693.3 -267.7,709.4 -276.3,709.4 						"/>
					</g>
				</g>
				<g>
					<g>
						<polygon class="st2" points="-278.8,708.5 -267.7,687.7 -256.6,708.5 						"/>
					</g>
					<g>
						<polygon class="st3" points="-267.7,708.5 -267.7,687.7 -256.6,708.5 						"/>
					</g>
					<g>
						<polygon class="st2" points="-261,700.4 -267.7,700.4 -267.7,687.7 						"/>
					</g>
					<g>
						<polygon class="st4" points="-267.7,687.7 -267.7,700.4 -274.4,700.4 						"/>
					</g>
				</g>
				<g>
					<g>
						<polygon class="st2" points="-258.7,699.5 -276.7,699.5 -273.3,693.2 -267.7,682.6 -262.1,693.2 						"/>
					</g>
					<g>
						<polygon class="st3" points="-267.7,699.5 -267.7,682.6 -258.7,699.5 						"/>
					</g>
				</g>
			</g>
		</g>
		<g class="st6">
			<polygon class="st7" points="-269.5,729.1 -277.8,731.7 -265.9,729.1 			"/>
		</g>
	</g>
	<g>
		<g>
			<g>
				<g>
					<rect x="-241.3" y="704.6" class="st0" width="6.9" height="28.8"/>
				</g>
				<g>
					<rect x="-241.3" y="704.6" class="st1" width="3.5" height="28.8"/>
				</g>
			</g>
			<g>
				<g>
					<g>
						<polygon class="st2" points="-265.3,715.4 -237.8,663.7 -210.4,715.4 						"/>
					</g>
					<g>
						<polygon class="st3" points="-237.8,715.4 -237.8,663.7 -210.4,715.4 						"/>
					</g>
					<g>
						<polygon class="st2" points="-221.1,695.1 -237.8,695.1 -237.8,663.7 						"/>
					</g>
					<g>
						<polygon class="st4" points="-237.8,663.7 -237.8,695.1 -254.5,695.1 						"/>
					</g>
				</g>
				<g>
					<g>
						<polygon class="st2" points="-259.4,693.4 -237.8,652.8 -216.3,693.4 						"/>
					</g>
					<g>
						<polygon class="st3" points="-237.8,693.4 -237.8,652.8 -216.3,693.4 						"/>
					</g>
					<g>
						<polygon class="st2" points="-224.7,677.5 -237.8,677.5 -237.8,652.8 						"/>
					</g>
					<g>
						<polygon class="st4" points="-237.8,652.8 -237.8,677.5 -250.9,677.5 						"/>
					</g>
				</g>
				<g>
					<g>
						<polygon class="st2" points="-220.3,675.7 -255.3,675.7 -248.8,663.5 -237.8,642.8 -226.9,663.5 						"/>
					</g>
					<g>
						<polygon class="st3" points="-237.8,675.7 -237.8,642.8 -220.3,675.7 						"/>
					</g>
				</g>
			</g>
		</g>
		<g class="st6">
			<polygon class="st7" points="-241.3,733.4 -257.5,738.5 -234.4,733.4 			"/>
		</g>
	</g>
	<g>
		<g>
			<g>
				<g>
					<rect x="-204.9" y="718.1" class="st0" width="2.5" height="10.3"/>
				</g>
				<g>
					<rect x="-204.9" y="718.1" class="st1" width="1.2" height="10.3"/>
				</g>
			</g>
			<g>
				<g>
					<g>
						<polygon class="st2" points="-213.5,721.9 -203.6,703.4 -193.7,721.9 						"/>
					</g>
					<g>
						<polygon class="st3" points="-203.6,721.9 -203.6,703.4 -193.7,721.9 						"/>
					</g>
					<g>
						<polygon class="st2" points="-197.6,714.7 -203.6,714.7 -203.6,703.4 						"/>
					</g>
					<g>
						<polygon class="st4" points="-203.6,703.4 -203.6,714.7 -209.6,714.7 						"/>
					</g>
				</g>
				<g>
					<g>
						<polygon class="st2" points="-211.4,714 -203.6,699.5 -195.9,714 						"/>
					</g>
					<g>
						<polygon class="st3" points="-203.6,714 -203.6,699.5 -195.9,714 						"/>
					</g>
					<g>
						<polygon class="st2" points="-198.9,708.3 -203.6,708.3 -203.6,699.5 						"/>
					</g>
					<g>
						<polygon class="st4" points="-203.6,699.5 -203.6,708.3 -208.3,708.3 						"/>
					</g>
				</g>
				<g>
					<g>
						<polygon class="st2" points="-197.3,707.7 -209.9,707.7 -207.6,703.3 -203.6,695.9 -199.7,703.3 						"/>
					</g>
					<g>
						<polygon class="st3" points="-203.6,707.7 -203.6,695.9 -197.3,707.7 						"/>
					</g>
				</g>
			</g>
		</g>
		<g class="st6">
			<polygon class="st7" points="-204.9,728.4 -210.7,730.3 -202.4,728.4 			"/>
		</g>
	</g>
	<g>
		<g>
			<g>
				<g>
					<rect x="-180.4" y="706.4" class="st0" width="5" height="20.7"/>
				</g>
				<g>
					<rect x="-180.4" y="706.4" class="st1" width="2.5" height="20.7"/>
				</g>
			</g>
			<g>
				<g>
					<g>
						<polygon class="st2" points="-197.6,714.2 -177.9,677 -158.1,714.2 						"/>
					</g>
					<g>
						<polygon class="st3" points="-177.9,714.2 -177.9,677 -158.1,714.2 						"/>
					</g>
					<g>
						<polygon class="st2" points="-165.9,699.6 -177.9,699.6 -177.9,677 						"/>
					</g>
					<g>
						<polygon class="st4" points="-177.9,677 -177.9,699.6 -189.9,699.6 						"/>
					</g>
				</g>
				<g>
					<g>
						<polygon class="st2" points="-193.4,698.4 -177.9,669.2 -162.4,698.4 						"/>
					</g>
					<g>
						<polygon class="st3" points="-177.9,698.4 -177.9,669.2 -162.4,698.4 						"/>
					</g>
					<g>
						<polygon class="st2" points="-168.5,686.9 -177.9,686.9 -177.9,669.2 						"/>
					</g>
					<g>
						<polygon class="st4" points="-177.9,669.2 -177.9,686.9 -187.3,686.9 						"/>
					</g>
				</g>
				<g>
					<g>
						<polygon class="st2" points="-165.3,685.7 -190.5,685.7 -185.8,676.9 -177.9,662 -170,676.9 						"/>
					</g>
					<g>
						<polygon class="st3" points="-177.9,685.7 -177.9,662 -165.3,685.7 						"/>
					</g>
				</g>
			</g>
		</g>
		<g class="st6">
			<polygon class="st7" points="-180.4,727.1 -192,730.8 -175.4,727.1 			"/>
		</g>
	</g>
</g>
<g>
	<g>
		<g>
			<g>
				<g>
					<rect x="176.1" y="710.6" class="st0" width="2.9" height="12"/>
				</g>
				<g>
					<rect x="176.1" y="710.6" class="st1" width="1.4" height="12"/>
				</g>
			</g>
			<g>
				<g>
					<g>
						<polygon class="st2" points="166.1,715.1 177.6,693.5 189.1,715.1 						"/>
					</g>
					<g>
						<polygon class="st3" points="177.6,715.1 177.6,693.5 189.1,715.1 						"/>
					</g>
					<g>
						<polygon class="st2" points="184.6,706.6 177.6,706.6 177.6,693.5 						"/>
					</g>
					<g>
						<polygon class="st4" points="177.6,693.5 177.6,706.6 170.6,706.6 						"/>
					</g>
				</g>
				<g>
					<g>
						<polygon class="st2" points="168.6,705.9 177.6,689 186.6,705.9 						"/>
					</g>
					<g>
						<polygon class="st3" points="177.6,705.9 177.6,689 186.6,705.9 						"/>
					</g>
					<g>
						<polygon class="st2" points="183.1,699.3 177.6,699.3 177.6,689 						"/>
					</g>
					<g>
						<polygon class="st4" points="177.6,689 177.6,699.3 172.1,699.3 						"/>
					</g>
				</g>
				<g>
					<g>
						<polygon class="st2" points="184.9,698.5 170.3,698.5 173,693.4 177.6,684.8 182.2,693.4 						"/>
					</g>
					<g>
						<polygon class="st3" points="177.6,698.5 177.6,684.8 184.9,698.5 						"/>
					</g>
				</g>
			</g>
		</g>
		<g class="st6">
			<polygon class="st7" points="176.1,722.7 169.4,724.8 179,722.7 			"/>
		</g>
	</g>
	<g>
		<g>
			<g>
				<g>
					<rect x="199.1" y="702.8" class="st0" width="5.6" height="23.4"/>
				</g>
				<g>
					<rect x="199.1" y="702.8" class="st1" width="2.8" height="23.4"/>
				</g>
			</g>
			<g>
				<g>
					<g>
						<polygon class="st2" points="179.5,711.5 201.9,669.4 224.3,711.5 						"/>
					</g>
					<g>
						<polygon class="st3" points="201.9,711.5 201.9,669.4 224.3,711.5 						"/>
					</g>
					<g>
						<polygon class="st2" points="215.5,695 201.9,695 201.9,669.4 						"/>
					</g>
					<g>
						<polygon class="st4" points="201.9,669.4 201.9,695 188.3,695 						"/>
					</g>
				</g>
				<g>
					<g>
						<polygon class="st2" points="184.4,693.6 201.9,660.6 219.5,693.6 						"/>
					</g>
					<g>
						<polygon class="st3" points="201.9,693.6 201.9,660.6 219.5,693.6 						"/>
					</g>
					<g>
						<polygon class="st2" points="212.6,680.6 201.9,680.6 201.9,660.6 						"/>
					</g>
					<g>
						<polygon class="st4" points="201.9,660.6 201.9,680.6 191.2,680.6 						"/>
					</g>
				</g>
				<g>
					<g>
						<polygon class="st2" points="216.2,679.2 187.7,679.2 193,669.2 201.9,652.4 210.8,669.2 						"/>
					</g>
					<g>
						<polygon class="st3" points="201.9,679.2 201.9,652.4 216.2,679.2 						"/>
					</g>
				</g>
			</g>
		</g>
		<g class="st6">
			<polygon class="st7" points="199.1,726.2 185.9,730.3 204.7,726.2 			"/>
		</g>
	</g>
	<g>
		<g>
			<g>
				<g>
					<rect x="228.8" y="713.7" class="st0" width="2" height="8.4"/>
				</g>
				<g>
					<rect x="228.8" y="713.7" class="st1" width="1" height="8.4"/>
				</g>
			</g>
			<g>
				<g>
					<g>
						<polygon class="st2" points="221.7,716.9 229.8,701.7 237.8,716.9 						"/>
					</g>
					<g>
						<polygon class="st3" points="229.8,716.9 229.8,701.7 237.8,716.9 						"/>
					</g>
					<g>
						<polygon class="st2" points="234.7,710.9 229.8,710.9 229.8,701.7 						"/>
					</g>
					<g>
						<polygon class="st4" points="229.8,701.7 229.8,710.9 224.9,710.9 						"/>
					</g>
				</g>
				<g>
					<g>
						<polygon class="st2" points="223.5,710.4 229.8,698.6 236.1,710.4 						"/>
					</g>
					<g>
						<polygon class="st3" points="229.8,710.4 229.8,698.6 236.1,710.4 						"/>
					</g>
					<g>
						<polygon class="st2" points="233.6,705.8 229.8,705.8 229.8,698.6 						"/>
					</g>
					<g>
						<polygon class="st4" points="229.8,698.6 229.8,705.8 225.9,705.8 						"/>
					</g>
				</g>
				<g>
					<g>
						<polygon class="st2" points="234.9,705.2 224.7,705.2 226.6,701.7 229.8,695.6 233,701.7 						"/>
					</g>
					<g>
						<polygon class="st3" points="229.8,705.2 229.8,695.6 234.9,705.2 						"/>
					</g>
				</g>
			</g>
		</g>
		<g class="st6">
			<polygon class="st7" points="228.8,722.1 224,723.6 230.8,722.1 			"/>
		</g>
	</g>
	<g>
		<g>
			<g>
				<g>
					<rect x="248.7" y="704.2" class="st0" width="4" height="16.8"/>
				</g>
				<g>
					<rect x="248.7" y="704.2" class="st1" width="2" height="16.8"/>
				</g>
			</g>
			<g>
				<g>
					<g>
						<polygon class="st2" points="234.6,710.5 250.7,680.3 266.8,710.5 						"/>
					</g>
					<g>
						<polygon class="st3" points="250.7,710.5 250.7,680.3 266.8,710.5 						"/>
					</g>
					<g>
						<polygon class="st2" points="260.5,698.7 250.7,698.7 250.7,680.3 						"/>
					</g>
					<g>
						<polygon class="st4" points="250.7,680.3 250.7,698.7 240.9,698.7 						"/>
					</g>
				</g>
				<g>
					<g>
						<polygon class="st2" points="238.1,697.6 250.7,673.9 263.3,697.6 						"/>
					</g>
					<g>
						<polygon class="st3" points="250.7,697.6 250.7,673.9 263.3,697.6 						"/>
					</g>
					<g>
						<polygon class="st2" points="258.4,688.3 250.7,688.3 250.7,673.9 						"/>
					</g>
					<g>
						<polygon class="st4" points="250.7,673.9 250.7,688.3 243.1,688.3 						"/>
					</g>
				</g>
				<g>
					<g>
						<polygon class="st2" points="260.9,687.3 240.5,687.3 244.3,680.1 250.7,668.1 257.1,680.1 						"/>
					</g>
					<g>
						<polygon class="st3" points="250.7,687.3 250.7,668.1 260.9,687.3 						"/>
					</g>
				</g>
			</g>
		</g>
		<g class="st6">
			<polygon class="st7" points="248.7,721.1 239.2,724 252.7,721.1 			"/>
		</g>
	</g>
	<g>
		<g>
			<g>
				<g>
					<rect x="54.4" y="710.6" class="st0" width="2.9" height="12"/>
				</g>
				<g>
					<rect x="54.4" y="710.6" class="st1" width="1.4" height="12"/>
				</g>
			</g>
			<g>
				<g>
					<g>
						<polygon class="st2" points="44.3,715.1 55.8,693.5 67.3,715.1 						"/>
					</g>
					<g>
						<polygon class="st3" points="55.8,715.1 55.8,693.5 67.3,715.1 						"/>
					</g>
					<g>
						<polygon class="st2" points="62.8,706.6 55.8,706.6 55.8,693.5 						"/>
					</g>
					<g>
						<polygon class="st4" points="55.8,693.5 55.8,706.6 48.8,706.6 						"/>
					</g>
				</g>
				<g>
					<g>
						<polygon class="st2" points="46.8,705.9 55.8,689 64.8,705.9 						"/>
					</g>
					<g>
						<polygon class="st3" points="55.8,705.9 55.8,689 64.8,705.9 						"/>
					</g>
					<g>
						<polygon class="st2" points="61.3,699.3 55.8,699.3 55.8,689 						"/>
					</g>
					<g>
						<polygon class="st4" points="55.8,689 55.8,699.3 50.3,699.3 						"/>
					</g>
				</g>
				<g>
					<g>
						<polygon class="st2" points="63.1,698.5 48.5,698.5 51.2,693.4 55.8,684.8 60.4,693.4 						"/>
					</g>
					<g>
						<polygon class="st3" points="55.8,698.5 55.8,684.8 63.1,698.5 						"/>
					</g>
				</g>
			</g>
		</g>
		<g class="st6">
			<polygon class="st7" points="54.4,722.7 47.6,724.8 57.2,722.7 			"/>
		</g>
	</g>
	<g>
		<g>
			<g>
				<g>
					<rect x="77.3" y="702.8" class="st0" width="5.6" height="23.4"/>
				</g>
				<g>
					<rect x="77.3" y="702.8" class="st1" width="2.8" height="23.4"/>
				</g>
			</g>
			<g>
				<g>
					<g>
						<polygon class="st2" points="57.7,711.5 80.1,669.4 102.5,711.5 						"/>
					</g>
					<g>
						<polygon class="st3" points="80.1,711.5 80.1,669.4 102.5,711.5 						"/>
					</g>
					<g>
						<polygon class="st2" points="93.7,695 80.1,695 80.1,669.4 						"/>
					</g>
					<g>
						<polygon class="st4" points="80.1,669.4 80.1,695 66.5,695 						"/>
					</g>
				</g>
				<g>
					<g>
						<polygon class="st2" points="62.6,693.6 80.1,660.6 97.7,693.6 						"/>
					</g>
					<g>
						<polygon class="st3" points="80.1,693.6 80.1,660.6 97.7,693.6 						"/>
					</g>
					<g>
						<polygon class="st2" points="90.8,680.6 80.1,680.6 80.1,660.6 						"/>
					</g>
					<g>
						<polygon class="st4" points="80.1,660.6 80.1,680.6 69.5,680.6 						"/>
					</g>
				</g>
				<g>
					<g>
						<polygon class="st2" points="94.4,679.2 65.9,679.2 71.2,669.2 80.1,652.4 89,669.2 						"/>
					</g>
					<g>
						<polygon class="st3" points="80.1,679.2 80.1,652.4 94.4,679.2 						"/>
					</g>
				</g>
			</g>
		</g>
		<g class="st6">
			<polygon class="st7" points="77.3,726.2 64.1,730.3 82.9,726.2 			"/>
		</g>
	</g>
	<g>
		<g>
			<g>
				<g>
					<rect x="107" y="713.7" class="st0" width="2" height="8.4"/>
				</g>
				<g>
					<rect x="107" y="713.7" class="st1" width="1" height="8.4"/>
				</g>
			</g>
			<g>
				<g>
					<g>
						<polygon class="st2" points="99.9,716.9 108,701.7 116,716.9 						"/>
					</g>
					<g>
						<polygon class="st3" points="108,716.9 108,701.7 116,716.9 						"/>
					</g>
					<g>
						<polygon class="st2" points="112.9,710.9 108,710.9 108,701.7 						"/>
					</g>
					<g>
						<polygon class="st4" points="108,701.7 108,710.9 103.1,710.9 						"/>
					</g>
				</g>
				<g>
					<g>
						<polygon class="st2" points="101.7,710.4 108,698.6 114.3,710.4 						"/>
					</g>
					<g>
						<polygon class="st3" points="108,710.4 108,698.6 114.3,710.4 						"/>
					</g>
					<g>
						<polygon class="st2" points="111.8,705.8 108,705.8 108,698.6 						"/>
					</g>
					<g>
						<polygon class="st4" points="108,698.6 108,705.8 104.1,705.8 						"/>
					</g>
				</g>
				<g>
					<g>
						<polygon class="st2" points="113.1,705.2 102.9,705.2 104.8,701.7 108,695.6 111.2,701.7 						"/>
					</g>
					<g>
						<polygon class="st3" points="108,705.2 108,695.6 113.1,705.2 						"/>
					</g>
				</g>
			</g>
		</g>
		<g class="st6">
			<polygon class="st7" points="107,722.1 102.2,723.6 109,722.1 			"/>
		</g>
	</g>
	<g>
		<g>
			<g>
				<g>
					<rect x="126.9" y="704.2" class="st0" width="4" height="16.8"/>
				</g>
				<g>
					<rect x="126.9" y="704.2" class="st1" width="2" height="16.8"/>
				</g>
			</g>
			<g>
				<g>
					<g>
						<polygon class="st2" points="112.8,710.5 128.9,680.3 145,710.5 						"/>
					</g>
					<g>
						<polygon class="st3" points="128.9,710.5 128.9,680.3 145,710.5 						"/>
					</g>
					<g>
						<polygon class="st2" points="138.7,698.7 128.9,698.7 128.9,680.3 						"/>
					</g>
					<g>
						<polygon class="st4" points="128.9,680.3 128.9,698.7 119.2,698.7 						"/>
					</g>
				</g>
				<g>
					<g>
						<polygon class="st2" points="116.3,697.6 128.9,673.9 141.5,697.6 						"/>
					</g>
					<g>
						<polygon class="st3" points="128.9,697.6 128.9,673.9 141.5,697.6 						"/>
					</g>
					<g>
						<polygon class="st2" points="136.6,688.3 128.9,688.3 128.9,673.9 						"/>
					</g>
					<g>
						<polygon class="st4" points="128.9,673.9 128.9,688.3 121.3,688.3 						"/>
					</g>
				</g>
				<g>
					<g>
						<polygon class="st2" points="139.2,687.3 118.7,687.3 122.5,680.1 128.9,668.1 135.3,680.1 						"/>
					</g>
					<g>
						<polygon class="st3" points="128.9,687.3 128.9,668.1 139.2,687.3 						"/>
					</g>
				</g>
			</g>
		</g>
		<g class="st6">
			<polygon class="st7" points="126.9,721.1 117.4,724 130.9,721.1 			"/>
		</g>
	</g>
</g>
<g>
	<g>
		<g>
			<g>
				<rect x="-278.5" y="635.4" class="st0" width="8.9" height="36.8"/>
			</g>
			<g>
				<rect x="-278.5" y="635.4" class="st1" width="4.4" height="36.8"/>
			</g>
		</g>
		<g>
			<g>
				<g>
					<polygon class="st2" points="-309.2,649.1 -274,583 -238.9,649.1 					"/>
				</g>
				<g>
					<polygon class="st3" points="-274,649.1 -274,583 -238.9,649.1 					"/>
				</g>
				<g>
					<polygon class="st2" points="-252.7,623.2 -274,623.2 -274,583 					"/>
				</g>
				<g>
					<polygon class="st4" points="-274,583 -274,623.2 -295.4,623.2 					"/>
				</g>
			</g>
			<g>
				<g>
					<polygon class="st2" points="-301.6,621 -274,569.1 -246.5,621 					"/>
				</g>
				<g>
					<polygon class="st3" points="-274,621 -274,569.1 -246.5,621 					"/>
				</g>
				<g>
					<polygon class="st2" points="-257.3,600.6 -274,600.6 -274,569.1 					"/>
				</g>
				<g>
					<polygon class="st4" points="-274,569.1 -274,600.6 -290.8,600.6 					"/>
				</g>
			</g>
			<g>
				<g>
					<polygon class="st2" points="-251.7,598.4 -296.4,598.4 -288.1,582.7 -274,556.3 -260,582.7 					"/>
				</g>
				<g>
					<polygon class="st3" points="-274,598.4 -274,556.3 -251.7,598.4 					"/>
				</g>
			</g>
		</g>
	</g>
	<g class="st6">
		<polygon class="st7" points="-278.5,672.2 -299.2,678.7 -269.6,672.2 		"/>
	</g>
</g>
<g>
	<g>
		<g>
			<g>
				<rect x="352.8" y="735.4" class="st0" width="8.2" height="34.1"/>
			</g>
			<g>
				<rect x="352.8" y="735.4" class="st1" width="4.1" height="34.1"/>
			</g>
		</g>
		<g>
			<g>
				<g>
					<polygon class="st2" points="324.3,748.1 356.9,686.8 389.5,748.1 					"/>
				</g>
				<g>
					<polygon class="st3" points="356.9,748.1 356.9,686.8 389.5,748.1 					"/>
				</g>
				<g>
					<polygon class="st2" points="376.7,724.1 356.9,724.1 356.9,686.8 					"/>
				</g>
				<g>
					<polygon class="st4" points="356.9,686.8 356.9,724.1 337.1,724.1 					"/>
				</g>
			</g>
			<g>
				<g>
					<polygon class="st2" points="331.3,722 356.9,673.9 382.4,722 					"/>
				</g>
				<g>
					<polygon class="st3" points="356.9,722 356.9,673.9 382.4,722 					"/>
				</g>
				<g>
					<polygon class="st2" points="372.4,703.1 356.9,703.1 356.9,673.9 					"/>
				</g>
				<g>
					<polygon class="st4" points="356.9,673.9 356.9,703.1 341.3,703.1 					"/>
				</g>
			</g>
			<g>
				<g>
					<polygon class="st2" points="377.6,701.1 336.1,701.1 343.8,686.5 356.9,662 369.9,686.5 					"/>
				</g>
				<g>
					<polygon class="st3" points="356.9,701.1 356.9,662 377.6,701.1 					"/>
				</g>
			</g>
		</g>
	</g>
	<g class="st6">
		<polygon class="st7" points="352.8,769.5 333.5,775.6 361,769.5 		"/>
	</g>
</g>
<g>
	<g>
		<g>
			<g>
				<rect x="-144.6" y="754.4" class="st0" width="15.3" height="63.6"/>
			</g>
			<g>
				<rect x="-144.6" y="754.4" class="st1" width="7.6" height="63.6"/>
			</g>
		</g>
		<g>
			<g>
				<g>
					<polygon class="st2" points="-197.6,778.2 -136.9,664 -76.2,778.2 					"/>
				</g>
				<g>
					<polygon class="st3" points="-136.9,778.2 -136.9,664 -76.2,778.2 					"/>
				</g>
				<g>
					<polygon class="st2" points="-100,733.4 -136.9,733.4 -136.9,664 					"/>
				</g>
				<g>
					<polygon class="st4" points="-136.9,664 -136.9,733.4 -173.8,733.4 					"/>
				</g>
			</g>
			<g>
				<g>
					<polygon class="st2" points="-184.5,729.5 -136.9,640 -89.3,729.5 					"/>
				</g>
				<g>
					<polygon class="st3" points="-136.9,729.5 -136.9,640 -89.3,729.5 					"/>
				</g>
				<g>
					<polygon class="st2" points="-108,694.4 -136.9,694.4 -136.9,640 					"/>
				</g>
				<g>
					<polygon class="st4" points="-136.9,640 -136.9,694.4 -165.8,694.4 					"/>
				</g>
			</g>
			<g>
				<g>
					<polygon class="st2" points="-98.3,690.5 -175.6,690.5 -161.2,663.4 -136.9,617.8 -112.7,663.4 					"/>
				</g>
				<g>
					<polygon class="st3" points="-136.9,690.5 -136.9,617.8 -98.3,690.5 					"/>
				</g>
			</g>
		</g>
	</g>
	<g class="st6">
		<polygon class="st7" points="-144.6,818 -180.4,829.3 -129.3,818 		"/>
	</g>
</g>
<g>
	<g>
		<g>
			<g>
				<rect x="63.4" y="722.3" class="st0" width="11" height="45.7"/>
			</g>
			<g>
				<rect x="63.4" y="722.3" class="st1" width="5.5" height="45.7"/>
			</g>
		</g>
		<g>
			<g>
				<g>
					<polygon class="st2" points="25.2,739.4 68.9,657.3 112.5,739.4 					"/>
				</g>
				<g>
					<polygon class="st3" points="68.9,739.4 68.9,657.3 112.5,739.4 					"/>
				</g>
				<g>
					<polygon class="st2" points="95.4,707.2 68.9,707.2 68.9,657.3 					"/>
				</g>
				<g>
					<polygon class="st4" points="68.9,657.3 68.9,707.2 42.4,707.2 					"/>
				</g>
			</g>
			<g>
				<g>
					<polygon class="st2" points="34.7,704.4 68.9,640.1 103.1,704.4 					"/>
				</g>
				<g>
					<polygon class="st3" points="68.9,704.4 68.9,640.1 103.1,704.4 					"/>
				</g>
				<g>
					<polygon class="st2" points="89.7,679.2 68.9,679.2 68.9,640.1 					"/>
				</g>
				<g>
					<polygon class="st4" points="68.9,640.1 68.9,679.2 48.1,679.2 					"/>
				</g>
			</g>
			<g>
				<g>
					<polygon class="st2" points="96.7,676.4 41.1,676.4 51.5,656.9 68.9,624.1 86.3,656.9 					"/>
				</g>
				<g>
					<polygon class="st3" points="68.9,676.4 68.9,624.1 96.7,676.4 					"/>
				</g>
			</g>
		</g>
	</g>
	<g class="st6">
		<polygon class="st7" points="63.4,768 37.6,776.1 74.4,768 		"/>
	</g>
</g>
<g>
	<g>
		<g>
			<g>
				<rect x="498" y="811.4" class="st0" width="5.7" height="23.8"/>
			</g>
			<g>
				<rect x="498" y="811.4" class="st1" width="2.9" height="23.8"/>
			</g>
		</g>
		<g>
			<g>
				<g>
					<polygon class="st2" points="478.1,820.3 500.9,777.5 523.7,820.3 					"/>
				</g>
				<g>
					<polygon class="st3" points="500.9,820.3 500.9,777.5 523.7,820.3 					"/>
				</g>
				<g>
					<polygon class="st2" points="514.7,803.5 500.9,803.5 500.9,777.5 					"/>
				</g>
				<g>
					<polygon class="st4" points="500.9,777.5 500.9,803.5 487,803.5 					"/>
				</g>
			</g>
			<g>
				<g>
					<polygon class="st2" points="483,802.1 500.9,768.5 518.8,802.1 					"/>
				</g>
				<g>
					<polygon class="st3" points="500.9,802.1 500.9,768.5 518.8,802.1 					"/>
				</g>
				<g>
					<polygon class="st2" points="511.7,788.9 500.9,788.9 500.9,768.5 					"/>
				</g>
				<g>
					<polygon class="st4" points="500.9,768.5 500.9,788.9 490,788.9 					"/>
				</g>
			</g>
			<g>
				<g>
					<polygon class="st2" points="515.4,787.4 486.4,787.4 491.8,777.3 500.9,760.2 510,777.3 					"/>
				</g>
				<g>
					<polygon class="st3" points="500.9,787.4 500.9,760.2 515.4,787.4 					"/>
				</g>
			</g>
		</g>
	</g>
	<g class="st6">
		<polygon class="st7" points="498,835.2 484.5,839.4 503.8,835.2 		"/>
	</g>
</g>
<g>
	<g>
		<g>
			<g>
				<rect x="-57.6" y="763.1" class="st0" width="7.3" height="30.3"/>
			</g>
			<g>
				<rect x="-57.6" y="763.1" class="st1" width="3.6" height="30.3"/>
			</g>
		</g>
		<g>
			<g>
				<g>
					<polygon class="st2" points="-82.9,774.4 -54,720 -25.1,774.4 					"/>
				</g>
				<g>
					<polygon class="st3" points="-54,774.4 -54,720 -25.1,774.4 					"/>
				</g>
				<g>
					<polygon class="st2" points="-36.4,753.1 -54,753.1 -54,720 					"/>
				</g>
				<g>
					<polygon class="st4" points="-54,720 -54,753.1 -71.6,753.1 					"/>
				</g>
			</g>
			<g>
				<g>
					<polygon class="st2" points="-76.7,751.3 -54,708.6 -31.3,751.3 					"/>
				</g>
				<g>
					<polygon class="st3" points="-54,751.3 -54,708.6 -31.3,751.3 					"/>
				</g>
				<g>
					<polygon class="st2" points="-40.2,734.5 -54,734.5 -54,708.6 					"/>
				</g>
				<g>
					<polygon class="st4" points="-54,708.6 -54,734.5 -67.8,734.5 					"/>
				</g>
			</g>
			<g>
				<g>
					<polygon class="st2" points="-35.6,732.7 -72.4,732.7 -65.6,719.8 -54,698 -42.4,719.8 					"/>
				</g>
				<g>
					<polygon class="st3" points="-54,732.7 -54,698 -35.6,732.7 					"/>
				</g>
			</g>
		</g>
	</g>
	<g class="st6">
		<polygon class="st7" points="-57.6,793.4 -74.7,798.8 -50.4,793.4 		"/>
	</g>
</g>
<g>
	<g>
		<g>
			<g>
				<rect x="554.6" y="784.6" class="st0" width="11.5" height="47.6"/>
			</g>
			<g>
				<rect x="554.6" y="784.6" class="st1" width="5.7" height="47.6"/>
			</g>
		</g>
		<g>
			<g>
				<g>
					<polygon class="st2" points="514.7,802.4 560.3,716.8 605.9,802.4 					"/>
				</g>
				<g>
					<polygon class="st3" points="560.3,802.4 560.3,716.8 605.9,802.4 					"/>
				</g>
				<g>
					<polygon class="st2" points="588,768.8 560.3,768.8 560.3,716.8 					"/>
				</g>
				<g>
					<polygon class="st4" points="560.3,716.8 560.3,768.8 532.6,768.8 					"/>
				</g>
			</g>
			<g>
				<g>
					<polygon class="st2" points="524.5,765.9 560.3,698.8 596.1,765.9 					"/>
				</g>
				<g>
					<polygon class="st3" points="560.3,765.9 560.3,698.8 596.1,765.9 					"/>
				</g>
				<g>
					<polygon class="st2" points="582,739.6 560.3,739.6 560.3,698.8 					"/>
				</g>
				<g>
					<polygon class="st4" points="560.3,698.8 560.3,739.6 538.6,739.6 					"/>
				</g>
			</g>
			<g>
				<g>
					<polygon class="st2" points="589.3,736.7 531.3,736.7 542.1,716.4 560.3,682.2 578.5,716.4 					"/>
				</g>
				<g>
					<polygon class="st3" points="560.3,736.7 560.3,682.2 589.4,736.7 					"/>
				</g>
			</g>
		</g>
	</g>
	<g class="st6">
		<polygon class="st7" points="554.6,832.2 527.6,840.6 566.1,832.2 		"/>
	</g>
</g>
<g>
	<path class="st8" d="M54.1,632.1c-0.5,0-0.9,0.1-1.3,0.2c-1.2-2.1-3.5-3.5-6.1-3.5c-0.8,0-1.6,0.1-2.3,0.4
		c-1.2-2.5-3.6-4.4-6.4-5.1c0,0,0,0,0,0c0.1-0.6,0.2-1.2,0.2-1.8c0-4.2-3.4-7.7-7.7-7.7c-2.7,0-5.1,1.4-6.5,3.5
		c-0.8-0.4-1.7-0.6-2.7-0.6c-3,0-5.5,2.1-6.1,4.8c0,0,0,0,0,0c-3.7,0.5-6.6,3.7-6.6,7.6c0,0.1,0,0.1,0,0.2c-1.2,1.3-2,3-2,4.9h3.9
		h5.8h4.2h1.6h4.5h5.1h8.1h5.4h4.8h3.6h4.5C57.6,633.3,56,632.1,54.1,632.1z"/>
</g>
<g>
	<path class="st8" d="M-28.2,402.2c-3.7-3.8-8.4-6.6-13.6-8.2c-4-10-13.1-17.4-24-18.9c-1.4-0.2-2.7-0.3-4.1-0.3
		c-7.2,0-13.7,2.5-18.9,6.6c-1.3-7.4-7.8-13.1-15.7-13.1c-0.1,0-0.1,0-0.2,0c-1.5-13.2-12.7-23.4-26.3-23.4c-6.3,0-12,2.2-16.5,5.8
		c-6.3-10.3-17.7-17.1-30.7-17.1c-19.9,0-36,16.1-36,36c0,4.7,0.9,9.1,2.5,13.2c-2.8,2.9-4.5,6.8-4.5,11.1c0,1.1,0.1,2.2,0.3,3.2
		c-8.2,2.4-15.1,7.9-19.3,15.2c-2-0.6-4.1-1-6.2-1c-8.9,0-16.4,5.7-19.1,13.7h21.3h17h22.6h25.5h37.9h23.8h19.7h8.8h19.8h17.1h28.4
		C-18.8,416.2-22.4,408.1-28.2,402.2z"/>
</g>
<g class="st16">
	<g>
		<g>
			<g>
				<g>
					<g>
						<path class="st8" d="M-151.4,101.4l3.8,3.3c0.5,0.4,0.5,1.1,0.1,1.6c-0.4,0.5-1.1,0.5-1.6,0.1l-2.3-2l-2.3,2
							c-0.5,0.4-1.2,0.4-1.6-0.1c-0.4-0.5-0.4-1.2,0.1-1.6L-151.4,101.4z"/>
					</g>
				</g>
			</g>
		</g>
		<g>
			<path class="st8" d="M-146,276.8c0,3.6-2.9,6.5-6.5,6.5c-3.6,0-6.5-2.9-6.5-6.5c0-3.6,2.9-6.5,6.5-6.5
				C-148.9,270.3-146,273.2-146,276.8z"/>
		</g>
		<g>
			<path class="st8" d="M-8.7,148.5c0,3.6-2.9,6.5-6.5,6.5c-3.6,0-6.5-2.9-6.5-6.5s2.9-6.5,6.5-6.5C-11.6,141.9-8.7,144.9-8.7,148.5
				z"/>
		</g>
		<g>
			<path class="st8" d="M209.8,537.2c0,3.6-2.9,6.5-6.5,6.5c-3.6,0-6.5-2.9-6.5-6.5c0-3.6,2.9-6.5,6.5-6.5
				C206.9,530.7,209.8,533.6,209.8,537.2z"/>
		</g>
		<g>
			<g>
				<path class="st8" d="M365.8,580.9c-5.2,0-5.2,8.1,0,8.1C371,588.9,371,580.9,365.8,580.9L365.8,580.9z"/>
			</g>
		</g>
		<g>
			<g>
				<path class="st8" d="M159.3,119.7c-5.2,0-5.2,8.1,0,8.1C164.5,127.8,164.5,119.7,159.3,119.7L159.3,119.7z"/>
			</g>
		</g>
		<g>
			<g>
				<path class="st8" d="M88.2,246.5c-5.2,0-5.2,8.1,0,8.1C93.4,254.5,93.4,246.5,88.2,246.5L88.2,246.5z"/>
			</g>
		</g>
		<g>
			<g>
				<path class="st8" d="M-102.5,106.8c-5.2,0-5.2,8.1,0,8.1C-97.3,114.9-97.3,106.8-102.5,106.8L-102.5,106.8z"/>
			</g>
		</g>
		<g>
			<g>
				<path class="st8" d="M-107.8,353.9c-5.2,0-5.2,8.1,0,8.1C-102.6,361.9-102.6,353.9-107.8,353.9L-107.8,353.9z"/>
			</g>
		</g>
		<g>
			<g>
				<path class="st8" d="M41.1,312c-5.2,0-5.2,8.1,0,8.1C46.3,320,46.3,312,41.1,312L41.1,312z"/>
			</g>
		</g>
		<g>
			<g>
				<path class="st8" d="M345.6,184.2c-5.2,0-5.2,8.1,0,8.1C350.8,192.2,350.8,184.2,345.6,184.2L345.6,184.2z"/>
			</g>
		</g>
		<g>
			<g>
				<path class="st8" d="M-246.8,241.1c-5.2,0-5.2,8.1,0,8.1C-241.6,249.1-241.6,241.1-246.8,241.1L-246.8,241.1z"/>
			</g>
		</g>
		<g>
			<g>
				<path class="st8" d="M-82,246.4c-3.9,0-3.9,6,0,6C-78.1,252.4-78.1,246.4-82,246.4L-82,246.4z"/>
			</g>
		</g>
		<g>
			<g>
				<path class="st8" d="M61.3,140c-3.9,0-3.9,6,0,6C65.2,146.1,65.2,140,61.3,140L61.3,140z"/>
			</g>
		</g>
		<g>
			<g>
				<path class="st8" d="M87.1,160.5c-3.9,0-3.9,6,0,6C91,166.5,91,160.5,87.1,160.5L87.1,160.5z"/>
			</g>
		</g>
		<g>
			<g>
				<path class="st8" d="M-105.7,187.3c-3.9,0-3.9,6,0,6C-101.8,193.4-101.8,187.3-105.7,187.3L-105.7,187.3z"/>
			</g>
		</g>
		<g>
			<g>
				<path class="st8" d="M95.7,289.4c-3.9,0-3.9,6,0,6C99.6,295.4,99.6,289.4,95.7,289.4L95.7,289.4z"/>
			</g>
		</g>
		<g>
			<g>
				<path class="st8" d="M219.5,422.2c-3.9,0-3.9,6,0,6C223.4,428.2,223.4,422.2,219.5,422.2L219.5,422.2z"/>
			</g>
		</g>
		<g>
			<g>
				<path class="st8" d="M163.2,205c-3.9,0-3.9,6,0,6C167.1,211,167.1,205,163.2,205L163.2,205z"/>
			</g>
		</g>
		<g>
			<g>
				<path class="st8" d="M-188.6,313c-3.9,0-3.9,6,0,6C-184.7,319-184.7,313-188.6,313L-188.6,313z"/>
			</g>
		</g>
		<g>
			<g>
				<path class="st8" d="M-6.6,379.6c-3.9,0-3.9,6,0,6C-2.7,385.6-2.7,379.6-6.6,379.6L-6.6,379.6z"/>
			</g>
		</g>
		<g>
			<g>
				<path class="st8" d="M16,73.4c-2.6,0-2.6,4,0,4C18.6,77.4,18.6,73.4,16,73.4L16,73.4z"/>
			</g>
		</g>
		<g>
			<g>
				<path class="st8" d="M240.1,155c-2.6,0-2.6,4,0,4C242.7,159,242.7,155,240.1,155L240.1,155z"/>
			</g>
		</g>
		<g>
			<g>
				<path class="st8" d="M377.9,147.5c-2.6,0-2.6,4,0,4C380.5,151.5,380.5,147.5,377.9,147.5L377.9,147.5z"/>
			</g>
		</g>
		<g>
			<g>
				<path class="st8" d="M372.6,288.2c-2.6,0-2.6,4,0,4C375.2,292.2,375.2,288.2,372.6,288.2L372.6,288.2z"/>
			</g>
		</g>
		<g>
			<g>
				<path class="st8" d="M351,375.2c-2.6,0-2.6,4,0,4C353.6,379.3,353.6,375.2,351,375.2L351,375.2z"/>
			</g>
		</g>
		<g>
			<g>
				<path class="st8" d="M83.9,374.2c-2.6,0-2.6,4,0,4C86.5,378.2,86.5,374.2,83.9,374.2L83.9,374.2z"/>
			</g>
		</g>
		<g>
			<g>
				<path class="st8" d="M155,288.2c-2.6,0-2.6,4,0,4C157.6,292.2,157.6,288.2,155,288.2L155,288.2z"/>
			</g>
		</g>
		<g>
			<g>
				<path class="st8" d="M30,192.6c-2.6,0-2.6,4,0,4C32.6,196.6,32.6,192.6,30,192.6L30,192.6z"/>
			</g>
		</g>
		<g>
			<g>
				<path class="st8" d="M-62.6,107.8c-2.6,0-2.6,4,0,4C-60,111.8-60,107.8-62.6,107.8L-62.6,107.8z"/>
			</g>
		</g>
		<g>
			<g>
				<path class="st8" d="M-174.6,148.6c-2.6,0-2.6,4,0,4C-172,152.6-172,148.6-174.6,148.6L-174.6,148.6z"/>
			</g>
		</g>
		<g>
			<g>
				<path class="st8" d="M-148.8,137.8c-2.6,0-2.6,4,0,4C-146.2,141.9-146.2,137.8-148.8,137.8L-148.8,137.8z"/>
			</g>
		</g>
		<g>
			<g>
				<path class="st8" d="M-248.9,142.1c-2.6,0-2.6,4,0,4C-246.3,146.2-246.3,142.1-248.9,142.1L-248.9,142.1z"/>
			</g>
		</g>
		<g>
			<g>
				<path class="st8" d="M-216.6,247.4c-2.6,0-2.6,4,0,4C-214,251.4-214,247.4-216.6,247.4L-216.6,247.4z"/>
			</g>
		</g>
		<g>
			<g>
				<path class="st8" d="M-136.9,258.1c-2.6,0-2.6,4,0,4C-134.3,262.2-134.3,258.1-136.9,258.1L-136.9,258.1z"/>
			</g>
		</g>
		<g>
			<g>
				<path class="st8" d="M320.2,370.8c-3.9,0-3.9,6,0,6C324.1,376.9,324.1,370.8,320.2,370.8L320.2,370.8z"/>
			</g>
		</g>
		<g>
			<g>
				<path class="st8" d="M-204.8,322.6c-2.6,0-2.6,4,0,4C-202.2,326.6-202.2,322.6-204.8,322.6L-204.8,322.6z"/>
			</g>
		</g>
		<g>
			<path class="st8" d="M-146,459.7c0,3.6-2.9,6.5-6.5,6.5c-3.6,0-6.5-2.9-6.5-6.5c0-3.6,2.9-6.5,6.5-6.5
				C-148.9,453.2-146,456.1-146,459.7z"/>
		</g>
		<g>
			<g>
				<path class="st8" d="M88.2,429.3c-5.2,0-5.2,8.1,0,8.1C93.4,437.4,93.4,429.3,88.2,429.3L88.2,429.3z"/>
			</g>
		</g>
		<g>
			<g>
				<path class="st8" d="M-107.8,536.7c-5.2,0-5.2,8.1,0,8.1C-102.6,544.8-102.6,536.7-107.8,536.7L-107.8,536.7z"/>
			</g>
		</g>
		<g>
			<g>
				<path class="st8" d="M112.5,620.8c-5.2,0-5.2,8.1,0,8.1C117.7,628.8,117.7,620.8,112.5,620.8L112.5,620.8z"/>
			</g>
		</g>
		<g>
			<g>
				<path class="st8" d="M-82,429.3c-3.9,0-3.9,6,0,6C-78.1,435.3-78.1,429.3-82,429.3L-82,429.3z"/>
			</g>
		</g>
		<g>
			<g>
				<path class="st8" d="M-105.7,370.2c-3.9,0-3.9,6,0,6C-101.8,376.2-101.8,370.2-105.7,370.2L-105.7,370.2z"/>
			</g>
		</g>
		<g>
			<g>
				<path class="st8" d="M95.7,472.2c-3.9,0-3.9,6,0,6C99.6,478.3,99.6,472.2,95.7,472.2L95.7,472.2z"/>
			</g>
		</g>
		<g>
			<g>
				<path class="st8" d="M-93.3,468.4c-5.2,0-5.2,8.1,0,8.1C-88.1,476.5-88.1,468.4-93.3,468.4L-93.3,468.4z"/>
			</g>
		</g>
		<g>
			<g>
				<path class="st8" d="M-85.8,511.3c-3.9,0-3.9,6,0,6C-81.9,517.4-81.9,511.3-85.8,511.3L-85.8,511.3z"/>
			</g>
		</g>
		<g>
			<g>
				<path class="st8" d="M324.1,426c-3.9,0-3.9,6,0,6C328,432.1,328,426,324.1,426L324.1,426z"/>
			</g>
		</g>
		<g>
			<ellipse class="st8" cx="372.3" cy="469.7" rx="6.5" ry="6.5"/>
		</g>
		<g>
			<g>
				<path class="st8" d="M356.2,463c-5.2,0-5.2,8.1,0,8.1C361.4,471,361.5,463,356.2,463L356.2,463z"/>
			</g>
		</g>
		<g>
			<g>
				<path class="st8" d="M388.6,558.7c-3.9,0-3.9,6,0,6C392.5,564.8,392.5,558.7,388.6,558.7L388.6,558.7z"/>
			</g>
		</g>
		<g>
			<g>
				<path class="st8" d="M-188.6,495.9c-3.9,0-3.9,6,0,6C-184.7,501.9-184.7,495.9-188.6,495.9L-188.6,495.9z"/>
			</g>
		</g>
		<g>
			<g>
				<path class="st8" d="M-6.6,562.5c-3.9,0-3.9,6,0,6C-2.7,568.5-2.7,562.5-6.6,562.5L-6.6,562.5z"/>
			</g>
		</g>
		<g>
			<g>
				<path class="st8" d="M351,558.1c-2.6,0-2.6,4,0,4C353.6,562.1,353.6,558.1,351,558.1L351,558.1z"/>
			</g>
		</g>
		<g>
			<g>
				<path class="st8" d="M83.9,557c-2.6,0-2.6,4,0,4C86.5,561,86.5,557,83.9,557L83.9,557z"/>
			</g>
		</g>
		<g>
			<g>
				<path class="st8" d="M30,375.5c-2.6,0-2.6,4,0,4C32.6,379.5,32.6,375.5,30,375.5L30,375.5z"/>
			</g>
		</g>
		<g>
			<g>
				<path class="st8" d="M-216.6,430.3c-2.6,0-2.6,4,0,4C-214,434.3-214,430.3-216.6,430.3L-216.6,430.3z"/>
			</g>
		</g>
		<g>
			<g>
				<path class="st8" d="M-136.9,441c-2.6,0-2.6,4,0,4C-134.3,445-134.3,441-136.9,441L-136.9,441z"/>
			</g>
		</g>
		<g>
			<g>
				<path class="st8" d="M-204.8,505.5c-2.6,0-2.6,4,0,4C-202.2,509.5-202.2,505.5-204.8,505.5L-204.8,505.5z"/>
			</g>
		</g>
		<g>
			<g>
				<path class="st8" d="M-184.3,558.1c-2.6,0-2.6,4,0,4C-181.7,562.1-181.7,558.1-184.3,558.1L-184.3,558.1z"/>
			</g>
		</g>
		<g>
			<g>
				<path class="st8" d="M-108.9,46.5c-2.6,0-2.6,4,0,4C-106.3,50.6-106.3,46.5-108.9,46.5L-108.9,46.5z"/>
			</g>
		</g>
		<g>
			<g>
				<path class="st8" d="M361.8,94.9c-3.9,0-3.9,6,0,6C365.7,101,365.7,94.9,361.8,94.9L361.8,94.9z"/>
			</g>
		</g>
		<g>
			<g>
				<path class="st8" d="M333.5,120.7c-3.9,0-3.9,6,0,6C337.4,126.8,337.4,120.7,333.5,120.7L333.5,120.7z"/>
			</g>
		</g>
		<g>
			<g>
				<path class="st8" d="M124.8,85.3c-3.9,0-3.9,6,0,6C128.7,91.3,128.7,85.3,124.8,85.3L124.8,85.3z"/>
			</g>
		</g>
		<g>
			<g>
				<path class="st8" d="M-60.4,36.9c-3.9,0-3.9,6,0,6C-56.6,43-56.5,36.9-60.4,36.9L-60.4,36.9z"/>
			</g>
		</g>
		<g>
			<g>
				<path class="st8" d="M-51.8,76.7c-3.9,0-3.9,6,0,6C-47.9,82.7-47.9,76.7-51.8,76.7L-51.8,76.7z"/>
			</g>
		</g>
		<g>
			<g>
				<path class="st8" d="M-135.8,35.9c-3.9,0-3.9,6,0,6C-132,41.9-131.9,35.9-135.8,35.9L-135.8,35.9z"/>
			</g>
		</g>
		<g>
			<g>
				<path class="st8" d="M-209.1,21.9c-3.9,0-3.9,6,0,6C-205.2,27.9-205.2,21.9-209.1,21.9L-209.1,21.9z"/>
			</g>
		</g>
		<g>
			<g>
				<path class="st8" d="M-252.2,39.1c-3.9,0-3.9,6,0,6C-248.3,45.1-248.3,39.1-252.2,39.1L-252.2,39.1z"/>
			</g>
		</g>
		<g>
			<g>
				<path class="st8" d="M-228.5,64.9c-3.9,0-3.9,6,0,6C-224.6,70.9-224.6,64.9-228.5,64.9L-228.5,64.9z"/>
			</g>
		</g>
		<g>
			<g>
				<path class="st8" d="M-178.9,39c-2.6,0-2.6,4,0,4C-176.3,43-176.3,39-178.9,39L-178.9,39z"/>
			</g>
		</g>
		<g>
			<g>
				<path class="st8" d="M-120.8,14.3c-2.6,0-2.6,4,0,4C-118.2,18.3-118.2,14.3-120.8,14.3L-120.8,14.3z"/>
			</g>
		</g>
		<g>
			<g>
				<path class="st8" d="M-9.8,24c-2.6,0-2.6,4,0,4C-7.2,28-7.2,24-9.8,24L-9.8,24z"/>
			</g>
		</g>
		<g>
			<g>
				<path class="st8" d="M68.8,24c-2.6,0-2.6,4,0,4C71.4,28,71.4,24,68.8,24L68.8,24z"/>
			</g>
		</g>
		<g>
			<g>
				<path class="st8" d="M62.6,91.5c-2.6,0-2.6,4,0,4C65.2,95.5,65.2,91.5,62.6,91.5L62.6,91.5z"/>
			</g>
		</g>
		<g>
			<g>
				<path class="st8" d="M129.1,58.3c-2.6,0-2.6,4,0,4C131.7,62.4,131.7,58.3,129.1,58.3L129.1,58.3z"/>
			</g>
		</g>
		<g>
			<g>
				<path class="st8" d="M215.3,50.8c-2.6,0-2.6,4,0,4C217.9,54.9,217.9,50.8,215.3,50.8L215.3,50.8z"/>
			</g>
		</g>
		<g>
			<g>
				<path class="st8" d="M201.3,74.5c-2.6,0-2.6,4,0,4C203.9,78.5,203.9,74.5,201.3,74.5L201.3,74.5z"/>
			</g>
		</g>
		<g>
			<g>
				<path class="st8" d="M314.4,89.5c-2.6,0-2.6,4,0,4C317,93.5,317,89.5,314.4,89.5L314.4,89.5z"/>
			</g>
		</g>
	</g>
	<g>
		<g>
			<g>
				<g>
					<g>
						<path class="st8" d="M484.3,101.4l3.8,3.3c0.5,0.4,0.5,1.1,0.1,1.6c-0.4,0.5-1.1,0.5-1.6,0.1l-2.3-2l-2.3,2
							c-0.5,0.4-1.2,0.4-1.6-0.1c-0.4-0.5-0.4-1.2,0.1-1.6L484.3,101.4z"/>
					</g>
				</g>
			</g>
		</g>
		<g>
			<path class="st8" d="M489.8,276.8c0,3.6-2.9,6.5-6.5,6.5c-3.6,0-6.5-2.9-6.5-6.5c0-3.6,2.9-6.5,6.5-6.5
				C486.9,270.3,489.8,273.2,489.8,276.8z"/>
		</g>
		<g>
			<path class="st8" d="M627.1,148.5c0,3.6-2.9,6.5-6.5,6.5c-3.6,0-6.5-2.9-6.5-6.5s2.9-6.5,6.5-6.5
				C624.2,141.9,627.1,144.9,627.1,148.5z"/>
		</g>
		<g>
			<g>
				<path class="st8" d="M533.3,106.8c-5.2,0-5.2,8.1,0,8.1C538.5,114.9,538.5,106.8,533.3,106.8L533.3,106.8z"/>
			</g>
		</g>
		<g>
			<g>
				<path class="st8" d="M527.9,353.9c-5.2,0-5.2,8.1,0,8.1C533.1,361.9,533.1,353.9,527.9,353.9L527.9,353.9z"/>
			</g>
		</g>
		<g>
			<g>
				<path class="st8" d="M389,241.1c-5.2,0-5.2,8.1,0,8.1C394.2,249.1,394.2,241.1,389,241.1L389,241.1z"/>
			</g>
		</g>
		<g>
			<g>
				<path class="st8" d="M553.8,246.4c-3.9,0-3.9,6,0,6C557.7,252.4,557.7,246.4,553.8,246.4L553.8,246.4z"/>
			</g>
		</g>
		<g>
			<g>
				<path class="st8" d="M530.1,187.3c-3.9,0-3.9,6,0,6C534,193.4,534,187.3,530.1,187.3L530.1,187.3z"/>
			</g>
		</g>
		<g>
			<g>
				<path class="st8" d="M447.1,313c-3.9,0-3.9,6,0,6C451,319,451,313,447.1,313L447.1,313z"/>
			</g>
		</g>
		<g>
			<g>
				<path class="st8" d="M629.2,379.6c-3.9,0-3.9,6,0,6C633.1,385.6,633.1,379.6,629.2,379.6L629.2,379.6z"/>
			</g>
		</g>
		<g>
			<g>
				<path class="st8" d="M651.8,73.4c-2.6,0-2.6,4,0,4C654.4,77.4,654.4,73.4,651.8,73.4L651.8,73.4z"/>
			</g>
		</g>
		<g>
			<g>
				<path class="st8" d="M573.2,107.8c-2.6,0-2.6,4,0,4C575.8,111.8,575.8,107.8,573.2,107.8L573.2,107.8z"/>
			</g>
		</g>
		<g>
			<g>
				<path class="st8" d="M461.1,148.6c-2.6,0-2.6,4,0,4C463.7,152.6,463.7,148.6,461.1,148.6L461.1,148.6z"/>
			</g>
		</g>
		<g>
			<g>
				<path class="st8" d="M487,137.8c-2.6,0-2.6,4,0,4C489.6,141.9,489.6,137.8,487,137.8L487,137.8z"/>
			</g>
		</g>
		<g>
			<g>
				<path class="st8" d="M386.8,142.1c-2.6,0-2.6,4,0,4C389.4,146.2,389.4,142.1,386.8,142.1L386.8,142.1z"/>
			</g>
		</g>
		<g>
			<g>
				<path class="st8" d="M419.1,247.4c-2.6,0-2.6,4,0,4C421.7,251.4,421.7,247.4,419.1,247.4L419.1,247.4z"/>
			</g>
		</g>
		<g>
			<g>
				<path class="st8" d="M498.8,258.1c-2.6,0-2.6,4,0,4C501.4,262.2,501.4,258.1,498.8,258.1L498.8,258.1z"/>
			</g>
		</g>
		<g>
			<g>
				<path class="st8" d="M431,322.6c-2.6,0-2.6,4,0,4C433.6,326.6,433.6,322.6,431,322.6L431,322.6z"/>
			</g>
		</g>
		<g>
			<path class="st8" d="M489.8,459.7c0,3.6-2.9,6.5-6.5,6.5c-3.6,0-6.5-2.9-6.5-6.5c0-3.6,2.9-6.5,6.5-6.5
				C486.9,453.2,489.8,456.1,489.8,459.7z"/>
		</g>
		<g>
			<g>
				<path class="st8" d="M527.9,536.7c-5.2,0-5.2,8.1,0,8.1C533.1,544.8,533.1,536.7,527.9,536.7L527.9,536.7z"/>
			</g>
		</g>
		<g>
			<g>
				<path class="st8" d="M553.8,429.3c-3.9,0-3.9,6,0,6C557.7,435.3,557.7,429.3,553.8,429.3L553.8,429.3z"/>
			</g>
		</g>
		<g>
			<g>
				<path class="st8" d="M530.1,370.2c-3.9,0-3.9,6,0,6C534,376.2,534,370.2,530.1,370.2L530.1,370.2z"/>
			</g>
		</g>
		<g>
			<g>
				<path class="st8" d="M542.4,468.4c-5.2,0-5.2,8.1,0,8.1C547.6,476.5,547.6,468.4,542.4,468.4L542.4,468.4z"/>
			</g>
		</g>
		<g>
			<g>
				<path class="st8" d="M550,511.3c-3.9,0-3.9,6,0,6C553.9,517.4,553.9,511.3,550,511.3L550,511.3z"/>
			</g>
		</g>
		<g>
			<g>
				<path class="st8" d="M447.1,495.9c-3.9,0-3.9,6,0,6C451,501.9,451,495.9,447.1,495.9L447.1,495.9z"/>
			</g>
		</g>
		<g>
			<g>
				<path class="st8" d="M629.2,562.5c-3.9,0-3.9,6,0,6C633.1,568.5,633.1,562.5,629.2,562.5L629.2,562.5z"/>
			</g>
		</g>
		<g>
			<g>
				<path class="st8" d="M419.1,430.3c-2.6,0-2.6,4,0,4C421.7,434.3,421.7,430.3,419.1,430.3L419.1,430.3z"/>
			</g>
		</g>
		<g>
			<g>
				<path class="st8" d="M498.8,441c-2.6,0-2.6,4,0,4C501.4,445,501.4,441,498.8,441L498.8,441z"/>
			</g>
		</g>
		<g>
			<g>
				<path class="st8" d="M431,505.5c-2.6,0-2.6,4,0,4C433.6,509.5,433.6,505.5,431,505.5L431,505.5z"/>
			</g>
		</g>
		<g>
			<g>
				<path class="st8" d="M451.4,558.1c-2.6,0-2.6,4,0,4C454,562.1,454.1,558.1,451.4,558.1L451.4,558.1z"/>
			</g>
		</g>
		<g>
			<g>
				<path class="st8" d="M526.8,46.5c-2.6,0-2.6,4,0,4C529.4,50.6,529.5,46.5,526.8,46.5L526.8,46.5z"/>
			</g>
		</g>
		<g>
			<g>
				<path class="st8" d="M575.3,36.9c-3.9,0-3.9,6,0,6C579.2,43,579.2,36.9,575.3,36.9L575.3,36.9z"/>
			</g>
		</g>
		<g>
			<g>
				<path class="st8" d="M583.9,76.7c-3.9,0-3.9,6,0,6C587.8,82.7,587.8,76.7,583.9,76.7L583.9,76.7z"/>
			</g>
		</g>
		<g>
			<g>
				<path class="st8" d="M499.9,35.9c-3.9,0-3.9,6,0,6C503.8,41.9,503.8,35.9,499.9,35.9L499.9,35.9z"/>
			</g>
		</g>
		<g>
			<g>
				<path class="st8" d="M426.7,21.9c-3.9,0-3.9,6,0,6C430.6,27.9,430.6,21.9,426.7,21.9L426.7,21.9z"/>
			</g>
		</g>
		<g>
			<g>
				<path class="st8" d="M383.6,39.1c-3.9,0-3.9,6,0,6C387.5,45.1,387.5,39.1,383.6,39.1L383.6,39.1z"/>
			</g>
		</g>
		<g>
			<g>
				<path class="st8" d="M407.3,64.9c-3.9,0-3.9,6,0,6C411.2,70.9,411.2,64.9,407.3,64.9L407.3,64.9z"/>
			</g>
		</g>
		<g>
			<g>
				<path class="st8" d="M456.8,39c-2.6,0-2.6,4,0,4C459.4,43,459.4,39,456.8,39L456.8,39z"/>
			</g>
		</g>
		<g>
			<g>
				<path class="st8" d="M515,14.3c-2.6,0-2.6,4,0,4C517.6,18.3,517.6,14.3,515,14.3L515,14.3z"/>
			</g>
		</g>
		<g>
			<g>
				<path class="st8" d="M656.1,33.6L656.1,33.6c-2.6,0-2.6,4,0,4l0,0L656.1,33.6z"/>
			</g>
		</g>
		<g>
			<g>
				<path class="st8" d="M625.9,24c-2.6,0-2.6,4,0,4C628.5,28,628.5,24,625.9,24L625.9,24z"/>
			</g>
		</g>
	</g>
</g>
</svg>
