<?xml version="1.0" encoding="utf-8"?>
<!-- Generator: Adobe Illustrator 23.0.1, SVG Export Plug-In . SVG Version: 6.00 Build 0)  -->
<svg version="1.1" id="Livello_1" xmlns="http://www.w3.org/2000/svg" xmlns:xlink="http://www.w3.org/1999/xlink" x="0px" y="0px"
	 viewBox="0 0 450 800" style="enable-background:new 0 0 450 800;" xml:space="preserve">
<style type="text/css">
	.st0{fill:#8FBCDB;}
	.st1{fill:#BEE3F4;}
	.st2{fill:#68A0D2;}
	.st3{fill:#2F749B;}
	.st4{fill:#7F5D5D;}
	.st5{fill:#487C45;}
	.st6{fill:#FFFFFF;}
	.st7{opacity:0.63;}
	.st8{fill:#B2B2B2;}
	.st9{fill:#FF1C32;}
	.st10{fill:#B46100;}
	.st11{fill:#A64D00;}
	.st12{fill:#54B861;}
	.st13{fill:#6AD372;}
	.st14{fill:#54984D;}
	.st15{fill:#FFFF79;}
	.st16{opacity:0.1;}
	.st17{fill:#1A3E51;}
	.st18{fill:#FF3E2C;}
	.st19{fill:#2C88F7;}
</style>
<rect y="-0.5" class="st0" width="450" height="799.5"/>
<g id="Livello_5">
	<polygon class="st1" points="0,741 0,684 57.3,626 74,609 265,741 	"/>
</g>
<g id="Livello_6">
	<polygon class="st2" points="73,609 250,740 299,740 	"/>
</g>
<g id="Livello_3">
	<polygon class="st1" points="450,753 450,628.5 404,570 220,753 	"/>
</g>
<g id="Livello_4">
	<polygon class="st2" points="404,572 234,740 185,740 	"/>
</g>
<g id="Livello_2_1_">
	<rect y="740" class="st3" width="450" height="60"/>
</g>
<rect x="249.9" y="722.2" class="st4" width="5.6" height="17.4"/>
<path class="st5" d="M241.1,725.1c0,0,9.4-2.9,12-2.9s10.2,2.9,11.2,2.9s-11.2-24.6-11.2-24.6L241.1,725.1z"/>
<path class="st6" d="M216.8,643.6c-0.4-3.8-3.7-6.7-7.6-6.7c-2.8,0-5.3,1.5-6.6,3.8c0,0,0,0-0.1,0c-2.8,0-5.2,2-5.6,4.7h-0.1
	c-1.9,0-3.4,1.5-3.4,3.4s1.5,3.4,3.4,3.4c0.2,0,0.5,0,0.7-0.1h4.7c0.1,0,0.2,0,0.3,0s0.2,0,0.3,0h12.7l0,0h0.1
	c2.4,0,4.3-1.9,4.3-4.3C220,645.8,218.6,644.1,216.8,643.6z"/>
<path class="st6" d="M255.3,638c-0.5-4-3.8-7-7.9-7c-2.9,0-5.5,1.6-6.9,4h-0.1c-2.9,0-5.4,2.1-5.9,4.9h-0.1c-2,0-3.6,1.6-3.6,3.6
	s1.6,3.6,3.6,3.6c0.3,0,0.5,0,0.8-0.1h4.9c0.1,0,0.2,0,0.3,0s0.2,0,0.3,0H254l0,0h0.1c2.5,0,4.5-2,4.5-4.5
	C258.6,640.3,257.2,638.5,255.3,638z"/>
<polygon class="st6" points="61.7,634.2 68.6,627.4 76.6,634.2 86,627.4 99.1,635 100.1,629 108,629.4 74,609 46.5,636.9 "/>
<polyline class="st6" points="404,570 371.7,596.8 382.2,594 388.3,601.9 400.3,596.2 408.7,603.6 412,591.6 438,613.3 "/>
<g class="st7">
	<path class="st6" d="M76.2,377.2c0-0.4-0.4-0.8-0.8-0.8c-0.4,0-0.8,0.4-0.8,0.8c0,0.4,0.4,0.8,0.8,0.8
		C75.9,378,76.2,377.6,76.2,377.2z"/>
	<path class="st6" d="M355.7,141.7c0-0.8-0.6-1.4-1.4-1.4s-1.4,0.6-1.4,1.4c0,0.8,0.6,1.4,1.4,1.4S355.7,142.5,355.7,141.7z"/>
	<path class="st6" d="M131.2,108c0-0.8-0.6-1.4-1.4-1.4c-0.8,0-1.4,0.6-1.4,1.4c0,0.8,0.6,1.4,1.4,1.4
		C130.6,109.5,131.2,108.8,131.2,108z"/>
	<path class="st6" d="M77.7,545.9c0-1.8-1.4-3.2-3.2-3.2c-1.8,0-3.2,1.4-3.2,3.2c0,1.8,1.4,3.2,3.2,3.2
		C76.3,549,77.7,547.6,77.7,545.9z"/>
	<path class="st6" d="M262,653.3c0-0.7-0.5-1.2-1.2-1.2c-0.7,0-1.2,0.5-1.2,1.2s0.5,1.2,1.2,1.2C261.5,654.5,262,654,262,653.3z"/>
	<path class="st6" d="M340.8,65.7c0-0.4-0.3-0.7-0.7-0.7c-0.4,0-0.7,0.3-0.7,0.7c0,0.4,0.3,0.7,0.7,0.7
		C340.5,66.4,340.8,66.1,340.8,65.7z"/>
	<path class="st6" d="M380.8,481.2c0-1.8-1.4-3.2-3.2-3.2c-1.8,0-3.2,1.4-3.2,3.2s1.4,3.2,3.2,3.2
		C379.3,484.5,380.8,483,380.8,481.2z"/>
	<path class="st6" d="M33,749.9c0-2.3-1.9-4.2-4.2-4.2s-4.2,1.9-4.2,4.2c0,2.3,1.9,4.2,4.2,4.2S33,752.2,33,749.9z"/>
	<path class="st6" d="M440.6,296.5c0-1-0.8-1.8-1.8-1.8c-1,0-1.8,0.8-1.8,1.8c0,1,0.8,1.8,1.8,1.8
		C439.8,298.3,440.6,297.5,440.6,296.5z"/>
	<path class="st6" d="M432.9,281.1c0-0.5-0.4-0.9-0.9-0.9c-0.5,0-0.9,0.4-0.9,0.9c0,0.5,0.4,0.9,0.9,0.9
		C432.5,282,432.9,281.6,432.9,281.1z"/>
	<path class="st6" d="M33.1,265.2c0-1.1-0.9-2-2-2c-1.1,0-2,0.9-2,2c0,1.1,0.9,2,2,2C32.2,267.2,33.1,266.3,33.1,265.2z"/>
	<path class="st6" d="M163.8,45.8c0-0.9-0.7-1.6-1.6-1.6c-0.9,0-1.6,0.7-1.6,1.6c0,0.9,0.7,1.6,1.6,1.6
		C163.1,47.4,163.8,46.7,163.8,45.8z"/>
	<path class="st6" d="M83.1,654.8c0-1.9-1.5-3.4-3.4-3.4c-1.9,0-3.4,1.5-3.4,3.4c0,1.9,1.5,3.4,3.4,3.4
		C81.6,658.2,83.1,656.7,83.1,654.8z"/>
	<path class="st6" d="M333.1,579.4c0-0.3-0.2-0.5-0.5-0.5c-0.3,0-0.5,0.2-0.5,0.5c0,0.3,0.2,0.5,0.5,0.5
		C332.9,579.9,333.1,579.7,333.1,579.4z"/>
	<path class="st6" d="M318,544.1c0-0.9-0.7-1.5-1.5-1.5c-0.8,0-1.5,0.7-1.5,1.5c0,0.8,0.7,1.5,1.5,1.5
		C317.4,545.6,318,544.9,318,544.1z"/>
	<path class="st6" d="M371.8,74c0-0.8-0.7-1.5-1.5-1.5c-0.8,0-1.5,0.7-1.5,1.5c0,0.8,0.7,1.5,1.5,1.5
		C371.2,75.5,371.8,74.8,371.8,74z"/>
	<path class="st6" d="M312.1,142.3c0-0.8-0.6-1.4-1.4-1.4c-0.8,0-1.4,0.6-1.4,1.4c0,0.8,0.6,1.4,1.4,1.4
		C311.5,143.7,312.1,143.1,312.1,142.3z"/>
	<path class="st6" d="M69.9,123.7c0-1-0.8-1.8-1.8-1.8c-1,0-1.8,0.8-1.8,1.8c0,1,0.8,1.8,1.8,1.8C69.1,125.5,69.9,124.7,69.9,123.7z
		"/>
	<path class="st6" d="M347,13.6c0-0.5-0.4-0.9-0.9-0.9c-0.5,0-0.9,0.4-0.9,0.9c0,0.5,0.4,0.9,0.9,0.9C346.6,14.5,347,14.1,347,13.6z
		"/>
	<path class="st6" d="M281.2,37.8c0-0.4-0.4-0.8-0.8-0.8c-0.4,0-0.8,0.4-0.8,0.8c0,0.4,0.4,0.8,0.8,0.8
		C280.8,38.6,281.2,38.3,281.2,37.8z"/>
	<path class="st6" d="M4.7,550.5c0-1-0.8-1.8-1.8-1.8c-1,0-1.8,0.8-1.8,1.8s0.8,1.8,1.8,1.8C3.9,552.3,4.7,551.5,4.7,550.5z"/>
	<path class="st6" d="M164.3,288.4c0-2.3-1.9-4.2-4.2-4.2c-2.3,0-4.2,1.9-4.2,4.2c0,2.3,1.9,4.2,4.2,4.2
		C162.4,292.6,164.3,290.7,164.3,288.4z"/>
	<path class="st6" d="M74.5,428.3c0-1-0.8-1.8-1.7-1.8c-1,0-1.7,0.8-1.7,1.8c0,1,0.8,1.7,1.7,1.7C73.7,430,74.5,429.3,74.5,428.3z"
		/>
	<path class="st6" d="M342.3,380c0-0.5-0.4-1-1-1c-0.5,0-1,0.4-1,1c0,0.5,0.4,1,1,1C341.8,381,342.3,380.6,342.3,380z"/>
	<path class="st6" d="M450.9,472.3c0-0.8-0.7-1.5-1.5-1.5c-0.8,0-1.5,0.7-1.5,1.5c0,0.8,0.7,1.5,1.5,1.5
		C450.3,473.7,450.9,473.1,450.9,472.3z"/>
	<path class="st6" d="M213.1,449.4c0-0.7-0.5-1.2-1.2-1.2c-0.7,0-1.2,0.5-1.2,1.2c0,0.7,0.5,1.2,1.2,1.2
		C212.6,450.6,213.1,450.1,213.1,449.4z"/>
	<path class="st6" d="M191.6,34.7c0-0.7-0.6-1.3-1.3-1.3c-0.7,0-1.3,0.6-1.3,1.3c0,0.7,0.6,1.3,1.3,1.3
		C191,36,191.6,35.4,191.6,34.7z"/>
	<path class="st6" d="M435.8,314.7c0-1.2-1-2.2-2.1-2.2c-1.2,0-2.1,1-2.1,2.2c0,1.2,1,2.1,2.1,2.1
		C434.9,316.9,435.8,315.9,435.8,314.7z"/>
	<path class="st6" d="M105.4,218.2c0-0.4-0.3-0.7-0.7-0.7c-0.4,0-0.7,0.3-0.7,0.7c0,0.4,0.3,0.7,0.7,0.7
		C105.1,219,105.4,218.6,105.4,218.2z"/>
	<path class="st6" d="M448.3,716.5c0-1.7-1.4-3.1-3-3.1c-1.7,0-3.1,1.4-3.1,3.1c0,1.7,1.4,3.1,3.1,3.1
		C446.9,719.6,448.3,718.2,448.3,716.5z"/>
	<path class="st6" d="M235.5,326.5c0-1.8-1.4-3.2-3.2-3.2c-1.8,0-3.2,1.4-3.2,3.2c0,1.8,1.5,3.2,3.2,3.2
		C234,329.7,235.5,328.3,235.5,326.5z"/>
	<path class="st6" d="M308.5,392.2c0-0.4-0.4-0.8-0.8-0.8c-0.4,0-0.8,0.4-0.8,0.8c0,0.5,0.4,0.8,0.8,0.8
		C308.1,393.1,308.5,392.7,308.5,392.2z"/>
	<path class="st6" d="M151.1,673.3c0-0.5-0.4-0.9-0.9-0.9c-0.5,0-0.9,0.4-0.9,0.9c0,0.5,0.4,0.9,0.9,0.9
		C150.7,674.2,151.1,673.8,151.1,673.3z"/>
	<path class="st6" d="M340.5,428.6c0-0.5-0.4-1-1-1c-0.5,0-1,0.4-1,1c0,0.5,0.4,1,1,1C340.1,429.5,340.5,429.1,340.5,428.6z"/>
	<path class="st6" d="M169.1,230.3c0-1.1-0.9-1.9-1.9-1.9c-1.1,0-1.9,0.9-1.9,1.9c0,1.1,0.9,1.9,1.9,1.9
		C168.3,232.3,169.1,231.4,169.1,230.3z"/>
	<path class="st6" d="M358.3,653c0-0.6-0.5-1.1-1.1-1.1c-0.6,0-1.1,0.5-1.1,1.1c0,0.6,0.5,1.1,1.1,1.1
		C357.8,654.1,358.3,653.6,358.3,653z"/>
	<path class="st6" d="M36.5,219.1c0-0.6-0.5-1-1-1c-0.6,0-1,0.5-1,1c0,0.6,0.5,1,1,1C36.1,220.1,36.5,219.6,36.5,219.1z"/>
	<path class="st6" d="M115.4,271.7c0-0.9-0.7-1.6-1.6-1.6c-0.9,0-1.6,0.7-1.6,1.6c0,0.9,0.7,1.6,1.6,1.6
		C114.7,273.3,115.4,272.6,115.4,271.7z"/>
	<path class="st6" d="M128.6,297.9c0-0.8-0.7-1.5-1.5-1.5c-0.8,0-1.5,0.7-1.5,1.5c0,0.8,0.7,1.5,1.5,1.5
		C127.9,299.4,128.6,298.7,128.6,297.9z"/>
	<path class="st6" d="M37.2,122.6c0-0.6-0.5-1.1-1.1-1.1c-0.6,0-1.1,0.5-1.1,1.1c0,0.6,0.5,1.1,1.1,1.1
		C36.7,123.6,37.2,123.2,37.2,122.6z"/>
	<path class="st6" d="M176,646c0-1-0.8-1.9-1.9-1.9s-1.9,0.8-1.9,1.9c0,1,0.8,1.9,1.9,1.9S176,647.1,176,646z"/>
	<path class="st6" d="M196,550.8c0-1.1-0.9-2-2-2c-1.1,0-2,0.9-2,2c0,1.1,0.9,2,2,2C195.1,552.8,196,551.9,196,550.8z"/>
	<path class="st6" d="M416.6,423.1c0-1.4-1.1-2.5-2.5-2.5c-1.4,0-2.5,1.1-2.5,2.5c0,1.4,1.1,2.5,2.5,2.5
		C415.5,425.6,416.6,424.4,416.6,423.1z"/>
	<path class="st6" d="M435.9,569.8c0-1.1-0.9-1.9-1.9-1.9s-1.9,0.9-1.9,1.9c0,1.1,0.9,1.9,1.9,1.9S435.9,570.9,435.9,569.8z"/>
	<path class="st6" d="M388.9,270.1c0-1.3-1-2.3-2.3-2.3c-1.3,0-2.3,1-2.3,2.3c0,1.3,1,2.3,2.3,2.3
		C387.9,272.5,388.9,271.4,388.9,270.1z"/>
	<ellipse class="st6" cx="18.8" cy="99.2" rx="2.9" ry="2.9"/>
	<path class="st6" d="M141.9,476.5c0-1.6-1.3-2.9-2.9-2.9c-1.6,0-2.9,1.3-2.9,2.9c0,1.6,1.3,2.9,2.9,2.9
		C140.6,479.4,141.9,478.1,141.9,476.5z"/>
	<path class="st6" d="M262.3,355.3c0-0.9-0.7-1.7-1.7-1.7s-1.7,0.7-1.7,1.7c0,0.9,0.7,1.7,1.7,1.7S262.3,356.2,262.3,355.3z"/>
	<path class="st6" d="M429.6,636.6c0-1-0.8-1.7-1.7-1.7c-1,0-1.7,0.8-1.7,1.7c0,1,0.8,1.8,1.7,1.8
		C428.9,638.4,429.6,637.6,429.6,636.6z"/>
	<path class="st6" d="M414.6,712.1c0-1.3-1.1-2.4-2.3-2.4c-1.3,0-2.4,1-2.4,2.4s1,2.4,2.4,2.4C413.6,714.5,414.6,713.4,414.6,712.1z
		"/>
	<path class="st6" d="M437.2,183.7c0-1.3-1-2.4-2.3-2.4c-1.3,0-2.4,1.1-2.4,2.4s1,2.4,2.4,2.4C436.1,186.1,437.2,185,437.2,183.7z"
		/>
	<ellipse class="st6" cx="68.1" cy="201" rx="1.9" ry="1.9"/>
	<path class="st6" d="M195.4,550.5c0-1.9-1.5-3.4-3.4-3.4c-1.9,0-3.4,1.5-3.4,3.4c0,1.9,1.5,3.4,3.4,3.4
		C193.9,554,195.4,552.4,195.4,550.5z"/>
	<path class="st6" d="M123.6,536c0-0.6-0.5-1.1-1.1-1.1c-0.6,0-1.1,0.5-1.1,1.1c0,0.6,0.5,1.1,1.1,1.1
		C123.1,537.1,123.6,536.6,123.6,536z"/>
	<path class="st6" d="M100.1,755.8c0-0.8-0.6-1.4-1.4-1.4c-0.8,0-1.4,0.6-1.4,1.4c0,0.8,0.6,1.4,1.4,1.4
		C99.4,757.2,100.1,756.6,100.1,755.8z"/>
	<path class="st6" d="M316.5,734.8c0-0.6-0.5-1.1-1.1-1.1s-1.1,0.5-1.1,1.1c0,0.6,0.5,1.1,1.1,1.1S316.5,735.4,316.5,734.8z"/>
	<path class="st6" d="M18.8,674.3c0-0.8-0.7-1.5-1.5-1.5c-0.8,0-1.5,0.7-1.5,1.5c0,0.8,0.7,1.5,1.5,1.5
		C18.2,675.8,18.8,675.1,18.8,674.3z"/>
	<path class="st6" d="M304.1,419.2c0-0.5-0.4-1-1-1c-0.5,0-1,0.4-1,1s0.4,1,1,1C303.6,420.2,304.1,419.8,304.1,419.2z"/>
	<path class="st6" d="M241.6,446.7c0-0.4-0.3-0.8-0.8-0.8c-0.4,0-0.8,0.3-0.8,0.8c0,0.4,0.3,0.8,0.8,0.8
		C241.3,447.5,241.6,447.1,241.6,446.7z"/>
	<path class="st6" d="M429.8,699.7c0-0.8-0.7-1.5-1.5-1.5c-0.8,0-1.5,0.7-1.5,1.5c0,0.8,0.7,1.5,1.5,1.5
		C429.1,701.3,429.8,700.6,429.8,699.7z"/>
	<path class="st6" d="M441.1,438.7c0-0.8-0.6-1.4-1.4-1.4c-0.8,0-1.4,0.6-1.4,1.4c0,0.8,0.6,1.4,1.4,1.4
		C440.5,440.1,441.1,439.5,441.1,438.7z"/>
	<path class="st6" d="M232,6.9c0-1.7-1.4-3-3-3s-3,1.4-3,3s1.4,3,3,3S232,8.6,232,6.9z"/>
	<path class="st6" d="M47.1,688.6c0-1.4-1.1-2.5-2.5-2.5c-1.4,0-2.5,1.1-2.5,2.5c0,1.4,1.1,2.5,2.5,2.5
		C46,691,47.1,689.9,47.1,688.6z"/>
	<path class="st6" d="M27.1,491.4c0-1.1-0.9-1.9-1.9-1.9c-1.1,0-1.9,0.9-1.9,1.9c0,1.1,0.9,1.9,1.9,1.9
		C26.3,493.3,27.1,492.4,27.1,491.4z"/>
	<path class="st6" d="M358.3,533.6c0-1.1-0.9-2-2-2c-1.1,0-2,0.9-2,2c0,1.1,0.9,2,2,2C357.4,535.6,358.3,534.7,358.3,533.6z"/>
	<path class="st6" d="M425,557.9c0-0.3-0.3-0.6-0.6-0.6c-0.3,0-0.6,0.3-0.6,0.6c0,0.3,0.3,0.6,0.6,0.6
		C424.8,558.5,425,558.3,425,557.9z"/>
	<path class="st6" d="M373.1,607.1c0-0.9-0.7-1.7-1.7-1.7c-0.9,0-1.7,0.7-1.7,1.7s0.7,1.7,1.7,1.7
		C372.4,608.7,373.1,608,373.1,607.1z"/>
	<path class="st6" d="M130.2,620.8c0-1.3-1.1-2.4-2.4-2.4c-1.3,0-2.4,1.1-2.4,2.4c0,1.3,1.1,2.4,2.4,2.4
		C129.1,623.2,130.2,622.2,130.2,620.8z"/>
	<path class="st6" d="M384,77c0-0.8-0.6-1.4-1.4-1.4c-0.8,0-1.4,0.6-1.4,1.4c0,0.8,0.6,1.4,1.4,1.4C383.4,78.4,384,77.8,384,77z"/>
	<path class="st6" d="M348.8,220.2c0-0.6-0.5-1.1-1.1-1.1c-0.6,0-1.1,0.5-1.1,1.1c0,0.6,0.5,1.1,1.1,1.1
		C348.2,221.3,348.8,220.8,348.8,220.2z"/>
	<path class="st6" d="M52.3,530.2c0-0.6-0.5-1.1-1.1-1.1c-0.6,0-1.1,0.5-1.1,1.1c0,0.6,0.5,1.1,1.1,1.1
		C51.8,531.3,52.3,530.8,52.3,530.2z"/>
	<path class="st6" d="M433,359.2c0-1.9-1.5-3.4-3.3-3.4c-1.8,0-3.3,1.5-3.3,3.4c0,1.8,1.5,3.3,3.3,3.3
		C431.5,362.6,433,361.1,433,359.2z"/>
	<path class="st6" d="M163.3,377.3c0-1.8-1.4-3.3-3.2-3.3c-1.8,0-3.3,1.5-3.3,3.3c0,1.8,1.5,3.3,3.3,3.3
		C161.9,380.6,163.3,379.1,163.3,377.3z"/>
	<path class="st6" d="M339.3,260.5c0-0.8-0.6-1.4-1.4-1.4c-0.8,0-1.4,0.7-1.4,1.4c0,0.8,0.6,1.4,1.4,1.4
		C338.7,262,339.3,261.3,339.3,260.5z"/>
	<path class="st6" d="M339.8,724c0-0.7-0.6-1.3-1.3-1.3c-0.7,0-1.3,0.6-1.3,1.3c0,0.7,0.6,1.3,1.3,1.3
		C339.2,725.4,339.8,724.8,339.8,724z"/>
	<path class="st6" d="M338.5,139.5c0-1.5-1.2-2.7-2.7-2.7c-1.5,0-2.7,1.2-2.7,2.7c0,1.5,1.2,2.7,2.7,2.7
		C337.3,142.2,338.5,141,338.5,139.5z"/>
	<path class="st6" d="M88.4,157.4c0-0.7-0.6-1.3-1.3-1.3c-0.7,0-1.3,0.6-1.3,1.3s0.6,1.3,1.3,1.3C87.8,158.7,88.4,158.1,88.4,157.4z
		"/>
	<ellipse class="st6" cx="320.7" cy="791.1" rx="3.5" ry="3.5"/>
	<path class="st6" d="M415.3,203.8c0-0.9-0.7-1.6-1.6-1.6c-0.9,0-1.6,0.7-1.6,1.6c0,0.9,0.7,1.6,1.6,1.6
		C414.5,205.4,415.3,204.7,415.3,203.8z"/>
	<path class="st6" d="M263.5,212.9c0-0.4-0.3-0.7-0.7-0.7c-0.4,0-0.7,0.3-0.7,0.7c0,0.4,0.3,0.7,0.7,0.7
		C263.2,213.6,263.5,213.3,263.5,212.9z"/>
	<path class="st6" d="M329.5,650.1c0-0.9-0.7-1.6-1.6-1.6c-0.9,0-1.6,0.7-1.6,1.6c0,0.9,0.7,1.6,1.6,1.6
		C328.7,651.8,329.5,651,329.5,650.1z"/>
	<path class="st6" d="M401.7,367.9c0-1.8-1.5-3.3-3.3-3.3c-1.8,0-3.3,1.5-3.3,3.3c0,1.8,1.5,3.3,3.3,3.3
		C400.2,371.3,401.7,369.8,401.7,367.9z"/>
	<path class="st6" d="M27.5,671.4c0-2.3-1.9-4.2-4.2-4.2c-2.3,0-4.2,1.9-4.2,4.2c0,2.3,1.9,4.2,4.2,4.2
		C25.6,675.6,27.5,673.7,27.5,671.4z"/>
	<path class="st6" d="M187.9,465.2c0-0.4-0.3-0.8-0.7-0.8c-0.4,0-0.7,0.3-0.7,0.8s0.3,0.8,0.7,0.8
		C187.6,465.9,187.9,465.6,187.9,465.2z"/>
	<ellipse class="st6" cx="333.3" cy="162.3" rx="2" ry="2"/>
	<path class="st6" d="M64.7,780.2c0-1.3-1.1-2.4-2.4-2.4c-1.3,0-2.4,1.1-2.4,2.4c0,1.3,1.1,2.4,2.4,2.4
		C63.7,782.6,64.7,781.5,64.7,780.2z"/>
	<path class="st6" d="M216.2,458.6c0-1.9-1.5-3.4-3.4-3.4c-1.9,0-3.4,1.5-3.4,3.4c0,1.9,1.5,3.4,3.4,3.4
		C214.7,462,216.2,460.5,216.2,458.6z"/>
	<path class="st6" d="M357.1,306.8c0-1.1-0.9-2-2-2c-1.1,0-2,0.9-2,2c0,1.1,0.9,2,2,2C356.2,308.8,357.1,307.9,357.1,306.8z"/>
	<ellipse class="st6" cx="159.8" cy="293.8" rx="1.5" ry="1.5"/>
	<path class="st6" d="M269,510.2c0-0.8-0.7-1.5-1.5-1.5c-0.8,0-1.5,0.7-1.5,1.5c0,0.8,0.7,1.5,1.5,1.5
		C268.3,511.6,269,511,269,510.2z"/>
	<path class="st6" d="M211.6,399.9c0-1.6-1.3-2.8-2.8-2.8c-1.6,0-2.8,1.3-2.8,2.8c0,1.6,1.3,2.8,2.8,2.8
		C210.3,402.7,211.6,401.4,211.6,399.9z"/>
	<path class="st6" d="M86.4,283.5c0-1-0.8-1.9-1.8-1.9c-1,0-1.8,0.8-1.8,1.9c0,1,0.8,1.9,1.8,1.9C85.5,285.3,86.4,284.5,86.4,283.5z
		"/>
	<path class="st6" d="M61.2,741.8c0-1.5-1.2-2.7-2.7-2.7s-2.7,1.2-2.7,2.7c0,1.5,1.2,2.7,2.7,2.7S61.2,743.3,61.2,741.8z"/>
	<path class="st6" d="M177.5,434.6c0-2.2-1.8-4-4-4c-2.2,0-4,1.8-4,4c0,2.2,1.8,4,4,4C175.7,438.5,177.5,436.8,177.5,434.6z"/>
	<path class="st6" d="M271.7,130.1c0-1.7-1.4-3.1-3.1-3.1c-1.7,0-3.1,1.4-3.1,3.1c0,1.7,1.4,3.1,3.1,3.1
		C270.3,133.2,271.7,131.8,271.7,130.1z"/>
	<path class="st6" d="M406.5,455.9c0-1.5-1.2-2.7-2.7-2.7c-1.5,0-2.7,1.2-2.7,2.7c0,1.5,1.2,2.7,2.7,2.7
		C405.3,458.6,406.5,457.4,406.5,455.9z"/>
	<path class="st6" d="M110.5,659.9c0-3.2-2.6-5.7-5.7-5.7c-3.2,0-5.7,2.6-5.7,5.7c0,3.2,2.5,5.7,5.7,5.7
		C107.9,665.6,110.5,663.1,110.5,659.9z"/>
	<path class="st6" d="M5.6,371.3c0-1.6-1.3-2.9-2.9-2.9c-1.6,0-2.9,1.3-2.9,2.9c0,1.6,1.3,2.9,2.9,2.9
		C4.4,374.2,5.6,372.9,5.6,371.3z"/>
	<path class="st6" d="M126.9,498.4c0-2.1-1.7-3.7-3.7-3.7c-2,0-3.7,1.7-3.7,3.7c0,2,1.7,3.7,3.7,3.7
		C125.3,502.1,126.9,500.4,126.9,498.4z"/>
	<path class="st6" d="M250.4,540.9c0-0.4-0.3-0.7-0.7-0.7c-0.4,0-0.7,0.3-0.7,0.7s0.3,0.7,0.7,0.7
		C250.1,541.6,250.4,541.3,250.4,540.9z"/>
	<path class="st6" d="M315.8,612.1c0-1.5-1.2-2.8-2.7-2.8s-2.8,1.2-2.8,2.8c0,1.5,1.2,2.8,2.8,2.8S315.8,613.7,315.8,612.1z"/>
	<path class="st6" d="M142.9,45.5c0-0.6-0.5-1.2-1.2-1.2c-0.6,0-1.2,0.5-1.2,1.2c0,0.6,0.5,1.2,1.2,1.2
		C142.4,46.6,142.9,46.1,142.9,45.5z"/>
	<path class="st6" d="M412.7,348.3c0-0.7-0.6-1.4-1.3-1.4s-1.4,0.6-1.4,1.4c0,0.7,0.6,1.4,1.4,1.4S412.7,349.1,412.7,348.3z"/>
	<path class="st6" d="M111,451c0-0.3-0.2-0.5-0.5-0.5c-0.3,0-0.5,0.2-0.5,0.5c0,0.3,0.2,0.5,0.5,0.5C110.7,451.5,111,451.3,111,451z
		"/>
	<path class="st6" d="M20.6,301.9c0-0.5-0.4-0.9-0.9-0.9s-0.9,0.4-0.9,0.9c0,0.5,0.4,0.9,0.9,0.9S20.6,302.4,20.6,301.9z"/>
	<path class="st6" d="M36.3,237.7c0-0.6-0.5-1.1-1.1-1.1c-0.6,0-1.1,0.5-1.1,1.1c0,0.6,0.5,1.1,1.1,1.1
		C35.9,238.8,36.3,238.3,36.3,237.7z"/>
	<path class="st6" d="M94,365.2c0-0.7-0.6-1.3-1.3-1.3c-0.7,0-1.3,0.6-1.3,1.3c0,0.7,0.6,1.3,1.3,1.3C93.4,366.5,94,365.9,94,365.2z
		"/>
	<path class="st6" d="M452.4,187.9c0-1.2-0.9-2.1-2.1-2.1c-1.2,0-2.1,0.9-2.1,2.1c0,1.2,0.9,2.1,2.1,2.1
		C451.5,190,452.4,189,452.4,187.9z"/>
	<path class="st6" d="M179.2,93.4c0-0.7-0.5-1.2-1.2-1.2c-0.7,0-1.2,0.5-1.2,1.2c0,0.7,0.5,1.2,1.2,1.2
		C178.6,94.6,179.2,94,179.2,93.4z"/>
	<circle class="st6" cx="102.4" cy="610.7" r="1.8"/>
	<path class="st6" d="M249.3,321c0-0.5-0.4-0.9-0.9-0.9c-0.5,0-0.9,0.4-0.9,0.9s0.4,0.9,0.9,0.9C248.9,321.9,249.3,321.5,249.3,321z
		"/>
	<path class="st6" d="M322.8,51.5c0-1.5-1.2-2.6-2.6-2.6c-1.5,0-2.6,1.2-2.6,2.6c0,1.5,1.2,2.6,2.6,2.6
		C321.6,54.2,322.8,53,322.8,51.5z"/>
	<path class="st6" d="M119.1,304.2c0-0.8-0.7-1.5-1.5-1.5c-0.8,0-1.5,0.7-1.5,1.5c0,0.9,0.7,1.5,1.5,1.5
		C118.4,305.8,119.1,305.1,119.1,304.2z"/>
	<path class="st6" d="M182.1,737.5c0-0.8-0.6-1.4-1.4-1.4c-0.8,0-1.4,0.6-1.4,1.4c0,0.8,0.6,1.4,1.4,1.4
		C181.5,738.9,182.1,738.3,182.1,737.5z"/>
	<path class="st6" d="M302.2,544.2c0-1.6-1.3-2.9-2.9-2.9c-1.6,0-2.9,1.3-2.9,2.9c0,1.6,1.3,2.9,2.9,2.9
		C300.9,547.1,302.2,545.8,302.2,544.2z"/>
	<path class="st6" d="M430.8,679.5c0-0.8-0.6-1.4-1.4-1.4c-0.8,0-1.4,0.6-1.4,1.4c0,0.8,0.6,1.4,1.4,1.4
		C430.2,680.8,430.8,680.2,430.8,679.5z"/>
	<path class="st6" d="M122.3,602.3c0-0.9-0.8-1.7-1.7-1.7c-0.9,0-1.7,0.8-1.7,1.7c0,1,0.8,1.7,1.7,1.7
		C121.6,604,122.3,603.2,122.3,602.3z"/>
	<path class="st6" d="M45.9,143.8c0-1.6-1.3-3-3-3c-1.6,0-3,1.3-3,3c0,1.7,1.3,3,3,3C44.5,146.8,45.9,145.5,45.9,143.8z"/>
	<path class="st6" d="M67.4,147.3c0-1.4-1.1-2.5-2.5-2.5c-1.4,0-2.5,1.1-2.5,2.5c0,1.4,1.1,2.5,2.5,2.5
		C66.3,149.8,67.4,148.7,67.4,147.3z"/>
	<path class="st6" d="M351.1,289.1c0-2.3-1.9-4.2-4.2-4.2c-2.3,0-4.2,1.9-4.2,4.2c0,2.3,1.9,4.3,4.2,4.3
		C349.2,293.3,351.1,291.4,351.1,289.1z"/>
	<path class="st6" d="M252.4,380.4c0-1-0.8-1.8-1.8-1.8c-1,0-1.8,0.8-1.8,1.8s0.8,1.8,1.8,1.8C251.6,382.1,252.4,381.3,252.4,380.4z
		"/>
	<path class="st6" d="M343.1,673.7c0-0.9-0.7-1.6-1.6-1.6c-0.9,0-1.6,0.7-1.6,1.6s0.7,1.6,1.6,1.6
		C342.4,675.3,343.1,674.6,343.1,673.7z"/>
	<path class="st6" d="M247.3,157.1c0-0.6-0.4-1-1-1c-0.6,0-1,0.5-1,1s0.5,1,1,1C246.8,158.1,247.3,157.7,247.3,157.1z"/>
	<path class="st6" d="M89.4,96.3c0-1.2-0.9-2.1-2.1-2.1c-1.1,0-2.1,0.9-2.1,2.1c0,1.1,0.9,2.1,2.1,2.1
		C88.4,98.3,89.4,97.4,89.4,96.3z"/>
	<path class="st6" d="M414.1,166.5c0-1-0.8-1.8-1.8-1.8c-1,0-1.8,0.8-1.8,1.8c0,1,0.8,1.8,1.8,1.8
		C413.4,168.2,414.1,167.4,414.1,166.5z"/>
	<path class="st6" d="M451.5,443.6c0-0.2-0.2-0.4-0.4-0.4c-0.2,0-0.4,0.2-0.4,0.4c0,0.2,0.2,0.4,0.4,0.4
		C451.3,444,451.5,443.9,451.5,443.6z"/>
	<path class="st6" d="M398.3,569.6c0-2.1-1.7-3.8-3.8-3.8c-2.1,0-3.8,1.7-3.8,3.8s1.7,3.8,3.8,3.8
		C396.6,573.4,398.3,571.7,398.3,569.6z"/>
	<path class="st6" d="M34.6,288.3c0-1.1-0.9-2-2-2c-1.1,0-1.9,0.9-1.9,2c0,1.1,0.9,2,1.9,2C33.7,290.3,34.6,289.4,34.6,288.3z"/>
	<path class="st6" d="M321.7,636.2c0-1.1-0.9-1.9-1.9-1.9c-1.1,0-1.9,0.9-1.9,1.9c0,1.1,0.9,1.9,1.9,1.9
		C320.9,638.2,321.7,637.3,321.7,636.2z"/>
	<path class="st6" d="M72.7,410.9c0-0.8-0.6-1.4-1.4-1.4c-0.8,0-1.4,0.6-1.4,1.4c0,0.8,0.6,1.4,1.4,1.4
		C72,412.3,72.7,411.7,72.7,410.9z"/>
	<path class="st6" d="M405.2,273.7c0-1-0.8-1.9-1.9-1.9c-1,0-1.9,0.8-1.9,1.9c0,1,0.8,1.9,1.9,1.9
		C404.3,275.5,405.2,274.7,405.2,273.7z"/>
	<path class="st6" d="M382.9,388.8c0-1.2-1-2.2-2.2-2.2c-1.2,0-2.1,1-2.1,2.2c0,1.2,1,2.2,2.1,2.2C381.9,391,382.9,390,382.9,388.8z
		"/>
	<path class="st6" d="M222.4,710.8c0-0.6-0.5-1-1-1c-0.6,0-1,0.5-1,1c0,0.6,0.5,1,1,1C221.9,711.8,222.4,711.4,222.4,710.8z"/>
	<path class="st6" d="M37.7,182.2c0-2-1.6-3.6-3.6-3.6c-2,0-3.6,1.6-3.6,3.6c0,2,1.6,3.6,3.6,3.6C36,185.9,37.7,184.2,37.7,182.2z"
		/>
	<path class="st6" d="M388.3,244.4c0-0.7-0.6-1.3-1.3-1.3c-0.7,0-1.3,0.6-1.3,1.3s0.6,1.3,1.3,1.3
		C387.7,245.6,388.3,245.1,388.3,244.4z"/>
	<path class="st6" d="M117.4,766.4c0-0.5-0.4-1-1-1c-0.5,0-1,0.4-1,1c0,0.5,0.4,1,1,1C117,767.4,117.4,767,117.4,766.4z"/>
	<path class="st6" d="M254.3,39c0-1.5-1.2-2.8-2.7-2.8c-1.5,0-2.7,1.2-2.7,2.8c0,1.5,1.2,2.7,2.7,2.7
		C253.1,41.7,254.3,40.5,254.3,39z"/>
	<path class="st6" d="M443,710c0-1.4-1.2-2.6-2.6-2.6c-1.4,0-2.6,1.2-2.6,2.6c0,1.5,1.2,2.6,2.6,2.6C441.9,712.7,443,711.5,443,710z
		"/>
	<path class="st6" d="M136.3,370.5c0-1.1-0.9-2-2-2c-1.1,0-2,0.9-2,2s0.9,2,2,2C135.4,372.6,136.3,371.7,136.3,370.5z"/>
	<path class="st6" d="M217.5,662.9c0-0.7-0.6-1.3-1.3-1.3c-0.7,0-1.3,0.6-1.3,1.3c0,0.7,0.6,1.3,1.3,1.3
		C217,664.2,217.5,663.6,217.5,662.9z"/>
	<path class="st6" d="M298.3,430.1c0-1.1-0.9-1.9-1.9-1.9c-1.1,0-1.9,0.9-1.9,1.9s0.9,1.9,1.9,1.9
		C297.4,432.1,298.3,431.2,298.3,430.1z"/>
	<path class="st6" d="M190.8,365.6c0-1.4-1.1-2.5-2.5-2.5c-1.4,0-2.5,1.1-2.5,2.5c0,1.4,1.1,2.5,2.5,2.5
		C189.6,368.2,190.8,367,190.8,365.6z"/>
	<path class="st6" d="M303.2,26.6c0-1-0.8-1.8-1.8-1.8c-1,0-1.8,0.8-1.8,1.8s0.8,1.8,1.8,1.8C302.4,28.4,303.2,27.6,303.2,26.6z"/>
	<path class="st6" d="M409.1,33.1c0-0.4-0.4-0.8-0.8-0.8c-0.4,0-0.8,0.4-0.8,0.8c0,0.4,0.4,0.8,0.8,0.8
		C408.8,33.9,409.1,33.5,409.1,33.1z"/>
	<path class="st6" d="M20.4,576.8c0-1.9-1.5-3.4-3.4-3.4c-1.9,0-3.4,1.5-3.4,3.4c0,1.8,1.5,3.4,3.4,3.4
		C18.9,580.1,20.4,578.6,20.4,576.8z"/>
	<path class="st6" d="M272.7,655.7c0-2.3-1.9-4.2-4.2-4.2c-2.3,0-4.2,1.9-4.2,4.2c0,2.3,1.9,4.2,4.2,4.2
		C270.8,660,272.7,658.1,272.7,655.7z"/>
	<ellipse class="st6" cx="23.2" cy="516.7" rx="1.4" ry="1.4"/>
	<path class="st6" d="M420,206c0-0.7-0.6-1.3-1.3-1.3c-0.7,0-1.3,0.6-1.3,1.3c0,0.7,0.6,1.3,1.3,1.3C419.4,207.3,420,206.7,420,206z
		"/>
</g>
<g>
	
		<rect x="66.9" y="735.8" transform="matrix(3.048601e-02 -0.9995 0.9995 3.048601e-02 -670.7941 795.0576)" class="st6" width="15" height="15"/>
	
		<rect x="66.1" y="735.8" transform="matrix(0.9995 3.048183e-02 -3.048183e-02 0.9995 22.5239 -1.9314)" class="st8" width="17" height="3.9"/>
	<g>
		<g>
			<g>
				<path class="st9" d="M71,733.5c-0.1,0-0.1,0-0.2,0.1c-0.4,0.2-0.6,0.7-0.4,1.2c0.2,0.5,0.7,0.7,1.1,0.8c0.5,0.1,1.1,0.1,1.6,0.2
					c0.5,0.1,1.1,0.3,1.6,0.3c0.1,0,0.8-0.2,0.8-0.2c-0.2-0.4-0.6-0.7-0.9-1c-0.1-0.1-0.7,0.3-0.9,0.2c0.3,0.3,0.7,0.6,0.9,1
					c0.3-0.1,0.6-0.1,0.8-0.2c-0.5-0.1-1.1-0.2-1.6-0.3c-0.5-0.1-1.1-0.1-1.6-0.2c-0.5-0.1-1-0.3-1.2-0.9c-0.2-0.6,0.2-1,0.6-1.1"/>
			</g>
			<g>
				<path class="st9" d="M71.6,733.5c0.9,0.1,1.7,0.8,2.3,1.6c0.1,0.1,0.7-0.3,0.9-0.2c-0.7-0.8-1.6-1.7-2.7-1.6
					c-0.3,0-0.7,0.1-1.1,0.2"/>
			</g>
			<g>
				<path class="st9" d="M71,733.5c0.2,0,0.3,0,0.5,0"/>
			</g>
			<g>
				<path class="st9" d="M71.9,733.3c-0.3,0.1-0.6,0.1-0.8,0.2"/>
			</g>
		</g>
		<g>
			<g>
				<path class="st9" d="M74.7,730.3c-0.3,0.1-0.6,0.1-0.9,0.2c1.6-0.1,1.1,2.9,0.9,3.9c0-0.1,0.8,0,0.9-0.2c0.3-1.1,0.6-2.4,0-3.5
					c-0.4-0.7-0.9-0.5-1.5-0.4"/>
			</g>
			<g>
				<path class="st9" d="M74,730.5c-0.8,0.2-0.9,0.9-0.7,1.8c0.1,0.6,0.4,1.2,0.6,1.8c0.2,0.6,0.3,1.2,0.5,1.7c0,0,0.8-0.1,0.8-0.2
					c0.2-0.4,0.2-0.9,0.4-1.3c0,0.1-0.8,0-0.9,0.2c-0.1,0.4-0.2,0.9-0.3,1.3c0.3-0.1,0.6-0.1,0.8-0.2c-0.3-0.9-0.5-1.9-0.8-2.8
					c-0.3-0.8-0.6-2,0.3-2.5"/>
			</g>
		</g>
		<g>
			<g>
				<path class="st9" d="M75.3,736c0.8,0,1.6-0.1,2.3-0.3c0.5-0.1,1.1-0.4,1.4-1c0.4-0.7,0-1.3-0.7-1.3c-0.7,0.1-1.3,0.3-1.9,0.7
					c-0.6,0.5-1.2,0.9-1.8,1.3c-0.1,0.1-0.3,0.2-0.4,0.3c-0.2,0.2-0.2,0.1,0,0.2C74.5,736.1,75,736,75.3,736c0.3,0,0.6-0.2,0.8-0.2
					c-0.2,0-1,0.1-1.1,0c-0.1-0.1,0.1-0.2,0.3-0.3c0.2-0.1,0.4-0.2,0.6-0.4c0.8-0.5,1.5-1.4,2.4-1.6c-0.3,0.1-0.6,0.1-0.9,0.2
					c0.6,0,1.1,0.4,0.8,1.2c-0.3,0.6-0.9,0.9-1.4,1.1c0.1,0,0.2,0,0.3-0.1c-0.3,0.1-0.7,0-1,0C75.8,735.8,75.5,736,75.3,736z"/>
			</g>
		</g>
		<g>
			<g>
				<path class="st9" d="M76.6,731.2c-0.3,0.1-0.6,0.1-0.8,0.2c0.9-0.2,0.9,1.1,0.7,1.8c0,0.1-0.1,0.3-0.1,0.4
					c-0.1,0.3-0.3,0.7-0.6,1c-0.1,0.1-0.2,0.3-0.3,0.4c-0.1,0.1-0.2,0.2-0.2,0.4c0,0.1,0,0.1-0.1,0.2c0,0.1,0,0.2-0.1,0.2
					c0,0.1,0,0.2-0.1,0.2c0.3-0.2,0.5-0.4,0.7-0.6c0.4-0.4,0.8-0.9,1.2-1.4c0.4-0.6,0.7-1.3,0.6-2.1c-0.1-0.9-0.7-0.8-1.3-0.7"/>
			</g>
			<g>
				<path class="st9" d="M76.1,731.3c-0.7,0.1-1,0.5-1.2,1.3c-0.1,0.6-0.2,1.2-0.2,1.8c-0.1,0.7-0.3,1.3-0.3,1.9
					c0-0.1,0.8-0.1,0.8-0.2c0.3-0.3-0.4,0.1-0.2-0.2c-0.2,0.2,0.3-0.8,0.1-0.6c-0.3,0.3-0.5,0.7-0.8,1c0.3-0.1,0.6-0.1,0.8-0.2
					c0.1-0.9,0.4-1.8,0.5-2.7c0.1-0.8,0.2-1.8,0.9-2.2"/>
			</g>
		</g>
	</g>
	
		<rect x="73.6" y="735.8" transform="matrix(0.9995 3.055306e-02 -3.055306e-02 0.9995 22.7454 -1.9335)" class="st9" width="2" height="15"/>
	
		<rect x="73.4" y="737.8" transform="matrix(3.051605e-02 -0.9995 0.9995 3.051605e-02 -672.8142 796.8771)" class="st9" width="2" height="15"/>
</g>
<g>
	
		<rect x="38.8" y="733.4" transform="matrix(3.048601e-02 -0.9995 0.9995 3.048601e-02 -695.6736 760.2208)" class="st6" width="10.6" height="10.6"/>
	
		<rect x="38.2" y="733.4" transform="matrix(0.9995 3.048183e-02 -3.048183e-02 0.9995 22.4192 -1.0047)" class="st8" width="12" height="2.8"/>
	<g>
		<g>
			<g>
				<path class="st9" d="M41.6,731.8c0,0-0.1,0-0.1,0c-0.3,0.1-0.4,0.5-0.3,0.8c0.2,0.4,0.5,0.5,0.8,0.6c0.4,0.1,0.8,0.1,1.1,0.2
					c0.4,0.1,0.7,0.2,1.1,0.2c0.1,0,0.6-0.2,0.6-0.1c-0.2-0.3-0.4-0.5-0.6-0.7c-0.1-0.1-0.5,0.2-0.6,0.1c0.2,0.2,0.5,0.4,0.6,0.7
					c0.2,0,0.4-0.1,0.6-0.1c-0.4,0-0.7-0.2-1.1-0.2c-0.4-0.1-0.8-0.1-1.1-0.2c-0.3-0.1-0.7-0.2-0.8-0.6c-0.1-0.4,0.1-0.7,0.4-0.8"/>
			</g>
			<g>
				<path class="st9" d="M42,731.8c0.7,0.1,1.2,0.6,1.7,1.1c0.1,0.1,0.5-0.2,0.6-0.1c-0.5-0.6-1.1-1.2-1.9-1.1
					c-0.2,0-0.5,0.1-0.8,0.1"/>
			</g>
			<g>
				<path class="st9" d="M41.7,731.8c0.1,0,0.2,0,0.4,0"/>
			</g>
			<g>
				<path class="st9" d="M42.2,731.6c-0.2,0-0.4,0.1-0.6,0.1"/>
			</g>
		</g>
		<g>
			<g>
				<path class="st9" d="M44.2,729.6c-0.2,0-0.4,0.1-0.6,0.1c1.1-0.1,0.8,2.1,0.6,2.8c0-0.1,0.6,0,0.6-0.1c0.2-0.8,0.4-1.7,0-2.4
					c-0.3-0.5-0.6-0.4-1-0.3"/>
			</g>
			<g>
				<path class="st9" d="M43.7,729.7c-0.5,0.1-0.7,0.7-0.5,1.3c0.1,0.4,0.3,0.9,0.4,1.3c0.1,0.4,0.2,0.8,0.3,1.2
					c0,0,0.6-0.1,0.6-0.1c0.1-0.3,0.2-0.6,0.2-0.9c0,0.1-0.6,0-0.6,0.1c-0.1,0.3-0.1,0.6-0.2,0.9c0.2,0,0.4-0.1,0.6-0.1
					c-0.2-0.6-0.3-1.3-0.5-2c-0.2-0.6-0.4-1.4,0.2-1.8"/>
			</g>
		</g>
		<g>
			<g>
				<path class="st9" d="M44.6,733.6c0.6,0,1.1,0,1.6-0.2c0.4-0.1,0.8-0.3,1-0.7c0.3-0.5,0-0.9-0.5-0.9c-0.5,0-0.9,0.2-1.3,0.5
					c-0.4,0.3-0.8,0.6-1.3,0.9c-0.1,0.1-0.2,0.1-0.3,0.2c-0.1,0.1-0.1,0.1,0,0.1C44.1,733.6,44.4,733.6,44.6,733.6
					c0.2,0,0.4-0.1,0.6-0.1c-0.1,0-0.7,0.1-0.8,0c-0.1-0.1,0.1-0.1,0.2-0.2c0.1-0.1,0.3-0.2,0.4-0.3c0.5-0.4,1.1-1,1.7-1.2
					c-0.2,0-0.4,0.1-0.6,0.1c0.4,0,0.8,0.3,0.5,0.8c-0.2,0.4-0.6,0.6-1,0.8c0.1,0,0.1,0,0.2,0c-0.2,0-0.5,0-0.7,0
					C45,733.4,44.8,733.6,44.6,733.6z"/>
			</g>
		</g>
		<g>
			<g>
				<path class="st9" d="M45.6,730.1c-0.2,0-0.4,0.1-0.6,0.1c0.6-0.1,0.6,0.8,0.5,1.3c0,0.1-0.1,0.2-0.1,0.3
					c-0.1,0.2-0.2,0.5-0.4,0.7c-0.1,0.1-0.2,0.2-0.2,0.3c-0.1,0.1-0.1,0.2-0.2,0.3c0,0,0,0.1,0,0.1c0,0.1,0,0.1,0,0.2
					c0,0.1,0,0.1-0.1,0.2c0.2-0.1,0.3-0.3,0.5-0.4c0.3-0.3,0.6-0.6,0.8-1c0.3-0.4,0.5-0.9,0.4-1.5c-0.1-0.7-0.5-0.6-0.9-0.5"/>
			</g>
			<g>
				<path class="st9" d="M45.2,730.2c-0.5,0.1-0.7,0.3-0.9,0.9c-0.1,0.4-0.1,0.8-0.2,1.2c-0.1,0.5-0.2,0.9-0.2,1.4
					c0,0,0.5-0.1,0.6-0.1c0.2-0.2-0.3,0.1-0.1-0.2c-0.1,0.1,0.2-0.5,0.1-0.4c-0.2,0.2-0.4,0.5-0.6,0.7c0.2,0,0.4-0.1,0.6-0.1
					c0.1-0.6,0.2-1.3,0.3-1.9c0.1-0.6,0.1-1.2,0.6-1.5"/>
			</g>
		</g>
	</g>
	
		<rect x="43.5" y="733.4" transform="matrix(0.9995 3.055306e-02 -3.055306e-02 0.9995 22.5908 -1.0051)" class="st9" width="1.4" height="10.6"/>
	
		<rect x="43.3" y="734.8" transform="matrix(3.051605e-02 -0.9995 0.9995 3.051605e-02 -697.0989 761.4986)" class="st9" width="1.4" height="10.6"/>
</g>
<g>
	
		<rect x="404.6" y="732.6" transform="matrix(3.048601e-02 -0.9995 0.9995 3.048601e-02 -340.2309 1129.4808)" class="st6" width="15" height="15"/>
	
		<rect x="403.8" y="732.6" transform="matrix(0.9995 3.048183e-02 -3.048183e-02 0.9995 22.5836 -12.2257)" class="st8" width="17" height="3.9"/>
	<g>
		<g>
			<g>
				<path class="st9" d="M408.7,730.3c-0.1,0-0.1,0-0.2,0.1c-0.4,0.2-0.6,0.7-0.4,1.2c0.2,0.5,0.7,0.7,1.1,0.8
					c0.5,0.1,1.1,0.1,1.6,0.2c0.5,0.1,1.1,0.3,1.6,0.3c0.1,0,0.8-0.2,0.8-0.2c-0.2-0.4-0.6-0.7-0.9-1c-0.1-0.1-0.7,0.3-0.9,0.2
					c0.3,0.3,0.7,0.6,0.9,1c0.3-0.1,0.6-0.1,0.8-0.2c-0.5-0.1-1.1-0.2-1.6-0.3c-0.5-0.1-1.1-0.1-1.6-0.2c-0.5-0.1-1-0.3-1.2-0.9
					c-0.2-0.6,0.2-1,0.6-1.1"/>
			</g>
			<g>
				<path class="st9" d="M409.2,730.3c0.9,0.1,1.7,0.8,2.3,1.6c0.1,0.1,0.7-0.3,0.9-0.2c-0.7-0.8-1.6-1.7-2.7-1.6
					c-0.3,0-0.7,0.1-1.1,0.2"/>
			</g>
			<g>
				<path class="st9" d="M408.7,730.3c0.2,0,0.3,0,0.5,0"/>
			</g>
			<g>
				<path class="st9" d="M409.6,730.1c-0.3,0.1-0.6,0.1-0.8,0.2"/>
			</g>
		</g>
		<g>
			<g>
				<path class="st9" d="M412.4,727.2c-0.3,0.1-0.6,0.1-0.9,0.2c1.6-0.1,1.1,2.9,0.9,3.9c0-0.1,0.8,0,0.9-0.2c0.3-1.1,0.6-2.4,0-3.5
					c-0.4-0.7-0.9-0.5-1.5-0.4"/>
			</g>
			<g>
				<path class="st9" d="M411.7,727.3c-0.8,0.2-0.9,0.9-0.7,1.8c0.1,0.6,0.4,1.2,0.6,1.8c0.2,0.6,0.3,1.2,0.5,1.7
					c0,0,0.8-0.1,0.8-0.2c0.2-0.4,0.2-0.9,0.4-1.3c0,0.1-0.8,0-0.9,0.2c-0.1,0.4-0.2,0.9-0.3,1.3c0.3-0.1,0.6-0.1,0.8-0.2
					c-0.3-0.9-0.5-1.9-0.8-2.8c-0.3-0.8-0.6-2,0.3-2.5"/>
			</g>
		</g>
		<g>
			<g>
				<path class="st9" d="M412.9,732.8c0.8,0,1.6-0.1,2.3-0.3c0.5-0.1,1.1-0.4,1.4-1c0.4-0.7,0-1.3-0.7-1.3c-0.7,0.1-1.3,0.3-1.9,0.7
					c-0.6,0.5-1.2,0.9-1.8,1.3c-0.1,0.1-0.3,0.2-0.4,0.3c-0.2,0.2-0.2,0.1,0,0.2C412.2,732.9,412.7,732.8,412.9,732.8
					c0.3,0,0.6-0.2,0.8-0.2c-0.2,0-1,0.1-1.1,0c-0.1-0.1,0.1-0.2,0.3-0.3c0.2-0.1,0.4-0.2,0.6-0.4c0.8-0.5,1.5-1.4,2.4-1.6
					c-0.3,0.1-0.6,0.1-0.9,0.2c0.6,0,1.1,0.4,0.8,1.2c-0.3,0.6-0.9,0.9-1.4,1.1c0.1,0,0.2,0,0.3-0.1c-0.3,0.1-0.7,0-1,0
					C413.5,732.7,413.2,732.8,412.9,732.8z"/>
			</g>
		</g>
		<g>
			<g>
				<path class="st9" d="M414.3,728c-0.3,0.1-0.6,0.1-0.8,0.2c0.9-0.2,0.9,1.1,0.7,1.8c0,0.1-0.1,0.3-0.1,0.4
					c-0.1,0.3-0.3,0.7-0.6,1c-0.1,0.1-0.2,0.3-0.3,0.4c-0.1,0.1-0.2,0.2-0.2,0.4c0,0.1,0,0.1-0.1,0.2c0,0.1,0,0.2-0.1,0.2
					c0,0.1,0,0.2-0.1,0.2c0.3-0.2,0.5-0.4,0.7-0.6c0.4-0.4,0.8-0.9,1.2-1.4c0.4-0.6,0.7-1.3,0.6-2.1c-0.1-0.9-0.7-0.8-1.3-0.7"/>
			</g>
			<g>
				<path class="st9" d="M413.8,728.1c-0.7,0.1-1,0.5-1.2,1.3c-0.1,0.6-0.2,1.2-0.2,1.8c-0.1,0.7-0.3,1.3-0.3,1.9
					c0-0.1,0.8-0.1,0.8-0.2c0.3-0.3-0.4,0.1-0.2-0.2c-0.2,0.2,0.3-0.8,0.1-0.6c-0.3,0.3-0.5,0.7-0.8,1c0.3-0.1,0.6-0.1,0.8-0.2
					c0.1-0.9,0.4-1.8,0.5-2.7c0.1-0.8,0.2-1.8,0.9-2.2"/>
			</g>
		</g>
	</g>
	
		<rect x="411.3" y="732.6" transform="matrix(0.9995 3.055306e-02 -3.055306e-02 0.9995 22.8056 -12.2519)" class="st9" width="2" height="15"/>
	
		<rect x="411" y="734.6" transform="matrix(3.051605e-02 -0.9995 0.9995 3.051605e-02 -342.2611 1131.3002)" class="st9" width="2" height="15"/>
</g>
<g>
	
		<rect x="134.2" y="733.1" transform="matrix(3.048601e-02 -0.9995 0.9995 3.048601e-02 -602.7886 859.6438)" class="st6" width="15" height="15"/>
	
		<rect x="133.4" y="733.1" transform="matrix(0.9995 3.048183e-02 -3.048183e-02 0.9995 22.4709 -3.984)" class="st8" width="17" height="3.9"/>
	<g>
		<g>
			<g>
				<path class="st9" d="M138.3,730.7c-0.1,0-0.1,0-0.2,0.1c-0.4,0.2-0.6,0.7-0.4,1.2c0.2,0.5,0.7,0.7,1.1,0.8
					c0.5,0.1,1.1,0.1,1.6,0.2c0.5,0.1,1.1,0.3,1.6,0.3c0.1,0,0.8-0.2,0.8-0.2c-0.2-0.4-0.6-0.7-0.9-1c-0.1-0.1-0.7,0.3-0.9,0.2
					c0.3,0.3,0.7,0.6,0.9,1c0.3-0.1,0.6-0.1,0.8-0.2c-0.5-0.1-1.1-0.2-1.6-0.3c-0.5-0.1-1.1-0.1-1.6-0.2c-0.5-0.1-1-0.3-1.2-0.9
					c-0.2-0.6,0.2-1,0.6-1.1"/>
			</g>
			<g>
				<path class="st9" d="M138.9,730.7c0.9,0.1,1.7,0.8,2.3,1.6c0.1,0.1,0.7-0.3,0.9-0.2c-0.7-0.8-1.6-1.7-2.7-1.6
					c-0.3,0-0.7,0.1-1.1,0.2"/>
			</g>
			<g>
				<path class="st9" d="M138.3,730.7c0.2,0,0.3,0,0.5,0"/>
			</g>
			<g>
				<path class="st9" d="M139.2,730.5c-0.3,0.1-0.6,0.1-0.8,0.2"/>
			</g>
		</g>
		<g>
			<g>
				<path class="st9" d="M142,727.6c-0.3,0.1-0.6,0.1-0.9,0.2c1.6-0.1,1.1,2.9,0.9,3.9c0-0.1,0.8,0,0.9-0.2c0.3-1.1,0.6-2.4,0-3.5
					c-0.4-0.7-0.9-0.5-1.5-0.4"/>
			</g>
			<g>
				<path class="st9" d="M141.3,727.7c-0.8,0.2-0.9,0.9-0.7,1.8c0.1,0.6,0.4,1.2,0.6,1.8c0.2,0.6,0.3,1.2,0.5,1.7
					c0,0,0.8-0.1,0.8-0.2c0.2-0.4,0.2-0.9,0.4-1.3c0,0.1-0.8,0-0.9,0.2c-0.1,0.4-0.2,0.9-0.3,1.3c0.3-0.1,0.6-0.1,0.8-0.2
					c-0.3-0.9-0.5-1.9-0.8-2.8c-0.3-0.8-0.6-2,0.3-2.5"/>
			</g>
		</g>
		<g>
			<g>
				<path class="st9" d="M142.6,733.3c0.8,0,1.6-0.1,2.3-0.3c0.5-0.1,1.1-0.4,1.4-1c0.4-0.7,0-1.3-0.7-1.3c-0.7,0.1-1.3,0.3-1.9,0.7
					c-0.6,0.5-1.2,0.9-1.8,1.3c-0.1,0.1-0.3,0.2-0.4,0.3c-0.2,0.2-0.2,0.1,0,0.2C141.8,733.4,142.3,733.3,142.6,733.3
					c0.3,0,0.6-0.2,0.8-0.2c-0.2,0-1,0.1-1.1,0c-0.1-0.1,0.1-0.2,0.3-0.3c0.2-0.1,0.4-0.2,0.6-0.4c0.8-0.5,1.5-1.4,2.4-1.6
					c-0.3,0.1-0.6,0.1-0.9,0.2c0.6,0,1.1,0.4,0.8,1.2c-0.3,0.6-0.9,0.9-1.4,1.1c0.1,0,0.2,0,0.3-0.1c-0.3,0.1-0.7,0-1,0
					C143.1,733.1,142.8,733.3,142.6,733.3z"/>
			</g>
		</g>
		<g>
			<g>
				<path class="st9" d="M143.9,728.4c-0.3,0.1-0.6,0.1-0.8,0.2c0.9-0.2,0.9,1.1,0.7,1.8c0,0.1-0.1,0.3-0.1,0.4
					c-0.1,0.3-0.3,0.7-0.6,1c-0.1,0.1-0.2,0.3-0.3,0.4c-0.1,0.1-0.2,0.2-0.2,0.4c0,0.1,0,0.1-0.1,0.2c0,0.1,0,0.2-0.1,0.2
					c0,0.1,0,0.2-0.1,0.2c0.3-0.2,0.5-0.4,0.7-0.6c0.4-0.4,0.8-0.9,1.2-1.4c0.4-0.6,0.7-1.3,0.6-2.1c-0.1-0.9-0.7-0.8-1.3-0.7"/>
			</g>
			<g>
				<path class="st9" d="M143.4,728.5c-0.7,0.1-1,0.5-1.2,1.3c-0.1,0.6-0.2,1.2-0.2,1.8c-0.1,0.7-0.3,1.3-0.3,1.9
					c0-0.1,0.8-0.1,0.8-0.2c0.3-0.3-0.4,0.1-0.2-0.2c-0.2,0.2,0.3-0.8,0.1-0.6c-0.3,0.3-0.5,0.7-0.8,1c0.3-0.1,0.6-0.1,0.8-0.2
					c0.1-0.9,0.4-1.8,0.5-2.7c0.1-0.8,0.2-1.8,0.9-2.2"/>
			</g>
		</g>
	</g>
	
		<rect x="140.9" y="733.1" transform="matrix(0.9995 3.055306e-02 -3.055306e-02 0.9995 22.6924 -3.9909)" class="st9" width="2" height="15"/>
	
		<rect x="140.7" y="735" transform="matrix(3.051605e-02 -0.9995 0.9995 3.051605e-02 -604.8107 861.4633)" class="st9" width="2" height="15"/>
</g>
<g>
	<g>
		<g>
			<g>
				<g>
					<rect x="385.2" y="711.8" class="st10" width="8.3" height="34.6"/>
				</g>
				<g>
					<rect x="385.2" y="711.8" class="st11" width="4.2" height="34.6"/>
				</g>
			</g>
			<g>
				<g>
					<g>
						<polygon class="st12" points="356.3,724.8 389.3,662.6 422.4,724.8 						"/>
					</g>
					<g>
						<polygon class="st13" points="389.3,724.8 389.3,662.6 422.4,724.8 						"/>
					</g>
					<g>
						<polygon class="st12" points="409.4,700.4 389.3,700.4 389.3,662.6 						"/>
					</g>
					<g>
						<polygon class="st14" points="389.3,662.6 389.3,700.4 369.2,700.4 						"/>
					</g>
				</g>
				<g>
					<g>
						<polygon class="st12" points="363.4,698.3 389.3,649.5 415.3,698.3 						"/>
					</g>
					<g>
						<polygon class="st13" points="389.3,698.3 389.3,649.5 415.3,698.3 						"/>
					</g>
					<g>
						<polygon class="st12" points="405.1,679.1 389.3,679.1 389.3,649.5 						"/>
					</g>
					<g>
						<polygon class="st14" points="389.3,649.5 389.3,679.1 373.6,679.1 						"/>
					</g>
				</g>
				<g>
					<g>
						<polygon class="st12" points="410.4,677 368.3,677 376.1,662.3 389.3,637.4 402.5,662.3 						"/>
					</g>
					<g>
						<polygon class="st13" points="389.3,677 389.3,637.4 410.4,677 						"/>
					</g>
					<g>
						<polygon class="st15" points="389.3,631 391.1,634.5 395,635.1 392.2,637.9 392.8,641.7 389.3,639.9 385.8,641.7 386.5,637.9 
							383.7,635.1 387.6,634.5 						"/>
					</g>
				</g>
			</g>
		</g>
		<g class="st16">
			<polygon class="st17" points="385.2,746.5 365.7,752.6 393.5,746.5 			"/>
		</g>
	</g>
	<g>
		<path class="st6" d="M398.1,653.2c-4.9,7.6-10.5,15-18.3,19.8c-2.3,1.4-4.8,2.6-7.4,3.5c-0.2,0.1,0,0.1,0.1,0.1
			c8.8-3,15.7-9.3,21.2-16.6c1.7-2.2,3.2-4.5,4.8-6.9C398.5,653.1,398.2,653.2,398.1,653.2L398.1,653.2z"/>
	</g>
	<g>
		<path class="st6" d="M406.3,681.7c-8.3,7.9-19.2,13.3-30.5,15.1c-3.1,0.5-6.3,0.7-9.4,0.5c-0.1,0-0.4,0.2-0.1,0.2
			c11.5,0.6,23.1-3.4,32.6-9.7c2.7-1.8,5.3-3.8,7.7-6.1C406.7,681.7,406.4,681.7,406.3,681.7L406.3,681.7z"/>
	</g>
	<g>
		<path class="st6" d="M411.8,706c-5.3,5.7-13.2,8.9-20.4,11.4c-7.6,2.6-15.5,4.4-23.5,5.5c-2.9,0.4-5.8,0.8-8.7,0.7
			c-0.1,0-0.4,0.2-0.1,0.2c2.5,0.1,5.1-0.2,7.6-0.5c3.7-0.5,7.4-1.1,11.1-1.9c8.3-1.8,16.7-4.3,24.3-8.2c3.7-1.9,7.3-4.1,10.1-7.2
			C412.2,705.9,411.9,705.9,411.8,706L411.8,706z"/>
	</g>
	<g>
		<rect x="372.8" y="676.8" class="st6" width="33" height="0.2"/>
	</g>
	<g>
		<rect x="365.7" y="698.2" class="st6" width="46.4" height="0.2"/>
	</g>
	<g>
		<rect x="358.6" y="724.5" class="st6" width="60.8" height="0.2"/>
	</g>
	<g>
		<g>
			<circle class="st18" cx="372.8" cy="676.9" r="1.7"/>
		</g>
		<g>
			<circle class="st15" cx="379.4" cy="676.9" r="1.7"/>
		</g>
		<g>
			<circle class="st15" cx="395" cy="667.1" r="1.7"/>
		</g>
		<g>
			<circle class="st19" cx="386" cy="676.9" r="1.7"/>
		</g>
		<g>
			<circle class="st18" cx="399.2" cy="676.9" r="1.7"/>
		</g>
		<g>
			
				<ellipse transform="matrix(0.1597 -0.9872 0.9872 0.1597 -324.1214 933.7029)" class="st18" cx="386.4" cy="657.2" rx="1.7" ry="1.7"/>
		</g>
		<g>
			<circle class="st6" cx="392.6" cy="677" r="1.7"/>
		</g>
		<g>
			<circle class="st6" cx="379.4" cy="666.1" r="1.7"/>
		</g>
		<g>
			<circle class="st19" cx="405.8" cy="676.9" r="1.7"/>
		</g>
		<g>
			<circle class="st19" cx="403" cy="671.1" r="1.7"/>
		</g>
	</g>
	<g>
		<g>
			<circle class="st18" cx="372.8" cy="698.3" r="1.7"/>
		</g>
		<g>
			<circle class="st15" cx="366.2" cy="698.3" r="1.7"/>
		</g>
		<g>
			<circle class="st15" cx="383.7" cy="691.4" r="1.7"/>
		</g>
		<g>
			<circle class="st15" cx="379.4" cy="698.3" r="1.7"/>
		</g>
		<g>
			<circle class="st15" cx="396.7" cy="684.7" r="1.7"/>
		</g>
		<g>
			<circle class="st19" cx="386" cy="698.3" r="1.7"/>
		</g>
		<g>
			<circle class="st18" cx="399.2" cy="698.3" r="1.7"/>
		</g>
		<g>
			<circle class="st18" cx="377.8" cy="687.6" r="1.7"/>
		</g>
		<g>
			<circle class="st6" cx="392.6" cy="698.3" r="1.7"/>
		</g>
		<g>
			<circle class="st19" cx="405.8" cy="698.3" r="1.7"/>
		</g>
		<g>
			<circle class="st19" cx="403" cy="691.4" r="1.7"/>
		</g>
		<g>
			<circle class="st18" cx="412.1" cy="698.3" r="1.7"/>
		</g>
	</g>
	<g>
		<g>
			<circle class="st18" cx="372.8" cy="724.6" r="1.7"/>
		</g>
		<g>
			<circle class="st18" cx="395.1" cy="707.1" r="1.7"/>
		</g>
		<g>
			<circle class="st15" cx="366.2" cy="724.6" r="1.7"/>
		</g>
		<g>
			<circle class="st19" cx="359.1" cy="724.6" r="1.7"/>
		</g>
		<g>
			<circle class="st19" cx="410.4" cy="715.5" r="1.7"/>
		</g>
		<g>
			<circle class="st15" cx="379.4" cy="724.6" r="1.7"/>
		</g>
		<g>
			<circle class="st15" cx="382.8" cy="714.7" r="1.7"/>
		</g>
		<g>
			<circle class="st19" cx="386" cy="724.6" r="1.7"/>
		</g>
		<g>
			<circle class="st6" cx="392.6" cy="724.6" r="1.7"/>
		</g>
		<g>
			<circle class="st6" cx="403" cy="717.5" r="1.7"/>
		</g>
		<g>
			<circle class="st6" cx="374.5" cy="707.7" r="1.7"/>
		</g>
		<g>
			<circle class="st18" cx="399.2" cy="724.6" r="1.7"/>
		</g>
		<g>
			<circle class="st18" cx="367.9" cy="716.9" r="1.7"/>
		</g>
		<g>
			<circle class="st19" cx="405.8" cy="724.6" r="1.7"/>
		</g>
		<g>
			<circle class="st6" cx="412.1" cy="724.6" r="1.7"/>
		</g>
		<g>
			<circle class="st18" cx="419" cy="724.6" r="1.7"/>
		</g>
	</g>
</g>
<g>
	<g>
		<g>
			<g>
				<g>
					<rect x="57.3" y="716.7" class="st10" width="7.6" height="31.6"/>
				</g>
				<g>
					<rect x="57.3" y="716.7" class="st11" width="3.8" height="31.6"/>
				</g>
			</g>
			<g>
				<g>
					<g>
						<polygon class="st12" points="30.9,728.5 61.1,671.6 91.4,728.5 						"/>
					</g>
					<g>
						<polygon class="st13" points="61.1,728.5 61.1,671.6 91.4,728.5 						"/>
					</g>
					<g>
						<polygon class="st12" points="79.5,706.2 61.1,706.2 61.1,671.6 						"/>
					</g>
					<g>
						<polygon class="st14" points="61.1,671.6 61.1,706.2 42.8,706.2 						"/>
					</g>
				</g>
				<g>
					<g>
						<polygon class="st12" points="37.5,704.3 61.1,659.7 84.8,704.3 						"/>
					</g>
					<g>
						<polygon class="st13" points="61.1,704.3 61.1,659.7 84.8,704.3 						"/>
					</g>
					<g>
						<polygon class="st12" points="75.5,686.8 61.1,686.8 61.1,659.7 						"/>
					</g>
					<g>
						<polygon class="st14" points="61.1,659.7 61.1,686.8 46.8,686.8 						"/>
					</g>
				</g>
				<g>
					<g>
						<polygon class="st12" points="80.4,684.9 41.9,684.9 49.1,671.4 61.1,648.7 73.2,671.4 						"/>
					</g>
					<g>
						<polygon class="st13" points="61.1,684.9 61.1,648.7 80.4,684.9 						"/>
					</g>
					<g>
						<polygon class="st15" points="61.1,642.8 62.7,646 66.3,646.6 63.7,649.1 64.3,652.6 61.1,650.9 58,652.6 58.6,649.1 
							56,646.6 59.6,646 						"/>
					</g>
				</g>
			</g>
		</g>
		<g class="st16">
			<polygon class="st17" points="57.3,748.3 39.5,753.9 65,748.3 			"/>
		</g>
	</g>
	<g>
		<path class="st6" d="M69.2,663.1c-4.5,6.9-9.6,13.7-16.7,18.1c-2.1,1.3-4.4,2.4-6.8,3.2c-0.2,0.1,0,0.1,0.1,0.1
			c8.1-2.8,14.3-8.5,19.4-15.2c1.5-2,3-4.1,4.4-6.3C69.5,663,69.2,663,69.2,663.1L69.2,663.1z"/>
	</g>
	<g>
		<path class="st6" d="M76.7,689.2c-7.5,7.2-17.6,12.1-27.9,13.8c-2.8,0.5-5.7,0.6-8.6,0.5c-0.1,0-0.3,0.1-0.1,0.2
			c10.5,0.5,21.1-3.1,29.8-8.9c2.5-1.6,4.9-3.5,7-5.6C77,689.1,76.7,689.1,76.7,689.2L76.7,689.2z"/>
	</g>
	<g>
		<path class="st6" d="M81.7,711.3c-4.9,5.2-12,8.2-18.6,10.4c-6.9,2.4-14.2,4-21.4,5c-2.6,0.4-5.3,0.7-8,0.6
			c-0.1,0-0.3,0.2-0.1,0.2c2.3,0.1,4.7-0.2,7-0.5c3.4-0.4,6.8-1,10.1-1.8c7.6-1.7,15.2-3.9,22.2-7.5c3.4-1.7,6.6-3.8,9.2-6.6
			C82.1,711.2,81.8,711.2,81.7,711.3L81.7,711.3z"/>
	</g>
	<g>
		<rect x="46.1" y="684.7" class="st6" width="30.1" height="0.2"/>
	</g>
	<g>
		<rect x="39.6" y="704.2" class="st6" width="42.4" height="0.2"/>
	</g>
	<g>
		<rect x="33.1" y="728.2" class="st6" width="55.5" height="0.2"/>
	</g>
	<g>
		<g>
			<circle class="st18" cx="46.1" cy="684.8" r="1.5"/>
		</g>
		<g>
			<circle class="st15" cx="52.1" cy="684.8" r="1.5"/>
		</g>
		<g>
			<circle class="st15" cx="66.3" cy="675.8" r="1.5"/>
		</g>
		<g>
			<circle class="st19" cx="58.1" cy="684.8" r="1.5"/>
		</g>
		<g>
			<circle class="st18" cx="70.2" cy="684.8" r="1.5"/>
		</g>
		<g>
			
				<ellipse transform="matrix(0.1597 -0.9872 0.9872 0.1597 -609.0914 617.9946)" class="st18" cx="58.5" cy="666.8" rx="1.5" ry="1.5"/>
		</g>
		<g>
			<circle class="st6" cx="64.2" cy="684.9" r="1.5"/>
		</g>
		<g>
			<circle class="st6" cx="52.1" cy="674.9" r="1.5"/>
		</g>
		<g>
			<circle class="st19" cx="76.2" cy="684.8" r="1.5"/>
		</g>
		<g>
			<circle class="st19" cx="73.6" cy="679.4" r="1.5"/>
		</g>
	</g>
	<g>
		<g>
			<circle class="st18" cx="46.1" cy="704.3" r="1.5"/>
		</g>
		<g>
			<circle class="st15" cx="40" cy="704.3" r="1.5"/>
		</g>
		<g>
			<circle class="st15" cx="56" cy="698" r="1.5"/>
		</g>
		<g>
			<circle class="st15" cx="52.1" cy="704.3" r="1.5"/>
		</g>
		<g>
			<circle class="st15" cx="67.9" cy="691.9" r="1.5"/>
		</g>
		<g>
			<circle class="st19" cx="58.1" cy="704.3" r="1.5"/>
		</g>
		<g>
			<circle class="st18" cx="70.2" cy="704.3" r="1.5"/>
		</g>
		<g>
			<circle class="st18" cx="50.6" cy="694.5" r="1.5"/>
		</g>
		<g>
			<circle class="st6" cx="64.2" cy="704.3" r="1.5"/>
		</g>
		<g>
			<circle class="st19" cx="76.2" cy="704.3" r="1.5"/>
		</g>
		<g>
			<circle class="st19" cx="73.6" cy="698" r="1.5"/>
		</g>
		<g>
			<circle class="st18" cx="81.9" cy="704.3" r="1.5"/>
		</g>
	</g>
	<g>
		<g>
			<circle class="st18" cx="46.1" cy="728.3" r="1.5"/>
		</g>
		<g>
			<circle class="st18" cx="66.4" cy="712.4" r="1.5"/>
		</g>
		<g>
			<circle class="st15" cx="40" cy="728.3" r="1.5"/>
		</g>
		<g>
			<circle class="st19" cx="33.6" cy="728.3" r="1.5"/>
		</g>
		<g>
			<circle class="st19" cx="80.4" cy="720" r="1.5"/>
		</g>
		<g>
			<circle class="st15" cx="52.1" cy="728.3" r="1.5"/>
		</g>
		<g>
			<circle class="st15" cx="55.2" cy="719.3" r="1.5"/>
		</g>
		<g>
			<circle class="st19" cx="58.1" cy="728.3" r="1.5"/>
		</g>
		<g>
			<circle class="st6" cx="64.2" cy="728.3" r="1.5"/>
		</g>
		<g>
			<circle class="st6" cx="73.6" cy="721.8" r="1.5"/>
		</g>
		<g>
			<circle class="st6" cx="47.6" cy="712.9" r="1.5"/>
		</g>
		<g>
			<circle class="st18" cx="70.2" cy="728.3" r="1.5"/>
		</g>
		<g>
			<circle class="st18" cx="41.6" cy="721.3" r="1.5"/>
		</g>
		<g>
			<circle class="st19" cx="76.2" cy="728.3" r="1.5"/>
		</g>
		<g>
			<circle class="st6" cx="81.9" cy="728.3" r="1.5"/>
		</g>
		<g>
			<circle class="st18" cx="88.3" cy="728.3" r="1.5"/>
		</g>
	</g>
</g>
<g>
	<g>
		<g>
			<g>
				<g>
					<rect x="128" y="720.4" class="st10" width="6.4" height="26.8"/>
				</g>
				<g>
					<rect x="128" y="720.4" class="st11" width="3.2" height="26.8"/>
				</g>
			</g>
			<g>
				<g>
					<g>
						<polygon class="st12" points="105.7,730.4 131.3,682.3 156.8,730.4 						"/>
					</g>
					<g>
						<polygon class="st13" points="131.3,730.4 131.3,682.3 156.8,730.4 						"/>
					</g>
					<g>
						<polygon class="st12" points="146.8,711.5 131.3,711.5 131.3,682.3 						"/>
					</g>
					<g>
						<polygon class="st14" points="131.3,682.3 131.3,711.5 115.7,711.5 						"/>
					</g>
				</g>
				<g>
					<g>
						<polygon class="st12" points="111.2,709.9 131.3,672.2 151.3,709.9 						"/>
					</g>
					<g>
						<polygon class="st13" points="131.3,709.9 131.3,672.2 151.3,709.9 						"/>
					</g>
					<g>
						<polygon class="st12" points="143.4,695.1 131.3,695.1 131.3,672.2 						"/>
					</g>
					<g>
						<polygon class="st14" points="131.3,672.2 131.3,695.1 119.1,695.1 						"/>
					</g>
				</g>
				<g>
					<g>
						<polygon class="st12" points="147.5,693.5 115,693.5 121,682.1 131.3,662.9 141.5,682.1 						"/>
					</g>
					<g>
						<polygon class="st13" points="131.3,693.5 131.3,662.9 147.5,693.5 						"/>
					</g>
					<g>
						<polygon class="st15" points="131.3,657.9 132.6,660.6 135.6,661.1 133.4,663.2 134,666.2 131.3,664.8 128.6,666.2 
							129.1,663.2 126.9,661.1 129.9,660.6 						"/>
					</g>
				</g>
			</g>
		</g>
		<g class="st16">
			<polygon class="st17" points="128,747.2 112.9,751.9 134.5,747.2 			"/>
		</g>
	</g>
	<g>
		<path class="st6" d="M138,675.1c-3.8,5.8-8.1,11.6-14.2,15.3c-1.8,1.1-3.7,2-5.8,2.7c-0.2,0.1,0,0.1,0.1,0.1
			c6.8-2.3,12.1-7.2,16.4-12.8c1.3-1.7,2.5-3.5,3.7-5.3C138.3,675,138.1,675,138,675.1L138,675.1z"/>
	</g>
	<g>
		<path class="st6" d="M144.4,697.1c-6.4,6.1-14.9,10.3-23.6,11.7c-2.4,0.4-4.8,0.5-7.3,0.4c-0.1,0-0.3,0.1-0.1,0.1
			c8.9,0.4,17.9-2.6,25.2-7.5c2.1-1.4,4.1-3,5.9-4.7C144.7,697.1,144.4,697.1,144.4,697.1L144.4,697.1z"/>
	</g>
	<g>
		<path class="st6" d="M148.6,715.9c-4.1,4.4-10.2,6.9-15.8,8.8c-5.9,2-12,3.4-18.2,4.3c-2.2,0.3-4.5,0.6-6.8,0.5
			c-0.1,0-0.3,0.1-0.1,0.1c2,0.1,4-0.1,5.9-0.4c2.9-0.4,5.7-0.9,8.6-1.5c6.4-1.4,12.9-3.3,18.8-6.3c2.8-1.5,5.6-3.2,7.8-5.6
			C149,715.8,148.7,715.8,148.6,715.9L148.6,715.9z"/>
	</g>
	<g>
		<rect x="118.5" y="693.3" class="st6" width="25.5" height="0.1"/>
	</g>
	<g>
		<rect x="113" y="709.9" class="st6" width="35.9" height="0.1"/>
	</g>
	<g>
		<rect x="107.5" y="730.2" class="st6" width="47" height="0.1"/>
	</g>
	<g>
		<g>
			<circle class="st18" cx="118.5" cy="693.4" r="1.3"/>
		</g>
		<g>
			<circle class="st15" cx="123.6" cy="693.4" r="1.3"/>
		</g>
		<g>
			<circle class="st15" cx="135.6" cy="685.8" r="1.3"/>
		</g>
		<g>
			<circle class="st19" cx="128.7" cy="693.4" r="1.3"/>
		</g>
		<g>
			<circle class="st18" cx="138.9" cy="693.4" r="1.3"/>
		</g>
		<g>
			
				<ellipse transform="matrix(0.1597 -0.9872 0.9872 0.1597 -561.1003 697.1932)" class="st18" cx="129" cy="678.2" rx="1.3" ry="1.3"/>
		</g>
		<g>
			<circle class="st6" cx="133.8" cy="693.5" r="1.3"/>
		</g>
		<g>
			<circle class="st6" cx="123.6" cy="685.1" r="1.3"/>
		</g>
		<g>
			<circle class="st19" cx="144" cy="693.4" r="1.3"/>
		</g>
		<g>
			<circle class="st19" cx="141.8" cy="688.9" r="1.3"/>
		</g>
	</g>
	<g>
		<g>
			<circle class="st18" cx="118.5" cy="709.9" r="1.3"/>
		</g>
		<g>
			<circle class="st15" cx="113.4" cy="709.9" r="1.3"/>
		</g>
		<g>
			<circle class="st15" cx="126.9" cy="704.6" r="1.3"/>
		</g>
		<g>
			<circle class="st15" cx="123.6" cy="709.9" r="1.3"/>
		</g>
		<g>
			<circle class="st15" cx="136.9" cy="699.5" r="1.3"/>
		</g>
		<g>
			<circle class="st19" cx="128.7" cy="709.9" r="1.3"/>
		</g>
		<g>
			<circle class="st18" cx="138.9" cy="709.9" r="1.3"/>
		</g>
		<g>
			<circle class="st18" cx="122.3" cy="701.7" r="1.3"/>
		</g>
		<g>
			<circle class="st6" cx="133.8" cy="709.9" r="1.3"/>
		</g>
		<g>
			<circle class="st19" cx="144" cy="709.9" r="1.3"/>
		</g>
		<g>
			<circle class="st19" cx="141.8" cy="704.6" r="1.3"/>
		</g>
		<g>
			<circle class="st18" cx="148.8" cy="709.9" r="1.3"/>
		</g>
	</g>
	<g>
		<g>
			<circle class="st18" cx="118.5" cy="730.3" r="1.3"/>
		</g>
		<g>
			<circle class="st18" cx="135.7" cy="716.8" r="1.3"/>
		</g>
		<g>
			<circle class="st15" cx="113.4" cy="730.3" r="1.3"/>
		</g>
		<g>
			<circle class="st19" cx="107.9" cy="730.3" r="1.3"/>
		</g>
		<g>
			<circle class="st19" cx="147.5" cy="723.2" r="1.3"/>
		</g>
		<g>
			<circle class="st15" cx="123.6" cy="730.3" r="1.3"/>
		</g>
		<g>
			<circle class="st15" cx="126.2" cy="722.6" r="1.3"/>
		</g>
		<g>
			<circle class="st19" cx="128.7" cy="730.3" r="1.3"/>
		</g>
		<g>
			<circle class="st6" cx="133.8" cy="730.3" r="1.3"/>
		</g>
		<g>
			<circle class="st6" cx="141.8" cy="724.8" r="1.3"/>
		</g>
		<g>
			<circle class="st6" cx="119.8" cy="717.2" r="1.3"/>
		</g>
		<g>
			<circle class="st18" cx="138.9" cy="730.3" r="1.3"/>
		</g>
		<g>
			<circle class="st18" cx="114.7" cy="724.3" r="1.3"/>
		</g>
		<g>
			<circle class="st19" cx="144" cy="730.3" r="1.3"/>
		</g>
		<g>
			<circle class="st6" cx="148.8" cy="730.3" r="1.3"/>
		</g>
		<g>
			<circle class="st18" cx="154.2" cy="730.3" r="1.3"/>
		</g>
	</g>
</g>
</svg>
