<?xml version="1.0" encoding="utf-8"?>
<!-- Generator: Adobe Illustrator 23.0.1, SVG Export Plug-In . SVG Version: 6.00 Build 0)  -->
<svg version="1.1" id="Livello_1" xmlns="http://www.w3.org/2000/svg" xmlns:xlink="http://www.w3.org/1999/xlink" x="0px" y="0px"
	 viewBox="0 0 450 800" style="enable-background:new 0 0 450 800;" xml:space="preserve">
<style type="text/css">
	.st0{fill:#B46100;}
	.st1{fill:#A64D00;}
	.st2{fill:#54B861;}
	.st3{fill:#6AD372;}
	.st4{fill:#54984D;}
	.st5{fill:#FFFF79;}
	.st6{opacity:0.1;}
	.st7{fill:#1A3E51;}
	.st8{fill:#FFFFFF;}
	.st9{fill:#FF3E2C;}
	.st10{fill:#2C88F7;}
	.st11{fill:#78E6FF;}
	.st12{fill:#CACEC6;}
	.st13{fill:#BBBFB8;}
	.st14{fill:#EFEFF0;}
	.st15{fill:#F1FAFE;}
</style>
<g>
	<g>
		<g>
			<g>
				<g>
					<rect x="465.8" y="858.9" class="st0" width="8.3" height="34.6"/>
				</g>
				<g>
					<rect x="465.8" y="858.9" class="st1" width="4.2" height="34.6"/>
				</g>
			</g>
			<g>
				<g>
					<g>
						<polygon class="st2" points="436.9,871.9 469.9,809.7 503,871.9 						"/>
					</g>
					<g>
						<polygon class="st3" points="469.9,871.9 469.9,809.7 503,871.9 						"/>
					</g>
					<g>
						<polygon class="st2" points="490,847.5 469.9,847.5 469.9,809.7 						"/>
					</g>
					<g>
						<polygon class="st4" points="469.9,809.7 469.9,847.5 449.8,847.5 						"/>
					</g>
				</g>
				<g>
					<g>
						<polygon class="st2" points="444,845.4 469.9,796.6 495.9,845.4 						"/>
					</g>
					<g>
						<polygon class="st3" points="469.9,845.4 469.9,796.6 495.9,845.4 						"/>
					</g>
					<g>
						<polygon class="st2" points="485.7,826.2 469.9,826.2 469.9,796.6 						"/>
					</g>
					<g>
						<polygon class="st4" points="469.9,796.6 469.9,826.2 454.2,826.2 						"/>
					</g>
				</g>
				<g>
					<g>
						<polygon class="st2" points="491,824.1 448.9,824.1 456.7,809.4 469.9,784.5 483.1,809.4 						"/>
					</g>
					<g>
						<polygon class="st3" points="469.9,824.1 469.9,784.5 491,824.1 						"/>
					</g>
					<g>
						<polygon class="st5" points="469.9,778.1 471.7,781.6 475.6,782.2 472.8,785 473.4,788.8 469.9,787 466.4,788.8 467.1,785 
							464.3,782.2 468.2,781.6 						"/>
					</g>
				</g>
			</g>
		</g>
		<g class="st6">
			<polygon class="st7" points="465.8,893.6 446.3,899.7 474.1,893.6 			"/>
		</g>
	</g>
	<g>
		<path class="st8" d="M478.7,800.3c-4.9,7.6-10.5,15-18.3,19.8c-2.3,1.4-4.8,2.6-7.4,3.5c-0.2,0.1,0,0.1,0.1,0.1
			c8.8-3,15.7-9.3,21.2-16.6c1.7-2.2,3.2-4.5,4.8-6.9C479.1,800.2,478.8,800.3,478.7,800.3L478.7,800.3z"/>
	</g>
	<g>
		<path class="st8" d="M486.9,828.8c-8.3,7.9-19.2,13.3-30.5,15.1c-3.1,0.5-6.3,0.7-9.4,0.5c-0.1,0-0.4,0.2-0.1,0.2
			c11.5,0.6,23.1-3.4,32.6-9.7c2.7-1.8,5.3-3.8,7.7-6.1C487.3,828.8,487,828.8,486.9,828.8L486.9,828.8z"/>
	</g>
	<g>
		<path class="st8" d="M492.4,853.1c-5.3,5.7-13.2,8.9-20.4,11.4c-7.6,2.6-15.5,4.4-23.5,5.5c-2.9,0.4-5.8,0.8-8.7,0.7
			c-0.1,0-0.4,0.2-0.1,0.2c2.5,0.1,5.1-0.2,7.6-0.5c3.7-0.5,7.4-1.1,11.1-1.9c8.3-1.8,16.7-4.3,24.3-8.2c3.7-1.9,7.3-4.1,10.1-7.2
			C492.8,853,492.5,853,492.4,853.1L492.4,853.1z"/>
	</g>
	<g>
		<rect x="453.4" y="823.9" class="st8" width="33" height="0.2"/>
	</g>
	<g>
		<rect x="446.3" y="845.3" class="st8" width="46.4" height="0.2"/>
	</g>
	<g>
		<rect x="439.2" y="871.6" class="st8" width="60.8" height="0.2"/>
	</g>
	<g>
		<g>
			<circle class="st9" cx="453.4" cy="824" r="1.7"/>
		</g>
		<g>
			<circle class="st5" cx="460" cy="824" r="1.7"/>
		</g>
		<g>
			<circle class="st5" cx="475.6" cy="814.2" r="1.7"/>
		</g>
		<g>
			<circle class="st10" cx="466.6" cy="824" r="1.7"/>
		</g>
		<g>
			<circle class="st9" cx="479.8" cy="824" r="1.7"/>
		</g>
		<g>
			<ellipse class="st9" cx="467" cy="804.3" rx="1.7" ry="1.7"/>
		</g>
		<g>
			<circle class="st8" cx="473.2" cy="824.1" r="1.7"/>
		</g>
		<g>
			<circle class="st8" cx="460" cy="813.2" r="1.7"/>
		</g>
		<g>
			<circle class="st10" cx="486.4" cy="824" r="1.7"/>
		</g>
		<g>
			<circle class="st10" cx="483.6" cy="818.2" r="1.7"/>
		</g>
	</g>
	<g>
		<g>
			<circle class="st9" cx="453.4" cy="845.4" r="1.7"/>
		</g>
		<g>
			<circle class="st5" cx="446.8" cy="845.4" r="1.7"/>
		</g>
		<g>
			<circle class="st5" cx="464.3" cy="838.5" r="1.7"/>
		</g>
		<g>
			<circle class="st5" cx="460" cy="845.4" r="1.7"/>
		</g>
		<g>
			<circle class="st5" cx="477.3" cy="831.8" r="1.7"/>
		</g>
		<g>
			<circle class="st10" cx="466.6" cy="845.4" r="1.7"/>
		</g>
		<g>
			<circle class="st9" cx="479.8" cy="845.4" r="1.7"/>
		</g>
		<g>
			<circle class="st9" cx="458.4" cy="834.7" r="1.7"/>
		</g>
		<g>
			<circle class="st8" cx="473.2" cy="845.4" r="1.7"/>
		</g>
		<g>
			<circle class="st10" cx="486.4" cy="845.4" r="1.7"/>
		</g>
		<g>
			<circle class="st10" cx="483.6" cy="838.5" r="1.7"/>
		</g>
		<g>
			<circle class="st9" cx="492.7" cy="845.4" r="1.7"/>
		</g>
	</g>
	<g>
		<g>
			<circle class="st9" cx="453.4" cy="871.7" r="1.7"/>
		</g>
		<g>
			<circle class="st9" cx="475.7" cy="854.2" r="1.7"/>
		</g>
		<g>
			<circle class="st5" cx="446.8" cy="871.7" r="1.7"/>
		</g>
		<g>
			<circle class="st10" cx="439.7" cy="871.7" r="1.7"/>
		</g>
		<g>
			<circle class="st10" cx="491" cy="862.6" r="1.7"/>
		</g>
		<g>
			<circle class="st5" cx="460" cy="871.7" r="1.7"/>
		</g>
		<g>
			<circle class="st5" cx="463.4" cy="861.8" r="1.7"/>
		</g>
		<g>
			<circle class="st10" cx="466.6" cy="871.7" r="1.7"/>
		</g>
		<g>
			<circle class="st8" cx="473.2" cy="871.7" r="1.7"/>
		</g>
		<g>
			<circle class="st8" cx="483.6" cy="864.6" r="1.7"/>
		</g>
		<g>
			<circle class="st8" cx="455.1" cy="854.8" r="1.7"/>
		</g>
		<g>
			<circle class="st9" cx="479.8" cy="871.7" r="1.7"/>
		</g>
		<g>
			<circle class="st9" cx="448.5" cy="864" r="1.7"/>
		</g>
		<g>
			<circle class="st10" cx="486.4" cy="871.7" r="1.7"/>
		</g>
		<g>
			<circle class="st8" cx="492.7" cy="871.7" r="1.7"/>
		</g>
		<g>
			<circle class="st9" cx="499.6" cy="871.7" r="1.7"/>
		</g>
	</g>
</g>
<g>
	<g>
		<g>
			<g>
				<g>
					<rect x="137.9" y="863.8" class="st0" width="7.6" height="31.6"/>
				</g>
				<g>
					<rect x="137.9" y="863.8" class="st1" width="3.8" height="31.6"/>
				</g>
			</g>
			<g>
				<g>
					<g>
						<polygon class="st2" points="111.5,875.6 141.7,818.7 172,875.6 						"/>
					</g>
					<g>
						<polygon class="st3" points="141.7,875.6 141.7,818.7 172,875.6 						"/>
					</g>
					<g>
						<polygon class="st2" points="160.1,853.3 141.7,853.3 141.7,818.7 						"/>
					</g>
					<g>
						<polygon class="st4" points="141.7,818.7 141.7,853.3 123.4,853.3 						"/>
					</g>
				</g>
				<g>
					<g>
						<polygon class="st2" points="118.1,851.4 141.7,806.8 165.4,851.4 						"/>
					</g>
					<g>
						<polygon class="st3" points="141.7,851.4 141.7,806.8 165.4,851.4 						"/>
					</g>
					<g>
						<polygon class="st2" points="156.1,833.9 141.7,833.9 141.7,806.8 						"/>
					</g>
					<g>
						<polygon class="st4" points="141.7,806.8 141.7,833.9 127.4,833.9 						"/>
					</g>
				</g>
				<g>
					<g>
						<polygon class="st2" points="161,832 122.5,832 129.7,818.5 141.7,795.8 153.8,818.5 						"/>
					</g>
					<g>
						<polygon class="st3" points="141.7,832 141.7,795.8 161,832 						"/>
					</g>
					<g>
						<polygon class="st5" points="141.7,789.9 143.3,793.1 146.9,793.7 144.3,796.2 144.9,799.7 141.7,798 138.6,799.7 
							139.2,796.2 136.6,793.7 140.2,793.1 						"/>
					</g>
				</g>
			</g>
		</g>
		<g class="st6">
			<polygon class="st7" points="137.9,895.4 120.1,901 145.6,895.4 			"/>
		</g>
	</g>
	<g>
		<path class="st8" d="M149.8,810.2c-4.5,6.9-9.6,13.7-16.7,18.1c-2.1,1.3-4.4,2.4-6.8,3.2c-0.2,0.1,0,0.1,0.1,0.1
			c8.1-2.8,14.3-8.5,19.4-15.2c1.5-2,3-4.1,4.4-6.3C150.1,810.1,149.8,810.1,149.8,810.2L149.8,810.2z"/>
	</g>
	<g>
		<path class="st8" d="M157.3,836.3c-7.5,7.2-17.6,12.1-27.9,13.8c-2.8,0.5-5.7,0.6-8.6,0.5c-0.1,0-0.3,0.1-0.1,0.2
			c10.5,0.5,21.1-3.1,29.8-8.9c2.5-1.6,4.9-3.5,7-5.6C157.6,836.2,157.3,836.2,157.3,836.3L157.3,836.3z"/>
	</g>
	<g>
		<path class="st8" d="M162.3,858.4c-4.9,5.2-12,8.2-18.6,10.4c-6.9,2.4-14.2,4-21.4,5c-2.6,0.4-5.3,0.7-8,0.6
			c-0.1,0-0.3,0.2-0.1,0.2c2.3,0.1,4.7-0.2,7-0.5c3.4-0.4,6.8-1,10.1-1.8c7.6-1.7,15.2-3.9,22.2-7.5c3.4-1.7,6.6-3.8,9.2-6.6
			C162.7,858.3,162.4,858.3,162.3,858.4L162.3,858.4z"/>
	</g>
	<g>
		<rect x="126.7" y="831.8" class="st8" width="30.1" height="0.2"/>
	</g>
	<g>
		<rect x="120.2" y="851.3" class="st8" width="42.4" height="0.2"/>
	</g>
	<g>
		<rect x="113.7" y="875.3" class="st8" width="55.5" height="0.2"/>
	</g>
	<g>
		<g>
			<circle class="st9" cx="126.7" cy="831.9" r="1.5"/>
		</g>
		<g>
			<circle class="st5" cx="132.7" cy="831.9" r="1.5"/>
		</g>
		<g>
			<circle class="st5" cx="146.9" cy="822.9" r="1.5"/>
		</g>
		<g>
			<circle class="st10" cx="138.7" cy="831.9" r="1.5"/>
		</g>
		<g>
			<circle class="st9" cx="150.8" cy="831.9" r="1.5"/>
		</g>
		<g>
			<ellipse class="st9" cx="139.1" cy="813.8" rx="1.5" ry="1.5"/>
		</g>
		<g>
			<circle class="st8" cx="144.8" cy="832" r="1.5"/>
		</g>
		<g>
			<circle class="st8" cx="132.7" cy="822" r="1.5"/>
		</g>
		<g>
			<circle class="st10" cx="156.8" cy="831.9" r="1.5"/>
		</g>
		<g>
			<circle class="st10" cx="154.2" cy="826.5" r="1.5"/>
		</g>
	</g>
	<g>
		<g>
			<circle class="st9" cx="126.7" cy="851.4" r="1.5"/>
		</g>
		<g>
			<circle class="st5" cx="120.6" cy="851.4" r="1.5"/>
		</g>
		<g>
			<circle class="st5" cx="136.6" cy="845.1" r="1.5"/>
		</g>
		<g>
			<circle class="st5" cx="132.7" cy="851.4" r="1.5"/>
		</g>
		<g>
			<circle class="st5" cx="148.5" cy="839" r="1.5"/>
		</g>
		<g>
			<circle class="st10" cx="138.7" cy="851.4" r="1.5"/>
		</g>
		<g>
			<circle class="st9" cx="150.8" cy="851.4" r="1.5"/>
		</g>
		<g>
			<circle class="st9" cx="131.2" cy="841.6" r="1.5"/>
		</g>
		<g>
			<circle class="st8" cx="144.8" cy="851.4" r="1.5"/>
		</g>
		<g>
			<circle class="st10" cx="156.8" cy="851.4" r="1.5"/>
		</g>
		<g>
			<circle class="st10" cx="154.2" cy="845.1" r="1.5"/>
		</g>
		<g>
			<circle class="st9" cx="162.5" cy="851.4" r="1.5"/>
		</g>
	</g>
	<g>
		<g>
			<circle class="st9" cx="126.7" cy="875.4" r="1.5"/>
		</g>
		<g>
			<circle class="st9" cx="147" cy="859.5" r="1.5"/>
		</g>
		<g>
			<circle class="st5" cx="120.6" cy="875.4" r="1.5"/>
		</g>
		<g>
			<circle class="st10" cx="114.2" cy="875.4" r="1.5"/>
		</g>
		<g>
			<circle class="st10" cx="161" cy="867.1" r="1.5"/>
		</g>
		<g>
			<circle class="st5" cx="132.7" cy="875.4" r="1.5"/>
		</g>
		<g>
			<circle class="st5" cx="135.8" cy="866.4" r="1.5"/>
		</g>
		<g>
			<circle class="st10" cx="138.7" cy="875.4" r="1.5"/>
		</g>
		<g>
			<circle class="st8" cx="144.8" cy="875.4" r="1.5"/>
		</g>
		<g>
			<circle class="st8" cx="154.2" cy="868.9" r="1.5"/>
		</g>
		<g>
			<circle class="st8" cx="128.2" cy="860" r="1.5"/>
		</g>
		<g>
			<circle class="st9" cx="150.8" cy="875.4" r="1.5"/>
		</g>
		<g>
			<circle class="st9" cx="122.2" cy="868.4" r="1.5"/>
		</g>
		<g>
			<circle class="st10" cx="156.8" cy="875.4" r="1.5"/>
		</g>
		<g>
			<circle class="st8" cx="162.5" cy="875.4" r="1.5"/>
		</g>
		<g>
			<circle class="st9" cx="168.9" cy="875.4" r="1.5"/>
		</g>
	</g>
</g>
<g>
	<rect x="-393.7" class="st11" width="1144.7" height="979.7"/>
</g>
<g>
	<g>
		<polygon class="st12" points="-393.7,682.4 -230.9,682.4 -263.5,273.8 -393.7,541.5 		"/>
	</g>
	<g>
		<polygon class="st13" points="-263.1,273 -263.5,273.8 -230.9,682.4 -81.3,682.4 		"/>
	</g>
	<g>
		<polygon class="st8" points="-326.5,403.4 -294.9,373.9 -285.9,409.6 -263.5,384 -251.5,424.8 -263.1,273 		"/>
	</g>
	<g>
		<polygon class="st14" points="-207.4,398.4 -223.9,387.5 -225.7,413.3 -245.8,391.9 -251.5,424.8 -263.1,273 		"/>
	</g>
</g>
<g>
	<g>
		<polygon class="st12" points="-273.5,682.4 -101.4,682.4 -134.5,426.1 		"/>
	</g>
	<g>
		<polygon class="st13" points="-133.8,424.8 -134.5,426.1 -101.4,682.4 -11.3,682.4 		"/>
	</g>
	<g>
		<polygon class="st8" points="-169.9,491.4 -150.4,477.7 -145.4,512.8 -134.5,495.3 -122.5,519.2 -134.5,426.1 		"/>
	</g>
	<g>
		<polygon class="st14" points="-101.4,492.8 -113.5,483.7 -122.5,519.2 -134.5,426.1 -133.8,424.8 		"/>
	</g>
</g>
<g>
	<g>
		<polygon class="st13" points="310.8,683.2 414,683.2 441.6,396.9 		"/>
	</g>
	<g>
		<polygon class="st12" points="443.1,393.6 441.6,396.9 414,683.2 582.9,683.2 		"/>
	</g>
	<g>
		<polygon class="st14" points="404,479.2 425.5,460.9 433.9,477.1 441.6,396.9 		"/>
	</g>
	<g>
		<polygon class="st8" points="443.1,393.6 478.9,467.6 451.8,448.3 433.9,477.1 441.6,396.9 		"/>
	</g>
</g>
<g>
	<g>
		<polygon class="st13" points="432,683.2 584.3,683.2 631.1,226.7 		"/>
	</g>
	<g>
		<polygon class="st12" points="752.3,477.5 633.6,221.1 631.1,226.7 584.3,683.2 752.3,683.2 		"/>
	</g>
	<g>
		<polygon class="st14" points="590.7,319.3 611,297.8 621.1,324.3 631.1,226.7 		"/>
	</g>
	<g>
		<polygon class="st8" points="633.6,221.1 683.2,328.3 660.9,299.7 655.8,324.3 637.5,292.9 621.1,324.3 631.1,226.7 		"/>
	</g>
</g>
<g>
	<g>
		<polygon class="st12" points="299.1,477.7 298,479.8 254.6,682.4 389.3,682.4 		"/>
	</g>
	<g>
		<polygon class="st13" points="198.9,682.4 254.6,682.4 298,479.8 		"/>
	</g>
	<g>
		<polygon class="st14" points="278,520.7 298,479.8 289,522.1 286.9,512.8 		"/>
	</g>
	<g>
		<polygon class="st8" points="299.1,477.7 316.4,517.1 305.7,508 304.8,520.4 297.3,507.5 289,522.1 298,479.8 		"/>
	</g>
</g>
<g>
	<g>
		<path class="st12" d="M-122.5,682.4c0,0,85.9-107.5,143.3-88.7c57.4,18.8,104,88.7,104,88.7L-122.5,682.4z"/>
	</g>
	<g>
		<path class="st13" d="M20.9,602.9c44.5,14.6,104,79.5,104,79.5s-46.6-69.9-104-88.7c-57.4-18.8-143.3,88.7-143.3,88.7
			S-26.2,587.5,20.9,602.9z"/>
	</g>
</g>
<g>
	<rect x="-393.7" y="683.2" class="st8" width="1144.7" height="238.6"/>
</g>
<g>
	<path class="st8" d="M751.1,847.8v132H-393.7V752.6c64,0.4,127.9,5.9,191.2,16.4l288.4,48l209.6,37
		C446.9,880.7,601.7,878.4,751.1,847.8z"/>
</g>
<g>
	<path class="st8" d="M752.3,637.9l-1.2,226H-393.7V636.7c64,0.4,127.9,5.9,191.2,16.4l288.4,48l216.6,4.3
		C453.9,732.2,603,668.5,752.3,637.9z"/>
</g>
<g>
	<path class="st15" d="M751.1,907.6c-89.5,25.9-206.4,18.1-298.6,5c-92.2-13.1-183.6-34-276.6-39c-66.8-3.6-133.7,1-200.4,5.6
		c-123.9,8.6-245.3-57.2-369.2-48.6v149.2H751.1V907.6z"/>
</g>
<g>
	<g>
		<path class="st12" d="M298,682.4c0,0-57.1-60.5-132.4-56.5c-67.3,3.6-177,56.5-177,56.5H298z"/>
	</g>
	<g>
		<path class="st13" d="M165.7,636.4c55.3-3,132.4,46,132.4,46S241,621.9,165.7,626c-67.3,3.6-177,56.5-177,56.5
			S117.5,639,165.7,636.4z"/>
	</g>
</g>
<g>
	<g>
		<g>
			<g>
				<g>
					<rect x="584.5" y="673.8" class="st0" width="4.4" height="18.1"/>
				</g>
				<g>
					<rect x="584.5" y="673.8" class="st1" width="2.2" height="18.1"/>
				</g>
			</g>
			<g>
				<g>
					<g>
						<polygon class="st2" points="569.3,680.6 586.7,648 604.1,680.6 						"/>
					</g>
					<g>
						<polygon class="st3" points="586.7,680.6 586.7,648 604.1,680.6 						"/>
					</g>
					<g>
						<polygon class="st2" points="597.2,667.8 586.7,667.8 586.7,648 						"/>
					</g>
					<g>
						<polygon class="st4" points="586.7,648 586.7,667.8 576.1,667.8 						"/>
					</g>
				</g>
				<g>
					<g>
						<polygon class="st2" points="573.1,666.7 586.7,641.1 600.3,666.7 						"/>
					</g>
					<g>
						<polygon class="st3" points="586.7,666.7 586.7,641.1 600.3,666.7 						"/>
					</g>
					<g>
						<polygon class="st2" points="595,656.7 586.7,656.7 586.7,641.1 						"/>
					</g>
					<g>
						<polygon class="st4" points="586.7,641.1 586.7,656.7 578.4,656.7 						"/>
					</g>
				</g>
				<g>
					<g>
						<polygon class="st2" points="597.7,655.6 575.6,655.6 579.7,647.8 586.7,634.8 593.6,647.8 						"/>
					</g>
					<g>
						<polygon class="st3" points="586.7,655.6 586.7,634.8 597.7,655.6 						"/>
					</g>
				</g>
			</g>
		</g>
		<g class="st6">
			<polygon class="st7" points="584.5,691.9 574.2,695.1 588.9,691.9 			"/>
		</g>
	</g>
	<g>
		<g>
			<g>
				<g>
					<rect x="619.2" y="661.9" class="st0" width="8.5" height="35.3"/>
				</g>
				<g>
					<rect x="619.2" y="661.9" class="st1" width="4.3" height="35.3"/>
				</g>
			</g>
			<g>
				<g>
					<g>
						<polygon class="st2" points="589.6,675.1 623.4,611.7 657.3,675.1 						"/>
					</g>
					<g>
						<polygon class="st3" points="623.4,675.1 623.4,611.7 657.3,675.1 						"/>
					</g>
					<g>
						<polygon class="st2" points="644,650.2 623.4,650.2 623.4,611.7 						"/>
					</g>
					<g>
						<polygon class="st4" points="623.4,611.7 623.4,650.2 602.9,650.2 						"/>
					</g>
				</g>
				<g>
					<g>
						<polygon class="st2" points="596.9,648.1 623.4,598.3 650,648.1 						"/>
					</g>
					<g>
						<polygon class="st3" points="623.4,648.1 623.4,598.3 650,648.1 						"/>
					</g>
					<g>
						<polygon class="st2" points="639.6,628.6 623.4,628.6 623.4,598.3 						"/>
					</g>
					<g>
						<polygon class="st4" points="623.4,598.3 623.4,628.6 607.3,628.6 						"/>
					</g>
				</g>
				<g>
					<g>
						<polygon class="st2" points="645,626.4 601.9,626.4 609.9,611.4 623.4,586 636.9,611.4 						"/>
					</g>
					<g>
						<polygon class="st3" points="623.4,626.4 623.4,586 645,626.4 						"/>
					</g>
				</g>
			</g>
		</g>
		<g class="st6">
			<polygon class="st7" points="619.2,697.2 599.2,703.5 627.7,697.2 			"/>
		</g>
	</g>
	<g>
		<g>
			<g>
				<g>
					<rect x="664" y="678.4" class="st0" width="3.1" height="12.7"/>
				</g>
				<g>
					<rect x="664" y="678.4" class="st1" width="1.5" height="12.7"/>
				</g>
			</g>
			<g>
				<g>
					<g>
						<polygon class="st2" points="653.4,683.2 665.6,660.4 677.7,683.2 						"/>
					</g>
					<g>
						<polygon class="st3" points="665.6,683.2 665.6,660.4 677.7,683.2 						"/>
					</g>
					<g>
						<polygon class="st2" points="672.9,674.2 665.6,674.2 665.6,660.4 						"/>
					</g>
					<g>
						<polygon class="st4" points="665.6,660.4 665.6,674.2 658.2,674.2 						"/>
					</g>
				</g>
				<g>
					<g>
						<polygon class="st2" points="656,673.5 665.6,655.6 675.1,673.5 						"/>
					</g>
					<g>
						<polygon class="st3" points="665.6,673.5 665.6,655.6 675.1,673.5 						"/>
					</g>
					<g>
						<polygon class="st2" points="671.4,666.4 665.6,666.4 665.6,655.6 						"/>
					</g>
					<g>
						<polygon class="st4" points="665.6,655.6 665.6,666.4 659.8,666.4 						"/>
					</g>
				</g>
				<g>
					<g>
						<polygon class="st2" points="673.3,665.7 657.8,665.7 660.7,660.3 665.6,651.2 670.4,660.3 						"/>
					</g>
					<g>
						<polygon class="st3" points="665.6,665.7 665.6,651.2 673.3,665.7 						"/>
					</g>
				</g>
			</g>
		</g>
		<g class="st6">
			<polygon class="st7" points="664,691.1 656.9,693.4 667.1,691.1 			"/>
		</g>
	</g>
	<g>
		<g>
			<g>
				<g>
					<rect x="694.2" y="664.1" class="st0" width="6.1" height="25.4"/>
				</g>
				<g>
					<rect x="694.2" y="664.1" class="st1" width="3.1" height="25.4"/>
				</g>
			</g>
			<g>
				<g>
					<g>
						<polygon class="st2" points="672.9,673.6 697.2,628 721.5,673.6 						"/>
					</g>
					<g>
						<polygon class="st3" points="697.2,673.6 697.2,628 721.5,673.6 						"/>
					</g>
					<g>
						<polygon class="st2" points="712,655.7 697.2,655.7 697.2,628 						"/>
					</g>
					<g>
						<polygon class="st4" points="697.2,628 697.2,655.7 682.5,655.7 						"/>
					</g>
				</g>
				<g>
					<g>
						<polygon class="st2" points="678.2,654.2 697.2,618.5 716.3,654.2 						"/>
					</g>
					<g>
						<polygon class="st3" points="697.2,654.2 697.2,618.5 716.3,654.2 						"/>
					</g>
					<g>
						<polygon class="st2" points="708.8,640.2 697.2,640.2 697.2,618.5 						"/>
					</g>
					<g>
						<polygon class="st4" points="697.2,618.5 697.2,640.2 685.6,640.2 						"/>
					</g>
				</g>
				<g>
					<g>
						<polygon class="st2" points="712.7,638.6 681.8,638.6 687.5,627.8 697.2,609.6 706.9,627.8 						"/>
					</g>
					<g>
						<polygon class="st3" points="697.2,638.6 697.2,609.6 712.7,638.6 						"/>
					</g>
				</g>
			</g>
		</g>
		<g class="st6">
			<polygon class="st7" points="694.2,689.5 679.8,694 700.3,689.5 			"/>
		</g>
	</g>
	<g>
		<g>
			<g>
				<g>
					<rect x="400.4" y="673.8" class="st0" width="4.4" height="18.1"/>
				</g>
				<g>
					<rect x="400.4" y="673.8" class="st1" width="2.2" height="18.1"/>
				</g>
			</g>
			<g>
				<g>
					<g>
						<polygon class="st2" points="385.2,680.6 402.6,648 419.9,680.6 						"/>
					</g>
					<g>
						<polygon class="st3" points="402.6,680.6 402.6,648 419.9,680.6 						"/>
					</g>
					<g>
						<polygon class="st2" points="413.1,667.8 402.6,667.8 402.6,648 						"/>
					</g>
					<g>
						<polygon class="st4" points="402.6,648 402.6,667.8 392,667.8 						"/>
					</g>
				</g>
				<g>
					<g>
						<polygon class="st2" points="388.9,666.7 402.6,641.1 416.2,666.7 						"/>
					</g>
					<g>
						<polygon class="st3" points="402.6,666.7 402.6,641.1 416.2,666.7 						"/>
					</g>
					<g>
						<polygon class="st2" points="410.8,656.7 402.6,656.7 402.6,641.1 						"/>
					</g>
					<g>
						<polygon class="st4" points="402.6,641.1 402.6,656.7 394.3,656.7 						"/>
					</g>
				</g>
				<g>
					<g>
						<polygon class="st2" points="413.6,655.6 391.5,655.6 395.6,647.8 402.6,634.8 409.5,647.8 						"/>
					</g>
					<g>
						<polygon class="st3" points="402.6,655.6 402.6,634.8 413.6,655.6 						"/>
					</g>
				</g>
			</g>
		</g>
		<g class="st6">
			<polygon class="st7" points="400.4,691.9 390.1,695.1 404.8,691.9 			"/>
		</g>
	</g>
	<g>
		<g>
			<g>
				<g>
					<rect x="435.1" y="661.9" class="st0" width="8.5" height="35.3"/>
				</g>
				<g>
					<rect x="435.1" y="661.9" class="st1" width="4.3" height="35.3"/>
				</g>
			</g>
			<g>
				<g>
					<g>
						<polygon class="st2" points="405.5,675.1 439.3,611.7 473.2,675.1 						"/>
					</g>
					<g>
						<polygon class="st3" points="439.3,675.1 439.3,611.7 473.2,675.1 						"/>
					</g>
					<g>
						<polygon class="st2" points="459.9,650.2 439.3,650.2 439.3,611.7 						"/>
					</g>
					<g>
						<polygon class="st4" points="439.3,611.7 439.3,650.2 418.8,650.2 						"/>
					</g>
				</g>
				<g>
					<g>
						<polygon class="st2" points="412.8,648.1 439.3,598.3 465.8,648.1 						"/>
					</g>
					<g>
						<polygon class="st3" points="439.3,648.1 439.3,598.3 465.8,648.1 						"/>
					</g>
					<g>
						<polygon class="st2" points="455.4,628.6 439.3,628.6 439.3,598.3 						"/>
					</g>
					<g>
						<polygon class="st4" points="439.3,598.3 439.3,628.6 423.2,628.6 						"/>
					</g>
				</g>
				<g>
					<g>
						<polygon class="st2" points="460.9,626.4 417.8,626.4 425.8,611.4 439.3,586 452.8,611.4 						"/>
					</g>
					<g>
						<polygon class="st3" points="439.3,626.4 439.3,586 460.9,626.4 						"/>
					</g>
				</g>
			</g>
		</g>
		<g class="st6">
			<polygon class="st7" points="435.1,697.2 415.1,703.5 443.6,697.2 			"/>
		</g>
	</g>
	<g>
		<g>
			<g>
				<g>
					<rect x="479.9" y="678.4" class="st0" width="3.1" height="12.7"/>
				</g>
				<g>
					<rect x="479.9" y="678.4" class="st1" width="1.5" height="12.7"/>
				</g>
			</g>
			<g>
				<g>
					<g>
						<polygon class="st2" points="469.3,683.2 481.4,660.4 493.6,683.2 						"/>
					</g>
					<g>
						<polygon class="st3" points="481.4,683.2 481.4,660.4 493.6,683.2 						"/>
					</g>
					<g>
						<polygon class="st2" points="488.8,674.2 481.4,674.2 481.4,660.4 						"/>
					</g>
					<g>
						<polygon class="st4" points="481.4,660.4 481.4,674.2 474.1,674.2 						"/>
					</g>
				</g>
				<g>
					<g>
						<polygon class="st2" points="471.9,673.5 481.4,655.6 491,673.5 						"/>
					</g>
					<g>
						<polygon class="st3" points="481.4,673.5 481.4,655.6 491,673.5 						"/>
					</g>
					<g>
						<polygon class="st2" points="487.2,666.4 481.4,666.4 481.4,655.6 						"/>
					</g>
					<g>
						<polygon class="st4" points="481.4,655.6 481.4,666.4 475.7,666.4 						"/>
					</g>
				</g>
				<g>
					<g>
						<polygon class="st2" points="489.2,665.7 473.7,665.7 476.6,660.3 481.4,651.2 486.3,660.3 						"/>
					</g>
					<g>
						<polygon class="st3" points="481.4,665.7 481.4,651.2 489.2,665.7 						"/>
					</g>
				</g>
			</g>
		</g>
		<g class="st6">
			<polygon class="st7" points="479.9,691.1 472.7,693.4 483,691.1 			"/>
		</g>
	</g>
	<g>
		<g>
			<g>
				<g>
					<rect x="510" y="664.1" class="st0" width="6.1" height="25.4"/>
				</g>
				<g>
					<rect x="510" y="664.1" class="st1" width="3.1" height="25.4"/>
				</g>
			</g>
			<g>
				<g>
					<g>
						<polygon class="st2" points="488.8,673.6 513.1,628 537.4,673.6 						"/>
					</g>
					<g>
						<polygon class="st3" points="513.1,673.6 513.1,628 537.4,673.6 						"/>
					</g>
					<g>
						<polygon class="st2" points="527.9,655.7 513.1,655.7 513.1,628 						"/>
					</g>
					<g>
						<polygon class="st4" points="513.1,628 513.1,655.7 498.3,655.7 						"/>
					</g>
				</g>
				<g>
					<g>
						<polygon class="st2" points="494,654.2 513.1,618.5 532.2,654.2 						"/>
					</g>
					<g>
						<polygon class="st3" points="513.1,654.2 513.1,618.5 532.2,654.2 						"/>
					</g>
					<g>
						<polygon class="st2" points="524.7,640.2 513.1,640.2 513.1,618.5 						"/>
					</g>
					<g>
						<polygon class="st4" points="513.1,618.5 513.1,640.2 501.5,640.2 						"/>
					</g>
				</g>
				<g>
					<g>
						<polygon class="st2" points="528.6,638.6 497.6,638.6 503.4,627.8 513.1,609.6 522.8,627.8 						"/>
					</g>
					<g>
						<polygon class="st3" points="513.1,638.6 513.1,609.6 528.6,638.6 						"/>
					</g>
				</g>
			</g>
		</g>
		<g class="st6">
			<polygon class="st7" points="510,689.5 495.7,694 516.2,689.5 			"/>
		</g>
	</g>
</g>
<g>
	<g>
		<g>
			<g>
				<g>
					<rect x="-175.9" y="673" class="st0" width="4.4" height="18.2"/>
				</g>
				<g>
					<rect x="-175.9" y="673" class="st1" width="2.2" height="18.2"/>
				</g>
			</g>
			<g>
				<g>
					<g>
						<polygon class="st2" points="-191.1,679.7 -173.7,647.1 -156.3,679.7 						"/>
					</g>
					<g>
						<polygon class="st3" points="-173.7,679.7 -173.7,647.1 -156.3,679.7 						"/>
					</g>
					<g>
						<polygon class="st2" points="-163.1,666.9 -173.7,666.9 -173.7,647.1 						"/>
					</g>
					<g>
						<polygon class="st4" points="-173.7,647.1 -173.7,666.9 -184.2,666.9 						"/>
					</g>
				</g>
				<g>
					<g>
						<polygon class="st2" points="-187.3,665.8 -173.7,640.2 -160.1,665.8 						"/>
					</g>
					<g>
						<polygon class="st3" points="-173.7,665.8 -173.7,640.2 -160.1,665.8 						"/>
					</g>
					<g>
						<polygon class="st2" points="-165.4,655.8 -173.7,655.8 -173.7,640.2 						"/>
					</g>
					<g>
						<polygon class="st4" points="-173.7,640.2 -173.7,655.8 -182,655.8 						"/>
					</g>
				</g>
				<g>
					<g>
						<polygon class="st2" points="-162.6,654.7 -184.7,654.7 -180.6,646.9 -173.7,633.9 -166.8,646.9 						"/>
					</g>
					<g>
						<polygon class="st3" points="-173.7,654.7 -173.7,633.9 -162.6,654.7 						"/>
					</g>
				</g>
			</g>
		</g>
		<g class="st6">
			<polygon class="st7" points="-175.9,691.1 -186.1,694.3 -171.5,691.1 			"/>
		</g>
	</g>
	<g>
		<g>
			<g>
				<g>
					<rect x="-141.2" y="661.1" class="st0" width="8.5" height="35.4"/>
				</g>
				<g>
					<rect x="-141.2" y="661.1" class="st1" width="4.3" height="35.4"/>
				</g>
			</g>
			<g>
				<g>
					<g>
						<polygon class="st2" points="-170.8,674.3 -136.9,610.7 -103.1,674.3 						"/>
					</g>
					<g>
						<polygon class="st3" points="-136.9,674.3 -136.9,610.7 -103.1,674.3 						"/>
					</g>
					<g>
						<polygon class="st2" points="-116.4,649.3 -136.9,649.3 -136.9,610.7 						"/>
					</g>
					<g>
						<polygon class="st4" points="-136.9,610.7 -136.9,649.3 -157.5,649.3 						"/>
					</g>
				</g>
				<g>
					<g>
						<polygon class="st2" points="-163.5,647.2 -136.9,597.3 -110.4,647.2 						"/>
					</g>
					<g>
						<polygon class="st3" points="-136.9,647.2 -136.9,597.3 -110.4,647.2 						"/>
					</g>
					<g>
						<polygon class="st2" points="-120.8,627.6 -136.9,627.6 -136.9,597.3 						"/>
					</g>
					<g>
						<polygon class="st4" points="-136.9,597.3 -136.9,627.6 -153,627.6 						"/>
					</g>
				</g>
				<g>
					<g>
						<polygon class="st2" points="-115.4,625.5 -158.5,625.5 -150.4,610.4 -136.9,585 -123.4,610.4 						"/>
					</g>
					<g>
						<polygon class="st3" points="-136.9,625.5 -136.9,585 -115.4,625.5 						"/>
					</g>
				</g>
			</g>
		</g>
		<g class="st6">
			<polygon class="st7" points="-141.2,696.5 -161.1,702.7 -132.7,696.5 			"/>
		</g>
	</g>
	<g>
		<g>
			<g>
				<g>
					<rect x="-96.3" y="677.6" class="st0" width="3.1" height="12.7"/>
				</g>
				<g>
					<rect x="-96.3" y="677.6" class="st1" width="1.5" height="12.7"/>
				</g>
			</g>
			<g>
				<g>
					<g>
						<polygon class="st2" points="-107,682.4 -94.8,659.5 -82.7,682.4 						"/>
					</g>
					<g>
						<polygon class="st3" points="-94.8,682.4 -94.8,659.5 -82.7,682.4 						"/>
					</g>
					<g>
						<polygon class="st2" points="-87.4,673.4 -94.8,673.4 -94.8,659.5 						"/>
					</g>
					<g>
						<polygon class="st4" points="-94.8,659.5 -94.8,673.4 -102.2,673.4 						"/>
					</g>
				</g>
				<g>
					<g>
						<polygon class="st2" points="-104.3,672.6 -94.8,654.7 -85.3,672.6 						"/>
					</g>
					<g>
						<polygon class="st3" points="-94.8,672.6 -94.8,654.7 -85.3,672.6 						"/>
					</g>
					<g>
						<polygon class="st2" points="-89,665.6 -94.8,665.6 -94.8,654.7 						"/>
					</g>
					<g>
						<polygon class="st4" points="-94.8,654.7 -94.8,665.6 -100.6,665.6 						"/>
					</g>
				</g>
				<g>
					<g>
						<polygon class="st2" points="-87.1,664.8 -102.5,664.8 -99.7,659.4 -94.8,650.3 -90,659.4 						"/>
					</g>
					<g>
						<polygon class="st3" points="-94.8,664.8 -94.8,650.3 -87.1,664.8 						"/>
					</g>
				</g>
			</g>
		</g>
		<g class="st6">
			<polygon class="st7" points="-96.3,690.3 -103.5,692.6 -93.3,690.3 			"/>
		</g>
	</g>
	<g>
		<g>
			<g>
				<g>
					<rect x="-66.2" y="663.3" class="st0" width="6.1" height="25.4"/>
				</g>
				<g>
					<rect x="-66.2" y="663.3" class="st1" width="3.1" height="25.4"/>
				</g>
			</g>
			<g>
				<g>
					<g>
						<polygon class="st2" points="-87.5,672.8 -63.1,627.1 -38.8,672.8 						"/>
					</g>
					<g>
						<polygon class="st3" points="-63.1,672.8 -63.1,627.1 -38.8,672.8 						"/>
					</g>
					<g>
						<polygon class="st2" points="-48.4,654.8 -63.1,654.8 -63.1,627.1 						"/>
					</g>
					<g>
						<polygon class="st4" points="-63.1,627.1 -63.1,654.8 -77.9,654.8 						"/>
					</g>
				</g>
				<g>
					<g>
						<polygon class="st2" points="-82.2,653.3 -63.1,617.5 -44.1,653.3 						"/>
					</g>
					<g>
						<polygon class="st3" points="-63.1,653.3 -63.1,617.5 -44.1,653.3 						"/>
					</g>
					<g>
						<polygon class="st2" points="-51.6,639.2 -63.1,639.2 -63.1,617.5 						"/>
					</g>
					<g>
						<polygon class="st4" points="-63.1,617.5 -63.1,639.2 -74.7,639.2 						"/>
					</g>
				</g>
				<g>
					<g>
						<polygon class="st2" points="-47.7,637.7 -78.6,637.7 -72.9,626.9 -63.1,608.6 -53.4,626.9 						"/>
					</g>
					<g>
						<polygon class="st3" points="-63.1,637.7 -63.1,608.6 -47.7,637.7 						"/>
					</g>
				</g>
			</g>
		</g>
		<g class="st6">
			<polygon class="st7" points="-66.2,688.7 -80.5,693.2 -60.1,688.7 			"/>
		</g>
	</g>
	<g>
		<g>
			<g>
				<g>
					<rect x="-360" y="673" class="st0" width="4.4" height="18.2"/>
				</g>
				<g>
					<rect x="-360" y="673" class="st1" width="2.2" height="18.2"/>
				</g>
			</g>
			<g>
				<g>
					<g>
						<polygon class="st2" points="-375.2,679.7 -357.8,647.1 -340.4,679.7 						"/>
					</g>
					<g>
						<polygon class="st3" points="-357.8,679.7 -357.8,647.1 -340.4,679.7 						"/>
					</g>
					<g>
						<polygon class="st2" points="-347.3,666.9 -357.8,666.9 -357.8,647.1 						"/>
					</g>
					<g>
						<polygon class="st4" points="-357.8,647.1 -357.8,666.9 -368.4,666.9 						"/>
					</g>
				</g>
				<g>
					<g>
						<polygon class="st2" points="-371.4,665.8 -357.8,640.2 -344.2,665.8 						"/>
					</g>
					<g>
						<polygon class="st3" points="-357.8,665.8 -357.8,640.2 -344.2,665.8 						"/>
					</g>
					<g>
						<polygon class="st2" points="-349.5,655.8 -357.8,655.8 -357.8,640.2 						"/>
					</g>
					<g>
						<polygon class="st4" points="-357.8,640.2 -357.8,655.8 -366.1,655.8 						"/>
					</g>
				</g>
				<g>
					<g>
						<polygon class="st2" points="-346.8,654.7 -368.9,654.7 -364.7,646.9 -357.8,633.9 -350.9,646.9 						"/>
					</g>
					<g>
						<polygon class="st3" points="-357.8,654.7 -357.8,633.9 -346.8,654.7 						"/>
					</g>
				</g>
			</g>
		</g>
		<g class="st6">
			<polygon class="st7" points="-360,691.1 -370.2,694.3 -355.6,691.1 			"/>
		</g>
	</g>
	<g>
		<g>
			<g>
				<g>
					<rect x="-325.3" y="661.1" class="st0" width="8.5" height="35.4"/>
				</g>
				<g>
					<rect x="-325.3" y="661.1" class="st1" width="4.3" height="35.4"/>
				</g>
			</g>
			<g>
				<g>
					<g>
						<polygon class="st2" points="-354.9,674.3 -321,610.7 -287.2,674.3 						"/>
					</g>
					<g>
						<polygon class="st3" points="-321,674.3 -321,610.7 -287.2,674.3 						"/>
					</g>
					<g>
						<polygon class="st2" points="-300.5,649.3 -321,649.3 -321,610.7 						"/>
					</g>
					<g>
						<polygon class="st4" points="-321,610.7 -321,649.3 -341.6,649.3 						"/>
					</g>
				</g>
				<g>
					<g>
						<polygon class="st2" points="-347.6,647.2 -321,597.3 -294.5,647.2 						"/>
					</g>
					<g>
						<polygon class="st3" points="-321,647.2 -321,597.3 -294.5,647.2 						"/>
					</g>
					<g>
						<polygon class="st2" points="-304.9,627.6 -321,627.6 -321,597.3 						"/>
					</g>
					<g>
						<polygon class="st4" points="-321,597.3 -321,627.6 -337.2,627.6 						"/>
					</g>
				</g>
				<g>
					<g>
						<polygon class="st2" points="-299.5,625.5 -342.6,625.5 -334.6,610.4 -321,585 -307.5,610.4 						"/>
					</g>
					<g>
						<polygon class="st3" points="-321,625.5 -321,585 -299.5,625.5 						"/>
					</g>
				</g>
			</g>
		</g>
		<g class="st6">
			<polygon class="st7" points="-325.3,696.5 -345.3,702.7 -316.8,696.5 			"/>
		</g>
	</g>
	<g>
		<g>
			<g>
				<g>
					<rect x="-280.5" y="677.6" class="st0" width="3.1" height="12.7"/>
				</g>
				<g>
					<rect x="-280.5" y="677.6" class="st1" width="1.5" height="12.7"/>
				</g>
			</g>
			<g>
				<g>
					<g>
						<polygon class="st2" points="-291.1,682.4 -278.9,659.5 -266.8,682.4 						"/>
					</g>
					<g>
						<polygon class="st3" points="-278.9,682.4 -278.9,659.5 -266.8,682.4 						"/>
					</g>
					<g>
						<polygon class="st2" points="-271.5,673.4 -278.9,673.4 -278.9,659.5 						"/>
					</g>
					<g>
						<polygon class="st4" points="-278.9,659.5 -278.9,673.4 -286.3,673.4 						"/>
					</g>
				</g>
				<g>
					<g>
						<polygon class="st2" points="-288.5,672.6 -278.9,654.7 -269.4,672.6 						"/>
					</g>
					<g>
						<polygon class="st3" points="-278.9,672.6 -278.9,654.7 -269.4,672.6 						"/>
					</g>
					<g>
						<polygon class="st2" points="-273.1,665.6 -278.9,665.6 -278.9,654.7 						"/>
					</g>
					<g>
						<polygon class="st4" points="-278.9,654.7 -278.9,665.6 -284.7,665.6 						"/>
					</g>
				</g>
				<g>
					<g>
						<polygon class="st2" points="-271.2,664.8 -286.7,664.8 -283.8,659.4 -278.9,650.3 -274.1,659.4 						"/>
					</g>
					<g>
						<polygon class="st3" points="-278.9,664.8 -278.9,650.3 -271.2,664.8 						"/>
					</g>
				</g>
			</g>
		</g>
		<g class="st6">
			<polygon class="st7" points="-280.5,690.3 -287.6,692.6 -277.4,690.3 			"/>
		</g>
	</g>
	<g>
		<g>
			<g>
				<g>
					<rect x="-250.3" y="663.3" class="st0" width="6.1" height="25.4"/>
				</g>
				<g>
					<rect x="-250.3" y="663.3" class="st1" width="3.1" height="25.4"/>
				</g>
			</g>
			<g>
				<g>
					<g>
						<polygon class="st2" points="-271.6,672.8 -247.3,627.1 -223,672.8 						"/>
					</g>
					<g>
						<polygon class="st3" points="-247.3,672.8 -247.3,627.1 -223,672.8 						"/>
					</g>
					<g>
						<polygon class="st2" points="-232.5,654.8 -247.3,654.8 -247.3,627.1 						"/>
					</g>
					<g>
						<polygon class="st4" points="-247.3,627.1 -247.3,654.8 -262,654.8 						"/>
					</g>
				</g>
				<g>
					<g>
						<polygon class="st2" points="-266.3,653.3 -247.3,617.5 -228.2,653.3 						"/>
					</g>
					<g>
						<polygon class="st3" points="-247.3,653.3 -247.3,617.5 -228.2,653.3 						"/>
					</g>
					<g>
						<polygon class="st2" points="-235.7,639.2 -247.3,639.2 -247.3,617.5 						"/>
					</g>
					<g>
						<polygon class="st4" points="-247.3,617.5 -247.3,639.2 -258.8,639.2 						"/>
					</g>
				</g>
				<g>
					<g>
						<polygon class="st2" points="-231.8,637.7 -262.7,637.7 -257,626.9 -247.3,608.6 -237.6,626.9 						"/>
					</g>
					<g>
						<polygon class="st3" points="-247.3,637.7 -247.3,608.6 -231.8,637.7 						"/>
					</g>
				</g>
			</g>
		</g>
		<g class="st6">
			<polygon class="st7" points="-250.3,688.7 -264.7,693.2 -244.2,688.7 			"/>
		</g>
	</g>
</g>
<g>
	<g>
		<g>
			<g>
				<g>
					<rect x="188.4" y="668.4" class="st0" width="3.6" height="14.8"/>
				</g>
				<g>
					<rect x="188.4" y="668.4" class="st1" width="1.8" height="14.8"/>
				</g>
			</g>
			<g>
				<g>
					<g>
						<polygon class="st2" points="176.1,674 190.2,647.4 204.4,674 						"/>
					</g>
					<g>
						<polygon class="st3" points="190.2,674 190.2,647.4 204.4,674 						"/>
					</g>
					<g>
						<polygon class="st2" points="198.8,663.5 190.2,663.5 190.2,647.4 						"/>
					</g>
					<g>
						<polygon class="st4" points="190.2,647.4 190.2,663.5 181.6,663.5 						"/>
					</g>
				</g>
				<g>
					<g>
						<polygon class="st2" points="179.1,662.6 190.2,641.8 201.3,662.6 						"/>
					</g>
					<g>
						<polygon class="st3" points="190.2,662.6 190.2,641.8 201.3,662.6 						"/>
					</g>
					<g>
						<polygon class="st2" points="196.9,654.4 190.2,654.4 190.2,641.8 						"/>
					</g>
					<g>
						<polygon class="st4" points="190.2,641.8 190.2,654.4 183.5,654.4 						"/>
					</g>
				</g>
				<g>
					<g>
						<polygon class="st2" points="199.2,653.5 181.2,653.5 184.6,647.2 190.2,636.6 195.9,647.2 						"/>
					</g>
					<g>
						<polygon class="st3" points="190.2,653.5 190.2,636.6 199.2,653.5 						"/>
					</g>
				</g>
			</g>
		</g>
		<g class="st6">
			<polygon class="st7" points="188.4,683.2 180.1,685.8 192,683.2 			"/>
		</g>
	</g>
	<g>
		<g>
			<g>
				<g>
					<rect x="216.7" y="658.7" class="st0" width="6.9" height="28.8"/>
				</g>
				<g>
					<rect x="216.7" y="658.7" class="st1" width="3.5" height="28.8"/>
				</g>
			</g>
			<g>
				<g>
					<g>
						<polygon class="st2" points="192.6,669.5 220.1,617.7 247.7,669.5 						"/>
					</g>
					<g>
						<polygon class="st3" points="220.1,669.5 220.1,617.7 247.7,669.5 						"/>
					</g>
					<g>
						<polygon class="st2" points="236.9,649.2 220.1,649.2 220.1,617.7 						"/>
					</g>
					<g>
						<polygon class="st4" points="220.1,617.7 220.1,649.2 203.4,649.2 						"/>
					</g>
				</g>
				<g>
					<g>
						<polygon class="st2" points="198.5,647.5 220.1,606.8 241.7,647.5 						"/>
					</g>
					<g>
						<polygon class="st3" points="220.1,647.5 220.1,606.8 241.7,647.5 						"/>
					</g>
					<g>
						<polygon class="st2" points="233.3,631.5 220.1,631.5 220.1,606.8 						"/>
					</g>
					<g>
						<polygon class="st4" points="220.1,606.8 220.1,631.5 207,631.5 						"/>
					</g>
				</g>
				<g>
					<g>
						<polygon class="st2" points="237.7,629.8 202.6,629.8 209.1,617.5 220.1,596.8 231.1,617.5 						"/>
					</g>
					<g>
						<polygon class="st3" points="220.1,629.8 220.1,596.8 237.7,629.8 						"/>
					</g>
				</g>
			</g>
		</g>
		<g class="st6">
			<polygon class="st7" points="216.7,687.6 200.4,692.7 223.6,687.6 			"/>
		</g>
	</g>
	<g>
		<g>
			<g>
				<g>
					<rect x="253.2" y="672.2" class="st0" width="2.5" height="10.4"/>
				</g>
				<g>
					<rect x="253.2" y="672.2" class="st1" width="1.2" height="10.4"/>
				</g>
			</g>
			<g>
				<g>
					<g>
						<polygon class="st2" points="244.5,676.1 254.4,657.5 264.3,676.1 						"/>
					</g>
					<g>
						<polygon class="st3" points="254.4,676.1 254.4,657.5 264.3,676.1 						"/>
					</g>
					<g>
						<polygon class="st2" points="260.4,668.8 254.4,668.8 254.4,657.5 						"/>
					</g>
					<g>
						<polygon class="st4" points="254.4,657.5 254.4,668.8 248.4,668.8 						"/>
					</g>
				</g>
				<g>
					<g>
						<polygon class="st2" points="246.7,668.2 254.4,653.6 262.2,668.2 						"/>
					</g>
					<g>
						<polygon class="st3" points="254.4,668.2 254.4,653.6 262.2,668.2 						"/>
					</g>
					<g>
						<polygon class="st2" points="259.1,662.4 254.4,662.4 254.4,653.6 						"/>
					</g>
					<g>
						<polygon class="st4" points="254.4,653.6 254.4,662.4 249.7,662.4 						"/>
					</g>
				</g>
				<g>
					<g>
						<polygon class="st2" points="260.7,661.8 248.1,661.8 250.5,657.4 254.4,650 258.4,657.4 						"/>
					</g>
					<g>
						<polygon class="st3" points="254.4,661.8 254.4,650 260.7,661.8 						"/>
					</g>
				</g>
			</g>
		</g>
		<g class="st6">
			<polygon class="st7" points="253.2,682.6 247.3,684.4 255.7,682.6 			"/>
		</g>
	</g>
	<g>
		<g>
			<g>
				<g>
					<rect x="277.7" y="660.6" class="st0" width="5" height="20.7"/>
				</g>
				<g>
					<rect x="277.7" y="660.6" class="st1" width="2.5" height="20.7"/>
				</g>
			</g>
			<g>
				<g>
					<g>
						<polygon class="st2" points="260.4,668.3 280.2,631.1 300,668.3 						"/>
					</g>
					<g>
						<polygon class="st3" points="280.2,668.3 280.2,631.1 300,668.3 						"/>
					</g>
					<g>
						<polygon class="st2" points="292.2,653.7 280.2,653.7 280.2,631.1 						"/>
					</g>
					<g>
						<polygon class="st4" points="280.2,631.1 280.2,653.7 268.2,653.7 						"/>
					</g>
				</g>
				<g>
					<g>
						<polygon class="st2" points="264.7,652.4 280.2,623.3 295.7,652.4 						"/>
					</g>
					<g>
						<polygon class="st3" points="280.2,652.4 280.2,623.3 295.7,652.4 						"/>
					</g>
					<g>
						<polygon class="st2" points="289.6,641 280.2,641 280.2,623.3 						"/>
					</g>
					<g>
						<polygon class="st4" points="280.2,623.3 280.2,641 270.8,641 						"/>
					</g>
				</g>
				<g>
					<g>
						<polygon class="st2" points="292.8,639.7 267.6,639.7 272.3,630.9 280.2,616 288.1,630.9 						"/>
					</g>
					<g>
						<polygon class="st3" points="280.2,639.7 280.2,616 292.8,639.7 						"/>
					</g>
				</g>
			</g>
		</g>
		<g class="st6">
			<polygon class="st7" points="277.7,681.3 266,684.9 282.7,681.3 			"/>
		</g>
	</g>
	<g>
		<g>
			<g>
				<g>
					<rect x="38.5" y="668.4" class="st0" width="3.6" height="14.8"/>
				</g>
				<g>
					<rect x="38.5" y="668.4" class="st1" width="1.8" height="14.8"/>
				</g>
			</g>
			<g>
				<g>
					<g>
						<polygon class="st2" points="26.2,674 40.3,647.4 54.5,674 						"/>
					</g>
					<g>
						<polygon class="st3" points="40.3,674 40.3,647.4 54.5,674 						"/>
					</g>
					<g>
						<polygon class="st2" points="48.9,663.5 40.3,663.5 40.3,647.4 						"/>
					</g>
					<g>
						<polygon class="st4" points="40.3,647.4 40.3,663.5 31.7,663.5 						"/>
					</g>
				</g>
				<g>
					<g>
						<polygon class="st2" points="29.2,662.6 40.3,641.8 51.4,662.6 						"/>
					</g>
					<g>
						<polygon class="st3" points="40.3,662.6 40.3,641.8 51.4,662.6 						"/>
					</g>
					<g>
						<polygon class="st2" points="47.1,654.4 40.3,654.4 40.3,641.8 						"/>
					</g>
					<g>
						<polygon class="st4" points="40.3,641.8 40.3,654.4 33.6,654.4 						"/>
					</g>
				</g>
				<g>
					<g>
						<polygon class="st2" points="49.3,653.5 31.3,653.5 34.7,647.2 40.3,636.6 46,647.2 						"/>
					</g>
					<g>
						<polygon class="st3" points="40.3,653.5 40.3,636.6 49.3,653.5 						"/>
					</g>
				</g>
			</g>
		</g>
		<g class="st6">
			<polygon class="st7" points="38.5,683.2 30.2,685.8 42.1,683.2 			"/>
		</g>
	</g>
	<g>
		<g>
			<g>
				<g>
					<rect x="66.8" y="658.7" class="st0" width="6.9" height="28.8"/>
				</g>
				<g>
					<rect x="66.8" y="658.7" class="st1" width="3.5" height="28.8"/>
				</g>
			</g>
			<g>
				<g>
					<g>
						<polygon class="st2" points="42.7,669.5 70.2,617.7 97.8,669.5 						"/>
					</g>
					<g>
						<polygon class="st3" points="70.2,669.5 70.2,617.7 97.8,669.5 						"/>
					</g>
					<g>
						<polygon class="st2" points="87,649.2 70.2,649.2 70.2,617.7 						"/>
					</g>
					<g>
						<polygon class="st4" points="70.2,617.7 70.2,649.2 53.5,649.2 						"/>
					</g>
				</g>
				<g>
					<g>
						<polygon class="st2" points="48.7,647.5 70.2,606.8 91.8,647.5 						"/>
					</g>
					<g>
						<polygon class="st3" points="70.2,647.5 70.2,606.8 91.8,647.5 						"/>
					</g>
					<g>
						<polygon class="st2" points="83.4,631.5 70.2,631.5 70.2,606.8 						"/>
					</g>
					<g>
						<polygon class="st4" points="70.2,606.8 70.2,631.5 57.1,631.5 						"/>
					</g>
				</g>
				<g>
					<g>
						<polygon class="st2" points="87.8,629.8 52.7,629.8 59.3,617.5 70.2,596.8 81.2,617.5 						"/>
					</g>
					<g>
						<polygon class="st3" points="70.2,629.8 70.2,596.8 87.8,629.8 						"/>
					</g>
				</g>
			</g>
		</g>
		<g class="st6">
			<polygon class="st7" points="66.8,687.6 50.5,692.7 73.7,687.6 			"/>
		</g>
	</g>
	<g>
		<g>
			<g>
				<g>
					<rect x="103.3" y="672.2" class="st0" width="2.5" height="10.4"/>
				</g>
				<g>
					<rect x="103.3" y="672.2" class="st1" width="1.2" height="10.4"/>
				</g>
			</g>
			<g>
				<g>
					<g>
						<polygon class="st2" points="94.6,676.1 104.5,657.5 114.4,676.1 						"/>
					</g>
					<g>
						<polygon class="st3" points="104.5,676.1 104.5,657.5 114.4,676.1 						"/>
					</g>
					<g>
						<polygon class="st2" points="110.5,668.8 104.5,668.8 104.5,657.5 						"/>
					</g>
					<g>
						<polygon class="st4" points="104.5,657.5 104.5,668.8 98.5,668.8 						"/>
					</g>
				</g>
				<g>
					<g>
						<polygon class="st2" points="96.8,668.2 104.5,653.6 112.3,668.2 						"/>
					</g>
					<g>
						<polygon class="st3" points="104.5,668.2 104.5,653.6 112.3,668.2 						"/>
					</g>
					<g>
						<polygon class="st2" points="109.3,662.4 104.5,662.4 104.5,653.6 						"/>
					</g>
					<g>
						<polygon class="st4" points="104.5,653.6 104.5,662.4 99.8,662.4 						"/>
					</g>
				</g>
				<g>
					<g>
						<polygon class="st2" points="110.8,661.8 98.2,661.8 100.6,657.4 104.5,650 108.5,657.4 						"/>
					</g>
					<g>
						<polygon class="st3" points="104.5,661.8 104.5,650 110.8,661.8 						"/>
					</g>
				</g>
			</g>
		</g>
		<g class="st6">
			<polygon class="st7" points="103.3,682.6 97.5,684.4 105.8,682.6 			"/>
		</g>
	</g>
	<g>
		<g>
			<g>
				<g>
					<rect x="127.8" y="660.6" class="st0" width="5" height="20.7"/>
				</g>
				<g>
					<rect x="127.8" y="660.6" class="st1" width="2.5" height="20.7"/>
				</g>
			</g>
			<g>
				<g>
					<g>
						<polygon class="st2" points="110.5,668.3 130.3,631.1 150.1,668.3 						"/>
					</g>
					<g>
						<polygon class="st3" points="130.3,668.3 130.3,631.1 150.1,668.3 						"/>
					</g>
					<g>
						<polygon class="st2" points="142.3,653.7 130.3,653.7 130.3,631.1 						"/>
					</g>
					<g>
						<polygon class="st4" points="130.3,631.1 130.3,653.7 118.3,653.7 						"/>
					</g>
				</g>
				<g>
					<g>
						<polygon class="st2" points="114.8,652.4 130.3,623.3 145.8,652.4 						"/>
					</g>
					<g>
						<polygon class="st3" points="130.3,652.4 130.3,623.3 145.8,652.4 						"/>
					</g>
					<g>
						<polygon class="st2" points="139.7,641 130.3,641 130.3,623.3 						"/>
					</g>
					<g>
						<polygon class="st4" points="130.3,623.3 130.3,641 120.9,641 						"/>
					</g>
				</g>
				<g>
					<g>
						<polygon class="st2" points="142.9,639.7 117.7,639.7 122.4,630.9 130.3,616 138.2,630.9 						"/>
					</g>
					<g>
						<polygon class="st3" points="130.3,639.7 130.3,616 142.9,639.7 						"/>
					</g>
				</g>
			</g>
		</g>
		<g class="st6">
			<polygon class="st7" points="127.8,681.3 116.1,684.9 132.8,681.3 			"/>
		</g>
	</g>
</g>
<g>
	<g>
		<g>
			<g>
				<rect x="-371" y="575.8" class="st0" width="10.9" height="45.3"/>
			</g>
			<g>
				<rect x="-371" y="575.8" class="st1" width="5.4" height="45.3"/>
			</g>
		</g>
		<g>
			<g>
				<g>
					<polygon class="st2" points="-408.9,592.8 -365.6,511.4 -322.3,592.8 					"/>
				</g>
				<g>
					<polygon class="st3" points="-365.6,592.8 -365.6,511.4 -322.3,592.8 					"/>
				</g>
				<g>
					<polygon class="st2" points="-339.3,560.8 -365.6,560.8 -365.6,511.4 					"/>
				</g>
				<g>
					<polygon class="st4" points="-365.6,511.4 -365.6,560.8 -391.9,560.8 					"/>
				</g>
			</g>
			<g>
				<g>
					<polygon class="st2" points="-399.5,558.1 -365.6,494.3 -331.7,558.1 					"/>
				</g>
				<g>
					<polygon class="st3" points="-365.6,558.1 -365.6,494.3 -331.7,558.1 					"/>
				</g>
				<g>
					<polygon class="st2" points="-345,533.1 -365.6,533.1 -365.6,494.3 					"/>
				</g>
				<g>
					<polygon class="st4" points="-365.6,494.3 -365.6,533.1 -386.2,533.1 					"/>
				</g>
			</g>
			<g>
				<g>
					<polygon class="st2" points="-338,530.3 -393.1,530.3 -382.9,511 -365.6,478.5 -348.3,511 					"/>
				</g>
				<g>
					<polygon class="st3" points="-365.6,530.3 -365.6,478.5 -338,530.3 					"/>
				</g>
			</g>
		</g>
	</g>
	<g class="st6">
		<polygon class="st7" points="-371,621.1 -396.6,629.1 -360.1,621.1 		"/>
	</g>
</g>
<g>
	<g>
		<g>
			<g>
				<rect x="405.8" y="698.9" class="st0" width="10.1" height="42"/>
			</g>
			<g>
				<rect x="405.8" y="698.9" class="st1" width="5.1" height="42"/>
			</g>
		</g>
		<g>
			<g>
				<g>
					<polygon class="st2" points="370.7,714.6 410.8,639.1 451,714.6 					"/>
				</g>
				<g>
					<polygon class="st3" points="410.8,714.6 410.8,639.1 451,714.6 					"/>
				</g>
				<g>
					<polygon class="st2" points="435.2,685 410.8,685 410.8,639.1 					"/>
				</g>
				<g>
					<polygon class="st4" points="410.8,639.1 410.8,685 386.5,685 					"/>
				</g>
			</g>
			<g>
				<g>
					<polygon class="st2" points="379.4,682.4 410.8,623.3 442.3,682.4 					"/>
				</g>
				<g>
					<polygon class="st3" points="410.8,682.4 410.8,623.3 442.3,682.4 					"/>
				</g>
				<g>
					<polygon class="st2" points="430,659.2 410.8,659.2 410.8,623.3 					"/>
				</g>
				<g>
					<polygon class="st4" points="410.8,623.3 410.8,659.2 391.7,659.2 					"/>
				</g>
			</g>
			<g>
				<g>
					<polygon class="st2" points="436.4,656.7 385.3,656.7 394.8,638.8 410.8,608.6 426.9,638.8 					"/>
				</g>
				<g>
					<polygon class="st3" points="410.8,656.7 410.8,608.6 436.4,656.7 					"/>
				</g>
			</g>
		</g>
	</g>
	<g class="st6">
		<polygon class="st7" points="405.8,740.9 382.1,748.3 415.9,740.9 		"/>
	</g>
</g>
<g>
	<g>
		<g>
			<g>
				<rect x="-206.3" y="722.3" class="st0" width="18.8" height="78.3"/>
			</g>
			<g>
				<rect x="-206.3" y="722.3" class="st1" width="9.4" height="78.3"/>
			</g>
		</g>
		<g>
			<g>
				<g>
					<polygon class="st2" points="-271.6,751.6 -196.8,611 -122.1,751.6 					"/>
				</g>
				<g>
					<polygon class="st3" points="-196.8,751.6 -196.8,611 -122.1,751.6 					"/>
				</g>
				<g>
					<polygon class="st2" points="-151.4,696.4 -196.8,696.4 -196.8,611 					"/>
				</g>
				<g>
					<polygon class="st4" points="-196.8,611 -196.8,696.4 -242.2,696.4 					"/>
				</g>
			</g>
			<g>
				<g>
					<polygon class="st2" points="-255.5,691.7 -196.8,581.5 -138.2,691.7 					"/>
				</g>
				<g>
					<polygon class="st3" points="-196.8,691.7 -196.8,581.5 -138.2,691.7 					"/>
				</g>
				<g>
					<polygon class="st2" points="-161.2,648.4 -196.8,648.4 -196.8,581.5 					"/>
				</g>
				<g>
					<polygon class="st4" points="-196.8,581.5 -196.8,648.4 -232.4,648.4 					"/>
				</g>
			</g>
			<g>
				<g>
					<polygon class="st2" points="-149.3,643.7 -244.4,643.7 -226.7,610.3 -196.8,554.2 -167,610.3 					"/>
				</g>
				<g>
					<polygon class="st3" points="-196.8,643.7 -196.8,554.2 -149.3,643.7 					"/>
				</g>
			</g>
		</g>
	</g>
	<g class="st6">
		<polygon class="st7" points="-206.3,800.6 -250.4,814.4 -187.4,800.6 		"/>
	</g>
</g>
<g>
	<g>
		<g>
			<g>
				<rect x="49.7" y="682.8" class="st0" width="13.5" height="56.2"/>
			</g>
			<g>
				<rect x="49.7" y="682.8" class="st1" width="6.8" height="56.2"/>
			</g>
		</g>
		<g>
			<g>
				<g>
					<polygon class="st2" points="2.7,703.8 56.4,602.8 110.1,703.8 					"/>
				</g>
				<g>
					<polygon class="st3" points="56.4,703.8 56.4,602.8 110.1,703.8 					"/>
				</g>
				<g>
					<polygon class="st2" points="89,664.1 56.4,664.1 56.4,602.8 					"/>
				</g>
				<g>
					<polygon class="st4" points="56.4,602.8 56.4,664.1 23.8,664.1 					"/>
				</g>
			</g>
			<g>
				<g>
					<polygon class="st2" points="14.3,660.8 56.4,581.6 98.5,660.8 					"/>
				</g>
				<g>
					<polygon class="st3" points="56.4,660.8 56.4,581.6 98.5,660.8 					"/>
				</g>
				<g>
					<polygon class="st2" points="82,629.7 56.4,629.7 56.4,581.6 					"/>
				</g>
				<g>
					<polygon class="st4" points="56.4,581.6 56.4,629.7 30.8,629.7 					"/>
				</g>
			</g>
			<g>
				<g>
					<polygon class="st2" points="90.6,626.3 22.2,626.3 35,602.3 56.4,562 77.9,602.3 					"/>
				</g>
				<g>
					<polygon class="st3" points="56.4,626.3 56.4,562 90.6,626.3 					"/>
				</g>
			</g>
		</g>
	</g>
	<g class="st6">
		<polygon class="st7" points="49.7,739 18,748.9 63.2,739 		"/>
	</g>
</g>
<g>
	<g>
		<g>
			<g>
				<rect x="584.5" y="792.4" class="st0" width="7.1" height="29.3"/>
			</g>
			<g>
				<rect x="584.5" y="792.4" class="st1" width="3.5" height="29.3"/>
			</g>
		</g>
		<g>
			<g>
				<g>
					<polygon class="st2" points="560,803.4 588.1,750.7 616.1,803.4 					"/>
				</g>
				<g>
					<polygon class="st3" points="588.1,803.4 588.1,750.7 616.1,803.4 					"/>
				</g>
				<g>
					<polygon class="st2" points="605.1,782.7 588.1,782.7 588.1,750.7 					"/>
				</g>
				<g>
					<polygon class="st4" points="588.1,750.7 588.1,782.7 571,782.7 					"/>
				</g>
			</g>
			<g>
				<g>
					<polygon class="st2" points="566.1,780.9 588.1,739.7 610.1,780.9 					"/>
				</g>
				<g>
					<polygon class="st3" points="588.1,780.9 588.1,739.7 610.1,780.9 					"/>
				</g>
				<g>
					<polygon class="st2" points="601.4,764.7 588.1,764.7 588.1,739.7 					"/>
				</g>
				<g>
					<polygon class="st4" points="588.1,739.7 588.1,764.7 574.7,764.7 					"/>
				</g>
			</g>
			<g>
				<g>
					<polygon class="st2" points="605.9,763 570.2,763 576.9,750.5 588.1,729.4 599.3,750.5 					"/>
				</g>
				<g>
					<polygon class="st3" points="588.1,763 588.1,729.4 605.9,763 					"/>
				</g>
			</g>
		</g>
	</g>
	<g class="st6">
		<polygon class="st7" points="584.5,821.7 568,826.9 591.6,821.7 		"/>
	</g>
</g>
<g>
	<g>
		<g>
			<g>
				<rect x="-99.3" y="733" class="st0" width="9" height="37.3"/>
			</g>
			<g>
				<rect x="-99.3" y="733" class="st1" width="4.5" height="37.3"/>
			</g>
		</g>
		<g>
			<g>
				<g>
					<polygon class="st2" points="-130.4,747 -94.8,680 -59.2,747 					"/>
				</g>
				<g>
					<polygon class="st3" points="-94.8,747 -94.8,680 -59.2,747 					"/>
				</g>
				<g>
					<polygon class="st2" points="-73.2,720.7 -94.8,720.7 -94.8,680 					"/>
				</g>
				<g>
					<polygon class="st4" points="-94.8,680 -94.8,720.7 -116.4,720.7 					"/>
				</g>
			</g>
			<g>
				<g>
					<polygon class="st2" points="-122.7,718.4 -94.8,665.9 -66.9,718.4 					"/>
				</g>
				<g>
					<polygon class="st3" points="-94.8,718.4 -94.8,665.9 -66.9,718.4 					"/>
				</g>
				<g>
					<polygon class="st2" points="-77.8,697.8 -94.8,697.8 -94.8,665.9 					"/>
				</g>
				<g>
					<polygon class="st4" points="-94.8,665.9 -94.8,697.8 -111.8,697.8 					"/>
				</g>
			</g>
			<g>
				<g>
					<polygon class="st2" points="-72.1,695.6 -117.5,695.6 -109,679.7 -94.8,652.9 -80.6,679.7 					"/>
				</g>
				<g>
					<polygon class="st3" points="-94.8,695.6 -94.8,652.9 -72.1,695.6 					"/>
				</g>
			</g>
		</g>
	</g>
	<g class="st6">
		<polygon class="st7" points="-99.3,770.3 -120.3,776.9 -90.3,770.3 		"/>
	</g>
</g>
<g>
	<g>
		<g>
			<g>
				<rect x="654.1" y="759.4" class="st0" width="14.1" height="58.6"/>
			</g>
			<g>
				<rect x="654.1" y="759.4" class="st1" width="7.1" height="58.6"/>
			</g>
		</g>
		<g>
			<g>
				<g>
					<polygon class="st2" points="605.1,781.3 661.2,676 717.4,781.3 					"/>
				</g>
				<g>
					<polygon class="st3" points="661.2,781.3 661.2,676 717.4,781.3 					"/>
				</g>
				<g>
					<polygon class="st2" points="695.3,740 661.2,740 661.2,676 					"/>
				</g>
				<g>
					<polygon class="st4" points="661.2,676 661.2,740 627.1,740 					"/>
				</g>
			</g>
			<g>
				<g>
					<polygon class="st2" points="617.2,736.5 661.2,653.9 705.2,736.5 					"/>
				</g>
				<g>
					<polygon class="st3" points="661.2,736.5 661.2,653.9 705.2,736.5 					"/>
				</g>
				<g>
					<polygon class="st2" points="688,704 661.2,704 661.2,653.9 					"/>
				</g>
				<g>
					<polygon class="st4" points="661.2,653.9 661.2,704 634.5,704 					"/>
				</g>
			</g>
			<g>
				<g>
					<polygon class="st2" points="696.9,700.5 625.5,700.5 638.8,675.5 661.2,633.5 683.6,675.5 					"/>
				</g>
				<g>
					<polygon class="st3" points="661.2,700.5 661.2,633.5 696.9,700.5 					"/>
				</g>
			</g>
		</g>
	</g>
	<g class="st6">
		<polygon class="st7" points="654.1,818 621,828.4 668.3,818 		"/>
	</g>
</g>
<g>
	<path class="st8" d="M608.6,372.9c-2.1,0-4.2,0.3-6.1,1c-5.5-9.6-15.8-16-27.6-16c-3.6,0-7.1,0.6-10.4,1.7
		c-5.6-11.5-16.2-20.2-29-23.2c0,0,0,0,0,0c0.6-2.6,1-5.3,1-8.1c0-19.3-15.7-34.9-35-34.9c-12.4,0-23.3,6.4-29.5,16.1
		c-3.8-1.8-8-2.8-12.4-2.8c-13.5,0-24.9,9.4-27.9,22c0,0,0,0,0,0c-17.1,2.3-30.2,16.9-30.2,34.6c0,0.3,0,0.5,0,0.8
		c-5.7,5.7-9.2,13.6-9.2,22.2h17.8h26.3h19.2h7.1h20.6h23.1h36.8H568h22h16.5h20.7C624.5,378.5,617.2,372.9,608.6,372.9z"/>
</g>
<g>
	<path class="st8" d="M38.3,571.8c-0.6,0-1.1,0.1-1.6,0.3c-1.5-2.6-4.3-4.3-7.5-4.3c-1,0-1.9,0.2-2.8,0.5c-1.5-3.1-4.4-5.5-7.8-6.3
		c0,0,0,0,0,0c0.2-0.7,0.3-1.4,0.3-2.2c0-5.2-4.2-9.4-9.4-9.4c-3.3,0-6.3,1.7-8,4.4c-1-0.5-2.1-0.8-3.3-0.8c-3.7,0-6.7,2.5-7.5,5.9
		c0,0,0,0,0,0c-4.6,0.6-8.2,4.6-8.2,9.4c0,0.1,0,0.1,0,0.2c-1.5,1.5-2.5,3.7-2.5,6h4.8h7.1H-3h1.9h5.5h6.2h9.9h6.7h5.9h4.5h5.6
		C42.6,573.3,40.6,571.8,38.3,571.8z"/>
</g>
<g>
	<path class="st8" d="M-63.1,288.9c-4.6-4.6-10.3-8.2-16.7-10.1c-4.9-12.3-16.1-21.4-29.6-23.2c-1.7-0.2-3.4-0.4-5.1-0.4
		c-8.8,0-16.9,3.1-23.3,8.2c-1.6-9.2-9.6-16.1-19.3-16.1c-0.1,0-0.1,0-0.2,0c-1.9-16.2-15.6-28.8-32.4-28.8
		c-7.7,0-14.8,2.7-20.3,7.1c-7.8-12.7-21.8-21.1-37.8-21.1c-24.5,0-44.4,19.9-44.4,44.4c0,5.7,1.1,11.2,3.1,16.2
		c-3.4,3.5-5.5,8.4-5.5,13.7c0,1.3,0.1,2.7,0.4,3.9c-10.1,3-18.6,9.8-23.7,18.8c-2.4-0.8-5-1.2-7.7-1.2c-10.9,0-20.2,7.1-23.6,16.9
		h26.2h20.9h27.8h31.4h46.6h29.3h24.3h10.8h24.3h21h34.9C-51.4,306.1-55.9,296.1-63.1,288.9z"/>
</g>
<g>
	<path class="st8" d="M664.2,497.1c-1.9,0-3.7,0.3-5.4,0.8c-3.6-6.3-9.6-11.1-16.7-13.2c0.2-0.9,0.3-1.8,0.3-2.8
		c0-3.7-1.5-7.1-3.9-9.6c1.4-3.5,2.2-7.4,2.2-11.4c0-17.2-14-31.2-31.3-31.2c-8,0-15.3,3-20.8,7.9c-3.1-1.6-6.7-2.5-10.4-2.5
		c-11.7,0-21.3,8.7-22.8,20c-1.2-0.2-2.4-0.3-3.6-0.3c-9.9,0-18.3,6.2-21.5,15c-4.2-2.8-9.3-4.5-14.7-4.5c-1.2,0-2.4,0.1-3.6,0.2
		c-9.5,1.3-17.4,7.7-20.8,16.3c-4.5,1.4-8.5,3.9-11.8,7.1c-5.1,5.1-8.2,12.1-8.2,19.8h24.6h14.8h17.1h7.6h17.1h20.7h32.8H628h19.6
		h14.7h18.5C678.5,502.1,671.9,497.1,664.2,497.1z"/>
</g>
<g>
	<g>
		<g>
			<g>
				<g>
					<g>
						<path class="st8" d="M-246.5,295l4.6,4.1c0.6,0.5,0.6,1.4,0.1,1.9c-0.5,0.6-1.4,0.6-1.9,0.1l-2.8-2.5l-2.8,2.5
							c-0.6,0.5-1.4,0.5-1.9-0.1c-0.5-0.6-0.5-1.4,0.1-1.9L-246.5,295z"/>
					</g>
				</g>
			</g>
		</g>
		<g>
			<path class="st8" d="M-239.8,510.9c0,4.4-3.6,8-8.1,8c-4.5,0-8.1-3.6-8.1-8c0-4.4,3.6-8,8.1-8
				C-243.5,502.8-239.8,506.4-239.8,510.9z"/>
		</g>
		<g>
			<path class="st8" d="M-70.9,352.9c0,4.4-3.6,8-8.1,8c-4.5,0-8.1-3.6-8.1-8c0-4.4,3.6-8,8.1-8C-74.5,344.8-70.9,348.4-70.9,352.9z
				"/>
		</g>
		<g>
			<path class="st8" d="M404.2,428.3c0,4.4-3.6,8-8.1,8c-4.5,0-8.1-3.6-8.1-8s3.6-8,8.1-8C400.6,420.2,404.2,423.8,404.2,428.3z"/>
		</g>
		<g>
			<g>
				<path class="st8" d="M281.6,521.1c-6.4,0-6.4,9.9,0,9.9C288,531,288.1,521.1,281.6,521.1L281.6,521.1z"/>
			</g>
		</g>
		<g>
			<g>
				<path class="st8" d="M135.8,317.5c-6.4,0-6.4,9.9,0,9.9C142.2,327.4,142.2,317.5,135.8,317.5L135.8,317.5z"/>
			</g>
		</g>
		<g>
			<g>
				<path class="st8" d="M48.3,473.5c-6.4,0-6.4,9.9,0,9.9C54.7,483.4,54.8,473.5,48.3,473.5L48.3,473.5z"/>
			</g>
		</g>
		<g>
			<g>
				<path class="st8" d="M-186.3,301.6c-6.4,0-6.4,9.9,0,9.9C-179.9,311.5-179.9,301.6-186.3,301.6L-186.3,301.6z"/>
			</g>
		</g>
		<g>
			<g>
				<path class="st8" d="M-192.9,605.7c-6.4,0-6.4,9.9,0,9.9C-186.5,615.6-186.5,605.7-192.9,605.7L-192.9,605.7z"/>
			</g>
		</g>
		<g>
			<g>
				<path class="st8" d="M106.7,580.6c-6.4,0-6.4,9.9,0,9.9C113.1,590.5,113.1,580.6,106.7,580.6L106.7,580.6z"/>
			</g>
		</g>
		<g>
			<g>
				<path class="st8" d="M365.2,396.8c-6.4,0-6.4,9.9,0,9.9C371.6,406.7,371.6,396.8,365.2,396.8L365.2,396.8z"/>
			</g>
		</g>
		<g>
			<g>
				<path class="st8" d="M-363.9,466.9c-6.4,0-6.4,9.9,0,9.9C-357.5,476.8-357.5,466.9-363.9,466.9L-363.9,466.9z"/>
			</g>
		</g>
		<g>
			<g>
				<path class="st8" d="M-161.1,473.4c-4.8,0-4.8,7.4,0,7.4C-156.3,480.8-156.3,473.4-161.1,473.4L-161.1,473.4z"/>
			</g>
		</g>
		<g>
			<g>
				<path class="st8" d="M15.2,342.5c-4.8,0-4.8,7.4,0,7.4C20,350,20,342.5,15.2,342.5L15.2,342.5z"/>
			</g>
		</g>
		<g>
			<g>
				<path class="st8" d="M47,367.6c-4.8,0-4.8,7.4,0,7.4C51.8,375.1,51.8,367.6,47,367.6L47,367.6z"/>
			</g>
		</g>
		<g>
			<g>
				<path class="st8" d="M-190.3,400.7c-4.8,0-4.8,7.4,0,7.4C-185.5,408.1-185.5,400.7-190.3,400.7L-190.3,400.7z"/>
			</g>
		</g>
		<g>
			<g>
				<path class="st8" d="M57.6,526.3c-4.8,0-4.8,7.4,0,7.4C62.4,533.7,62.4,526.3,57.6,526.3L57.6,526.3z"/>
			</g>
		</g>
		<g>
			<g>
				<path class="st8" d="M338.7,469.4c-4.8,0-4.8,7.4,0,7.4C343.4,476.9,343.5,469.4,338.7,469.4L338.7,469.4z"/>
			</g>
		</g>
		<g>
			<g>
				<path class="st8" d="M332,577.8c-4.8,0-4.8,7.4,0,7.4C336.8,585.3,336.8,577.8,332,577.8L332,577.8z"/>
			</g>
		</g>
		<g>
			<g>
				<path class="st8" d="M146.4,473.4c-4.8,0-4.8,7.4,0,7.4C151.2,480.8,151.2,473.4,146.4,473.4L146.4,473.4z"/>
			</g>
		</g>
		<g>
			<g>
				<path class="st8" d="M-292.3,555.4c-4.8,0-4.8,7.4,0,7.4C-287.5,562.8-287.5,555.4-292.3,555.4L-292.3,555.4z"/>
			</g>
		</g>
		<g>
			<g>
				<path class="st8" d="M-68.3,637.3c-4.8,0-4.8,7.4,0,7.4C-63.5,644.8-63.5,637.3-68.3,637.3L-68.3,637.3z"/>
			</g>
		</g>
		<g>
			<g>
				<path class="st8" d="M-40.5,260.5c-3.2,0-3.2,5,0,5C-37.3,265.4-37.3,260.5-40.5,260.5L-40.5,260.5z"/>
			</g>
		</g>
		<g>
			<g>
				<path class="st8" d="M235.3,360.9c-3.2,0-3.2,5,0,5C238.5,365.9,238.5,360.9,235.3,360.9L235.3,360.9z"/>
			</g>
		</g>
		<g>
			<g>
				<path class="st8" d="M237.9,462.7c-3.2,0-3.2,5,0,5C241.1,467.7,241.1,462.7,237.9,462.7L237.9,462.7z"/>
			</g>
		</g>
		<g>
			<g>
				<path class="st8" d="M404.9,351.7c-3.2,0-3.2,5,0,5C408.1,356.7,408.1,351.7,404.9,351.7L404.9,351.7z"/>
			</g>
		</g>
		<g>
			<g>
				<path class="st8" d="M440.7,308.1c-3.2,0-3.2,5,0,5C443.9,313,443.9,308.1,440.7,308.1L440.7,308.1z"/>
			</g>
		</g>
		<g>
			<g>
				<path class="st8" d="M398.3,524.9c-3.2,0-3.2,5,0,5C401.5,529.8,401.5,524.9,398.3,524.9L398.3,524.9z"/>
			</g>
		</g>
		<g>
			<g>
				<path class="st8" d="M371.8,632c-3.2,0-3.2,5,0,5C375,636.9,375,632,371.8,632L371.8,632z"/>
			</g>
		</g>
		<g>
			<g>
				<path class="st8" d="M43,630.6c-3.2,0-3.2,5,0,5C46.2,635.6,46.2,630.6,43,630.6L43,630.6z"/>
			</g>
		</g>
		<g>
			<g>
				<path class="st8" d="M130.5,524.9c-3.2,0-3.2,5,0,5C133.7,529.8,133.7,524.9,130.5,524.9L130.5,524.9z"/>
			</g>
		</g>
		<g>
			<g>
				<path class="st8" d="M-23.2,407.2c-3.2,0-3.2,5,0,5C-20,412.2-20,407.2-23.2,407.2L-23.2,407.2z"/>
			</g>
		</g>
		<g>
			<g>
				<path class="st8" d="M-137.2,302.8c-3.2,0-3.2,5,0,5C-134,307.7-134,302.8-137.2,302.8L-137.2,302.8z"/>
			</g>
		</g>
		<g>
			<g>
				<path class="st8" d="M-275.1,353c-3.2,0-3.2,5,0,5C-271.9,358-271.9,353-275.1,353L-275.1,353z"/>
			</g>
		</g>
		<g>
			<g>
				<path class="st8" d="M-243.3,339.8c-3.2,0-3.2,5,0,5C-240.1,344.8-240.1,339.8-243.3,339.8L-243.3,339.8z"/>
			</g>
		</g>
		<g>
			<g>
				<path class="st8" d="M-366.6,345.1c-3.2,0-3.2,5,0,5C-363.4,350-363.4,345.1-366.6,345.1L-366.6,345.1z"/>
			</g>
		</g>
		<g>
			<g>
				<path class="st8" d="M-326.8,474.6c-3.2,0-3.2,5,0,5C-323.6,479.6-323.6,474.6-326.8,474.6L-326.8,474.6z"/>
			</g>
		</g>
		<g>
			<g>
				<path class="st8" d="M-228.7,487.9c-3.2,0-3.2,5,0,5C-225.5,492.8-225.5,487.9-228.7,487.9L-228.7,487.9z"/>
			</g>
		</g>
		<g>
			<g>
				<path class="st8" d="M333.8,626.5c-4.8,0-4.8,7.4,0,7.4C338.6,634,338.6,626.5,333.8,626.5L333.8,626.5z"/>
			</g>
		</g>
		<g>
			<g>
				<path class="st8" d="M-312.2,567.2c-3.2,0-3.2,5,0,5C-309,572.1-309,567.2-312.2,567.2L-312.2,567.2z"/>
			</g>
		</g>
		<g>
			<path class="st8" d="M-239.8,735.9c0,4.4-3.6,8-8.1,8c-4.5,0-8.1-3.6-8.1-8c0-4.4,3.6-8,8.1-8
				C-243.5,727.9-239.8,731.5-239.8,735.9z"/>
		</g>
		<g>
			<g>
				<path class="st8" d="M48.3,698.5c-6.4,0-6.4,9.9,0,9.9C54.7,708.4,54.8,698.5,48.3,698.5L48.3,698.5z"/>
			</g>
		</g>
		<g>
			<g>
				<path class="st8" d="M-192.9,830.7c-6.4,0-6.4,9.9,0,9.9C-186.5,840.6-186.5,830.7-192.9,830.7L-192.9,830.7z"/>
			</g>
		</g>
		<g>
			<g>
				<path class="st8" d="M365.2,621.8c-6.4,0-6.4,9.9,0,9.9C371.6,631.8,371.6,621.8,365.2,621.8L365.2,621.8z"/>
			</g>
		</g>
		<g>
			<g>
				<path class="st8" d="M-161.1,698.4c-4.8,0-4.8,7.4,0,7.4C-156.3,705.9-156.3,698.4-161.1,698.4L-161.1,698.4z"/>
			</g>
		</g>
		<g>
			<g>
				<path class="st8" d="M-190.3,625.7c-4.8,0-4.8,7.4,0,7.4C-185.5,633.2-185.5,625.7-190.3,625.7L-190.3,625.7z"/>
			</g>
		</g>
		<g>
			<g>
				<path class="st8" d="M57.6,751.3c-4.8,0-4.8,7.4,0,7.4C62.4,758.8,62.4,751.3,57.6,751.3L57.6,751.3z"/>
			</g>
		</g>
		<g>
			<g>
				<path class="st8" d="M-175.1,746.6c-6.4,0-6.4,9.9,0,9.9C-168.7,756.6-168.7,746.6-175.1,746.6L-175.1,746.6z"/>
			</g>
		</g>
		<g>
			<g>
				<path class="st8" d="M-165.8,799.4c-4.8,0-4.8,7.4,0,7.4C-161,806.9-161,799.4-165.8,799.4L-165.8,799.4z"/>
			</g>
		</g>
		<g>
			<g>
				<path class="st8" d="M338.7,694.5c-4.8,0-4.8,7.4,0,7.4C343.4,701.9,343.5,694.5,338.7,694.5L338.7,694.5z"/>
			</g>
		</g>
		<g>
			<ellipse class="st8" cx="398" cy="748.2" rx="8.1" ry="8"/>
		</g>
		<g>
			<g>
				<path class="st8" d="M378.2,739.9c-6.4,0-6.4,9.9,0,9.9C384.6,749.8,384.6,739.9,378.2,739.9L378.2,739.9z"/>
			</g>
		</g>
		<g>
			<g>
				<path class="st8" d="M418,857.8c-4.8,0-4.8,7.4,0,7.4C422.8,865.2,422.8,857.8,418,857.8L418,857.8z"/>
			</g>
		</g>
		<g>
			<g>
				<path class="st8" d="M-292.3,780.4c-4.8,0-4.8,7.4,0,7.4C-287.5,787.8-287.5,780.4-292.3,780.4L-292.3,780.4z"/>
			</g>
		</g>
		<g>
			<g>
				<path class="st8" d="M-68.3,862.4c-4.8,0-4.8,7.4,0,7.4C-63.5,869.8-63.5,862.4-68.3,862.4L-68.3,862.4z"/>
			</g>
		</g>
		<g>
			<g>
				<path class="st8" d="M371.8,857c-3.2,0-3.2,5,0,5C375,862,375,857,371.8,857L371.8,857z"/>
			</g>
		</g>
		<g>
			<g>
				<path class="st8" d="M43,855.7c-3.2,0-3.2,5,0,5C46.2,860.6,46.2,855.7,43,855.7L43,855.7z"/>
			</g>
		</g>
		<g>
			<g>
				<path class="st8" d="M-23.2,632.3c-3.2,0-3.2,5,0,5C-20,637.2-20,632.3-23.2,632.3L-23.2,632.3z"/>
			</g>
		</g>
		<g>
			<g>
				<path class="st8" d="M-326.8,699.7c-3.2,0-3.2,5,0,5C-323.6,704.6-323.6,699.7-326.8,699.7L-326.8,699.7z"/>
			</g>
		</g>
		<g>
			<g>
				<path class="st8" d="M-228.7,712.9c-3.2,0-3.2,5,0,5C-225.5,717.9-225.5,712.9-228.7,712.9L-228.7,712.9z"/>
			</g>
		</g>
		<g>
			<g>
				<path class="st8" d="M-312.2,792.2c-3.2,0-3.2,5,0,5C-309,797.2-309,792.2-312.2,792.2L-312.2,792.2z"/>
			</g>
		</g>
		<g>
			<g>
				<path class="st8" d="M-287,857c-3.2,0-3.2,5,0,5C-283.8,862-283.8,857-287,857L-287,857z"/>
			</g>
		</g>
		<g>
			<g>
				<path class="st8" d="M-194.2,227.4c-3.2,0-3.2,5,0,5C-191,232.4-191,227.4-194.2,227.4L-194.2,227.4z"/>
			</g>
		</g>
		<g>
			<g>
				<path class="st8" d="M345.3,230.2c-4.8,0-4.8,7.4,0,7.4C350.1,237.6,350.1,230.2,345.3,230.2L345.3,230.2z"/>
			</g>
		</g>
		<g>
			<g>
				<path class="st8" d="M385,287c-4.8,0-4.8,7.4,0,7.4C389.8,294.4,389.9,287,385,287L385,287z"/>
			</g>
		</g>
		<g>
			<g>
				<path class="st8" d="M-0.7,223.5c-4.8,0-4.8,7.4,0,7.4C4.1,231,4.1,223.5-0.7,223.5L-0.7,223.5z"/>
			</g>
		</g>
		<g>
			<g>
				<path class="st8" d="M93.4,275.1c-4.8,0-4.8,7.4,0,7.4C98.2,282.5,98.2,275.1,93.4,275.1L93.4,275.1z"/>
			</g>
		</g>
		<g>
			<g>
				<path class="st8" d="M-134.6,215.6c-4.8,0-4.8,7.4,0,7.4C-129.8,223-129.8,215.6-134.6,215.6L-134.6,215.6z"/>
			</g>
		</g>
		<g>
			<g>
				<path class="st8" d="M-124,264.5c-4.8,0-4.8,7.4,0,7.4C-119.2,272-119.2,264.5-124,264.5L-124,264.5z"/>
			</g>
		</g>
		<g>
			<g>
				<path class="st8" d="M-227.4,214.3c-4.8,0-4.8,7.4,0,7.4C-222.6,221.7-222.6,214.3-227.4,214.3L-227.4,214.3z"/>
			</g>
		</g>
		<g>
			<g>
				<path class="st8" d="M-317.5,197.1c-4.8,0-4.8,7.4,0,7.4C-312.7,204.5-312.7,197.1-317.5,197.1L-317.5,197.1z"/>
			</g>
		</g>
		<g>
			<g>
				<path class="st8" d="M-370.5,218.3c-4.8,0-4.8,7.4,0,7.4C-365.7,225.7-365.7,218.3-370.5,218.3L-370.5,218.3z"/>
			</g>
		</g>
		<g>
			<g>
				<path class="st8" d="M-341.4,250c-4.8,0-4.8,7.4,0,7.4C-336.6,257.4-336.6,250-341.4,250L-341.4,250z"/>
			</g>
		</g>
		<g>
			<g>
				<path class="st8" d="M-280.4,218.2c-3.2,0-3.2,5,0,5C-277.2,223.1-277.2,218.2-280.4,218.2L-280.4,218.2z"/>
			</g>
		</g>
		<g>
			<g>
				<path class="st8" d="M-208.8,187.8c-3.2,0-3.2,5,0,5C-205.6,192.7-205.6,187.8-208.8,187.8L-208.8,187.8z"/>
			</g>
		</g>
		<g>
			<g>
				<path class="st8" d="M-35.2,211.6c-3.2,0-3.2,5,0,5C-32,216.5-32,211.6-35.2,211.6L-35.2,211.6z"/>
			</g>
		</g>
		<g>
			<g>
				<path class="st8" d="M-72.3,199.7c-3.2,0-3.2,5,0,5C-69.1,204.6-69.1,199.7-72.3,199.7L-72.3,199.7z"/>
			</g>
		</g>
		<g>
			<g>
				<path class="st8" d="M24.5,199.7c-3.2,0-3.2,5,0,5C27.7,204.6,27.7,199.7,24.5,199.7L24.5,199.7z"/>
			</g>
		</g>
		<g>
			<g>
				<path class="st8" d="M20.5,231.4c-3.2,0-3.2,5,0,5C23.7,236.3,23.7,231.4,20.5,231.4L20.5,231.4z"/>
			</g>
		</g>
		<g>
			<g>
				<path class="st8" d="M98.7,242c-3.2,0-3.2,5,0,5C101.9,246.9,101.9,242,98.7,242L98.7,242z"/>
			</g>
		</g>
		<g>
			<g>
				<path class="st8" d="M40.4,269.7c-3.2,0-3.2,5,0,5C43.6,274.7,43.6,269.7,40.4,269.7L40.4,269.7z"/>
			</g>
		</g>
		<g>
			<g>
				<path class="st8" d="M204.8,232.7c-3.2,0-3.2,5,0,5C208,237.7,208,232.7,204.8,232.7L204.8,232.7z"/>
			</g>
		</g>
		<g>
			<g>
				<path class="st8" d="M187.5,261.8c-3.2,0-3.2,5,0,5C190.7,266.8,190.7,261.8,187.5,261.8L187.5,261.8z"/>
			</g>
		</g>
		<g>
			<g>
				<path class="st8" d="M264.4,249.9c-3.2,0-3.2,5,0,5C267.6,254.9,267.6,249.9,264.4,249.9L264.4,249.9z"/>
			</g>
		</g>
		<g>
			<g>
				<path class="st8" d="M252.5,284.3c-3.2,0-3.2,5,0,5C255.7,289.2,255.7,284.3,252.5,284.3L252.5,284.3z"/>
			</g>
		</g>
		<g>
			<g>
				<path class="st8" d="M326.7,280.3c-3.2,0-3.2,5,0,5C329.9,285.3,329.9,280.3,326.7,280.3L326.7,280.3z"/>
			</g>
		</g>
		<g>
			<g>
				<path class="st8" d="M359.9,255.2c-3.2,0-3.2,5,0,5C363.1,260.1,363.1,255.2,359.9,255.2L359.9,255.2z"/>
			</g>
		</g>
		<g>
			<g>
				<path class="st8" d="M389,243.3c-3.2,0-3.2,5,0,5C392.2,248.2,392.2,243.3,389,243.3L389,243.3z"/>
			</g>
		</g>
	</g>
	<g>
		<g>
			<g>
				<g>
					<g>
						<path class="st8" d="M535.9,295l4.6,4.1c0.6,0.5,0.6,1.4,0.1,1.9c-0.5,0.6-1.4,0.6-1.9,0.1l-2.8-2.5l-2.8,2.5
							c-0.6,0.5-1.4,0.5-1.9-0.1c-0.5-0.6-0.5-1.4,0.1-1.9L535.9,295z"/>
					</g>
				</g>
			</g>
		</g>
		<g>
			<path class="st8" d="M542.6,510.9c0,4.4-3.6,8-8.1,8c-4.5,0-8.1-3.6-8.1-8c0-4.4,3.6-8,8.1-8C539,502.8,542.6,506.4,542.6,510.9z
				"/>
		</g>
		<g>
			<path class="st8" d="M711.5,352.9c0,4.4-3.6,8-8.1,8c-4.5,0-8.1-3.6-8.1-8c0-4.4,3.6-8,8.1-8
				C707.9,344.8,711.5,348.4,711.5,352.9z"/>
		</g>
		<g>
			<g>
				<path class="st8" d="M596.1,301.6c-6.4,0-6.4,9.9,0,9.9C602.5,311.5,602.5,301.6,596.1,301.6L596.1,301.6z"/>
			</g>
		</g>
		<g>
			<g>
				<path class="st8" d="M589.5,605.7c-6.4,0-6.4,9.9,0,9.9C595.9,615.6,595.9,605.7,589.5,605.7L589.5,605.7z"/>
			</g>
		</g>
		<g>
			<g>
				<path class="st8" d="M418.5,466.9c-6.4,0-6.4,9.9,0,9.9C424.9,476.8,424.9,466.9,418.5,466.9L418.5,466.9z"/>
			</g>
		</g>
		<g>
			<g>
				<path class="st8" d="M621.3,473.4c-4.8,0-4.8,7.4,0,7.4C626.1,480.8,626.1,473.4,621.3,473.4L621.3,473.4z"/>
			</g>
		</g>
		<g>
			<g>
				<path class="st8" d="M592.2,400.7c-4.8,0-4.8,7.4,0,7.4C597,408.1,597,400.7,592.2,400.7L592.2,400.7z"/>
			</g>
		</g>
		<g>
			<g>
				<path class="st8" d="M490.1,555.4c-4.8,0-4.8,7.4,0,7.4C494.9,562.8,494.9,555.4,490.1,555.4L490.1,555.4z"/>
			</g>
		</g>
		<g>
			<g>
				<path class="st8" d="M714.1,637.3c-4.8,0-4.8,7.4,0,7.4C718.9,644.8,718.9,637.3,714.1,637.3L714.1,637.3z"/>
			</g>
		</g>
		<g>
			<g>
				<path class="st8" d="M742,260.5c-3.2,0-3.2,5,0,5C745.1,265.4,745.2,260.5,742,260.5L742,260.5z"/>
			</g>
		</g>
		<g>
			<g>
				<path class="st8" d="M645.2,302.8c-3.2,0-3.2,5,0,5C648.4,307.7,648.4,302.8,645.2,302.8L645.2,302.8z"/>
			</g>
		</g>
		<g>
			<g>
				<path class="st8" d="M507.3,353c-3.2,0-3.2,5,0,5C510.5,358,510.5,353,507.3,353L507.3,353z"/>
			</g>
		</g>
		<g>
			<g>
				<path class="st8" d="M539.1,339.8c-3.2,0-3.2,5,0,5C542.3,344.8,542.3,339.8,539.1,339.8L539.1,339.8z"/>
			</g>
		</g>
		<g>
			<g>
				<path class="st8" d="M415.9,345.1c-3.2,0-3.2,5,0,5C419.1,350,419.1,345.1,415.9,345.1L415.9,345.1z"/>
			</g>
		</g>
		<g>
			<g>
				<path class="st8" d="M455.6,474.6c-3.2,0-3.2,5,0,5C458.8,479.6,458.8,474.6,455.6,474.6L455.6,474.6z"/>
			</g>
		</g>
		<g>
			<g>
				<path class="st8" d="M553.7,487.9c-3.2,0-3.2,5,0,5C556.9,492.8,556.9,487.9,553.7,487.9L553.7,487.9z"/>
			</g>
		</g>
		<g>
			<g>
				<path class="st8" d="M470.2,567.2c-3.2,0-3.2,5,0,5C473.4,572.1,473.4,567.2,470.2,567.2L470.2,567.2z"/>
			</g>
		</g>
		<g>
			<path class="st8" d="M542.6,735.9c0,4.4-3.6,8-8.1,8c-4.5,0-8.1-3.6-8.1-8c0-4.4,3.6-8,8.1-8C539,727.9,542.6,731.5,542.6,735.9z
				"/>
		</g>
		<g>
			<g>
				<path class="st8" d="M589.5,830.7c-6.4,0-6.4,9.9,0,9.9C595.9,840.6,595.9,830.7,589.5,830.7L589.5,830.7z"/>
			</g>
		</g>
		<g>
			<g>
				<path class="st8" d="M621.3,698.4c-4.8,0-4.8,7.4,0,7.4C626.1,705.9,626.1,698.4,621.3,698.4L621.3,698.4z"/>
			</g>
		</g>
		<g>
			<g>
				<path class="st8" d="M592.2,625.7c-4.8,0-4.8,7.4,0,7.4C597,633.2,597,625.7,592.2,625.7L592.2,625.7z"/>
			</g>
		</g>
		<g>
			<g>
				<path class="st8" d="M607.4,746.6c-6.4,0-6.4,9.9,0,9.9C613.8,756.6,613.8,746.6,607.4,746.6L607.4,746.6z"/>
			</g>
		</g>
		<g>
			<g>
				<path class="st8" d="M616.6,799.4c-4.8,0-4.8,7.4,0,7.4C621.4,806.9,621.4,799.4,616.6,799.4L616.6,799.4z"/>
			</g>
		</g>
		<g>
			<g>
				<path class="st8" d="M490.1,780.4c-4.8,0-4.8,7.4,0,7.4C494.9,787.8,494.9,780.4,490.1,780.4L490.1,780.4z"/>
			</g>
		</g>
		<g>
			<g>
				<path class="st8" d="M714.1,862.4c-4.8,0-4.8,7.4,0,7.4C718.9,869.8,718.9,862.4,714.1,862.4L714.1,862.4z"/>
			</g>
		</g>
		<g>
			<g>
				<path class="st8" d="M455.6,699.7c-3.2,0-3.2,5,0,5C458.8,704.6,458.8,699.7,455.6,699.7L455.6,699.7z"/>
			</g>
		</g>
		<g>
			<g>
				<path class="st8" d="M553.7,712.9c-3.2,0-3.2,5,0,5C556.9,717.9,556.9,712.9,553.7,712.9L553.7,712.9z"/>
			</g>
		</g>
		<g>
			<g>
				<path class="st8" d="M470.2,792.2c-3.2,0-3.2,5,0,5C473.4,797.2,473.4,792.2,470.2,792.2L470.2,792.2z"/>
			</g>
		</g>
		<g>
			<g>
				<path class="st8" d="M495.4,857c-3.2,0-3.2,5,0,5C498.6,862,498.6,857,495.4,857L495.4,857z"/>
			</g>
		</g>
		<g>
			<g>
				<path class="st8" d="M588.2,227.4c-3.2,0-3.2,5,0,5C591.4,232.4,591.4,227.4,588.2,227.4L588.2,227.4z"/>
			</g>
		</g>
		<g>
			<g>
				<path class="st8" d="M647.8,215.6c-4.8,0-4.8,7.4,0,7.4C652.6,223,652.6,215.6,647.8,215.6L647.8,215.6z"/>
			</g>
		</g>
		<g>
			<g>
				<path class="st8" d="M658.4,264.5c-4.8,0-4.8,7.4,0,7.4C663.2,272,663.2,264.5,658.4,264.5L658.4,264.5z"/>
			</g>
		</g>
		<g>
			<g>
				<path class="st8" d="M555,214.3c-4.8,0-4.8,7.4,0,7.4C559.8,221.7,559.8,214.3,555,214.3L555,214.3z"/>
			</g>
		</g>
		<g>
			<g>
				<path class="st8" d="M464.9,197.1c-4.8,0-4.8,7.4,0,7.4C469.7,204.5,469.7,197.1,464.9,197.1L464.9,197.1z"/>
			</g>
		</g>
		<g>
			<g>
				<path class="st8" d="M411.9,218.3c-4.8,0-4.8,7.4,0,7.4C416.7,225.7,416.7,218.3,411.9,218.3L411.9,218.3z"/>
			</g>
		</g>
		<g>
			<g>
				<path class="st8" d="M441,250c-4.8,0-4.8,7.4,0,7.4C445.8,257.4,445.8,250,441,250L441,250z"/>
			</g>
		</g>
		<g>
			<g>
				<path class="st8" d="M502,218.2c-3.2,0-3.2,5,0,5C505.2,223.1,505.2,218.2,502,218.2L502,218.2z"/>
			</g>
		</g>
		<g>
			<g>
				<path class="st8" d="M573.6,187.8c-3.2,0-3.2,5,0,5C576.8,192.7,576.8,187.8,573.6,187.8L573.6,187.8z"/>
			</g>
		</g>
		<g>
			<g>
				<path class="st8" d="M747.3,211.6L747.3,211.6c-3.2,0-3.2,5,0,5l0,0L747.3,211.6z"/>
			</g>
		</g>
		<g>
			<g>
				<path class="st8" d="M710.1,199.7c-3.2,0-3.2,5,0,5C713.3,204.6,713.3,199.7,710.1,199.7L710.1,199.7z"/>
			</g>
		</g>
	</g>
</g>
</svg>
