<?xml version="1.0" encoding="utf-8"?>
<!-- Generator: Adobe Illustrator 23.0.1, SVG Export Plug-In . SVG Version: 6.00 Build 0)  -->
<svg version="1.1" id="Livello_1" xmlns="http://www.w3.org/2000/svg" xmlns:xlink="http://www.w3.org/1999/xlink" x="0px" y="0px"
	 viewBox="0 0 450 800" style="enable-background:new 0 0 450 800;" xml:space="preserve">
<style type="text/css">
	.st0{fill:#B46100;}
	.st1{fill:#A64D00;}
	.st2{fill:#54B861;}
	.st3{fill:#6AD372;}
	.st4{fill:#54984D;}
	.st5{fill:#FFFF79;}
	.st6{opacity:0.1;}
	.st7{fill:#1A3E51;}
	.st8{fill:#FFFFFF;}
	.st9{fill:#FF3E2C;}
	.st10{fill:#2C88F7;}
	.st11{fill:#5EB6E2;}
	.st12{fill:#CACEC6;}
	.st13{fill:#BBBFB8;}
	.st14{fill:#EFEFF0;}
	.st15{fill:#F1FAFE;}
	.st16{opacity:0.69;}
	.st17{fill:#C2A48C;}
	.st18{fill:#E8D7C5;}
	.st19{fill:#F8E7D5;}
	.st20{fill:#A6201F;}
	.st21{fill:#622E21;}
	.st22{fill:#C72727;}
	.st23{fill:#C72822;}
	.st24{fill:#145C3E;}
	.st25{fill:#F8F6F3;}
	.st26{fill:#104A31;}
	.st27{fill:#FF5526;}
	.st28{fill:#FF9B6F;}
	.st29{fill:#753422;}
	.st30{fill:#512600;}
</style>
<g>
	<g>
		<g>
			<g>
				<g>
					<rect x="411.5" y="844.2" class="st0" width="6.7" height="28.1"/>
				</g>
				<g>
					<rect x="411.5" y="844.2" class="st1" width="3.4" height="28.1"/>
				</g>
			</g>
			<g>
				<g>
					<g>
						<polygon class="st2" points="388,854.7 414.8,804.2 441.7,854.7 						"/>
					</g>
					<g>
						<polygon class="st3" points="414.8,854.7 414.8,804.2 441.7,854.7 						"/>
					</g>
					<g>
						<polygon class="st2" points="431.2,834.9 414.8,834.9 414.8,804.2 						"/>
					</g>
					<g>
						<polygon class="st4" points="414.8,804.2 414.8,834.9 398.5,834.9 						"/>
					</g>
				</g>
				<g>
					<g>
						<polygon class="st2" points="393.8,833.2 414.8,793.5 435.9,833.2 						"/>
					</g>
					<g>
						<polygon class="st3" points="414.8,833.2 414.8,793.5 435.9,833.2 						"/>
					</g>
					<g>
						<polygon class="st2" points="427.7,817.6 414.8,817.6 414.8,793.5 						"/>
					</g>
					<g>
						<polygon class="st4" points="414.8,793.5 414.8,817.6 402.1,817.6 						"/>
					</g>
				</g>
				<g>
					<g>
						<polygon class="st2" points="432,815.9 397.8,815.9 404.1,803.9 414.8,783.7 425.5,803.9 						"/>
					</g>
					<g>
						<polygon class="st3" points="414.8,815.9 414.8,783.7 432,815.9 						"/>
					</g>
					<g>
						<polygon class="st5" points="414.8,778.5 416.3,781.4 419.5,781.8 417.2,784.1 417.7,787.2 414.8,785.7 412,787.2 
							412.5,784.1 410.3,781.8 413.4,781.4 						"/>
					</g>
				</g>
			</g>
		</g>
		<g class="st6">
			<polygon class="st7" points="411.5,872.4 395.6,877.3 418.2,872.4 			"/>
		</g>
	</g>
	<g>
		<path class="st8" d="M422,796.5c-4,6.2-8.5,12.2-14.9,16.1c-1.9,1.1-3.9,2.1-6,2.8c-0.2,0.1,0,0.1,0.1,0.1
			c7.2-2.4,12.8-7.6,17.2-13.5c1.4-1.8,2.6-3.7,3.9-5.6C422.3,796.5,422.1,796.5,422,796.5L422,796.5z"/>
	</g>
	<g>
		<path class="st8" d="M428.6,819.7c-6.7,6.4-15.6,10.8-24.8,12.3c-2.5,0.4-5.1,0.6-7.6,0.4c-0.1,0-0.3,0.2-0.1,0.2
			c9.3,0.5,18.8-2.8,26.5-7.9c2.2-1.5,4.3-3.1,6.3-5C429,819.7,428.7,819.7,428.6,819.7L428.6,819.7z"/>
	</g>
	<g>
		<path class="st8" d="M433.1,839.5c-4.3,4.6-10.7,7.2-16.6,9.3c-6.2,2.1-12.6,3.6-19.1,4.5c-2.4,0.3-4.7,0.7-7.1,0.6
			c-0.1,0-0.3,0.2-0.1,0.2c2,0.1,4.1-0.2,6.2-0.4c3-0.4,6-0.9,9-1.5c6.7-1.5,13.6-3.5,19.7-6.7c3-1.5,5.9-3.3,8.2-5.9
			C433.4,839.4,433.2,839.4,433.1,839.5L433.1,839.5z"/>
	</g>
	<g>
		<rect x="401.4" y="815.7" class="st8" width="26.8" height="0.2"/>
	</g>
	<g>
		<rect x="395.6" y="833.1" class="st8" width="37.7" height="0.2"/>
	</g>
	<g>
		<rect x="389.9" y="854.5" class="st8" width="49.4" height="0.2"/>
	</g>
	<g>
		<g>
			<circle class="st9" cx="401.4" cy="815.8" r="1.4"/>
		</g>
		<g>
			<circle class="st5" cx="406.8" cy="815.8" r="1.4"/>
		</g>
		<g>
			<circle class="st5" cx="419.5" cy="807.8" r="1.4"/>
		</g>
		<g>
			<circle class="st10" cx="412.1" cy="815.8" r="1.4"/>
		</g>
		<g>
			<circle class="st9" cx="422.9" cy="815.8" r="1.4"/>
		</g>
		<g>
			<ellipse class="st9" cx="412.5" cy="799.8" rx="1.4" ry="1.4"/>
		</g>
		<g>
			<circle class="st8" cx="417.5" cy="815.9" r="1.4"/>
		</g>
		<g>
			<circle class="st8" cx="406.8" cy="807" r="1.4"/>
		</g>
		<g>
			<circle class="st10" cx="428.2" cy="815.8" r="1.4"/>
		</g>
		<g>
			<circle class="st10" cx="426" cy="811.1" r="1.4"/>
		</g>
	</g>
	<g>
		<g>
			<circle class="st9" cx="401.4" cy="833.2" r="1.4"/>
		</g>
		<g>
			<circle class="st5" cx="396" cy="833.2" r="1.4"/>
		</g>
		<g>
			<circle class="st5" cx="410.3" cy="827.6" r="1.4"/>
		</g>
		<g>
			<circle class="st5" cx="406.8" cy="833.2" r="1.4"/>
		</g>
		<g>
			<circle class="st5" cx="420.8" cy="822.1" r="1.4"/>
		</g>
		<g>
			<circle class="st10" cx="412.1" cy="833.2" r="1.4"/>
		</g>
		<g>
			<circle class="st9" cx="422.9" cy="833.2" r="1.4"/>
		</g>
		<g>
			<circle class="st9" cx="405.5" cy="824.5" r="1.4"/>
		</g>
		<g>
			<circle class="st8" cx="417.5" cy="833.2" r="1.4"/>
		</g>
		<g>
			<circle class="st10" cx="428.2" cy="833.2" r="1.4"/>
		</g>
		<g>
			<circle class="st10" cx="426" cy="827.6" r="1.4"/>
		</g>
		<g>
			<circle class="st9" cx="433.3" cy="833.2" r="1.4"/>
		</g>
	</g>
	<g>
		<g>
			<circle class="st9" cx="401.4" cy="854.6" r="1.4"/>
		</g>
		<g>
			<circle class="st9" cx="419.5" cy="840.3" r="1.4"/>
		</g>
		<g>
			<circle class="st5" cx="396" cy="854.6" r="1.4"/>
		</g>
		<g>
			<circle class="st10" cx="390.3" cy="854.6" r="1.4"/>
		</g>
		<g>
			<circle class="st10" cx="432" cy="847.2" r="1.4"/>
		</g>
		<g>
			<circle class="st5" cx="406.8" cy="854.6" r="1.4"/>
		</g>
		<g>
			<circle class="st5" cx="409.5" cy="846.5" r="1.4"/>
		</g>
		<g>
			<circle class="st10" cx="412.1" cy="854.6" r="1.4"/>
		</g>
		<g>
			<circle class="st8" cx="417.5" cy="854.6" r="1.4"/>
		</g>
		<g>
			<circle class="st8" cx="426" cy="848.8" r="1.4"/>
		</g>
		<g>
			<circle class="st8" cx="402.8" cy="840.8" r="1.4"/>
		</g>
		<g>
			<circle class="st9" cx="422.9" cy="854.6" r="1.4"/>
		</g>
		<g>
			<circle class="st9" cx="397.4" cy="848.3" r="1.4"/>
		</g>
		<g>
			<circle class="st10" cx="428.2" cy="854.6" r="1.4"/>
		</g>
		<g>
			<circle class="st8" cx="433.3" cy="854.6" r="1.4"/>
		</g>
		<g>
			<circle class="st9" cx="439" cy="854.6" r="1.4"/>
		</g>
	</g>
</g>
<g>
	<g>
		<g>
			<g>
				<g>
					<rect x="145" y="848.1" class="st0" width="6.2" height="25.7"/>
				</g>
				<g>
					<rect x="145" y="848.1" class="st1" width="3.1" height="25.7"/>
				</g>
			</g>
			<g>
				<g>
					<g>
						<polygon class="st2" points="123.6,857.7 148.1,811.5 172.8,857.7 						"/>
					</g>
					<g>
						<polygon class="st3" points="148.1,857.7 148.1,811.5 172.8,857.7 						"/>
					</g>
					<g>
						<polygon class="st2" points="163.1,839.6 148.1,839.6 148.1,811.5 						"/>
					</g>
					<g>
						<polygon class="st4" points="148.1,811.5 148.1,839.6 133.3,839.6 						"/>
					</g>
				</g>
				<g>
					<g>
						<polygon class="st2" points="129,838.1 148.1,801.8 167.4,838.1 						"/>
					</g>
					<g>
						<polygon class="st3" points="148.1,838.1 148.1,801.8 167.4,838.1 						"/>
					</g>
					<g>
						<polygon class="st2" points="159.8,823.8 148.1,823.8 148.1,801.8 						"/>
					</g>
					<g>
						<polygon class="st4" points="148.1,801.8 148.1,823.8 136.5,823.8 						"/>
					</g>
				</g>
				<g>
					<g>
						<polygon class="st2" points="163.8,822.3 132.5,822.3 138.4,811.3 148.1,792.9 158,811.3 						"/>
					</g>
					<g>
						<polygon class="st3" points="148.1,822.3 148.1,792.9 163.8,822.3 						"/>
					</g>
					<g>
						<polygon class="st5" points="148.1,788.1 149.4,790.7 152.4,791.2 150.2,793.2 150.7,796.1 148.1,794.7 145.6,796.1 
							146.1,793.2 144,791.2 146.9,790.7 						"/>
					</g>
				</g>
			</g>
		</g>
		<g class="st6">
			<polygon class="st7" points="145,873.8 130.6,878.4 151.3,873.8 			"/>
		</g>
	</g>
	<g>
		<path class="st8" d="M154.7,804.6c-3.7,5.6-7.8,11.1-13.6,14.7c-1.7,1.1-3.6,2-5.5,2.6c-0.2,0.1,0,0.1,0.1,0.1
			c6.6-2.3,11.6-6.9,15.8-12.4c1.2-1.6,2.4-3.3,3.6-5.1C155,804.5,154.7,804.5,154.7,804.6L154.7,804.6z"/>
	</g>
	<g>
		<path class="st8" d="M160.8,825.8c-6.1,5.9-14.3,9.8-22.7,11.2c-2.3,0.4-4.6,0.5-7,0.4c-0.1,0-0.2,0.1-0.1,0.2
			c8.5,0.4,17.1-2.5,24.2-7.2C157.2,829.1,159.2,827.6,160.8,825.8C161.1,825.7,160.8,825.7,160.8,825.8L160.8,825.8z"/>
	</g>
	<g>
		<path class="st8" d="M164.9,843.8c-4,4.2-9.8,6.7-15.1,8.5c-5.6,2-11.5,3.3-17.4,4.1c-2.1,0.3-4.3,0.6-6.5,0.5
			c-0.1,0-0.2,0.2-0.1,0.2c1.9,0.1,3.8-0.2,5.7-0.4c2.8-0.3,5.5-0.8,8.2-1.5c6.2-1.4,12.4-3.2,18-6.1c2.8-1.4,5.4-3.1,7.5-5.4
			C165.2,843.7,165,843.7,164.9,843.8L164.9,843.8z"/>
	</g>
	<g>
		<rect x="135.9" y="822.1" class="st8" width="24.5" height="0.2"/>
	</g>
	<g>
		<rect x="130.7" y="838" class="st8" width="34.5" height="0.2"/>
	</g>
	<g>
		<rect x="125.4" y="857.5" class="st8" width="45.1" height="0.2"/>
	</g>
	<g>
		<g>
			<circle class="st9" cx="135.9" cy="822.2" r="1.2"/>
		</g>
		<g>
			<circle class="st5" cx="140.8" cy="822.2" r="1.2"/>
		</g>
		<g>
			<circle class="st5" cx="152.4" cy="814.9" r="1.2"/>
		</g>
		<g>
			<circle class="st10" cx="145.7" cy="822.2" r="1.2"/>
		</g>
		<g>
			<circle class="st9" cx="155.5" cy="822.2" r="1.2"/>
		</g>
		<g>
			<ellipse class="st9" cx="146" cy="807.5" rx="1.2" ry="1.2"/>
		</g>
		<g>
			<circle class="st8" cx="150.7" cy="822.3" r="1.2"/>
		</g>
		<g>
			<circle class="st8" cx="140.8" cy="814.2" r="1.2"/>
		</g>
		<g>
			<circle class="st10" cx="160.4" cy="822.2" r="1.2"/>
		</g>
		<g>
			<circle class="st10" cx="158.3" cy="817.8" r="1.2"/>
		</g>
	</g>
	<g>
		<g>
			<circle class="st9" cx="135.9" cy="838.1" r="1.2"/>
		</g>
		<g>
			<circle class="st5" cx="131" cy="838.1" r="1.2"/>
		</g>
		<g>
			<circle class="st5" cx="144" cy="833" r="1.2"/>
		</g>
		<g>
			<circle class="st5" cx="140.8" cy="838.1" r="1.2"/>
		</g>
		<g>
			<circle class="st5" cx="153.7" cy="828" r="1.2"/>
		</g>
		<g>
			<circle class="st10" cx="145.7" cy="838.1" r="1.2"/>
		</g>
		<g>
			<circle class="st9" cx="155.5" cy="838.1" r="1.2"/>
		</g>
		<g>
			<circle class="st9" cx="139.6" cy="830.1" r="1.2"/>
		</g>
		<g>
			<circle class="st8" cx="150.7" cy="838.1" r="1.2"/>
		</g>
		<g>
			<circle class="st10" cx="160.4" cy="838.1" r="1.2"/>
		</g>
		<g>
			<circle class="st10" cx="158.3" cy="833" r="1.2"/>
		</g>
		<g>
			<circle class="st9" cx="165" cy="838.1" r="1.2"/>
		</g>
	</g>
	<g>
		<g>
			<circle class="st9" cx="135.9" cy="857.6" r="1.2"/>
		</g>
		<g>
			<circle class="st9" cx="152.4" cy="844.7" r="1.2"/>
		</g>
		<g>
			<circle class="st5" cx="131" cy="857.6" r="1.2"/>
		</g>
		<g>
			<circle class="st10" cx="125.8" cy="857.6" r="1.2"/>
		</g>
		<g>
			<circle class="st10" cx="163.8" cy="850.8" r="1.2"/>
		</g>
		<g>
			<circle class="st5" cx="140.8" cy="857.6" r="1.2"/>
		</g>
		<g>
			<circle class="st5" cx="143.3" cy="850.3" r="1.2"/>
		</g>
		<g>
			<circle class="st10" cx="145.7" cy="857.6" r="1.2"/>
		</g>
		<g>
			<circle class="st8" cx="150.7" cy="857.6" r="1.2"/>
		</g>
		<g>
			<circle class="st8" cx="158.3" cy="852.3" r="1.2"/>
		</g>
		<g>
			<circle class="st8" cx="137.2" cy="845.1" r="1.2"/>
		</g>
		<g>
			<circle class="st9" cx="155.5" cy="857.6" r="1.2"/>
		</g>
		<g>
			<circle class="st9" cx="132.3" cy="851.9" r="1.2"/>
		</g>
		<g>
			<circle class="st10" cx="160.4" cy="857.6" r="1.2"/>
		</g>
		<g>
			<circle class="st8" cx="165" cy="857.6" r="1.2"/>
		</g>
		<g>
			<circle class="st9" cx="170.2" cy="857.6" r="1.2"/>
		</g>
	</g>
</g>
<g>
	<rect x="-286.9" class="st11" width="930.2" height="942.3"/>
</g>
<g>
	<g>
		<polygon class="st12" points="-286.9,700.7 -154.7,700.7 -181.1,368.7 -286.9,586.2 		"/>
	</g>
	<g>
		<polygon class="st13" points="-180.8,368 -181.1,368.7 -154.7,700.7 -33.1,700.7 		"/>
	</g>
	<g>
		<polygon class="st8" points="-232.3,474 -206.7,450.1 -199.3,479 -181.1,458.2 -171.4,491.4 -180.8,368 		"/>
	</g>
	<g>
		<polygon class="st14" points="-135.5,470 -149,461.1 -150.4,482 -166.7,464.7 -171.4,491.4 -180.8,368 		"/>
	</g>
</g>
<g>
	<g>
		<polygon class="st12" points="-189.3,700.7 -49.4,700.7 -76.3,492.4 		"/>
	</g>
	<g>
		<polygon class="st13" points="-75.7,491.4 -76.3,492.4 -49.4,700.7 23.8,700.7 		"/>
	</g>
	<g>
		<polygon class="st8" points="-105.1,545.5 -89.3,534.4 -85.2,562.9 -76.3,548.7 -66.5,568.1 -76.3,492.4 		"/>
	</g>
	<g>
		<polygon class="st14" points="-49.4,546.6 -59.2,539.2 -66.5,568.1 -76.3,492.4 -75.7,491.4 		"/>
	</g>
</g>
<g>
	<g>
		<polygon class="st13" points="285.5,701.4 369.4,701.4 391.8,468.8 		"/>
	</g>
	<g>
		<polygon class="st12" points="393,466 391.8,468.8 369.4,701.4 506.6,701.4 		"/>
	</g>
	<g>
		<polygon class="st14" points="361.3,535.6 378.8,520.8 385.5,533.9 391.8,468.8 		"/>
	</g>
	<g>
		<polygon class="st8" points="393,466 422.1,526.2 400.1,510.5 385.5,533.9 391.8,468.8 		"/>
	</g>
</g>
<g>
	<g>
		<polygon class="st13" points="384,701.4 507.8,701.4 545.8,330.5 		"/>
	</g>
	<g>
		<polygon class="st12" points="644.3,534.3 547.8,325.9 545.8,330.5 507.8,701.4 644.3,701.4 		"/>
	</g>
	<g>
		<polygon class="st14" points="513,405.7 529.5,388.2 537.7,409.7 545.8,330.5 		"/>
	</g>
	<g>
		<polygon class="st8" points="547.8,325.9 588.1,413 570,389.8 565.8,409.7 551,384.2 537.7,409.7 545.8,330.5 		"/>
	</g>
</g>
<g>
	<g>
		<polygon class="st12" points="276,534.4 275.1,536.1 239.9,700.7 349.3,700.7 		"/>
	</g>
	<g>
		<polygon class="st13" points="194.6,700.7 239.9,700.7 275.1,536.1 		"/>
	</g>
	<g>
		<polygon class="st14" points="258.9,569.3 275.1,536.1 267.8,570.5 266.1,562.9 		"/>
	</g>
	<g>
		<polygon class="st8" points="276,534.4 290.1,566.4 281.4,559 280.7,569.1 274.6,558.6 267.8,570.5 275.1,536.1 		"/>
	</g>
</g>
<g>
	<g>
		<path class="st12" d="M-66.5,700.7c0,0,69.8-87.4,116.5-72.1c46.7,15.3,84.5,72.1,84.5,72.1H-66.5z"/>
	</g>
	<g>
		<path class="st13" d="M49.9,636.1c36.2,11.9,84.5,64.6,84.5,64.6s-37.8-56.7-84.5-72c-46.6-15.3-116.4,72-116.4,72
			S11.7,623.6,49.9,636.1z"/>
	</g>
</g>
<g>
	<rect x="-286.9" y="701.4" class="st8" width="930.2" height="193.9"/>
</g>
<g>
	<path class="st8" d="M643.3,835.1v107.2h-930.2V757.7c52,0.4,104,4.8,155.3,13.4l234.3,39L273,840.2
		C396.1,861.9,521.9,860,643.3,835.1z"/>
</g>
<g>
	<path class="st8" d="M644.3,664.6l-1,183.6h-930.2V663.6c52,0.4,104,4.8,155.3,13.4l234.3,39l176,3.5
		C401.8,741.2,522.9,689.5,644.3,664.6z"/>
</g>
<g>
	<path class="st15" d="M643.3,883.7c-72.7,21.1-167.7,14.7-242.6,4S251.5,860.1,175.9,856c-54.2-2.9-108.6,0.8-162.8,4.6
		c-100.7,7-199.3-46.5-300-39.5v121.3h930.2V883.7z"/>
</g>
<g>
	<g>
		<path class="st12" d="M275.1,700.7c0,0-46.4-49.2-107.6-45.9c-54.7,2.9-143.8,45.9-143.8,45.9H275.1z"/>
	</g>
	<g>
		<path class="st13" d="M167.6,663.4c44.9-2.4,107.6,37.4,107.6,37.4s-46.4-49.2-107.6-45.9c-54.7,2.9-143.8,45.9-143.8,45.9
			S128.5,665.5,167.6,663.4z"/>
	</g>
</g>
<g>
	<g>
		<g>
			<g>
				<g>
					<rect x="507.9" y="693.7" class="st0" width="3.6" height="14.7"/>
				</g>
				<g>
					<rect x="507.9" y="693.7" class="st1" width="1.8" height="14.7"/>
				</g>
			</g>
			<g>
				<g>
					<g>
						<polygon class="st2" points="495.6,699.2 509.7,672.8 523.8,699.2 						"/>
					</g>
					<g>
						<polygon class="st3" points="509.7,699.2 509.7,672.8 523.8,699.2 						"/>
					</g>
					<g>
						<polygon class="st2" points="518.3,688.8 509.7,688.8 509.7,672.8 						"/>
					</g>
					<g>
						<polygon class="st4" points="509.7,672.8 509.7,688.8 501.1,688.8 						"/>
					</g>
				</g>
				<g>
					<g>
						<polygon class="st2" points="498.6,688 509.7,667.2 520.8,688 						"/>
					</g>
					<g>
						<polygon class="st3" points="509.7,688 509.7,667.2 520.8,688 						"/>
					</g>
					<g>
						<polygon class="st2" points="516.4,679.8 509.7,679.8 509.7,667.2 						"/>
					</g>
					<g>
						<polygon class="st4" points="509.7,667.2 509.7,679.8 503,679.8 						"/>
					</g>
				</g>
				<g>
					<g>
						<polygon class="st2" points="518.7,678.9 500.7,678.9 504.1,672.6 509.7,662.1 515.3,672.6 						"/>
					</g>
					<g>
						<polygon class="st3" points="509.7,678.9 509.7,662.1 518.7,678.9 						"/>
					</g>
				</g>
			</g>
		</g>
		<g class="st6">
			<polygon class="st7" points="507.9,708.5 499.6,711.1 511.5,708.5 			"/>
		</g>
	</g>
	<g>
		<g>
			<g>
				<g>
					<rect x="536.1" y="684.1" class="st0" width="6.9" height="28.7"/>
				</g>
				<g>
					<rect x="536.1" y="684.1" class="st1" width="3.5" height="28.7"/>
				</g>
			</g>
			<g>
				<g>
					<g>
						<polygon class="st2" points="512.1,694.8 539.6,643.3 567.1,694.8 						"/>
					</g>
					<g>
						<polygon class="st3" points="539.6,694.8 539.6,643.3 567.1,694.8 						"/>
					</g>
					<g>
						<polygon class="st2" points="556.3,674.6 539.6,674.6 539.6,643.3 						"/>
					</g>
					<g>
						<polygon class="st4" points="539.6,643.3 539.6,674.6 522.9,674.6 						"/>
					</g>
				</g>
				<g>
					<g>
						<polygon class="st2" points="518,672.9 539.6,632.4 561.1,672.9 						"/>
					</g>
					<g>
						<polygon class="st3" points="539.6,672.9 539.6,632.4 561.1,672.9 						"/>
					</g>
					<g>
						<polygon class="st2" points="552.7,657 539.6,657 539.6,632.4 						"/>
					</g>
					<g>
						<polygon class="st4" points="539.6,632.4 539.6,657 526.5,657 						"/>
					</g>
				</g>
				<g>
					<g>
						<polygon class="st2" points="557.1,655.2 522.1,655.2 528.6,643 539.6,622.4 550.5,643 						"/>
					</g>
					<g>
						<polygon class="st3" points="539.6,655.2 539.6,622.4 557.1,655.2 						"/>
					</g>
				</g>
			</g>
		</g>
		<g class="st6">
			<polygon class="st7" points="536.1,712.8 519.9,717.9 543,712.8 			"/>
		</g>
	</g>
	<g>
		<g>
			<g>
				<g>
					<rect x="572.6" y="697.5" class="st0" width="2.5" height="10.3"/>
				</g>
				<g>
					<rect x="572.6" y="697.5" class="st1" width="1.2" height="10.3"/>
				</g>
			</g>
			<g>
				<g>
					<g>
						<polygon class="st2" points="563.9,701.3 573.8,682.8 583.7,701.3 						"/>
					</g>
					<g>
						<polygon class="st3" points="573.8,701.3 573.8,682.8 583.7,701.3 						"/>
					</g>
					<g>
						<polygon class="st2" points="579.8,694.1 573.8,694.1 573.8,682.8 						"/>
					</g>
					<g>
						<polygon class="st4" points="573.8,682.8 573.8,694.1 567.8,694.1 						"/>
					</g>
				</g>
				<g>
					<g>
						<polygon class="st2" points="566.1,693.5 573.8,678.9 581.5,693.5 						"/>
					</g>
					<g>
						<polygon class="st3" points="573.8,693.5 573.8,678.9 581.5,693.5 						"/>
					</g>
					<g>
						<polygon class="st2" points="578.5,687.8 573.8,687.8 573.8,678.9 						"/>
					</g>
					<g>
						<polygon class="st4" points="573.8,678.9 573.8,687.8 569.1,687.8 						"/>
					</g>
				</g>
				<g>
					<g>
						<polygon class="st2" points="580.1,687.1 567.5,687.1 569.9,682.7 573.8,675.3 577.7,682.7 						"/>
					</g>
					<g>
						<polygon class="st3" points="573.8,687.1 573.8,675.3 580.1,687.1 						"/>
					</g>
				</g>
			</g>
		</g>
		<g class="st6">
			<polygon class="st7" points="572.6,707.8 566.7,709.6 575,707.8 			"/>
		</g>
	</g>
	<g>
		<g>
			<g>
				<g>
					<rect x="597" y="685.9" class="st0" width="5" height="20.6"/>
				</g>
				<g>
					<rect x="597" y="685.9" class="st1" width="2.5" height="20.6"/>
				</g>
			</g>
			<g>
				<g>
					<g>
						<polygon class="st2" points="579.8,693.6 599.5,656.6 619.3,693.6 						"/>
					</g>
					<g>
						<polygon class="st3" points="599.5,693.6 599.5,656.6 619.3,693.6 						"/>
					</g>
					<g>
						<polygon class="st2" points="611.5,679.1 599.5,679.1 599.5,656.6 						"/>
					</g>
					<g>
						<polygon class="st4" points="599.5,656.6 599.5,679.1 587.5,679.1 						"/>
					</g>
				</g>
				<g>
					<g>
						<polygon class="st2" points="584,677.8 599.5,648.8 615,677.8 						"/>
					</g>
					<g>
						<polygon class="st3" points="599.5,677.8 599.5,648.8 615,677.8 						"/>
					</g>
					<g>
						<polygon class="st2" points="608.9,666.4 599.5,666.4 599.5,648.8 						"/>
					</g>
					<g>
						<polygon class="st4" points="599.5,648.8 599.5,666.4 590.1,666.4 						"/>
					</g>
				</g>
				<g>
					<g>
						<polygon class="st2" points="612.1,665.2 587,665.2 591.6,656.4 599.5,641.6 607.4,656.4 						"/>
					</g>
					<g>
						<polygon class="st3" points="599.5,665.2 599.5,641.6 612.1,665.2 						"/>
					</g>
				</g>
			</g>
		</g>
		<g class="st6">
			<polygon class="st7" points="597,706.5 585.4,710.2 602,706.5 			"/>
		</g>
	</g>
	<g>
		<g>
			<g>
				<g>
					<rect x="358.3" y="693.7" class="st0" width="3.6" height="14.7"/>
				</g>
				<g>
					<rect x="358.3" y="693.7" class="st1" width="1.8" height="14.7"/>
				</g>
			</g>
			<g>
				<g>
					<g>
						<polygon class="st2" points="346,699.2 360.1,672.8 374.2,699.2 						"/>
					</g>
					<g>
						<polygon class="st3" points="360.1,699.2 360.1,672.8 374.2,699.2 						"/>
					</g>
					<g>
						<polygon class="st2" points="368.7,688.8 360.1,688.8 360.1,672.8 						"/>
					</g>
					<g>
						<polygon class="st4" points="360.1,672.8 360.1,688.8 351.5,688.8 						"/>
					</g>
				</g>
				<g>
					<g>
						<polygon class="st2" points="349,688 360.1,667.2 371.2,688 						"/>
					</g>
					<g>
						<polygon class="st3" points="360.1,688 360.1,667.2 371.2,688 						"/>
					</g>
					<g>
						<polygon class="st2" points="366.8,679.8 360.1,679.8 360.1,667.2 						"/>
					</g>
					<g>
						<polygon class="st4" points="360.1,667.2 360.1,679.8 353.4,679.8 						"/>
					</g>
				</g>
				<g>
					<g>
						<polygon class="st2" points="369.1,678.9 351.1,678.9 354.5,672.6 360.1,662.1 365.7,672.6 						"/>
					</g>
					<g>
						<polygon class="st3" points="360.1,678.9 360.1,662.1 369.1,678.9 						"/>
					</g>
				</g>
			</g>
		</g>
		<g class="st6">
			<polygon class="st7" points="358.3,708.5 350,711.1 361.9,708.5 			"/>
		</g>
	</g>
	<g>
		<g>
			<g>
				<g>
					<rect x="386.5" y="684.1" class="st0" width="6.9" height="28.7"/>
				</g>
				<g>
					<rect x="386.5" y="684.1" class="st1" width="3.5" height="28.7"/>
				</g>
			</g>
			<g>
				<g>
					<g>
						<polygon class="st2" points="362.5,694.8 390,643.3 417.5,694.8 						"/>
					</g>
					<g>
						<polygon class="st3" points="390,694.8 390,643.3 417.5,694.8 						"/>
					</g>
					<g>
						<polygon class="st2" points="406.7,674.6 390,674.6 390,643.3 						"/>
					</g>
					<g>
						<polygon class="st4" points="390,643.3 390,674.6 373.3,674.6 						"/>
					</g>
				</g>
				<g>
					<g>
						<polygon class="st2" points="368.4,672.9 390,632.4 411.5,672.9 						"/>
					</g>
					<g>
						<polygon class="st3" points="390,672.9 390,632.4 411.5,672.9 						"/>
					</g>
					<g>
						<polygon class="st2" points="403.1,657 390,657 390,632.4 						"/>
					</g>
					<g>
						<polygon class="st4" points="390,632.4 390,657 376.9,657 						"/>
					</g>
				</g>
				<g>
					<g>
						<polygon class="st2" points="407.5,655.2 372.5,655.2 379,643 390,622.4 400.9,643 						"/>
					</g>
					<g>
						<polygon class="st3" points="390,655.2 390,622.4 407.5,655.2 						"/>
					</g>
				</g>
			</g>
		</g>
		<g class="st6">
			<polygon class="st7" points="386.5,712.8 370.3,717.9 393.4,712.8 			"/>
		</g>
	</g>
	<g>
		<g>
			<g>
				<g>
					<rect x="422.9" y="697.5" class="st0" width="2.5" height="10.3"/>
				</g>
				<g>
					<rect x="422.9" y="697.5" class="st1" width="1.2" height="10.3"/>
				</g>
			</g>
			<g>
				<g>
					<g>
						<polygon class="st2" points="414.3,701.3 424.2,682.8 434.1,701.3 						"/>
					</g>
					<g>
						<polygon class="st3" points="424.2,701.3 424.2,682.8 434.1,701.3 						"/>
					</g>
					<g>
						<polygon class="st2" points="430.2,694.1 424.2,694.1 424.2,682.8 						"/>
					</g>
					<g>
						<polygon class="st4" points="424.2,682.8 424.2,694.1 418.2,694.1 						"/>
					</g>
				</g>
				<g>
					<g>
						<polygon class="st2" points="416.4,693.5 424.2,678.9 431.9,693.5 						"/>
					</g>
					<g>
						<polygon class="st3" points="424.2,693.5 424.2,678.9 431.9,693.5 						"/>
					</g>
					<g>
						<polygon class="st2" points="428.9,687.8 424.2,687.8 424.2,678.9 						"/>
					</g>
					<g>
						<polygon class="st4" points="424.2,678.9 424.2,687.8 419.5,687.8 						"/>
					</g>
				</g>
				<g>
					<g>
						<polygon class="st2" points="430.5,687.1 417.9,687.1 420.2,682.7 424.2,675.3 428.1,682.7 						"/>
					</g>
					<g>
						<polygon class="st3" points="424.2,687.1 424.2,675.3 430.5,687.1 						"/>
					</g>
				</g>
			</g>
		</g>
		<g class="st6">
			<polygon class="st7" points="422.9,707.8 417.1,709.6 425.4,707.8 			"/>
		</g>
	</g>
	<g>
		<g>
			<g>
				<g>
					<rect x="447.4" y="685.9" class="st0" width="5" height="20.6"/>
				</g>
				<g>
					<rect x="447.4" y="685.9" class="st1" width="2.5" height="20.6"/>
				</g>
			</g>
			<g>
				<g>
					<g>
						<polygon class="st2" points="430.2,693.6 449.9,656.6 469.7,693.6 						"/>
					</g>
					<g>
						<polygon class="st3" points="449.9,693.6 449.9,656.6 469.7,693.6 						"/>
					</g>
					<g>
						<polygon class="st2" points="461.9,679.1 449.9,679.1 449.9,656.6 						"/>
					</g>
					<g>
						<polygon class="st4" points="449.9,656.6 449.9,679.1 437.9,679.1 						"/>
					</g>
				</g>
				<g>
					<g>
						<polygon class="st2" points="434.4,677.8 449.9,648.8 465.4,677.8 						"/>
					</g>
					<g>
						<polygon class="st3" points="449.9,677.8 449.9,648.8 465.4,677.8 						"/>
					</g>
					<g>
						<polygon class="st2" points="459.3,666.4 449.9,666.4 449.9,648.8 						"/>
					</g>
					<g>
						<polygon class="st4" points="449.9,648.8 449.9,666.4 440.5,666.4 						"/>
					</g>
				</g>
				<g>
					<g>
						<polygon class="st2" points="462.5,665.2 437.3,665.2 442,656.4 449.9,641.6 457.8,656.4 						"/>
					</g>
					<g>
						<polygon class="st3" points="449.9,665.2 449.9,641.6 462.5,665.2 						"/>
					</g>
				</g>
			</g>
		</g>
		<g class="st6">
			<polygon class="st7" points="447.4,706.5 435.8,710.2 452.4,706.5 			"/>
		</g>
	</g>
</g>
<g>
	<g>
		<g>
			<g>
				<g>
					<rect x="-109.9" y="693.1" class="st0" width="3.6" height="14.8"/>
				</g>
				<g>
					<rect x="-109.9" y="693.1" class="st1" width="1.8" height="14.8"/>
				</g>
			</g>
			<g>
				<g>
					<g>
						<polygon class="st2" points="-122.3,698.6 -108.1,672 -94,698.6 						"/>
					</g>
					<g>
						<polygon class="st3" points="-108.1,698.6 -108.1,672 -94,698.6 						"/>
					</g>
					<g>
						<polygon class="st2" points="-99.6,688.2 -108.1,688.2 -108.1,672 						"/>
					</g>
					<g>
						<polygon class="st4" points="-108.1,672 -108.1,688.2 -116.7,688.2 						"/>
					</g>
				</g>
				<g>
					<g>
						<polygon class="st2" points="-119.2,687.3 -108.1,666.5 -97.1,687.3 						"/>
					</g>
					<g>
						<polygon class="st3" points="-108.1,687.3 -108.1,666.5 -97.1,687.3 						"/>
					</g>
					<g>
						<polygon class="st2" points="-101.4,679.1 -108.1,679.1 -108.1,666.5 						"/>
					</g>
					<g>
						<polygon class="st4" points="-108.1,666.5 -108.1,679.1 -114.9,679.1 						"/>
					</g>
				</g>
				<g>
					<g>
						<polygon class="st2" points="-99.2,678.2 -117.1,678.2 -113.8,671.9 -108.1,661.3 -102.5,671.9 						"/>
					</g>
					<g>
						<polygon class="st3" points="-108.1,678.2 -108.1,661.3 -99.2,678.2 						"/>
					</g>
				</g>
			</g>
		</g>
		<g class="st6">
			<polygon class="st7" points="-109.9,707.8 -118.3,710.4 -106.4,707.8 			"/>
		</g>
	</g>
	<g>
		<g>
			<g>
				<g>
					<rect x="-81.7" y="683.4" class="st0" width="6.9" height="28.8"/>
				</g>
				<g>
					<rect x="-81.7" y="683.4" class="st1" width="3.5" height="28.8"/>
				</g>
			</g>
			<g>
				<g>
					<g>
						<polygon class="st2" points="-105.8,694.1 -78.3,642.4 -50.8,694.1 						"/>
					</g>
					<g>
						<polygon class="st3" points="-78.3,694.1 -78.3,642.4 -50.8,694.1 						"/>
					</g>
					<g>
						<polygon class="st2" points="-61.6,673.8 -78.3,673.8 -78.3,642.4 						"/>
					</g>
					<g>
						<polygon class="st4" points="-78.3,642.4 -78.3,673.8 -95,673.8 						"/>
					</g>
				</g>
				<g>
					<g>
						<polygon class="st2" points="-99.8,672.1 -78.3,631.6 -56.7,672.1 						"/>
					</g>
					<g>
						<polygon class="st3" points="-78.3,672.1 -78.3,631.6 -56.7,672.1 						"/>
					</g>
					<g>
						<polygon class="st2" points="-65.2,656.2 -78.3,656.2 -78.3,631.6 						"/>
					</g>
					<g>
						<polygon class="st4" points="-78.3,631.6 -78.3,656.2 -91.4,656.2 						"/>
					</g>
				</g>
				<g>
					<g>
						<polygon class="st2" points="-60.8,654.5 -95.8,654.5 -89.3,642.2 -78.3,621.6 -67.3,642.2 						"/>
					</g>
					<g>
						<polygon class="st3" points="-78.3,654.5 -78.3,621.6 -60.8,654.5 						"/>
					</g>
				</g>
			</g>
		</g>
		<g class="st6">
			<polygon class="st7" points="-81.7,712.2 -98,717.3 -74.8,712.2 			"/>
		</g>
	</g>
	<g>
		<g>
			<g>
				<g>
					<rect x="-45.3" y="696.8" class="st0" width="2.5" height="10.3"/>
				</g>
				<g>
					<rect x="-45.3" y="696.8" class="st1" width="1.2" height="10.3"/>
				</g>
			</g>
			<g>
				<g>
					<g>
						<polygon class="st2" points="-53.9,700.7 -44.1,682.1 -34.2,700.7 						"/>
					</g>
					<g>
						<polygon class="st3" points="-44.1,700.7 -44.1,682.1 -34.2,700.7 						"/>
					</g>
					<g>
						<polygon class="st2" points="-38.1,693.4 -44.1,693.4 -44.1,682.1 						"/>
					</g>
					<g>
						<polygon class="st4" points="-44.1,682.1 -44.1,693.4 -50,693.4 						"/>
					</g>
				</g>
				<g>
					<g>
						<polygon class="st2" points="-51.8,692.8 -44.1,678.2 -36.3,692.8 						"/>
					</g>
					<g>
						<polygon class="st3" points="-44.1,692.8 -44.1,678.2 -36.3,692.8 						"/>
					</g>
					<g>
						<polygon class="st2" points="-39.3,687.1 -44.1,687.1 -44.1,678.2 						"/>
					</g>
					<g>
						<polygon class="st4" points="-44.1,678.2 -44.1,687.1 -48.8,687.1 						"/>
					</g>
				</g>
				<g>
					<g>
						<polygon class="st2" points="-37.8,686.4 -50.3,686.4 -48,682 -44.1,674.6 -40.1,682 						"/>
					</g>
					<g>
						<polygon class="st3" points="-44.1,686.4 -44.1,674.6 -37.8,686.4 						"/>
					</g>
				</g>
			</g>
		</g>
		<g class="st6">
			<polygon class="st7" points="-45.3,707.2 -51.1,709 -42.8,707.2 			"/>
		</g>
	</g>
	<g>
		<g>
			<g>
				<g>
					<rect x="-20.8" y="685.2" class="st0" width="5" height="20.7"/>
				</g>
				<g>
					<rect x="-20.8" y="685.2" class="st1" width="2.5" height="20.7"/>
				</g>
			</g>
			<g>
				<g>
					<g>
						<polygon class="st2" points="-38.1,692.9 -18.3,655.8 1.4,692.9 						"/>
					</g>
					<g>
						<polygon class="st3" points="-18.3,692.9 -18.3,655.8 1.4,692.9 						"/>
					</g>
					<g>
						<polygon class="st2" points="-6.3,678.3 -18.3,678.3 -18.3,655.8 						"/>
					</g>
					<g>
						<polygon class="st4" points="-18.3,655.8 -18.3,678.3 -30.3,678.3 						"/>
					</g>
				</g>
				<g>
					<g>
						<polygon class="st2" points="-33.8,677.1 -18.3,648 -2.8,677.1 						"/>
					</g>
					<g>
						<polygon class="st3" points="-18.3,677.1 -18.3,648 -2.8,677.1 						"/>
					</g>
					<g>
						<polygon class="st2" points="-8.9,665.7 -18.3,665.7 -18.3,648 						"/>
					</g>
					<g>
						<polygon class="st4" points="-18.3,648 -18.3,665.7 -27.7,665.7 						"/>
					</g>
				</g>
				<g>
					<g>
						<polygon class="st2" points="-5.8,664.4 -30.9,664.4 -26.2,655.6 -18.3,640.8 -10.4,655.6 						"/>
					</g>
					<g>
						<polygon class="st3" points="-18.3,664.4 -18.3,640.8 -5.8,664.4 						"/>
					</g>
				</g>
			</g>
		</g>
		<g class="st6">
			<polygon class="st7" points="-20.8,705.9 -32.5,709.5 -15.8,705.9 			"/>
		</g>
	</g>
	<g>
		<g>
			<g>
				<g>
					<rect x="-259.5" y="693.1" class="st0" width="3.6" height="14.8"/>
				</g>
				<g>
					<rect x="-259.5" y="693.1" class="st1" width="1.8" height="14.8"/>
				</g>
			</g>
			<g>
				<g>
					<g>
						<polygon class="st2" points="-271.9,698.6 -257.8,672 -243.6,698.6 						"/>
					</g>
					<g>
						<polygon class="st3" points="-257.8,698.6 -257.8,672 -243.6,698.6 						"/>
					</g>
					<g>
						<polygon class="st2" points="-249.2,688.2 -257.8,688.2 -257.8,672 						"/>
					</g>
					<g>
						<polygon class="st4" points="-257.8,672 -257.8,688.2 -266.3,688.2 						"/>
					</g>
				</g>
				<g>
					<g>
						<polygon class="st2" points="-268.8,687.3 -257.8,666.5 -246.7,687.3 						"/>
					</g>
					<g>
						<polygon class="st3" points="-257.8,687.3 -257.8,666.5 -246.7,687.3 						"/>
					</g>
					<g>
						<polygon class="st2" points="-251,679.1 -257.8,679.1 -257.8,666.5 						"/>
					</g>
					<g>
						<polygon class="st4" points="-257.8,666.5 -257.8,679.1 -264.5,679.1 						"/>
					</g>
				</g>
				<g>
					<g>
						<polygon class="st2" points="-248.8,678.2 -266.7,678.2 -263.4,671.9 -257.8,661.3 -252.1,671.9 						"/>
					</g>
					<g>
						<polygon class="st3" points="-257.8,678.2 -257.8,661.3 -248.8,678.2 						"/>
					</g>
				</g>
			</g>
		</g>
		<g class="st6">
			<polygon class="st7" points="-259.5,707.8 -267.9,710.4 -256,707.8 			"/>
		</g>
	</g>
	<g>
		<g>
			<g>
				<g>
					<rect x="-231.3" y="683.4" class="st0" width="6.9" height="28.8"/>
				</g>
				<g>
					<rect x="-231.3" y="683.4" class="st1" width="3.5" height="28.8"/>
				</g>
			</g>
			<g>
				<g>
					<g>
						<polygon class="st2" points="-255.4,694.1 -227.9,642.4 -200.4,694.1 						"/>
					</g>
					<g>
						<polygon class="st3" points="-227.9,694.1 -227.9,642.4 -200.4,694.1 						"/>
					</g>
					<g>
						<polygon class="st2" points="-211.2,673.8 -227.9,673.8 -227.9,642.4 						"/>
					</g>
					<g>
						<polygon class="st4" points="-227.9,642.4 -227.9,673.8 -244.6,673.8 						"/>
					</g>
				</g>
				<g>
					<g>
						<polygon class="st2" points="-249.4,672.1 -227.9,631.6 -206.3,672.1 						"/>
					</g>
					<g>
						<polygon class="st3" points="-227.9,672.1 -227.9,631.6 -206.3,672.1 						"/>
					</g>
					<g>
						<polygon class="st2" points="-214.8,656.2 -227.9,656.2 -227.9,631.6 						"/>
					</g>
					<g>
						<polygon class="st4" points="-227.9,631.6 -227.9,656.2 -241,656.2 						"/>
					</g>
				</g>
				<g>
					<g>
						<polygon class="st2" points="-210.4,654.5 -245.4,654.5 -238.9,642.2 -227.9,621.6 -216.9,642.2 						"/>
					</g>
					<g>
						<polygon class="st3" points="-227.9,654.5 -227.9,621.6 -210.4,654.5 						"/>
					</g>
				</g>
			</g>
		</g>
		<g class="st6">
			<polygon class="st7" points="-231.3,712.2 -247.6,717.3 -224.4,712.2 			"/>
		</g>
	</g>
	<g>
		<g>
			<g>
				<g>
					<rect x="-194.9" y="696.8" class="st0" width="2.5" height="10.3"/>
				</g>
				<g>
					<rect x="-194.9" y="696.8" class="st1" width="1.2" height="10.3"/>
				</g>
			</g>
			<g>
				<g>
					<g>
						<polygon class="st2" points="-203.5,700.7 -193.7,682.1 -183.8,700.7 						"/>
					</g>
					<g>
						<polygon class="st3" points="-193.7,700.7 -193.7,682.1 -183.8,700.7 						"/>
					</g>
					<g>
						<polygon class="st2" points="-187.7,693.4 -193.7,693.4 -193.7,682.1 						"/>
					</g>
					<g>
						<polygon class="st4" points="-193.7,682.1 -193.7,693.4 -199.7,693.4 						"/>
					</g>
				</g>
				<g>
					<g>
						<polygon class="st2" points="-201.4,692.8 -193.7,678.2 -185.9,692.8 						"/>
					</g>
					<g>
						<polygon class="st3" points="-193.7,692.8 -193.7,678.2 -185.9,692.8 						"/>
					</g>
					<g>
						<polygon class="st2" points="-189,687.1 -193.7,687.1 -193.7,678.2 						"/>
					</g>
					<g>
						<polygon class="st4" points="-193.7,678.2 -193.7,687.1 -198.4,687.1 						"/>
					</g>
				</g>
				<g>
					<g>
						<polygon class="st2" points="-187.4,686.4 -199.9,686.4 -197.6,682 -193.7,674.6 -189.7,682 						"/>
					</g>
					<g>
						<polygon class="st3" points="-193.7,686.4 -193.7,674.6 -187.4,686.4 						"/>
					</g>
				</g>
			</g>
		</g>
		<g class="st6">
			<polygon class="st7" points="-194.9,707.2 -200.7,709 -192.4,707.2 			"/>
		</g>
	</g>
	<g>
		<g>
			<g>
				<g>
					<rect x="-170.4" y="685.2" class="st0" width="5" height="20.7"/>
				</g>
				<g>
					<rect x="-170.4" y="685.2" class="st1" width="2.5" height="20.7"/>
				</g>
			</g>
			<g>
				<g>
					<g>
						<polygon class="st2" points="-187.7,692.9 -167.9,655.8 -148.2,692.9 						"/>
					</g>
					<g>
						<polygon class="st3" points="-167.9,692.9 -167.9,655.8 -148.2,692.9 						"/>
					</g>
					<g>
						<polygon class="st2" points="-155.9,678.3 -167.9,678.3 -167.9,655.8 						"/>
					</g>
					<g>
						<polygon class="st4" points="-167.9,655.8 -167.9,678.3 -179.9,678.3 						"/>
					</g>
				</g>
				<g>
					<g>
						<polygon class="st2" points="-183.4,677.1 -167.9,648 -152.5,677.1 						"/>
					</g>
					<g>
						<polygon class="st3" points="-167.9,677.1 -167.9,648 -152.5,677.1 						"/>
					</g>
					<g>
						<polygon class="st2" points="-158.5,665.7 -167.9,665.7 -167.9,648 						"/>
					</g>
					<g>
						<polygon class="st4" points="-167.9,648 -167.9,665.7 -177.3,665.7 						"/>
					</g>
				</g>
				<g>
					<g>
						<polygon class="st2" points="-155.4,664.4 -180.5,664.4 -175.8,655.6 -167.9,640.8 -160.1,655.6 						"/>
					</g>
					<g>
						<polygon class="st3" points="-167.9,664.4 -167.9,640.8 -155.4,664.4 						"/>
					</g>
				</g>
			</g>
		</g>
		<g class="st6">
			<polygon class="st7" points="-170.4,705.9 -182.1,709.5 -165.5,705.9 			"/>
		</g>
	</g>
</g>
<g>
	<g>
		<g>
			<g>
				<g>
					<rect x="186.1" y="689.4" class="st0" width="2.9" height="12"/>
				</g>
				<g>
					<rect x="186.1" y="689.4" class="st1" width="1.4" height="12"/>
				</g>
			</g>
			<g>
				<g>
					<g>
						<polygon class="st2" points="176.1,693.9 187.5,672.3 199,693.9 						"/>
					</g>
					<g>
						<polygon class="st3" points="187.5,693.9 187.5,672.3 199,693.9 						"/>
					</g>
					<g>
						<polygon class="st2" points="194.5,685.4 187.5,685.4 187.5,672.3 						"/>
					</g>
					<g>
						<polygon class="st4" points="187.5,672.3 187.5,685.4 180.6,685.4 						"/>
					</g>
				</g>
				<g>
					<g>
						<polygon class="st2" points="178.5,684.7 187.5,667.7 196.6,684.7 						"/>
					</g>
					<g>
						<polygon class="st3" points="187.5,684.7 187.5,667.7 196.6,684.7 						"/>
					</g>
					<g>
						<polygon class="st2" points="193,678 187.5,678 187.5,667.7 						"/>
					</g>
					<g>
						<polygon class="st4" points="187.5,667.7 187.5,678 182.1,678 						"/>
					</g>
				</g>
				<g>
					<g>
						<polygon class="st2" points="194.9,677.3 180.2,677.3 183,672.2 187.5,663.5 192.1,672.2 						"/>
					</g>
					<g>
						<polygon class="st3" points="187.5,677.3 187.5,663.5 194.9,677.3 						"/>
					</g>
				</g>
			</g>
		</g>
		<g class="st6">
			<polygon class="st7" points="186.1,701.4 179.3,703.5 189,701.4 			"/>
		</g>
	</g>
	<g>
		<g>
			<g>
				<g>
					<rect x="209" y="681.5" class="st0" width="5.6" height="23.4"/>
				</g>
				<g>
					<rect x="209" y="681.5" class="st1" width="2.8" height="23.4"/>
				</g>
			</g>
			<g>
				<g>
					<g>
						<polygon class="st2" points="189.5,690.3 211.9,648.2 234.2,690.3 						"/>
					</g>
					<g>
						<polygon class="st3" points="211.9,690.3 211.9,648.2 234.2,690.3 						"/>
					</g>
					<g>
						<polygon class="st2" points="225.5,673.7 211.9,673.7 211.9,648.2 						"/>
					</g>
					<g>
						<polygon class="st4" points="211.9,648.2 211.9,673.7 198.3,673.7 						"/>
					</g>
				</g>
				<g>
					<g>
						<polygon class="st2" points="194.3,672.3 211.9,639.3 229.4,672.3 						"/>
					</g>
					<g>
						<polygon class="st3" points="211.9,672.3 211.9,639.3 229.4,672.3 						"/>
					</g>
					<g>
						<polygon class="st2" points="222.5,659.4 211.9,659.4 211.9,639.3 						"/>
					</g>
					<g>
						<polygon class="st4" points="211.9,639.3 211.9,659.4 201.2,659.4 						"/>
					</g>
				</g>
				<g>
					<g>
						<polygon class="st2" points="226.1,658 197.6,658 202.9,648 211.9,631.2 220.8,648 						"/>
					</g>
					<g>
						<polygon class="st3" points="211.9,658 211.9,631.2 226.1,658 						"/>
					</g>
				</g>
			</g>
		</g>
		<g class="st6">
			<polygon class="st7" points="209,704.9 195.8,709.1 214.7,704.9 			"/>
		</g>
	</g>
	<g>
		<g>
			<g>
				<g>
					<rect x="238.7" y="692.5" class="st0" width="2" height="8.4"/>
				</g>
				<g>
					<rect x="238.7" y="692.5" class="st1" width="1" height="8.4"/>
				</g>
			</g>
			<g>
				<g>
					<g>
						<polygon class="st2" points="231.7,695.6 239.7,680.5 247.8,695.6 						"/>
					</g>
					<g>
						<polygon class="st3" points="239.7,695.6 239.7,680.5 247.8,695.6 						"/>
					</g>
					<g>
						<polygon class="st2" points="244.6,689.7 239.7,689.7 239.7,680.5 						"/>
					</g>
					<g>
						<polygon class="st4" points="239.7,680.5 239.7,689.7 234.8,689.7 						"/>
					</g>
				</g>
				<g>
					<g>
						<polygon class="st2" points="233.4,689.2 239.7,677.3 246,689.2 						"/>
					</g>
					<g>
						<polygon class="st3" points="239.7,689.2 239.7,677.3 246,689.2 						"/>
					</g>
					<g>
						<polygon class="st2" points="243.6,684.5 239.7,684.5 239.7,677.3 						"/>
					</g>
					<g>
						<polygon class="st4" points="239.7,677.3 239.7,684.5 235.9,684.5 						"/>
					</g>
				</g>
				<g>
					<g>
						<polygon class="st2" points="244.8,684 234.6,684 236.5,680.4 239.7,674.4 242.9,680.4 						"/>
					</g>
					<g>
						<polygon class="st3" points="239.7,684 239.7,674.4 244.8,684 						"/>
					</g>
				</g>
			</g>
		</g>
		<g class="st6">
			<polygon class="st7" points="238.7,700.9 234,702.4 240.7,700.9 			"/>
		</g>
	</g>
	<g>
		<g>
			<g>
				<g>
					<rect x="258.6" y="683" class="st0" width="4" height="16.8"/>
				</g>
				<g>
					<rect x="258.6" y="683" class="st1" width="2" height="16.8"/>
				</g>
			</g>
			<g>
				<g>
					<g>
						<polygon class="st2" points="244.6,689.3 260.7,659 276.7,689.3 						"/>
					</g>
					<g>
						<polygon class="st3" points="260.7,689.3 260.7,659 276.7,689.3 						"/>
					</g>
					<g>
						<polygon class="st2" points="270.4,677.4 260.7,677.4 260.7,659 						"/>
					</g>
					<g>
						<polygon class="st4" points="260.7,659 260.7,677.4 250.9,677.4 						"/>
					</g>
				</g>
				<g>
					<g>
						<polygon class="st2" points="248.1,676.4 260.7,652.7 273.3,676.4 						"/>
					</g>
					<g>
						<polygon class="st3" points="260.7,676.4 260.7,652.7 273.3,676.4 						"/>
					</g>
					<g>
						<polygon class="st2" points="268.3,667.1 260.7,667.1 260.7,652.7 						"/>
					</g>
					<g>
						<polygon class="st4" points="260.7,652.7 260.7,667.1 253,667.1 						"/>
					</g>
				</g>
				<g>
					<g>
						<polygon class="st2" points="270.9,666.1 250.4,666.1 254.2,658.9 260.7,646.8 267.1,658.9 						"/>
					</g>
					<g>
						<polygon class="st3" points="260.7,666.1 260.7,646.8 270.9,666.1 						"/>
					</g>
				</g>
			</g>
		</g>
		<g class="st6">
			<polygon class="st7" points="258.6,699.8 249.2,702.8 262.7,699.8 			"/>
		</g>
	</g>
	<g>
		<g>
			<g>
				<g>
					<rect x="64.3" y="689.4" class="st0" width="2.9" height="12"/>
				</g>
				<g>
					<rect x="64.3" y="689.4" class="st1" width="1.4" height="12"/>
				</g>
			</g>
			<g>
				<g>
					<g>
						<polygon class="st2" points="54.3,693.9 65.8,672.3 77.2,693.9 						"/>
					</g>
					<g>
						<polygon class="st3" points="65.8,693.9 65.8,672.3 77.2,693.9 						"/>
					</g>
					<g>
						<polygon class="st2" points="72.7,685.4 65.8,685.4 65.8,672.3 						"/>
					</g>
					<g>
						<polygon class="st4" points="65.8,672.3 65.8,685.4 58.8,685.4 						"/>
					</g>
				</g>
				<g>
					<g>
						<polygon class="st2" points="56.7,684.7 65.8,667.7 74.8,684.7 						"/>
					</g>
					<g>
						<polygon class="st3" points="65.8,684.7 65.8,667.7 74.8,684.7 						"/>
					</g>
					<g>
						<polygon class="st2" points="71.2,678 65.8,678 65.8,667.7 						"/>
					</g>
					<g>
						<polygon class="st4" points="65.8,667.7 65.8,678 60.3,678 						"/>
					</g>
				</g>
				<g>
					<g>
						<polygon class="st2" points="73.1,677.3 58.4,677.3 61.2,672.2 65.8,663.5 70.3,672.2 						"/>
					</g>
					<g>
						<polygon class="st3" points="65.8,677.3 65.8,663.5 73.1,677.3 						"/>
					</g>
				</g>
			</g>
		</g>
		<g class="st6">
			<polygon class="st7" points="64.3,701.4 57.5,703.5 67.2,701.4 			"/>
		</g>
	</g>
	<g>
		<g>
			<g>
				<g>
					<rect x="87.2" y="681.5" class="st0" width="5.6" height="23.4"/>
				</g>
				<g>
					<rect x="87.2" y="681.5" class="st1" width="2.8" height="23.4"/>
				</g>
			</g>
			<g>
				<g>
					<g>
						<polygon class="st2" points="67.7,690.3 90.1,648.2 112.4,690.3 						"/>
					</g>
					<g>
						<polygon class="st3" points="90.1,690.3 90.1,648.2 112.4,690.3 						"/>
					</g>
					<g>
						<polygon class="st2" points="103.7,673.7 90.1,673.7 90.1,648.2 						"/>
					</g>
					<g>
						<polygon class="st4" points="90.1,648.2 90.1,673.7 76.5,673.7 						"/>
					</g>
				</g>
				<g>
					<g>
						<polygon class="st2" points="72.5,672.3 90.1,639.3 107.6,672.3 						"/>
					</g>
					<g>
						<polygon class="st3" points="90.1,672.3 90.1,639.3 107.6,672.3 						"/>
					</g>
					<g>
						<polygon class="st2" points="100.7,659.4 90.1,659.4 90.1,639.3 						"/>
					</g>
					<g>
						<polygon class="st4" points="90.1,639.3 90.1,659.4 79.4,659.4 						"/>
					</g>
				</g>
				<g>
					<g>
						<polygon class="st2" points="104.3,658 75.8,658 81.1,648 90.1,631.2 99,648 						"/>
					</g>
					<g>
						<polygon class="st3" points="90.1,658 90.1,631.2 104.3,658 						"/>
					</g>
				</g>
			</g>
		</g>
		<g class="st6">
			<polygon class="st7" points="87.2,704.9 74,709.1 92.9,704.9 			"/>
		</g>
	</g>
	<g>
		<g>
			<g>
				<g>
					<rect x="116.9" y="692.5" class="st0" width="2" height="8.4"/>
				</g>
				<g>
					<rect x="116.9" y="692.5" class="st1" width="1" height="8.4"/>
				</g>
			</g>
			<g>
				<g>
					<g>
						<polygon class="st2" points="109.9,695.6 117.9,680.5 126,695.6 						"/>
					</g>
					<g>
						<polygon class="st3" points="117.9,695.6 117.9,680.5 126,695.6 						"/>
					</g>
					<g>
						<polygon class="st2" points="122.8,689.7 117.9,689.7 117.9,680.5 						"/>
					</g>
					<g>
						<polygon class="st4" points="117.9,680.5 117.9,689.7 113,689.7 						"/>
					</g>
				</g>
				<g>
					<g>
						<polygon class="st2" points="111.6,689.2 117.9,677.3 124.2,689.2 						"/>
					</g>
					<g>
						<polygon class="st3" points="117.9,689.2 117.9,677.3 124.2,689.2 						"/>
					</g>
					<g>
						<polygon class="st2" points="121.8,684.5 117.9,684.5 117.9,677.3 						"/>
					</g>
					<g>
						<polygon class="st4" points="117.9,677.3 117.9,684.5 114.1,684.5 						"/>
					</g>
				</g>
				<g>
					<g>
						<polygon class="st2" points="123,684 112.8,684 114.7,680.4 117.9,674.4 121.1,680.4 						"/>
					</g>
					<g>
						<polygon class="st3" points="117.9,684 117.9,674.4 123,684 						"/>
					</g>
				</g>
			</g>
		</g>
		<g class="st6">
			<polygon class="st7" points="116.9,700.9 112.2,702.4 118.9,700.9 			"/>
		</g>
	</g>
	<g>
		<g>
			<g>
				<g>
					<rect x="136.8" y="683" class="st0" width="4" height="16.8"/>
				</g>
				<g>
					<rect x="136.8" y="683" class="st1" width="2" height="16.8"/>
				</g>
			</g>
			<g>
				<g>
					<g>
						<polygon class="st2" points="122.8,689.3 138.9,659 154.9,689.3 						"/>
					</g>
					<g>
						<polygon class="st3" points="138.9,689.3 138.9,659 154.9,689.3 						"/>
					</g>
					<g>
						<polygon class="st2" points="148.6,677.4 138.9,677.4 138.9,659 						"/>
					</g>
					<g>
						<polygon class="st4" points="138.9,659 138.9,677.4 129.1,677.4 						"/>
					</g>
				</g>
				<g>
					<g>
						<polygon class="st2" points="126.3,676.4 138.9,652.7 151.5,676.4 						"/>
					</g>
					<g>
						<polygon class="st3" points="138.9,676.4 138.9,652.7 151.5,676.4 						"/>
					</g>
					<g>
						<polygon class="st2" points="146.5,667.1 138.9,667.1 138.9,652.7 						"/>
					</g>
					<g>
						<polygon class="st4" points="138.9,652.7 138.9,667.1 131.2,667.1 						"/>
					</g>
				</g>
				<g>
					<g>
						<polygon class="st2" points="149.1,666.1 128.6,666.1 132.5,658.9 138.9,646.8 145.3,658.9 						"/>
					</g>
					<g>
						<polygon class="st3" points="138.9,666.1 138.9,646.8 149.1,666.1 						"/>
					</g>
				</g>
			</g>
		</g>
		<g class="st6">
			<polygon class="st7" points="136.8,699.8 127.4,702.8 140.9,699.8 			"/>
		</g>
	</g>
</g>
<g>
	<g>
		<g>
			<g>
				<rect x="-268.5" y="614.1" class="st0" width="8.9" height="36.8"/>
			</g>
			<g>
				<rect x="-268.5" y="614.1" class="st1" width="4.4" height="36.8"/>
			</g>
		</g>
		<g>
			<g>
				<g>
					<polygon class="st2" points="-299.2,627.9 -264.1,561.8 -228.9,627.9 					"/>
				</g>
				<g>
					<polygon class="st3" points="-264.1,627.9 -264.1,561.8 -228.9,627.9 					"/>
				</g>
				<g>
					<polygon class="st2" points="-242.7,601.9 -264.1,601.9 -264.1,561.8 					"/>
				</g>
				<g>
					<polygon class="st4" points="-264.1,561.8 -264.1,601.9 -285.4,601.9 					"/>
				</g>
			</g>
			<g>
				<g>
					<polygon class="st2" points="-291.6,599.7 -264.1,547.9 -236.5,599.7 					"/>
				</g>
				<g>
					<polygon class="st3" points="-264.1,599.7 -264.1,547.9 -236.5,599.7 					"/>
				</g>
				<g>
					<polygon class="st2" points="-247.3,579.4 -264.1,579.4 -264.1,547.9 					"/>
				</g>
				<g>
					<polygon class="st4" points="-264.1,547.9 -264.1,579.4 -280.8,579.4 					"/>
				</g>
			</g>
			<g>
				<g>
					<polygon class="st2" points="-241.7,577.1 -286.5,577.1 -278.1,561.5 -264.1,535.1 -250,561.5 					"/>
				</g>
				<g>
					<polygon class="st3" points="-264.1,577.1 -264.1,535.1 -241.7,577.1 					"/>
				</g>
			</g>
		</g>
	</g>
	<g class="st6">
		<polygon class="st7" points="-268.5,651 -289.2,657.5 -259.7,651 		"/>
	</g>
</g>
<g>
	<g>
		<g>
			<g>
				<rect x="-134.6" y="733.2" class="st0" width="15.3" height="63.6"/>
			</g>
			<g>
				<rect x="-134.6" y="733.2" class="st1" width="7.6" height="63.6"/>
			</g>
		</g>
		<g>
			<g>
				<g>
					<polygon class="st2" points="-187.7,756.9 -127,642.7 -66.2,756.9 					"/>
				</g>
				<g>
					<polygon class="st3" points="-127,756.9 -127,642.7 -66.2,756.9 					"/>
				</g>
				<g>
					<polygon class="st2" points="-90.1,712.1 -127,712.1 -127,642.7 					"/>
				</g>
				<g>
					<polygon class="st4" points="-127,642.7 -127,712.1 -163.9,712.1 					"/>
				</g>
			</g>
			<g>
				<g>
					<polygon class="st2" points="-174.6,708.3 -127,618.7 -79.3,708.3 					"/>
				</g>
				<g>
					<polygon class="st3" points="-127,708.3 -127,618.7 -79.3,708.3 					"/>
				</g>
				<g>
					<polygon class="st2" points="-98,673.1 -127,673.1 -127,618.7 					"/>
				</g>
				<g>
					<polygon class="st4" points="-127,618.7 -127,673.1 -155.9,673.1 					"/>
				</g>
			</g>
			<g>
				<g>
					<polygon class="st2" points="-88.3,669.3 -165.6,669.3 -151.2,642.2 -127,596.6 -102.7,642.2 					"/>
				</g>
				<g>
					<polygon class="st3" points="-127,669.3 -127,596.6 -88.3,669.3 					"/>
				</g>
			</g>
		</g>
	</g>
	<g class="st6">
		<polygon class="st7" points="-134.6,796.8 -170.4,808 -119.3,796.8 		"/>
	</g>
</g>
<g>
	<g>
		<g>
			<g>
				<rect x="508" y="790.1" class="st0" width="5.7" height="23.8"/>
			</g>
			<g>
				<rect x="508" y="790.1" class="st1" width="2.9" height="23.8"/>
			</g>
		</g>
		<g>
			<g>
				<g>
					<polygon class="st2" points="488,799 510.8,756.2 533.6,799 					"/>
				</g>
				<g>
					<polygon class="st3" points="510.8,799 510.8,756.2 533.6,799 					"/>
				</g>
				<g>
					<polygon class="st2" points="524.7,782.2 510.8,782.2 510.8,756.2 					"/>
				</g>
				<g>
					<polygon class="st4" points="510.8,756.2 510.8,782.2 497,782.2 					"/>
				</g>
			</g>
			<g>
				<g>
					<polygon class="st2" points="492.9,780.8 510.8,747.3 528.7,780.8 					"/>
				</g>
				<g>
					<polygon class="st3" points="510.8,780.8 510.8,747.3 528.7,780.8 					"/>
				</g>
				<g>
					<polygon class="st2" points="521.7,767.6 510.8,767.6 510.8,747.3 					"/>
				</g>
				<g>
					<polygon class="st4" points="510.8,747.3 510.8,767.6 500,767.6 					"/>
				</g>
			</g>
			<g>
				<g>
					<polygon class="st2" points="525.4,766.2 496.3,766.2 501.7,756 510.8,739 519.9,756 					"/>
				</g>
				<g>
					<polygon class="st3" points="510.8,766.2 510.8,739 525.4,766.2 					"/>
				</g>
			</g>
		</g>
	</g>
	<g class="st6">
		<polygon class="st7" points="508,813.9 494.5,818.2 513.7,813.9 		"/>
	</g>
</g>
<g>
	<g>
		<g>
			<g>
				<rect x="-47.7" y="741.9" class="st0" width="7.3" height="30.3"/>
			</g>
			<g>
				<rect x="-47.7" y="741.9" class="st1" width="3.6" height="30.3"/>
			</g>
		</g>
		<g>
			<g>
				<g>
					<polygon class="st2" points="-73,753.2 -44.1,698.8 -15.1,753.2 					"/>
				</g>
				<g>
					<polygon class="st3" points="-44.1,753.2 -44.1,698.8 -15.1,753.2 					"/>
				</g>
				<g>
					<polygon class="st2" points="-26.5,731.8 -44.1,731.8 -44.1,698.8 					"/>
				</g>
				<g>
					<polygon class="st4" points="-44.1,698.8 -44.1,731.8 -61.6,731.8 					"/>
				</g>
			</g>
			<g>
				<g>
					<polygon class="st2" points="-66.7,730 -44.1,687.3 -21.4,730 					"/>
				</g>
				<g>
					<polygon class="st3" points="-44.1,730 -44.1,687.3 -21.4,730 					"/>
				</g>
				<g>
					<polygon class="st2" points="-30.3,713.3 -44.1,713.3 -44.1,687.3 					"/>
				</g>
				<g>
					<polygon class="st4" points="-44.1,687.3 -44.1,713.3 -57.8,713.3 					"/>
				</g>
			</g>
			<g>
				<g>
					<polygon class="st2" points="-25.6,711.4 -62.5,711.4 -55.6,698.5 -44.1,676.8 -32.5,698.5 					"/>
				</g>
				<g>
					<polygon class="st3" points="-44.1,711.4 -44.1,676.8 -25.6,711.4 					"/>
				</g>
			</g>
		</g>
	</g>
	<g class="st6">
		<polygon class="st7" points="-47.7,772.2 -64.8,777.5 -40.4,772.2 		"/>
	</g>
</g>
<g>
	<g>
		<g>
			<g>
				<rect x="564.5" y="763.3" class="st0" width="11.5" height="47.6"/>
			</g>
			<g>
				<rect x="564.5" y="763.3" class="st1" width="5.7" height="47.6"/>
			</g>
		</g>
		<g>
			<g>
				<g>
					<polygon class="st2" points="524.6,781.1 570.3,695.5 615.9,781.1 					"/>
				</g>
				<g>
					<polygon class="st3" points="570.3,781.1 570.3,695.5 615.9,781.1 					"/>
				</g>
				<g>
					<polygon class="st2" points="598,747.5 570.3,747.5 570.3,695.5 					"/>
				</g>
				<g>
					<polygon class="st4" points="570.3,695.5 570.3,747.5 542.5,747.5 					"/>
				</g>
			</g>
			<g>
				<g>
					<polygon class="st2" points="534.5,744.7 570.3,677.6 606,744.7 					"/>
				</g>
				<g>
					<polygon class="st3" points="570.3,744.7 570.3,677.6 606,744.7 					"/>
				</g>
				<g>
					<polygon class="st2" points="592,718.3 570.3,718.3 570.3,677.6 					"/>
				</g>
				<g>
					<polygon class="st4" points="570.3,677.6 570.3,718.3 548.5,718.3 					"/>
				</g>
			</g>
			<g>
				<g>
					<polygon class="st2" points="599.3,715.4 541.2,715.4 552,695.1 570.3,661 588.5,695.1 					"/>
				</g>
				<g>
					<polygon class="st3" points="570.3,715.4 570.3,661 599.3,715.4 					"/>
				</g>
			</g>
		</g>
	</g>
	<g class="st6">
		<polygon class="st7" points="564.5,810.9 537.6,819.4 576,810.9 		"/>
	</g>
</g>
<g>
	<path class="st8" d="M64.1,610.8c-0.5,0-0.9,0.1-1.3,0.2c-1.2-2.1-3.5-3.5-6.1-3.5c-0.8,0-1.6,0.1-2.3,0.4
		c-1.2-2.5-3.6-4.4-6.4-5.1l0,0c0.1-0.6,0.2-1.2,0.2-1.8c0-4.2-3.4-7.7-7.7-7.7c-2.7,0-5.1,1.4-6.5,3.5c-0.8-0.4-1.7-0.6-2.7-0.6
		c-3,0-5.5,2.1-6.1,4.8l0,0c-3.7,0.5-6.6,3.7-6.6,7.6c0,0.1,0,0.1,0,0.2c-1.2,1.3-2,3-2,4.9h3.9h5.8h4.2h1.6h4.5h5.1h8.1h5.4H60h3.6
		h4.5C67.6,612.1,66,610.8,64.1,610.8z"/>
</g>
<g>
	<path class="st8" d="M-18.3,381c-3.7-3.8-8.4-6.6-13.6-8.2c-4-10-13.1-17.4-24-18.9c-1.4-0.2-2.7-0.3-4.1-0.3
		c-7.2,0-13.7,2.5-18.9,6.6c-1.3-7.4-7.8-13.1-15.7-13.1c-0.1,0-0.1,0-0.2,0c-1.5-13.2-12.7-23.4-26.3-23.4c-6.3,0-12,2.2-16.5,5.8
		c-6.3-10.3-17.7-17.1-30.7-17.1c-19.9,0-36,16.1-36,36c0,4.7,0.9,9.1,2.5,13.2c-2.8,2.9-4.5,6.8-4.5,11.1c0,1.1,0.1,2.2,0.3,3.2
		c-8.2,2.4-15.1,7.9-19.3,15.2c-2-0.6-4.1-1-6.2-1c-8.9,0-16.4,5.7-19.1,13.7h21.3h17h22.6h25.5h37.9h23.8h19.7h8.8h19.8h17.1h28.4
		C-8.8,395-12.4,386.9-18.3,381z"/>
</g>
<g class="st16">
	<g>
		<g>
			<g>
				<g>
					<g>
						<path class="st8" d="M-142.9,101.3l3.8,3.3c0.5,0.4,0.5,1.1,0.1,1.6s-1.1,0.5-1.6,0.1l-2.3-2l-2.3,2c-0.5,0.4-1.2,0.4-1.6-0.1
							c-0.4-0.5-0.4-1.2,0.1-1.6L-142.9,101.3z"/>
					</g>
				</g>
			</g>
		</g>
		<g>
			<path class="st8" d="M-137.4,276.7c0,3.6-2.9,6.5-6.5,6.5s-6.5-2.9-6.5-6.5s2.9-6.5,6.5-6.5
				C-140.4,270.1-137.4,273.1-137.4,276.7z"/>
		</g>
		<g>
			<path class="st8" d="M-0.1,148.3c0,3.6-2.9,6.5-6.5,6.5s-6.5-2.9-6.5-6.5s2.9-6.5,6.5-6.5C-3.1,141.8-0.1,144.7-0.1,148.3z"/>
		</g>
		<g>
			<path class="st8" d="M385.9,209.6c0,3.6-2.9,6.5-6.5,6.5s-6.5-2.9-6.5-6.5s2.9-6.5,6.5-6.5C383,203,385.9,206,385.9,209.6z"/>
		</g>
		<g>
			<g>
				<path class="st8" d="M286.3,285c-5.2,0-5.2,8.1,0,8.1C291.5,293,291.5,285,286.3,285L286.3,285z"/>
			</g>
		</g>
		<g>
			<g>
				<path class="st8" d="M167.8,119.6c-5.2,0-5.2,8.1,0,8.1C173,127.6,173,119.6,167.8,119.6L167.8,119.6z"/>
			</g>
		</g>
		<g>
			<g>
				<path class="st8" d="M96.7,246.3c-5.2,0-5.2,8.1,0,8.1C101.9,254.4,101.9,246.3,96.7,246.3L96.7,246.3z"/>
			</g>
		</g>
		<g>
			<g>
				<path class="st8" d="M-93.9,106.7c-5.2,0-5.2,8.1,0,8.1C-88.7,114.7-88.7,106.7-93.9,106.7L-93.9,106.7z"/>
			</g>
		</g>
		<g>
			<g>
				<path class="st8" d="M-99.3,353.7c-5.2,0-5.2,8.1,0,8.1C-94.1,361.8-94.1,353.7-99.3,353.7L-99.3,353.7z"/>
			</g>
		</g>
		<g>
			<g>
				<path class="st8" d="M144.1,333.3c-5.2,0-5.2,8.1,0,8.1S149.3,333.3,144.1,333.3L144.1,333.3z"/>
			</g>
		</g>
		<g>
			<g>
				<path class="st8" d="M354.2,184c-5.2,0-5.2,8.1,0,8.1C359.4,192.1,359.4,184,354.2,184L354.2,184z"/>
			</g>
		</g>
		<g>
			<g>
				<path class="st8" d="M-238.3,240.9c-5.2,0-5.2,8.1,0,8.1S-233,240.9-238.3,240.9L-238.3,240.9z"/>
			</g>
		</g>
		<g>
			<g>
				<path class="st8" d="M-73.4,246.2c-3.9,0-3.9,6,0,6C-69.6,252.3-69.5,246.2-73.4,246.2L-73.4,246.2z"/>
			</g>
		</g>
		<g>
			<g>
				<path class="st8" d="M69.8,139.9c-3.9,0-3.9,6,0,6C73.7,145.9,73.7,139.9,69.8,139.9L69.8,139.9z"/>
			</g>
		</g>
		<g>
			<g>
				<path class="st8" d="M95.7,160.3c-3.9,0-3.9,6,0,6S99.6,160.3,95.7,160.3L95.7,160.3z"/>
			</g>
		</g>
		<g>
			<g>
				<path class="st8" d="M-97.1,187.2c-3.9,0-3.9,6,0,6S-93.2,187.2-97.1,187.2L-97.1,187.2z"/>
			</g>
		</g>
		<g>
			<g>
				<path class="st8" d="M104.3,289.2c-3.9,0-3.9,6,0,6C108.2,295.3,108.2,289.2,104.3,289.2L104.3,289.2z"/>
			</g>
		</g>
		<g>
			<g>
				<path class="st8" d="M332.6,243c-3.9,0-3.9,6,0,6C336.5,249.1,336.5,243,332.6,243L332.6,243z"/>
			</g>
		</g>
		<g>
			<g>
				<path class="st8" d="M327.2,331.1c-3.9,0-3.9,6,0,6S331.1,331.1,327.2,331.1L327.2,331.1z"/>
			</g>
		</g>
		<g>
			<g>
				<path class="st8" d="M176.4,246.2c-3.9,0-3.9,6,0,6C180.3,252.3,180.4,246.2,176.4,246.2L176.4,246.2z"/>
			</g>
		</g>
		<g>
			<g>
				<path class="st8" d="M-180.1,312.8c-3.9,0-3.9,6,0,6C-176.2,318.9-176.2,312.8-180.1,312.8L-180.1,312.8z"/>
			</g>
		</g>
		<g>
			<g>
				<path class="st8" d="M2,379.4c-3.9,0-3.9,6,0,6C5.8,385.5,5.9,379.4,2,379.4L2,379.4z"/>
			</g>
		</g>
		<g>
			<g>
				<path class="st8" d="M24.6,73.2c-2.6,0-2.6,4,0,4C27.2,77.3,27.2,73.2,24.6,73.2L24.6,73.2z"/>
			</g>
		</g>
		<g>
			<g>
				<path class="st8" d="M248.6,154.9c-2.6,0-2.6,4,0,4C251.2,158.9,251.2,154.9,248.6,154.9L248.6,154.9z"/>
			</g>
		</g>
		<g>
			<g>
				<path class="st8" d="M250.8,237.6c-2.6,0-2.6,4,0,4C253.4,241.6,253.4,237.6,250.8,237.6L250.8,237.6z"/>
			</g>
		</g>
		<g>
			<g>
				<path class="st8" d="M386.5,147.3c-2.6,0-2.6,4,0,4C389.1,151.4,389.1,147.3,386.5,147.3L386.5,147.3z"/>
			</g>
		</g>
		<g>
			<g>
				<path class="st8" d="M415.6,111.9c-2.6,0-2.6,4,0,4S418.2,111.9,415.6,111.9L415.6,111.9z"/>
			</g>
		</g>
		<g>
			<g>
				<path class="st8" d="M381.1,288.1c-2.6,0-2.6,4,0,4S383.7,288.1,381.1,288.1L381.1,288.1z"/>
			</g>
		</g>
		<g>
			<g>
				<path class="st8" d="M359.6,375.1c-2.6,0-2.6,4,0,4S362.2,375.1,359.6,375.1L359.6,375.1z"/>
			</g>
		</g>
		<g>
			<g>
				<path class="st8" d="M92.4,374c-2.6,0-2.6,4,0,4S95,374,92.4,374L92.4,374z"/>
			</g>
		</g>
		<g>
			<g>
				<path class="st8" d="M163.5,288.1c-2.6,0-2.6,4,0,4S166.1,288.1,163.5,288.1L163.5,288.1z"/>
			</g>
		</g>
		<g>
			<g>
				<path class="st8" d="M38.6,192.5c-2.6,0-2.6,4,0,4C41.2,196.5,41.2,192.5,38.6,192.5L38.6,192.5z"/>
			</g>
		</g>
		<g>
			<g>
				<path class="st8" d="M-54.1,107.6c-2.6,0-2.6,4,0,4S-51.5,107.6-54.1,107.6L-54.1,107.6z"/>
			</g>
		</g>
		<g>
			<g>
				<path class="st8" d="M-166.1,148.4c-2.6,0-2.6,4,0,4C-163.5,152.5-163.5,148.4-166.1,148.4L-166.1,148.4z"/>
			</g>
		</g>
		<g>
			<g>
				<path class="st8" d="M-140.2,137.7c-2.6,0-2.6,4,0,4C-137.6,141.7-137.6,137.7-140.2,137.7L-140.2,137.7z"/>
			</g>
		</g>
		<g>
			<g>
				<path class="st8" d="M-240.4,142c-2.6,0-2.6,4,0,4C-237.8,146-237.8,142-240.4,142L-240.4,142z"/>
			</g>
		</g>
		<g>
			<g>
				<path class="st8" d="M-208.1,247.2c-2.6,0-2.6,4,0,4C-205.5,251.3-205.5,247.2-208.1,247.2L-208.1,247.2z"/>
			</g>
		</g>
		<g>
			<g>
				<path class="st8" d="M-128.4,258c-2.6,0-2.6,4,0,4C-125.8,262-125.8,258-128.4,258L-128.4,258z"/>
			</g>
		</g>
		<g>
			<g>
				<path class="st8" d="M328.7,370.7c-3.9,0-3.9,6,0,6S332.6,370.7,328.7,370.7L328.7,370.7z"/>
			</g>
		</g>
		<g>
			<g>
				<path class="st8" d="M-196.2,322.4c-2.6,0-2.6,4,0,4C-193.6,326.5-193.6,322.4-196.2,322.4L-196.2,322.4z"/>
			</g>
		</g>
		<g>
			<path class="st8" d="M-137.4,459.5c0,3.6-2.9,6.5-6.5,6.5s-6.5-2.9-6.5-6.5s2.9-6.5,6.5-6.5C-140.4,453-137.4,455.9-137.4,459.5z
				"/>
		</g>
		<g>
			<g>
				<path class="st8" d="M96.7,429.2c-5.2,0-5.2,8.1,0,8.1C101.9,437.2,101.9,429.2,96.7,429.2L96.7,429.2z"/>
			</g>
		</g>
		<g>
			<g>
				<path class="st8" d="M-99.3,536.6c-5.2,0-5.2,8.1,0,8.1C-94.1,544.6-94.1,536.6-99.3,536.6L-99.3,536.6z"/>
			</g>
		</g>
		<g>
			<g>
				<path class="st8" d="M354.2,366.9c-5.2,0-5.2,8.1,0,8.1C359.4,374.9,359.4,366.9,354.2,366.9L354.2,366.9z"/>
			</g>
		</g>
		<g>
			<g>
				<path class="st8" d="M-73.4,429.1c-3.9,0-3.9,6,0,6C-69.6,435.1-69.5,429.1-73.4,429.1L-73.4,429.1z"/>
			</g>
		</g>
		<g>
			<g>
				<path class="st8" d="M-97.1,370c-3.9,0-3.9,6,0,6C-93.2,376.1-93.2,370-97.1,370L-97.1,370z"/>
			</g>
		</g>
		<g>
			<g>
				<path class="st8" d="M104.3,472.1c-3.9,0-3.9,6,0,6C108.2,478.1,108.2,472.1,104.3,472.1L104.3,472.1z"/>
			</g>
		</g>
		<g>
			<g>
				<path class="st8" d="M-84.8,468.3c-5.2,0-5.2,8.1,0,8.1C-79.6,476.3-79.6,468.3-84.8,468.3L-84.8,468.3z"/>
			</g>
		</g>
		<g>
			<g>
				<path class="st8" d="M-77.3,511.2c-3.9,0-3.9,6,0,6S-73.3,511.2-77.3,511.2L-77.3,511.2z"/>
			</g>
		</g>
		<g>
			<g>
				<path class="st8" d="M332.6,425.9c-3.9,0-3.9,6,0,6S336.5,425.9,332.6,425.9L332.6,425.9z"/>
			</g>
		</g>
		<g>
			<ellipse class="st8" cx="380.8" cy="469.6" rx="6.5" ry="6.5"/>
		</g>
		<g>
			<g>
				<path class="st8" d="M364.8,462.8c-5.2,0-5.2,8.1,0,8.1S370,462.8,364.8,462.8L364.8,462.8z"/>
			</g>
		</g>
		<g>
			<g>
				<path class="st8" d="M397.1,558.6c-3.9,0-3.9,6,0,6S401,558.6,397.1,558.6L397.1,558.6z"/>
			</g>
		</g>
		<g>
			<g>
				<path class="st8" d="M-180.1,495.7c-3.9,0-3.9,6,0,6C-176.2,501.7-176.2,495.7-180.1,495.7L-180.1,495.7z"/>
			</g>
		</g>
		<g>
			<g>
				<path class="st8" d="M2,562.3c-3.9,0-3.9,6,0,6C5.8,568.3,5.9,562.3,2,562.3L2,562.3z"/>
			</g>
		</g>
		<g>
			<g>
				<path class="st8" d="M359.6,557.9c-2.6,0-2.6,4,0,4C362.2,562,362.2,557.9,359.6,557.9L359.6,557.9z"/>
			</g>
		</g>
		<g>
			<g>
				<path class="st8" d="M92.4,556.9c-2.6,0-2.6,4,0,4S95,556.9,92.4,556.9L92.4,556.9z"/>
			</g>
		</g>
		<g>
			<g>
				<path class="st8" d="M38.6,375.3c-2.6,0-2.6,4,0,4C41.2,379.4,41.2,375.3,38.6,375.3L38.6,375.3z"/>
			</g>
		</g>
		<g>
			<g>
				<path class="st8" d="M-208.1,430.1c-2.6,0-2.6,4,0,4S-205.5,430.1-208.1,430.1L-208.1,430.1z"/>
			</g>
		</g>
		<g>
			<g>
				<path class="st8" d="M-128.4,440.9c-2.6,0-2.6,4,0,4C-125.8,444.9-125.8,440.9-128.4,440.9L-128.4,440.9z"/>
			</g>
		</g>
		<g>
			<g>
				<path class="st8" d="M-196.2,505.3c-2.6,0-2.6,4,0,4C-193.6,509.3-193.6,505.3-196.2,505.3L-196.2,505.3z"/>
			</g>
		</g>
		<g>
			<g>
				<path class="st8" d="M-175.8,557.9c-2.6,0-2.6,4,0,4C-173.2,562-173.2,557.9-175.8,557.9L-175.8,557.9z"/>
			</g>
		</g>
		<g>
			<g>
				<path class="st8" d="M-100.4,46.4c-2.6,0-2.6,4,0,4S-97.8,46.4-100.4,46.4L-100.4,46.4z"/>
			</g>
		</g>
		<g>
			<g>
				<path class="st8" d="M338,48.6c-3.9,0-3.9,6,0,6S341.9,48.6,338,48.6L338,48.6z"/>
			</g>
		</g>
		<g>
			<g>
				<path class="st8" d="M370.3,94.8c-3.9,0-3.9,6,0,6C374.2,100.8,374.2,94.8,370.3,94.8L370.3,94.8z"/>
			</g>
		</g>
		<g>
			<g>
				<path class="st8" d="M56.9,43.2c-3.9,0-3.9,6,0,6C60.8,49.3,60.8,43.2,56.9,43.2L56.9,43.2z"/>
			</g>
		</g>
		<g>
			<g>
				<path class="st8" d="M133.4,85.1c-3.9,0-3.9,6,0,6C137.3,91.2,137.3,85.1,133.4,85.1L133.4,85.1z"/>
			</g>
		</g>
		<g>
			<g>
				<path class="st8" d="M-51.9,36.8c-3.9,0-3.9,6,0,6S-48,36.8-51.9,36.8L-51.9,36.8z"/>
			</g>
		</g>
		<g>
			<g>
				<path class="st8" d="M-43.3,76.5c-3.9,0-3.9,6,0,6C-39.4,82.6-39.4,76.5-43.3,76.5L-43.3,76.5z"/>
			</g>
		</g>
		<g>
			<g>
				<path class="st8" d="M-127.3,35.7c-3.9,0-3.9,6,0,6C-123.4,41.7-123.4,35.7-127.3,35.7L-127.3,35.7z"/>
			</g>
		</g>
		<g>
			<g>
				<path class="st8" d="M-200.6,21.7c-3.9,0-3.9,6,0,6C-196.7,27.8-196.6,21.7-200.6,21.7L-200.6,21.7z"/>
			</g>
		</g>
		<g>
			<g>
				<path class="st8" d="M-243.6,38.9c-3.9,0-3.9,6,0,6C-239.7,45-239.7,38.9-243.6,38.9L-243.6,38.9z"/>
			</g>
		</g>
		<g>
			<g>
				<path class="st8" d="M-219.9,64.7c-3.9,0-3.9,6,0,6S-216,64.7-219.9,64.7L-219.9,64.7z"/>
			</g>
		</g>
		<g>
			<g>
				<path class="st8" d="M-170.4,38.9c-2.6,0-2.6,4,0,4C-167.8,42.9-167.8,38.9-170.4,38.9L-170.4,38.9z"/>
			</g>
		</g>
		<g>
			<g>
				<path class="st8" d="M-112.2,14.1c-2.6,0-2.6,4,0,4C-109.6,18.2-109.6,14.1-112.2,14.1L-112.2,14.1z"/>
			</g>
		</g>
		<g>
			<g>
				<path class="st8" d="M28.9,33.5c-2.6,0-2.6,4,0,4S31.5,33.5,28.9,33.5L28.9,33.5z"/>
			</g>
		</g>
		<g>
			<g>
				<path class="st8" d="M-1.3,23.8c-2.6,0-2.6,4,0,4S1.3,23.8-1.3,23.8L-1.3,23.8z"/>
			</g>
		</g>
		<g>
			<g>
				<path class="st8" d="M77.3,23.8c-2.6,0-2.6,4,0,4S80,23.8,77.3,23.8L77.3,23.8z"/>
			</g>
		</g>
		<g>
			<g>
				<path class="st8" d="M74.1,49.6c-2.6,0-2.6,4,0,4S76.7,49.6,74.1,49.6L74.1,49.6z"/>
			</g>
		</g>
		<g>
			<g>
				<path class="st8" d="M137.7,58.2c-2.6,0-2.6,4,0,4S140.3,58.2,137.7,58.2L137.7,58.2z"/>
			</g>
		</g>
		<g>
			<g>
				<path class="st8" d="M90.3,80.7c-2.6,0-2.6,4,0,4C92.9,84.8,92.9,80.7,90.3,80.7L90.3,80.7z"/>
			</g>
		</g>
		<g>
			<g>
				<path class="st8" d="M223.8,50.7c-2.6,0-2.6,4,0,4C226.4,54.7,226.4,50.7,223.8,50.7L223.8,50.7z"/>
			</g>
		</g>
		<g>
			<g>
				<path class="st8" d="M209.8,74.3c-2.6,0-2.6,4,0,4C212.4,78.3,212.4,74.3,209.8,74.3L209.8,74.3z"/>
			</g>
		</g>
		<g>
			<g>
				<path class="st8" d="M272.3,64.6c-2.6,0-2.6,4,0,4C274.9,68.7,274.9,64.6,272.3,64.6L272.3,64.6z"/>
			</g>
		</g>
		<g>
			<g>
				<path class="st8" d="M262.6,92.6c-2.6,0-2.6,4,0,4S265.2,92.6,262.6,92.6L262.6,92.6z"/>
			</g>
		</g>
		<g>
			<g>
				<path class="st8" d="M322.9,89.3c-2.6,0-2.6,4,0,4C325.5,93.4,325.5,89.3,322.9,89.3L322.9,89.3z"/>
			</g>
		</g>
		<g>
			<g>
				<path class="st8" d="M349.9,68.9c-2.6,0-2.6,4,0,4C352.5,73,352.5,68.9,349.9,68.9L349.9,68.9z"/>
			</g>
		</g>
		<g>
			<g>
				<path class="st8" d="M373.6,59.3c-2.6,0-2.6,4,0,4S376.2,59.3,373.6,59.3L373.6,59.3z"/>
			</g>
		</g>
	</g>
	<g>
		<g>
			<g>
				<g>
					<g>
						<path class="st8" d="M492.9,101.3l3.8,3.3c0.5,0.4,0.5,1.1,0.1,1.6s-1.1,0.5-1.6,0.1l-2.3-2l-2.3,2c-0.5,0.4-1.2,0.4-1.6-0.1
							s-0.4-1.2,0.1-1.6L492.9,101.3z"/>
					</g>
				</g>
			</g>
		</g>
		<g>
			<path class="st8" d="M498.3,276.7c0,3.6-2.9,6.5-6.5,6.5s-6.5-2.9-6.5-6.5s2.9-6.5,6.5-6.5C495.4,270.1,498.3,273.1,498.3,276.7z
				"/>
		</g>
		<g>
			<path class="st8" d="M635.6,148.3c0,3.6-2.9,6.5-6.5,6.5s-6.5-2.9-6.5-6.5s2.9-6.5,6.5-6.5C632.7,141.8,635.6,144.7,635.6,148.3z
				"/>
		</g>
		<g>
			<g>
				<path class="st8" d="M541.9,106.7c-5.2,0-5.2,8.1,0,8.1C547.1,114.7,547.1,106.7,541.9,106.7L541.9,106.7z"/>
			</g>
		</g>
		<g>
			<g>
				<path class="st8" d="M536.5,353.7c-5.2,0-5.2,8.1,0,8.1C541.7,361.8,541.7,353.7,536.5,353.7L536.5,353.7z"/>
			</g>
		</g>
		<g>
			<g>
				<path class="st8" d="M397.5,240.9c-5.2,0-5.2,8.1,0,8.1S402.7,240.9,397.5,240.9L397.5,240.9z"/>
			</g>
		</g>
		<g>
			<g>
				<path class="st8" d="M562.3,246.2c-3.9,0-3.9,6,0,6C566.2,252.3,566.2,246.2,562.3,246.2L562.3,246.2z"/>
			</g>
		</g>
		<g>
			<g>
				<path class="st8" d="M538.6,187.2c-3.9,0-3.9,6,0,6S542.5,187.2,538.6,187.2L538.6,187.2z"/>
			</g>
		</g>
		<g>
			<g>
				<path class="st8" d="M455.7,312.8c-3.9,0-3.9,6,0,6C459.6,318.9,459.6,312.8,455.7,312.8L455.7,312.8z"/>
			</g>
		</g>
		<g>
			<g>
				<path class="st8" d="M637.7,379.4c-3.9,0-3.9,6,0,6C641.6,385.5,641.6,379.4,637.7,379.4L637.7,379.4z"/>
			</g>
		</g>
		<g>
			<g>
				<path class="st8" d="M660.3,73.2c-2.6,0-2.6,4,0,4C662.9,77.3,662.9,73.2,660.3,73.2L660.3,73.2z"/>
			</g>
		</g>
		<g>
			<g>
				<path class="st8" d="M581.7,107.6c-2.6,0-2.6,4,0,4S584.3,107.6,581.7,107.6L581.7,107.6z"/>
			</g>
		</g>
		<g>
			<g>
				<path class="st8" d="M469.7,148.4c-2.6,0-2.6,4,0,4C472.3,152.5,472.3,148.4,469.7,148.4L469.7,148.4z"/>
			</g>
		</g>
		<g>
			<g>
				<path class="st8" d="M495.5,137.7c-2.6,0-2.6,4,0,4S498.1,137.7,495.5,137.7L495.5,137.7z"/>
			</g>
		</g>
		<g>
			<g>
				<path class="st8" d="M395.4,142c-2.6,0-2.6,4,0,4S398,142,395.4,142L395.4,142z"/>
			</g>
		</g>
		<g>
			<g>
				<path class="st8" d="M427.7,247.2c-2.6,0-2.6,4,0,4C430.3,251.3,430.3,247.2,427.7,247.2L427.7,247.2z"/>
			</g>
		</g>
		<g>
			<g>
				<path class="st8" d="M507.4,258c-2.6,0-2.6,4,0,4S510,258,507.4,258L507.4,258z"/>
			</g>
		</g>
		<g>
			<g>
				<path class="st8" d="M439.5,322.4c-2.6,0-2.6,4,0,4C442.1,326.5,442.1,322.4,439.5,322.4L439.5,322.4z"/>
			</g>
		</g>
		<g>
			<path class="st8" d="M498.3,459.5c0,3.6-2.9,6.5-6.5,6.5s-6.5-2.9-6.5-6.5s2.9-6.5,6.5-6.5S498.3,455.9,498.3,459.5z"/>
		</g>
		<g>
			<g>
				<path class="st8" d="M536.5,536.6c-5.2,0-5.2,8.1,0,8.1C541.7,544.6,541.7,536.6,536.5,536.6L536.5,536.6z"/>
			</g>
		</g>
		<g>
			<g>
				<path class="st8" d="M562.3,429.1c-3.9,0-3.9,6,0,6S566.2,429.1,562.3,429.1L562.3,429.1z"/>
			</g>
		</g>
		<g>
			<g>
				<path class="st8" d="M538.6,370c-3.9,0-3.9,6,0,6C542.5,376.1,542.5,370,538.6,370L538.6,370z"/>
			</g>
		</g>
		<g>
			<g>
				<path class="st8" d="M551,468.3c-5.2,0-5.2,8.1,0,8.1C556.2,476.3,556.2,468.3,551,468.3L551,468.3z"/>
			</g>
		</g>
		<g>
			<g>
				<path class="st8" d="M558.5,511.2c-3.9,0-3.9,6,0,6S562.4,511.2,558.5,511.2L558.5,511.2z"/>
			</g>
		</g>
		<g>
			<g>
				<path class="st8" d="M455.7,495.7c-3.9,0-3.9,6,0,6S459.6,495.7,455.7,495.7L455.7,495.7z"/>
			</g>
		</g>
		<g>
			<g>
				<path class="st8" d="M637.7,562.3c-3.9,0-3.9,6,0,6C641.6,568.3,641.6,562.3,637.7,562.3L637.7,562.3z"/>
			</g>
		</g>
		<g>
			<g>
				<path class="st8" d="M427.7,430.1c-2.6,0-2.6,4,0,4C430.3,434.1,430.3,430.1,427.7,430.1L427.7,430.1z"/>
			</g>
		</g>
		<g>
			<g>
				<path class="st8" d="M507.4,440.9c-2.6,0-2.6,4,0,4S510,440.9,507.4,440.9L507.4,440.9z"/>
			</g>
		</g>
		<g>
			<g>
				<path class="st8" d="M439.5,505.3c-2.6,0-2.6,4,0,4S442.1,505.3,439.5,505.3L439.5,505.3z"/>
			</g>
		</g>
		<g>
			<g>
				<path class="st8" d="M460,557.9c-2.6,0-2.6,4,0,4C462.6,562,462.6,557.9,460,557.9L460,557.9z"/>
			</g>
		</g>
		<g>
			<g>
				<path class="st8" d="M535.4,46.4c-2.6,0-2.6,4,0,4S538,46.4,535.4,46.4L535.4,46.4z"/>
			</g>
		</g>
		<g>
			<g>
				<path class="st8" d="M583.9,36.8c-3.9,0-3.9,6,0,6C587.8,42.8,587.8,36.8,583.9,36.8L583.9,36.8z"/>
			</g>
		</g>
		<g>
			<g>
				<path class="st8" d="M592.5,76.5c-3.9,0-3.9,6,0,6C596.4,82.6,596.4,76.5,592.5,76.5L592.5,76.5z"/>
			</g>
		</g>
		<g>
			<g>
				<path class="st8" d="M508.5,35.7c-3.9,0-3.9,6,0,6C512.4,41.7,512.4,35.7,508.5,35.7L508.5,35.7z"/>
			</g>
		</g>
		<g>
			<g>
				<path class="st8" d="M435.2,21.7c-3.9,0-3.9,6,0,6C439.1,27.8,439.1,21.7,435.2,21.7L435.2,21.7z"/>
			</g>
		</g>
		<g>
			<g>
				<path class="st8" d="M392.1,38.9c-3.9,0-3.9,6,0,6C396,45,396,38.9,392.1,38.9L392.1,38.9z"/>
			</g>
		</g>
		<g>
			<g>
				<path class="st8" d="M415.8,64.7c-3.9,0-3.9,6,0,6C419.7,70.7,419.7,64.7,415.8,64.7L415.8,64.7z"/>
			</g>
		</g>
		<g>
			<g>
				<path class="st8" d="M465.4,38.9c-2.6,0-2.6,4,0,4S468,38.9,465.4,38.9L465.4,38.9z"/>
			</g>
		</g>
		<g>
			<g>
				<path class="st8" d="M523.5,14.1c-2.6,0-2.6,4,0,4C526.1,18.2,526.1,14.1,523.5,14.1L523.5,14.1z"/>
			</g>
		</g>
		<g>
			<g>
				<path class="st8" d="M664.6,33.5L664.6,33.5c-2.6,0-2.6,4,0,4l0,0V33.5z"/>
			</g>
		</g>
		<g>
			<g>
				<path class="st8" d="M634.5,23.8c-2.6,0-2.6,4,0,4S637.1,23.8,634.5,23.8L634.5,23.8z"/>
			</g>
		</g>
	</g>
</g>
<g>
	<g>
		<g>
			<g>
				<g>
					<rect x="69.5" y="693.8" class="st0" width="12.7" height="52.9"/>
				</g>
				<g>
					<rect x="69.5" y="693.8" class="st1" width="6.4" height="52.9"/>
				</g>
			</g>
			<g>
				<g>
					<g>
						<polygon class="st2" points="25.3,713.6 75.9,618.5 126.4,713.6 						"/>
					</g>
					<g>
						<polygon class="st3" points="75.9,713.6 75.9,618.5 126.4,713.6 						"/>
					</g>
					<g>
						<polygon class="st2" points="106.6,676.3 75.9,676.3 75.9,618.5 						"/>
					</g>
					<g>
						<polygon class="st4" points="75.9,618.5 75.9,676.3 45.2,676.3 						"/>
					</g>
				</g>
				<g>
					<g>
						<polygon class="st2" points="36.2,673.1 75.9,598.6 115.5,673.1 						"/>
					</g>
					<g>
						<polygon class="st3" points="75.9,673.1 75.9,598.6 115.5,673.1 						"/>
					</g>
					<g>
						<polygon class="st2" points="99.9,643.8 75.9,643.8 75.9,598.6 						"/>
					</g>
					<g>
						<polygon class="st4" points="75.9,598.6 75.9,643.8 51.8,643.8 						"/>
					</g>
				</g>
				<g>
					<g>
						<polygon class="st2" points="108,640.6 43.7,640.6 55.7,618.1 75.9,580.1 96,618.1 						"/>
					</g>
					<g>
						<polygon class="st3" points="75.9,640.6 75.9,580.1 108,640.6 						"/>
					</g>
					<g>
						<polygon class="st5" points="75.9,570.3 78.5,575.7 84.5,576.6 80.2,580.8 81.2,586.7 75.9,583.9 70.5,586.7 71.5,580.8 
							67.2,576.6 73.2,575.7 						"/>
					</g>
				</g>
			</g>
		</g>
		<g class="st6">
			<polygon class="st7" points="69.5,746.7 39.7,756.1 82.2,746.7 			"/>
		</g>
	</g>
	<g>
		<path class="st8" d="M89.3,604.3c-7.5,11.6-16.1,23-28,30.3c-3.6,2.2-7.4,4-11.4,5.3c-0.4,0.1,0,0.2,0.2,0.1
			c13.5-4.6,24-14.1,32.4-25.4c2.6-3.4,5-6.9,7.3-10.5C89.8,604.1,89.4,604.1,89.3,604.3L89.3,604.3z"/>
	</g>
	<g>
		<path class="st8" d="M101.8,647.8c-12.6,12-29.4,20.3-46.6,23.1c-4.8,0.8-9.6,1.1-14.4,0.8c-0.2,0-0.6,0.2-0.2,0.3
			c17.5,0.9,35.3-5.2,49.9-14.8c4.2-2.8,8.1-5.9,11.8-9.3C102.4,647.7,101.9,647.7,101.8,647.8L101.8,647.8z"/>
	</g>
	<g>
		<path class="st8" d="M110.2,684.8c-8.2,8.7-20.1,13.7-31.2,17.5c-11.6,4-23.7,6.8-35.9,8.4c-4.4,0.6-8.9,1.2-13.3,1
			c-0.2,0-0.6,0.3-0.2,0.3c3.9,0.1,7.8-0.3,11.7-0.8c5.7-0.7,11.3-1.7,16.9-2.9c12.7-2.8,25.5-6.5,37.1-12.5
			c5.6-2.9,11.1-6.3,15.4-11C110.8,684.7,110.3,684.7,110.2,684.8L110.2,684.8z"/>
	</g>
	<g>
		<rect x="50.7" y="640.3" class="st8" width="50.4" height="0.3"/>
	</g>
	<g>
		<rect x="39.8" y="672.9" class="st8" width="70.8" height="0.3"/>
	</g>
	<g>
		<rect x="28.9" y="713.1" class="st8" width="92.9" height="0.3"/>
	</g>
	<g>
		<g>
			<circle class="st9" cx="50.7" cy="640.4" r="2.6"/>
		</g>
		<g>
			<circle class="st5" cx="60.8" cy="640.4" r="2.6"/>
		</g>
		<g>
			<circle class="st5" cx="84.5" cy="625.4" r="2.6"/>
		</g>
		<g>
			<circle class="st10" cx="70.8" cy="640.4" r="2.6"/>
		</g>
		<g>
			<circle class="st9" cx="91" cy="640.4" r="2.6"/>
		</g>
		<g>
			
				<ellipse transform="matrix(0.1597 -0.9872 0.9872 0.1597 -542.569 583.3463)" class="st9" cx="71.4" cy="610.4" rx="2.6" ry="2.6"/>
		</g>
		<g>
			<circle class="st8" cx="80.9" cy="640.6" r="2.6"/>
		</g>
		<g>
			<circle class="st8" cx="60.8" cy="624" r="2.6"/>
		</g>
		<g>
			<circle class="st10" cx="101" cy="640.4" r="2.6"/>
		</g>
		<g>
			<circle class="st10" cx="96.7" cy="631.5" r="2.6"/>
		</g>
	</g>
	<g>
		<g>
			<circle class="st9" cx="50.7" cy="673.1" r="2.6"/>
		</g>
		<g>
			<circle class="st5" cx="40.6" cy="673.1" r="2.6"/>
		</g>
		<g>
			<circle class="st5" cx="67.2" cy="662.6" r="2.6"/>
		</g>
		<g>
			<circle class="st5" cx="60.8" cy="673.1" r="2.6"/>
		</g>
		<g>
			<circle class="st5" cx="87.1" cy="652.4" r="2.6"/>
		</g>
		<g>
			<circle class="st10" cx="70.8" cy="673.1" r="2.6"/>
		</g>
		<g>
			<circle class="st9" cx="91" cy="673.1" r="2.6"/>
		</g>
		<g>
			<circle class="st9" cx="58.2" cy="656.8" r="2.6"/>
		</g>
		<g>
			<circle class="st8" cx="80.9" cy="673.1" r="2.6"/>
		</g>
		<g>
			<circle class="st10" cx="101" cy="673.1" r="2.6"/>
		</g>
		<g>
			<circle class="st10" cx="96.7" cy="662.6" r="2.6"/>
		</g>
		<g>
			<circle class="st9" cx="110.6" cy="673.1" r="2.6"/>
		</g>
	</g>
	<g>
		<g>
			<circle class="st9" cx="50.7" cy="713.2" r="2.6"/>
		</g>
		<g>
			<circle class="st9" cx="84.6" cy="686.6" r="2.6"/>
		</g>
		<g>
			<circle class="st5" cx="40.6" cy="713.2" r="2.6"/>
		</g>
		<g>
			<circle class="st10" cx="29.7" cy="713.2" r="2.6"/>
		</g>
		<g>
			<circle class="st10" cx="108" cy="699.4" r="2.6"/>
		</g>
		<g>
			<circle class="st5" cx="60.8" cy="713.2" r="2.6"/>
		</g>
		<g>
			<circle class="st5" cx="65.9" cy="698.2" r="2.6"/>
		</g>
		<g>
			<circle class="st10" cx="70.8" cy="713.2" r="2.6"/>
		</g>
		<g>
			<circle class="st8" cx="80.9" cy="713.2" r="2.6"/>
		</g>
		<g>
			<circle class="st8" cx="96.7" cy="702.5" r="2.6"/>
		</g>
		<g>
			<circle class="st8" cx="53.3" cy="687.5" r="2.6"/>
		</g>
		<g>
			<circle class="st9" cx="91" cy="713.2" r="2.6"/>
		</g>
		<g>
			<circle class="st9" cx="43.1" cy="701.5" r="2.6"/>
		</g>
		<g>
			<circle class="st10" cx="101" cy="713.2" r="2.6"/>
		</g>
		<g>
			<circle class="st8" cx="110.6" cy="713.2" r="2.6"/>
		</g>
		<g>
			<circle class="st9" cx="121.2" cy="713.2" r="2.6"/>
		</g>
	</g>
</g>
<g>
	<g>
		<g>
			<g>
				<g>
					<rect x="366.8" y="706.3" class="st0" width="7.2" height="30.1"/>
				</g>
				<g>
					<rect x="366.8" y="706.3" class="st1" width="3.6" height="30.1"/>
				</g>
			</g>
			<g>
				<g>
					<g>
						<polygon class="st2" points="341.7,717.6 370.4,663.5 399.2,717.6 						"/>
					</g>
					<g>
						<polygon class="st3" points="370.4,717.6 370.4,663.5 399.2,717.6 						"/>
					</g>
					<g>
						<polygon class="st2" points="387.9,696.3 370.4,696.3 370.4,663.5 						"/>
					</g>
					<g>
						<polygon class="st4" points="370.4,663.5 370.4,696.3 353,696.3 						"/>
					</g>
				</g>
				<g>
					<g>
						<polygon class="st2" points="347.9,694.5 370.4,652.1 393,694.5 						"/>
					</g>
					<g>
						<polygon class="st3" points="370.4,694.5 370.4,652.1 393,694.5 						"/>
					</g>
					<g>
						<polygon class="st2" points="384.1,677.9 370.4,677.9 370.4,652.1 						"/>
					</g>
					<g>
						<polygon class="st4" points="370.4,652.1 370.4,677.9 356.7,677.9 						"/>
					</g>
				</g>
				<g>
					<g>
						<polygon class="st2" points="388.7,676.1 352.1,676.1 359,663.2 370.4,641.7 381.9,663.2 						"/>
					</g>
					<g>
						<polygon class="st3" points="370.4,676.1 370.4,641.7 388.7,676.1 						"/>
					</g>
					<g>
						<polygon class="st5" points="370.4,636.1 372,639.1 375.3,639.6 372.9,642 373.5,645.4 370.4,643.8 367.4,645.4 368,642 
							365.5,639.6 368.9,639.1 						"/>
					</g>
				</g>
			</g>
		</g>
		<g class="st6">
			<polygon class="st7" points="366.8,736.4 349.9,741.7 374.1,736.4 			"/>
		</g>
	</g>
	<g>
		<path class="st8" d="M378.1,655.4c-4.3,6.6-9.1,13.1-15.9,17.2c-2,1.3-4.2,2.3-6.5,3c-0.2,0.1,0,0.1,0.1,0.1
			c7.7-2.6,13.6-8,18.4-14.4c1.5-1.9,2.8-3.9,4.1-6C378.4,655.3,378.1,655.3,378.1,655.4L378.1,655.4z"/>
	</g>
	<g>
		<path class="st8" d="M385.2,680.2c-7.2,6.9-16.7,11.6-26.5,13.1c-2.7,0.4-5.4,0.6-8.2,0.5c-0.1,0-0.3,0.1-0.1,0.1
			c10,0.5,20.1-3,28.4-8.4c2.4-1.6,4.6-3.3,6.7-5.3C385.6,680.1,385.3,680.1,385.2,680.2L385.2,680.2z"/>
	</g>
	<g>
		<path class="st8" d="M390,701.2c-4.6,5-11.4,7.8-17.7,9.9c-6.6,2.3-13.5,3.8-20.4,4.8c-2.5,0.3-5.1,0.7-7.6,0.6
			c-0.1,0-0.3,0.2-0.1,0.2c2.2,0.1,4.4-0.2,6.6-0.4c3.2-0.4,6.4-1,9.6-1.7c7.2-1.6,14.5-3.7,21.1-7.1c3.2-1.6,6.3-3.6,8.8-6.2
			C390.3,701.1,390,701.1,390,701.2L390,701.2z"/>
	</g>
	<g>
		<rect x="356.1" y="675.9" class="st8" width="28.7" height="0.2"/>
	</g>
	<g>
		<rect x="349.9" y="694.5" class="st8" width="40.3" height="0.2"/>
	</g>
	<g>
		<rect x="343.7" y="717.3" class="st8" width="52.8" height="0.2"/>
	</g>
	<g>
		<g>
			<circle class="st9" cx="356.1" cy="676" r="1.5"/>
		</g>
		<g>
			<circle class="st5" cx="361.8" cy="676" r="1.5"/>
		</g>
		<g>
			<circle class="st5" cx="375.3" cy="667.4" r="1.5"/>
		</g>
		<g>
			<circle class="st10" cx="367.6" cy="676" r="1.5"/>
		</g>
		<g>
			<circle class="st9" cx="379" cy="676" r="1.5"/>
		</g>
		<g>
			
				<ellipse transform="matrix(0.1597 -0.9872 0.9872 0.1597 -341.2794 916.7928)" class="st9" cx="367.9" cy="658.9" rx="1.5" ry="1.5"/>
		</g>
		<g>
			<circle class="st8" cx="373.3" cy="676.1" r="1.5"/>
		</g>
		<g>
			<circle class="st8" cx="361.8" cy="666.6" r="1.5"/>
		</g>
		<g>
			<circle class="st10" cx="384.8" cy="676" r="1.5"/>
		</g>
		<g>
			<circle class="st10" cx="382.3" cy="670.9" r="1.5"/>
		</g>
	</g>
	<g>
		<g>
			<circle class="st9" cx="356.1" cy="694.5" r="1.5"/>
		</g>
		<g>
			<circle class="st5" cx="350.3" cy="694.5" r="1.5"/>
		</g>
		<g>
			<circle class="st5" cx="365.5" cy="688.6" r="1.5"/>
		</g>
		<g>
			<circle class="st5" cx="361.8" cy="694.5" r="1.5"/>
		</g>
		<g>
			<circle class="st5" cx="376.8" cy="682.8" r="1.5"/>
		</g>
		<g>
			<circle class="st10" cx="367.6" cy="694.5" r="1.5"/>
		</g>
		<g>
			<circle class="st9" cx="379" cy="694.5" r="1.5"/>
		</g>
		<g>
			<circle class="st9" cx="360.4" cy="685.2" r="1.5"/>
		</g>
		<g>
			<circle class="st8" cx="373.3" cy="694.5" r="1.5"/>
		</g>
		<g>
			<circle class="st10" cx="384.8" cy="694.5" r="1.5"/>
		</g>
		<g>
			<circle class="st10" cx="382.3" cy="688.6" r="1.5"/>
		</g>
		<g>
			<circle class="st9" cx="390.2" cy="694.5" r="1.5"/>
		</g>
	</g>
	<g>
		<g>
			<circle class="st9" cx="356.1" cy="717.4" r="1.5"/>
		</g>
		<g>
			<circle class="st9" cx="375.4" cy="702.2" r="1.5"/>
		</g>
		<g>
			<circle class="st5" cx="350.3" cy="717.4" r="1.5"/>
		</g>
		<g>
			<circle class="st10" cx="344.2" cy="717.4" r="1.5"/>
		</g>
		<g>
			<circle class="st10" cx="388.7" cy="709.5" r="1.5"/>
		</g>
		<g>
			<circle class="st5" cx="361.8" cy="717.4" r="1.5"/>
		</g>
		<g>
			<circle class="st5" cx="364.8" cy="708.8" r="1.5"/>
		</g>
		<g>
			<circle class="st10" cx="367.6" cy="717.4" r="1.5"/>
		</g>
		<g>
			<circle class="st8" cx="373.3" cy="717.4" r="1.5"/>
		</g>
		<g>
			<circle class="st8" cx="382.3" cy="711.2" r="1.5"/>
		</g>
		<g>
			<circle class="st8" cx="357.6" cy="702.8" r="1.5"/>
		</g>
		<g>
			<circle class="st9" cx="379" cy="717.4" r="1.5"/>
		</g>
		<g>
			<circle class="st9" cx="351.8" cy="710.7" r="1.5"/>
		</g>
		<g>
			<circle class="st10" cx="384.8" cy="717.4" r="1.5"/>
		</g>
		<g>
			<circle class="st8" cx="390.2" cy="717.4" r="1.5"/>
		</g>
		<g>
			<circle class="st9" cx="396.2" cy="717.4" r="1.5"/>
		</g>
	</g>
</g>
<g>
	<path class="st17" d="M375.5,741.9c-20.3-0.5-40.7,0.5-60.8,2.9C334.9,749.2,355.9,748.9,375.5,741.9z"/>
	<g>
		<path class="st18" d="M339,745c3.2,1.2,6.7,1.3,10.1,0.8c2.4-0.4,4.8-1.1,6.8-2.5c3.6-2.6,5.4-7.9,5.5-12.2
			c0.1-7.5-3.4-13.8-10.8-16.2c-7.3-2.3-16.2,0.8-19.9,7.5c-4.6,8.2-0.6,19.1,8.1,22.4C338.8,744.9,338.9,745,339,745z"/>
		<path class="st19" d="M336.2,740.2c1.6,1.1,3.7,1.5,5.6,1.2c1.5-0.3,2.9-1,3.7-2.3c0.6-1,0.8-2.1,0.9-3.3c0.3-2.8,0.1-5.7-0.9-8.3
			c-1-2.6-2.8-5-5.3-6.2c-7.1-3.5-8.9,6.8-8.1,11.6C332.5,735.7,333.8,738.6,336.2,740.2z"/>
		<path class="st20" d="M358.3,732.4c0,1.2-0.1,2.4-0.3,3.6c-1.9,0.5-4.4,0.1-6.4,0.1c0.1-1.2,0.2-2.3,0.2-3.5
			c0-1.6-0.1-3.2-0.4-4.7c-0.2-1.4-0.5-2.7-0.9-4c-0.3-1.1-0.6-2.1-1-3.1c2-0.5,3.9-1.1,5.7-2.2c0.6,1.2,1.1,2.3,1.5,3.6
			c0.4,1.3,0.8,2.6,1.1,4C358.2,728.2,358.3,730.3,358.3,732.4z"/>
		<path class="st21" d="M332.9,722.1c-0.3-0.9-1-1.6-1.6-2.3c-0.7-0.7-1.4-1.4-2.1-2c-0.8-0.6-1.5-1.2-2.4-1.7
			c-0.7-0.4-1.8-1.2-2.6-1.1c-0.6,0.1-0.8,0.7-0.5,1.1c0.3,0.4,0.7,0.5,1.1,0.7c0.4,0.2,0.8,0.4,1.2,0.6c0.8,0.4,1.5,0.9,2.3,1.5
			c0.7,0.6,1.4,1.2,2.1,1.8c0.6,0.6,1.1,1.3,1.8,1.8C332.6,722.9,333,722.5,332.9,722.1z"/>
		<path class="st20" d="M326.4,714.5c-0.1,0.8-0.2,1.7-0.7,2.4s-1.3,1.2-2.1,1c-0.4-0.1-0.7-0.3-1-0.5c-1.1-0.5-2.4,0-3.5,0.4
			c-1.1,0.4-2.4,0.9-3.5,0.3c-1.4-0.7-1.7-2.6-0.9-3.9c0.8-1.3,2.4-1.9,3.9-1.9c-0.2-0.7-0.3-1.4-0.2-2.1c0.1-0.7,0.5-1.4,1.2-1.6
			c0.8-0.2,1.5,0.4,2,1s0.8,1.4,1.3,2c0.6,0.5,1.3,0.8,2.1,1.1C325.6,713.2,326.5,713.8,326.4,714.5z"/>
		<path class="st22" d="M317.7,717.6c0.9-0.3,1.7-0.5,2.6-0.8c0.7-0.2,1.5-0.5,1.5-1.2c0-0.4-0.3-0.8-0.6-1.1
			c-1.6-1.4-4.2-1.3-5.7,0.2c-0.4,0.4-0.7,0.8-0.8,1.3c-0.1,0.5,0,1.1,0.4,1.4C315.8,718.1,316.9,717.9,317.7,717.6z"/>
		<path class="st22" d="M325.8,715.5c0.1-0.5,0.3-1.4-0.4-1.5c-1.7-0.3-1.8,4.5-0.2,2.7C325.5,716.4,325.6,715.9,325.8,715.5z"/>
		<path class="st21" d="M357.9,721.1c0.3-0.9,1-1.6,1.6-2.3c0.7-0.7,1.4-1.4,2.1-2c0.8-0.6,1.5-1.2,2.4-1.7c0.7-0.4,1.8-1.2,2.6-1.1
			c0.6,0.1,0.8,0.7,0.5,1.1c-0.3,0.4-0.7,0.5-1.1,0.7c-0.4,0.2-0.8,0.4-1.2,0.6c-0.8,0.4-1.5,0.9-2.3,1.5c-0.7,0.6-1.4,1.2-2.1,1.8
			c-0.6,0.6-1.1,1.3-1.8,1.8C358.3,721.9,357.8,721.5,357.9,721.1z"/>
		<path class="st20" d="M364.5,713.6c0.1,0.8,0.2,1.7,0.7,2.4c0.5,0.7,1.3,1.2,2.1,1c0.4-0.1,0.7-0.3,1-0.5c1.1-0.5,2.4,0,3.5,0.4
			s2.4,0.9,3.5,0.3c1.4-0.7,1.7-2.6,0.9-3.9c-0.8-1.3-2.4-1.9-3.9-1.9c0.2-0.7,0.3-1.4,0.2-2.1c-0.1-0.7-0.5-1.4-1.2-1.6
			c-0.8-0.2-1.5,0.4-2,1s-0.8,1.4-1.3,2c-0.6,0.5-1.3,0.8-2.1,1.1C365.3,712.3,364.4,712.8,364.5,713.6z"/>
		<path class="st22" d="M373.1,716.7c-0.9-0.3-1.7-0.5-2.6-0.8c-0.7-0.2-1.5-0.5-1.5-1.2c0-0.4,0.3-0.8,0.6-1.1
			c1.6-1.4,4.2-1.3,5.7,0.2c0.4,0.4,0.7,0.8,0.8,1.3c0.1,0.5,0,1.1-0.4,1.4C375,717.1,374,716.9,373.1,716.7z"/>
		<path class="st22" d="M365.1,714.6c-0.1-0.5-0.3-1.4,0.4-1.5c1.7-0.3,1.8,4.5,0.2,2.7C365.3,715.5,365.2,715,365.1,714.6z"/>
		<path class="st23" d="M357.8,719.3c-1.2,0.6-2.5,1.2-3.8,1.6c-1.9,0.7-3.8,1.1-5.8,1.3c-2.1,0.3-4.2,0.3-6.2,0.1
			c-1.9-0.2-3.7-0.6-5.5-1.2c-1.4-0.4-2.7-1-4-1.7c0.5-2,1.3-4.3,2.2-6.1c1.2,0.3,2.4,0.6,3.6,0.8c1.6,0.3,3.2,0.5,4.9,0.6
			c1.5,0.1,3.1,0.1,4.6,0c1.7-0.1,3.4-0.3,5-0.6c0.9-0.2,1.8-0.4,2.7-0.6C356.3,715.3,356.9,717.5,357.8,719.3z"/>
		<path class="st24" d="M343,714.8c-0.4,2.6-0.7,5.1-1,7.6c-1.9-0.2-3.7-0.6-5.5-1.2c0.5-2.4,1.1-4.7,1.7-7
			C339.8,714.5,341.4,714.7,343,714.8z"/>
		<path class="st24" d="M354,721c-1.9,0.7-3.8,1.1-5.8,1.3c-0.2-2.5-0.4-5-0.6-7.5c1.7-0.1,3.4-0.3,5-0.6
			C353.1,716.4,353.6,718.7,354,721z"/>
		<path class="st19" d="M355.7,712c0.1-0.5,0.2-1.1,0.3-1.7c0.4-5.4-5.1-9.9-10.1-9.9c-4,0-8.2,1.3-10.4,4.8
			c-1.9,2.9-1.8,6.3,0.2,9.1c1.8,2.6,5.7,3.6,8.8,3.6c2.7,0.1,5.6-0.7,7.9-2C354.2,714.9,355.2,713.8,355.7,712z"/>
		<path class="st25" d="M352.3,711.3c1-1.9,0.9-4.4-0.4-6.2c-1.1-1.6-3-2.6-4.9-2.9c-1.9-0.3-3.9,0-5.8,0.7
			c-1.8,0.6-3.5,1.6-4.5,3.2c-1.3,2.3-0.5,5.5,1.5,7.3c2,1.8,4.9,2.3,7.6,1.9C348.5,714.9,351.1,713.6,352.3,711.3z"/>
		<path class="st26" d="M357.8,726.2c-2,0.9-4.1,1.5-6.3,1.8c-0.2-1.4-0.5-2.7-0.9-4c2-0.6,4.1-1.2,6.1-1.8
			C357.1,723.5,357.5,724.8,357.8,726.2z"/>
		<path class="st20" d="M352.2,735.8c-0.1-0.2-0.3-0.3-0.4-0.1c-0.3,0.3-0.3,0.7-0.4,1.1c-0.1,0.4-0.2,0.9-0.1,1.3
			c0.1,0.3,0.4,0.3,0.5,0.1c0.2-0.3,0.3-0.8,0.3-1.2C352.2,736.6,352.4,736.2,352.2,735.8z"/>
		<path class="st20" d="M353.7,735.9c-0.1-0.1-0.3-0.2-0.4,0c-0.3,0.3-0.3,0.8-0.4,1.3c-0.1,0.4-0.3,0.9,0,1.3
			c0.1,0.1,0.2,0.1,0.3,0c0.4-0.2,0.3-0.7,0.4-1.1C353.7,736.8,353.9,736.3,353.7,735.9z"/>
		<path class="st20" d="M355.1,736c-0.1-0.3-0.5-0.3-0.5,0c-0.2,0.7,0,1.5-0.2,2.2c-0.1,0.4,0.5,0.6,0.6,0.2
			c0.1-0.4,0.1-0.8,0.1-1.1C355.2,736.8,355.3,736.4,355.1,736z"/>
		<path class="st20" d="M356.7,737.3c0-0.5,0-1-0.2-1.4c-0.1-0.2-0.3-0.1-0.4,0.1c-0.2,0.4-0.1,0.9-0.1,1.4c0,0.4-0.1,0.9,0.1,1.2
			c0.1,0.1,0.3,0.1,0.4,0C356.8,738.2,356.7,737.7,356.7,737.3z"/>
		<path class="st20" d="M357.9,735.7c-0.1-0.1-0.2-0.1-0.3,0c-0.2,0.3-0.2,0.7-0.2,1.1c-0.1,0.6-0.1,1.1-0.2,1.7
			c0,0.3,0.5,0.4,0.5,0.1c0.1-0.5,0.2-1,0.2-1.5C358,736.5,358.1,736.1,357.9,735.7z"/>
		<path class="st26" d="M358.3,732.4c0,1.2-0.1,2.4-0.3,3.6c-1.9,0.5-4.4,0.1-6.4,0.1c0.1-1.2,0.2-2.3,0.2-3.5
			C354,732.8,356.2,732.7,358.3,732.4z"/>
		<path class="st27" d="M342.3,712c-4.4,0.3-8.5-1.1-12.2-3.5c4,0.1,8,0,12-0.3C342.7,709.3,342.7,710.8,342.3,712z"/>
		<path class="st28" d="M340.5,710c0.2,0,0.4,0,0.6-0.2c0.2-0.1,0.3-0.3,0.3-0.6c-0.1-0.3-0.4-0.4-0.7-0.4c-1.5-0.2-3.1-0.2-4.6,0
			c-0.2,0-0.3,0-0.4,0.1c-0.1,0.1-0.2,0.3-0.1,0.4c0.1,0.1,0.2,0.1,0.3,0.1C337.4,710.1,339,710.2,340.5,710z"/>
		<path class="st21" d="M357.8,703.9c-8.5,0.1-16.9-0.5-25.3-1.7C341.1,700.2,349.6,700.8,357.8,703.9z"/>
		<path class="st21" d="M354.8,689.1c-0.7,2.9-1.4,5.9-2.1,8.9c-0.4,1.6-0.8,3.2-1.1,4.8c-4.2,0.9-8.3,0.1-12.5-0.9
			c-0.3-1.5-0.5-3.1-0.8-4.6c-0.4-2.8-0.6-5.6-0.7-8.4C343.3,688.7,349.1,688.5,354.8,689.1z"/>
		<path class="st24" d="M352.7,698c-0.4,1.6-0.8,3.2-1.1,4.8c-4.2,0.9-8.3,0.1-12.5-0.9c-0.3-1.5-0.5-3.1-0.8-4.6
			C343,698.5,347.9,698.7,352.7,698z"/>
		<path class="st29" d="M351.8,697c-1.5,0.5-3.1,0.8-4.7,0.7c0.2-2.6,0.5-5.2,0.7-7.8c1.3,0.2,3.1,0.5,4.4,0.4
			C352.3,692.5,352.2,694.9,351.8,697z"/>
		<path class="st26" d="M350.7,702.5c0.1-1,0.5-2.2,0.6-3.2c-1.4,0.3-2.9,0.3-4.4,0c0,1-0.2,2.2-0.2,3.3
			C348,702.6,349.5,702.8,350.7,702.5z"/>
		<path class="st30" d="M343.2,707.9c0.1-1.3-0.2-3.2-1.5-3.6c-1.5-0.4-2.6,1-3.3,2.2c-0.2,0.3,0.2,0.5,0.4,0.3
			c0.7-0.8,1.4-2,2.6-1.9c1.3,0.1,1.2,2,1.2,3C342.6,708.4,343.2,708.3,343.2,707.9z"/>
		<path class="st30" d="M350.9,706.6c-0.6-1.1-1.8-2.7-3.2-2.3c-1.4,0.5-1.7,2.2-1.7,3.6c0,0.3,0.5,0.4,0.5,0.1
			c0.2-1.1,0.1-2.5,1.2-3c1.1-0.5,2,1.1,2.6,1.9C350.7,707.3,351.1,707,350.9,706.6z"/>
		<path class="st30" d="M339.2,713.6c-0.2,0-0.4,0.2-0.4,0.5l0,0.2c0,0.2,0.2,0.5,0.4,0.5c0.2,0,0.4-0.2,0.4-0.5l0-0.2
			C339.6,713.8,339.4,713.6,339.2,713.6z"/>
		<path class="st30" d="M341.9,714.4c-0.2,0-0.4,0.2-0.4,0.5l0,0.2c0,0.2,0.2,0.5,0.4,0.5c0.2,0,0.4-0.2,0.4-0.5l0-0.2
			C342.3,714.6,342.1,714.4,341.9,714.4z"/>
		<path class="st30" d="M345,714.4c-0.2,0-0.4,0.2-0.4,0.5l0,0.2c0,0.2,0.2,0.5,0.4,0.5c0.2,0,0.4-0.2,0.4-0.5l0-0.2
			C345.4,714.6,345.2,714.4,345,714.4z"/>
		<path class="st30" d="M348.1,713.8c-0.2,0-0.4,0.2-0.4,0.5l0,0.2c0,0.2,0.2,0.5,0.4,0.5c0.2,0,0.4-0.2,0.4-0.5l0-0.2
			C348.5,714.1,348.3,713.8,348.1,713.8z"/>
	</g>
</g>
</svg>
