<?xml version="1.0" encoding="utf-8"?>
<!-- Generator: Adobe Illustrator 23.0.1, SVG Export Plug-In . SVG Version: 6.00 Build 0)  -->
<svg version="1.1" id="Livello_1" xmlns="http://www.w3.org/2000/svg" xmlns:xlink="http://www.w3.org/1999/xlink" x="0px" y="0px"
	 viewBox="0 0 450 800" style="enable-background:new 0 0 450 800;" xml:space="preserve">
<style type="text/css">
	.st0{fill:#B46100;}
	.st1{fill:#A64D00;}
	.st2{fill:#54B861;}
	.st3{fill:#6AD372;}
	.st4{fill:#54984D;}
	.st5{fill:#FFFF79;}
	.st6{opacity:0.1;}
	.st7{fill:#1A3E51;}
	.st8{fill:#FFFFFF;}
	.st9{fill:#FF3E2C;}
	.st10{fill:#2C88F7;}
	.st11{fill:#F1EADC;}
	.st12{fill:#CACEC6;}
	.st13{fill:#BBBFB8;}
	.st14{fill:#EFEFF0;}
	.st15{fill:#F1FAFE;}
</style>
<g>
	<g>
		<g>
			<g>
				<g>
					<rect x="417.7" y="678.3" class="st0" width="8.3" height="34.6"/>
				</g>
				<g>
					<rect x="417.7" y="678.3" class="st1" width="4.2" height="34.6"/>
				</g>
			</g>
			<g>
				<g>
					<g>
						<polygon class="st2" points="388.8,691.3 421.8,629.1 454.9,691.3 						"/>
					</g>
					<g>
						<polygon class="st3" points="421.8,691.3 421.8,629.1 454.9,691.3 						"/>
					</g>
					<g>
						<polygon class="st2" points="441.9,666.9 421.8,666.9 421.8,629.1 						"/>
					</g>
					<g>
						<polygon class="st4" points="421.8,629.1 421.8,666.9 401.7,666.9 						"/>
					</g>
				</g>
				<g>
					<g>
						<polygon class="st2" points="395.9,664.8 421.8,616 447.8,664.8 						"/>
					</g>
					<g>
						<polygon class="st3" points="421.8,664.8 421.8,616 447.8,664.8 						"/>
					</g>
					<g>
						<polygon class="st2" points="437.6,645.6 421.8,645.6 421.8,616 						"/>
					</g>
					<g>
						<polygon class="st4" points="421.8,616 421.8,645.6 406.1,645.6 						"/>
					</g>
				</g>
				<g>
					<g>
						<polygon class="st2" points="442.9,643.5 400.8,643.5 408.6,628.8 421.8,603.9 435,628.8 						"/>
					</g>
					<g>
						<polygon class="st3" points="421.8,643.5 421.8,603.9 442.9,643.5 						"/>
					</g>
					<g>
						<polygon class="st5" points="421.8,597.5 423.6,601 427.5,601.6 424.7,604.4 425.3,608.2 421.8,606.4 418.3,608.2 419,604.4 
							416.2,601.6 420.1,601 						"/>
					</g>
				</g>
			</g>
		</g>
		<g class="st6">
			<polygon class="st7" points="417.7,713 398.2,719.1 426,713 			"/>
		</g>
	</g>
	<g>
		<path class="st8" d="M430.6,619.7c-4.9,7.6-10.5,15-18.3,19.8c-2.3,1.4-4.8,2.6-7.4,3.5c-0.2,0.1,0,0.1,0.1,0.1
			c8.8-3,15.7-9.3,21.2-16.6c1.7-2.2,3.2-4.5,4.8-6.9C431,619.6,430.7,619.7,430.6,619.7L430.6,619.7z"/>
	</g>
	<g>
		<path class="st8" d="M438.8,648.2c-8.3,7.9-19.2,13.3-30.5,15.1c-3.1,0.5-6.3,0.7-9.4,0.5c-0.1,0-0.4,0.2-0.1,0.2
			c11.5,0.6,23.1-3.4,32.6-9.7c2.7-1.8,5.3-3.8,7.7-6.1C439.2,648.2,438.9,648.2,438.8,648.2L438.8,648.2z"/>
	</g>
	<g>
		<path class="st8" d="M444.3,672.5c-5.3,5.7-13.2,8.9-20.4,11.4c-7.6,2.6-15.5,4.4-23.5,5.5c-2.9,0.4-5.8,0.8-8.7,0.7
			c-0.1,0-0.4,0.2-0.1,0.2c2.5,0.1,5.1-0.2,7.6-0.5c3.7-0.5,7.4-1.1,11.1-1.9c8.3-1.8,16.7-4.3,24.3-8.2c3.7-1.9,7.3-4.1,10.1-7.2
			C444.7,672.4,444.4,672.4,444.3,672.5L444.3,672.5z"/>
	</g>
	<g>
		<rect x="405.3" y="643.3" class="st8" width="33" height="0.2"/>
	</g>
	<g>
		<rect x="398.2" y="664.7" class="st8" width="46.4" height="0.2"/>
	</g>
	<g>
		<rect x="391.1" y="691" class="st8" width="60.8" height="0.2"/>
	</g>
	<g>
		<g>
			<circle class="st9" cx="405.3" cy="643.4" r="1.7"/>
		</g>
		<g>
			<circle class="st5" cx="411.9" cy="643.4" r="1.7"/>
		</g>
		<g>
			<circle class="st5" cx="427.5" cy="633.6" r="1.7"/>
		</g>
		<g>
			<circle class="st10" cx="418.5" cy="643.4" r="1.7"/>
		</g>
		<g>
			<circle class="st9" cx="431.7" cy="643.4" r="1.7"/>
		</g>
		<g>
			<ellipse class="st9" cx="418.9" cy="623.7" rx="1.7" ry="1.7"/>
		</g>
		<g>
			<circle class="st8" cx="425.1" cy="643.5" r="1.7"/>
		</g>
		<g>
			<circle class="st8" cx="411.9" cy="632.6" r="1.7"/>
		</g>
		<g>
			<circle class="st10" cx="438.3" cy="643.4" r="1.7"/>
		</g>
		<g>
			<circle class="st10" cx="435.5" cy="637.6" r="1.7"/>
		</g>
	</g>
	<g>
		<g>
			<circle class="st9" cx="405.3" cy="664.8" r="1.7"/>
		</g>
		<g>
			<circle class="st5" cx="398.7" cy="664.8" r="1.7"/>
		</g>
		<g>
			<circle class="st5" cx="416.2" cy="657.9" r="1.7"/>
		</g>
		<g>
			<circle class="st5" cx="411.9" cy="664.8" r="1.7"/>
		</g>
		<g>
			<circle class="st5" cx="429.2" cy="651.2" r="1.7"/>
		</g>
		<g>
			<circle class="st10" cx="418.5" cy="664.8" r="1.7"/>
		</g>
		<g>
			<circle class="st9" cx="431.7" cy="664.8" r="1.7"/>
		</g>
		<g>
			<circle class="st9" cx="410.3" cy="654.1" r="1.7"/>
		</g>
		<g>
			<circle class="st8" cx="425.1" cy="664.8" r="1.7"/>
		</g>
		<g>
			<circle class="st10" cx="438.3" cy="664.8" r="1.7"/>
		</g>
		<g>
			<circle class="st10" cx="435.5" cy="657.9" r="1.7"/>
		</g>
		<g>
			<circle class="st9" cx="444.6" cy="664.8" r="1.7"/>
		</g>
	</g>
	<g>
		<g>
			<circle class="st9" cx="405.3" cy="691.1" r="1.7"/>
		</g>
		<g>
			<circle class="st9" cx="427.6" cy="673.6" r="1.7"/>
		</g>
		<g>
			<circle class="st5" cx="398.7" cy="691.1" r="1.7"/>
		</g>
		<g>
			<circle class="st10" cx="391.6" cy="691.1" r="1.7"/>
		</g>
		<g>
			<circle class="st10" cx="442.9" cy="682" r="1.7"/>
		</g>
		<g>
			<circle class="st5" cx="411.9" cy="691.1" r="1.7"/>
		</g>
		<g>
			<circle class="st5" cx="415.3" cy="681.2" r="1.7"/>
		</g>
		<g>
			<circle class="st10" cx="418.5" cy="691.1" r="1.7"/>
		</g>
		<g>
			<circle class="st8" cx="425.1" cy="691.1" r="1.7"/>
		</g>
		<g>
			<circle class="st8" cx="435.5" cy="684" r="1.7"/>
		</g>
		<g>
			<circle class="st8" cx="407" cy="674.2" r="1.7"/>
		</g>
		<g>
			<circle class="st9" cx="431.7" cy="691.1" r="1.7"/>
		</g>
		<g>
			<circle class="st9" cx="400.4" cy="683.4" r="1.7"/>
		</g>
		<g>
			<circle class="st10" cx="438.3" cy="691.1" r="1.7"/>
		</g>
		<g>
			<circle class="st8" cx="444.6" cy="691.1" r="1.7"/>
		</g>
		<g>
			<circle class="st9" cx="451.5" cy="691.1" r="1.7"/>
		</g>
	</g>
</g>
<g>
	<g>
		<g>
			<g>
				<g>
					<rect x="89.8" y="683.2" class="st0" width="7.6" height="31.6"/>
				</g>
				<g>
					<rect x="89.8" y="683.2" class="st1" width="3.8" height="31.6"/>
				</g>
			</g>
			<g>
				<g>
					<g>
						<polygon class="st2" points="63.4,695 93.6,638.1 123.9,695 						"/>
					</g>
					<g>
						<polygon class="st3" points="93.6,695 93.6,638.1 123.9,695 						"/>
					</g>
					<g>
						<polygon class="st2" points="112,672.7 93.6,672.7 93.6,638.1 						"/>
					</g>
					<g>
						<polygon class="st4" points="93.6,638.1 93.6,672.7 75.3,672.7 						"/>
					</g>
				</g>
				<g>
					<g>
						<polygon class="st2" points="70,670.8 93.6,626.2 117.3,670.8 						"/>
					</g>
					<g>
						<polygon class="st3" points="93.6,670.8 93.6,626.2 117.3,670.8 						"/>
					</g>
					<g>
						<polygon class="st2" points="108,653.3 93.6,653.3 93.6,626.2 						"/>
					</g>
					<g>
						<polygon class="st4" points="93.6,626.2 93.6,653.3 79.3,653.3 						"/>
					</g>
				</g>
				<g>
					<g>
						<polygon class="st2" points="112.9,651.4 74.4,651.4 81.6,637.9 93.6,615.2 105.7,637.9 						"/>
					</g>
					<g>
						<polygon class="st3" points="93.6,651.4 93.6,615.2 112.9,651.4 						"/>
					</g>
					<g>
						<polygon class="st5" points="93.6,609.3 95.2,612.5 98.8,613.1 96.2,615.6 96.8,619.1 93.6,617.4 90.5,619.1 91.1,615.6 
							88.5,613.1 92.1,612.5 						"/>
					</g>
				</g>
			</g>
		</g>
		<g class="st6">
			<polygon class="st7" points="89.8,714.8 72,720.4 97.5,714.8 			"/>
		</g>
	</g>
	<g>
		<path class="st8" d="M101.7,629.6c-4.5,6.9-9.6,13.7-16.7,18.1c-2.1,1.3-4.4,2.4-6.8,3.2c-0.2,0.1,0,0.1,0.1,0.1
			c8.1-2.8,14.3-8.5,19.4-15.2c1.5-2,3-4.1,4.4-6.3C102,629.5,101.7,629.5,101.7,629.6L101.7,629.6z"/>
	</g>
	<g>
		<path class="st8" d="M109.2,655.7c-7.5,7.2-17.6,12.1-27.9,13.8c-2.8,0.5-5.7,0.6-8.6,0.5c-0.1,0-0.3,0.1-0.1,0.2
			c10.5,0.5,21.1-3.1,29.8-8.9c2.5-1.6,4.9-3.5,7-5.6C109.5,655.6,109.2,655.6,109.2,655.7L109.2,655.7z"/>
	</g>
	<g>
		<path class="st8" d="M114.2,677.8c-4.9,5.2-12,8.2-18.6,10.4c-6.9,2.4-14.2,4-21.4,5c-2.6,0.4-5.3,0.7-8,0.6
			c-0.1,0-0.3,0.2-0.1,0.2c2.3,0.1,4.7-0.2,7-0.5c3.4-0.4,6.8-1,10.1-1.8c7.6-1.7,15.2-3.9,22.2-7.5c3.4-1.7,6.6-3.8,9.2-6.6
			C114.6,677.7,114.3,677.7,114.2,677.8L114.2,677.8z"/>
	</g>
	<g>
		<rect x="78.6" y="651.2" class="st8" width="30.1" height="0.2"/>
	</g>
	<g>
		<rect x="72.1" y="670.7" class="st8" width="42.4" height="0.2"/>
	</g>
	<g>
		<rect x="65.6" y="694.7" class="st8" width="55.5" height="0.2"/>
	</g>
	<g>
		<g>
			<circle class="st9" cx="78.6" cy="651.3" r="1.5"/>
		</g>
		<g>
			<circle class="st5" cx="84.6" cy="651.3" r="1.5"/>
		</g>
		<g>
			<circle class="st5" cx="98.8" cy="642.3" r="1.5"/>
		</g>
		<g>
			<circle class="st10" cx="90.6" cy="651.3" r="1.5"/>
		</g>
		<g>
			<circle class="st9" cx="102.7" cy="651.3" r="1.5"/>
		</g>
		<g>
			<ellipse class="st9" cx="91" cy="633.2" rx="1.5" ry="1.5"/>
		</g>
		<g>
			<circle class="st8" cx="96.7" cy="651.4" r="1.5"/>
		</g>
		<g>
			<circle class="st8" cx="84.6" cy="641.4" r="1.5"/>
		</g>
		<g>
			<circle class="st10" cx="108.7" cy="651.3" r="1.5"/>
		</g>
		<g>
			<circle class="st10" cx="106.1" cy="645.9" r="1.5"/>
		</g>
	</g>
	<g>
		<g>
			<circle class="st9" cx="78.6" cy="670.8" r="1.5"/>
		</g>
		<g>
			<circle class="st5" cx="72.5" cy="670.8" r="1.5"/>
		</g>
		<g>
			<circle class="st5" cx="88.5" cy="664.5" r="1.5"/>
		</g>
		<g>
			<circle class="st5" cx="84.6" cy="670.8" r="1.5"/>
		</g>
		<g>
			<circle class="st5" cx="100.4" cy="658.4" r="1.5"/>
		</g>
		<g>
			<circle class="st10" cx="90.6" cy="670.8" r="1.5"/>
		</g>
		<g>
			<circle class="st9" cx="102.7" cy="670.8" r="1.5"/>
		</g>
		<g>
			<circle class="st9" cx="83.1" cy="661" r="1.5"/>
		</g>
		<g>
			<circle class="st8" cx="96.7" cy="670.8" r="1.5"/>
		</g>
		<g>
			<circle class="st10" cx="108.7" cy="670.8" r="1.5"/>
		</g>
		<g>
			<circle class="st10" cx="106.1" cy="664.5" r="1.5"/>
		</g>
		<g>
			<circle class="st9" cx="114.4" cy="670.8" r="1.5"/>
		</g>
	</g>
	<g>
		<g>
			<circle class="st9" cx="78.6" cy="694.8" r="1.5"/>
		</g>
		<g>
			<circle class="st9" cx="98.9" cy="678.9" r="1.5"/>
		</g>
		<g>
			<circle class="st5" cx="72.5" cy="694.8" r="1.5"/>
		</g>
		<g>
			<circle class="st10" cx="66.1" cy="694.8" r="1.5"/>
		</g>
		<g>
			<circle class="st10" cx="112.9" cy="686.5" r="1.5"/>
		</g>
		<g>
			<circle class="st5" cx="84.6" cy="694.8" r="1.5"/>
		</g>
		<g>
			<circle class="st5" cx="87.7" cy="685.8" r="1.5"/>
		</g>
		<g>
			<circle class="st10" cx="90.6" cy="694.8" r="1.5"/>
		</g>
		<g>
			<circle class="st8" cx="96.7" cy="694.8" r="1.5"/>
		</g>
		<g>
			<circle class="st8" cx="106.1" cy="688.3" r="1.5"/>
		</g>
		<g>
			<circle class="st8" cx="80.1" cy="679.4" r="1.5"/>
		</g>
		<g>
			<circle class="st9" cx="102.7" cy="694.8" r="1.5"/>
		</g>
		<g>
			<circle class="st9" cx="74.1" cy="687.8" r="1.5"/>
		</g>
		<g>
			<circle class="st10" cx="108.7" cy="694.8" r="1.5"/>
		</g>
		<g>
			<circle class="st8" cx="114.4" cy="694.8" r="1.5"/>
		</g>
		<g>
			<circle class="st9" cx="120.8" cy="694.8" r="1.5"/>
		</g>
	</g>
</g>
<g>
	<rect x="-441.8" class="st11" width="1144.7" height="799.1"/>
</g>
<g>
	<g>
		<polygon class="st12" points="-441.8,501.8 -279.1,501.8 -311.6,93.2 -441.8,360.9 		"/>
	</g>
	<g>
		<polygon class="st13" points="-311.2,92.4 -311.6,93.2 -279.1,501.8 -129.4,501.8 		"/>
	</g>
	<g>
		<polygon class="st8" points="-374.6,222.7 -343.1,193.3 -334,229 -311.6,203.4 -299.6,244.2 -311.2,92.4 		"/>
	</g>
	<g>
		<polygon class="st14" points="-255.5,217.8 -272,206.9 -273.9,232.7 -293.9,211.3 -299.6,244.2 -311.2,92.4 		"/>
	</g>
</g>
<g>
	<g>
		<polygon class="st12" points="-321.6,501.8 -149.6,501.8 -182.6,245.4 		"/>
	</g>
	<g>
		<polygon class="st13" points="-181.9,244.2 -182.6,245.4 -149.6,501.8 -59.5,501.8 		"/>
	</g>
	<g>
		<polygon class="st8" points="-218,310.8 -198.6,297.1 -193.6,332.2 -182.6,314.7 -170.6,338.6 -182.6,245.4 		"/>
	</g>
	<g>
		<polygon class="st14" points="-149.6,312.2 -161.6,303.1 -170.6,338.6 -182.6,245.4 -181.9,244.2 		"/>
	</g>
</g>
<g>
	<g>
		<polygon class="st13" points="262.6,502.6 365.9,502.6 393.4,216.3 		"/>
	</g>
	<g>
		<polygon class="st12" points="395,213 393.4,216.3 365.9,502.6 534.7,502.6 		"/>
	</g>
	<g>
		<polygon class="st14" points="355.9,298.6 377.4,280.3 385.7,296.5 393.4,216.3 		"/>
	</g>
	<g>
		<polygon class="st8" points="395,213 430.7,287 403.7,267.7 385.7,296.5 393.4,216.3 		"/>
	</g>
</g>
<g>
	<g>
		<polygon class="st13" points="383.9,502.6 536.2,502.6 583,46.1 		"/>
	</g>
	<g>
		<polygon class="st12" points="704.2,296.9 585.4,40.5 583,46.1 536.2,502.6 704.2,502.6 		"/>
	</g>
	<g>
		<polygon class="st14" points="542.6,138.7 562.9,117.2 573,143.7 583,46.1 		"/>
	</g>
	<g>
		<polygon class="st8" points="585.4,40.5 635.1,147.7 612.8,119.1 607.6,143.7 589.4,112.3 573,143.7 583,46.1 		"/>
	</g>
</g>
<g>
	<g>
		<polygon class="st12" points="250.9,297.1 249.9,299.2 206.5,501.8 341.2,501.8 		"/>
	</g>
	<g>
		<polygon class="st13" points="150.7,501.8 206.5,501.8 249.9,299.2 		"/>
	</g>
	<g>
		<polygon class="st14" points="229.9,340.1 249.9,299.2 240.8,341.5 238.7,332.2 		"/>
	</g>
	<g>
		<polygon class="st8" points="250.9,297.1 268.3,336.5 257.5,327.4 256.7,339.8 249.2,326.9 240.8,341.5 249.9,299.2 		"/>
	</g>
</g>
<g>
	<g>
		<path class="st12" d="M-170.6,501.8c0,0,85.9-107.5,143.3-88.7c57.4,18.8,104,88.7,104,88.7L-170.6,501.8z"/>
	</g>
	<g>
		<path class="st13" d="M-27.3,422.3c44.5,14.6,104,79.5,104,79.5s-46.6-69.9-104-88.7c-57.4-18.8-143.3,88.7-143.3,88.7
			S-74.3,406.9-27.3,422.3z"/>
	</g>
</g>
<g>
	<rect x="-441.8" y="502.6" class="st8" width="1144.7" height="238.6"/>
</g>
<g>
	<path class="st8" d="M702.9,667.2v132H-441.8V572c64,0.4,127.9,5.9,191.2,16.4l288.4,48l209.6,37
		C398.8,700.1,553.6,697.8,702.9,667.2z"/>
</g>
<g>
	<path class="st8" d="M704.2,457.3l-1.2,226H-441.8V456.1c64,0.4,127.9,5.9,191.2,16.4l288.4,48l216.6,4.3
		C405.8,551.6,554.9,487.9,704.2,457.3z"/>
</g>
<g>
	<path class="st15" d="M702.9,727c-89.5,25.9-206.4,18.1-298.6,5s-183.6-34-276.6-39c-66.8-3.6-133.7,1-200.4,5.6
		c-123.9,8.6-245.3-57.2-369.2-48.6v149.2H702.9V727z"/>
</g>
<g>
	<g>
		<path class="st12" d="M249.9,501.8c0,0-57.1-60.5-132.4-56.5c-67.3,3.6-177,56.5-177,56.5H249.9z"/>
	</g>
	<g>
		<path class="st13" d="M117.5,455.8c55.3-3,132.4,46,132.4,46s-57.1-60.5-132.4-56.5c-67.3,3.6-177,56.5-177,56.5
			S69.4,458.4,117.5,455.8z"/>
	</g>
</g>
<g>
	<g>
		<g>
			<g>
				<g>
					<rect x="536.4" y="493.2" class="st0" width="4.4" height="18.1"/>
				</g>
				<g>
					<rect x="536.4" y="493.2" class="st1" width="2.2" height="18.1"/>
				</g>
			</g>
			<g>
				<g>
					<g>
						<polygon class="st2" points="521.2,500 538.6,467.4 555.9,500 						"/>
					</g>
					<g>
						<polygon class="st3" points="538.6,500 538.6,467.4 555.9,500 						"/>
					</g>
					<g>
						<polygon class="st2" points="549.1,487.2 538.6,487.2 538.6,467.4 						"/>
					</g>
					<g>
						<polygon class="st4" points="538.6,467.4 538.6,487.2 528,487.2 						"/>
					</g>
				</g>
				<g>
					<g>
						<polygon class="st2" points="524.9,486.1 538.6,460.5 552.2,486.1 						"/>
					</g>
					<g>
						<polygon class="st3" points="538.6,486.1 538.6,460.5 552.2,486.1 						"/>
					</g>
					<g>
						<polygon class="st2" points="546.8,476.1 538.6,476.1 538.6,460.5 						"/>
					</g>
					<g>
						<polygon class="st4" points="538.6,460.5 538.6,476.1 530.3,476.1 						"/>
					</g>
				</g>
				<g>
					<g>
						<polygon class="st2" points="549.6,475 527.5,475 531.6,467.2 538.6,454.2 545.5,467.2 						"/>
					</g>
					<g>
						<polygon class="st3" points="538.6,475 538.6,454.2 549.6,475 						"/>
					</g>
				</g>
			</g>
		</g>
		<g class="st6">
			<polygon class="st7" points="536.4,511.3 526.1,514.5 540.7,511.3 			"/>
		</g>
	</g>
	<g>
		<g>
			<g>
				<g>
					<rect x="571.1" y="481.3" class="st0" width="8.5" height="35.3"/>
				</g>
				<g>
					<rect x="571.1" y="481.3" class="st1" width="4.3" height="35.3"/>
				</g>
			</g>
			<g>
				<g>
					<g>
						<polygon class="st2" points="541.5,494.5 575.3,431.1 609.1,494.5 						"/>
					</g>
					<g>
						<polygon class="st3" points="575.3,494.5 575.3,431.1 609.1,494.5 						"/>
					</g>
					<g>
						<polygon class="st2" points="595.9,469.6 575.3,469.6 575.3,431.1 						"/>
					</g>
					<g>
						<polygon class="st4" points="575.3,431.1 575.3,469.6 554.8,469.6 						"/>
					</g>
				</g>
				<g>
					<g>
						<polygon class="st2" points="548.8,467.5 575.3,417.7 601.8,467.5 						"/>
					</g>
					<g>
						<polygon class="st3" points="575.3,467.5 575.3,417.7 601.8,467.5 						"/>
					</g>
					<g>
						<polygon class="st2" points="591.4,448 575.3,448 575.3,417.7 						"/>
					</g>
					<g>
						<polygon class="st4" points="575.3,417.7 575.3,448 559.2,448 						"/>
					</g>
				</g>
				<g>
					<g>
						<polygon class="st2" points="596.8,445.8 553.8,445.8 561.8,430.8 575.3,405.4 588.8,430.8 						"/>
					</g>
					<g>
						<polygon class="st3" points="575.3,445.8 575.3,405.4 596.8,445.8 						"/>
					</g>
				</g>
			</g>
		</g>
		<g class="st6">
			<polygon class="st7" points="571.1,516.6 551.1,522.9 579.6,516.6 			"/>
		</g>
	</g>
	<g>
		<g>
			<g>
				<g>
					<rect x="615.9" y="497.8" class="st0" width="3.1" height="12.7"/>
				</g>
				<g>
					<rect x="615.9" y="497.8" class="st1" width="1.5" height="12.7"/>
				</g>
			</g>
			<g>
				<g>
					<g>
						<polygon class="st2" points="605.3,502.6 617.4,479.8 629.6,502.6 						"/>
					</g>
					<g>
						<polygon class="st3" points="617.4,502.6 617.4,479.8 629.6,502.6 						"/>
					</g>
					<g>
						<polygon class="st2" points="624.8,493.6 617.4,493.6 617.4,479.8 						"/>
					</g>
					<g>
						<polygon class="st4" points="617.4,479.8 617.4,493.6 610.1,493.6 						"/>
					</g>
				</g>
				<g>
					<g>
						<polygon class="st2" points="607.9,492.9 617.4,475 627,492.9 						"/>
					</g>
					<g>
						<polygon class="st3" points="617.4,492.9 617.4,475 627,492.9 						"/>
					</g>
					<g>
						<polygon class="st2" points="623.2,485.8 617.4,485.8 617.4,475 						"/>
					</g>
					<g>
						<polygon class="st4" points="617.4,475 617.4,485.8 611.6,485.8 						"/>
					</g>
				</g>
				<g>
					<g>
						<polygon class="st2" points="625.2,485.1 609.7,485.1 612.6,479.7 617.4,470.6 622.3,479.7 						"/>
					</g>
					<g>
						<polygon class="st3" points="617.4,485.1 617.4,470.6 625.2,485.1 						"/>
					</g>
				</g>
			</g>
		</g>
		<g class="st6">
			<polygon class="st7" points="615.9,510.5 608.7,512.8 619,510.5 			"/>
		</g>
	</g>
	<g>
		<g>
			<g>
				<g>
					<rect x="646" y="483.5" class="st0" width="6.1" height="25.4"/>
				</g>
				<g>
					<rect x="646" y="483.5" class="st1" width="3.1" height="25.4"/>
				</g>
			</g>
			<g>
				<g>
					<g>
						<polygon class="st2" points="624.8,493 649.1,447.4 673.4,493 						"/>
					</g>
					<g>
						<polygon class="st3" points="649.1,493 649.1,447.4 673.4,493 						"/>
					</g>
					<g>
						<polygon class="st2" points="663.9,475.1 649.1,475.1 649.1,447.4 						"/>
					</g>
					<g>
						<polygon class="st4" points="649.1,447.4 649.1,475.1 634.3,475.1 						"/>
					</g>
				</g>
				<g>
					<g>
						<polygon class="st2" points="630,473.6 649.1,437.9 668.2,473.6 						"/>
					</g>
					<g>
						<polygon class="st3" points="649.1,473.6 649.1,437.9 668.2,473.6 						"/>
					</g>
					<g>
						<polygon class="st2" points="660.7,459.6 649.1,459.6 649.1,437.9 						"/>
					</g>
					<g>
						<polygon class="st4" points="649.1,437.9 649.1,459.6 637.5,459.6 						"/>
					</g>
				</g>
				<g>
					<g>
						<polygon class="st2" points="664.6,458 633.6,458 639.4,447.2 649.1,429 658.8,447.2 						"/>
					</g>
					<g>
						<polygon class="st3" points="649.1,458 649.1,429 664.6,458 						"/>
					</g>
				</g>
			</g>
		</g>
		<g class="st6">
			<polygon class="st7" points="646,508.9 631.7,513.4 652.2,508.9 			"/>
		</g>
	</g>
	<g>
		<g>
			<g>
				<g>
					<rect x="352.3" y="493.2" class="st0" width="4.4" height="18.1"/>
				</g>
				<g>
					<rect x="352.3" y="493.2" class="st1" width="2.2" height="18.1"/>
				</g>
			</g>
			<g>
				<g>
					<g>
						<polygon class="st2" points="337.1,500 354.4,467.4 371.8,500 						"/>
					</g>
					<g>
						<polygon class="st3" points="354.4,500 354.4,467.4 371.8,500 						"/>
					</g>
					<g>
						<polygon class="st2" points="365,487.2 354.4,487.2 354.4,467.4 						"/>
					</g>
					<g>
						<polygon class="st4" points="354.4,467.4 354.4,487.2 343.9,487.2 						"/>
					</g>
				</g>
				<g>
					<g>
						<polygon class="st2" points="340.8,486.1 354.4,460.5 368.1,486.1 						"/>
					</g>
					<g>
						<polygon class="st3" points="354.4,486.1 354.4,460.5 368.1,486.1 						"/>
					</g>
					<g>
						<polygon class="st2" points="362.7,476.1 354.4,476.1 354.4,460.5 						"/>
					</g>
					<g>
						<polygon class="st4" points="354.4,460.5 354.4,476.1 346.2,476.1 						"/>
					</g>
				</g>
				<g>
					<g>
						<polygon class="st2" points="365.5,475 343.4,475 347.5,467.2 354.4,454.2 361.4,467.2 						"/>
					</g>
					<g>
						<polygon class="st3" points="354.4,475 354.4,454.2 365.5,475 						"/>
					</g>
				</g>
			</g>
		</g>
		<g class="st6">
			<polygon class="st7" points="352.3,511.3 342,514.5 356.6,511.3 			"/>
		</g>
	</g>
	<g>
		<g>
			<g>
				<g>
					<rect x="386.9" y="481.3" class="st0" width="8.5" height="35.3"/>
				</g>
				<g>
					<rect x="386.9" y="481.3" class="st1" width="4.3" height="35.3"/>
				</g>
			</g>
			<g>
				<g>
					<g>
						<polygon class="st2" points="357.4,494.5 391.2,431.1 425,494.5 						"/>
					</g>
					<g>
						<polygon class="st3" points="391.2,494.5 391.2,431.1 425,494.5 						"/>
					</g>
					<g>
						<polygon class="st2" points="411.7,469.6 391.2,469.6 391.2,431.1 						"/>
					</g>
					<g>
						<polygon class="st4" points="391.2,431.1 391.2,469.6 370.6,469.6 						"/>
					</g>
				</g>
				<g>
					<g>
						<polygon class="st2" points="364.7,467.5 391.2,417.7 417.7,467.5 						"/>
					</g>
					<g>
						<polygon class="st3" points="391.2,467.5 391.2,417.7 417.7,467.5 						"/>
					</g>
					<g>
						<polygon class="st2" points="407.3,448 391.2,448 391.2,417.7 						"/>
					</g>
					<g>
						<polygon class="st4" points="391.2,417.7 391.2,448 375.1,448 						"/>
					</g>
				</g>
				<g>
					<g>
						<polygon class="st2" points="412.7,445.8 369.7,445.8 377.7,430.8 391.2,405.4 404.7,430.8 						"/>
					</g>
					<g>
						<polygon class="st3" points="391.2,445.8 391.2,405.4 412.7,445.8 						"/>
					</g>
				</g>
			</g>
		</g>
		<g class="st6">
			<polygon class="st7" points="386.9,516.6 367,522.9 395.5,516.6 			"/>
		</g>
	</g>
	<g>
		<g>
			<g>
				<g>
					<rect x="431.8" y="497.8" class="st0" width="3.1" height="12.7"/>
				</g>
				<g>
					<rect x="431.8" y="497.8" class="st1" width="1.5" height="12.7"/>
				</g>
			</g>
			<g>
				<g>
					<g>
						<polygon class="st2" points="421.2,502.6 433.3,479.8 445.5,502.6 						"/>
					</g>
					<g>
						<polygon class="st3" points="433.3,502.6 433.3,479.8 445.5,502.6 						"/>
					</g>
					<g>
						<polygon class="st2" points="440.7,493.6 433.3,493.6 433.3,479.8 						"/>
					</g>
					<g>
						<polygon class="st4" points="433.3,479.8 433.3,493.6 425.9,493.6 						"/>
					</g>
				</g>
				<g>
					<g>
						<polygon class="st2" points="423.8,492.9 433.3,475 442.8,492.9 						"/>
					</g>
					<g>
						<polygon class="st3" points="433.3,492.9 433.3,475 442.8,492.9 						"/>
					</g>
					<g>
						<polygon class="st2" points="439.1,485.8 433.3,485.8 433.3,475 						"/>
					</g>
					<g>
						<polygon class="st4" points="433.3,475 433.3,485.8 427.5,485.8 						"/>
					</g>
				</g>
				<g>
					<g>
						<polygon class="st2" points="441.1,485.1 425.6,485.1 428.5,479.7 433.3,470.6 438.2,479.7 						"/>
					</g>
					<g>
						<polygon class="st3" points="433.3,485.1 433.3,470.6 441.1,485.1 						"/>
					</g>
				</g>
			</g>
		</g>
		<g class="st6">
			<polygon class="st7" points="431.8,510.5 424.6,512.8 434.8,510.5 			"/>
		</g>
	</g>
	<g>
		<g>
			<g>
				<g>
					<rect x="461.9" y="483.5" class="st0" width="6.1" height="25.4"/>
				</g>
				<g>
					<rect x="461.9" y="483.5" class="st1" width="3.1" height="25.4"/>
				</g>
			</g>
			<g>
				<g>
					<g>
						<polygon class="st2" points="440.7,493 465,447.4 489.3,493 						"/>
					</g>
					<g>
						<polygon class="st3" points="465,493 465,447.4 489.3,493 						"/>
					</g>
					<g>
						<polygon class="st2" points="479.7,475.1 465,475.1 465,447.4 						"/>
					</g>
					<g>
						<polygon class="st4" points="465,447.4 465,475.1 450.2,475.1 						"/>
					</g>
				</g>
				<g>
					<g>
						<polygon class="st2" points="445.9,473.6 465,437.9 484,473.6 						"/>
					</g>
					<g>
						<polygon class="st3" points="465,473.6 465,437.9 484,473.6 						"/>
					</g>
					<g>
						<polygon class="st2" points="476.6,459.6 465,459.6 465,437.9 						"/>
					</g>
					<g>
						<polygon class="st4" points="465,437.9 465,459.6 453.4,459.6 						"/>
					</g>
				</g>
				<g>
					<g>
						<polygon class="st2" points="480.4,458 449.5,458 455.3,447.2 465,429 474.7,447.2 						"/>
					</g>
					<g>
						<polygon class="st3" points="465,458 465,429 480.4,458 						"/>
					</g>
				</g>
			</g>
		</g>
		<g class="st6">
			<polygon class="st7" points="461.9,508.9 447.6,513.4 468,508.9 			"/>
		</g>
	</g>
</g>
<g>
	<g>
		<g>
			<g>
				<g>
					<rect x="-224" y="492.4" class="st0" width="4.4" height="18.2"/>
				</g>
				<g>
					<rect x="-224" y="492.4" class="st1" width="2.2" height="18.2"/>
				</g>
			</g>
			<g>
				<g>
					<g>
						<polygon class="st2" points="-239.2,499.1 -221.8,466.5 -204.4,499.1 						"/>
					</g>
					<g>
						<polygon class="st3" points="-221.8,499.1 -221.8,466.5 -204.4,499.1 						"/>
					</g>
					<g>
						<polygon class="st2" points="-211.3,486.3 -221.8,486.3 -221.8,466.5 						"/>
					</g>
					<g>
						<polygon class="st4" points="-221.8,466.5 -221.8,486.3 -232.4,486.3 						"/>
					</g>
				</g>
				<g>
					<g>
						<polygon class="st2" points="-235.4,485.2 -221.8,459.6 -208.2,485.2 						"/>
					</g>
					<g>
						<polygon class="st3" points="-221.8,485.2 -221.8,459.6 -208.2,485.2 						"/>
					</g>
					<g>
						<polygon class="st2" points="-213.5,475.2 -221.8,475.2 -221.8,459.6 						"/>
					</g>
					<g>
						<polygon class="st4" points="-221.8,459.6 -221.8,475.2 -230.1,475.2 						"/>
					</g>
				</g>
				<g>
					<g>
						<polygon class="st2" points="-210.8,474.1 -232.9,474.1 -228.7,466.3 -221.8,453.3 -214.9,466.3 						"/>
					</g>
					<g>
						<polygon class="st3" points="-221.8,474.1 -221.8,453.3 -210.8,474.1 						"/>
					</g>
				</g>
			</g>
		</g>
		<g class="st6">
			<polygon class="st7" points="-224,510.5 -234.2,513.7 -219.6,510.5 			"/>
		</g>
	</g>
	<g>
		<g>
			<g>
				<g>
					<rect x="-189.3" y="480.5" class="st0" width="8.5" height="35.4"/>
				</g>
				<g>
					<rect x="-189.3" y="480.5" class="st1" width="4.3" height="35.4"/>
				</g>
			</g>
			<g>
				<g>
					<g>
						<polygon class="st2" points="-218.9,493.7 -185.1,430.1 -151.2,493.7 						"/>
					</g>
					<g>
						<polygon class="st3" points="-185.1,493.7 -185.1,430.1 -151.2,493.7 						"/>
					</g>
					<g>
						<polygon class="st2" points="-164.5,468.7 -185.1,468.7 -185.1,430.1 						"/>
					</g>
					<g>
						<polygon class="st4" points="-185.1,430.1 -185.1,468.7 -205.6,468.7 						"/>
					</g>
				</g>
				<g>
					<g>
						<polygon class="st2" points="-211.6,466.6 -185.1,416.7 -158.5,466.6 						"/>
					</g>
					<g>
						<polygon class="st3" points="-185.1,466.6 -185.1,416.7 -158.5,466.6 						"/>
					</g>
					<g>
						<polygon class="st2" points="-168.9,447 -185.1,447 -185.1,416.7 						"/>
					</g>
					<g>
						<polygon class="st4" points="-185.1,416.7 -185.1,447 -201.2,447 						"/>
					</g>
				</g>
				<g>
					<g>
						<polygon class="st2" points="-163.5,444.9 -206.6,444.9 -198.6,429.8 -185.1,404.4 -171.5,429.8 						"/>
					</g>
					<g>
						<polygon class="st3" points="-185.1,444.9 -185.1,404.4 -163.5,444.9 						"/>
					</g>
				</g>
			</g>
		</g>
		<g class="st6">
			<polygon class="st7" points="-189.3,515.9 -209.3,522.1 -180.8,515.9 			"/>
		</g>
	</g>
	<g>
		<g>
			<g>
				<g>
					<rect x="-144.5" y="497" class="st0" width="3.1" height="12.7"/>
				</g>
				<g>
					<rect x="-144.5" y="497" class="st1" width="1.5" height="12.7"/>
				</g>
			</g>
			<g>
				<g>
					<g>
						<polygon class="st2" points="-155.1,501.8 -142.9,478.9 -130.8,501.8 						"/>
					</g>
					<g>
						<polygon class="st3" points="-142.9,501.8 -142.9,478.9 -130.8,501.8 						"/>
					</g>
					<g>
						<polygon class="st2" points="-135.5,492.8 -142.9,492.8 -142.9,478.9 						"/>
					</g>
					<g>
						<polygon class="st4" points="-142.9,478.9 -142.9,492.8 -150.3,492.8 						"/>
					</g>
				</g>
				<g>
					<g>
						<polygon class="st2" points="-152.5,492 -142.9,474.1 -133.4,492 						"/>
					</g>
					<g>
						<polygon class="st3" points="-142.9,492 -142.9,474.1 -133.4,492 						"/>
					</g>
					<g>
						<polygon class="st2" points="-137.1,485 -142.9,485 -142.9,474.1 						"/>
					</g>
					<g>
						<polygon class="st4" points="-142.9,474.1 -142.9,485 -148.7,485 						"/>
					</g>
				</g>
				<g>
					<g>
						<polygon class="st2" points="-135.2,484.2 -150.7,484.2 -147.8,478.8 -142.9,469.7 -138.1,478.8 						"/>
					</g>
					<g>
						<polygon class="st3" points="-142.9,484.2 -142.9,469.7 -135.2,484.2 						"/>
					</g>
				</g>
			</g>
		</g>
		<g class="st6">
			<polygon class="st7" points="-144.5,509.7 -151.6,512 -141.4,509.7 			"/>
		</g>
	</g>
	<g>
		<g>
			<g>
				<g>
					<rect x="-114.3" y="482.7" class="st0" width="6.1" height="25.4"/>
				</g>
				<g>
					<rect x="-114.3" y="482.7" class="st1" width="3.1" height="25.4"/>
				</g>
			</g>
			<g>
				<g>
					<g>
						<polygon class="st2" points="-135.6,492.2 -111.3,446.5 -87,492.2 						"/>
					</g>
					<g>
						<polygon class="st3" points="-111.3,492.2 -111.3,446.5 -87,492.2 						"/>
					</g>
					<g>
						<polygon class="st2" points="-96.5,474.2 -111.3,474.2 -111.3,446.5 						"/>
					</g>
					<g>
						<polygon class="st4" points="-111.3,446.5 -111.3,474.2 -126,474.2 						"/>
					</g>
				</g>
				<g>
					<g>
						<polygon class="st2" points="-130.3,472.7 -111.3,436.9 -92.2,472.7 						"/>
					</g>
					<g>
						<polygon class="st3" points="-111.3,472.7 -111.3,436.9 -92.2,472.7 						"/>
					</g>
					<g>
						<polygon class="st2" points="-99.7,458.6 -111.3,458.6 -111.3,436.9 						"/>
					</g>
					<g>
						<polygon class="st4" points="-111.3,436.9 -111.3,458.6 -122.9,458.6 						"/>
					</g>
				</g>
				<g>
					<g>
						<polygon class="st2" points="-95.8,457.1 -126.7,457.1 -121,446.3 -111.3,428 -101.6,446.3 						"/>
					</g>
					<g>
						<polygon class="st3" points="-111.3,457.1 -111.3,428 -95.8,457.1 						"/>
					</g>
				</g>
			</g>
		</g>
		<g class="st6">
			<polygon class="st7" points="-114.3,508.1 -128.7,512.6 -108.2,508.1 			"/>
		</g>
	</g>
	<g>
		<g>
			<g>
				<g>
					<rect x="-408.1" y="492.4" class="st0" width="4.4" height="18.2"/>
				</g>
				<g>
					<rect x="-408.1" y="492.4" class="st1" width="2.2" height="18.2"/>
				</g>
			</g>
			<g>
				<g>
					<g>
						<polygon class="st2" points="-423.3,499.1 -405.9,466.5 -388.6,499.1 						"/>
					</g>
					<g>
						<polygon class="st3" points="-405.9,499.1 -405.9,466.5 -388.6,499.1 						"/>
					</g>
					<g>
						<polygon class="st2" points="-395.4,486.3 -405.9,486.3 -405.9,466.5 						"/>
					</g>
					<g>
						<polygon class="st4" points="-405.9,466.5 -405.9,486.3 -416.5,486.3 						"/>
					</g>
				</g>
				<g>
					<g>
						<polygon class="st2" points="-419.6,485.2 -405.9,459.6 -392.3,485.2 						"/>
					</g>
					<g>
						<polygon class="st3" points="-405.9,485.2 -405.9,459.6 -392.3,485.2 						"/>
					</g>
					<g>
						<polygon class="st2" points="-397.7,475.2 -405.9,475.2 -405.9,459.6 						"/>
					</g>
					<g>
						<polygon class="st4" points="-405.9,459.6 -405.9,475.2 -414.2,475.2 						"/>
					</g>
				</g>
				<g>
					<g>
						<polygon class="st2" points="-394.9,474.1 -417,474.1 -412.9,466.3 -405.9,453.3 -399,466.3 						"/>
					</g>
					<g>
						<polygon class="st3" points="-405.9,474.1 -405.9,453.3 -394.9,474.1 						"/>
					</g>
				</g>
			</g>
		</g>
		<g class="st6">
			<polygon class="st7" points="-408.1,510.5 -418.4,513.7 -403.7,510.5 			"/>
		</g>
	</g>
	<g>
		<g>
			<g>
				<g>
					<rect x="-373.4" y="480.5" class="st0" width="8.5" height="35.4"/>
				</g>
				<g>
					<rect x="-373.4" y="480.5" class="st1" width="4.3" height="35.4"/>
				</g>
			</g>
			<g>
				<g>
					<g>
						<polygon class="st2" points="-403,493.7 -369.2,430.1 -335.3,493.7 						"/>
					</g>
					<g>
						<polygon class="st3" points="-369.2,493.7 -369.2,430.1 -335.3,493.7 						"/>
					</g>
					<g>
						<polygon class="st2" points="-348.6,468.7 -369.2,468.7 -369.2,430.1 						"/>
					</g>
					<g>
						<polygon class="st4" points="-369.2,430.1 -369.2,468.7 -389.7,468.7 						"/>
					</g>
				</g>
				<g>
					<g>
						<polygon class="st2" points="-395.7,466.6 -369.2,416.7 -342.6,466.6 						"/>
					</g>
					<g>
						<polygon class="st3" points="-369.2,466.6 -369.2,416.7 -342.6,466.6 						"/>
					</g>
					<g>
						<polygon class="st2" points="-353.1,447 -369.2,447 -369.2,416.7 						"/>
					</g>
					<g>
						<polygon class="st4" points="-369.2,416.7 -369.2,447 -385.3,447 						"/>
					</g>
				</g>
				<g>
					<g>
						<polygon class="st2" points="-347.6,444.9 -390.7,444.9 -382.7,429.8 -369.2,404.4 -355.7,429.8 						"/>
					</g>
					<g>
						<polygon class="st3" points="-369.2,444.9 -369.2,404.4 -347.6,444.9 						"/>
					</g>
				</g>
			</g>
		</g>
		<g class="st6">
			<polygon class="st7" points="-373.4,515.9 -393.4,522.1 -364.9,515.9 			"/>
		</g>
	</g>
	<g>
		<g>
			<g>
				<g>
					<rect x="-328.6" y="497" class="st0" width="3.1" height="12.7"/>
				</g>
				<g>
					<rect x="-328.6" y="497" class="st1" width="1.5" height="12.7"/>
				</g>
			</g>
			<g>
				<g>
					<g>
						<polygon class="st2" points="-339.2,501.8 -327.1,478.9 -314.9,501.8 						"/>
					</g>
					<g>
						<polygon class="st3" points="-327.1,501.8 -327.1,478.9 -314.9,501.8 						"/>
					</g>
					<g>
						<polygon class="st2" points="-319.7,492.8 -327.1,492.8 -327.1,478.9 						"/>
					</g>
					<g>
						<polygon class="st4" points="-327.1,478.9 -327.1,492.8 -334.4,492.8 						"/>
					</g>
				</g>
				<g>
					<g>
						<polygon class="st2" points="-336.6,492 -327.1,474.1 -317.5,492 						"/>
					</g>
					<g>
						<polygon class="st3" points="-327.1,492 -327.1,474.1 -317.5,492 						"/>
					</g>
					<g>
						<polygon class="st2" points="-321.3,485 -327.1,485 -327.1,474.1 						"/>
					</g>
					<g>
						<polygon class="st4" points="-327.1,474.1 -327.1,485 -332.8,485 						"/>
					</g>
				</g>
				<g>
					<g>
						<polygon class="st2" points="-319.3,484.2 -334.8,484.2 -331.9,478.8 -327.1,469.7 -322.2,478.8 						"/>
					</g>
					<g>
						<polygon class="st3" points="-327.1,484.2 -327.1,469.7 -319.3,484.2 						"/>
					</g>
				</g>
			</g>
		</g>
		<g class="st6">
			<polygon class="st7" points="-328.6,509.7 -335.8,512 -325.5,509.7 			"/>
		</g>
	</g>
	<g>
		<g>
			<g>
				<g>
					<rect x="-298.5" y="482.7" class="st0" width="6.1" height="25.4"/>
				</g>
				<g>
					<rect x="-298.5" y="482.7" class="st1" width="3.1" height="25.4"/>
				</g>
			</g>
			<g>
				<g>
					<g>
						<polygon class="st2" points="-319.7,492.2 -295.4,446.5 -271.1,492.2 						"/>
					</g>
					<g>
						<polygon class="st3" points="-295.4,492.2 -295.4,446.5 -271.1,492.2 						"/>
					</g>
					<g>
						<polygon class="st2" points="-280.6,474.2 -295.4,474.2 -295.4,446.5 						"/>
					</g>
					<g>
						<polygon class="st4" points="-295.4,446.5 -295.4,474.2 -310.2,474.2 						"/>
					</g>
				</g>
				<g>
					<g>
						<polygon class="st2" points="-314.5,472.7 -295.4,436.9 -276.3,472.7 						"/>
					</g>
					<g>
						<polygon class="st3" points="-295.4,472.7 -295.4,436.9 -276.3,472.7 						"/>
					</g>
					<g>
						<polygon class="st2" points="-283.8,458.6 -295.4,458.6 -295.4,436.9 						"/>
					</g>
					<g>
						<polygon class="st4" points="-295.4,436.9 -295.4,458.6 -307,458.6 						"/>
					</g>
				</g>
				<g>
					<g>
						<polygon class="st2" points="-279.9,457.1 -310.9,457.1 -305.1,446.3 -295.4,428 -285.7,446.3 						"/>
					</g>
					<g>
						<polygon class="st3" points="-295.4,457.1 -295.4,428 -279.9,457.1 						"/>
					</g>
				</g>
			</g>
		</g>
		<g class="st6">
			<polygon class="st7" points="-298.5,508.1 -312.8,512.6 -292.3,508.1 			"/>
		</g>
	</g>
</g>
<g>
	<g>
		<g>
			<g>
				<g>
					<rect x="140.3" y="487.8" class="st0" width="3.6" height="14.8"/>
				</g>
				<g>
					<rect x="140.3" y="487.8" class="st1" width="1.8" height="14.8"/>
				</g>
			</g>
			<g>
				<g>
					<g>
						<polygon class="st2" points="127.9,493.4 142.1,466.8 156.2,493.4 						"/>
					</g>
					<g>
						<polygon class="st3" points="142.1,493.4 142.1,466.8 156.2,493.4 						"/>
					</g>
					<g>
						<polygon class="st2" points="150.7,482.9 142.1,482.9 142.1,466.8 						"/>
					</g>
					<g>
						<polygon class="st4" points="142.1,466.8 142.1,482.9 133.5,482.9 						"/>
					</g>
				</g>
				<g>
					<g>
						<polygon class="st2" points="131,482 142.1,461.2 153.2,482 						"/>
					</g>
					<g>
						<polygon class="st3" points="142.1,482 142.1,461.2 153.2,482 						"/>
					</g>
					<g>
						<polygon class="st2" points="148.8,473.8 142.1,473.8 142.1,461.2 						"/>
					</g>
					<g>
						<polygon class="st4" points="142.1,461.2 142.1,473.8 135.4,473.8 						"/>
					</g>
				</g>
				<g>
					<g>
						<polygon class="st2" points="151.1,472.9 133.1,472.9 136.4,466.6 142.1,456 147.7,466.6 						"/>
					</g>
					<g>
						<polygon class="st3" points="142.1,472.9 142.1,456 151.1,472.9 						"/>
					</g>
				</g>
			</g>
		</g>
		<g class="st6">
			<polygon class="st7" points="140.3,502.6 132,505.2 143.9,502.6 			"/>
		</g>
	</g>
	<g>
		<g>
			<g>
				<g>
					<rect x="168.5" y="478.1" class="st0" width="6.9" height="28.8"/>
				</g>
				<g>
					<rect x="168.5" y="478.1" class="st1" width="3.5" height="28.8"/>
				</g>
			</g>
			<g>
				<g>
					<g>
						<polygon class="st2" points="144.5,488.9 172,437.1 199.5,488.9 						"/>
					</g>
					<g>
						<polygon class="st3" points="172,488.9 172,437.1 199.5,488.9 						"/>
					</g>
					<g>
						<polygon class="st2" points="188.7,468.6 172,468.6 172,437.1 						"/>
					</g>
					<g>
						<polygon class="st4" points="172,437.1 172,468.6 155.3,468.6 						"/>
					</g>
				</g>
				<g>
					<g>
						<polygon class="st2" points="150.4,466.9 172,426.2 193.6,466.9 						"/>
					</g>
					<g>
						<polygon class="st3" points="172,466.9 172,426.2 193.6,466.9 						"/>
					</g>
					<g>
						<polygon class="st2" points="185.1,450.9 172,450.9 172,426.2 						"/>
					</g>
					<g>
						<polygon class="st4" points="172,426.2 172,450.9 158.9,450.9 						"/>
					</g>
				</g>
				<g>
					<g>
						<polygon class="st2" points="189.5,449.2 154.5,449.2 161,436.9 172,416.2 183,436.9 						"/>
					</g>
					<g>
						<polygon class="st3" points="172,449.2 172,416.2 189.5,449.2 						"/>
					</g>
				</g>
			</g>
		</g>
		<g class="st6">
			<polygon class="st7" points="168.5,507 152.3,512.1 175.5,507 			"/>
		</g>
	</g>
	<g>
		<g>
			<g>
				<g>
					<rect x="205.1" y="491.6" class="st0" width="2.5" height="10.4"/>
				</g>
				<g>
					<rect x="205.1" y="491.6" class="st1" width="1.2" height="10.4"/>
				</g>
			</g>
			<g>
				<g>
					<g>
						<polygon class="st2" points="196.4,495.5 206.3,476.9 216.2,495.5 						"/>
					</g>
					<g>
						<polygon class="st3" points="206.3,495.5 206.3,476.9 216.2,495.5 						"/>
					</g>
					<g>
						<polygon class="st2" points="212.3,488.2 206.3,488.2 206.3,476.9 						"/>
					</g>
					<g>
						<polygon class="st4" points="206.3,476.9 206.3,488.2 200.3,488.2 						"/>
					</g>
				</g>
				<g>
					<g>
						<polygon class="st2" points="198.5,487.6 206.3,473 214.1,487.6 						"/>
					</g>
					<g>
						<polygon class="st3" points="206.3,487.6 206.3,473 214.1,487.6 						"/>
					</g>
					<g>
						<polygon class="st2" points="211,481.8 206.3,481.8 206.3,473 						"/>
					</g>
					<g>
						<polygon class="st4" points="206.3,473 206.3,481.8 201.6,481.8 						"/>
					</g>
				</g>
				<g>
					<g>
						<polygon class="st2" points="212.6,481.2 200,481.2 202.4,476.8 206.3,469.4 210.3,476.8 						"/>
					</g>
					<g>
						<polygon class="st3" points="206.3,481.2 206.3,469.4 212.6,481.2 						"/>
					</g>
				</g>
			</g>
		</g>
		<g class="st6">
			<polygon class="st7" points="205.1,502 199.2,503.8 207.5,502 			"/>
		</g>
	</g>
	<g>
		<g>
			<g>
				<g>
					<rect x="229.6" y="480" class="st0" width="5" height="20.7"/>
				</g>
				<g>
					<rect x="229.6" y="480" class="st1" width="2.5" height="20.7"/>
				</g>
			</g>
			<g>
				<g>
					<g>
						<polygon class="st2" points="212.3,487.7 232.1,450.5 251.9,487.7 						"/>
					</g>
					<g>
						<polygon class="st3" points="232.1,487.7 232.1,450.5 251.9,487.7 						"/>
					</g>
					<g>
						<polygon class="st2" points="244.1,473.1 232.1,473.1 232.1,450.5 						"/>
					</g>
					<g>
						<polygon class="st4" points="232.1,450.5 232.1,473.1 220.1,473.1 						"/>
					</g>
				</g>
				<g>
					<g>
						<polygon class="st2" points="216.6,471.8 232.1,442.7 247.6,471.8 						"/>
					</g>
					<g>
						<polygon class="st3" points="232.1,471.8 232.1,442.7 247.6,471.8 						"/>
					</g>
					<g>
						<polygon class="st2" points="241.5,460.4 232.1,460.4 232.1,442.7 						"/>
					</g>
					<g>
						<polygon class="st4" points="232.1,442.7 232.1,460.4 222.6,460.4 						"/>
					</g>
				</g>
				<g>
					<g>
						<polygon class="st2" points="244.7,459.1 219.5,459.1 224.2,450.3 232.1,435.4 240,450.3 						"/>
					</g>
					<g>
						<polygon class="st3" points="232.1,459.1 232.1,435.4 244.7,459.1 						"/>
					</g>
				</g>
			</g>
		</g>
		<g class="st6">
			<polygon class="st7" points="229.6,500.7 217.9,504.3 234.6,500.7 			"/>
		</g>
	</g>
	<g>
		<g>
			<g>
				<g>
					<rect x="-9.6" y="487.8" class="st0" width="3.6" height="14.8"/>
				</g>
				<g>
					<rect x="-9.6" y="487.8" class="st1" width="1.8" height="14.8"/>
				</g>
			</g>
			<g>
				<g>
					<g>
						<polygon class="st2" points="-21.9,493.4 -7.8,466.8 6.3,493.4 						"/>
					</g>
					<g>
						<polygon class="st3" points="-7.8,493.4 -7.8,466.8 6.3,493.4 						"/>
					</g>
					<g>
						<polygon class="st2" points="0.8,482.9 -7.8,482.9 -7.8,466.8 						"/>
					</g>
					<g>
						<polygon class="st4" points="-7.8,466.8 -7.8,482.9 -16.4,482.9 						"/>
					</g>
				</g>
				<g>
					<g>
						<polygon class="st2" points="-18.9,482 -7.8,461.2 3.3,482 						"/>
					</g>
					<g>
						<polygon class="st3" points="-7.8,482 -7.8,461.2 3.3,482 						"/>
					</g>
					<g>
						<polygon class="st2" points="-1.1,473.8 -7.8,473.8 -7.8,461.2 						"/>
					</g>
					<g>
						<polygon class="st4" points="-7.8,461.2 -7.8,473.8 -14.5,473.8 						"/>
					</g>
				</g>
				<g>
					<g>
						<polygon class="st2" points="1.2,472.9 -16.8,472.9 -13.4,466.6 -7.8,456 -2.2,466.6 						"/>
					</g>
					<g>
						<polygon class="st3" points="-7.8,472.9 -7.8,456 1.2,472.9 						"/>
					</g>
				</g>
			</g>
		</g>
		<g class="st6">
			<polygon class="st7" points="-9.6,502.6 -17.9,505.2 -6,502.6 			"/>
		</g>
	</g>
	<g>
		<g>
			<g>
				<g>
					<rect x="18.7" y="478.1" class="st0" width="6.9" height="28.8"/>
				</g>
				<g>
					<rect x="18.7" y="478.1" class="st1" width="3.5" height="28.8"/>
				</g>
			</g>
			<g>
				<g>
					<g>
						<polygon class="st2" points="-5.4,488.9 22.1,437.1 49.7,488.9 						"/>
					</g>
					<g>
						<polygon class="st3" points="22.1,488.9 22.1,437.1 49.7,488.9 						"/>
					</g>
					<g>
						<polygon class="st2" points="38.9,468.6 22.1,468.6 22.1,437.1 						"/>
					</g>
					<g>
						<polygon class="st4" points="22.1,437.1 22.1,468.6 5.4,468.6 						"/>
					</g>
				</g>
				<g>
					<g>
						<polygon class="st2" points="0.5,466.9 22.1,426.2 43.7,466.9 						"/>
					</g>
					<g>
						<polygon class="st3" points="22.1,466.9 22.1,426.2 43.7,466.9 						"/>
					</g>
					<g>
						<polygon class="st2" points="35.2,450.9 22.1,450.9 22.1,426.2 						"/>
					</g>
					<g>
						<polygon class="st4" points="22.1,426.2 22.1,450.9 9,450.9 						"/>
					</g>
				</g>
				<g>
					<g>
						<polygon class="st2" points="39.6,449.2 4.6,449.2 11.1,436.9 22.1,416.2 33.1,436.9 						"/>
					</g>
					<g>
						<polygon class="st3" points="22.1,449.2 22.1,416.2 39.6,449.2 						"/>
					</g>
				</g>
			</g>
		</g>
		<g class="st6">
			<polygon class="st7" points="18.7,507 2.4,512.1 25.6,507 			"/>
		</g>
	</g>
	<g>
		<g>
			<g>
				<g>
					<rect x="55.2" y="491.6" class="st0" width="2.5" height="10.4"/>
				</g>
				<g>
					<rect x="55.2" y="491.6" class="st1" width="1.2" height="10.4"/>
				</g>
			</g>
			<g>
				<g>
					<g>
						<polygon class="st2" points="46.5,495.5 56.4,476.9 66.3,495.5 						"/>
					</g>
					<g>
						<polygon class="st3" points="56.4,495.5 56.4,476.9 66.3,495.5 						"/>
					</g>
					<g>
						<polygon class="st2" points="62.4,488.2 56.4,488.2 56.4,476.9 						"/>
					</g>
					<g>
						<polygon class="st4" points="56.4,476.9 56.4,488.2 50.4,488.2 						"/>
					</g>
				</g>
				<g>
					<g>
						<polygon class="st2" points="48.7,487.6 56.4,473 64.2,487.6 						"/>
					</g>
					<g>
						<polygon class="st3" points="56.4,487.6 56.4,473 64.2,487.6 						"/>
					</g>
					<g>
						<polygon class="st2" points="61.1,481.8 56.4,481.8 56.4,473 						"/>
					</g>
					<g>
						<polygon class="st4" points="56.4,473 56.4,481.8 51.7,481.8 						"/>
					</g>
				</g>
				<g>
					<g>
						<polygon class="st2" points="62.7,481.2 50.1,481.2 52.5,476.8 56.4,469.4 60.4,476.8 						"/>
					</g>
					<g>
						<polygon class="st3" points="56.4,481.2 56.4,469.4 62.7,481.2 						"/>
					</g>
				</g>
			</g>
		</g>
		<g class="st6">
			<polygon class="st7" points="55.2,502 49.3,503.8 57.7,502 			"/>
		</g>
	</g>
	<g>
		<g>
			<g>
				<g>
					<rect x="79.7" y="480" class="st0" width="5" height="20.7"/>
				</g>
				<g>
					<rect x="79.7" y="480" class="st1" width="2.5" height="20.7"/>
				</g>
			</g>
			<g>
				<g>
					<g>
						<polygon class="st2" points="62.4,487.7 82.2,450.5 102,487.7 						"/>
					</g>
					<g>
						<polygon class="st3" points="82.2,487.7 82.2,450.5 102,487.7 						"/>
					</g>
					<g>
						<polygon class="st2" points="94.2,473.1 82.2,473.1 82.2,450.5 						"/>
					</g>
					<g>
						<polygon class="st4" points="82.2,450.5 82.2,473.1 70.2,473.1 						"/>
					</g>
				</g>
				<g>
					<g>
						<polygon class="st2" points="66.7,471.8 82.2,442.7 97.7,471.8 						"/>
					</g>
					<g>
						<polygon class="st3" points="82.2,471.8 82.2,442.7 97.7,471.8 						"/>
					</g>
					<g>
						<polygon class="st2" points="91.6,460.4 82.2,460.4 82.2,442.7 						"/>
					</g>
					<g>
						<polygon class="st4" points="82.2,442.7 82.2,460.4 72.8,460.4 						"/>
					</g>
				</g>
				<g>
					<g>
						<polygon class="st2" points="94.8,459.1 69.6,459.1 74.3,450.3 82.2,435.4 90.1,450.3 						"/>
					</g>
					<g>
						<polygon class="st3" points="82.2,459.1 82.2,435.4 94.8,459.1 						"/>
					</g>
				</g>
			</g>
		</g>
		<g class="st6">
			<polygon class="st7" points="79.7,500.7 68,504.3 84.7,500.7 			"/>
		</g>
	</g>
</g>
<g>
	<g>
		<g>
			<g>
				<rect x="-385.3" y="574.9" class="st0" width="10.9" height="45.3"/>
			</g>
			<g>
				<rect x="-385.3" y="574.9" class="st1" width="5.4" height="45.3"/>
			</g>
		</g>
		<g>
			<g>
				<g>
					<polygon class="st2" points="-423.2,591.8 -379.9,510.5 -336.6,591.8 					"/>
				</g>
				<g>
					<polygon class="st3" points="-379.9,591.8 -379.9,510.5 -336.6,591.8 					"/>
				</g>
				<g>
					<polygon class="st2" points="-353.6,559.9 -379.9,559.9 -379.9,510.5 					"/>
				</g>
				<g>
					<polygon class="st4" points="-379.9,510.5 -379.9,559.9 -406.2,559.9 					"/>
				</g>
			</g>
			<g>
				<g>
					<polygon class="st2" points="-413.8,557.2 -379.9,493.4 -346,557.2 					"/>
				</g>
				<g>
					<polygon class="st3" points="-379.9,557.2 -379.9,493.4 -346,557.2 					"/>
				</g>
				<g>
					<polygon class="st2" points="-359.3,532.1 -379.9,532.1 -379.9,493.4 					"/>
				</g>
				<g>
					<polygon class="st4" points="-379.9,493.4 -379.9,532.1 -400.5,532.1 					"/>
				</g>
			</g>
			<g>
				<g>
					<polygon class="st2" points="-352.4,529.4 -407.4,529.4 -397.2,510.1 -379.9,477.6 -362.6,510.1 					"/>
				</g>
				<g>
					<polygon class="st3" points="-379.9,529.4 -379.9,477.6 -352.4,529.4 					"/>
				</g>
			</g>
		</g>
	</g>
	<g class="st6">
		<polygon class="st7" points="-385.3,620.2 -410.9,628.2 -374.5,620.2 		"/>
	</g>
</g>
<g>
	<g>
		<g>
			<g>
				<rect x="352.7" y="600.6" class="st0" width="10.1" height="42"/>
			</g>
			<g>
				<rect x="352.7" y="600.6" class="st1" width="5.1" height="42"/>
			</g>
		</g>
		<g>
			<g>
				<g>
					<polygon class="st2" points="317.6,616.2 357.7,540.8 397.8,616.2 					"/>
				</g>
				<g>
					<polygon class="st3" points="357.7,616.2 357.7,540.8 397.8,616.2 					"/>
				</g>
				<g>
					<polygon class="st2" points="382.1,586.6 357.7,586.6 357.7,540.8 					"/>
				</g>
				<g>
					<polygon class="st4" points="357.7,540.8 357.7,586.6 333.3,586.6 					"/>
				</g>
			</g>
			<g>
				<g>
					<polygon class="st2" points="326.2,584.1 357.7,524.9 389.2,584.1 					"/>
				</g>
				<g>
					<polygon class="st3" points="357.7,584.1 357.7,524.9 389.2,584.1 					"/>
				</g>
				<g>
					<polygon class="st2" points="376.8,560.9 357.7,560.9 357.7,524.9 					"/>
				</g>
				<g>
					<polygon class="st4" points="357.7,524.9 357.7,560.9 338.6,560.9 					"/>
				</g>
			</g>
			<g>
				<g>
					<polygon class="st2" points="383.2,558.3 332.2,558.3 341.7,540.4 357.7,510.3 373.7,540.4 					"/>
				</g>
				<g>
					<polygon class="st3" points="357.7,558.3 357.7,510.3 383.2,558.3 					"/>
				</g>
			</g>
		</g>
	</g>
	<g class="st6">
		<polygon class="st7" points="352.7,642.6 329,650 362.8,642.6 		"/>
	</g>
</g>
<g>
	<g>
		<g>
			<g>
				<rect x="-254.4" y="541.7" class="st0" width="18.8" height="78.3"/>
			</g>
			<g>
				<rect x="-254.4" y="541.7" class="st1" width="9.4" height="78.3"/>
			</g>
		</g>
		<g>
			<g>
				<g>
					<polygon class="st2" points="-319.7,571 -245,430.4 -170.2,571 					"/>
				</g>
				<g>
					<polygon class="st3" points="-245,571 -245,430.4 -170.2,571 					"/>
				</g>
				<g>
					<polygon class="st2" points="-199.6,515.8 -245,515.8 -245,430.4 					"/>
				</g>
				<g>
					<polygon class="st4" points="-245,430.4 -245,515.8 -290.4,515.8 					"/>
				</g>
			</g>
			<g>
				<g>
					<polygon class="st2" points="-303.6,511.1 -245,400.9 -186.4,511.1 					"/>
				</g>
				<g>
					<polygon class="st3" points="-245,511.1 -245,400.9 -186.4,511.1 					"/>
				</g>
				<g>
					<polygon class="st2" points="-209.4,467.8 -245,467.8 -245,400.9 					"/>
				</g>
				<g>
					<polygon class="st4" points="-245,400.9 -245,467.8 -280.6,467.8 					"/>
				</g>
			</g>
			<g>
				<g>
					<polygon class="st2" points="-197.4,463.1 -292.5,463.1 -274.8,429.7 -245,373.6 -215.1,429.7 					"/>
				</g>
				<g>
					<polygon class="st3" points="-245,463.1 -245,373.6 -197.4,463.1 					"/>
				</g>
			</g>
		</g>
	</g>
	<g class="st6">
		<polygon class="st7" points="-254.4,620 -298.5,633.8 -235.6,620 		"/>
	</g>
</g>
<g>
	<g>
		<g>
			<g>
				<rect x="432.8" y="573.7" class="st0" width="19.7" height="81.6"/>
			</g>
			<g>
				<rect x="432.8" y="573.7" class="st1" width="9.8" height="81.6"/>
			</g>
		</g>
		<g>
			<g>
				<g>
					<polygon class="st2" points="364.5,604.2 442.6,457.6 520.8,604.2 					"/>
				</g>
				<g>
					<polygon class="st3" points="442.6,604.2 442.6,457.6 520.8,604.2 					"/>
				</g>
				<g>
					<polygon class="st2" points="490.1,546.6 442.6,546.6 442.6,457.6 					"/>
				</g>
				<g>
					<polygon class="st4" points="442.6,457.6 442.6,546.6 395.2,546.6 					"/>
				</g>
			</g>
			<g>
				<g>
					<polygon class="st2" points="381.3,541.7 442.6,426.8 503.9,541.7 					"/>
				</g>
				<g>
					<polygon class="st3" points="442.6,541.7 442.6,426.8 503.9,541.7 					"/>
				</g>
				<g>
					<polygon class="st2" points="479.9,496.6 442.6,496.6 442.6,426.8 					"/>
				</g>
				<g>
					<polygon class="st4" points="442.6,426.8 442.6,496.6 405.4,496.6 					"/>
				</g>
			</g>
			<g>
				<g>
					<polygon class="st2" points="492.4,491.7 392.9,491.7 411.4,456.9 442.6,398.4 473.8,456.9 					"/>
				</g>
				<g>
					<polygon class="st3" points="442.6,491.7 442.6,398.4 492.4,491.7 					"/>
				</g>
			</g>
		</g>
	</g>
	<g class="st6">
		<polygon class="st7" points="432.8,655.3 386.7,669.7 452.5,655.3 		"/>
	</g>
</g>
<g>
	<g>
		<g>
			<g>
				<rect x="82.3" y="565.2" class="st0" width="13.5" height="56.2"/>
			</g>
			<g>
				<rect x="82.3" y="565.2" class="st1" width="6.8" height="56.2"/>
			</g>
		</g>
		<g>
			<g>
				<g>
					<polygon class="st2" points="35.4,586.1 89.1,485.2 142.8,586.1 					"/>
				</g>
				<g>
					<polygon class="st3" points="89.1,586.1 89.1,485.2 142.8,586.1 					"/>
				</g>
				<g>
					<polygon class="st2" points="121.7,546.5 89.1,546.5 89.1,485.2 					"/>
				</g>
				<g>
					<polygon class="st4" points="89.1,485.2 89.1,546.5 56.5,546.5 					"/>
				</g>
			</g>
			<g>
				<g>
					<polygon class="st2" points="47,543.1 89.1,463.9 131.2,543.1 					"/>
				</g>
				<g>
					<polygon class="st3" points="89.1,543.1 89.1,463.9 131.2,543.1 					"/>
				</g>
				<g>
					<polygon class="st2" points="114.7,512.1 89.1,512.1 89.1,463.9 					"/>
				</g>
				<g>
					<polygon class="st4" points="89.1,463.9 89.1,512.1 63.5,512.1 					"/>
				</g>
			</g>
			<g>
				<g>
					<polygon class="st2" points="123.3,508.6 54.9,508.6 67.6,484.7 89.1,444.4 110.5,484.7 					"/>
				</g>
				<g>
					<polygon class="st3" points="89.1,508.6 89.1,444.4 123.3,508.6 					"/>
				</g>
			</g>
		</g>
	</g>
	<g class="st6">
		<polygon class="st7" points="82.3,621.4 50.6,631.3 95.8,621.4 		"/>
	</g>
</g>
<g>
	<g>
		<g>
			<g>
				<rect x="536.4" y="611.8" class="st0" width="7.1" height="29.3"/>
			</g>
			<g>
				<rect x="536.4" y="611.8" class="st1" width="3.5" height="29.3"/>
			</g>
		</g>
		<g>
			<g>
				<g>
					<polygon class="st2" points="511.9,622.8 539.9,570.1 568,622.8 					"/>
				</g>
				<g>
					<polygon class="st3" points="539.9,622.8 539.9,570.1 568,622.8 					"/>
				</g>
				<g>
					<polygon class="st2" points="557,602.1 539.9,602.1 539.9,570.1 					"/>
				</g>
				<g>
					<polygon class="st4" points="539.9,570.1 539.9,602.1 522.9,602.1 					"/>
				</g>
			</g>
			<g>
				<g>
					<polygon class="st2" points="517.9,600.3 539.9,559.1 562,600.3 					"/>
				</g>
				<g>
					<polygon class="st3" points="539.9,600.3 539.9,559.1 562,600.3 					"/>
				</g>
				<g>
					<polygon class="st2" points="553.3,584.1 539.9,584.1 539.9,559.1 					"/>
				</g>
				<g>
					<polygon class="st4" points="539.9,559.1 539.9,584.1 526.6,584.1 					"/>
				</g>
			</g>
			<g>
				<g>
					<polygon class="st2" points="557.8,582.4 522.1,582.4 528.7,569.9 539.9,548.8 551.2,569.9 					"/>
				</g>
				<g>
					<polygon class="st3" points="539.9,582.4 539.9,548.8 557.8,582.4 					"/>
				</g>
			</g>
		</g>
	</g>
	<g class="st6">
		<polygon class="st7" points="536.4,641.1 519.8,646.3 543.5,641.1 		"/>
	</g>
</g>
<g>
	<g>
		<g>
			<g>
				<rect x="-147.4" y="552.4" class="st0" width="9" height="37.3"/>
			</g>
			<g>
				<rect x="-147.4" y="552.4" class="st1" width="4.5" height="37.3"/>
			</g>
		</g>
		<g>
			<g>
				<g>
					<polygon class="st2" points="-178.5,566.3 -142.9,499.4 -107.3,566.3 					"/>
				</g>
				<g>
					<polygon class="st3" points="-142.9,566.3 -142.9,499.4 -107.3,566.3 					"/>
				</g>
				<g>
					<polygon class="st2" points="-121.3,540.1 -142.9,540.1 -142.9,499.4 					"/>
				</g>
				<g>
					<polygon class="st4" points="-142.9,499.4 -142.9,540.1 -164.6,540.1 					"/>
				</g>
			</g>
			<g>
				<g>
					<polygon class="st2" points="-170.9,537.8 -142.9,485.3 -115,537.8 					"/>
				</g>
				<g>
					<polygon class="st3" points="-142.9,537.8 -142.9,485.3 -115,537.8 					"/>
				</g>
				<g>
					<polygon class="st2" points="-126,517.2 -142.9,517.2 -142.9,485.3 					"/>
				</g>
				<g>
					<polygon class="st4" points="-142.9,485.3 -142.9,517.2 -159.9,517.2 					"/>
				</g>
			</g>
			<g>
				<g>
					<polygon class="st2" points="-120.3,515 -165.6,515 -157.1,499.1 -142.9,472.3 -128.7,499.1 					"/>
				</g>
				<g>
					<polygon class="st3" points="-142.9,515 -142.9,472.3 -120.3,515 					"/>
				</g>
			</g>
		</g>
	</g>
	<g class="st6">
		<polygon class="st7" points="-147.4,589.7 -168.4,596.3 -138.4,589.7 		"/>
	</g>
</g>
<g>
	<g>
		<g>
			<g>
				<rect x="606" y="578.8" class="st0" width="14.1" height="58.6"/>
			</g>
			<g>
				<rect x="606" y="578.8" class="st1" width="7.1" height="58.6"/>
			</g>
		</g>
		<g>
			<g>
				<g>
					<polygon class="st2" points="556.9,600.7 613.1,495.4 669.2,600.7 					"/>
				</g>
				<g>
					<polygon class="st3" points="613.1,600.7 613.1,495.4 669.2,600.7 					"/>
				</g>
				<g>
					<polygon class="st2" points="647.2,559.4 613.1,559.4 613.1,495.4 					"/>
				</g>
				<g>
					<polygon class="st4" points="613.1,495.4 613.1,559.4 579,559.4 					"/>
				</g>
			</g>
			<g>
				<g>
					<polygon class="st2" points="569.1,555.9 613.1,473.3 657.1,555.9 					"/>
				</g>
				<g>
					<polygon class="st3" points="613.1,555.9 613.1,473.3 657.1,555.9 					"/>
				</g>
				<g>
					<polygon class="st2" points="639.8,523.4 613.1,523.4 613.1,473.3 					"/>
				</g>
				<g>
					<polygon class="st4" points="613.1,473.3 613.1,523.4 586.3,523.4 					"/>
				</g>
			</g>
			<g>
				<g>
					<polygon class="st2" points="648.8,519.9 577.3,519.9 590.7,494.9 613.1,452.9 635.5,494.9 					"/>
				</g>
				<g>
					<polygon class="st3" points="613.1,519.9 613.1,452.9 648.8,519.9 					"/>
				</g>
			</g>
		</g>
	</g>
	<g class="st6">
		<polygon class="st7" points="606,637.4 572.9,647.8 620.2,637.4 		"/>
	</g>
</g>
<g>
	<path class="st8" d="M560.5,192.3c-2.1,0-4.2,0.3-6.1,1c-5.5-9.6-15.8-16-27.6-16c-3.6,0-7.1,0.6-10.4,1.7
		c-5.6-11.5-16.2-20.2-29-23.2c0,0,0,0,0,0c0.6-2.6,1-5.3,1-8.1c0-19.3-15.7-34.9-35-34.9c-12.4,0-23.3,6.4-29.5,16.1
		c-3.8-1.8-8-2.8-12.4-2.8c-13.5,0-24.9,9.4-27.9,22c0,0,0,0,0,0c-17.1,2.3-30.2,16.9-30.2,34.6c0,0.3,0,0.5,0,0.8
		c-5.7,5.7-9.2,13.6-9.2,22.2H362h26.3h19.2h7.1h20.6h23.1h36.8h24.8h22h16.5H579C576.4,197.9,569.1,192.3,560.5,192.3z"/>
</g>
<g>
	<path class="st8" d="M-81.4,313.1c-1.4,0-2.7,0.2-3.9,0.6c-3.5-6.1-10.1-10.3-17.7-10.3c-2.3,0-4.6,0.4-6.6,1.1
		c-3.6-7.4-10.4-12.9-18.5-14.8c0,0,0,0,0,0c0.4-1.7,0.6-3.4,0.6-5.2c0-12.4-10-22.4-22.4-22.4c-7.9,0-14.9,4.1-18.8,10.3
		c-2.4-1.2-5.1-1.8-7.9-1.8c-8.7,0-15.9,6-17.8,14.1c0,0,0,0,0,0c-10.9,1.5-19.3,10.8-19.3,22.2c0,0.2,0,0.3,0,0.5
		c-3.6,3.7-5.9,8.7-5.9,14.2h11.4h16.8h12.3h4.6h13.1h14.8h23.5h15.8h14h10.5h13.2C-71.2,316.7-75.9,313.1-81.4,313.1z"/>
</g>
<g>
	<path class="st8" d="M-111.2,108.3c-4.6-4.6-10.3-8.2-16.7-10.1c-4.9-12.3-16.1-21.4-29.6-23.2c-1.7-0.2-3.4-0.4-5.1-0.4
		c-8.8,0-16.9,3.1-23.3,8.2c-1.6-9.2-9.6-16.1-19.3-16.1c-0.1,0-0.1,0-0.2,0c-1.9-16.2-15.6-28.8-32.4-28.8
		c-7.7,0-14.8,2.7-20.3,7.1c-7.8-12.7-21.8-21.1-37.8-21.1c-24.5,0-44.4,19.9-44.4,44.4c0,5.7,1.1,11.2,3.1,16.2
		c-3.4,3.5-5.5,8.4-5.5,13.7c0,1.3,0.1,2.7,0.4,3.9c-10.1,3-18.6,9.8-23.7,18.8c-2.4-0.8-5-1.2-7.7-1.2c-10.9,0-20.2,7.1-23.6,16.9
		h26.2h20.9h27.8h31.4h46.6h29.3h24.3h10.8h24.3h21h34.9C-99.6,125.5-104,115.5-111.2,108.3z"/>
</g>
<g>
	<path class="st8" d="M616.1,316.5c-1.9,0-3.7,0.3-5.4,0.8c-3.6-6.3-9.6-11.1-16.7-13.2c0.2-0.9,0.3-1.8,0.3-2.8
		c0-3.7-1.5-7.1-3.9-9.6c1.4-3.5,2.2-7.4,2.2-11.4c0-17.2-14-31.2-31.3-31.2c-8,0-15.3,3-20.8,7.9c-3.1-1.6-6.7-2.5-10.4-2.5
		c-11.7,0-21.3,8.7-22.8,20c-1.2-0.2-2.4-0.3-3.6-0.3c-9.9,0-18.3,6.2-21.5,15c-4.2-2.8-9.3-4.5-14.7-4.5c-1.2,0-2.4,0.1-3.6,0.2
		c-9.5,1.3-17.4,7.7-20.8,16.3c-4.5,1.4-8.5,3.9-11.8,7.1c-5.1,5.1-8.2,12.1-8.2,19.8h24.6h14.8h17.1h7.6h17.1H525h32.8h22.1h19.6
		h14.7h18.5C630.4,321.5,623.8,316.5,616.1,316.5z"/>
</g>
<g>
	<g>
		<g>
			<g>
				<g>
					<g>
						<path class="st8" d="M-294.7,114.4l4.6,4.1c0.6,0.5,0.6,1.4,0.1,1.9c-0.5,0.6-1.4,0.6-1.9,0.1l-2.8-2.5l-2.8,2.5
							c-0.6,0.5-1.4,0.5-1.9-0.1c-0.5-0.6-0.5-1.4,0.1-1.9L-294.7,114.4z"/>
					</g>
				</g>
			</g>
		</g>
		<g>
			<path class="st8" d="M-288,330.2c0,4.4-3.6,8-8.1,8c-4.5,0-8.1-3.6-8.1-8c0-4.4,3.6-8,8.1-8C-291.6,322.2-288,325.8-288,330.2z"
				/>
		</g>
		<g>
			<path class="st8" d="M-119,172.3c0,4.4-3.6,8-8.1,8c-4.5,0-8.1-3.6-8.1-8c0-4.4,3.6-8,8.1-8C-122.6,164.2-119,167.8-119,172.3z"
				/>
		</g>
		<g>
			<path class="st8" d="M356.1,247.7c0,4.4-3.6,8-8.1,8c-4.5,0-8.1-3.6-8.1-8s3.6-8,8.1-8C352.5,239.6,356.1,243.2,356.1,247.7z"/>
		</g>
		<g>
			<g>
				<path class="st8" d="M233.5,340.5c-6.4,0-6.4,9.9,0,9.9C239.9,350.4,239.9,340.5,233.5,340.5L233.5,340.5z"/>
			</g>
		</g>
		<g>
			<g>
				<path class="st8" d="M87.7,136.9c-6.4,0-6.4,9.9,0,9.9C94.1,146.8,94.1,136.9,87.7,136.9L87.7,136.9z"/>
			</g>
		</g>
		<g>
			<g>
				<path class="st8" d="M0.2,292.9c-6.4,0-6.4,9.9,0,9.9C6.6,302.8,6.6,292.9,0.2,292.9L0.2,292.9z"/>
			</g>
		</g>
		<g>
			<g>
				<path class="st8" d="M-234.4,121c-6.4,0-6.4,9.9,0,9.9C-228,130.9-228,121-234.4,121L-234.4,121z"/>
			</g>
		</g>
		<g>
			<g>
				<path class="st8" d="M-241,425.1c-6.4,0-6.4,9.9,0,9.9C-234.6,435-234.6,425.1-241,425.1L-241,425.1z"/>
			</g>
		</g>
		<g>
			<g>
				<path class="st8" d="M58.5,400c-6.4,0-6.4,9.9,0,9.9C64.9,409.9,65,400,58.5,400L58.5,400z"/>
			</g>
		</g>
		<g>
			<g>
				<path class="st8" d="M317,216.2c-6.4,0-6.4,9.9,0,9.9C323.4,226.1,323.4,216.2,317,216.2L317,216.2z"/>
			</g>
		</g>
		<g>
			<g>
				<path class="st8" d="M-412,286.3c-6.4,0-6.4,9.9,0,9.9C-405.6,296.2-405.6,286.3-412,286.3L-412,286.3z"/>
			</g>
		</g>
		<g>
			<g>
				<path class="st8" d="M-209.2,292.8c-4.8,0-4.8,7.4,0,7.4C-204.4,300.2-204.4,292.8-209.2,292.8L-209.2,292.8z"/>
			</g>
		</g>
		<g>
			<g>
				<path class="st8" d="M-32.9,161.9c-4.8,0-4.8,7.4,0,7.4C-28.1,169.4-28.1,161.9-32.9,161.9L-32.9,161.9z"/>
			</g>
		</g>
		<g>
			<g>
				<path class="st8" d="M-1.1,187c-4.8,0-4.8,7.4,0,7.4C3.7,194.5,3.7,187-1.1,187L-1.1,187z"/>
			</g>
		</g>
		<g>
			<g>
				<path class="st8" d="M-238.4,220.1c-4.8,0-4.8,7.4,0,7.4C-233.6,227.5-233.6,220.1-238.4,220.1L-238.4,220.1z"/>
			</g>
		</g>
		<g>
			<g>
				<path class="st8" d="M9.5,345.7c-4.8,0-4.8,7.4,0,7.4C14.3,353.1,14.3,345.7,9.5,345.7L9.5,345.7z"/>
			</g>
		</g>
		<g>
			<g>
				<path class="st8" d="M290.5,288.8c-4.8,0-4.8,7.4,0,7.4C295.3,296.3,295.3,288.8,290.5,288.8L290.5,288.8z"/>
			</g>
		</g>
		<g>
			<g>
				<path class="st8" d="M283.9,397.2c-4.8,0-4.8,7.4,0,7.4C288.7,404.7,288.7,397.2,283.9,397.2L283.9,397.2z"/>
			</g>
		</g>
		<g>
			<g>
				<path class="st8" d="M98.3,292.8c-4.8,0-4.8,7.4,0,7.4C103.1,300.2,103.1,292.8,98.3,292.8L98.3,292.8z"/>
			</g>
		</g>
		<g>
			<g>
				<path class="st8" d="M-340.5,374.8c-4.8,0-4.8,7.4,0,7.4C-335.7,382.2-335.7,374.8-340.5,374.8L-340.5,374.8z"/>
			</g>
		</g>
		<g>
			<g>
				<path class="st8" d="M-116.4,456.7c-4.8,0-4.8,7.4,0,7.4C-111.6,464.2-111.6,456.7-116.4,456.7L-116.4,456.7z"/>
			</g>
		</g>
		<g>
			<g>
				<path class="st8" d="M-88.6,79.9c-3.2,0-3.2,5,0,5C-85.4,84.8-85.4,79.9-88.6,79.9L-88.6,79.9z"/>
			</g>
		</g>
		<g>
			<g>
				<path class="st8" d="M187.1,180.3c-3.2,0-3.2,5,0,5C190.3,185.3,190.3,180.3,187.1,180.3L187.1,180.3z"/>
			</g>
		</g>
		<g>
			<g>
				<path class="st8" d="M189.8,282.1c-3.2,0-3.2,5,0,5C193,287.1,193,282.1,189.8,282.1L189.8,282.1z"/>
			</g>
		</g>
		<g>
			<g>
				<path class="st8" d="M356.8,171.1c-3.2,0-3.2,5,0,5C360,176,360,171.1,356.8,171.1L356.8,171.1z"/>
			</g>
		</g>
		<g>
			<g>
				<path class="st8" d="M392.6,127.5c-3.2,0-3.2,5,0,5C395.8,132.4,395.8,127.5,392.6,127.5L392.6,127.5z"/>
			</g>
		</g>
		<g>
			<g>
				<path class="st8" d="M350.2,344.3c-3.2,0-3.2,5,0,5C353.4,349.2,353.4,344.3,350.2,344.3L350.2,344.3z"/>
			</g>
		</g>
		<g>
			<g>
				<path class="st8" d="M323.7,451.4c-3.2,0-3.2,5,0,5C326.9,456.3,326.9,451.4,323.7,451.4L323.7,451.4z"/>
			</g>
		</g>
		<g>
			<g>
				<path class="st8" d="M-5.1,450c-3.2,0-3.2,5,0,5C-1.9,455-1.9,450-5.1,450L-5.1,450z"/>
			</g>
		</g>
		<g>
			<g>
				<path class="st8" d="M82.4,344.3c-3.2,0-3.2,5,0,5C85.6,349.2,85.6,344.3,82.4,344.3L82.4,344.3z"/>
			</g>
		</g>
		<g>
			<g>
				<path class="st8" d="M-71.4,226.6c-3.2,0-3.2,5,0,5C-68.2,231.6-68.2,226.6-71.4,226.6L-71.4,226.6z"/>
			</g>
		</g>
		<g>
			<g>
				<path class="st8" d="M-185.4,122.2c-3.2,0-3.2,5,0,5C-182.2,127.1-182.2,122.2-185.4,122.2L-185.4,122.2z"/>
			</g>
		</g>
		<g>
			<g>
				<path class="st8" d="M-323.2,172.4c-3.2,0-3.2,5,0,5C-320,177.4-320,172.4-323.2,172.4L-323.2,172.4z"/>
			</g>
		</g>
		<g>
			<g>
				<path class="st8" d="M-291.4,159.2c-3.2,0-3.2,5,0,5C-288.2,164.2-288.2,159.2-291.4,159.2L-291.4,159.2z"/>
			</g>
		</g>
		<g>
			<g>
				<path class="st8" d="M-414.7,164.5c-3.2,0-3.2,5,0,5C-411.5,169.4-411.5,164.5-414.7,164.5L-414.7,164.5z"/>
			</g>
		</g>
		<g>
			<g>
				<path class="st8" d="M-374.9,294c-3.2,0-3.2,5,0,5C-371.7,299-371.7,294-374.9,294L-374.9,294z"/>
			</g>
		</g>
		<g>
			<g>
				<path class="st8" d="M-276.8,307.3c-3.2,0-3.2,5,0,5C-273.6,312.2-273.6,307.3-276.8,307.3L-276.8,307.3z"/>
			</g>
		</g>
		<g>
			<g>
				<path class="st8" d="M285.7,445.9c-4.8,0-4.8,7.4,0,7.4C290.5,453.4,290.5,445.9,285.7,445.9L285.7,445.9z"/>
			</g>
		</g>
		<g>
			<g>
				<path class="st8" d="M-360.3,386.6c-3.2,0-3.2,5,0,5C-357.1,391.5-357.1,386.6-360.3,386.6L-360.3,386.6z"/>
			</g>
		</g>
		<g>
			<path class="st8" d="M-288,555.3c0,4.4-3.6,8-8.1,8c-4.5,0-8.1-3.6-8.1-8c0-4.4,3.6-8,8.1-8C-291.6,547.3-288,550.9-288,555.3z"
				/>
		</g>
		<g>
			<g>
				<path class="st8" d="M0.2,517.9c-6.4,0-6.4,9.9,0,9.9C6.6,527.8,6.6,517.9,0.2,517.9L0.2,517.9z"/>
			</g>
		</g>
		<g>
			<g>
				<path class="st8" d="M-241,650.1c-6.4,0-6.4,9.9,0,9.9C-234.6,660-234.6,650.1-241,650.1L-241,650.1z"/>
			</g>
		</g>
		<g>
			<g>
				<path class="st8" d="M317,441.2c-6.4,0-6.4,9.9,0,9.9C323.4,451.2,323.4,441.2,317,441.2L317,441.2z"/>
			</g>
		</g>
		<g>
			<g>
				<path class="st8" d="M-209.2,517.8c-4.8,0-4.8,7.4,0,7.4C-204.4,525.3-204.4,517.8-209.2,517.8L-209.2,517.8z"/>
			</g>
		</g>
		<g>
			<g>
				<path class="st8" d="M-238.4,445.1c-4.8,0-4.8,7.4,0,7.4C-233.6,452.6-233.6,445.1-238.4,445.1L-238.4,445.1z"/>
			</g>
		</g>
		<g>
			<g>
				<path class="st8" d="M9.5,570.7c-4.8,0-4.8,7.4,0,7.4C14.3,578.2,14.3,570.7,9.5,570.7L9.5,570.7z"/>
			</g>
		</g>
		<g>
			<g>
				<path class="st8" d="M-223.2,566c-6.4,0-6.4,9.9,0,9.9C-216.8,576-216.8,566-223.2,566L-223.2,566z"/>
			</g>
		</g>
		<g>
			<g>
				<path class="st8" d="M-213.9,618.8c-4.8,0-4.8,7.4,0,7.4C-209.1,626.3-209.1,618.8-213.9,618.8L-213.9,618.8z"/>
			</g>
		</g>
		<g>
			<g>
				<path class="st8" d="M290.5,513.9c-4.8,0-4.8,7.4,0,7.4C295.3,521.3,295.3,513.9,290.5,513.9L290.5,513.9z"/>
			</g>
		</g>
		<g>
			<ellipse class="st8" cx="349.9" cy="567.6" rx="8.1" ry="8"/>
		</g>
		<g>
			<g>
				<path class="st8" d="M330.1,559.3c-6.4,0-6.4,9.9,0,9.9C336.5,569.2,336.5,559.3,330.1,559.3L330.1,559.3z"/>
			</g>
		</g>
		<g>
			<g>
				<path class="st8" d="M369.9,677.2c-4.8,0-4.8,7.4,0,7.4C374.7,684.6,374.7,677.2,369.9,677.2L369.9,677.2z"/>
			</g>
		</g>
		<g>
			<g>
				<path class="st8" d="M-340.5,599.8c-4.8,0-4.8,7.4,0,7.4C-335.7,607.2-335.7,599.8-340.5,599.8L-340.5,599.8z"/>
			</g>
		</g>
		<g>
			<g>
				<path class="st8" d="M-116.4,681.8c-4.8,0-4.8,7.4,0,7.4C-111.6,689.2-111.6,681.8-116.4,681.8L-116.4,681.8z"/>
			</g>
		</g>
		<g>
			<g>
				<path class="st8" d="M323.7,676.4c-3.2,0-3.2,5,0,5C326.9,681.4,326.9,676.4,323.7,676.4L323.7,676.4z"/>
			</g>
		</g>
		<g>
			<g>
				<path class="st8" d="M-5.1,675.1c-3.2,0-3.2,5,0,5C-1.9,680-1.9,675.1-5.1,675.1L-5.1,675.1z"/>
			</g>
		</g>
		<g>
			<g>
				<path class="st8" d="M-71.4,451.7c-3.2,0-3.2,5,0,5C-68.2,456.6-68.2,451.7-71.4,451.7L-71.4,451.7z"/>
			</g>
		</g>
		<g>
			<g>
				<path class="st8" d="M-374.9,519.1c-3.2,0-3.2,5,0,5C-371.7,524-371.7,519.1-374.9,519.1L-374.9,519.1z"/>
			</g>
		</g>
		<g>
			<g>
				<path class="st8" d="M-276.8,532.3c-3.2,0-3.2,5,0,5C-273.6,537.3-273.6,532.3-276.8,532.3L-276.8,532.3z"/>
			</g>
		</g>
		<g>
			<g>
				<path class="st8" d="M-360.3,611.6c-3.2,0-3.2,5,0,5C-357.1,616.6-357.1,611.6-360.3,611.6L-360.3,611.6z"/>
			</g>
		</g>
		<g>
			<g>
				<path class="st8" d="M-335.2,676.4c-3.2,0-3.2,5,0,5C-332,681.4-332,676.4-335.2,676.4L-335.2,676.4z"/>
			</g>
		</g>
		<g>
			<g>
				<path class="st8" d="M-242.4,46.8c-3.2,0-3.2,5,0,5C-239.2,51.8-239.2,46.8-242.4,46.8L-242.4,46.8z"/>
			</g>
		</g>
		<g>
			<g>
				<path class="st8" d="M297.2,49.6c-4.8,0-4.8,7.4,0,7.4C301.9,57,302,49.6,297.2,49.6L297.2,49.6z"/>
			</g>
		</g>
		<g>
			<g>
				<path class="st8" d="M336.9,106.4c-4.8,0-4.8,7.4,0,7.4C341.7,113.8,341.7,106.4,336.9,106.4L336.9,106.4z"/>
			</g>
		</g>
		<g>
			<g>
				<path class="st8" d="M-48.8,42.9c-4.8,0-4.8,7.4,0,7.4C-44,50.4-44,42.9-48.8,42.9L-48.8,42.9z"/>
			</g>
		</g>
		<g>
			<g>
				<path class="st8" d="M45.3,94.5c-4.8,0-4.8,7.4,0,7.4C50.1,101.9,50.1,94.5,45.3,94.5L45.3,94.5z"/>
			</g>
		</g>
		<g>
			<g>
				<path class="st8" d="M-182.7,35c-4.8,0-4.8,7.4,0,7.4C-177.9,42.4-177.9,35-182.7,35L-182.7,35z"/>
			</g>
		</g>
		<g>
			<g>
				<path class="st8" d="M-172.1,83.9c-4.8,0-4.8,7.4,0,7.4C-167.3,91.4-167.3,83.9-172.1,83.9L-172.1,83.9z"/>
			</g>
		</g>
		<g>
			<g>
				<path class="st8" d="M-275.5,33.7c-4.8,0-4.8,7.4,0,7.4C-270.7,41.1-270.7,33.7-275.5,33.7L-275.5,33.7z"/>
			</g>
		</g>
		<g>
			<g>
				<path class="st8" d="M-365.6,16.5c-4.8,0-4.8,7.4,0,7.4C-360.8,23.9-360.8,16.5-365.6,16.5L-365.6,16.5z"/>
			</g>
		</g>
		<g>
			<g>
				<path class="st8" d="M-418.7,37.7c-4.8,0-4.8,7.4,0,7.4C-413.9,45.1-413.9,37.7-418.7,37.7L-418.7,37.7z"/>
			</g>
		</g>
		<g>
			<g>
				<path class="st8" d="M-389.5,69.4c-4.8,0-4.8,7.4,0,7.4C-384.7,76.8-384.7,69.4-389.5,69.4L-389.5,69.4z"/>
			</g>
		</g>
		<g>
			<g>
				<path class="st8" d="M-328.5,37.6c-3.2,0-3.2,5,0,5C-325.3,42.5-325.3,37.6-328.5,37.6L-328.5,37.6z"/>
			</g>
		</g>
		<g>
			<g>
				<path class="st8" d="M-256.9,7.2c-3.2,0-3.2,5,0,5C-253.7,12.1-253.7,7.2-256.9,7.2L-256.9,7.2z"/>
			</g>
		</g>
		<g>
			<g>
				<path class="st8" d="M-83.3,31c-3.2,0-3.2,5,0,5C-80.1,35.9-80.1,31-83.3,31L-83.3,31z"/>
			</g>
		</g>
		<g>
			<g>
				<path class="st8" d="M-120.4,19.1c-3.2,0-3.2,5,0,5C-117.2,24-117.2,19.1-120.4,19.1L-120.4,19.1z"/>
			</g>
		</g>
		<g>
			<g>
				<path class="st8" d="M-23.6,19.1c-3.2,0-3.2,5,0,5C-20.4,24-20.4,19.1-23.6,19.1L-23.6,19.1z"/>
			</g>
		</g>
		<g>
			<g>
				<path class="st8" d="M-27.6,50.8c-3.2,0-3.2,5,0,5C-24.4,55.7-24.4,50.8-27.6,50.8L-27.6,50.8z"/>
			</g>
		</g>
		<g>
			<g>
				<path class="st8" d="M50.6,61.4c-3.2,0-3.2,5,0,5C53.8,66.3,53.8,61.4,50.6,61.4L50.6,61.4z"/>
			</g>
		</g>
		<g>
			<g>
				<path class="st8" d="M-7.7,89.1c-3.2,0-3.2,5,0,5C-4.5,94.1-4.5,89.1-7.7,89.1L-7.7,89.1z"/>
			</g>
		</g>
		<g>
			<g>
				<path class="st8" d="M156.6,52.1c-3.2,0-3.2,5,0,5C159.8,57.1,159.8,52.1,156.6,52.1L156.6,52.1z"/>
			</g>
		</g>
		<g>
			<g>
				<path class="st8" d="M139.4,81.2c-3.2,0-3.2,5,0,5C142.6,86.2,142.6,81.2,139.4,81.2L139.4,81.2z"/>
			</g>
		</g>
		<g>
			<g>
				<path class="st8" d="M216.3,69.3c-3.2,0-3.2,5,0,5C219.5,74.3,219.5,69.3,216.3,69.3L216.3,69.3z"/>
			</g>
		</g>
		<g>
			<g>
				<path class="st8" d="M204.4,103.7c-3.2,0-3.2,5,0,5C207.6,108.6,207.6,103.7,204.4,103.7L204.4,103.7z"/>
			</g>
		</g>
		<g>
			<g>
				<path class="st8" d="M278.6,99.7c-3.2,0-3.2,5,0,5C281.8,104.7,281.8,99.7,278.6,99.7L278.6,99.7z"/>
			</g>
		</g>
		<g>
			<g>
				<path class="st8" d="M311.7,74.6c-3.2,0-3.2,5,0,5C314.9,79.5,314.9,74.6,311.7,74.6L311.7,74.6z"/>
			</g>
		</g>
		<g>
			<g>
				<path class="st8" d="M340.9,62.7c-3.2,0-3.2,5,0,5C344.1,67.6,344.1,62.7,340.9,62.7L340.9,62.7z"/>
			</g>
		</g>
	</g>
	<g>
		<g>
			<g>
				<g>
					<g>
						<path class="st8" d="M487.8,114.4l4.6,4.1c0.6,0.5,0.6,1.4,0.1,1.9c-0.5,0.6-1.4,0.6-1.9,0.1l-2.8-2.5l-2.8,2.5
							c-0.6,0.5-1.4,0.5-1.9-0.1c-0.5-0.6-0.5-1.4,0.1-1.9L487.8,114.4z"/>
					</g>
				</g>
			</g>
		</g>
		<g>
			<path class="st8" d="M494.4,330.2c0,4.4-3.6,8-8.1,8c-4.5,0-8.1-3.6-8.1-8c0-4.4,3.6-8,8.1-8
				C490.8,322.2,494.4,325.8,494.4,330.2z"/>
		</g>
		<g>
			<path class="st8" d="M663.4,172.3c0,4.4-3.6,8-8.1,8c-4.5,0-8.1-3.6-8.1-8c0-4.4,3.6-8,8.1-8
				C659.8,164.2,663.4,167.8,663.4,172.3z"/>
		</g>
		<g>
			<g>
				<path class="st8" d="M548,121c-6.4,0-6.4,9.9,0,9.9C554.4,130.9,554.4,121,548,121L548,121z"/>
			</g>
		</g>
		<g>
			<g>
				<path class="st8" d="M541.4,425.1c-6.4,0-6.4,9.9,0,9.9C547.8,435,547.8,425.1,541.4,425.1L541.4,425.1z"/>
			</g>
		</g>
		<g>
			<g>
				<path class="st8" d="M370.4,286.3c-6.4,0-6.4,9.9,0,9.9C376.8,296.2,376.8,286.3,370.4,286.3L370.4,286.3z"/>
			</g>
		</g>
		<g>
			<g>
				<path class="st8" d="M573.2,292.8c-4.8,0-4.8,7.4,0,7.4C578,300.2,578,292.8,573.2,292.8L573.2,292.8z"/>
			</g>
		</g>
		<g>
			<g>
				<path class="st8" d="M544,220.1c-4.8,0-4.8,7.4,0,7.4C548.8,227.5,548.8,220.1,544,220.1L544,220.1z"/>
			</g>
		</g>
		<g>
			<g>
				<path class="st8" d="M442,374.8c-4.8,0-4.8,7.4,0,7.4C446.8,382.2,446.8,374.8,442,374.8L442,374.8z"/>
			</g>
		</g>
		<g>
			<g>
				<path class="st8" d="M666,456.7c-4.8,0-4.8,7.4,0,7.4C670.8,464.2,670.8,456.7,666,456.7L666,456.7z"/>
			</g>
		</g>
		<g>
			<g>
				<path class="st8" d="M693.8,79.9c-3.2,0-3.2,5,0,5C697,84.8,697,79.9,693.8,79.9L693.8,79.9z"/>
			</g>
		</g>
		<g>
			<g>
				<path class="st8" d="M597.1,122.2c-3.2,0-3.2,5,0,5C600.3,127.1,600.3,122.2,597.1,122.2L597.1,122.2z"/>
			</g>
		</g>
		<g>
			<g>
				<path class="st8" d="M459.2,172.4c-3.2,0-3.2,5,0,5C462.4,177.4,462.4,172.4,459.2,172.4L459.2,172.4z"/>
			</g>
		</g>
		<g>
			<g>
				<path class="st8" d="M491,159.2c-3.2,0-3.2,5,0,5C494.2,164.2,494.2,159.2,491,159.2L491,159.2z"/>
			</g>
		</g>
		<g>
			<g>
				<path class="st8" d="M367.7,164.5c-3.2,0-3.2,5,0,5C370.9,169.4,370.9,164.5,367.7,164.5L367.7,164.5z"/>
			</g>
		</g>
		<g>
			<g>
				<path class="st8" d="M407.5,294c-3.2,0-3.2,5,0,5C410.7,299,410.7,294,407.5,294L407.5,294z"/>
			</g>
		</g>
		<g>
			<g>
				<path class="st8" d="M505.6,307.3c-3.2,0-3.2,5,0,5C508.8,312.2,508.8,307.3,505.6,307.3L505.6,307.3z"/>
			</g>
		</g>
		<g>
			<g>
				<path class="st8" d="M422.1,386.6c-3.2,0-3.2,5,0,5C425.3,391.5,425.3,386.6,422.1,386.6L422.1,386.6z"/>
			</g>
		</g>
		<g>
			<path class="st8" d="M494.4,555.3c0,4.4-3.6,8-8.1,8c-4.5,0-8.1-3.6-8.1-8c0-4.4,3.6-8,8.1-8
				C490.8,547.3,494.4,550.9,494.4,555.3z"/>
		</g>
		<g>
			<g>
				<path class="st8" d="M541.4,650.1c-6.4,0-6.4,9.9,0,9.9C547.8,660,547.8,650.1,541.4,650.1L541.4,650.1z"/>
			</g>
		</g>
		<g>
			<g>
				<path class="st8" d="M573.2,517.8c-4.8,0-4.8,7.4,0,7.4C578,525.3,578,517.8,573.2,517.8L573.2,517.8z"/>
			</g>
		</g>
		<g>
			<g>
				<path class="st8" d="M544,445.1c-4.8,0-4.8,7.4,0,7.4C548.8,452.6,548.8,445.1,544,445.1L544,445.1z"/>
			</g>
		</g>
		<g>
			<g>
				<path class="st8" d="M559.2,566c-6.4,0-6.4,9.9,0,9.9C565.6,576,565.6,566,559.2,566L559.2,566z"/>
			</g>
		</g>
		<g>
			<g>
				<path class="st8" d="M568.5,618.8c-4.8,0-4.8,7.4,0,7.4C573.3,626.3,573.3,618.8,568.5,618.8L568.5,618.8z"/>
			</g>
		</g>
		<g>
			<g>
				<path class="st8" d="M442,599.8c-4.8,0-4.8,7.4,0,7.4C446.8,607.2,446.8,599.8,442,599.8L442,599.8z"/>
			</g>
		</g>
		<g>
			<g>
				<path class="st8" d="M666,681.8c-4.8,0-4.8,7.4,0,7.4C670.8,689.2,670.8,681.8,666,681.8L666,681.8z"/>
			</g>
		</g>
		<g>
			<g>
				<path class="st8" d="M407.5,519.1c-3.2,0-3.2,5,0,5C410.7,524,410.7,519.1,407.5,519.1L407.5,519.1z"/>
			</g>
		</g>
		<g>
			<g>
				<path class="st8" d="M505.6,532.3c-3.2,0-3.2,5,0,5C508.8,537.3,508.8,532.3,505.6,532.3L505.6,532.3z"/>
			</g>
		</g>
		<g>
			<g>
				<path class="st8" d="M422.1,611.6c-3.2,0-3.2,5,0,5C425.3,616.6,425.3,611.6,422.1,611.6L422.1,611.6z"/>
			</g>
		</g>
		<g>
			<g>
				<path class="st8" d="M447.3,676.4c-3.2,0-3.2,5,0,5C450.5,681.4,450.5,676.4,447.3,676.4L447.3,676.4z"/>
			</g>
		</g>
		<g>
			<g>
				<path class="st8" d="M540.1,46.8c-3.2,0-3.2,5,0,5C543.3,51.8,543.3,46.8,540.1,46.8L540.1,46.8z"/>
			</g>
		</g>
		<g>
			<g>
				<path class="st8" d="M599.7,35c-4.8,0-4.8,7.4,0,7.4C604.5,42.4,604.5,35,599.7,35L599.7,35z"/>
			</g>
		</g>
		<g>
			<g>
				<path class="st8" d="M610.3,83.9c-4.8,0-4.8,7.4,0,7.4C615.1,91.4,615.1,83.9,610.3,83.9L610.3,83.9z"/>
			</g>
		</g>
		<g>
			<g>
				<path class="st8" d="M506.9,33.7c-4.8,0-4.8,7.4,0,7.4C511.7,41.1,511.7,33.7,506.9,33.7L506.9,33.7z"/>
			</g>
		</g>
		<g>
			<g>
				<path class="st8" d="M416.8,16.5c-4.8,0-4.8,7.4,0,7.4C421.6,23.9,421.6,16.5,416.8,16.5L416.8,16.5z"/>
			</g>
		</g>
		<g>
			<g>
				<path class="st8" d="M363.8,37.7c-4.8,0-4.8,7.4,0,7.4C368.5,45.1,368.6,37.7,363.8,37.7L363.8,37.7z"/>
			</g>
		</g>
		<g>
			<g>
				<path class="st8" d="M392.9,69.4c-4.8,0-4.8,7.4,0,7.4C397.7,76.8,397.7,69.4,392.9,69.4L392.9,69.4z"/>
			</g>
		</g>
		<g>
			<g>
				<path class="st8" d="M453.9,37.6c-3.2,0-3.2,5,0,5C457.1,42.5,457.1,37.6,453.9,37.6L453.9,37.6z"/>
			</g>
		</g>
		<g>
			<g>
				<path class="st8" d="M525.5,7.2c-3.2,0-3.2,5,0,5C528.7,12.1,528.7,7.2,525.5,7.2L525.5,7.2z"/>
			</g>
		</g>
		<g>
			<g>
				<path class="st8" d="M699.1,31L699.1,31c-3.2,0-3.2,5,0,5l0,0L699.1,31z"/>
			</g>
		</g>
		<g>
			<g>
				<path class="st8" d="M662,19.1c-3.2,0-3.2,5,0,5C665.2,24,665.2,19.1,662,19.1L662,19.1z"/>
			</g>
		</g>
	</g>
</g>
</svg>
