<?xml version="1.0" encoding="utf-8"?>
<!-- Generator: Adobe Illustrator 23.0.1, SVG Export Plug-In . SVG Version: 6.00 Build 0)  -->
<svg version="1.1" id="Livello_1" xmlns="http://www.w3.org/2000/svg" xmlns:xlink="http://www.w3.org/1999/xlink" x="0px" y="0px"
	 viewBox="0 0 450 800" style="enable-background:new 0 0 450 800;" xml:space="preserve">
<style type="text/css">
	.st0{fill:#73C0DD;}
	.st1{fill:#558A50;}
	.st2{fill:#3F64A5;}
	.st3{fill:#2E5629;}
	.st4{fill:#33602E;}
	.st5{fill:#7F5D5D;}
	.st6{fill:#487C45;}
	.st7{fill:#FFFFFF;}
	.st8{fill:#B2B2B2;}
	.st9{fill:#FF1C32;}
	.st10{fill:#B46100;}
	.st11{fill:#A64D00;}
	.st12{fill:#54B861;}
	.st13{fill:#6AD372;}
	.st14{fill:#54984D;}
	.st15{fill:#FFFF79;}
	.st16{opacity:0.1;}
	.st17{fill:#1A3E51;}
	.st18{fill:#FF3E2C;}
	.st19{fill:#2C88F7;}
	.st20{fill:#885F4B;}
	.st21{fill:#AB8060;}
	.st22{fill:#104A31;}
	.st23{fill:#753422;}
	.st24{fill:#622E21;}
	.st25{fill:#512600;}
	.st26{fill:#C4936E;}
	.st27{fill:#145C3E;}
	.st28{fill:#A6201F;}
	.st29{fill:#F8F6F3;}
	.st30{fill:#ECD7C6;}
	.st31{fill:#F8E7D5;}
	.st32{fill:#C72727;}
	.st33{opacity:0.63;}
	.st34{fill:#E8D7C5;}
	.st35{fill:#C72822;}
	.st36{fill:#FF5526;}
	.st37{fill:#FF9B6F;}
</style>
<rect y="-0.5" class="st0" width="450" height="799.5"/>
<g id="Livello_5">
	<polygon class="st1" points="0,741 0,684 57.3,626 74,609 265,741 	"/>
</g>
<g id="Livello_6">
	<polygon class="st2" points="73,609 250,740 299,740 	"/>
</g>
<g id="Livello_3">
	<polygon class="st1" points="450,753 450,628.5 404,570 220,753 	"/>
</g>
<g id="Livello_4">
	<polygon class="st3" points="404,572 234,740 185,740 	"/>
</g>
<g id="Livello_2_1_">
	<rect y="740" class="st4" width="450" height="60"/>
</g>
<rect x="249.9" y="722.2" class="st5" width="5.6" height="17.4"/>
<path class="st6" d="M241.1,725.1c0,0,9.4-2.9,12-2.9s10.2,2.9,11.2,2.9s-11.2-24.6-11.2-24.6L241.1,725.1z"/>
<path class="st7" d="M216.8,643.6c-0.4-3.8-3.7-6.7-7.6-6.7c-2.8,0-5.3,1.5-6.6,3.8c0,0,0,0-0.1,0c-2.8,0-5.2,2-5.6,4.7h-0.1
	c-1.9,0-3.4,1.5-3.4,3.4s1.5,3.4,3.4,3.4c0.2,0,0.5,0,0.7-0.1h4.7c0.1,0,0.2,0,0.3,0s0.2,0,0.3,0h12.7l0,0h0.1
	c2.4,0,4.3-1.9,4.3-4.3C220,645.8,218.6,644.1,216.8,643.6z"/>
<path class="st7" d="M255.3,638c-0.5-4-3.8-7-7.9-7c-2.9,0-5.5,1.6-6.9,4h-0.1c-2.9,0-5.4,2.1-5.9,4.9h-0.1c-2,0-3.6,1.6-3.6,3.6
	s1.6,3.6,3.6,3.6c0.3,0,0.5,0,0.8-0.1h4.9c0.1,0,0.2,0,0.3,0s0.2,0,0.3,0H254l0,0h0.1c2.5,0,4.5-2,4.5-4.5
	C258.6,640.3,257.2,638.5,255.3,638z"/>
<polygon class="st7" points="61.7,634.2 68.6,627.4 76.6,634.2 86,627.4 99.1,635 100.1,629 108,629.4 74,609 46.5,636.9 "/>
<polyline class="st7" points="404,570 371.7,596.8 382.2,594 388.3,601.9 400.3,596.2 408.7,603.6 412,591.6 438,613.3 "/>
<g>
	
		<rect x="66.9" y="735.9" transform="matrix(3.048922e-02 -0.9995 0.9995 3.048922e-02 -670.8773 795.1193)" class="st7" width="15" height="15"/>
	
		<rect x="72.6" y="729.3" transform="matrix(3.048507e-02 -0.9995 0.9995 3.048507e-02 -665.1573 789.7965)" class="st8" width="3.9" height="17"/>
	<g>
		<g>
			<g>
				<path class="st9" d="M71,733.5c-0.1,0-0.1,0-0.2,0.1c-0.4,0.2-0.6,0.7-0.4,1.2s0.7,0.7,1.1,0.8c0.5,0.1,1.1,0.1,1.6,0.2
					c0.5,0.1,1.1,0.3,1.6,0.3c0.1,0,0.8-0.2,0.8-0.2c-0.2-0.4-0.6-0.7-0.9-1c-0.1-0.1-0.7,0.3-0.9,0.2c0.3,0.3,0.7,0.6,0.9,1
					c0.3-0.1,0.6-0.1,0.8-0.2c-0.5-0.1-1.1-0.2-1.6-0.3s-1.1-0.1-1.6-0.2c-0.5-0.1-1-0.3-1.2-0.9c-0.2-0.6,0.2-1,0.6-1.1"/>
			</g>
			<g>
				<path class="st9" d="M71.6,733.5c0.9,0.1,1.7,0.8,2.3,1.6c0.1,0.1,0.7-0.3,0.9-0.2c-0.7-0.8-1.6-1.7-2.7-1.6
					c-0.3,0-0.7,0.1-1.1,0.2"/>
			</g>
			<g>
				<path class="st9" d="M71,733.5c0.2,0,0.3,0,0.5,0"/>
			</g>
			<g>
				<path class="st9" d="M71.9,733.3c-0.3,0.1-0.6,0.1-0.8,0.2"/>
			</g>
		</g>
		<g>
			<g>
				<path class="st9" d="M74.7,730.3c-0.3,0.1-0.6,0.1-0.9,0.2c1.6-0.1,1.1,2.9,0.9,3.9c0-0.1,0.8,0,0.9-0.2c0.3-1.1,0.6-2.4,0-3.5
					c-0.4-0.7-0.9-0.5-1.5-0.4"/>
			</g>
			<g>
				<path class="st9" d="M74,730.5c-0.8,0.2-0.9,0.9-0.7,1.8c0.1,0.6,0.4,1.2,0.6,1.8s0.3,1.2,0.5,1.7c0,0,0.8-0.1,0.8-0.2
					c0.2-0.4,0.2-0.9,0.4-1.3c0,0.1-0.8,0-0.9,0.2c-0.1,0.4-0.2,0.9-0.3,1.3c0.3-0.1,0.6-0.1,0.8-0.2c-0.3-0.9-0.5-1.9-0.8-2.8
					c-0.3-0.8-0.6-2,0.3-2.5"/>
			</g>
		</g>
		<g>
			<g>
				<path class="st9" d="M75.3,736c0.8,0,1.6-0.1,2.3-0.3c0.5-0.1,1.1-0.4,1.4-1c0.4-0.7,0-1.3-0.7-1.3c-0.7,0.1-1.3,0.3-1.9,0.7
					c-0.6,0.5-1.2,0.9-1.8,1.3c-0.1,0.1-0.3,0.2-0.4,0.3c-0.2,0.2-0.2,0.1,0,0.2C74.5,736.1,75,736,75.3,736s0.6-0.2,0.8-0.2
					c-0.2,0-1,0.1-1.1,0s0.1-0.2,0.3-0.3c0.2-0.1,0.4-0.2,0.6-0.4c0.8-0.5,1.5-1.4,2.4-1.6c-0.3,0.1-0.6,0.1-0.9,0.2
					c0.6,0,1.1,0.4,0.8,1.2c-0.3,0.6-0.9,0.9-1.4,1.1c0.1,0,0.2,0,0.3-0.1c-0.3,0.1-0.7,0-1,0C75.8,735.8,75.5,736,75.3,736z"/>
			</g>
		</g>
		<g>
			<g>
				<path class="st9" d="M76.6,731.2c-0.3,0.1-0.6,0.1-0.8,0.2c0.9-0.2,0.9,1.1,0.7,1.8c0,0.1-0.1,0.3-0.1,0.4
					c-0.1,0.3-0.3,0.7-0.6,1c-0.1,0.1-0.2,0.3-0.3,0.4c-0.1,0.1-0.2,0.2-0.2,0.4c0,0.1,0,0.1-0.1,0.2c0,0.1,0,0.2-0.1,0.2
					c0,0.1,0,0.2-0.1,0.2c0.3-0.2,0.5-0.4,0.7-0.6c0.4-0.4,0.8-0.9,1.2-1.4c0.4-0.6,0.7-1.3,0.6-2.1c-0.1-0.9-0.7-0.8-1.3-0.7"/>
			</g>
			<g>
				<path class="st9" d="M76.1,731.3c-0.7,0.1-1,0.5-1.2,1.3c-0.1,0.6-0.2,1.2-0.2,1.8c-0.1,0.7-0.3,1.3-0.3,1.9
					c0-0.1,0.8-0.1,0.8-0.2c0.3-0.3-0.4,0.1-0.2-0.2c-0.2,0.2,0.3-0.8,0.1-0.6c-0.3,0.3-0.5,0.7-0.8,1c0.3-0.1,0.6-0.1,0.8-0.2
					c0.1-0.9,0.4-1.8,0.5-2.7c0.1-0.8,0.2-1.8,0.9-2.2"/>
			</g>
		</g>
	</g>
	
		<rect x="67.1" y="742.3" transform="matrix(3.055609e-02 -0.9995 0.9995 3.055609e-02 -670.6108 795.1309)" class="st9" width="15" height="2"/>
	
		<rect x="73.3" y="737.7" transform="matrix(3.051919e-02 -0.9995 0.9995 3.051919e-02 -672.8383 796.7979)" class="st9" width="2" height="15"/>
</g>
<g>
	
		<rect x="38.7" y="733.4" transform="matrix(3.048922e-02 -0.9995 0.9995 3.048922e-02 -695.6619 760.1591)" class="st7" width="10.6" height="10.6"/>
	
		<rect x="42.8" y="728.8" transform="matrix(3.048507e-02 -0.9995 0.9995 3.048507e-02 -691.5872 756.5521)" class="st8" width="2.8" height="12"/>
	<g>
		<g>
			<g>
				<path class="st9" d="M41.6,731.8L41.6,731.8c-0.4,0.1-0.5,0.5-0.4,0.8c0.2,0.4,0.5,0.5,0.8,0.6c0.4,0.1,0.8,0.1,1.1,0.2
					c0.4,0.1,0.7,0.2,1.1,0.2c0.1,0,0.6-0.2,0.6-0.1c-0.2-0.3-0.4-0.5-0.6-0.7c-0.1-0.1-0.5,0.2-0.6,0.1c0.2,0.2,0.5,0.4,0.6,0.7
					c0.2,0,0.4-0.1,0.6-0.1c-0.4,0-0.7-0.2-1.1-0.2c-0.4-0.1-0.8-0.1-1.1-0.2c-0.3-0.1-0.7-0.2-0.8-0.6c-0.1-0.4,0.1-0.7,0.4-0.8"/>
			</g>
			<g>
				<path class="st9" d="M42,731.8c0.7,0.1,1.2,0.6,1.7,1.1c0.1,0.1,0.5-0.2,0.6-0.1c-0.5-0.6-1.1-1.2-1.9-1.1
					c-0.2,0-0.5,0.1-0.8,0.1"/>
			</g>
			<g>
				<path class="st9" d="M41.7,731.8c0.1,0,0.2,0,0.4,0"/>
			</g>
			<g>
				<path class="st9" d="M42.2,731.6c-0.2,0-0.4,0.1-0.6,0.1"/>
			</g>
		</g>
		<g>
			<g>
				<path class="st9" d="M44.2,729.6c-0.2,0-0.4,0.1-0.6,0.1c1.1-0.1,0.8,2.1,0.6,2.8c0-0.1,0.6,0,0.6-0.1c0.2-0.8,0.4-1.7,0-2.4
					c-0.3-0.5-0.6-0.4-1-0.3"/>
			</g>
			<g>
				<path class="st9" d="M43.7,729.7c-0.5,0.1-0.7,0.7-0.5,1.3c0.1,0.4,0.3,0.9,0.4,1.3c0.1,0.4,0.2,0.8,0.3,1.2l0.6-0.1
					c0.1-0.3,0.2-0.6,0.2-0.9c0,0.1-0.6,0-0.6,0.1c-0.1,0.3-0.1,0.6-0.2,0.9c0.2,0,0.4-0.1,0.6-0.1c-0.2-0.6-0.3-1.3-0.5-2
					c-0.2-0.6-0.4-1.4,0.2-1.8"/>
			</g>
		</g>
		<g>
			<g>
				<path class="st9" d="M44.6,733.6c0.6,0,1.1,0,1.6-0.2c0.4-0.1,0.8-0.3,1-0.7c0.3-0.5,0-0.9-0.5-0.9s-0.9,0.2-1.3,0.5
					c-0.4,0.3-0.8,0.6-1.3,0.9c-0.1,0.1-0.2,0.1-0.3,0.2c-0.1,0.1-0.1,0.1,0,0.1C44.1,733.6,44.4,733.6,44.6,733.6
					c0.2,0,0.4-0.1,0.6-0.1c-0.1,0-0.7,0.1-0.8,0s0.1-0.1,0.2-0.2c0.1-0.1,0.3-0.2,0.4-0.3c0.5-0.4,1.1-1,1.7-1.2
					c-0.2,0-0.4,0.1-0.6,0.1c0.4,0,0.8,0.3,0.5,0.8c-0.2,0.4-0.6,0.6-1,0.8c0.1,0,0.1,0,0.2,0c-0.2,0-0.5,0-0.7,0
					C45,733.4,44.8,733.6,44.6,733.6z"/>
			</g>
		</g>
		<g>
			<g>
				<path class="st9" d="M45.6,730.1c-0.2,0-0.4,0.1-0.6,0.1c0.6-0.1,0.6,0.8,0.5,1.3c0,0.1-0.1,0.2-0.1,0.3
					c-0.1,0.2-0.2,0.5-0.4,0.7c-0.1,0.1-0.2,0.2-0.2,0.3c-0.1,0.1-0.1,0.2-0.2,0.3v0.1c0,0.1,0,0.1,0,0.2c0,0.1,0,0.1-0.1,0.2
					c0.2-0.1,0.3-0.3,0.5-0.4c0.3-0.3,0.6-0.6,0.8-1c0.3-0.4,0.5-0.9,0.4-1.5c-0.1-0.7-0.5-0.6-0.9-0.5"/>
			</g>
			<g>
				<path class="st9" d="M45.2,730.2c-0.5,0.1-0.7,0.3-0.9,0.9c-0.1,0.4-0.1,0.8-0.2,1.2c-0.1,0.5-0.2,0.9-0.2,1.4
					c0,0,0.5-0.1,0.6-0.1c0.2-0.2-0.3,0.1-0.1-0.2c-0.1,0.1,0.2-0.5,0.1-0.4c-0.2,0.2-0.4,0.5-0.6,0.7c0.2,0,0.4-0.1,0.6-0.1
					c0.1-0.6,0.2-1.3,0.3-1.9c0.1-0.6,0.1-1.2,0.6-1.5"/>
			</g>
		</g>
	</g>
	
		<rect x="38.9" y="738" transform="matrix(3.055609e-02 -0.9995 0.9995 3.055609e-02 -695.4869 760.2833)" class="st9" width="10.6" height="1.4"/>
	
		<rect x="43.2" y="734.8" transform="matrix(3.051919e-02 -0.9995 0.9995 3.051919e-02 -697.1862 761.454)" class="st9" width="1.4" height="10.6"/>
</g>
<g>
	
		<rect x="404.4" y="732.6" transform="matrix(3.048922e-02 -0.9995 0.9995 3.048922e-02 -340.4047 1129.3064)" class="st7" width="15" height="15"/>
	
		<rect x="410.3" y="726.1" transform="matrix(3.048507e-02 -0.9995 0.9995 3.048507e-02 -334.5673 1124.2253)" class="st8" width="3.9" height="17"/>
	<g>
		<g>
			<g>
				<path class="st9" d="M408.7,730.3c-0.1,0-0.1,0-0.2,0.1c-0.4,0.2-0.6,0.7-0.4,1.2s0.7,0.7,1.1,0.8c0.5,0.1,1.1,0.1,1.6,0.2
					c0.5,0.1,1.1,0.3,1.6,0.3c0.1,0,0.8-0.2,0.8-0.2c-0.2-0.4-0.6-0.7-0.9-1c-0.1-0.1-0.7,0.3-0.9,0.2c0.3,0.3,0.7,0.6,0.9,1
					c0.3-0.1,0.6-0.1,0.8-0.2c-0.5-0.1-1.1-0.2-1.6-0.3s-1.1-0.1-1.6-0.2c-0.5-0.1-1-0.3-1.2-0.9c-0.2-0.6,0.2-1,0.6-1.1"/>
			</g>
			<g>
				<path class="st9" d="M409.2,730.3c0.9,0.1,1.7,0.8,2.3,1.6c0.1,0.1,0.7-0.3,0.9-0.2c-0.7-0.8-1.6-1.7-2.7-1.6
					c-0.3,0-0.7,0.1-1.1,0.2"/>
			</g>
			<g>
				<path class="st9" d="M408.7,730.3c0.2,0,0.3,0,0.5,0"/>
			</g>
			<g>
				<path class="st9" d="M409.6,730.1c-0.3,0.1-0.6,0.1-0.8,0.2"/>
			</g>
		</g>
		<g>
			<g>
				<path class="st9" d="M412.4,727.2c-0.3,0.1-0.6,0.1-0.9,0.2c1.6-0.1,1.1,2.9,0.9,3.9c0-0.1,0.8,0,0.9-0.2c0.3-1.1,0.6-2.4,0-3.5
					c-0.4-0.7-0.9-0.5-1.5-0.4"/>
			</g>
			<g>
				<path class="st9" d="M411.7,727.3c-0.8,0.2-0.9,0.9-0.7,1.8c0.1,0.6,0.4,1.2,0.6,1.8s0.3,1.2,0.5,1.7c0,0,0.8-0.1,0.8-0.2
					c0.2-0.4,0.2-0.9,0.4-1.3c0,0.1-0.8,0-0.9,0.2c-0.1,0.4-0.2,0.9-0.3,1.3c0.3-0.1,0.6-0.1,0.8-0.2c-0.3-0.9-0.5-1.9-0.8-2.8
					c-0.3-0.8-0.6-2,0.3-2.5"/>
			</g>
		</g>
		<g>
			<g>
				<path class="st9" d="M412.9,732.8c0.8,0,1.6-0.1,2.3-0.3c0.5-0.1,1.1-0.4,1.4-1c0.4-0.7,0-1.3-0.7-1.3c-0.7,0.1-1.3,0.3-1.9,0.7
					c-0.6,0.5-1.2,0.9-1.8,1.3c-0.1,0.1-0.3,0.2-0.4,0.3c-0.2,0.2-0.2,0.1,0,0.2C412.2,732.9,412.7,732.8,412.9,732.8
					c0.3,0,0.6-0.2,0.8-0.2c-0.2,0-1,0.1-1.1,0s0.1-0.2,0.3-0.3c0.2-0.1,0.4-0.2,0.6-0.4c0.8-0.5,1.5-1.4,2.4-1.6
					c-0.3,0.1-0.6,0.1-0.9,0.2c0.6,0,1.1,0.4,0.8,1.2c-0.3,0.6-0.9,0.9-1.4,1.1c0.1,0,0.2,0,0.3-0.1c-0.3,0.1-0.7,0-1,0
					C413.5,732.7,413.2,732.8,412.9,732.8z"/>
			</g>
		</g>
		<g>
			<g>
				<path class="st9" d="M414.3,728c-0.3,0.1-0.6,0.1-0.8,0.2c0.9-0.2,0.9,1.1,0.7,1.8c0,0.1-0.1,0.3-0.1,0.4
					c-0.1,0.3-0.3,0.7-0.6,1c-0.1,0.1-0.2,0.3-0.3,0.4c-0.1,0.1-0.2,0.2-0.2,0.4c0,0.1,0,0.1-0.1,0.2c0,0.1,0,0.2-0.1,0.2
					c0,0.1,0,0.2-0.1,0.2c0.3-0.2,0.5-0.4,0.7-0.6c0.4-0.4,0.8-0.9,1.2-1.4c0.4-0.6,0.7-1.3,0.6-2.1c-0.1-0.9-0.7-0.8-1.3-0.7"/>
			</g>
			<g>
				<path class="st9" d="M413.8,728.1c-0.7,0.1-1,0.5-1.2,1.3c-0.1,0.6-0.2,1.2-0.2,1.8c-0.1,0.7-0.3,1.3-0.3,1.9
					c0-0.1,0.8-0.1,0.8-0.2c0.3-0.3-0.4,0.1-0.2-0.2c-0.2,0.2,0.3-0.8,0.1-0.6c-0.3,0.3-0.5,0.7-0.8,1c0.3-0.1,0.6-0.1,0.8-0.2
					c0.1-0.9,0.4-1.8,0.5-2.7c0.1-0.8,0.2-1.8,0.9-2.2"/>
			</g>
		</g>
	</g>
	
		<rect x="404.8" y="739.1" transform="matrix(3.055609e-02 -0.9995 0.9995 3.055609e-02 -340.0441 1129.5594)" class="st9" width="15" height="2"/>
	
		<rect x="411" y="734.7" transform="matrix(3.051919e-02 -0.9995 0.9995 3.051919e-02 -342.3834 1131.3701)" class="st9" width="2" height="15"/>
</g>
<g>
	<g>
		<g>
			<g>
				<g>
					<rect x="385.2" y="711.8" class="st10" width="8.3" height="34.6"/>
				</g>
				<g>
					<rect x="385.2" y="711.8" class="st11" width="4.2" height="34.6"/>
				</g>
			</g>
			<g>
				<g>
					<g>
						<polygon class="st12" points="356.3,724.8 389.3,662.6 422.4,724.8 						"/>
					</g>
					<g>
						<polygon class="st13" points="389.3,724.8 389.3,662.6 422.4,724.8 						"/>
					</g>
					<g>
						<polygon class="st12" points="409.4,700.4 389.3,700.4 389.3,662.6 						"/>
					</g>
					<g>
						<polygon class="st14" points="389.3,662.6 389.3,700.4 369.2,700.4 						"/>
					</g>
				</g>
				<g>
					<g>
						<polygon class="st12" points="363.4,698.3 389.3,649.5 415.3,698.3 						"/>
					</g>
					<g>
						<polygon class="st13" points="389.3,698.3 389.3,649.5 415.3,698.3 						"/>
					</g>
					<g>
						<polygon class="st12" points="405.1,679.1 389.3,679.1 389.3,649.5 						"/>
					</g>
					<g>
						<polygon class="st14" points="389.3,649.5 389.3,679.1 373.6,679.1 						"/>
					</g>
				</g>
				<g>
					<g>
						<polygon class="st12" points="410.4,677 368.3,677 376.1,662.3 389.3,637.4 402.5,662.3 						"/>
					</g>
					<g>
						<polygon class="st13" points="389.3,677 389.3,637.4 410.4,677 						"/>
					</g>
					<g>
						<polygon class="st15" points="389.3,631 391.1,634.5 395,635.1 392.2,637.9 392.8,641.7 389.3,639.9 385.8,641.7 386.5,637.9 
							383.7,635.1 387.6,634.5 						"/>
					</g>
				</g>
			</g>
		</g>
		<g class="st16">
			<polygon class="st17" points="385.2,746.5 365.7,752.6 393.5,746.5 			"/>
		</g>
	</g>
	<g>
		<path class="st7" d="M398.1,653.2c-4.9,7.6-10.5,15-18.3,19.8c-2.3,1.4-4.8,2.6-7.4,3.5c-0.2,0.1,0,0.1,0.1,0.1
			c8.8-3,15.7-9.3,21.2-16.6c1.7-2.2,3.2-4.5,4.8-6.9C398.5,653.1,398.2,653.2,398.1,653.2L398.1,653.2z"/>
	</g>
	<g>
		<path class="st7" d="M406.3,681.7c-8.3,7.9-19.2,13.3-30.5,15.1c-3.1,0.5-6.3,0.7-9.4,0.5c-0.1,0-0.4,0.2-0.1,0.2
			c11.5,0.6,23.1-3.4,32.6-9.7c2.7-1.8,5.3-3.8,7.7-6.1C406.7,681.7,406.4,681.7,406.3,681.7L406.3,681.7z"/>
	</g>
	<g>
		<path class="st7" d="M411.8,706c-5.3,5.7-13.2,8.9-20.4,11.4c-7.6,2.6-15.5,4.4-23.5,5.5c-2.9,0.4-5.8,0.8-8.7,0.7
			c-0.1,0-0.4,0.2-0.1,0.2c2.5,0.1,5.1-0.2,7.6-0.5c3.7-0.5,7.4-1.1,11.1-1.9c8.3-1.8,16.7-4.3,24.3-8.2c3.7-1.9,7.3-4.1,10.1-7.2
			C412.2,705.9,411.9,705.9,411.8,706L411.8,706z"/>
	</g>
	<g>
		<rect x="372.8" y="676.8" class="st7" width="33" height="0.2"/>
	</g>
	<g>
		<rect x="365.7" y="698.2" class="st7" width="46.4" height="0.2"/>
	</g>
	<g>
		<rect x="358.6" y="724.5" class="st7" width="60.8" height="0.2"/>
	</g>
	<g>
		<g>
			<circle class="st18" cx="372.8" cy="676.9" r="1.7"/>
		</g>
		<g>
			<circle class="st15" cx="379.4" cy="676.9" r="1.7"/>
		</g>
		<g>
			<circle class="st15" cx="395" cy="667.1" r="1.7"/>
		</g>
		<g>
			<circle class="st19" cx="386" cy="676.9" r="1.7"/>
		</g>
		<g>
			<circle class="st18" cx="399.2" cy="676.9" r="1.7"/>
		</g>
		<g>
			<ellipse class="st18" cx="386.4" cy="657.2" rx="1.7" ry="1.7"/>
		</g>
		<g>
			<circle class="st7" cx="392.6" cy="677" r="1.7"/>
		</g>
		<g>
			<circle class="st7" cx="379.4" cy="666.1" r="1.7"/>
		</g>
		<g>
			<circle class="st19" cx="405.8" cy="676.9" r="1.7"/>
		</g>
		<g>
			<circle class="st19" cx="403" cy="671.1" r="1.7"/>
		</g>
	</g>
	<g>
		<g>
			<circle class="st18" cx="372.8" cy="698.3" r="1.7"/>
		</g>
		<g>
			<circle class="st15" cx="366.2" cy="698.3" r="1.7"/>
		</g>
		<g>
			<circle class="st15" cx="383.7" cy="691.4" r="1.7"/>
		</g>
		<g>
			<circle class="st15" cx="379.4" cy="698.3" r="1.7"/>
		</g>
		<g>
			<circle class="st15" cx="396.7" cy="684.7" r="1.7"/>
		</g>
		<g>
			<circle class="st19" cx="386" cy="698.3" r="1.7"/>
		</g>
		<g>
			<circle class="st18" cx="399.2" cy="698.3" r="1.7"/>
		</g>
		<g>
			<circle class="st18" cx="377.8" cy="687.6" r="1.7"/>
		</g>
		<g>
			<circle class="st7" cx="392.6" cy="698.3" r="1.7"/>
		</g>
		<g>
			<circle class="st19" cx="405.8" cy="698.3" r="1.7"/>
		</g>
		<g>
			<circle class="st19" cx="403" cy="691.4" r="1.7"/>
		</g>
		<g>
			<circle class="st18" cx="412.1" cy="698.3" r="1.7"/>
		</g>
	</g>
	<g>
		<g>
			<circle class="st18" cx="372.8" cy="724.6" r="1.7"/>
		</g>
		<g>
			<circle class="st18" cx="395.1" cy="707.1" r="1.7"/>
		</g>
		<g>
			<circle class="st15" cx="366.2" cy="724.6" r="1.7"/>
		</g>
		<g>
			<circle class="st19" cx="359.1" cy="724.6" r="1.7"/>
		</g>
		<g>
			<circle class="st19" cx="410.4" cy="715.5" r="1.7"/>
		</g>
		<g>
			<circle class="st15" cx="379.4" cy="724.6" r="1.7"/>
		</g>
		<g>
			<circle class="st15" cx="382.8" cy="714.7" r="1.7"/>
		</g>
		<g>
			<circle class="st19" cx="386" cy="724.6" r="1.7"/>
		</g>
		<g>
			<circle class="st7" cx="392.6" cy="724.6" r="1.7"/>
		</g>
		<g>
			<circle class="st7" cx="403" cy="717.5" r="1.7"/>
		</g>
		<g>
			<circle class="st7" cx="374.5" cy="707.7" r="1.7"/>
		</g>
		<g>
			<circle class="st18" cx="399.2" cy="724.6" r="1.7"/>
		</g>
		<g>
			<circle class="st18" cx="367.9" cy="716.9" r="1.7"/>
		</g>
		<g>
			<circle class="st19" cx="405.8" cy="724.6" r="1.7"/>
		</g>
		<g>
			<circle class="st7" cx="412.1" cy="724.6" r="1.7"/>
		</g>
		<g>
			<circle class="st18" cx="419" cy="724.6" r="1.7"/>
		</g>
	</g>
</g>
<g>
	<g>
		<g>
			<g>
				<g>
					<rect x="57.3" y="716.7" class="st10" width="7.6" height="31.6"/>
				</g>
				<g>
					<rect x="57.3" y="716.7" class="st11" width="3.8" height="31.6"/>
				</g>
			</g>
			<g>
				<g>
					<g>
						<polygon class="st12" points="30.9,728.5 61.1,671.6 91.4,728.5 						"/>
					</g>
					<g>
						<polygon class="st13" points="61.1,728.5 61.1,671.6 91.4,728.5 						"/>
					</g>
					<g>
						<polygon class="st12" points="79.5,706.2 61.1,706.2 61.1,671.6 						"/>
					</g>
					<g>
						<polygon class="st14" points="61.1,671.6 61.1,706.2 42.8,706.2 						"/>
					</g>
				</g>
				<g>
					<g>
						<polygon class="st12" points="37.5,704.3 61.1,659.7 84.8,704.3 						"/>
					</g>
					<g>
						<polygon class="st13" points="61.1,704.3 61.1,659.7 84.8,704.3 						"/>
					</g>
					<g>
						<polygon class="st12" points="75.5,686.8 61.1,686.8 61.1,659.7 						"/>
					</g>
					<g>
						<polygon class="st14" points="61.1,659.7 61.1,686.8 46.8,686.8 						"/>
					</g>
				</g>
				<g>
					<g>
						<polygon class="st12" points="80.4,684.9 41.9,684.9 49.1,671.4 61.1,648.7 73.2,671.4 						"/>
					</g>
					<g>
						<polygon class="st13" points="61.1,684.9 61.1,648.7 80.4,684.9 						"/>
					</g>
					<g>
						<polygon class="st15" points="61.1,642.8 62.7,646 66.3,646.6 63.7,649.1 64.3,652.6 61.1,650.9 58,652.6 58.6,649.1 
							56,646.6 59.6,646 						"/>
					</g>
				</g>
			</g>
		</g>
		<g class="st16">
			<polygon class="st17" points="57.3,748.3 39.5,753.9 65,748.3 			"/>
		</g>
	</g>
	<g>
		<path class="st7" d="M69.2,663.1c-4.5,6.9-9.6,13.7-16.7,18.1c-2.1,1.3-4.4,2.4-6.8,3.2c-0.2,0.1,0,0.1,0.1,0.1
			c8.1-2.8,14.3-8.5,19.4-15.2c1.5-2,3-4.1,4.4-6.3C69.5,663,69.2,663,69.2,663.1L69.2,663.1z"/>
	</g>
	<g>
		<path class="st7" d="M76.7,689.2c-7.5,7.2-17.6,12.1-27.9,13.8c-2.8,0.5-5.7,0.6-8.6,0.5c-0.1,0-0.3,0.1-0.1,0.2
			c10.5,0.5,21.1-3.1,29.8-8.9c2.5-1.6,4.9-3.5,7-5.6C77,689.1,76.7,689.1,76.7,689.2L76.7,689.2z"/>
	</g>
	<g>
		<path class="st7" d="M81.7,711.3c-4.9,5.2-12,8.2-18.6,10.4c-6.9,2.4-14.2,4-21.4,5c-2.6,0.4-5.3,0.7-8,0.6
			c-0.1,0-0.3,0.2-0.1,0.2c2.3,0.1,4.7-0.2,7-0.5c3.4-0.4,6.8-1,10.1-1.8c7.6-1.7,15.2-3.9,22.2-7.5c3.4-1.7,6.6-3.8,9.2-6.6
			C82.1,711.2,81.8,711.2,81.7,711.3L81.7,711.3z"/>
	</g>
	<g>
		<rect x="46.1" y="684.7" class="st7" width="30.1" height="0.2"/>
	</g>
	<g>
		<rect x="39.6" y="704.2" class="st7" width="42.4" height="0.2"/>
	</g>
	<g>
		<rect x="33.1" y="728.2" class="st7" width="55.5" height="0.2"/>
	</g>
	<g>
		<g>
			<circle class="st18" cx="46.1" cy="684.8" r="1.5"/>
		</g>
		<g>
			<circle class="st15" cx="52.1" cy="684.8" r="1.5"/>
		</g>
		<g>
			<circle class="st15" cx="66.3" cy="675.8" r="1.5"/>
		</g>
		<g>
			<circle class="st19" cx="58.1" cy="684.8" r="1.5"/>
		</g>
		<g>
			<circle class="st18" cx="70.2" cy="684.8" r="1.5"/>
		</g>
		<g>
			<ellipse class="st18" cx="58.5" cy="666.7" rx="1.5" ry="1.5"/>
		</g>
		<g>
			<circle class="st7" cx="64.2" cy="684.9" r="1.5"/>
		</g>
		<g>
			<circle class="st7" cx="52.1" cy="674.9" r="1.5"/>
		</g>
		<g>
			<circle class="st19" cx="76.2" cy="684.8" r="1.5"/>
		</g>
		<g>
			<circle class="st19" cx="73.6" cy="679.4" r="1.5"/>
		</g>
	</g>
	<g>
		<g>
			<circle class="st18" cx="46.1" cy="704.3" r="1.5"/>
		</g>
		<g>
			<circle class="st15" cx="40" cy="704.3" r="1.5"/>
		</g>
		<g>
			<circle class="st15" cx="56" cy="698" r="1.5"/>
		</g>
		<g>
			<circle class="st15" cx="52.1" cy="704.3" r="1.5"/>
		</g>
		<g>
			<circle class="st15" cx="67.9" cy="691.9" r="1.5"/>
		</g>
		<g>
			<circle class="st19" cx="58.1" cy="704.3" r="1.5"/>
		</g>
		<g>
			<circle class="st18" cx="70.2" cy="704.3" r="1.5"/>
		</g>
		<g>
			<circle class="st18" cx="50.6" cy="694.5" r="1.5"/>
		</g>
		<g>
			<circle class="st7" cx="64.2" cy="704.3" r="1.5"/>
		</g>
		<g>
			<circle class="st19" cx="76.2" cy="704.3" r="1.5"/>
		</g>
		<g>
			<circle class="st19" cx="73.6" cy="698" r="1.5"/>
		</g>
		<g>
			<circle class="st18" cx="81.9" cy="704.3" r="1.5"/>
		</g>
	</g>
	<g>
		<g>
			<circle class="st18" cx="46.1" cy="728.3" r="1.5"/>
		</g>
		<g>
			<circle class="st18" cx="66.4" cy="712.4" r="1.5"/>
		</g>
		<g>
			<circle class="st15" cx="40" cy="728.3" r="1.5"/>
		</g>
		<g>
			<circle class="st19" cx="33.6" cy="728.3" r="1.5"/>
		</g>
		<g>
			<circle class="st19" cx="80.4" cy="720" r="1.5"/>
		</g>
		<g>
			<circle class="st15" cx="52.1" cy="728.3" r="1.5"/>
		</g>
		<g>
			<circle class="st15" cx="55.2" cy="719.3" r="1.5"/>
		</g>
		<g>
			<circle class="st19" cx="58.1" cy="728.3" r="1.5"/>
		</g>
		<g>
			<circle class="st7" cx="64.2" cy="728.3" r="1.5"/>
		</g>
		<g>
			<circle class="st7" cx="73.6" cy="721.8" r="1.5"/>
		</g>
		<g>
			<circle class="st7" cx="47.6" cy="712.9" r="1.5"/>
		</g>
		<g>
			<circle class="st18" cx="70.2" cy="728.3" r="1.5"/>
		</g>
		<g>
			<circle class="st18" cx="41.6" cy="721.3" r="1.5"/>
		</g>
		<g>
			<circle class="st19" cx="76.2" cy="728.3" r="1.5"/>
		</g>
		<g>
			<circle class="st7" cx="81.9" cy="728.3" r="1.5"/>
		</g>
		<g>
			<circle class="st18" cx="88.3" cy="728.3" r="1.5"/>
		</g>
	</g>
</g>
<g>
	<g>
		<path class="st20" d="M339.8,739.7c0.4-0.1,0.6-0.7,0.7-1.1c0.9-4.4,1.2-8.9,0.8-13.3c-0.1-0.7-0.2-1.5-0.6-2.1s-1.2-1-1.9-0.7
			c-0.8,0.3-0.9,1.3-1,2.2c-0.1,1.1-0.1,2.3-0.2,3.4c-0.2,3.5-0.4,7.2,0.8,10.5C338.8,739.2,339.3,739.9,339.8,739.7z"/>
		<path class="st20" d="M320.4,739c2.3-2.9,4.5-17,0.3-17.5c-1.9-0.2-2.3,2-2.3,3.4c0,4.3-0.9,9-0.2,13.2c0.1,0.7,0.5,1.3,1.2,1.5
			C319.8,739.6,320.1,739.4,320.4,739z"/>
		<path class="st21" d="M346.6,722.1c-0.7,5.3-1.4,10.7-2.1,16c-0.1,0.5-0.3,1.2-0.8,1.1c-0.3-0.1-0.5-0.4-0.6-0.7
			c-0.5-1.2-2.6-14.1-2.6-14.1c-4.7,1.7-10.2,2.2-15.2,1.1c0.2,0,0.1,3.2,0.1,3.6c0,1.2-0.1,2.4-0.1,3.7c-0.1,1.2-0.2,2.5-0.3,3.7
			c0,0.6,0,1.1,0,1.7c0,0.5,0,1.1-0.2,1.5c-0.1,0.2-0.3,0.4-0.5,0.4c-0.2,0-0.4-0.1-0.6-0.2c-0.6-0.6-0.7-1.4-0.9-2.1
			c-0.2-0.6-0.3-1.2-0.5-1.8c-0.3-1.2-0.5-2.4-0.7-3.7c-0.2-1.2-0.3-2.5-0.4-3.7c0-0.6-0.1-1.2-0.1-1.9c0-0.3,0-0.6,0-1
			c0-0.1,0.1-0.7,0-0.8c-5.6-5.6-7.6-14.8-4.9-22.2c0.3-0.8,0.7-1.6,1.3-2.2c1.6-1.3,2.4-0.3,2.8,1c0.3,0.9,0.4,1.9,0.4,2.5
			c0.3,4.6,2.5,8.7,7.4,9.1c5.2,0.4,11.8-3.9,16.5-0.3C347.2,714.9,347,718.8,346.6,722.1z"/>
		<path class="st22" d="M317.2,712.1c-0.1,1.2-0.5,2.3-0.9,3.4c0,0.1-0.1,0.2-0.1,0.4c-0.1,0.2-0.1,0.4-0.2,0.6
			c-0.2,0.5-0.3,0.9-0.5,1.4c0,0.2-0.1,0.3-0.1,0.5c-0.1,0.3-0.1,0.5-0.2,0.8c0,0.1-0.1,0.2-0.1,0.4c-0.1,0.2-0.1,0.5-0.1,0.7
			c-0.1,0.4-0.1,0.8-0.1,1.2c0,0.3,0,0.6,0,0.8l0,0c0,0.1,0,0.3,0,0.4c0.1,0.8,0.3,1.6,0.7,2.3c-1.4,0.1-3,0.3-4.2,1
			c-0.2-0.6-0.3-1.2-0.4-1.7c0-0.1,0-0.2,0-0.3c0-0.5-0.1-1,0-1.6c0-0.7,0.2-1.5,0.4-2.2c0.1-0.3,0.2-0.6,0.3-0.9
			c0-0.1,0.1-0.2,0.1-0.3c0.2-0.4,0.3-0.8,0.6-1.1c0-0.1,0.1-0.2,0.2-0.3c0.4-0.6,0.8-1.2,1.3-1.9c0.1-0.2,0.2-0.3,0.3-0.5
			c0.1-0.1,0.1-0.2,0.2-0.3c0.5-0.8,0.9-1.7,0.9-2.7C315.8,712,316.5,712.2,317.2,712.1z"/>
		<path class="st23" d="M316.9,684.2c-1.4-1.7-2.1-4-3-6c-0.5-1.1-1-2.3-1.5-3.4l0,0c0.1-0.1,0.2-0.1,0.2-0.2
			c0.2-0.4,0.2-0.8,0.3-1.2c0.1-0.5,0.3-0.9,0.4-1.3c0.2-0.4-0.2-0.9-0.6-1c-0.5-0.1-0.8,0.2-1,0.6c-0.1,0.3-0.3,0.7-0.3,1
			c-0.2-0.4-0.4-0.8-0.7-1.1c-0.6-0.7-1.7,0.1-1.5,0.9c0.3,1.1,1,2.3,1.6,3.3c-0.3-0.1-0.6-0.2-0.9-0.3c-0.5-0.2-1.1,0.2-1.3,0.7
			c-0.2,0.6,0.2,1.1,0.7,1.3c0.8,0.3,1.7,0.6,2.5,0.5l0,0c0.3,0.6,0.6,1.2,0.9,1.8c0.9,1.8,1.6,4.5,3.8,5.2
			C316.9,685.1,317.2,684.5,316.9,684.2z"/>
		<path class="st23" d="M321.9,683.8c1.4-1.7,2.1-4,3-6c0.5-1.1,1-2.3,1.5-3.4l0,0c-0.1-0.1-0.2-0.1-0.2-0.2
			c-0.2-0.4-0.2-0.8-0.3-1.2c-0.1-0.5-0.3-0.9-0.4-1.3c-0.2-0.4,0.2-0.9,0.6-1c0.5-0.1,0.8,0.2,1,0.6c0.1,0.3,0.3,0.7,0.3,1
			c0.2-0.4,0.4-0.8,0.7-1.1c0.6-0.7,1.7,0.1,1.5,0.9c-0.3,1.1-1,2.3-1.6,3.3c0.3-0.1,0.6-0.2,0.9-0.3c0.5-0.2,1.1,0.2,1.3,0.7
			c0.2,0.6-0.2,1.1-0.7,1.3c-0.8,0.3-1.7,0.6-2.5,0.5l0,0c-0.3,0.6-0.6,1.2-0.9,1.8c-0.9,1.8-1.6,4.5-3.8,5.2
			C321.9,684.7,321.6,684.1,321.9,683.8z"/>
		<path class="st21" d="M317.2,683.8c-0.5,1.5-1.7,2.6-3.2,3.1c-0.4,0.1-0.8,0.2-1.2,0.3c-2,0.1-4-1-4.9-2.7c-0.2-0.5-0.4-1-0.4-1.5
			c0-0.3,0-0.9,0.3-1.1c0.2-0.2,0.9,0.3,1.2,0.4c0.9,0.4,1.8,0.7,2.7,0.9s1.8,0.4,2.7,0.5C314.7,683.7,317.2,684,317.2,683.8z"/>
		<path class="st20" d="M314,686.9c-0.4,0.1-0.8,0.2-1.2,0.3c-2,0.1-4-1-4.9-2.7c-0.1-0.3-0.3-0.7-0.3-1c0.1-0.6,0.6-0.1,0.8,0.1
			c0.7,0.6,1.4,1,2.2,1.4c0.7,0.3,1.4,0.5,2.2,0.6c0.6,0.1,1.2,0.2,1.3,0.9C314.2,686.6,314.1,686.8,314,686.9z"/>
		<path class="st21" d="M321.2,683.8c0.5,1.5,1.7,2.6,3.2,3.1c0.4,0.1,0.8,0.2,1.2,0.3c2,0.1,4-1,4.9-2.7c0.2-0.5,0.4-1,0.4-1.5
			c0-0.3,0-0.9-0.3-1.1c-0.2-0.2-0.9,0.3-1.2,0.4c-0.9,0.4-1.8,0.7-2.7,0.9s-1.8,0.4-2.7,0.5C323.7,683.7,321.3,684,321.2,683.8z"/>
		<path class="st20" d="M324.4,686.9c0.4,0.1,0.8,0.2,1.2,0.3c2,0.1,4-1,4.9-2.7c0.1-0.3,0.3-0.7,0.3-1c-0.1-0.6-0.6-0.1-0.8,0.1
			c-0.7,0.6-1.4,1-2.2,1.4c-0.7,0.3-1.4,0.5-2.2,0.6c-0.6,0.1-1.2,0.2-1.3,0.9C324.3,686.6,324.3,686.8,324.4,686.9z"/>
		<path class="st21" d="M326.4,693.7c-0.3-4.9-1.4-10-6.1-10.7c-2.4-0.3-4.9,0.8-6.3,2.7c-2.1,2.8-2.1,6.7-2.3,10.1
			c-0.1,3.2-1.3,6.9,1.5,9.3c1.7,1.5,4.3,1.5,6.6,1.5c1.3,0,2.7,0,3.9-0.4c1.3-0.4,2.4-1.2,2.9-2.4c0.5-1.1,0.3-2.3,0.2-3.4
			C326.5,698.5,326.6,696.2,326.4,693.7z"/>
		<path class="st24" d="M315.9,700c-1.5,0.7-2.6,1.9-2.5,3.5c0.2,5,11.4,4.1,11.1-0.9C324.4,699,319.2,698.5,315.9,700z"/>
		<path class="st23" d="M319.4,702.7c1.1-0.1,2.4-0.2,2.8-0.8c0.5-0.6-0.3-1.3-1.4-1.6c-1.1-0.2-2.3-0.1-3.3,0.1
			c-1,0.2-2,0.7-1.9,1.3c0.1,0.4,0.8,0.8,1.5,0.9C317.8,702.8,318.6,702.7,319.4,702.7z"/>
		<path class="st25" d="M316.1,693.5c-0.4,0-0.7,0.3-0.7,0.7v0.6c0,0.4,0.3,0.8,0.7,0.7c0.4,0,0.7-0.3,0.7-0.7v-0.6
			C316.9,693.9,316.5,693.5,316.1,693.5z"/>
		<path class="st25" d="M322.3,693.8c-0.4,0-0.7,0.4-0.7,0.8v0.4c0,0.4,0.3,0.8,0.7,0.8s0.7-0.4,0.7-0.8v-0.4
			C323,694.2,322.7,693.8,322.3,693.8z"/>
		<path class="st20" d="M340.5,724.5l-0.1,0.1C340.4,724.5,340.5,724.5,340.5,724.5z"/>
		<path class="st26" d="M340.5,724.5c-4.7,1.7-10.2,2.2-15.2,1.1c0,0-2-5.9,6.4-7.1C340,717.3,342,720.5,340.5,724.5z"/>
		<path class="st21" d="M345,719c-1.3,0.3-2.7-0.3-3.4-1.4c-0.7-1.1-0.6-2.6,0-3.7c0.7-1.3,2.2-2.2,2.8-3.6c0.2-0.5,0.3-1.1,0.6-1.5
			c0.3-0.5,0.8-0.9,1.3-0.8c0.8,0.1,1.1,1,1.2,1.8c0.2,1.3,0.3,2.6,0.3,4c0,1.1-0.1,2.2-0.5,3.2C346.9,717.9,346.1,718.8,345,719z"
			/>
		<path class="st27" d="M324.3,710.7c-0.9,1.9-2.4,1.9-4.3,2.2c-1.9,0.3-4.1,0.1-5.8-0.8c0-0.2,0-0.3-0.1-0.5c0-0.1,0-0.2,0-0.3l0,0
			c0-0.2,0-0.3,0-0.5c0-0.1,0-0.2,0-0.3c0-0.5,0.1-1,0.1-1.5c0-0.1,0-0.1,0-0.2v-0.1c0-0.4,0.1-0.8,0.1-1.2c2.6,1.3,5.7,1.4,8.3,0.1
			c0.1,0.2,0.2,0.4,0.4,0.6c0,0.1,0.1,0.1,0.1,0.2l0.1,0.1c0.1,0.2,0.2,0.4,0.3,0.6c0.1,0.1,0.1,0.3,0.2,0.4c0,0.1,0.1,0.2,0.1,0.3
			s0.1,0.1,0.1,0.2l0,0c0,0.1,0.1,0.1,0.1,0.2C324.2,710.5,324.3,710.6,324.3,710.7z"/>
		<path class="st28" d="M324.1,710.2L324.1,710.2c-1.3,1.2-3,1.9-4.8,2.1c-1.7,0.2-3.6-0.1-5.1-0.9l0,0c0-0.2,0-0.3,0-0.5
			c0-0.1,0-0.2,0-0.3c0-0.5,0.1-1,0.1-1.5c0-0.1,0-0.1,0-0.2c1.5,0.5,3.2,0.8,4.8,0.8c1.4,0,2.9-0.4,4.1-1.1l0.1,0.1
			c0.1,0.2,0.2,0.4,0.3,0.6c0.1,0.1,0.1,0.3,0.2,0.4c0,0.1,0.1,0.2,0.1,0.3C324,710,324,710.1,324.1,710.2z"/>
		<path class="st22" d="M323.3,708.5c-1.1,0.9-2.8,1.1-4.1,1.1c-1.6,0-3.4,0-4.9-0.7c0-0.1,0-0.2,0-0.4c1.6,0.6,3.2,0.8,4.9,0.7
			c0.9,0,1.7-0.1,2.5-0.4c0.5-0.2,1-0.4,1.4-0.7C323.1,708.3,323.2,708.4,323.3,708.5z"/>
		<path class="st22" d="M324.1,710.4c-0.5,0.4-1,0.7-1.5,1c-0.9,0.5-1.8,0.8-2.8,1c-1.9,0.3-3.9,0.2-5.7-0.7c0-0.1,0-0.2,0-0.3
			c1.9,0.7,3.8,1,5.8,0.6c1-0.2,1.9-0.5,2.7-1c0.5-0.3,0.9-0.6,1.3-0.9C324,710.1,324.1,710.2,324.1,710.4z"/>
		<path class="st29" d="M323.8,709.6c-0.1,0.2-0.2,0.4-0.4,0.5c-0.5,0.3-0.9,0.2-1.5,0.1c-0.5-0.1-0.8,0-1.1,0.5
			c-0.1,0.2-0.2,0.3-0.4,0.5c-0.4,0.3-0.8-0.1-1.1-0.2c-0.8-0.5-1,0.5-1.7,0.6c-0.6,0.2-1-0.2-1.4-0.6c-0.4-0.4-0.8-0.9-1.3-0.3
			c-0.1,0.1-0.3,0.3-0.5,0.3c-0.1,0-0.2,0-0.3-0.1c0-0.1,0-0.2,0-0.3c0.2,0.1,0.4,0,0.7-0.3c0.1-0.1,0.3-0.2,0.4-0.3
			c0.3-0.1,0.8,0.2,1,0.4c0.2,0.2,0.5,0.6,0.8,0.7c0.5,0.2,0.8-0.2,1.1-0.4c0.3-0.2,0.5-0.4,0.9-0.3c0.6,0.1,1,0.9,1.6,0.1
			c0.2-0.3,0.4-0.6,0.7-0.7c0.5-0.1,0.8,0.1,1.3,0.1c0.7,0.1,0.9-0.3,1.1-0.7C323.7,709.3,323.8,709.5,323.8,709.6z"/>
		<path class="st29" d="M314.5,708.3c-0.2,0-0.2,0.3,0,0.3C314.7,708.6,314.7,708.3,314.5,708.3z"/>
		<path class="st29" d="M315.5,708.6c-0.2,0-0.2,0.2,0,0.2C315.7,708.9,315.7,708.6,315.5,708.6z"/>
		<path class="st29" d="M316.7,708.9c-0.2,0-0.2,0.2,0,0.2C316.8,709.1,316.8,708.9,316.7,708.9z"/>
		<path class="st29" d="M317.9,709c-0.2,0-0.2,0.3,0,0.3C318.1,709.3,318.1,709,317.9,709z"/>
		<path class="st29" d="M319.1,709c-0.2,0-0.2,0.3,0,0.3C319.3,709.2,319.3,709,319.1,709z"/>
		<path class="st29" d="M320.4,708.9c-0.2,0-0.2,0.3,0,0.3C320.6,709.2,320.6,708.9,320.4,708.9z"/>
		<path class="st29" d="M321.7,708.5c-0.1,0-0.1,0.2,0,0.2S321.8,708.5,321.7,708.5z"/>
		<path class="st29" d="M322.7,708.1c-0.2,0-0.2,0.2,0,0.2C322.8,708.4,322.8,708.1,322.7,708.1z"/>
		<path class="st29" d="M314.4,711.9c-0.2,0-0.2,0.3,0,0.3C314.6,712.2,314.6,711.9,314.4,711.9z"/>
		<path class="st29" d="M315.4,712.3c-0.2,0-0.2,0.2,0,0.2C315.5,712.6,315.5,712.3,315.4,712.3z"/>
		<path class="st29" d="M316.6,712.6c-0.2,0-0.2,0.3,0,0.3C316.8,712.9,316.8,712.6,316.6,712.6z"/>
		<path class="st29" d="M317.9,712.7c-0.2,0-0.2,0.2,0,0.2C318,713,318,712.7,317.9,712.7z"/>
		<path class="st29" d="M319.3,712.7c-0.1,0-0.1,0.2,0,0.2S319.4,712.7,319.3,712.7z"/>
		<path class="st29" d="M320.7,712.5c-0.2,0-0.2,0.2,0,0.2C320.8,712.7,320.8,712.5,320.7,712.5z"/>
		<path class="st29" d="M321.9,712.2c-0.2,0-0.2,0.2,0,0.2C322.1,712.4,322.1,712.2,321.9,712.2z"/>
		<path class="st29" d="M323.1,711.5c-0.2,0-0.2,0.2,0,0.2C323.3,711.7,323.3,711.5,323.1,711.5z"/>
		<path class="st29" d="M323.8,710.9c-0.2,0-0.2,0.3,0,0.3C324,711.2,324,710.9,323.8,710.9z"/>
		<path class="st22" d="M314.5,709.6c-0.2,0-0.2,0.3,0,0.3C314.7,709.9,314.7,709.6,314.5,709.6z"/>
		<path class="st22" d="M315.6,710.9c-0.2,0-0.2,0.4,0,0.4C315.9,711.3,315.9,710.9,315.6,710.9z"/>
		<path class="st22" d="M317.4,710.2c-0.2,0-0.2,0.4,0,0.4C317.6,710.5,317.6,710.2,317.4,710.2z"/>
		<path class="st22" d="M319,711.2c-0.2,0-0.2,0.4,0,0.4C319.2,711.6,319.2,711.2,319,711.2z"/>
		<path class="st22" d="M320.1,710L320.1,710c-0.2-0.1-0.3,0-0.3,0.1l0,0c0,0.1,0.1,0.2,0.2,0.2l0,0
			C320.2,710.4,320.2,710.2,320.1,710z"/>
		<path class="st22" d="M321.7,710.6c-0.2,0-0.2,0.4,0,0.4C321.9,710.9,321.9,710.6,321.7,710.6z"/>
		<path class="st22" d="M322.7,709.3c-0.2,0-0.2,0.4,0,0.4C322.9,709.7,323,709.3,322.7,709.3z"/>
		<path class="st27" d="M314.8,722.6c-0.5,0.2-1,0.3-1.5,0.5c-0.8,0.3-1.6,0.7-2.4,1c0-0.1,0-0.2,0-0.3c0.8-0.4,1.6-0.7,2.3-1
			c0.5-0.2,1.1-0.4,1.6-0.6C314.8,722.4,314.8,722.5,314.8,722.6z"/>
		<path class="st27" d="M315.2,719.1c0,0.1-0.1,0.2-0.1,0.4c-0.4-0.1-0.8-0.1-1.3-0.2c-0.8-0.1-1.6-0.1-2.3-0.2
			c0-0.1,0.1-0.2,0.1-0.3c0.8,0,1.6,0.1,2.5,0.2C314.5,719,314.8,719,315.2,719.1z"/>
		<path class="st27" d="M316.4,715.5c0,0.1-0.1,0.2-0.1,0.4c-0.5-0.2-1.1-0.4-1.6-0.5c-0.2-0.1-0.5-0.1-0.7-0.2
			c0.1-0.1,0.1-0.2,0.2-0.3c0.4,0.1,0.7,0.2,1.1,0.3C315.6,715.3,316,715.4,316.4,715.5z"/>
		<path class="st29" d="M312.5,718.5c-0.1-0.1-0.3,0-0.4,0c-0.1,0-0.1,0.1,0,0.1C312.2,718.6,312.4,718.7,312.5,718.5
			C312.5,718.6,312.5,718.5,312.5,718.5z"/>
		<path class="st29" d="M313.1,718.5L313.1,718.5c-0.1,0-0.2,0-0.2,0c-0.1,0-0.1,0.2,0,0.2h0.1C313.1,718.6,313.1,718.6,313.1,718.5
			C313.2,718.6,313.2,718.5,313.1,718.5z"/>
		<path class="st29" d="M314.1,718.4c-0.1,0-0.2,0-0.3,0s-0.1,0.1,0,0.2c0.1,0,0.2,0,0.3,0s0.1,0,0.1-0.1c0,0,0,0,0-0.1
			C314.2,718.5,314.2,718.4,314.1,718.4z"/>
		<path class="st29" d="M315,718.6c-0.1,0-0.1,0-0.2,0s-0.1,0.2,0,0.2s0.1,0,0.2,0C315.1,718.8,315.1,718.6,315,718.6z"/>
		<path class="st29" d="M315,714.5c-0.1-0.1-0.2-0.1-0.3-0.1s-0.1,0.1,0,0.2C314.8,714.6,314.9,714.7,315,714.5
			C315,714.6,315,714.5,315,714.5z"/>
		<path class="st29" d="M315.3,714.6c-0.1,0-0.1,0.1,0,0.2c0.1,0,0.3,0.2,0.3,0S315.4,714.6,315.3,714.6z"/>
		<path class="st29" d="M316.3,714.8c-0.1-0.1-0.2-0.1-0.3-0.1c-0.1,0-0.1,0.2,0,0.2c0,0,0.1,0,0.1,0.1
			C316.3,715.1,316.4,714.9,316.3,714.8z"/>
		<path class="st29" d="M311.6,723.1c-0.1-0.1-0.3,0-0.4,0.1c-0.1,0,0,0.1,0,0.1C311.3,723.3,311.5,723.3,311.6,723.1L311.6,723.1z"
			/>
		<path class="st29" d="M312.5,722.7c-0.1-0.1-0.3,0-0.4,0.1c-0.1,0.1,0,0.2,0.1,0.2C312.3,722.9,312.4,722.9,312.5,722.7
			C312.5,722.8,312.5,722.7,312.5,722.7z"/>
		<path class="st29" d="M313.5,722.3c-0.1-0.1-0.3,0-0.4,0c-0.1,0-0.1,0.1,0,0.2C313.2,722.5,313.4,722.5,313.5,722.3L313.5,722.3z"
			/>
		<path class="st29" d="M314.5,722c-0.1-0.1-0.4,0-0.5,0.1c-0.1,0.1,0,0.2,0.1,0.1c0.1,0,0.2-0.1,0.2-0.1
			C314.4,722.1,314.4,722.1,314.5,722C314.6,722.1,314.6,722,314.5,722z"/>
		<path class="st28" d="M316,716.5c-0.2,0.5-0.3,0.9-0.5,1.4c-1.1-0.2-2.2-0.2-3.4-0.1c0-0.1,0.1-0.2,0.2-0.3
			c0.4-0.6,0.8-1.2,1.3-1.9C314.4,715.8,315.2,716.1,316,716.5z"/>
		<path class="st28" d="M315,720.2c-0.1,0.4-0.1,0.8-0.1,1.2c-1.4,0-2.7,0.3-4,0.8c0-0.7,0.2-1.5,0.4-2.2c0.1,0,0.2,0,0.3,0
			C312.7,720,313.8,720.1,315,720.2z"/>
		<path class="st26" d="M330,712.6c-0.3,0-0.6,0.1-0.9,0.2c-0.3,0.1-0.7,0.3-1,0.4c-0.4,0.2-0.2,0.9,0.2,0.9s0.7-0.1,1.1-0.2
			c0.3-0.1,0.7-0.2,1-0.5C330.7,713.1,330.4,712.6,330,712.6z"/>
		<path class="st26" d="M334.7,712.3c-0.2,0-0.4,0-0.6,0c-0.2,0-0.4,0-0.6,0c-0.3,0.1-0.5,0.6-0.2,0.8c0.2,0.2,0.4,0.3,0.7,0.3
			c0.1,0,0.2,0,0.3,0c0.2,0,0.3-0.1,0.5-0.1C335.3,713.1,335.2,712.4,334.7,712.3z"/>
		<path class="st26" d="M332.4,714.9c-0.2-0.1,0,0-0.2-0.1c-0.1-0.1-0.3-0.1-0.4-0.1c-0.2,0-0.5,0.1-0.7,0.1c-0.6,0.1-0.5,1.1,0.1,1
			c0.2,0,0.4,0,0.6-0.1c0.1,0,0.2-0.1,0.3-0.1c0.1-0.1,0.1-0.1,0.2-0.2C332.6,715.3,332.6,715,332.4,714.9z"/>
		<path class="st26" d="M335.1,715c-0.2,0-0.4,0-0.6,0.1c-0.3,0.1-0.3,0.6,0,0.8c0.2,0.1,0.3,0.1,0.6,0.1c0.3,0,0.5-0.2,0.5-0.5
			S335.4,715.1,335.1,715z"/>
		<path class="st26" d="M338.1,712.2c-0.2-0.2-0.5-0.3-0.8-0.3c-0.3,0-0.5,0.4-0.3,0.6c0.2,0.2,0.4,0.3,0.6,0.4c0.2,0,0.4,0,0.5-0.2
			C338.2,712.6,338.2,712.3,338.1,712.2z"/>
		<path class="st26" d="M334,716.8c-0.2-0.3-0.7-0.3-1-0.2c-0.1,0-0.2,0.2-0.3,0.3c0,0.2,0,0.4,0.2,0.4c0.3,0.2,0.7,0.3,1,0.1
			C334.2,717.4,334.2,717,334,716.8z"/>
		<path class="st26" d="M328.3,715.8c-0.1-0.1-0.3,0-0.4,0.1c-0.2,0.2-0.1,0.4,0,0.6c0.1,0.1,0.2,0.2,0.4,0.2c0.2,0,0.4-0.2,0.4-0.4
			C328.7,716,328.5,715.8,328.3,715.8z"/>
		<path class="st26" d="M342.3,731.9L342.3,731.9c-0.1,0.6,0,1.1,0.2,1.6c0.1,0.1,0.2,0.3,0.4,0.3c0.1,0,0.2-0.1,0.2-0.2
			c0.1-0.1,0.1-0.2,0.1-0.3c0.1-0.3,0.1-0.5,0.1-0.8s-0.1-0.6-0.3-0.8C342.6,731.3,342.4,731.5,342.3,731.9z"/>
		<path class="st26" d="M322.1,732.6L322.1,732.6c-0.1,0.6,0,1.1,0.2,1.6c0.1,0.1,0.2,0.3,0.4,0.3c0.1,0,0.2-0.1,0.2-0.2
			c0.1-0.1,0.1-0.2,0.1-0.3c0.1-0.3,0.1-0.5,0.1-0.8s-0.1-0.6-0.3-0.8C322.4,732.1,322.2,732.2,322.1,732.6z"/>
		<path class="st30" d="M323.7,683.8L323.7,683.8c0.3-0.8,0.1-1.6,0-2.3c0-0.2,0-0.3-0.2-0.4c-0.1-0.1-0.3-0.1-0.5-0.1
			c-1.8,0.2-3.6,0.4-5.4,0.6c-0.4,0-0.9,0.1-1.3,0.1c-0.3,0-1.1,0-1.3,0.1c-0.4,0.3,0.1,1.2,0.2,1.6c0.1,0.4,0.1,0.9,0.3,1.2
			c0.3,0.5,1,0.4,1.5,0.5c1.4,0.2,2.9,0.1,4.3,0C322.2,685,323.3,684.5,323.7,683.8z"/>
		<path class="st28" d="M318.6,674.8c0.2-0.3,0.4-0.5,0.7-0.7c0.5-0.2,1.1,0,1.6,0.4c0.9,0.6,1.7,1.4,2.4,2.3c0.3,0.5,0.6,1,0.8,1.5
			c0.3,0.6-0.3,0.2-0.5,0.1c-0.2-0.1-0.4-0.2-0.7-0.3c-0.2-0.1-0.4-0.1-0.7-0.1c-0.1,0-0.7,0.1-0.7,0.1c0.4,0.7,0.8,1.4,1.1,2.1
			c0.2,0.4,0.7,1.2,0.4,1.6c-0.3,0.5-0.9,0.6-1.4,0.7c-0.8,0.1-1.6,0.3-2.4,0.3c-0.8,0.1-1.5,0.1-2.3,0c-0.4,0-1.1-0.1-1.3-0.5
			c-0.4-0.8,0.6-2.8,0.8-3.6C317.1,677.3,317.8,676,318.6,674.8z"/>
		<path class="st30" d="M323.5,678.6c-0.1,0.2-0.1,0.3,0,0.5c0.1,0.1,0.2,0.3,0.3,0.3c0.3,0.2,0.7,0.2,1,0c0.3-0.2,0.4-0.6,0.3-0.9
			C324.8,677.7,323.8,677.9,323.5,678.6z"/>
		<path class="st31" d="M322.7,684.1c0.1-0.1,0.3-0.2,0.4-0.3c0.1-0.1,0.1-0.3,0-0.4c-0.1-0.2-0.4-0.2-0.6-0.1
			c-0.7,0.1-1.3,0.2-2,0.3c-0.9,0.1-1.8,0.2-2.7,0.3c-0.3,0-1,0-1.3,0.2c-0.6,0.4,0.5,0.6,0.7,0.7c0.6,0.2,1.2,0.2,1.8,0.3
			C320.3,685,321.6,684.7,322.7,684.1z"/>
		<path class="st32" d="M316.8,681.8c-0.1-0.3-0.1-0.5,0-0.8c0.2-1.4,0.7-2.7,1.5-3.9c0.3-0.5,0.7-1,1.2-0.9
			c0.4,0.1,0.7,0.5,0.9,0.9c0.4,0.8,0.7,1.7,1,2.6c0.1,0.5,0.2,1,0.1,1.5c-0.2,0.5-0.7,0.9-1.2,1.1c-0.5,0.2-1.1,0.2-1.7,0.2
			c-0.3,0-0.7,0-1-0.1C317.2,682.4,316.9,682.2,316.8,681.8z"/>
		<path class="st31" d="M324.3,678.3c-0.1,0-0.2,0-0.3,0.1c-0.1,0.1-0.2,0.2-0.2,0.4c0,0.1,0,0.2,0,0.3c0.1,0.1,0.2,0.2,0.3,0.2
			c0.2,0,0.4-0.2,0.5-0.4C324.7,678.5,324.5,678.3,324.3,678.3z"/>
	</g>
</g>
<g class="st33">
	<path class="st7" d="M75.2,395.2c0-0.4-0.4-0.8-0.8-0.8s-0.8,0.4-0.8,0.8s0.4,0.8,0.8,0.8C74.9,396,75.2,395.6,75.2,395.2z"/>
	<path class="st7" d="M354.7,159.7c0-0.8-0.6-1.4-1.4-1.4s-1.4,0.6-1.4,1.4c0,0.8,0.6,1.4,1.4,1.4S354.7,160.5,354.7,159.7z"/>
	<path class="st7" d="M130.2,126c0-0.8-0.6-1.4-1.4-1.4c-0.8,0-1.4,0.6-1.4,1.4s0.6,1.4,1.4,1.4C129.6,127.5,130.2,126.8,130.2,126z
		"/>
	<path class="st7" d="M76.7,563.9c0-1.8-1.4-3.2-3.2-3.2c-1.8,0-3.2,1.4-3.2,3.2s1.4,3.2,3.2,3.2C75.3,567,76.7,565.6,76.7,563.9z"
		/>
	<path class="st7" d="M261,671.3c0-0.7-0.5-1.2-1.2-1.2s-1.2,0.5-1.2,1.2s0.5,1.2,1.2,1.2S261,672,261,671.3z"/>
	<path class="st7" d="M339.8,83.7c0-0.4-0.3-0.7-0.7-0.7c-0.4,0-0.7,0.3-0.7,0.7c0,0.4,0.3,0.7,0.7,0.7
		C339.5,84.4,339.8,84.1,339.8,83.7z"/>
	<path class="st7" d="M379.8,499.2c0-1.8-1.4-3.2-3.2-3.2c-1.8,0-3.2,1.4-3.2,3.2s1.4,3.2,3.2,3.2
		C378.3,502.5,379.8,501,379.8,499.2z"/>
	<path class="st7" d="M32,767.9c0-2.3-1.9-4.2-4.2-4.2s-4.2,1.9-4.2,4.2s1.9,4.2,4.2,4.2S32,770.2,32,767.9z"/>
	<path class="st7" d="M439.6,314.5c0-1-0.8-1.8-1.8-1.8s-1.8,0.8-1.8,1.8s0.8,1.8,1.8,1.8C438.8,316.3,439.6,315.5,439.6,314.5z"/>
	<path class="st7" d="M431.9,299.1c0-0.5-0.4-0.9-0.9-0.9s-0.9,0.4-0.9,0.9s0.4,0.9,0.9,0.9S431.9,299.6,431.9,299.1z"/>
	<path class="st7" d="M32.1,283.2c0-1.1-0.9-2-2-2s-2,0.9-2,2s0.9,2,2,2C31.2,285.2,32.1,284.3,32.1,283.2z"/>
	<path class="st7" d="M162.8,63.8c0-0.9-0.7-1.6-1.6-1.6c-0.9,0-1.6,0.7-1.6,1.6s0.7,1.6,1.6,1.6S162.8,64.7,162.8,63.8z"/>
	<path class="st7" d="M82.1,672.8c0-1.9-1.5-3.4-3.4-3.4s-3.4,1.5-3.4,3.4s1.5,3.4,3.4,3.4S82.1,674.7,82.1,672.8z"/>
	<path class="st7" d="M332.1,597.4c0-0.3-0.2-0.5-0.5-0.5s-0.5,0.2-0.5,0.5s0.2,0.5,0.5,0.5S332.1,597.7,332.1,597.4z"/>
	<path class="st7" d="M317,562.1c0-0.9-0.7-1.5-1.5-1.5s-1.5,0.7-1.5,1.5s0.7,1.5,1.5,1.5C316.4,563.6,317,562.9,317,562.1z"/>
	<path class="st7" d="M370.8,92c0-0.8-0.7-1.5-1.5-1.5s-1.5,0.7-1.5,1.5s0.7,1.5,1.5,1.5C370.2,93.5,370.8,92.8,370.8,92z"/>
	<path class="st7" d="M311.1,160.3c0-0.8-0.6-1.4-1.4-1.4s-1.4,0.6-1.4,1.4c0,0.8,0.6,1.4,1.4,1.4S311.1,161.1,311.1,160.3z"/>
	<path class="st7" d="M68.9,141.7c0-1-0.8-1.8-1.8-1.8s-1.8,0.8-1.8,1.8s0.8,1.8,1.8,1.8S68.9,142.7,68.9,141.7z"/>
	<path class="st7" d="M346,31.6c0-0.5-0.4-0.9-0.9-0.9s-0.9,0.4-0.9,0.9c0,0.5,0.4,0.9,0.9,0.9S346,32.1,346,31.6z"/>
	<path class="st7" d="M280.2,55.8c0-0.4-0.4-0.8-0.8-0.8s-0.8,0.4-0.8,0.8c0,0.4,0.4,0.8,0.8,0.8C279.8,56.6,280.2,56.3,280.2,55.8z
		"/>
	<path class="st7" d="M3.7,568.5c0-1-0.8-1.8-1.8-1.8s-1.8,0.8-1.8,1.8s0.8,1.8,1.8,1.8S3.7,569.5,3.7,568.5z"/>
	<path class="st7" d="M163.3,306.4c0-2.3-1.9-4.2-4.2-4.2s-4.2,1.9-4.2,4.2c0,2.3,1.9,4.2,4.2,4.2
		C161.4,310.6,163.3,308.7,163.3,306.4z"/>
	<path class="st7" d="M73.5,446.3c0-1-0.8-1.8-1.7-1.8c-1,0-1.7,0.8-1.7,1.8s0.8,1.7,1.7,1.7S73.5,447.3,73.5,446.3z"/>
	<path class="st7" d="M341.3,398c0-0.5-0.4-1-1-1c-0.5,0-1,0.4-1,1c0,0.5,0.4,1,1,1C340.8,399,341.3,398.6,341.3,398z"/>
	<path class="st7" d="M449.9,490.3c0-0.8-0.7-1.5-1.5-1.5s-1.5,0.7-1.5,1.5s0.7,1.5,1.5,1.5C449.3,491.7,449.9,491.1,449.9,490.3z"
		/>
	<path class="st7" d="M212.1,467.4c0-0.7-0.5-1.2-1.2-1.2s-1.2,0.5-1.2,1.2s0.5,1.2,1.2,1.2S212.1,468.1,212.1,467.4z"/>
	<path class="st7" d="M190.6,52.7c0-0.7-0.6-1.3-1.3-1.3S188,52,188,52.7s0.6,1.3,1.3,1.3S190.6,53.4,190.6,52.7z"/>
	<path class="st7" d="M434.8,332.7c0-1.2-1-2.2-2.1-2.2c-1.2,0-2.1,1-2.1,2.2s1,2.1,2.1,2.1C433.9,334.9,434.8,333.9,434.8,332.7z"
		/>
	<path class="st7" d="M104.4,236.2c0-0.4-0.3-0.7-0.7-0.7c-0.4,0-0.7,0.3-0.7,0.7s0.3,0.7,0.7,0.7
		C104.1,237,104.4,236.6,104.4,236.2z"/>
	<path class="st7" d="M447.3,734.5c0-1.7-1.4-3.1-3-3.1c-1.7,0-3.1,1.4-3.1,3.1c0,1.7,1.4,3.1,3.1,3.1
		C445.9,737.6,447.3,736.2,447.3,734.5z"/>
	<path class="st7" d="M234.5,344.5c0-1.8-1.4-3.2-3.2-3.2s-3.2,1.4-3.2,3.2c0,1.8,1.5,3.2,3.2,3.2S234.5,346.3,234.5,344.5z"/>
	<path class="st7" d="M307.5,410.2c0-0.4-0.4-0.8-0.8-0.8s-0.8,0.4-0.8,0.8c0,0.5,0.4,0.8,0.8,0.8
		C307.1,411.1,307.5,410.7,307.5,410.2z"/>
	<path class="st7" d="M150.1,691.3c0-0.5-0.4-0.9-0.9-0.9s-0.9,0.4-0.9,0.9s0.4,0.9,0.9,0.9C149.7,692.2,150.1,691.8,150.1,691.3z"
		/>
	<path class="st7" d="M339.5,446.6c0-0.5-0.4-1-1-1c-0.5,0-1,0.4-1,1c0,0.5,0.4,1,1,1C339.1,447.5,339.5,447.1,339.5,446.6z"/>
	<path class="st7" d="M168.1,248.3c0-1.1-0.9-1.9-1.9-1.9c-1.1,0-1.9,0.9-1.9,1.9c0,1.1,0.9,1.9,1.9,1.9
		C167.3,250.3,168.1,249.4,168.1,248.3z"/>
	<path class="st7" d="M357.3,671c0-0.6-0.5-1.1-1.1-1.1s-1.1,0.5-1.1,1.1s0.5,1.1,1.1,1.1S357.3,671.6,357.3,671z"/>
	<path class="st7" d="M35.5,237.1c0-0.6-0.5-1-1-1c-0.6,0-1,0.5-1,1c0,0.6,0.5,1,1,1C35.1,238.1,35.5,237.6,35.5,237.1z"/>
	<path class="st7" d="M114.4,289.7c0-0.9-0.7-1.6-1.6-1.6s-1.6,0.7-1.6,1.6s0.7,1.6,1.6,1.6C113.7,291.3,114.4,290.6,114.4,289.7z"
		/>
	<path class="st7" d="M127.6,315.9c0-0.8-0.7-1.5-1.5-1.5s-1.5,0.7-1.5,1.5s0.7,1.5,1.5,1.5S127.6,316.7,127.6,315.9z"/>
	<path class="st7" d="M36.2,140.6c0-0.6-0.5-1.1-1.1-1.1S34,140,34,140.6s0.5,1.1,1.1,1.1C35.7,141.6,36.2,141.2,36.2,140.6z"/>
	<path class="st7" d="M175,664c0-1-0.8-1.9-1.9-1.9s-1.9,0.8-1.9,1.9c0,1,0.8,1.9,1.9,1.9S175,665.1,175,664z"/>
	<path class="st7" d="M195,568.8c0-1.1-0.9-2-2-2s-2,0.9-2,2s0.9,2,2,2S195,569.9,195,568.8z"/>
	<path class="st7" d="M415.6,441.1c0-1.4-1.1-2.5-2.5-2.5s-2.5,1.1-2.5,2.5s1.1,2.5,2.5,2.5S415.6,442.4,415.6,441.1z"/>
	<path class="st7" d="M434.9,587.8c0-1.1-0.9-1.9-1.9-1.9s-1.9,0.9-1.9,1.9c0,1.1,0.9,1.9,1.9,1.9S434.9,588.9,434.9,587.8z"/>
	<path class="st7" d="M121.3,620.3c0-0.9-0.8-1.7-1.7-1.7c-0.9,0-1.7,0.8-1.7,1.7c0,1,0.8,1.7,1.7,1.7
		C120.6,622,121.3,621.2,121.3,620.3z"/>
	<path class="st7" d="M44.9,161.8c0-1.6-1.3-3-3-3c-1.6,0-3,1.3-3,3s1.3,3,3,3C43.5,164.8,44.9,163.5,44.9,161.8z"/>
	<path class="st7" d="M66.4,165.3c0-1.4-1.1-2.5-2.5-2.5s-2.5,1.1-2.5,2.5s1.1,2.5,2.5,2.5S66.4,166.7,66.4,165.3z"/>
	<path class="st7" d="M350.1,307.1c0-2.3-1.9-4.2-4.2-4.2c-2.3,0-4.2,1.9-4.2,4.2c0,2.3,1.9,4.3,4.2,4.3
		C348.2,311.3,350.1,309.4,350.1,307.1z"/>
	<path class="st7" d="M251.4,398.4c0-1-0.8-1.8-1.8-1.8s-1.8,0.8-1.8,1.8s0.8,1.8,1.8,1.8C250.6,400.1,251.4,399.3,251.4,398.4z"/>
	<path class="st7" d="M342.1,691.7c0-0.9-0.7-1.6-1.6-1.6s-1.6,0.7-1.6,1.6s0.7,1.6,1.6,1.6S342.1,692.6,342.1,691.7z"/>
	<path class="st7" d="M246.3,175.1c0-0.6-0.4-1-1-1s-1,0.5-1,1s0.5,1,1,1S246.3,175.7,246.3,175.1z"/>
	<path class="st7" d="M88.4,114.3c0-1.2-0.9-2.1-2.1-2.1c-1.1,0-2.1,0.9-2.1,2.1c0,1.1,0.9,2.1,2.1,2.1
		C87.4,116.3,88.4,115.4,88.4,114.3z"/>
	<path class="st7" d="M271.7,673.7c0-2.3-1.9-4.2-4.2-4.2c-2.3,0-4.2,1.9-4.2,4.2s1.9,4.2,4.2,4.2
		C269.8,678,271.7,676.1,271.7,673.7z"/>
	<ellipse class="st7" cx="22.2" cy="534.7" rx="1.4" ry="1.4"/>
	<path class="st7" d="M419,224c0-0.7-0.6-1.3-1.3-1.3c-0.7,0-1.3,0.6-1.3,1.3s0.6,1.3,1.3,1.3S419,224.7,419,224z"/>
</g>
<g>
	<g>
		<path class="st34" d="M98.7,758c4.8,1.7,10.1,2,15.2,1.2c3.6-0.5,7.2-1.6,10.2-3.7c5.5-3.9,8.2-11.9,8.2-18.3
			c0.1-11.3-5.1-20.8-16.3-24.3c-10.9-3.4-24.3,1.2-30,11.3c-6.9,12.3-1,28.7,12.2,33.7C98.4,757.8,98.6,757.9,98.7,758z"/>
		<path class="st31" d="M94.5,750.7c2.4,1.7,5.5,2.3,8.4,1.8c2.2-0.4,4.4-1.5,5.6-3.5c0.9-1.5,1.2-3.2,1.3-4.9
			c0.4-4.2,0.1-8.5-1.4-12.5c-1.5-3.9-4.3-7.5-8-9.4C89.8,717,87,732.5,88.2,739.7C89,743.9,90.9,748.3,94.5,750.7z"/>
		<path class="st28" d="M127.8,738.9c0,1.8-0.2,3.6-0.4,5.4c-2.9,0.7-6.7,0.2-9.6,0.2c0.2-1.8,0.3-3.5,0.3-5.2
			c0-2.5-0.2-4.8-0.5-7.1c-0.3-2.1-0.8-4.1-1.3-6c-0.4-1.6-1-3.2-1.5-4.7c3.1-0.8,5.8-1.7,8.6-3.2c0.9,1.7,1.6,3.5,2.2,5.3
			c0.7,2,1.2,4,1.6,6C127.6,732.7,127.9,735.8,127.8,738.9z"/>
		<path class="st24" d="M89.6,723.4c-0.4-1.3-1.4-2.4-2.3-3.4c-1-1.1-2.1-2.1-3.2-3c-1.1-0.9-2.3-1.8-3.6-2.5
			c-1-0.6-2.7-1.8-3.9-1.7c-0.9,0.1-1.3,1-0.7,1.7c0.4,0.5,1.1,0.7,1.7,1c0.6,0.3,1.2,0.6,1.8,0.9c1.2,0.7,2.3,1.4,3.4,2.2
			c1.1,0.8,2.1,1.8,3.1,2.8c0.9,0.9,1.7,2,2.8,2.8C89.1,724.6,89.8,724,89.6,723.4z"/>
		<path class="st28" d="M79.8,712.1c-0.2,1.3-0.3,2.6-1,3.7c-0.7,1.1-2,1.9-3.2,1.5c-0.5-0.1-1-0.5-1.5-0.7c-1.7-0.7-3.6,0-5.3,0.6
			c-1.7,0.7-3.7,1.3-5.3,0.5c-2-1-2.5-3.9-1.3-5.9c1.2-1.9,3.6-2.8,5.8-2.9c-0.4-1-0.4-2.1-0.3-3.2c0.1-1.1,0.7-2.1,1.7-2.4
			c1.2-0.3,2.3,0.6,3,1.5c0.7,1,1.2,2.1,2,2.9c0.9,0.8,2,1.2,3.1,1.7C78.5,710.1,79.9,710.9,79.8,712.1z"/>
		<path class="st32" d="M66.8,716.7c1.3-0.4,2.6-0.8,3.9-1.1c1-0.3,2.2-0.8,2.3-1.8c0-0.7-0.4-1.2-0.9-1.7c-2.4-2-6.3-1.9-8.5,0.3
			c-0.6,0.5-1,1.2-1.2,2c-0.2,0.8,0,1.6,0.6,2.2C63.9,717.4,65.5,717.1,66.8,716.7z"/>
		<path class="st32" d="M78.8,713.5c0.2-0.7,0.4-2-0.6-2.2c-2.6-0.5-2.6,6.7-0.2,4.1C78.5,714.9,78.7,714.2,78.8,713.5z"/>
		<path class="st24" d="M127.2,722c0.4-1.3,1.4-2.4,2.3-3.4c1-1.1,2.1-2.1,3.2-3c1.1-0.9,2.3-1.8,3.6-2.5c1-0.6,2.7-1.8,3.9-1.7
			c0.9,0.1,1.3,1,0.7,1.7c-0.4,0.5-1.1,0.7-1.7,1c-0.6,0.3-1.2,0.6-1.8,0.9c-1.2,0.7-2.3,1.4-3.4,2.2c-1.1,0.8-2.1,1.8-3.1,2.8
			c-0.9,0.9-1.7,2-2.8,2.8C127.8,723.2,127.1,722.6,127.2,722z"/>
		<path class="st28" d="M137.1,710.7c0.2,1.3,0.3,2.6,1,3.7c0.7,1.1,2,1.9,3.2,1.5c0.5-0.1,1-0.5,1.5-0.7c1.7-0.7,3.6,0,5.3,0.6
			s3.7,1.3,5.3,0.5c2-1,2.5-3.9,1.3-5.9c-1.2-1.9-3.6-2.8-5.8-2.9c0.4-1,0.4-2.1,0.3-3.2c-0.1-1.1-0.7-2.1-1.7-2.4
			c-1.2-0.3-2.3,0.6-3,1.5c-0.7,1-1.2,2.1-2,2.9c-0.9,0.8-2,1.2-3.1,1.7C138.3,708.7,136.9,709.5,137.1,710.7z"/>
		<path class="st32" d="M150.1,715.3c-1.3-0.4-2.6-0.8-3.9-1.1c-1-0.3-2.2-0.8-2.3-1.8c0-0.7,0.4-1.2,0.9-1.7c2.4-2,6.3-1.9,8.5,0.3
			c0.6,0.5,1,1.2,1.2,2c0.2,0.8,0,1.6-0.6,2.2C152.9,716,151.4,715.7,150.1,715.3z"/>
		<path class="st32" d="M138,712.1c-0.2-0.7-0.4-2,0.6-2.2c2.6-0.5,2.6,6.7,0.2,4.1C138.4,713.5,138.2,712.8,138,712.1z"/>
		<path class="st35" d="M127,719.3c-1.8,1-3.7,1.8-5.7,2.4c-2.8,1-5.8,1.7-8.7,2c-3.1,0.4-6.3,0.4-9.4,0.1c-2.8-0.3-5.6-0.9-8.3-1.7
			c-2.1-0.7-4.1-1.5-6.1-2.6c0.7-3,2-6.5,3.2-9.2c1.8,0.5,3.5,0.9,5.3,1.2c2.4,0.4,4.9,0.7,7.3,0.9c2.3,0.1,4.6,0.1,6.9,0
			c2.5-0.2,5.1-0.5,7.6-1c1.3-0.3,2.7-0.6,4-0.9C124.7,713.3,125.7,716.5,127,719.3z"/>
		<path class="st27" d="M104.8,712.5c-0.5,3.8-1,7.6-1.6,11.4c-2.8-0.3-5.6-0.9-8.3-1.7c0.8-3.5,1.6-7.1,2.5-10.5
			C99.9,712,102.4,712.3,104.8,712.5z"/>
		<path class="st27" d="M121.4,721.7c-2.8,1-5.8,1.7-8.7,2c-0.3-3.8-0.6-7.6-0.9-11.3c2.5-0.2,5.1-0.5,7.6-1
			C120,714.9,120.7,718.3,121.4,721.7z"/>
		<path class="st31" d="M123.9,708.2c0.2-0.8,0.3-1.6,0.4-2.5c0.6-8.1-7.6-15-15.2-14.9c-6.1,0.1-12.3,2-15.7,7.3
			c-2.8,4.4-2.7,9.5,0.3,13.7c2.7,3.9,8.6,5.4,13.2,5.4c4.1,0.1,8.4-1,11.9-3C121.7,712.7,123.2,710.9,123.9,708.2z"/>
		<path class="st29" d="M118.8,707.2c1.5-2.9,1.3-6.6-0.5-9.3c-1.7-2.4-4.5-4-7.4-4.4c-2.9-0.5-5.9,0-8.7,1
			c-2.7,0.9-5.3,2.4-6.7,4.8c-2,3.5-0.7,8.3,2.3,11c3,2.7,7.4,3.5,11.4,2.9C113.1,712.6,117,710.7,118.8,707.2z"/>
		<path class="st22" d="M127,729.6c-3.1,1.4-6.2,2.3-9.5,2.7c-0.3-2.1-0.8-4.1-1.3-6c3.1-0.9,6.2-1.8,9.2-2.6
			C126.1,725.6,126.6,727.6,127,729.6z"/>
		<path class="st28" d="M118.6,744.1c-0.1-0.3-0.4-0.4-0.6-0.2c-0.4,0.4-0.5,1-0.6,1.6c-0.1,0.6-0.3,1.4-0.2,2
			c0.1,0.4,0.6,0.4,0.8,0.1c0.3-0.5,0.4-1.2,0.5-1.8C118.6,745.3,118.9,744.7,118.6,744.1z"/>
		<path class="st28" d="M120.9,744.2c-0.1-0.2-0.4-0.2-0.6-0.1c-0.5,0.5-0.5,1.3-0.6,1.9c-0.1,0.6-0.4,1.4,0,1.9
			c0.1,0.1,0.3,0.1,0.4,0.1c0.6-0.3,0.5-1.1,0.6-1.7C120.9,745.6,121.2,744.8,120.9,744.2z"/>
		<path class="st28" d="M123,744.4c-0.1-0.4-0.7-0.4-0.8,0c-0.3,1.1,0,2.3-0.2,3.3c-0.2,0.6,0.8,0.9,1,0.3c0.2-0.5,0.2-1.2,0.2-1.7
			C123.2,745.7,123.3,745,123,744.4z"/>
		<path class="st28" d="M125.4,746.4c0-0.7,0.1-1.5-0.3-2.1c-0.2-0.3-0.5-0.2-0.6,0.1c-0.3,0.6-0.1,1.4-0.1,2c0,0.6-0.1,1.3,0.2,1.8
			c0.1,0.2,0.4,0.2,0.6,0C125.5,747.7,125.4,747,125.4,746.4z"/>
		<path class="st28" d="M127.1,743.9c-0.1-0.2-0.4-0.2-0.5,0c-0.3,0.5-0.3,1.1-0.3,1.7c-0.1,0.8-0.2,1.7-0.2,2.5
			c0,0.5,0.7,0.6,0.8,0.1c0.1-0.8,0.2-1.5,0.3-2.3C127.3,745.2,127.4,744.5,127.1,743.9z"/>
		<path class="st22" d="M127.8,738.9c0,1.8-0.2,3.6-0.4,5.4c-2.9,0.7-6.7,0.2-9.6,0.2c0.2-1.8,0.3-3.5,0.3-5.2
			C121.3,739.5,124.6,739.4,127.8,738.9z"/>
		<path class="st36" d="M103.7,708.3c-6.6,0.5-12.8-1.6-18.3-5.3c6,0.1,12.1,0,18.1-0.5C104.3,704.2,104.3,706.5,103.7,708.3z"/>
		<path class="st37" d="M101.1,705.3c0.3,0,0.7-0.1,1-0.2c0.3-0.2,0.5-0.5,0.4-0.8c-0.1-0.4-0.6-0.6-1.1-0.6c-2.3-0.3-4.7-0.3-7,0.1
			c-0.2,0-0.5,0.1-0.6,0.2s-0.3,0.4-0.1,0.6c0.1,0.1,0.3,0.2,0.4,0.2C96.3,705.4,98.7,705.5,101.1,705.3z"/>
		<path class="st24" d="M127,696.1c-12.7,0.1-25.5-0.8-38.1-2.5C101.9,690.5,114.7,691.4,127,696.1z"/>
		<path class="st24" d="M122.5,673.8c-1.1,4.3-2.1,8.9-3.1,13.4c-0.6,2.5-1.1,4.9-1.7,7.2c-6.3,1.3-12.5,0.2-18.8-1.3
			c-0.4-2.3-0.8-4.6-1.1-6.9c-0.6-4.2-0.9-8.4-1-12.6C105.3,673.2,113.9,672.9,122.5,673.8z"/>
		<path class="st27" d="M119.4,687.2c-0.6,2.5-1.1,4.9-1.7,7.2c-6.3,1.3-12.5,0.2-18.8-1.3c-0.4-2.3-0.8-4.6-1.1-6.9
			C104.7,688,112.2,688.3,119.4,687.2z"/>
		<path class="st23" d="M118,685.7c-2.3,0.8-4.7,1.2-7.1,1c0.3-3.9,0.7-7.9,1-11.8c1.9,0.4,4.7,0.7,6.6,0.6
			C118.7,678.9,118.7,682.5,118,685.7z"/>
		<path class="st22" d="M116.4,693.9c0.2-1.5,0.7-3.3,0.8-4.9c-2.2,0.4-4.4,0.4-6.6,0c0,1.5-0.3,3.4-0.4,4.9
			C112.3,694.2,114.5,694.4,116.4,693.9z"/>
		<path class="st25" d="M105.1,702.1c0.2-1.9-0.2-4.9-2.3-5.4c-2.2-0.5-3.9,1.5-5,3.4c-0.2,0.4,0.3,0.8,0.6,0.5
			c1.1-1.2,2.1-3,3.9-2.9c1.9,0.2,1.8,3,1.9,4.5C104.2,702.8,105.1,702.8,105.1,702.1z"/>
		<path class="st25" d="M116.7,700.2c-0.8-1.7-2.7-4-4.8-3.4c-2.2,0.7-2.6,3.3-2.5,5.5c0,0.5,0.7,0.5,0.8,0.1
			c0.3-1.6,0.2-3.7,1.8-4.4c1.7-0.8,3.1,1.6,3.9,2.8C116.3,701.3,117,700.8,116.7,700.2z"/>
		<path class="st25" d="M99,710.7c-0.3,0-0.6,0.3-0.6,0.7l0,0.4c0,0.4,0.3,0.7,0.6,0.7c0.3,0,0.6-0.3,0.6-0.7l0-0.4
			C99.7,711.1,99.4,710.7,99,710.7z"/>
		<path class="st25" d="M103.1,711.9c-0.3,0-0.6,0.3-0.6,0.7l0,0.4c0,0.4,0.3,0.7,0.6,0.7c0.3,0,0.6-0.3,0.6-0.7l0-0.4
			C103.7,712.3,103.4,711.9,103.1,711.9z"/>
		<path class="st25" d="M107.8,711.9c-0.3,0-0.6,0.3-0.6,0.7l0,0.4c0,0.4,0.3,0.7,0.6,0.7c0.3,0,0.6-0.3,0.6-0.7l0-0.4
			C108.4,712.3,108.1,711.9,107.8,711.9z"/>
		<path class="st25" d="M112.4,711c-0.3,0-0.6,0.3-0.6,0.7l0,0.4c0,0.4,0.3,0.7,0.6,0.7c0.3,0,0.6-0.3,0.6-0.7l0-0.4
			C113.1,711.4,112.8,711,112.4,711z"/>
	</g>
</g>
</svg>
