<?xml version="1.0" encoding="utf-8"?>
<!-- Generator: Adobe Illustrator 23.0.1, SVG Export Plug-In . SVG Version: 6.00 Build 0)  -->
<svg version="1.1" id="Livello_1" xmlns="http://www.w3.org/2000/svg" xmlns:xlink="http://www.w3.org/1999/xlink" x="0px" y="0px"
	 viewBox="0 0 450 800" style="enable-background:new 0 0 450 800;" xml:space="preserve">
<style type="text/css">
	.st0{fill:#2A5D80;}
	.st1{fill:#4D738C;}
	.st2{fill:#608EAD;}
	.st3{fill:#354B5E;}
	.st4{fill:#7F5D5D;}
	.st5{fill:#487C45;}
	.st6{fill:#FFFFFF;}
	.st7{fill:#B2B2B2;}
	.st8{fill:#FF1C32;}
	.st9{fill:#B46100;}
	.st10{fill:#A64D00;}
	.st11{fill:#54B861;}
	.st12{fill:#6AD372;}
	.st13{fill:#54984D;}
	.st14{fill:#FFFF79;}
	.st15{opacity:0.1;}
	.st16{fill:#1A3E51;}
	.st17{fill:#FF3E2C;}
	.st18{fill:#2C88F7;}
	.st19{fill:#885F4B;}
	.st20{fill:#AB8060;}
	.st21{fill:#104A31;}
	.st22{fill:#753422;}
	.st23{fill:#622E21;}
	.st24{fill:#512600;}
	.st25{fill:#C4936E;}
	.st26{fill:#145C3E;}
	.st27{fill:#A6201F;}
	.st28{fill:#F8F6F3;}
	.st29{fill:#ECD7C6;}
	.st30{fill:#F8E7D5;}
	.st31{fill:#C72727;}
	.st32{opacity:0.63;}
</style>
<rect y="-0.5" class="st0" width="450" height="799.5"/>
<g id="Livello_5">
	<polygon class="st1" points="0,741 0,684 57.3,626 74,609 265,741 	"/>
</g>
<g id="Livello_6">
	<polygon class="st2" points="73,609 250,740 299,740 	"/>
</g>
<g id="Livello_3">
	<polygon class="st1" points="450,753 450,628.5 404,570 220,753 	"/>
</g>
<g id="Livello_4">
	<polygon class="st2" points="404,572 234,740 185,740 	"/>
</g>
<g id="Livello_2_1_">
	<rect y="740" class="st3" width="450" height="60"/>
</g>
<rect x="249.9" y="722.2" class="st4" width="5.6" height="17.4"/>
<path class="st5" d="M241.1,725.1c0,0,9.4-2.9,12-2.9s10.2,2.9,11.2,2.9s-11.2-24.6-11.2-24.6L241.1,725.1z"/>
<path class="st6" d="M216.8,643.6c-0.4-3.8-3.7-6.7-7.6-6.7c-2.8,0-5.3,1.5-6.6,3.8c0,0,0,0-0.1,0c-2.8,0-5.2,2-5.6,4.7h-0.1
	c-1.9,0-3.4,1.5-3.4,3.4s1.5,3.4,3.4,3.4c0.2,0,0.5,0,0.7-0.1h4.7c0.1,0,0.2,0,0.3,0s0.2,0,0.3,0h12.7l0,0h0.1
	c2.4,0,4.3-1.9,4.3-4.3C220,645.8,218.6,644.1,216.8,643.6z"/>
<path class="st6" d="M255.3,638c-0.5-4-3.8-7-7.9-7c-2.9,0-5.5,1.6-6.9,4h-0.1c-2.9,0-5.4,2.1-5.9,4.9h-0.1c-2,0-3.6,1.6-3.6,3.6
	s1.6,3.6,3.6,3.6c0.3,0,0.5,0,0.8-0.1h4.9c0.1,0,0.2,0,0.3,0s0.2,0,0.3,0H254l0,0h0.1c2.5,0,4.5-2,4.5-4.5
	C258.6,640.3,257.2,638.5,255.3,638z"/>
<polygon class="st6" points="61.7,634.2 68.6,627.4 76.6,634.2 86,627.4 99.1,635 100.1,629 108,629.4 74,609 46.5,636.9 "/>
<polyline class="st6" points="404,570 371.7,596.8 382.2,594 388.3,601.9 400.3,596.2 408.7,603.6 412,591.6 438,613.3 "/>
<g>
	
		<rect x="66.9" y="735.9" transform="matrix(3.048815e-02 -0.9995 0.9995 3.048815e-02 -670.8638 795.0842)" class="st6" width="15" height="15"/>
	
		<rect x="72.6" y="729.3" transform="matrix(3.048399e-02 -0.9995 0.9995 3.048399e-02 -665.1563 789.7966)" class="st7" width="3.9" height="17"/>
	<g>
		<g>
			<g>
				<path class="st8" d="M71,733.5c-0.1,0-0.1,0-0.2,0.1c-0.4,0.2-0.6,0.7-0.4,1.2s0.7,0.7,1.1,0.8c0.5,0.1,1.1,0.1,1.6,0.2
					c0.5,0.1,1.1,0.3,1.6,0.3c0.1,0,0.8-0.2,0.8-0.2c-0.2-0.4-0.6-0.7-0.9-1c-0.1-0.1-0.7,0.3-0.9,0.2c0.3,0.3,0.7,0.6,0.9,1
					c0.3-0.1,0.6-0.1,0.8-0.2c-0.5-0.1-1.1-0.2-1.6-0.3s-1.1-0.1-1.6-0.2c-0.5-0.1-1-0.3-1.2-0.9c-0.2-0.6,0.2-1,0.6-1.1"/>
			</g>
			<g>
				<path class="st8" d="M71.6,733.5c0.9,0.1,1.7,0.8,2.3,1.6c0.1,0.1,0.7-0.3,0.9-0.2c-0.7-0.8-1.6-1.7-2.7-1.6
					c-0.3,0-0.7,0.1-1.1,0.2"/>
			</g>
			<g>
				<path class="st8" d="M71,733.5c0.2,0,0.3,0,0.5,0"/>
			</g>
			<g>
				<path class="st8" d="M71.9,733.3c-0.3,0.1-0.6,0.1-0.8,0.2"/>
			</g>
		</g>
		<g>
			<g>
				<path class="st8" d="M74.7,730.3c-0.3,0.1-0.6,0.1-0.9,0.2c1.6-0.1,1.1,2.9,0.9,3.9c0-0.1,0.8,0,0.9-0.2c0.3-1.1,0.6-2.4,0-3.5
					c-0.4-0.7-0.9-0.5-1.5-0.4"/>
			</g>
			<g>
				<path class="st8" d="M74,730.5c-0.8,0.2-0.9,0.9-0.7,1.8c0.1,0.6,0.4,1.2,0.6,1.8s0.3,1.2,0.5,1.7c0,0,0.8-0.1,0.8-0.2
					c0.2-0.4,0.2-0.9,0.4-1.3c0,0.1-0.8,0-0.9,0.2c-0.1,0.4-0.2,0.9-0.3,1.3c0.3-0.1,0.6-0.1,0.8-0.2c-0.3-0.9-0.5-1.9-0.8-2.8
					c-0.3-0.8-0.6-2,0.3-2.5"/>
			</g>
		</g>
		<g>
			<g>
				<path class="st8" d="M75.3,736c0.8,0,1.6-0.1,2.3-0.3c0.5-0.1,1.1-0.4,1.4-1c0.4-0.7,0-1.3-0.7-1.3c-0.7,0.1-1.3,0.3-1.9,0.7
					c-0.6,0.5-1.2,0.9-1.8,1.3c-0.1,0.1-0.3,0.2-0.4,0.3c-0.2,0.2-0.2,0.1,0,0.2C74.5,736.1,75,736,75.3,736s0.6-0.2,0.8-0.2
					c-0.2,0-1,0.1-1.1,0s0.1-0.2,0.3-0.3c0.2-0.1,0.4-0.2,0.6-0.4c0.8-0.5,1.5-1.4,2.4-1.6c-0.3,0.1-0.6,0.1-0.9,0.2
					c0.6,0,1.1,0.4,0.8,1.2c-0.3,0.6-0.9,0.9-1.4,1.1c0.1,0,0.2,0,0.3-0.1c-0.3,0.1-0.7,0-1,0C75.8,735.8,75.5,736,75.3,736z"/>
			</g>
		</g>
		<g>
			<g>
				<path class="st8" d="M76.6,731.2c-0.3,0.1-0.6,0.1-0.8,0.2c0.9-0.2,0.9,1.1,0.7,1.8c0,0.1-0.1,0.3-0.1,0.4
					c-0.1,0.3-0.3,0.7-0.6,1c-0.1,0.1-0.2,0.3-0.3,0.4c-0.1,0.1-0.2,0.2-0.2,0.4c0,0.1,0,0.1-0.1,0.2c0,0.1,0,0.2-0.1,0.2
					c0,0.1,0,0.2-0.1,0.2c0.3-0.2,0.5-0.4,0.7-0.6c0.4-0.4,0.8-0.9,1.2-1.4c0.4-0.6,0.7-1.3,0.6-2.1c-0.1-0.9-0.7-0.8-1.3-0.7"/>
			</g>
			<g>
				<path class="st8" d="M76.1,731.3c-0.7,0.1-1,0.5-1.2,1.3c-0.1,0.6-0.2,1.2-0.2,1.8c-0.1,0.7-0.3,1.3-0.3,1.9
					c0-0.1,0.8-0.1,0.8-0.2c0.3-0.3-0.4,0.1-0.2-0.2c-0.2,0.2,0.3-0.8,0.1-0.6c-0.3,0.3-0.5,0.7-0.8,1c0.3-0.1,0.6-0.1,0.8-0.2
					c0.1-0.9,0.4-1.8,0.5-2.7c0.1-0.8,0.2-1.8,0.9-2.2"/>
			</g>
		</g>
	</g>
	
		<rect x="67.1" y="742.3" transform="matrix(3.055508e-02 -0.9995 0.9995 3.055508e-02 -670.6083 795.129)" class="st8" width="15" height="2"/>
	
		<rect x="73.4" y="737.7" transform="matrix(3.051814e-02 -0.9995 0.9995 3.051814e-02 -672.768 796.8676)" class="st8" width="2" height="15"/>
</g>
<g>
	
		<rect x="38.7" y="733.4" transform="matrix(3.048815e-02 -0.9995 0.9995 3.048815e-02 -695.653 760.1387)" class="st6" width="10.6" height="10.6"/>
	
		<rect x="42.8" y="728.8" transform="matrix(3.048399e-02 -0.9995 0.9995 3.048399e-02 -691.5845 756.5551)" class="st7" width="2.8" height="12"/>
	<g>
		<g>
			<g>
				<path class="st8" d="M41.6,731.8L41.6,731.8c-0.4,0.1-0.5,0.5-0.4,0.8c0.2,0.4,0.5,0.5,0.8,0.6c0.4,0.1,0.8,0.1,1.1,0.2
					c0.4,0.1,0.7,0.2,1.1,0.2c0.1,0,0.6-0.2,0.6-0.1c-0.2-0.3-0.4-0.5-0.6-0.7c-0.1-0.1-0.5,0.2-0.6,0.1c0.2,0.2,0.5,0.4,0.6,0.7
					c0.2,0,0.4-0.1,0.6-0.1c-0.4,0-0.7-0.2-1.1-0.2c-0.4-0.1-0.8-0.1-1.1-0.2c-0.3-0.1-0.7-0.2-0.8-0.6c-0.1-0.4,0.1-0.7,0.4-0.8"/>
			</g>
			<g>
				<path class="st8" d="M42,731.8c0.7,0.1,1.2,0.6,1.7,1.1c0.1,0.1,0.5-0.2,0.6-0.1c-0.5-0.6-1.1-1.2-1.9-1.1
					c-0.2,0-0.5,0.1-0.8,0.1"/>
			</g>
			<g>
				<path class="st8" d="M41.7,731.8c0.1,0,0.2,0,0.4,0"/>
			</g>
			<g>
				<path class="st8" d="M42.2,731.6c-0.2,0-0.4,0.1-0.6,0.1"/>
			</g>
		</g>
		<g>
			<g>
				<path class="st8" d="M44.2,729.6c-0.2,0-0.4,0.1-0.6,0.1c1.1-0.1,0.8,2.1,0.6,2.8c0-0.1,0.6,0,0.6-0.1c0.2-0.8,0.4-1.7,0-2.4
					c-0.3-0.5-0.6-0.4-1-0.3"/>
			</g>
			<g>
				<path class="st8" d="M43.7,729.7c-0.5,0.1-0.7,0.7-0.5,1.3c0.1,0.4,0.3,0.9,0.4,1.3c0.1,0.4,0.2,0.8,0.3,1.2l0.6-0.1
					c0.1-0.3,0.2-0.6,0.2-0.9c0,0.1-0.6,0-0.6,0.1c-0.1,0.3-0.1,0.6-0.2,0.9c0.2,0,0.4-0.1,0.6-0.1c-0.2-0.6-0.3-1.3-0.5-2
					c-0.2-0.6-0.4-1.4,0.2-1.8"/>
			</g>
		</g>
		<g>
			<g>
				<path class="st8" d="M44.6,733.6c0.6,0,1.1,0,1.6-0.2c0.4-0.1,0.8-0.3,1-0.7c0.3-0.5,0-0.9-0.5-0.9s-0.9,0.2-1.3,0.5
					c-0.4,0.3-0.8,0.6-1.3,0.9c-0.1,0.1-0.2,0.1-0.3,0.2c-0.1,0.1-0.1,0.1,0,0.1C44.1,733.6,44.4,733.6,44.6,733.6
					c0.2,0,0.4-0.1,0.6-0.1c-0.1,0-0.7,0.1-0.8,0s0.1-0.1,0.2-0.2c0.1-0.1,0.3-0.2,0.4-0.3c0.5-0.4,1.1-1,1.7-1.2
					c-0.2,0-0.4,0.1-0.6,0.1c0.4,0,0.8,0.3,0.5,0.8c-0.2,0.4-0.6,0.6-1,0.8c0.1,0,0.1,0,0.2,0c-0.2,0-0.5,0-0.7,0
					C45,733.4,44.8,733.6,44.6,733.6z"/>
			</g>
		</g>
		<g>
			<g>
				<path class="st8" d="M45.6,730.1c-0.2,0-0.4,0.1-0.6,0.1c0.6-0.1,0.6,0.8,0.5,1.3c0,0.1-0.1,0.2-0.1,0.3
					c-0.1,0.2-0.2,0.5-0.4,0.7c-0.1,0.1-0.2,0.2-0.2,0.3c-0.1,0.1-0.1,0.2-0.2,0.3v0.1c0,0.1,0,0.1,0,0.2c0,0.1,0,0.1-0.1,0.2
					c0.2-0.1,0.3-0.3,0.5-0.4c0.3-0.3,0.6-0.6,0.8-1c0.3-0.4,0.5-0.9,0.4-1.5c-0.1-0.7-0.5-0.6-0.9-0.5"/>
			</g>
			<g>
				<path class="st8" d="M45.2,730.2c-0.5,0.1-0.7,0.3-0.9,0.9c-0.1,0.4-0.1,0.8-0.2,1.2c-0.1,0.5-0.2,0.9-0.2,1.4
					c0,0,0.5-0.1,0.6-0.1c0.2-0.2-0.3,0.1-0.1-0.2c-0.1,0.1,0.2-0.5,0.1-0.4c-0.2,0.2-0.4,0.5-0.6,0.7c0.2,0,0.4-0.1,0.6-0.1
					c0.1-0.6,0.2-1.3,0.3-1.9c0.1-0.6,0.1-1.2,0.6-1.5"/>
			</g>
		</g>
	</g>
	
		<rect x="38.9" y="738" transform="matrix(3.055508e-02 -0.9995 0.9995 3.055508e-02 -695.4843 760.2851)" class="st8" width="10.6" height="1.4"/>
	
		<rect x="43.2" y="734.8" transform="matrix(3.051814e-02 -0.9995 0.9995 3.051814e-02 -697.1334 761.4179)" class="st8" width="1.4" height="10.6"/>
</g>
<g>
	
		<rect x="404.5" y="732.6" transform="matrix(3.048815e-02 -0.9995 0.9995 3.048815e-02 -340.3537 1129.3562)" class="st6" width="15" height="15"/>
	
		<rect x="410.3" y="726.1" transform="matrix(3.048399e-02 -0.9995 0.9995 3.048399e-02 -334.5653 1124.2264)" class="st7" width="3.9" height="17"/>
	<g>
		<g>
			<g>
				<path class="st8" d="M408.7,730.3c-0.1,0-0.1,0-0.2,0.1c-0.4,0.2-0.6,0.7-0.4,1.2s0.7,0.7,1.1,0.8c0.5,0.1,1.1,0.1,1.6,0.2
					c0.5,0.1,1.1,0.3,1.6,0.3c0.1,0,0.8-0.2,0.8-0.2c-0.2-0.4-0.6-0.7-0.9-1c-0.1-0.1-0.7,0.3-0.9,0.2c0.3,0.3,0.7,0.6,0.9,1
					c0.3-0.1,0.6-0.1,0.8-0.2c-0.5-0.1-1.1-0.2-1.6-0.3s-1.1-0.1-1.6-0.2c-0.5-0.1-1-0.3-1.2-0.9c-0.2-0.6,0.2-1,0.6-1.1"/>
			</g>
			<g>
				<path class="st8" d="M409.2,730.3c0.9,0.1,1.7,0.8,2.3,1.6c0.1,0.1,0.7-0.3,0.9-0.2c-0.7-0.8-1.6-1.7-2.7-1.6
					c-0.3,0-0.7,0.1-1.1,0.2"/>
			</g>
			<g>
				<path class="st8" d="M408.7,730.3c0.2,0,0.3,0,0.5,0"/>
			</g>
			<g>
				<path class="st8" d="M409.6,730.1c-0.3,0.1-0.6,0.1-0.8,0.2"/>
			</g>
		</g>
		<g>
			<g>
				<path class="st8" d="M412.4,727.2c-0.3,0.1-0.6,0.1-0.9,0.2c1.6-0.1,1.1,2.9,0.9,3.9c0-0.1,0.8,0,0.9-0.2c0.3-1.1,0.6-2.4,0-3.5
					c-0.4-0.7-0.9-0.5-1.5-0.4"/>
			</g>
			<g>
				<path class="st8" d="M411.7,727.3c-0.8,0.2-0.9,0.9-0.7,1.8c0.1,0.6,0.4,1.2,0.6,1.8s0.3,1.2,0.5,1.7c0,0,0.8-0.1,0.8-0.2
					c0.2-0.4,0.2-0.9,0.4-1.3c0,0.1-0.8,0-0.9,0.2c-0.1,0.4-0.2,0.9-0.3,1.3c0.3-0.1,0.6-0.1,0.8-0.2c-0.3-0.9-0.5-1.9-0.8-2.8
					c-0.3-0.8-0.6-2,0.3-2.5"/>
			</g>
		</g>
		<g>
			<g>
				<path class="st8" d="M412.9,732.8c0.8,0,1.6-0.1,2.3-0.3c0.5-0.1,1.1-0.4,1.4-1c0.4-0.7,0-1.3-0.7-1.3c-0.7,0.1-1.3,0.3-1.9,0.7
					c-0.6,0.5-1.2,0.9-1.8,1.3c-0.1,0.1-0.3,0.2-0.4,0.3c-0.2,0.2-0.2,0.1,0,0.2C412.2,732.9,412.7,732.8,412.9,732.8
					c0.3,0,0.6-0.2,0.8-0.2c-0.2,0-1,0.1-1.1,0s0.1-0.2,0.3-0.3c0.2-0.1,0.4-0.2,0.6-0.4c0.8-0.5,1.5-1.4,2.4-1.6
					c-0.3,0.1-0.6,0.1-0.9,0.2c0.6,0,1.1,0.4,0.8,1.2c-0.3,0.6-0.9,0.9-1.4,1.1c0.1,0,0.2,0,0.3-0.1c-0.3,0.1-0.7,0-1,0
					C413.5,732.7,413.2,732.8,412.9,732.8z"/>
			</g>
		</g>
		<g>
			<g>
				<path class="st8" d="M414.3,728c-0.3,0.1-0.6,0.1-0.8,0.2c0.9-0.2,0.9,1.1,0.7,1.8c0,0.1-0.1,0.3-0.1,0.4
					c-0.1,0.3-0.3,0.7-0.6,1c-0.1,0.1-0.2,0.3-0.3,0.4c-0.1,0.1-0.2,0.2-0.2,0.4c0,0.1,0,0.1-0.1,0.2c0,0.1,0,0.2-0.1,0.2
					c0,0.1,0,0.2-0.1,0.2c0.3-0.2,0.5-0.4,0.7-0.6c0.4-0.4,0.8-0.9,1.2-1.4c0.4-0.6,0.7-1.3,0.6-2.1c-0.1-0.9-0.7-0.8-1.3-0.7"/>
			</g>
			<g>
				<path class="st8" d="M413.8,728.1c-0.7,0.1-1,0.5-1.2,1.3c-0.1,0.6-0.2,1.2-0.2,1.8c-0.1,0.7-0.3,1.3-0.3,1.9
					c0-0.1,0.8-0.1,0.8-0.2c0.3-0.3-0.4,0.1-0.2-0.2c-0.2,0.2,0.3-0.8,0.1-0.6c-0.3,0.3-0.5,0.7-0.8,1c0.3-0.1,0.6-0.1,0.8-0.2
					c0.1-0.9,0.4-1.8,0.5-2.7c0.1-0.8,0.2-1.8,0.9-2.2"/>
			</g>
		</g>
	</g>
	
		<rect x="404.8" y="739.1" transform="matrix(3.055508e-02 -0.9995 0.9995 3.055508e-02 -340.0407 1129.5588)" class="st8" width="15" height="2"/>
	
		<rect x="411.1" y="734.7" transform="matrix(3.051814e-02 -0.9995 0.9995 3.051814e-02 -342.3761 1131.427)" class="st8" width="2" height="15"/>
</g>
<g>
	<g>
		<g>
			<g>
				<g>
					<rect x="385.2" y="711.8" class="st9" width="8.3" height="34.6"/>
				</g>
				<g>
					<rect x="385.2" y="711.8" class="st10" width="4.2" height="34.6"/>
				</g>
			</g>
			<g>
				<g>
					<g>
						<polygon class="st11" points="356.3,724.8 389.3,662.6 422.4,724.8 						"/>
					</g>
					<g>
						<polygon class="st12" points="389.3,724.8 389.3,662.6 422.4,724.8 						"/>
					</g>
					<g>
						<polygon class="st11" points="409.4,700.4 389.3,700.4 389.3,662.6 						"/>
					</g>
					<g>
						<polygon class="st13" points="389.3,662.6 389.3,700.4 369.2,700.4 						"/>
					</g>
				</g>
				<g>
					<g>
						<polygon class="st11" points="363.4,698.3 389.3,649.5 415.3,698.3 						"/>
					</g>
					<g>
						<polygon class="st12" points="389.3,698.3 389.3,649.5 415.3,698.3 						"/>
					</g>
					<g>
						<polygon class="st11" points="405.1,679.1 389.3,679.1 389.3,649.5 						"/>
					</g>
					<g>
						<polygon class="st13" points="389.3,649.5 389.3,679.1 373.6,679.1 						"/>
					</g>
				</g>
				<g>
					<g>
						<polygon class="st11" points="410.4,677 368.3,677 376.1,662.3 389.3,637.4 402.5,662.3 						"/>
					</g>
					<g>
						<polygon class="st12" points="389.3,677 389.3,637.4 410.4,677 						"/>
					</g>
					<g>
						<polygon class="st14" points="389.3,631 391.1,634.5 395,635.1 392.2,637.9 392.8,641.7 389.3,639.9 385.8,641.7 386.5,637.9 
							383.7,635.1 387.6,634.5 						"/>
					</g>
				</g>
			</g>
		</g>
		<g class="st15">
			<polygon class="st16" points="385.2,746.5 365.7,752.6 393.5,746.5 			"/>
		</g>
	</g>
	<g>
		<path class="st6" d="M398.1,653.2c-4.9,7.6-10.5,15-18.3,19.8c-2.3,1.4-4.8,2.6-7.4,3.5c-0.2,0.1,0,0.1,0.1,0.1
			c8.8-3,15.7-9.3,21.2-16.6c1.7-2.2,3.2-4.5,4.8-6.9C398.5,653.1,398.2,653.2,398.1,653.2L398.1,653.2z"/>
	</g>
	<g>
		<path class="st6" d="M406.3,681.7c-8.3,7.9-19.2,13.3-30.5,15.1c-3.1,0.5-6.3,0.7-9.4,0.5c-0.1,0-0.4,0.2-0.1,0.2
			c11.5,0.6,23.1-3.4,32.6-9.7c2.7-1.8,5.3-3.8,7.7-6.1C406.7,681.7,406.4,681.7,406.3,681.7L406.3,681.7z"/>
	</g>
	<g>
		<path class="st6" d="M411.8,706c-5.3,5.7-13.2,8.9-20.4,11.4c-7.6,2.6-15.5,4.4-23.5,5.5c-2.9,0.4-5.8,0.8-8.7,0.7
			c-0.1,0-0.4,0.2-0.1,0.2c2.5,0.1,5.1-0.2,7.6-0.5c3.7-0.5,7.4-1.1,11.1-1.9c8.3-1.8,16.7-4.3,24.3-8.2c3.7-1.9,7.3-4.1,10.1-7.2
			C412.2,705.9,411.9,705.9,411.8,706L411.8,706z"/>
	</g>
	<g>
		<rect x="372.8" y="676.8" class="st6" width="33" height="0.2"/>
	</g>
	<g>
		<rect x="365.7" y="698.2" class="st6" width="46.4" height="0.2"/>
	</g>
	<g>
		<rect x="358.6" y="724.5" class="st6" width="60.8" height="0.2"/>
	</g>
	<g>
		<g>
			<circle class="st17" cx="372.8" cy="676.9" r="1.7"/>
		</g>
		<g>
			<circle class="st14" cx="379.4" cy="676.9" r="1.7"/>
		</g>
		<g>
			<circle class="st14" cx="395" cy="667.1" r="1.7"/>
		</g>
		<g>
			<circle class="st18" cx="386" cy="676.9" r="1.7"/>
		</g>
		<g>
			<circle class="st17" cx="399.2" cy="676.9" r="1.7"/>
		</g>
		<g>
			<ellipse class="st17" cx="386.4" cy="657.2" rx="1.7" ry="1.7"/>
		</g>
		<g>
			<circle class="st6" cx="392.6" cy="677" r="1.7"/>
		</g>
		<g>
			<circle class="st6" cx="379.4" cy="666.1" r="1.7"/>
		</g>
		<g>
			<circle class="st18" cx="405.8" cy="676.9" r="1.7"/>
		</g>
		<g>
			<circle class="st18" cx="403" cy="671.1" r="1.7"/>
		</g>
	</g>
	<g>
		<g>
			<circle class="st17" cx="372.8" cy="698.3" r="1.7"/>
		</g>
		<g>
			<circle class="st14" cx="366.2" cy="698.3" r="1.7"/>
		</g>
		<g>
			<circle class="st14" cx="383.7" cy="691.4" r="1.7"/>
		</g>
		<g>
			<circle class="st14" cx="379.4" cy="698.3" r="1.7"/>
		</g>
		<g>
			<circle class="st14" cx="396.7" cy="684.7" r="1.7"/>
		</g>
		<g>
			<circle class="st18" cx="386" cy="698.3" r="1.7"/>
		</g>
		<g>
			<circle class="st17" cx="399.2" cy="698.3" r="1.7"/>
		</g>
		<g>
			<circle class="st17" cx="377.8" cy="687.6" r="1.7"/>
		</g>
		<g>
			<circle class="st6" cx="392.6" cy="698.3" r="1.7"/>
		</g>
		<g>
			<circle class="st18" cx="405.8" cy="698.3" r="1.7"/>
		</g>
		<g>
			<circle class="st18" cx="403" cy="691.4" r="1.7"/>
		</g>
		<g>
			<circle class="st17" cx="412.1" cy="698.3" r="1.7"/>
		</g>
	</g>
	<g>
		<g>
			<circle class="st17" cx="372.8" cy="724.6" r="1.7"/>
		</g>
		<g>
			<circle class="st17" cx="395.1" cy="707.1" r="1.7"/>
		</g>
		<g>
			<circle class="st14" cx="366.2" cy="724.6" r="1.7"/>
		</g>
		<g>
			<circle class="st18" cx="359.1" cy="724.6" r="1.7"/>
		</g>
		<g>
			<circle class="st18" cx="410.4" cy="715.5" r="1.7"/>
		</g>
		<g>
			<circle class="st14" cx="379.4" cy="724.6" r="1.7"/>
		</g>
		<g>
			<circle class="st14" cx="382.8" cy="714.7" r="1.7"/>
		</g>
		<g>
			<circle class="st18" cx="386" cy="724.6" r="1.7"/>
		</g>
		<g>
			<circle class="st6" cx="392.6" cy="724.6" r="1.7"/>
		</g>
		<g>
			<circle class="st6" cx="403" cy="717.5" r="1.7"/>
		</g>
		<g>
			<circle class="st6" cx="374.5" cy="707.7" r="1.7"/>
		</g>
		<g>
			<circle class="st17" cx="399.2" cy="724.6" r="1.7"/>
		</g>
		<g>
			<circle class="st17" cx="367.9" cy="716.9" r="1.7"/>
		</g>
		<g>
			<circle class="st18" cx="405.8" cy="724.6" r="1.7"/>
		</g>
		<g>
			<circle class="st6" cx="412.1" cy="724.6" r="1.7"/>
		</g>
		<g>
			<circle class="st17" cx="419" cy="724.6" r="1.7"/>
		</g>
	</g>
</g>
<g>
	<g>
		<g>
			<g>
				<g>
					<rect x="57.3" y="716.7" class="st9" width="7.6" height="31.6"/>
				</g>
				<g>
					<rect x="57.3" y="716.7" class="st10" width="3.8" height="31.6"/>
				</g>
			</g>
			<g>
				<g>
					<g>
						<polygon class="st11" points="30.9,728.5 61.1,671.6 91.4,728.5 						"/>
					</g>
					<g>
						<polygon class="st12" points="61.1,728.5 61.1,671.6 91.4,728.5 						"/>
					</g>
					<g>
						<polygon class="st11" points="79.5,706.2 61.1,706.2 61.1,671.6 						"/>
					</g>
					<g>
						<polygon class="st13" points="61.1,671.6 61.1,706.2 42.8,706.2 						"/>
					</g>
				</g>
				<g>
					<g>
						<polygon class="st11" points="37.5,704.3 61.1,659.7 84.8,704.3 						"/>
					</g>
					<g>
						<polygon class="st12" points="61.1,704.3 61.1,659.7 84.8,704.3 						"/>
					</g>
					<g>
						<polygon class="st11" points="75.5,686.8 61.1,686.8 61.1,659.7 						"/>
					</g>
					<g>
						<polygon class="st13" points="61.1,659.7 61.1,686.8 46.8,686.8 						"/>
					</g>
				</g>
				<g>
					<g>
						<polygon class="st11" points="80.4,684.9 41.9,684.9 49.1,671.4 61.1,648.7 73.2,671.4 						"/>
					</g>
					<g>
						<polygon class="st12" points="61.1,684.9 61.1,648.7 80.4,684.9 						"/>
					</g>
					<g>
						<polygon class="st14" points="61.1,642.8 62.7,646 66.3,646.6 63.7,649.1 64.3,652.6 61.1,650.9 58,652.6 58.6,649.1 
							56,646.6 59.6,646 						"/>
					</g>
				</g>
			</g>
		</g>
		<g class="st15">
			<polygon class="st16" points="57.3,748.3 39.5,753.9 65,748.3 			"/>
		</g>
	</g>
	<g>
		<path class="st6" d="M69.2,663.1c-4.5,6.9-9.6,13.7-16.7,18.1c-2.1,1.3-4.4,2.4-6.8,3.2c-0.2,0.1,0,0.1,0.1,0.1
			c8.1-2.8,14.3-8.5,19.4-15.2c1.5-2,3-4.1,4.4-6.3C69.5,663,69.2,663,69.2,663.1L69.2,663.1z"/>
	</g>
	<g>
		<path class="st6" d="M76.7,689.2c-7.5,7.2-17.6,12.1-27.9,13.8c-2.8,0.5-5.7,0.6-8.6,0.5c-0.1,0-0.3,0.1-0.1,0.2
			c10.5,0.5,21.1-3.1,29.8-8.9c2.5-1.6,4.9-3.5,7-5.6C77,689.1,76.7,689.1,76.7,689.2L76.7,689.2z"/>
	</g>
	<g>
		<path class="st6" d="M81.7,711.3c-4.9,5.2-12,8.2-18.6,10.4c-6.9,2.4-14.2,4-21.4,5c-2.6,0.4-5.3,0.7-8,0.6
			c-0.1,0-0.3,0.2-0.1,0.2c2.3,0.1,4.7-0.2,7-0.5c3.4-0.4,6.8-1,10.1-1.8c7.6-1.7,15.2-3.9,22.2-7.5c3.4-1.7,6.6-3.8,9.2-6.6
			C82.1,711.2,81.8,711.2,81.7,711.3L81.7,711.3z"/>
	</g>
	<g>
		<rect x="46.1" y="684.7" class="st6" width="30.1" height="0.2"/>
	</g>
	<g>
		<rect x="39.6" y="704.2" class="st6" width="42.4" height="0.2"/>
	</g>
	<g>
		<rect x="33.1" y="728.2" class="st6" width="55.5" height="0.2"/>
	</g>
	<g>
		<g>
			<circle class="st17" cx="46.1" cy="684.8" r="1.5"/>
		</g>
		<g>
			<circle class="st14" cx="52.1" cy="684.8" r="1.5"/>
		</g>
		<g>
			<circle class="st14" cx="66.3" cy="675.8" r="1.5"/>
		</g>
		<g>
			<circle class="st18" cx="58.1" cy="684.8" r="1.5"/>
		</g>
		<g>
			<circle class="st17" cx="70.2" cy="684.8" r="1.5"/>
		</g>
		<g>
			<ellipse class="st17" cx="58.5" cy="666.7" rx="1.5" ry="1.5"/>
		</g>
		<g>
			<circle class="st6" cx="64.2" cy="684.9" r="1.5"/>
		</g>
		<g>
			<circle class="st6" cx="52.1" cy="674.9" r="1.5"/>
		</g>
		<g>
			<circle class="st18" cx="76.2" cy="684.8" r="1.5"/>
		</g>
		<g>
			<circle class="st18" cx="73.6" cy="679.4" r="1.5"/>
		</g>
	</g>
	<g>
		<g>
			<circle class="st17" cx="46.1" cy="704.3" r="1.5"/>
		</g>
		<g>
			<circle class="st14" cx="40" cy="704.3" r="1.5"/>
		</g>
		<g>
			<circle class="st14" cx="56" cy="698" r="1.5"/>
		</g>
		<g>
			<circle class="st14" cx="52.1" cy="704.3" r="1.5"/>
		</g>
		<g>
			<circle class="st14" cx="67.9" cy="691.9" r="1.5"/>
		</g>
		<g>
			<circle class="st18" cx="58.1" cy="704.3" r="1.5"/>
		</g>
		<g>
			<circle class="st17" cx="70.2" cy="704.3" r="1.5"/>
		</g>
		<g>
			<circle class="st17" cx="50.6" cy="694.5" r="1.5"/>
		</g>
		<g>
			<circle class="st6" cx="64.2" cy="704.3" r="1.5"/>
		</g>
		<g>
			<circle class="st18" cx="76.2" cy="704.3" r="1.5"/>
		</g>
		<g>
			<circle class="st18" cx="73.6" cy="698" r="1.5"/>
		</g>
		<g>
			<circle class="st17" cx="81.9" cy="704.3" r="1.5"/>
		</g>
	</g>
	<g>
		<g>
			<circle class="st17" cx="46.1" cy="728.3" r="1.5"/>
		</g>
		<g>
			<circle class="st17" cx="66.4" cy="712.4" r="1.5"/>
		</g>
		<g>
			<circle class="st14" cx="40" cy="728.3" r="1.5"/>
		</g>
		<g>
			<circle class="st18" cx="33.6" cy="728.3" r="1.5"/>
		</g>
		<g>
			<circle class="st18" cx="80.4" cy="720" r="1.5"/>
		</g>
		<g>
			<circle class="st14" cx="52.1" cy="728.3" r="1.5"/>
		</g>
		<g>
			<circle class="st14" cx="55.2" cy="719.3" r="1.5"/>
		</g>
		<g>
			<circle class="st18" cx="58.1" cy="728.3" r="1.5"/>
		</g>
		<g>
			<circle class="st6" cx="64.2" cy="728.3" r="1.5"/>
		</g>
		<g>
			<circle class="st6" cx="73.6" cy="721.8" r="1.5"/>
		</g>
		<g>
			<circle class="st6" cx="47.6" cy="712.9" r="1.5"/>
		</g>
		<g>
			<circle class="st17" cx="70.2" cy="728.3" r="1.5"/>
		</g>
		<g>
			<circle class="st17" cx="41.6" cy="721.3" r="1.5"/>
		</g>
		<g>
			<circle class="st18" cx="76.2" cy="728.3" r="1.5"/>
		</g>
		<g>
			<circle class="st6" cx="81.9" cy="728.3" r="1.5"/>
		</g>
		<g>
			<circle class="st17" cx="88.3" cy="728.3" r="1.5"/>
		</g>
	</g>
</g>
<g>
	<g>
		<path class="st19" d="M131.6,740c0.4-0.1,0.6-0.7,0.7-1.1c0.9-4.4,1.2-8.9,0.8-13.3c-0.1-0.7-0.2-1.5-0.6-2.1
			c-0.4-0.6-1.2-1-1.9-0.7c-0.8,0.3-0.9,1.3-1,2.2c-0.1,1.1-0.1,2.3-0.2,3.4c-0.2,3.5-0.4,7.2,0.8,10.5
			C130.6,739.5,131.1,740.2,131.6,740z"/>
		<path class="st19" d="M112.2,739.3c2.3-2.9,4.5-17,0.3-17.5c-1.9-0.2-2.3,2-2.3,3.4c0,4.3-0.9,9-0.2,13.2c0.1,0.7,0.5,1.3,1.2,1.5
			C111.6,739.9,111.9,739.7,112.2,739.3z"/>
		<path class="st20" d="M138.4,722.4c-0.7,5.3-1.4,10.7-2.1,16c-0.1,0.5-0.3,1.2-0.8,1.1c-0.3-0.1-0.5-0.4-0.6-0.7
			c-0.5-1.2-2.6-14.1-2.6-14.1c-4.7,1.7-10.2,2.2-15.2,1.1c0.2,0,0.1,3.2,0.1,3.6c0,1.2-0.1,2.4-0.1,3.7c-0.1,1.2-0.2,2.5-0.3,3.7
			c0,0.6,0,1.1,0,1.7c0,0.5,0,1.1-0.2,1.5c-0.1,0.2-0.3,0.4-0.5,0.4c-0.2,0-0.4-0.1-0.6-0.2c-0.6-0.6-0.7-1.4-0.9-2.1
			c-0.2-0.6-0.3-1.2-0.5-1.8c-0.3-1.2-0.5-2.4-0.7-3.7c-0.2-1.2-0.3-2.5-0.4-3.7c0-0.6-0.1-1.2-0.1-1.9c0-0.3,0-0.6,0-1
			c0-0.1,0.1-0.7,0-0.8c-5.6-5.6-7.6-14.8-4.9-22.2c0.3-0.8,0.7-1.6,1.3-2.2c1.6-1.3,2.4-0.3,2.8,1c0.3,0.9,0.4,1.9,0.4,2.5
			c0.3,4.6,2.5,8.7,7.4,9.1c5.2,0.4,11.8-3.9,16.5-0.3C139,715.1,138.8,719.1,138.4,722.4z"/>
		<path class="st21" d="M109.1,712.3c-0.1,1.2-0.5,2.3-0.9,3.4c0,0.1-0.1,0.2-0.1,0.4c-0.1,0.2-0.1,0.4-0.2,0.6
			c-0.2,0.5-0.3,0.9-0.5,1.4c0,0.2-0.1,0.3-0.1,0.5c-0.1,0.3-0.1,0.5-0.2,0.8c0,0.1-0.1,0.2-0.1,0.4c-0.1,0.2-0.1,0.5-0.1,0.7
			c-0.1,0.4-0.1,0.8-0.1,1.2c0,0.3,0,0.6,0,0.8v0c0,0.1,0,0.3,0,0.4c0.1,0.8,0.3,1.6,0.7,2.3c-1.4,0.1-3,0.3-4.2,1
			c-0.2-0.6-0.3-1.2-0.4-1.7c0-0.1,0-0.2,0-0.3c0-0.5-0.1-1,0-1.6c0-0.7,0.2-1.5,0.4-2.2c0.1-0.3,0.2-0.6,0.3-0.9
			c0-0.1,0.1-0.2,0.1-0.3c0.2-0.4,0.3-0.8,0.6-1.1c0-0.1,0.1-0.2,0.2-0.3c0.4-0.6,0.8-1.2,1.3-1.9c0.1-0.2,0.2-0.3,0.3-0.5
			c0.1-0.1,0.1-0.2,0.2-0.3c0.5-0.8,0.9-1.7,0.9-2.7C107.6,712.3,108.3,712.5,109.1,712.3z"/>
		<path class="st22" d="M108.7,684.5c-1.4-1.7-2.1-4-3-6c-0.5-1.1-1-2.3-1.5-3.4c0,0,0,0,0,0c0.1-0.1,0.2-0.1,0.2-0.2
			c0.2-0.4,0.2-0.8,0.3-1.2c0.1-0.5,0.3-0.9,0.4-1.3c0.2-0.4-0.2-0.9-0.6-1c-0.5-0.1-0.8,0.2-1,0.6c-0.1,0.3-0.3,0.7-0.3,1
			c-0.2-0.4-0.4-0.8-0.7-1.1c-0.6-0.7-1.7,0.1-1.5,0.9c0.3,1.1,1,2.3,1.6,3.3c-0.3-0.1-0.6-0.2-0.9-0.3c-0.5-0.2-1.1,0.2-1.3,0.7
			c-0.2,0.6,0.2,1.1,0.7,1.3c0.8,0.3,1.7,0.6,2.5,0.5c0,0,0,0,0,0c0.3,0.6,0.6,1.2,0.9,1.8c0.9,1.8,1.6,4.5,3.8,5.2
			C108.7,685.4,109,684.8,108.7,684.5z"/>
		<path class="st22" d="M113.7,684.1c1.4-1.7,2.1-4,3-6c0.5-1.1,1-2.3,1.5-3.4c0,0,0,0,0,0c-0.1-0.1-0.2-0.1-0.2-0.2
			c-0.2-0.4-0.2-0.8-0.3-1.2c-0.1-0.5-0.3-0.9-0.4-1.3c-0.2-0.4,0.2-0.9,0.6-1c0.5-0.1,0.8,0.2,1,0.6c0.1,0.3,0.3,0.7,0.3,1
			c0.2-0.4,0.4-0.8,0.7-1.1c0.6-0.7,1.7,0.1,1.5,0.9c-0.3,1.1-1,2.3-1.6,3.3c0.3-0.1,0.6-0.2,0.9-0.3c0.5-0.2,1.1,0.2,1.3,0.7
			c0.2,0.6-0.2,1.1-0.7,1.3c-0.8,0.3-1.7,0.6-2.5,0.5c0,0,0,0,0,0c-0.3,0.6-0.6,1.2-0.9,1.8c-0.9,1.8-1.6,4.5-3.8,5.2
			C113.7,685,113.4,684.4,113.7,684.1z"/>
		<path class="st20" d="M109,684.1c-0.5,1.5-1.7,2.6-3.2,3.1c-0.4,0.1-0.8,0.2-1.2,0.3c-2,0.1-4-1-4.9-2.7c-0.2-0.5-0.4-1-0.4-1.5
			c0-0.3,0-0.9,0.3-1.1c0.2-0.2,0.9,0.3,1.2,0.4c0.9,0.4,1.8,0.7,2.7,0.9c0.9,0.2,1.8,0.4,2.7,0.5C106.5,683.9,109,684.3,109,684.1z
			"/>
		<path class="st19" d="M105.8,687.2c-0.4,0.1-0.8,0.2-1.2,0.3c-2,0.1-4-1-4.9-2.7c-0.1-0.3-0.3-0.7-0.3-1c0.1-0.6,0.6-0.1,0.8,0.1
			c0.7,0.6,1.4,1,2.2,1.4c0.7,0.3,1.4,0.5,2.2,0.6c0.6,0.1,1.2,0.2,1.3,0.9C106,686.9,105.9,687.1,105.8,687.2z"/>
		<path class="st20" d="M113,684.1c0.5,1.5,1.7,2.6,3.2,3.1c0.4,0.1,0.8,0.2,1.2,0.3c2,0.1,4-1,4.9-2.7c0.2-0.5,0.4-1,0.4-1.5
			c0-0.3,0-0.9-0.3-1.1c-0.2-0.2-0.9,0.3-1.2,0.4c-0.9,0.4-1.8,0.7-2.7,0.9c-0.9,0.2-1.8,0.4-2.7,0.5
			C115.5,683.9,113.1,684.3,113,684.1z"/>
		<path class="st19" d="M116.2,687.2c0.4,0.1,0.8,0.2,1.2,0.3c2,0.1,4-1,4.9-2.7c0.1-0.3,0.3-0.7,0.3-1c-0.1-0.6-0.6-0.1-0.8,0.1
			c-0.7,0.6-1.4,1-2.2,1.4c-0.7,0.3-1.4,0.5-2.2,0.6c-0.6,0.1-1.2,0.2-1.3,0.9C116.1,686.9,116.1,687.1,116.2,687.2z"/>
		<path class="st20" d="M118.2,694c-0.3-4.9-1.4-10-6.1-10.7c-2.4-0.3-4.9,0.8-6.3,2.7c-2.1,2.8-2.1,6.7-2.3,10.1
			c-0.1,3.2-1.3,6.9,1.5,9.3c1.7,1.5,4.3,1.5,6.6,1.5c1.3,0,2.7,0,3.9-0.4c1.3-0.4,2.4-1.2,2.9-2.4c0.5-1.1,0.3-2.3,0.2-3.4
			C118.4,698.8,118.4,696.5,118.2,694z"/>
		<path class="st23" d="M107.7,700.3c-1.5,0.7-2.6,1.9-2.5,3.5c0.2,5,11.4,4.1,11.1-0.9C116.2,699.3,111,698.7,107.7,700.3z"/>
		<path class="st22" d="M111.2,703c1.1-0.1,2.4-0.2,2.8-0.8c0.5-0.6-0.3-1.3-1.4-1.6c-1.1-0.2-2.3-0.1-3.3,0.1c-1,0.2-2,0.7-1.9,1.3
			c0.1,0.4,0.8,0.8,1.5,0.9C109.7,703.1,110.4,703,111.2,703z"/>
		<path class="st24" d="M107.9,693.8c-0.4,0-0.7,0.3-0.7,0.7l0,0.6c0,0.4,0.3,0.8,0.7,0.7c0.4,0,0.7-0.3,0.7-0.7l0-0.6
			C108.7,694.2,108.3,693.8,107.9,693.8z"/>
		<path class="st24" d="M114.1,694.1c-0.4,0-0.7,0.4-0.7,0.8l0,0.4c0,0.4,0.3,0.8,0.7,0.8c0.4,0,0.7-0.4,0.7-0.8l0-0.4
			C114.9,694.5,114.5,694.1,114.1,694.1z"/>
		<path class="st19" d="M132.3,724.8l-0.1,0.1C132.2,724.8,132.3,724.8,132.3,724.8z"/>
		<path class="st25" d="M132.3,724.8c-4.7,1.7-10.2,2.2-15.2,1.1c0,0-2-5.9,6.4-7.1C131.8,717.6,133.8,720.8,132.3,724.8z"/>
		<path class="st20" d="M136.8,719.3c-1.3,0.3-2.7-0.3-3.4-1.4c-0.7-1.1-0.6-2.6,0-3.7c0.7-1.3,2.2-2.2,2.8-3.6
			c0.2-0.5,0.3-1.1,0.6-1.5c0.3-0.5,0.8-0.9,1.3-0.8c0.8,0.1,1.1,1,1.2,1.8c0.2,1.3,0.3,2.6,0.3,4c0,1.1-0.1,2.2-0.5,3.2
			C138.7,718.2,137.9,719.1,136.8,719.3z"/>
		<path class="st26" d="M116.1,711c-0.9,1.9-2.4,1.9-4.3,2.2c-1.9,0.3-4.1,0.1-5.8-0.8c0-0.2,0-0.3-0.1-0.5c0-0.1,0-0.2,0-0.3
			c0,0,0,0,0,0c0-0.2,0-0.3,0-0.5c0-0.1,0-0.2,0-0.3c0-0.5,0.1-1,0.1-1.5c0-0.1,0-0.1,0-0.2c0,0,0-0.1,0-0.1c0-0.4,0.1-0.8,0.1-1.2
			c2.6,1.3,5.7,1.4,8.3,0.1c0.1,0.2,0.2,0.4,0.4,0.6c0,0.1,0.1,0.1,0.1,0.2c0,0,0.1,0.1,0.1,0.1c0.1,0.2,0.2,0.4,0.3,0.6
			c0.1,0.1,0.1,0.3,0.2,0.4c0,0.1,0.1,0.2,0.1,0.3c0,0.1,0.1,0.1,0.1,0.2v0c0,0.1,0.1,0.1,0.1,0.2C116,710.8,116.1,710.9,116.1,711z
			"/>
		<path class="st27" d="M115.9,710.4L115.9,710.4c-1.3,1.2-3,1.9-4.8,2.1c-1.7,0.2-3.6-0.1-5.1-0.9c0,0,0,0,0,0c0-0.2,0-0.3,0-0.5
			c0-0.1,0-0.2,0-0.3c0-0.5,0.1-1,0.1-1.5c0-0.1,0-0.1,0-0.2c1.5,0.5,3.2,0.8,4.8,0.8c1.4,0,2.9-0.4,4.1-1.1c0,0,0.1,0.1,0.1,0.1
			c0.1,0.2,0.2,0.4,0.3,0.6c0.1,0.1,0.1,0.3,0.2,0.4c0,0.1,0.1,0.2,0.1,0.3C115.8,710.3,115.8,710.4,115.9,710.4z"/>
		<path class="st21" d="M115.1,708.8c-1.1,0.9-2.8,1.1-4.1,1.1c-1.6,0-3.4,0-4.9-0.7c0-0.1,0-0.2,0-0.4c1.6,0.6,3.2,0.8,4.9,0.7
			c0.9,0,1.7-0.1,2.5-0.4c0.5-0.2,1-0.4,1.4-0.7C114.9,708.6,115,708.7,115.1,708.8z"/>
		<path class="st21" d="M116,710.7c-0.5,0.4-1,0.7-1.5,1c-0.9,0.5-1.8,0.8-2.8,1c-1.9,0.3-3.9,0.2-5.7-0.7c0-0.1,0-0.2,0-0.3
			c1.9,0.7,3.8,1,5.8,0.6c1-0.2,1.9-0.5,2.7-1c0.5-0.3,0.9-0.6,1.3-0.9C115.8,710.4,115.9,710.5,116,710.7z"/>
		<path class="st28" d="M115.6,709.9c-0.1,0.2-0.2,0.4-0.4,0.5c-0.5,0.3-0.9,0.2-1.5,0.1c-0.5-0.1-0.8,0-1.1,0.5
			c-0.1,0.2-0.2,0.3-0.4,0.5c-0.4,0.3-0.8-0.1-1.1-0.2c-0.8-0.5-1,0.5-1.7,0.6c-0.6,0.2-1-0.2-1.4-0.6c-0.4-0.4-0.8-0.9-1.3-0.3
			c-0.1,0.1-0.3,0.3-0.5,0.3c-0.1,0-0.2,0-0.3-0.1c0-0.1,0-0.2,0-0.3c0.2,0.1,0.4,0,0.7-0.3c0.1-0.1,0.3-0.2,0.4-0.3
			c0.3-0.1,0.8,0.2,1,0.4c0.2,0.2,0.5,0.6,0.8,0.7c0.5,0.2,0.8-0.2,1.1-0.4c0.3-0.2,0.5-0.4,0.9-0.3c0.6,0.1,1,0.9,1.6,0.1
			c0.2-0.3,0.4-0.6,0.7-0.7c0.5-0.1,0.8,0.1,1.3,0.1c0.7,0.1,0.9-0.3,1.1-0.7C115.5,709.6,115.6,709.8,115.6,709.9z"/>
		<path class="st28" d="M106.3,708.6c-0.2,0-0.2,0.3,0,0.3C106.5,708.9,106.5,708.6,106.3,708.6z"/>
		<path class="st28" d="M107.3,708.9c-0.2,0-0.2,0.2,0,0.2C107.5,709.1,107.5,708.9,107.3,708.9z"/>
		<path class="st28" d="M108.5,709.2c-0.2,0-0.2,0.2,0,0.2C108.6,709.4,108.6,709.2,108.5,709.2z"/>
		<path class="st28" d="M109.7,709.3c-0.2,0-0.2,0.3,0,0.3C109.9,709.5,109.9,709.3,109.7,709.3z"/>
		<path class="st28" d="M110.9,709.3c-0.2,0-0.2,0.3,0,0.3C111.1,709.5,111.1,709.3,110.9,709.3z"/>
		<path class="st28" d="M112.2,709.1c-0.2,0-0.2,0.3,0,0.3S112.4,709.1,112.2,709.1z"/>
		<path class="st28" d="M113.5,708.8c-0.1,0-0.1,0.2,0,0.2S113.6,708.8,113.5,708.8z"/>
		<path class="st28" d="M114.5,708.4c-0.2,0-0.2,0.2,0,0.2C114.6,708.6,114.6,708.4,114.5,708.4z"/>
		<path class="st28" d="M106.2,712.2c-0.2,0-0.2,0.3,0,0.3S106.4,712.2,106.2,712.2z"/>
		<path class="st28" d="M107.2,712.6c-0.2,0-0.2,0.2,0,0.2C107.3,712.8,107.3,712.6,107.2,712.6z"/>
		<path class="st28" d="M108.4,712.9c-0.2,0-0.2,0.3,0,0.3C108.6,713.2,108.6,712.9,108.4,712.9z"/>
		<path class="st28" d="M109.7,713c-0.2,0-0.2,0.2,0,0.2C109.8,713.3,109.8,713,109.7,713z"/>
		<path class="st28" d="M111.1,713c-0.1,0-0.1,0.2,0,0.2C111.3,713.2,111.3,713,111.1,713z"/>
		<path class="st28" d="M112.5,712.8c-0.2,0-0.2,0.2,0,0.2C112.6,713,112.6,712.8,112.5,712.8z"/>
		<path class="st28" d="M113.8,712.5c-0.2,0-0.2,0.2,0,0.2C113.9,712.7,113.9,712.5,113.8,712.5z"/>
		<path class="st28" d="M114.9,711.8c-0.2,0-0.2,0.2,0,0.2S115.1,711.8,114.9,711.8z"/>
		<path class="st28" d="M115.6,711.2c-0.2,0-0.2,0.3,0,0.3S115.8,711.2,115.6,711.2z"/>
		<path class="st21" d="M106.3,709.9c-0.2,0-0.2,0.3,0,0.3S106.5,709.9,106.3,709.9z"/>
		<path class="st21" d="M107.5,711.2c-0.2,0-0.2,0.4,0,0.4C107.7,711.6,107.7,711.2,107.5,711.2z"/>
		<path class="st21" d="M109.2,710.5c-0.2,0-0.2,0.4,0,0.4C109.4,710.8,109.4,710.5,109.2,710.5z"/>
		<path class="st21" d="M110.8,711.5c-0.2,0-0.2,0.4,0,0.4C111,711.9,111,711.5,110.8,711.5z"/>
		<path class="st21" d="M111.9,710.3C111.9,710.3,111.9,710.3,111.9,710.3c-0.2-0.1-0.3,0-0.3,0.1c0,0,0,0,0,0
			c0,0.1,0.1,0.2,0.2,0.2c0,0,0,0,0,0C112,710.7,112,710.4,111.9,710.3z"/>
		<path class="st21" d="M113.5,710.9c-0.2,0-0.2,0.4,0,0.4C113.7,711.2,113.7,710.9,113.5,710.9z"/>
		<path class="st21" d="M114.5,709.6c-0.2,0-0.2,0.4,0,0.4S114.8,709.6,114.5,709.6z"/>
		<path class="st26" d="M106.7,722.9c-0.5,0.2-1,0.3-1.5,0.5c-0.8,0.3-1.6,0.7-2.4,1c0-0.1,0-0.2,0-0.3c0.8-0.4,1.6-0.7,2.3-1
			c0.5-0.2,1.1-0.4,1.6-0.6C106.6,722.6,106.6,722.8,106.7,722.9z"/>
		<path class="st26" d="M107,719.4c0,0.1-0.1,0.2-0.1,0.4c-0.4-0.1-0.8-0.1-1.3-0.2c-0.8-0.1-1.6-0.1-2.3-0.2c0-0.1,0.1-0.2,0.1-0.3
			c0.8,0,1.6,0.1,2.5,0.2C106.3,719.3,106.7,719.3,107,719.4z"/>
		<path class="st26" d="M108.2,715.8c0,0.1-0.1,0.2-0.1,0.4c-0.5-0.2-1.1-0.4-1.6-0.5c-0.2-0.1-0.5-0.1-0.7-0.2
			c0.1-0.1,0.1-0.2,0.2-0.3c0.4,0.1,0.7,0.2,1.1,0.3C107.4,715.6,107.8,715.7,108.2,715.8z"/>
		<path class="st28" d="M104.3,718.8c-0.1-0.1-0.3,0-0.4,0c-0.1,0-0.1,0.1,0,0.1C104,718.9,104.2,719,104.3,718.8
			C104.3,718.9,104.3,718.8,104.3,718.8z"/>
		<path class="st28" d="M104.9,718.8C104.9,718.8,104.9,718.8,104.9,718.8c-0.1,0-0.2,0-0.2,0c-0.1,0-0.1,0.2,0,0.2c0,0,0.1,0,0.1,0
			C104.9,718.9,104.9,718.9,104.9,718.8C105,718.8,105,718.8,104.9,718.8z"/>
		<path class="st28" d="M105.9,718.7c-0.1,0-0.2,0-0.3,0c-0.1,0-0.1,0.1,0,0.2c0.1,0,0.2,0,0.3,0c0.1,0,0.1,0,0.1-0.1c0,0,0,0,0-0.1
			C106,718.8,106,718.7,105.9,718.7z"/>
		<path class="st28" d="M106.8,718.9c-0.1,0-0.1,0-0.2,0c-0.1,0-0.1,0.2,0,0.2c0.1,0,0.1,0,0.2,0
			C106.9,719.1,106.9,718.9,106.8,718.9z"/>
		<path class="st28" d="M106.8,714.8c-0.1-0.1-0.2-0.1-0.3-0.1c-0.1,0-0.1,0.1,0,0.2C106.6,714.9,106.7,714.9,106.8,714.8
			C106.8,714.8,106.8,714.8,106.8,714.8z"/>
		<path class="st28" d="M107.1,714.9c-0.1,0-0.1,0.1,0,0.2c0.1,0,0.3,0.2,0.3,0C107.4,714.9,107.2,714.9,107.1,714.9z"/>
		<path class="st28" d="M108.1,715c-0.1-0.1-0.2-0.1-0.3-0.1c-0.1,0-0.1,0.2,0,0.2c0,0,0.1,0,0.1,0.1
			C108.1,715.4,108.2,715.1,108.1,715z"/>
		<path class="st28" d="M103.4,723.4c-0.1-0.1-0.3,0-0.4,0.1c-0.1,0,0,0.1,0,0.1C103.1,723.6,103.3,723.6,103.4,723.4
			C103.4,723.4,103.4,723.4,103.4,723.4z"/>
		<path class="st28" d="M104.3,723c-0.1-0.1-0.3,0-0.4,0.1c-0.1,0.1,0,0.2,0.1,0.2C104.1,723.2,104.2,723.2,104.3,723
			C104.3,723,104.3,723,104.3,723z"/>
		<path class="st28" d="M105.3,722.6c-0.1-0.1-0.3,0-0.4,0c-0.1,0-0.1,0.1,0,0.2C105,722.8,105.3,722.8,105.3,722.6
			C105.3,722.6,105.3,722.6,105.3,722.6z"/>
		<path class="st28" d="M106.3,722.3c-0.1-0.1-0.4,0-0.5,0.1c-0.1,0.1,0,0.2,0.1,0.1c0.1,0,0.2-0.1,0.2-0.1c0.1,0,0.1,0,0.2-0.1
			C106.4,722.4,106.4,722.3,106.3,722.3z"/>
		<path class="st27" d="M107.8,716.7c-0.2,0.5-0.3,0.9-0.5,1.4c-1.1-0.2-2.2-0.2-3.4-0.1c0-0.1,0.1-0.2,0.2-0.3
			c0.4-0.6,0.8-1.2,1.3-1.9C106.3,716.1,107,716.4,107.8,716.7z"/>
		<path class="st27" d="M106.8,720.5c-0.1,0.4-0.1,0.8-0.1,1.2c-1.4,0-2.7,0.3-4,0.8c0-0.7,0.2-1.5,0.4-2.2c0.1,0,0.2,0,0.3,0
			C104.5,720.3,105.7,720.4,106.8,720.5z"/>
		<path class="st25" d="M121.8,712.9c-0.3,0-0.6,0.1-0.9,0.2c-0.3,0.1-0.7,0.3-1,0.4c-0.4,0.2-0.2,0.9,0.2,0.9
			c0.4,0,0.7-0.1,1.1-0.2c0.3-0.1,0.7-0.2,1-0.5C122.5,713.4,122.2,712.9,121.8,712.9z"/>
		<path class="st25" d="M126.5,712.6c-0.2,0-0.4,0-0.6,0c-0.2,0-0.4,0-0.6,0c-0.3,0.1-0.5,0.6-0.2,0.8c0.2,0.2,0.4,0.3,0.7,0.3
			c0.1,0,0.2,0,0.3,0c0.2,0,0.3-0.1,0.5-0.1C127.1,713.4,127,712.7,126.5,712.6z"/>
		<path class="st25" d="M124.2,715.1c-0.2-0.1,0,0-0.2-0.1c-0.1-0.1-0.3-0.1-0.4-0.1c-0.2,0-0.5,0.1-0.7,0.1c-0.6,0.1-0.5,1.1,0.1,1
			c0.2,0,0.4,0,0.6-0.1c0.1,0,0.2-0.1,0.3-0.1c0.1-0.1,0.1-0.1,0.2-0.2C124.4,715.5,124.4,715.3,124.2,715.1z"/>
		<path class="st25" d="M126.9,715.3c-0.2,0-0.4,0-0.6,0.1c-0.3,0.1-0.3,0.6,0,0.8c0.2,0.1,0.3,0.1,0.6,0.1c0.3,0,0.5-0.2,0.5-0.5
			S127.2,715.3,126.9,715.3z"/>
		<path class="st25" d="M129.9,712.5c-0.2-0.2-0.5-0.3-0.8-0.3c-0.3,0-0.5,0.4-0.3,0.6c0.2,0.2,0.4,0.3,0.6,0.4c0.2,0,0.4,0,0.5-0.2
			C130,712.9,130,712.6,129.9,712.5z"/>
		<path class="st25" d="M125.8,717.1c-0.2-0.3-0.7-0.3-1-0.2c-0.1,0-0.2,0.2-0.3,0.3c0,0.2,0,0.4,0.2,0.4c0.3,0.2,0.7,0.3,1,0.1
			C126,717.7,126,717.3,125.8,717.1z"/>
		<path class="st25" d="M120.1,716.1c-0.1-0.1-0.3,0-0.4,0.1c-0.2,0.2-0.1,0.4,0,0.6c0.1,0.1,0.2,0.2,0.4,0.2c0.2,0,0.4-0.2,0.4-0.4
			C120.5,716.3,120.3,716.1,120.1,716.1z"/>
		<path class="st25" d="M134.1,732.1C134.1,732.2,134.1,732.2,134.1,732.1c-0.1,0.6,0,1.1,0.2,1.6c0.1,0.1,0.2,0.3,0.4,0.3
			c0.1,0,0.2-0.1,0.2-0.2c0.1-0.1,0.1-0.2,0.1-0.3c0.1-0.3,0.1-0.5,0.1-0.8c0-0.3-0.1-0.6-0.3-0.8
			C134.4,731.6,134.2,731.8,134.1,732.1z"/>
		<path class="st25" d="M113.9,732.9C113.9,732.9,113.9,732.9,113.9,732.9c-0.1,0.6,0,1.1,0.2,1.6c0.1,0.1,0.2,0.3,0.4,0.3
			c0.1,0,0.2-0.1,0.2-0.2c0.1-0.1,0.1-0.2,0.1-0.3c0.1-0.3,0.1-0.5,0.1-0.8c0-0.3-0.1-0.6-0.3-0.8
			C114.2,732.3,114,732.5,113.9,732.9z"/>
		<path class="st29" d="M115.5,684.1c0,0,0-0.1,0-0.1c0.3-0.7,0.1-1.5,0-2.2c0-0.2,0-0.3-0.2-0.4c-0.1-0.1-0.3-0.1-0.5-0.1
			c-1.8,0.2-3.6,0.4-5.4,0.6c-0.4,0-0.9,0.1-1.3,0.1c-0.3,0-1.1,0-1.3,0.1c-0.4,0.3,0.1,1.2,0.2,1.6c0.1,0.4,0.1,0.9,0.3,1.2
			c0.3,0.5,1,0.4,1.5,0.5c1.4,0.2,2.9,0.1,4.3,0C114,685.3,115.1,684.8,115.5,684.1z"/>
		<path class="st27" d="M110.4,675c0.2-0.3,0.4-0.5,0.7-0.7c0.5-0.2,1.1,0,1.6,0.4c0.9,0.6,1.7,1.4,2.4,2.3c0.3,0.5,0.6,1,0.8,1.5
			c0.3,0.6-0.3,0.2-0.5,0.1c-0.2-0.1-0.4-0.2-0.7-0.3c-0.2-0.1-0.4-0.1-0.7-0.1c-0.1,0-0.7,0.1-0.7,0.1c0.4,0.7,0.8,1.4,1.1,2.1
			c0.2,0.4,0.7,1.2,0.4,1.6c-0.3,0.5-0.9,0.6-1.4,0.7c-0.8,0.1-1.6,0.3-2.4,0.3c-0.8,0.1-1.5,0.1-2.3,0c-0.4,0-1.1-0.1-1.3-0.5
			c-0.4-0.8,0.6-2.8,0.8-3.6C108.9,677.6,109.6,676.3,110.4,675z"/>
		<path class="st29" d="M115.3,678.9c-0.1,0.2-0.1,0.3,0,0.5c0.1,0.1,0.2,0.3,0.3,0.3c0.3,0.2,0.7,0.2,1,0s0.4-0.6,0.3-0.9
			C116.6,678,115.6,678.2,115.3,678.9z"/>
		<path class="st30" d="M114.5,684.4c0.1-0.1,0.3-0.2,0.4-0.3c0.1-0.1,0.1-0.3,0-0.4c-0.1-0.2-0.4-0.2-0.6-0.1
			c-0.7,0.1-1.3,0.2-2,0.3c-0.9,0.1-1.8,0.2-2.7,0.3c-0.3,0-1,0-1.3,0.2c-0.6,0.4,0.5,0.6,0.7,0.7c0.6,0.2,1.2,0.2,1.8,0.3
			C112.1,685.3,113.4,685,114.5,684.4z"/>
		<path class="st31" d="M108.6,682.1c-0.1-0.3-0.1-0.5,0-0.8c0.2-1.4,0.7-2.7,1.5-3.9c0.3-0.5,0.7-1,1.2-0.9
			c0.4,0.1,0.7,0.5,0.9,0.9c0.4,0.8,0.7,1.7,1,2.6c0.1,0.5,0.2,1,0.1,1.5c-0.2,0.5-0.7,0.9-1.2,1.1c-0.5,0.2-1.1,0.2-1.7,0.2
			c-0.3,0-0.7,0-1-0.1C109,682.6,108.7,682.4,108.6,682.1z"/>
		<path class="st30" d="M116.1,678.5c-0.1,0-0.2,0-0.3,0.1c-0.1,0.1-0.2,0.2-0.2,0.4c0,0.1,0,0.2,0,0.3c0.1,0.1,0.2,0.2,0.3,0.2
			c0.2,0,0.4-0.2,0.5-0.4C116.5,678.8,116.3,678.6,116.1,678.5z"/>
	</g>
</g>
<g class="st32">
	<path class="st6" d="M74.9,365.1c0-0.4-0.4-0.8-0.8-0.8s-0.8,0.4-0.8,0.8s0.4,0.8,0.8,0.8C74.6,365.9,74.9,365.5,74.9,365.1z"/>
	<path class="st6" d="M354.4,129.6c0-0.8-0.6-1.4-1.4-1.4s-1.4,0.6-1.4,1.4c0,0.8,0.6,1.4,1.4,1.4S354.4,130.4,354.4,129.6z"/>
	<path class="st6" d="M129.9,95.9c0-0.8-0.6-1.4-1.4-1.4c-0.8,0-1.4,0.6-1.4,1.4s0.6,1.4,1.4,1.4C129.3,97.4,129.9,96.7,129.9,95.9z
		"/>
	<path class="st6" d="M76.4,533.8c0-1.8-1.4-3.2-3.2-3.2c-1.8,0-3.2,1.4-3.2,3.2s1.4,3.2,3.2,3.2C75,536.9,76.4,535.5,76.4,533.8z"
		/>
	<path class="st6" d="M260.7,641.2c0-0.7-0.5-1.2-1.2-1.2s-1.2,0.5-1.2,1.2s0.5,1.2,1.2,1.2S260.7,641.9,260.7,641.2z"/>
	<path class="st6" d="M339.5,53.6c0-0.4-0.3-0.7-0.7-0.7c-0.4,0-0.7,0.3-0.7,0.7c0,0.4,0.3,0.7,0.7,0.7
		C339.2,54.3,339.5,54,339.5,53.6z"/>
	<path class="st6" d="M379.5,469.1c0-1.8-1.4-3.2-3.2-3.2c-1.8,0-3.2,1.4-3.2,3.2s1.4,3.2,3.2,3.2
		C378,472.4,379.5,470.9,379.5,469.1z"/>
	<path class="st6" d="M31.7,737.8c0-2.3-1.9-4.2-4.2-4.2s-4.2,1.9-4.2,4.2s1.9,4.2,4.2,4.2S31.7,740.1,31.7,737.8z"/>
	<path class="st6" d="M439.3,284.4c0-1-0.8-1.8-1.8-1.8s-1.8,0.8-1.8,1.8s0.8,1.8,1.8,1.8C438.5,286.2,439.3,285.4,439.3,284.4z"/>
	<path class="st6" d="M431.6,269c0-0.5-0.4-0.9-0.9-0.9s-0.9,0.4-0.9,0.9s0.4,0.9,0.9,0.9S431.6,269.5,431.6,269z"/>
	<path class="st6" d="M31.8,253.1c0-1.1-0.9-2-2-2c-1.1,0-2,0.9-2,2s0.9,2,2,2C30.9,255.1,31.8,254.2,31.8,253.1z"/>
	<path class="st6" d="M162.5,33.7c0-0.9-0.7-1.6-1.6-1.6c-0.9,0-1.6,0.7-1.6,1.6c0,0.9,0.7,1.6,1.6,1.6
		C161.8,35.3,162.5,34.6,162.5,33.7z"/>
	<path class="st6" d="M81.8,642.7c0-1.9-1.5-3.4-3.4-3.4s-3.4,1.5-3.4,3.4s1.5,3.4,3.4,3.4S81.8,644.6,81.8,642.7z"/>
	<path class="st6" d="M331.8,567.3c0-0.3-0.2-0.5-0.5-0.5s-0.5,0.2-0.5,0.5s0.2,0.5,0.5,0.5S331.8,567.6,331.8,567.3z"/>
	<path class="st6" d="M316.7,532c0-0.9-0.7-1.5-1.5-1.5s-1.5,0.7-1.5,1.5s0.7,1.5,1.5,1.5C316.1,533.5,316.7,532.8,316.7,532z"/>
	<path class="st6" d="M370.5,61.9c0-0.8-0.7-1.5-1.5-1.5s-1.5,0.7-1.5,1.5s0.7,1.5,1.5,1.5C369.9,63.4,370.5,62.7,370.5,61.9z"/>
	<path class="st6" d="M310.8,130.2c0-0.8-0.6-1.4-1.4-1.4s-1.4,0.6-1.4,1.4c0,0.8,0.6,1.4,1.4,1.4S310.8,131,310.8,130.2z"/>
	<path class="st6" d="M68.6,111.6c0-1-0.8-1.8-1.8-1.8s-1.8,0.8-1.8,1.8s0.8,1.8,1.8,1.8S68.6,112.6,68.6,111.6z"/>
	<path class="st6" d="M345.7,1.5c0-0.5-0.4-0.9-0.9-0.9s-0.9,0.4-0.9,0.9s0.4,0.9,0.9,0.9S345.7,2,345.7,1.5z"/>
	<path class="st6" d="M279.9,25.7c0-0.4-0.4-0.8-0.8-0.8s-0.8,0.4-0.8,0.8c0,0.4,0.4,0.8,0.8,0.8C279.5,26.5,279.9,26.2,279.9,25.7z
		"/>
	<path class="st6" d="M3.4,538.4c0-1-0.8-1.8-1.8-1.8s-1.8,0.8-1.8,1.8s0.8,1.8,1.8,1.8S3.4,539.4,3.4,538.4z"/>
	<path class="st6" d="M163,276.3c0-2.3-1.9-4.2-4.2-4.2s-4.2,1.9-4.2,4.2c0,2.3,1.9,4.2,4.2,4.2C161.1,280.5,163,278.6,163,276.3z"
		/>
	<path class="st6" d="M73.2,416.2c0-1-0.8-1.8-1.7-1.8c-1,0-1.7,0.8-1.7,1.8s0.8,1.7,1.7,1.7S73.2,417.2,73.2,416.2z"/>
	<path class="st6" d="M341,367.9c0-0.5-0.4-1-1-1c-0.5,0-1,0.4-1,1c0,0.5,0.4,1,1,1C340.5,368.9,341,368.5,341,367.9z"/>
	<path class="st6" d="M449.6,460.2c0-0.8-0.7-1.5-1.5-1.5s-1.5,0.7-1.5,1.5s0.7,1.5,1.5,1.5C449,461.6,449.6,461,449.6,460.2z"/>
	<path class="st6" d="M211.8,437.3c0-0.7-0.5-1.2-1.2-1.2s-1.2,0.5-1.2,1.2s0.5,1.2,1.2,1.2S211.8,438,211.8,437.3z"/>
	<path class="st6" d="M190.3,22.6c0-0.7-0.6-1.3-1.3-1.3s-1.3,0.6-1.3,1.3s0.6,1.3,1.3,1.3S190.3,23.3,190.3,22.6z"/>
	<path class="st6" d="M434.5,302.6c0-1.2-1-2.2-2.1-2.2c-1.2,0-2.1,1-2.1,2.2s1,2.1,2.1,2.1C433.6,304.8,434.5,303.8,434.5,302.6z"
		/>
	<path class="st6" d="M104.1,206.1c0-0.4-0.3-0.7-0.7-0.7c-0.4,0-0.7,0.3-0.7,0.7s0.3,0.7,0.7,0.7
		C103.8,206.9,104.1,206.5,104.1,206.1z"/>
	<path class="st6" d="M447,704.4c0-1.7-1.4-3.1-3-3.1c-1.7,0-3.1,1.4-3.1,3.1c0,1.7,1.4,3.1,3.1,3.1
		C445.6,707.5,447,706.1,447,704.4z"/>
	<path class="st6" d="M234.2,314.4c0-1.8-1.4-3.2-3.2-3.2s-3.2,1.4-3.2,3.2c0,1.8,1.5,3.2,3.2,3.2S234.2,316.2,234.2,314.4z"/>
	<path class="st6" d="M307.2,380.1c0-0.4-0.4-0.8-0.8-0.8s-0.8,0.4-0.8,0.8c0,0.5,0.4,0.8,0.8,0.8
		C306.8,381,307.2,380.6,307.2,380.1z"/>
	<path class="st6" d="M149.8,661.2c0-0.5-0.4-0.9-0.9-0.9s-0.9,0.4-0.9,0.9s0.4,0.9,0.9,0.9C149.4,662.1,149.8,661.7,149.8,661.2z"
		/>
	<path class="st6" d="M339.2,416.5c0-0.5-0.4-1-1-1c-0.5,0-1,0.4-1,1c0,0.5,0.4,1,1,1C338.8,417.4,339.2,417,339.2,416.5z"/>
	<path class="st6" d="M167.8,218.2c0-1.1-0.9-1.9-1.9-1.9c-1.1,0-1.9,0.9-1.9,1.9c0,1.1,0.9,1.9,1.9,1.9
		C167,220.2,167.8,219.3,167.8,218.2z"/>
	<path class="st6" d="M357,640.9c0-0.6-0.5-1.1-1.1-1.1s-1.1,0.5-1.1,1.1s0.5,1.1,1.1,1.1S357,641.5,357,640.9z"/>
	<path class="st6" d="M35.2,207c0-0.6-0.5-1-1-1c-0.6,0-1,0.5-1,1c0,0.6,0.5,1,1,1C34.8,208,35.2,207.5,35.2,207z"/>
	<path class="st6" d="M114.1,259.6c0-0.9-0.7-1.6-1.6-1.6s-1.6,0.7-1.6,1.6s0.7,1.6,1.6,1.6C113.4,261.2,114.1,260.5,114.1,259.6z"
		/>
	<path class="st6" d="M127.3,285.8c0-0.8-0.7-1.5-1.5-1.5s-1.5,0.7-1.5,1.5s0.7,1.5,1.5,1.5C126.6,287.3,127.3,286.6,127.3,285.8z"
		/>
	<path class="st6" d="M35.9,110.5c0-0.6-0.5-1.1-1.1-1.1s-1.1,0.5-1.1,1.1c0,0.6,0.5,1.1,1.1,1.1C35.4,111.5,35.9,111.1,35.9,110.5z
		"/>
	<path class="st6" d="M174.7,633.9c0-1-0.8-1.9-1.9-1.9s-1.9,0.8-1.9,1.9c0,1,0.8,1.9,1.9,1.9S174.7,635,174.7,633.9z"/>
	<path class="st6" d="M194.7,538.7c0-1.1-0.9-2-2-2s-2,0.9-2,2s0.9,2,2,2S194.7,539.8,194.7,538.7z"/>
	<path class="st6" d="M415.3,411c0-1.4-1.1-2.5-2.5-2.5s-2.5,1.1-2.5,2.5s1.1,2.5,2.5,2.5S415.3,412.3,415.3,411z"/>
	<path class="st6" d="M434.6,557.7c0-1.1-0.9-1.9-1.9-1.9s-1.9,0.9-1.9,1.9c0,1.1,0.9,1.9,1.9,1.9S434.6,558.8,434.6,557.7z"/>
	<path class="st6" d="M121,590.2c0-0.9-0.8-1.7-1.7-1.7c-0.9,0-1.7,0.8-1.7,1.7c0,1,0.8,1.7,1.7,1.7
		C120.3,591.9,121,591.1,121,590.2z"/>
	<path class="st6" d="M44.6,131.7c0-1.6-1.3-3-3-3c-1.6,0-3,1.3-3,3s1.3,3,3,3C43.2,134.7,44.6,133.4,44.6,131.7z"/>
	<path class="st6" d="M66.1,135.2c0-1.4-1.1-2.5-2.5-2.5s-2.5,1.1-2.5,2.5s1.1,2.5,2.5,2.5S66.1,136.6,66.1,135.2z"/>
	<path class="st6" d="M349.8,277c0-2.3-1.9-4.2-4.2-4.2c-2.3,0-4.2,1.9-4.2,4.2c0,2.3,1.9,4.3,4.2,4.3
		C347.9,281.2,349.8,279.3,349.8,277z"/>
	<path class="st6" d="M251.1,368.3c0-1-0.8-1.8-1.8-1.8s-1.8,0.8-1.8,1.8s0.8,1.8,1.8,1.8C250.3,370,251.1,369.2,251.1,368.3z"/>
	<path class="st6" d="M341.8,661.6c0-0.9-0.7-1.6-1.6-1.6s-1.6,0.7-1.6,1.6s0.7,1.6,1.6,1.6S341.8,662.5,341.8,661.6z"/>
	<path class="st6" d="M246,145c0-0.6-0.4-1-1-1s-1,0.5-1,1s0.5,1,1,1S246,145.6,246,145z"/>
	<path class="st6" d="M88.1,84.2c0-1.2-0.9-2.1-2.1-2.1c-1.1,0-2.1,0.9-2.1,2.1c0,1.1,0.9,2.1,2.1,2.1
		C87.1,86.2,88.1,85.3,88.1,84.2z"/>
	<path class="st6" d="M271.4,643.6c0-2.3-1.9-4.2-4.2-4.2c-2.3,0-4.2,1.9-4.2,4.2s1.9,4.2,4.2,4.2
		C269.5,647.9,271.4,646,271.4,643.6z"/>
	<ellipse class="st6" cx="21.9" cy="504.6" rx="1.4" ry="1.4"/>
	<path class="st6" d="M418.7,193.9c0-0.7-0.6-1.3-1.3-1.3c-0.7,0-1.3,0.6-1.3,1.3s0.6,1.3,1.3,1.3S418.7,194.6,418.7,193.9z"/>
</g>
</svg>
